G04 #@! TF.GenerationSoftware,KiCad,Pcbnew,5.1.5+dfsg1-2build2*
G04 #@! TF.CreationDate,2021-04-17T20:10:40-04:00*
G04 #@! TF.ProjectId,front_controls,66726f6e-745f-4636-9f6e-74726f6c732e,1*
G04 #@! TF.SameCoordinates,Original*
G04 #@! TF.FileFunction,Soldermask,Bot*
G04 #@! TF.FilePolarity,Negative*
%FSLAX46Y46*%
G04 Gerber Fmt 4.6, Leading zero omitted, Abs format (unit mm)*
G04 Created by KiCad (PCBNEW 5.1.5+dfsg1-2build2) date 2021-04-17 20:10:40*
%MOMM*%
%LPD*%
G04 APERTURE LIST*
%ADD10O,2.100000X2.100000*%
%ADD11R,2.100000X2.100000*%
%ADD12C,2.000000*%
%ADD13R,2.000000X2.000000*%
%ADD14O,2.000000X2.000000*%
%ADD15R,1.660000X1.660000*%
%ADD16C,1.660000*%
%ADD17O,2.100000X2.400000*%
%ADD18C,0.100000*%
%ADD19R,2.432000X2.127200*%
%ADD20O,2.432000X2.127200*%
G04 APERTURE END LIST*
D10*
X133900000Y-83400000D03*
X131360000Y-83400000D03*
X128820000Y-83400000D03*
X126280000Y-83400000D03*
X123740000Y-83400000D03*
D11*
X121200000Y-83400000D03*
D10*
X127340000Y-95400000D03*
D11*
X124800000Y-95400000D03*
D10*
X115300000Y-133600000D03*
X117840000Y-133600000D03*
X120380000Y-133600000D03*
X122920000Y-133600000D03*
X125460000Y-133600000D03*
D11*
X128000000Y-133600000D03*
D12*
X96200000Y-99300000D03*
D13*
X96200000Y-95800000D03*
D14*
X169164000Y-133350000D03*
X153924000Y-133350000D03*
X169164000Y-97790000D03*
X153924000Y-130810000D03*
X169164000Y-100330000D03*
X153924000Y-128270000D03*
X169164000Y-102870000D03*
X153924000Y-125730000D03*
X169164000Y-105410000D03*
X153924000Y-123190000D03*
X169164000Y-107950000D03*
X153924000Y-120650000D03*
X169164000Y-110490000D03*
X153924000Y-118110000D03*
X169164000Y-113030000D03*
X153924000Y-115570000D03*
X169164000Y-115570000D03*
X153924000Y-113030000D03*
X169164000Y-118110000D03*
X153924000Y-110490000D03*
X169164000Y-120650000D03*
X153924000Y-107950000D03*
X169164000Y-123190000D03*
X153924000Y-105410000D03*
X169164000Y-125730000D03*
X153924000Y-102870000D03*
X169164000Y-128270000D03*
X153924000Y-100330000D03*
X169164000Y-130810000D03*
D13*
X153924000Y-97790000D03*
D15*
X110022000Y-70558000D03*
D16*
X112562000Y-70558000D03*
X115102000Y-70558000D03*
X115102000Y-62938000D03*
X112562000Y-62938000D03*
X110022000Y-62938000D03*
D17*
X94500000Y-83800000D03*
D18*
G36*
X92771447Y-82601487D02*
G01*
X92801425Y-82605934D01*
X92830824Y-82613298D01*
X92859358Y-82623508D01*
X92886755Y-82636465D01*
X92912750Y-82652046D01*
X92937092Y-82670100D01*
X92959548Y-82690452D01*
X92979900Y-82712908D01*
X92997954Y-82737250D01*
X93013535Y-82763245D01*
X93026492Y-82790642D01*
X93036702Y-82819176D01*
X93044066Y-82848575D01*
X93048513Y-82878553D01*
X93050000Y-82908823D01*
X93050000Y-84691177D01*
X93048513Y-84721447D01*
X93044066Y-84751425D01*
X93036702Y-84780824D01*
X93026492Y-84809358D01*
X93013535Y-84836755D01*
X92997954Y-84862750D01*
X92979900Y-84887092D01*
X92959548Y-84909548D01*
X92937092Y-84929900D01*
X92912750Y-84947954D01*
X92886755Y-84963535D01*
X92859358Y-84976492D01*
X92830824Y-84986702D01*
X92801425Y-84994066D01*
X92771447Y-84998513D01*
X92741177Y-85000000D01*
X91258823Y-85000000D01*
X91228553Y-84998513D01*
X91198575Y-84994066D01*
X91169176Y-84986702D01*
X91140642Y-84976492D01*
X91113245Y-84963535D01*
X91087250Y-84947954D01*
X91062908Y-84929900D01*
X91040452Y-84909548D01*
X91020100Y-84887092D01*
X91002046Y-84862750D01*
X90986465Y-84836755D01*
X90973508Y-84809358D01*
X90963298Y-84780824D01*
X90955934Y-84751425D01*
X90951487Y-84721447D01*
X90950000Y-84691177D01*
X90950000Y-82908823D01*
X90951487Y-82878553D01*
X90955934Y-82848575D01*
X90963298Y-82819176D01*
X90973508Y-82790642D01*
X90986465Y-82763245D01*
X91002046Y-82737250D01*
X91020100Y-82712908D01*
X91040452Y-82690452D01*
X91062908Y-82670100D01*
X91087250Y-82652046D01*
X91113245Y-82636465D01*
X91140642Y-82623508D01*
X91169176Y-82613298D01*
X91198575Y-82605934D01*
X91228553Y-82601487D01*
X91258823Y-82600000D01*
X92741177Y-82600000D01*
X92771447Y-82601487D01*
G37*
D15*
X90542000Y-70558000D03*
D16*
X93082000Y-70558000D03*
X95622000Y-70558000D03*
X95622000Y-62938000D03*
X93082000Y-62938000D03*
X90542000Y-62938000D03*
D15*
X100182000Y-70558000D03*
D16*
X102722000Y-70558000D03*
X105262000Y-70558000D03*
X105262000Y-62938000D03*
X102722000Y-62938000D03*
X100182000Y-62938000D03*
D15*
X120062000Y-70558000D03*
D16*
X122602000Y-70558000D03*
X125142000Y-70558000D03*
X125142000Y-62938000D03*
X122602000Y-62938000D03*
X120062000Y-62938000D03*
D15*
X130102000Y-70558000D03*
D16*
X132642000Y-70558000D03*
X135182000Y-70558000D03*
X135182000Y-62938000D03*
X132642000Y-62938000D03*
X130102000Y-62938000D03*
D15*
X140342000Y-70558000D03*
D16*
X142882000Y-70558000D03*
X145422000Y-70558000D03*
X145422000Y-62938000D03*
X142882000Y-62938000D03*
X140342000Y-62938000D03*
D15*
X150582000Y-70558000D03*
D16*
X153122000Y-70558000D03*
X155662000Y-70558000D03*
X155662000Y-62938000D03*
X153122000Y-62938000D03*
X150582000Y-62938000D03*
D15*
X160622000Y-70558000D03*
D16*
X163162000Y-70558000D03*
X165702000Y-70558000D03*
X165702000Y-62938000D03*
X163162000Y-62938000D03*
X160622000Y-62938000D03*
D15*
X170862000Y-70558000D03*
D16*
X173402000Y-70558000D03*
X175942000Y-70558000D03*
X175942000Y-62938000D03*
X173402000Y-62938000D03*
X170862000Y-62938000D03*
D18*
G36*
X93853447Y-51325487D02*
G01*
X93883425Y-51329934D01*
X93912824Y-51337298D01*
X93941358Y-51347508D01*
X93968755Y-51360465D01*
X93994750Y-51376046D01*
X94019092Y-51394100D01*
X94041548Y-51414452D01*
X94061900Y-51436908D01*
X94079954Y-51461250D01*
X94095535Y-51487245D01*
X94108492Y-51514642D01*
X94118702Y-51543176D01*
X94126066Y-51572575D01*
X94130513Y-51602553D01*
X94132000Y-51632823D01*
X94132000Y-53415177D01*
X94130513Y-53445447D01*
X94126066Y-53475425D01*
X94118702Y-53504824D01*
X94108492Y-53533358D01*
X94095535Y-53560755D01*
X94079954Y-53586750D01*
X94061900Y-53611092D01*
X94041548Y-53633548D01*
X94019092Y-53653900D01*
X93994750Y-53671954D01*
X93968755Y-53687535D01*
X93941358Y-53700492D01*
X93912824Y-53710702D01*
X93883425Y-53718066D01*
X93853447Y-53722513D01*
X93823177Y-53724000D01*
X92340823Y-53724000D01*
X92310553Y-53722513D01*
X92280575Y-53718066D01*
X92251176Y-53710702D01*
X92222642Y-53700492D01*
X92195245Y-53687535D01*
X92169250Y-53671954D01*
X92144908Y-53653900D01*
X92122452Y-53633548D01*
X92102100Y-53611092D01*
X92084046Y-53586750D01*
X92068465Y-53560755D01*
X92055508Y-53533358D01*
X92045298Y-53504824D01*
X92037934Y-53475425D01*
X92033487Y-53445447D01*
X92032000Y-53415177D01*
X92032000Y-51632823D01*
X92033487Y-51602553D01*
X92037934Y-51572575D01*
X92045298Y-51543176D01*
X92055508Y-51514642D01*
X92068465Y-51487245D01*
X92084046Y-51461250D01*
X92102100Y-51436908D01*
X92122452Y-51414452D01*
X92144908Y-51394100D01*
X92169250Y-51376046D01*
X92195245Y-51360465D01*
X92222642Y-51347508D01*
X92251176Y-51337298D01*
X92280575Y-51329934D01*
X92310553Y-51325487D01*
X92340823Y-51324000D01*
X93823177Y-51324000D01*
X93853447Y-51325487D01*
G37*
D17*
X95582000Y-52524000D03*
D18*
G36*
X103533447Y-51325487D02*
G01*
X103563425Y-51329934D01*
X103592824Y-51337298D01*
X103621358Y-51347508D01*
X103648755Y-51360465D01*
X103674750Y-51376046D01*
X103699092Y-51394100D01*
X103721548Y-51414452D01*
X103741900Y-51436908D01*
X103759954Y-51461250D01*
X103775535Y-51487245D01*
X103788492Y-51514642D01*
X103798702Y-51543176D01*
X103806066Y-51572575D01*
X103810513Y-51602553D01*
X103812000Y-51632823D01*
X103812000Y-53415177D01*
X103810513Y-53445447D01*
X103806066Y-53475425D01*
X103798702Y-53504824D01*
X103788492Y-53533358D01*
X103775535Y-53560755D01*
X103759954Y-53586750D01*
X103741900Y-53611092D01*
X103721548Y-53633548D01*
X103699092Y-53653900D01*
X103674750Y-53671954D01*
X103648755Y-53687535D01*
X103621358Y-53700492D01*
X103592824Y-53710702D01*
X103563425Y-53718066D01*
X103533447Y-53722513D01*
X103503177Y-53724000D01*
X102020823Y-53724000D01*
X101990553Y-53722513D01*
X101960575Y-53718066D01*
X101931176Y-53710702D01*
X101902642Y-53700492D01*
X101875245Y-53687535D01*
X101849250Y-53671954D01*
X101824908Y-53653900D01*
X101802452Y-53633548D01*
X101782100Y-53611092D01*
X101764046Y-53586750D01*
X101748465Y-53560755D01*
X101735508Y-53533358D01*
X101725298Y-53504824D01*
X101717934Y-53475425D01*
X101713487Y-53445447D01*
X101712000Y-53415177D01*
X101712000Y-51632823D01*
X101713487Y-51602553D01*
X101717934Y-51572575D01*
X101725298Y-51543176D01*
X101735508Y-51514642D01*
X101748465Y-51487245D01*
X101764046Y-51461250D01*
X101782100Y-51436908D01*
X101802452Y-51414452D01*
X101824908Y-51394100D01*
X101849250Y-51376046D01*
X101875245Y-51360465D01*
X101902642Y-51347508D01*
X101931176Y-51337298D01*
X101960575Y-51329934D01*
X101990553Y-51325487D01*
X102020823Y-51324000D01*
X103503177Y-51324000D01*
X103533447Y-51325487D01*
G37*
D17*
X105262000Y-52524000D03*
D18*
G36*
X113333447Y-51325487D02*
G01*
X113363425Y-51329934D01*
X113392824Y-51337298D01*
X113421358Y-51347508D01*
X113448755Y-51360465D01*
X113474750Y-51376046D01*
X113499092Y-51394100D01*
X113521548Y-51414452D01*
X113541900Y-51436908D01*
X113559954Y-51461250D01*
X113575535Y-51487245D01*
X113588492Y-51514642D01*
X113598702Y-51543176D01*
X113606066Y-51572575D01*
X113610513Y-51602553D01*
X113612000Y-51632823D01*
X113612000Y-53415177D01*
X113610513Y-53445447D01*
X113606066Y-53475425D01*
X113598702Y-53504824D01*
X113588492Y-53533358D01*
X113575535Y-53560755D01*
X113559954Y-53586750D01*
X113541900Y-53611092D01*
X113521548Y-53633548D01*
X113499092Y-53653900D01*
X113474750Y-53671954D01*
X113448755Y-53687535D01*
X113421358Y-53700492D01*
X113392824Y-53710702D01*
X113363425Y-53718066D01*
X113333447Y-53722513D01*
X113303177Y-53724000D01*
X111820823Y-53724000D01*
X111790553Y-53722513D01*
X111760575Y-53718066D01*
X111731176Y-53710702D01*
X111702642Y-53700492D01*
X111675245Y-53687535D01*
X111649250Y-53671954D01*
X111624908Y-53653900D01*
X111602452Y-53633548D01*
X111582100Y-53611092D01*
X111564046Y-53586750D01*
X111548465Y-53560755D01*
X111535508Y-53533358D01*
X111525298Y-53504824D01*
X111517934Y-53475425D01*
X111513487Y-53445447D01*
X111512000Y-53415177D01*
X111512000Y-51632823D01*
X111513487Y-51602553D01*
X111517934Y-51572575D01*
X111525298Y-51543176D01*
X111535508Y-51514642D01*
X111548465Y-51487245D01*
X111564046Y-51461250D01*
X111582100Y-51436908D01*
X111602452Y-51414452D01*
X111624908Y-51394100D01*
X111649250Y-51376046D01*
X111675245Y-51360465D01*
X111702642Y-51347508D01*
X111731176Y-51337298D01*
X111760575Y-51329934D01*
X111790553Y-51325487D01*
X111820823Y-51324000D01*
X113303177Y-51324000D01*
X113333447Y-51325487D01*
G37*
D17*
X115062000Y-52524000D03*
D18*
G36*
X123373447Y-51325487D02*
G01*
X123403425Y-51329934D01*
X123432824Y-51337298D01*
X123461358Y-51347508D01*
X123488755Y-51360465D01*
X123514750Y-51376046D01*
X123539092Y-51394100D01*
X123561548Y-51414452D01*
X123581900Y-51436908D01*
X123599954Y-51461250D01*
X123615535Y-51487245D01*
X123628492Y-51514642D01*
X123638702Y-51543176D01*
X123646066Y-51572575D01*
X123650513Y-51602553D01*
X123652000Y-51632823D01*
X123652000Y-53415177D01*
X123650513Y-53445447D01*
X123646066Y-53475425D01*
X123638702Y-53504824D01*
X123628492Y-53533358D01*
X123615535Y-53560755D01*
X123599954Y-53586750D01*
X123581900Y-53611092D01*
X123561548Y-53633548D01*
X123539092Y-53653900D01*
X123514750Y-53671954D01*
X123488755Y-53687535D01*
X123461358Y-53700492D01*
X123432824Y-53710702D01*
X123403425Y-53718066D01*
X123373447Y-53722513D01*
X123343177Y-53724000D01*
X121860823Y-53724000D01*
X121830553Y-53722513D01*
X121800575Y-53718066D01*
X121771176Y-53710702D01*
X121742642Y-53700492D01*
X121715245Y-53687535D01*
X121689250Y-53671954D01*
X121664908Y-53653900D01*
X121642452Y-53633548D01*
X121622100Y-53611092D01*
X121604046Y-53586750D01*
X121588465Y-53560755D01*
X121575508Y-53533358D01*
X121565298Y-53504824D01*
X121557934Y-53475425D01*
X121553487Y-53445447D01*
X121552000Y-53415177D01*
X121552000Y-51632823D01*
X121553487Y-51602553D01*
X121557934Y-51572575D01*
X121565298Y-51543176D01*
X121575508Y-51514642D01*
X121588465Y-51487245D01*
X121604046Y-51461250D01*
X121622100Y-51436908D01*
X121642452Y-51414452D01*
X121664908Y-51394100D01*
X121689250Y-51376046D01*
X121715245Y-51360465D01*
X121742642Y-51347508D01*
X121771176Y-51337298D01*
X121800575Y-51329934D01*
X121830553Y-51325487D01*
X121860823Y-51324000D01*
X123343177Y-51324000D01*
X123373447Y-51325487D01*
G37*
D17*
X125102000Y-52524000D03*
D18*
G36*
X133453447Y-51325487D02*
G01*
X133483425Y-51329934D01*
X133512824Y-51337298D01*
X133541358Y-51347508D01*
X133568755Y-51360465D01*
X133594750Y-51376046D01*
X133619092Y-51394100D01*
X133641548Y-51414452D01*
X133661900Y-51436908D01*
X133679954Y-51461250D01*
X133695535Y-51487245D01*
X133708492Y-51514642D01*
X133718702Y-51543176D01*
X133726066Y-51572575D01*
X133730513Y-51602553D01*
X133732000Y-51632823D01*
X133732000Y-53415177D01*
X133730513Y-53445447D01*
X133726066Y-53475425D01*
X133718702Y-53504824D01*
X133708492Y-53533358D01*
X133695535Y-53560755D01*
X133679954Y-53586750D01*
X133661900Y-53611092D01*
X133641548Y-53633548D01*
X133619092Y-53653900D01*
X133594750Y-53671954D01*
X133568755Y-53687535D01*
X133541358Y-53700492D01*
X133512824Y-53710702D01*
X133483425Y-53718066D01*
X133453447Y-53722513D01*
X133423177Y-53724000D01*
X131940823Y-53724000D01*
X131910553Y-53722513D01*
X131880575Y-53718066D01*
X131851176Y-53710702D01*
X131822642Y-53700492D01*
X131795245Y-53687535D01*
X131769250Y-53671954D01*
X131744908Y-53653900D01*
X131722452Y-53633548D01*
X131702100Y-53611092D01*
X131684046Y-53586750D01*
X131668465Y-53560755D01*
X131655508Y-53533358D01*
X131645298Y-53504824D01*
X131637934Y-53475425D01*
X131633487Y-53445447D01*
X131632000Y-53415177D01*
X131632000Y-51632823D01*
X131633487Y-51602553D01*
X131637934Y-51572575D01*
X131645298Y-51543176D01*
X131655508Y-51514642D01*
X131668465Y-51487245D01*
X131684046Y-51461250D01*
X131702100Y-51436908D01*
X131722452Y-51414452D01*
X131744908Y-51394100D01*
X131769250Y-51376046D01*
X131795245Y-51360465D01*
X131822642Y-51347508D01*
X131851176Y-51337298D01*
X131880575Y-51329934D01*
X131910553Y-51325487D01*
X131940823Y-51324000D01*
X133423177Y-51324000D01*
X133453447Y-51325487D01*
G37*
D17*
X135182000Y-52524000D03*
D18*
G36*
X143653447Y-51255487D02*
G01*
X143683425Y-51259934D01*
X143712824Y-51267298D01*
X143741358Y-51277508D01*
X143768755Y-51290465D01*
X143794750Y-51306046D01*
X143819092Y-51324100D01*
X143841548Y-51344452D01*
X143861900Y-51366908D01*
X143879954Y-51391250D01*
X143895535Y-51417245D01*
X143908492Y-51444642D01*
X143918702Y-51473176D01*
X143926066Y-51502575D01*
X143930513Y-51532553D01*
X143932000Y-51562823D01*
X143932000Y-53345177D01*
X143930513Y-53375447D01*
X143926066Y-53405425D01*
X143918702Y-53434824D01*
X143908492Y-53463358D01*
X143895535Y-53490755D01*
X143879954Y-53516750D01*
X143861900Y-53541092D01*
X143841548Y-53563548D01*
X143819092Y-53583900D01*
X143794750Y-53601954D01*
X143768755Y-53617535D01*
X143741358Y-53630492D01*
X143712824Y-53640702D01*
X143683425Y-53648066D01*
X143653447Y-53652513D01*
X143623177Y-53654000D01*
X142140823Y-53654000D01*
X142110553Y-53652513D01*
X142080575Y-53648066D01*
X142051176Y-53640702D01*
X142022642Y-53630492D01*
X141995245Y-53617535D01*
X141969250Y-53601954D01*
X141944908Y-53583900D01*
X141922452Y-53563548D01*
X141902100Y-53541092D01*
X141884046Y-53516750D01*
X141868465Y-53490755D01*
X141855508Y-53463358D01*
X141845298Y-53434824D01*
X141837934Y-53405425D01*
X141833487Y-53375447D01*
X141832000Y-53345177D01*
X141832000Y-51562823D01*
X141833487Y-51532553D01*
X141837934Y-51502575D01*
X141845298Y-51473176D01*
X141855508Y-51444642D01*
X141868465Y-51417245D01*
X141884046Y-51391250D01*
X141902100Y-51366908D01*
X141922452Y-51344452D01*
X141944908Y-51324100D01*
X141969250Y-51306046D01*
X141995245Y-51290465D01*
X142022642Y-51277508D01*
X142051176Y-51267298D01*
X142080575Y-51259934D01*
X142110553Y-51255487D01*
X142140823Y-51254000D01*
X143623177Y-51254000D01*
X143653447Y-51255487D01*
G37*
D17*
X145382000Y-52454000D03*
D18*
G36*
X153893447Y-51325487D02*
G01*
X153923425Y-51329934D01*
X153952824Y-51337298D01*
X153981358Y-51347508D01*
X154008755Y-51360465D01*
X154034750Y-51376046D01*
X154059092Y-51394100D01*
X154081548Y-51414452D01*
X154101900Y-51436908D01*
X154119954Y-51461250D01*
X154135535Y-51487245D01*
X154148492Y-51514642D01*
X154158702Y-51543176D01*
X154166066Y-51572575D01*
X154170513Y-51602553D01*
X154172000Y-51632823D01*
X154172000Y-53415177D01*
X154170513Y-53445447D01*
X154166066Y-53475425D01*
X154158702Y-53504824D01*
X154148492Y-53533358D01*
X154135535Y-53560755D01*
X154119954Y-53586750D01*
X154101900Y-53611092D01*
X154081548Y-53633548D01*
X154059092Y-53653900D01*
X154034750Y-53671954D01*
X154008755Y-53687535D01*
X153981358Y-53700492D01*
X153952824Y-53710702D01*
X153923425Y-53718066D01*
X153893447Y-53722513D01*
X153863177Y-53724000D01*
X152380823Y-53724000D01*
X152350553Y-53722513D01*
X152320575Y-53718066D01*
X152291176Y-53710702D01*
X152262642Y-53700492D01*
X152235245Y-53687535D01*
X152209250Y-53671954D01*
X152184908Y-53653900D01*
X152162452Y-53633548D01*
X152142100Y-53611092D01*
X152124046Y-53586750D01*
X152108465Y-53560755D01*
X152095508Y-53533358D01*
X152085298Y-53504824D01*
X152077934Y-53475425D01*
X152073487Y-53445447D01*
X152072000Y-53415177D01*
X152072000Y-51632823D01*
X152073487Y-51602553D01*
X152077934Y-51572575D01*
X152085298Y-51543176D01*
X152095508Y-51514642D01*
X152108465Y-51487245D01*
X152124046Y-51461250D01*
X152142100Y-51436908D01*
X152162452Y-51414452D01*
X152184908Y-51394100D01*
X152209250Y-51376046D01*
X152235245Y-51360465D01*
X152262642Y-51347508D01*
X152291176Y-51337298D01*
X152320575Y-51329934D01*
X152350553Y-51325487D01*
X152380823Y-51324000D01*
X153863177Y-51324000D01*
X153893447Y-51325487D01*
G37*
D17*
X155622000Y-52524000D03*
D18*
G36*
X163933447Y-51325487D02*
G01*
X163963425Y-51329934D01*
X163992824Y-51337298D01*
X164021358Y-51347508D01*
X164048755Y-51360465D01*
X164074750Y-51376046D01*
X164099092Y-51394100D01*
X164121548Y-51414452D01*
X164141900Y-51436908D01*
X164159954Y-51461250D01*
X164175535Y-51487245D01*
X164188492Y-51514642D01*
X164198702Y-51543176D01*
X164206066Y-51572575D01*
X164210513Y-51602553D01*
X164212000Y-51632823D01*
X164212000Y-53415177D01*
X164210513Y-53445447D01*
X164206066Y-53475425D01*
X164198702Y-53504824D01*
X164188492Y-53533358D01*
X164175535Y-53560755D01*
X164159954Y-53586750D01*
X164141900Y-53611092D01*
X164121548Y-53633548D01*
X164099092Y-53653900D01*
X164074750Y-53671954D01*
X164048755Y-53687535D01*
X164021358Y-53700492D01*
X163992824Y-53710702D01*
X163963425Y-53718066D01*
X163933447Y-53722513D01*
X163903177Y-53724000D01*
X162420823Y-53724000D01*
X162390553Y-53722513D01*
X162360575Y-53718066D01*
X162331176Y-53710702D01*
X162302642Y-53700492D01*
X162275245Y-53687535D01*
X162249250Y-53671954D01*
X162224908Y-53653900D01*
X162202452Y-53633548D01*
X162182100Y-53611092D01*
X162164046Y-53586750D01*
X162148465Y-53560755D01*
X162135508Y-53533358D01*
X162125298Y-53504824D01*
X162117934Y-53475425D01*
X162113487Y-53445447D01*
X162112000Y-53415177D01*
X162112000Y-51632823D01*
X162113487Y-51602553D01*
X162117934Y-51572575D01*
X162125298Y-51543176D01*
X162135508Y-51514642D01*
X162148465Y-51487245D01*
X162164046Y-51461250D01*
X162182100Y-51436908D01*
X162202452Y-51414452D01*
X162224908Y-51394100D01*
X162249250Y-51376046D01*
X162275245Y-51360465D01*
X162302642Y-51347508D01*
X162331176Y-51337298D01*
X162360575Y-51329934D01*
X162390553Y-51325487D01*
X162420823Y-51324000D01*
X163903177Y-51324000D01*
X163933447Y-51325487D01*
G37*
D17*
X165662000Y-52524000D03*
D18*
G36*
X174173447Y-51325487D02*
G01*
X174203425Y-51329934D01*
X174232824Y-51337298D01*
X174261358Y-51347508D01*
X174288755Y-51360465D01*
X174314750Y-51376046D01*
X174339092Y-51394100D01*
X174361548Y-51414452D01*
X174381900Y-51436908D01*
X174399954Y-51461250D01*
X174415535Y-51487245D01*
X174428492Y-51514642D01*
X174438702Y-51543176D01*
X174446066Y-51572575D01*
X174450513Y-51602553D01*
X174452000Y-51632823D01*
X174452000Y-53415177D01*
X174450513Y-53445447D01*
X174446066Y-53475425D01*
X174438702Y-53504824D01*
X174428492Y-53533358D01*
X174415535Y-53560755D01*
X174399954Y-53586750D01*
X174381900Y-53611092D01*
X174361548Y-53633548D01*
X174339092Y-53653900D01*
X174314750Y-53671954D01*
X174288755Y-53687535D01*
X174261358Y-53700492D01*
X174232824Y-53710702D01*
X174203425Y-53718066D01*
X174173447Y-53722513D01*
X174143177Y-53724000D01*
X172660823Y-53724000D01*
X172630553Y-53722513D01*
X172600575Y-53718066D01*
X172571176Y-53710702D01*
X172542642Y-53700492D01*
X172515245Y-53687535D01*
X172489250Y-53671954D01*
X172464908Y-53653900D01*
X172442452Y-53633548D01*
X172422100Y-53611092D01*
X172404046Y-53586750D01*
X172388465Y-53560755D01*
X172375508Y-53533358D01*
X172365298Y-53504824D01*
X172357934Y-53475425D01*
X172353487Y-53445447D01*
X172352000Y-53415177D01*
X172352000Y-51632823D01*
X172353487Y-51602553D01*
X172357934Y-51572575D01*
X172365298Y-51543176D01*
X172375508Y-51514642D01*
X172388465Y-51487245D01*
X172404046Y-51461250D01*
X172422100Y-51436908D01*
X172442452Y-51414452D01*
X172464908Y-51394100D01*
X172489250Y-51376046D01*
X172515245Y-51360465D01*
X172542642Y-51347508D01*
X172571176Y-51337298D01*
X172600575Y-51329934D01*
X172630553Y-51325487D01*
X172660823Y-51324000D01*
X174143177Y-51324000D01*
X174173447Y-51325487D01*
G37*
D17*
X175902000Y-52524000D03*
D19*
X90678000Y-138176000D03*
D20*
X90678000Y-135636000D03*
X90678000Y-133096000D03*
X90678000Y-130556000D03*
X90678000Y-128016000D03*
X90678000Y-125476000D03*
X90678000Y-122936000D03*
X90678000Y-120396000D03*
X90678000Y-117856000D03*
X90678000Y-115316000D03*
M02*
