G04 #@! TF.GenerationSoftware,KiCad,Pcbnew,5.1.4+dfsg1-1~bpo10+1*
G04 #@! TF.CreationDate,2020-09-08T10:33:03-04:00*
G04 #@! TF.ProjectId,front_controls,66726f6e-745f-4636-9f6e-74726f6c732e,1*
G04 #@! TF.SameCoordinates,Original*
G04 #@! TF.FileFunction,Copper,L2,Bot*
G04 #@! TF.FilePolarity,Positive*
%FSLAX46Y46*%
G04 Gerber Fmt 4.6, Leading zero omitted, Abs format (unit mm)*
G04 Created by KiCad (PCBNEW 5.1.4+dfsg1-1~bpo10+1) date 2020-09-08 10:33:03*
%MOMM*%
%LPD*%
G04 APERTURE LIST*
%ADD10C,1.260000*%
%ADD11R,1.260000X1.260000*%
%ADD12O,1.700000X2.000000*%
%ADD13C,0.100000*%
%ADD14C,1.700000*%
%ADD15R,2.032000X1.727200*%
%ADD16O,2.032000X1.727200*%
%ADD17O,1.600000X1.600000*%
%ADD18C,0.600000*%
%ADD19C,0.250000*%
%ADD20C,2.750000*%
%ADD21C,0.254000*%
G04 APERTURE END LIST*
D10*
X173990000Y-62230000D03*
X176530000Y-62230000D03*
X179070000Y-62230000D03*
X179070000Y-69850000D03*
X176530000Y-69850000D03*
D11*
X173990000Y-69850000D03*
D10*
X163830000Y-62230000D03*
X166370000Y-62230000D03*
X168910000Y-62230000D03*
X168910000Y-69850000D03*
X166370000Y-69850000D03*
D11*
X163830000Y-69850000D03*
D10*
X153670000Y-62230000D03*
X156210000Y-62230000D03*
X158750000Y-62230000D03*
X158750000Y-69850000D03*
X156210000Y-69850000D03*
D11*
X153670000Y-69850000D03*
D10*
X143510000Y-62230000D03*
X146050000Y-62230000D03*
X148590000Y-62230000D03*
X148590000Y-69850000D03*
X146050000Y-69850000D03*
D11*
X143510000Y-69850000D03*
D10*
X133350000Y-62230000D03*
X135890000Y-62230000D03*
X138430000Y-62230000D03*
X138430000Y-69850000D03*
X135890000Y-69850000D03*
D11*
X133350000Y-69850000D03*
D10*
X123190000Y-62230000D03*
X125730000Y-62230000D03*
X128270000Y-62230000D03*
X128270000Y-69850000D03*
X125730000Y-69850000D03*
D11*
X123190000Y-69850000D03*
D10*
X113030000Y-62230000D03*
X115570000Y-62230000D03*
X118110000Y-62230000D03*
X118110000Y-69850000D03*
X115570000Y-69850000D03*
D11*
X113030000Y-69850000D03*
D10*
X102870000Y-62230000D03*
X105410000Y-62230000D03*
X107950000Y-62230000D03*
X107950000Y-69850000D03*
X105410000Y-69850000D03*
D11*
X102870000Y-69850000D03*
D10*
X92710000Y-62230000D03*
X95250000Y-62230000D03*
X97790000Y-62230000D03*
X97790000Y-69850000D03*
X95250000Y-69850000D03*
D11*
X92710000Y-69850000D03*
D12*
X179030000Y-51816000D03*
D13*
G36*
X177154504Y-50817204D02*
G01*
X177178773Y-50820804D01*
X177202571Y-50826765D01*
X177225671Y-50835030D01*
X177247849Y-50845520D01*
X177268893Y-50858133D01*
X177288598Y-50872747D01*
X177306777Y-50889223D01*
X177323253Y-50907402D01*
X177337867Y-50927107D01*
X177350480Y-50948151D01*
X177360970Y-50970329D01*
X177369235Y-50993429D01*
X177375196Y-51017227D01*
X177378796Y-51041496D01*
X177380000Y-51066000D01*
X177380000Y-52566000D01*
X177378796Y-52590504D01*
X177375196Y-52614773D01*
X177369235Y-52638571D01*
X177360970Y-52661671D01*
X177350480Y-52683849D01*
X177337867Y-52704893D01*
X177323253Y-52724598D01*
X177306777Y-52742777D01*
X177288598Y-52759253D01*
X177268893Y-52773867D01*
X177247849Y-52786480D01*
X177225671Y-52796970D01*
X177202571Y-52805235D01*
X177178773Y-52811196D01*
X177154504Y-52814796D01*
X177130000Y-52816000D01*
X175930000Y-52816000D01*
X175905496Y-52814796D01*
X175881227Y-52811196D01*
X175857429Y-52805235D01*
X175834329Y-52796970D01*
X175812151Y-52786480D01*
X175791107Y-52773867D01*
X175771402Y-52759253D01*
X175753223Y-52742777D01*
X175736747Y-52724598D01*
X175722133Y-52704893D01*
X175709520Y-52683849D01*
X175699030Y-52661671D01*
X175690765Y-52638571D01*
X175684804Y-52614773D01*
X175681204Y-52590504D01*
X175680000Y-52566000D01*
X175680000Y-51066000D01*
X175681204Y-51041496D01*
X175684804Y-51017227D01*
X175690765Y-50993429D01*
X175699030Y-50970329D01*
X175709520Y-50948151D01*
X175722133Y-50927107D01*
X175736747Y-50907402D01*
X175753223Y-50889223D01*
X175771402Y-50872747D01*
X175791107Y-50858133D01*
X175812151Y-50845520D01*
X175834329Y-50835030D01*
X175857429Y-50826765D01*
X175881227Y-50820804D01*
X175905496Y-50817204D01*
X175930000Y-50816000D01*
X177130000Y-50816000D01*
X177154504Y-50817204D01*
X177154504Y-50817204D01*
G37*
D14*
X176530000Y-51816000D03*
D12*
X168910000Y-51816000D03*
D13*
G36*
X167034504Y-50817204D02*
G01*
X167058773Y-50820804D01*
X167082571Y-50826765D01*
X167105671Y-50835030D01*
X167127849Y-50845520D01*
X167148893Y-50858133D01*
X167168598Y-50872747D01*
X167186777Y-50889223D01*
X167203253Y-50907402D01*
X167217867Y-50927107D01*
X167230480Y-50948151D01*
X167240970Y-50970329D01*
X167249235Y-50993429D01*
X167255196Y-51017227D01*
X167258796Y-51041496D01*
X167260000Y-51066000D01*
X167260000Y-52566000D01*
X167258796Y-52590504D01*
X167255196Y-52614773D01*
X167249235Y-52638571D01*
X167240970Y-52661671D01*
X167230480Y-52683849D01*
X167217867Y-52704893D01*
X167203253Y-52724598D01*
X167186777Y-52742777D01*
X167168598Y-52759253D01*
X167148893Y-52773867D01*
X167127849Y-52786480D01*
X167105671Y-52796970D01*
X167082571Y-52805235D01*
X167058773Y-52811196D01*
X167034504Y-52814796D01*
X167010000Y-52816000D01*
X165810000Y-52816000D01*
X165785496Y-52814796D01*
X165761227Y-52811196D01*
X165737429Y-52805235D01*
X165714329Y-52796970D01*
X165692151Y-52786480D01*
X165671107Y-52773867D01*
X165651402Y-52759253D01*
X165633223Y-52742777D01*
X165616747Y-52724598D01*
X165602133Y-52704893D01*
X165589520Y-52683849D01*
X165579030Y-52661671D01*
X165570765Y-52638571D01*
X165564804Y-52614773D01*
X165561204Y-52590504D01*
X165560000Y-52566000D01*
X165560000Y-51066000D01*
X165561204Y-51041496D01*
X165564804Y-51017227D01*
X165570765Y-50993429D01*
X165579030Y-50970329D01*
X165589520Y-50948151D01*
X165602133Y-50927107D01*
X165616747Y-50907402D01*
X165633223Y-50889223D01*
X165651402Y-50872747D01*
X165671107Y-50858133D01*
X165692151Y-50845520D01*
X165714329Y-50835030D01*
X165737429Y-50826765D01*
X165761227Y-50820804D01*
X165785496Y-50817204D01*
X165810000Y-50816000D01*
X167010000Y-50816000D01*
X167034504Y-50817204D01*
X167034504Y-50817204D01*
G37*
D14*
X166410000Y-51816000D03*
D12*
X158710000Y-51816000D03*
D13*
G36*
X156834504Y-50817204D02*
G01*
X156858773Y-50820804D01*
X156882571Y-50826765D01*
X156905671Y-50835030D01*
X156927849Y-50845520D01*
X156948893Y-50858133D01*
X156968598Y-50872747D01*
X156986777Y-50889223D01*
X157003253Y-50907402D01*
X157017867Y-50927107D01*
X157030480Y-50948151D01*
X157040970Y-50970329D01*
X157049235Y-50993429D01*
X157055196Y-51017227D01*
X157058796Y-51041496D01*
X157060000Y-51066000D01*
X157060000Y-52566000D01*
X157058796Y-52590504D01*
X157055196Y-52614773D01*
X157049235Y-52638571D01*
X157040970Y-52661671D01*
X157030480Y-52683849D01*
X157017867Y-52704893D01*
X157003253Y-52724598D01*
X156986777Y-52742777D01*
X156968598Y-52759253D01*
X156948893Y-52773867D01*
X156927849Y-52786480D01*
X156905671Y-52796970D01*
X156882571Y-52805235D01*
X156858773Y-52811196D01*
X156834504Y-52814796D01*
X156810000Y-52816000D01*
X155610000Y-52816000D01*
X155585496Y-52814796D01*
X155561227Y-52811196D01*
X155537429Y-52805235D01*
X155514329Y-52796970D01*
X155492151Y-52786480D01*
X155471107Y-52773867D01*
X155451402Y-52759253D01*
X155433223Y-52742777D01*
X155416747Y-52724598D01*
X155402133Y-52704893D01*
X155389520Y-52683849D01*
X155379030Y-52661671D01*
X155370765Y-52638571D01*
X155364804Y-52614773D01*
X155361204Y-52590504D01*
X155360000Y-52566000D01*
X155360000Y-51066000D01*
X155361204Y-51041496D01*
X155364804Y-51017227D01*
X155370765Y-50993429D01*
X155379030Y-50970329D01*
X155389520Y-50948151D01*
X155402133Y-50927107D01*
X155416747Y-50907402D01*
X155433223Y-50889223D01*
X155451402Y-50872747D01*
X155471107Y-50858133D01*
X155492151Y-50845520D01*
X155514329Y-50835030D01*
X155537429Y-50826765D01*
X155561227Y-50820804D01*
X155585496Y-50817204D01*
X155610000Y-50816000D01*
X156810000Y-50816000D01*
X156834504Y-50817204D01*
X156834504Y-50817204D01*
G37*
D14*
X156210000Y-51816000D03*
D12*
X148550000Y-51816000D03*
D13*
G36*
X146674504Y-50817204D02*
G01*
X146698773Y-50820804D01*
X146722571Y-50826765D01*
X146745671Y-50835030D01*
X146767849Y-50845520D01*
X146788893Y-50858133D01*
X146808598Y-50872747D01*
X146826777Y-50889223D01*
X146843253Y-50907402D01*
X146857867Y-50927107D01*
X146870480Y-50948151D01*
X146880970Y-50970329D01*
X146889235Y-50993429D01*
X146895196Y-51017227D01*
X146898796Y-51041496D01*
X146900000Y-51066000D01*
X146900000Y-52566000D01*
X146898796Y-52590504D01*
X146895196Y-52614773D01*
X146889235Y-52638571D01*
X146880970Y-52661671D01*
X146870480Y-52683849D01*
X146857867Y-52704893D01*
X146843253Y-52724598D01*
X146826777Y-52742777D01*
X146808598Y-52759253D01*
X146788893Y-52773867D01*
X146767849Y-52786480D01*
X146745671Y-52796970D01*
X146722571Y-52805235D01*
X146698773Y-52811196D01*
X146674504Y-52814796D01*
X146650000Y-52816000D01*
X145450000Y-52816000D01*
X145425496Y-52814796D01*
X145401227Y-52811196D01*
X145377429Y-52805235D01*
X145354329Y-52796970D01*
X145332151Y-52786480D01*
X145311107Y-52773867D01*
X145291402Y-52759253D01*
X145273223Y-52742777D01*
X145256747Y-52724598D01*
X145242133Y-52704893D01*
X145229520Y-52683849D01*
X145219030Y-52661671D01*
X145210765Y-52638571D01*
X145204804Y-52614773D01*
X145201204Y-52590504D01*
X145200000Y-52566000D01*
X145200000Y-51066000D01*
X145201204Y-51041496D01*
X145204804Y-51017227D01*
X145210765Y-50993429D01*
X145219030Y-50970329D01*
X145229520Y-50948151D01*
X145242133Y-50927107D01*
X145256747Y-50907402D01*
X145273223Y-50889223D01*
X145291402Y-50872747D01*
X145311107Y-50858133D01*
X145332151Y-50845520D01*
X145354329Y-50835030D01*
X145377429Y-50826765D01*
X145401227Y-50820804D01*
X145425496Y-50817204D01*
X145450000Y-50816000D01*
X146650000Y-50816000D01*
X146674504Y-50817204D01*
X146674504Y-50817204D01*
G37*
D14*
X146050000Y-51816000D03*
D12*
X138430000Y-51816000D03*
D13*
G36*
X136554504Y-50817204D02*
G01*
X136578773Y-50820804D01*
X136602571Y-50826765D01*
X136625671Y-50835030D01*
X136647849Y-50845520D01*
X136668893Y-50858133D01*
X136688598Y-50872747D01*
X136706777Y-50889223D01*
X136723253Y-50907402D01*
X136737867Y-50927107D01*
X136750480Y-50948151D01*
X136760970Y-50970329D01*
X136769235Y-50993429D01*
X136775196Y-51017227D01*
X136778796Y-51041496D01*
X136780000Y-51066000D01*
X136780000Y-52566000D01*
X136778796Y-52590504D01*
X136775196Y-52614773D01*
X136769235Y-52638571D01*
X136760970Y-52661671D01*
X136750480Y-52683849D01*
X136737867Y-52704893D01*
X136723253Y-52724598D01*
X136706777Y-52742777D01*
X136688598Y-52759253D01*
X136668893Y-52773867D01*
X136647849Y-52786480D01*
X136625671Y-52796970D01*
X136602571Y-52805235D01*
X136578773Y-52811196D01*
X136554504Y-52814796D01*
X136530000Y-52816000D01*
X135330000Y-52816000D01*
X135305496Y-52814796D01*
X135281227Y-52811196D01*
X135257429Y-52805235D01*
X135234329Y-52796970D01*
X135212151Y-52786480D01*
X135191107Y-52773867D01*
X135171402Y-52759253D01*
X135153223Y-52742777D01*
X135136747Y-52724598D01*
X135122133Y-52704893D01*
X135109520Y-52683849D01*
X135099030Y-52661671D01*
X135090765Y-52638571D01*
X135084804Y-52614773D01*
X135081204Y-52590504D01*
X135080000Y-52566000D01*
X135080000Y-51066000D01*
X135081204Y-51041496D01*
X135084804Y-51017227D01*
X135090765Y-50993429D01*
X135099030Y-50970329D01*
X135109520Y-50948151D01*
X135122133Y-50927107D01*
X135136747Y-50907402D01*
X135153223Y-50889223D01*
X135171402Y-50872747D01*
X135191107Y-50858133D01*
X135212151Y-50845520D01*
X135234329Y-50835030D01*
X135257429Y-50826765D01*
X135281227Y-50820804D01*
X135305496Y-50817204D01*
X135330000Y-50816000D01*
X136530000Y-50816000D01*
X136554504Y-50817204D01*
X136554504Y-50817204D01*
G37*
D14*
X135930000Y-51816000D03*
D12*
X128230000Y-51746000D03*
D13*
G36*
X126354504Y-50747204D02*
G01*
X126378773Y-50750804D01*
X126402571Y-50756765D01*
X126425671Y-50765030D01*
X126447849Y-50775520D01*
X126468893Y-50788133D01*
X126488598Y-50802747D01*
X126506777Y-50819223D01*
X126523253Y-50837402D01*
X126537867Y-50857107D01*
X126550480Y-50878151D01*
X126560970Y-50900329D01*
X126569235Y-50923429D01*
X126575196Y-50947227D01*
X126578796Y-50971496D01*
X126580000Y-50996000D01*
X126580000Y-52496000D01*
X126578796Y-52520504D01*
X126575196Y-52544773D01*
X126569235Y-52568571D01*
X126560970Y-52591671D01*
X126550480Y-52613849D01*
X126537867Y-52634893D01*
X126523253Y-52654598D01*
X126506777Y-52672777D01*
X126488598Y-52689253D01*
X126468893Y-52703867D01*
X126447849Y-52716480D01*
X126425671Y-52726970D01*
X126402571Y-52735235D01*
X126378773Y-52741196D01*
X126354504Y-52744796D01*
X126330000Y-52746000D01*
X125130000Y-52746000D01*
X125105496Y-52744796D01*
X125081227Y-52741196D01*
X125057429Y-52735235D01*
X125034329Y-52726970D01*
X125012151Y-52716480D01*
X124991107Y-52703867D01*
X124971402Y-52689253D01*
X124953223Y-52672777D01*
X124936747Y-52654598D01*
X124922133Y-52634893D01*
X124909520Y-52613849D01*
X124899030Y-52591671D01*
X124890765Y-52568571D01*
X124884804Y-52544773D01*
X124881204Y-52520504D01*
X124880000Y-52496000D01*
X124880000Y-50996000D01*
X124881204Y-50971496D01*
X124884804Y-50947227D01*
X124890765Y-50923429D01*
X124899030Y-50900329D01*
X124909520Y-50878151D01*
X124922133Y-50857107D01*
X124936747Y-50837402D01*
X124953223Y-50819223D01*
X124971402Y-50802747D01*
X124991107Y-50788133D01*
X125012151Y-50775520D01*
X125034329Y-50765030D01*
X125057429Y-50756765D01*
X125081227Y-50750804D01*
X125105496Y-50747204D01*
X125130000Y-50746000D01*
X126330000Y-50746000D01*
X126354504Y-50747204D01*
X126354504Y-50747204D01*
G37*
D14*
X125730000Y-51746000D03*
D12*
X118070000Y-51816000D03*
D13*
G36*
X116194504Y-50817204D02*
G01*
X116218773Y-50820804D01*
X116242571Y-50826765D01*
X116265671Y-50835030D01*
X116287849Y-50845520D01*
X116308893Y-50858133D01*
X116328598Y-50872747D01*
X116346777Y-50889223D01*
X116363253Y-50907402D01*
X116377867Y-50927107D01*
X116390480Y-50948151D01*
X116400970Y-50970329D01*
X116409235Y-50993429D01*
X116415196Y-51017227D01*
X116418796Y-51041496D01*
X116420000Y-51066000D01*
X116420000Y-52566000D01*
X116418796Y-52590504D01*
X116415196Y-52614773D01*
X116409235Y-52638571D01*
X116400970Y-52661671D01*
X116390480Y-52683849D01*
X116377867Y-52704893D01*
X116363253Y-52724598D01*
X116346777Y-52742777D01*
X116328598Y-52759253D01*
X116308893Y-52773867D01*
X116287849Y-52786480D01*
X116265671Y-52796970D01*
X116242571Y-52805235D01*
X116218773Y-52811196D01*
X116194504Y-52814796D01*
X116170000Y-52816000D01*
X114970000Y-52816000D01*
X114945496Y-52814796D01*
X114921227Y-52811196D01*
X114897429Y-52805235D01*
X114874329Y-52796970D01*
X114852151Y-52786480D01*
X114831107Y-52773867D01*
X114811402Y-52759253D01*
X114793223Y-52742777D01*
X114776747Y-52724598D01*
X114762133Y-52704893D01*
X114749520Y-52683849D01*
X114739030Y-52661671D01*
X114730765Y-52638571D01*
X114724804Y-52614773D01*
X114721204Y-52590504D01*
X114720000Y-52566000D01*
X114720000Y-51066000D01*
X114721204Y-51041496D01*
X114724804Y-51017227D01*
X114730765Y-50993429D01*
X114739030Y-50970329D01*
X114749520Y-50948151D01*
X114762133Y-50927107D01*
X114776747Y-50907402D01*
X114793223Y-50889223D01*
X114811402Y-50872747D01*
X114831107Y-50858133D01*
X114852151Y-50845520D01*
X114874329Y-50835030D01*
X114897429Y-50826765D01*
X114921227Y-50820804D01*
X114945496Y-50817204D01*
X114970000Y-50816000D01*
X116170000Y-50816000D01*
X116194504Y-50817204D01*
X116194504Y-50817204D01*
G37*
D14*
X115570000Y-51816000D03*
D12*
X107910000Y-51816000D03*
D13*
G36*
X106034504Y-50817204D02*
G01*
X106058773Y-50820804D01*
X106082571Y-50826765D01*
X106105671Y-50835030D01*
X106127849Y-50845520D01*
X106148893Y-50858133D01*
X106168598Y-50872747D01*
X106186777Y-50889223D01*
X106203253Y-50907402D01*
X106217867Y-50927107D01*
X106230480Y-50948151D01*
X106240970Y-50970329D01*
X106249235Y-50993429D01*
X106255196Y-51017227D01*
X106258796Y-51041496D01*
X106260000Y-51066000D01*
X106260000Y-52566000D01*
X106258796Y-52590504D01*
X106255196Y-52614773D01*
X106249235Y-52638571D01*
X106240970Y-52661671D01*
X106230480Y-52683849D01*
X106217867Y-52704893D01*
X106203253Y-52724598D01*
X106186777Y-52742777D01*
X106168598Y-52759253D01*
X106148893Y-52773867D01*
X106127849Y-52786480D01*
X106105671Y-52796970D01*
X106082571Y-52805235D01*
X106058773Y-52811196D01*
X106034504Y-52814796D01*
X106010000Y-52816000D01*
X104810000Y-52816000D01*
X104785496Y-52814796D01*
X104761227Y-52811196D01*
X104737429Y-52805235D01*
X104714329Y-52796970D01*
X104692151Y-52786480D01*
X104671107Y-52773867D01*
X104651402Y-52759253D01*
X104633223Y-52742777D01*
X104616747Y-52724598D01*
X104602133Y-52704893D01*
X104589520Y-52683849D01*
X104579030Y-52661671D01*
X104570765Y-52638571D01*
X104564804Y-52614773D01*
X104561204Y-52590504D01*
X104560000Y-52566000D01*
X104560000Y-51066000D01*
X104561204Y-51041496D01*
X104564804Y-51017227D01*
X104570765Y-50993429D01*
X104579030Y-50970329D01*
X104589520Y-50948151D01*
X104602133Y-50927107D01*
X104616747Y-50907402D01*
X104633223Y-50889223D01*
X104651402Y-50872747D01*
X104671107Y-50858133D01*
X104692151Y-50845520D01*
X104714329Y-50835030D01*
X104737429Y-50826765D01*
X104761227Y-50820804D01*
X104785496Y-50817204D01*
X104810000Y-50816000D01*
X106010000Y-50816000D01*
X106034504Y-50817204D01*
X106034504Y-50817204D01*
G37*
D14*
X105410000Y-51816000D03*
D12*
X97750000Y-51816000D03*
D13*
G36*
X95874504Y-50817204D02*
G01*
X95898773Y-50820804D01*
X95922571Y-50826765D01*
X95945671Y-50835030D01*
X95967849Y-50845520D01*
X95988893Y-50858133D01*
X96008598Y-50872747D01*
X96026777Y-50889223D01*
X96043253Y-50907402D01*
X96057867Y-50927107D01*
X96070480Y-50948151D01*
X96080970Y-50970329D01*
X96089235Y-50993429D01*
X96095196Y-51017227D01*
X96098796Y-51041496D01*
X96100000Y-51066000D01*
X96100000Y-52566000D01*
X96098796Y-52590504D01*
X96095196Y-52614773D01*
X96089235Y-52638571D01*
X96080970Y-52661671D01*
X96070480Y-52683849D01*
X96057867Y-52704893D01*
X96043253Y-52724598D01*
X96026777Y-52742777D01*
X96008598Y-52759253D01*
X95988893Y-52773867D01*
X95967849Y-52786480D01*
X95945671Y-52796970D01*
X95922571Y-52805235D01*
X95898773Y-52811196D01*
X95874504Y-52814796D01*
X95850000Y-52816000D01*
X94650000Y-52816000D01*
X94625496Y-52814796D01*
X94601227Y-52811196D01*
X94577429Y-52805235D01*
X94554329Y-52796970D01*
X94532151Y-52786480D01*
X94511107Y-52773867D01*
X94491402Y-52759253D01*
X94473223Y-52742777D01*
X94456747Y-52724598D01*
X94442133Y-52704893D01*
X94429520Y-52683849D01*
X94419030Y-52661671D01*
X94410765Y-52638571D01*
X94404804Y-52614773D01*
X94401204Y-52590504D01*
X94400000Y-52566000D01*
X94400000Y-51066000D01*
X94401204Y-51041496D01*
X94404804Y-51017227D01*
X94410765Y-50993429D01*
X94419030Y-50970329D01*
X94429520Y-50948151D01*
X94442133Y-50927107D01*
X94456747Y-50907402D01*
X94473223Y-50889223D01*
X94491402Y-50872747D01*
X94511107Y-50858133D01*
X94532151Y-50845520D01*
X94554329Y-50835030D01*
X94577429Y-50826765D01*
X94601227Y-50820804D01*
X94625496Y-50817204D01*
X94650000Y-50816000D01*
X95850000Y-50816000D01*
X95874504Y-50817204D01*
X95874504Y-50817204D01*
G37*
D14*
X95250000Y-51816000D03*
D15*
X90551000Y-143129000D03*
D16*
X90551000Y-140589000D03*
X90551000Y-138049000D03*
X90551000Y-135509000D03*
X90551000Y-132969000D03*
X90551000Y-130429000D03*
X90551000Y-127889000D03*
X90551000Y-125349000D03*
X90551000Y-122809000D03*
X90551000Y-120269000D03*
D17*
X153670000Y-102870000D03*
X153670000Y-105410000D03*
X153670000Y-107950000D03*
X153670000Y-110490000D03*
X153670000Y-113030000D03*
X153670000Y-115570000D03*
X153670000Y-118110000D03*
X153670000Y-120650000D03*
X153670000Y-123190000D03*
X153670000Y-125730000D03*
X153670000Y-128270000D03*
X153670000Y-130810000D03*
X153670000Y-133350000D03*
X153670000Y-135890000D03*
X168910000Y-135890000D03*
X168910000Y-133350000D03*
X168910000Y-130810000D03*
X168910000Y-128270000D03*
X168910000Y-125730000D03*
X168910000Y-123190000D03*
X168910000Y-120650000D03*
X168910000Y-118110000D03*
X168910000Y-115570000D03*
X168910000Y-113030000D03*
X168910000Y-110490000D03*
X168910000Y-107950000D03*
X168910000Y-105410000D03*
X168910000Y-102870000D03*
D18*
X172212000Y-104140000D03*
X162433000Y-110744000D03*
X162433000Y-106807000D03*
X162433000Y-104013000D03*
X135128000Y-99187000D03*
X138938000Y-103251000D03*
X142367000Y-99822000D03*
X142748000Y-131572000D03*
X142494000Y-138430000D03*
X145669000Y-141478000D03*
X160782000Y-114681000D03*
X149733000Y-115951000D03*
X142748000Y-114935000D03*
X107569000Y-95250000D03*
X117602000Y-107950000D03*
X162433000Y-100838000D03*
X164973000Y-97155000D03*
X96393000Y-130810000D03*
X96520000Y-113792000D03*
X164846000Y-128016000D03*
X174117000Y-105410000D03*
X119176768Y-78740000D03*
X122936000Y-92456000D03*
X128320768Y-77724000D03*
X125222000Y-85090000D03*
D19*
X138938000Y-102997000D02*
X138938000Y-103251000D01*
X142748000Y-138176000D02*
X142494000Y-138430000D01*
X145542000Y-141478000D02*
X145669000Y-141478000D01*
X160482001Y-114381001D02*
X160782000Y-114681000D01*
X151302999Y-114381001D02*
X160482001Y-114381001D01*
X149733000Y-115951000D02*
X151302999Y-114381001D01*
X143764000Y-115951000D02*
X142748000Y-114935000D01*
X160782000Y-115105264D02*
X160782000Y-114681000D01*
X160782000Y-130443002D02*
X160782000Y-115105264D01*
X150047001Y-141178001D02*
X160782000Y-130443002D01*
X145968999Y-141178001D02*
X150047001Y-141178001D01*
X145669000Y-141478000D02*
X145968999Y-141178001D01*
X113411000Y-101092000D02*
X113411000Y-101473000D01*
X162433000Y-100838000D02*
X162433000Y-99695000D01*
X96393000Y-130810000D02*
X96393000Y-113919000D01*
X96393000Y-113919000D02*
X96520000Y-113792000D01*
X164846000Y-128016000D02*
X164846000Y-140589000D01*
X164846000Y-140589000D02*
X182499000Y-140589000D01*
X182499000Y-140589000D02*
X182499000Y-106934000D01*
X175641000Y-106934000D02*
X174117000Y-105410000D01*
X182499000Y-106934000D02*
X175641000Y-106934000D01*
X121756998Y-92456000D02*
X122936000Y-92456000D01*
X119176768Y-78740000D02*
X119176768Y-89875770D01*
X119176768Y-89875770D02*
X121756998Y-92456000D01*
X128320768Y-77724000D02*
X127000000Y-77724000D01*
X127000000Y-77724000D02*
X127000000Y-83312000D01*
X127000000Y-83312000D02*
X125222000Y-85090000D01*
D20*
X95250000Y-62230000D02*
X95250000Y-51816000D01*
X105410000Y-62230000D02*
X105410000Y-51816000D01*
X115570000Y-62230000D02*
X115570000Y-51816000D01*
X125730000Y-62230000D02*
X125730000Y-51746000D01*
X135890000Y-51856000D02*
X135930000Y-51816000D01*
X135890000Y-62230000D02*
X135890000Y-51856000D01*
X146050000Y-62230000D02*
X146050000Y-51816000D01*
X156210000Y-62230000D02*
X156210000Y-51816000D01*
X166370000Y-51856000D02*
X166410000Y-51816000D01*
X166370000Y-62230000D02*
X166370000Y-51856000D01*
X176530000Y-62230000D02*
X176530000Y-51816000D01*
D21*
G36*
X185472001Y-146610000D02*
G01*
X168870383Y-146610000D01*
X87756027Y-145670452D01*
X87558351Y-120269000D01*
X88892749Y-120269000D01*
X88921684Y-120562777D01*
X89007375Y-120845264D01*
X89146531Y-121105606D01*
X89333803Y-121333797D01*
X89561994Y-121521069D01*
X89595540Y-121539000D01*
X89561994Y-121556931D01*
X89333803Y-121744203D01*
X89146531Y-121972394D01*
X89007375Y-122232736D01*
X88921684Y-122515223D01*
X88892749Y-122809000D01*
X88921684Y-123102777D01*
X89007375Y-123385264D01*
X89146531Y-123645606D01*
X89333803Y-123873797D01*
X89561994Y-124061069D01*
X89595540Y-124079000D01*
X89561994Y-124096931D01*
X89333803Y-124284203D01*
X89146531Y-124512394D01*
X89007375Y-124772736D01*
X88921684Y-125055223D01*
X88892749Y-125349000D01*
X88921684Y-125642777D01*
X89007375Y-125925264D01*
X89146531Y-126185606D01*
X89333803Y-126413797D01*
X89561994Y-126601069D01*
X89595540Y-126619000D01*
X89561994Y-126636931D01*
X89333803Y-126824203D01*
X89146531Y-127052394D01*
X89007375Y-127312736D01*
X88921684Y-127595223D01*
X88892749Y-127889000D01*
X88921684Y-128182777D01*
X89007375Y-128465264D01*
X89146531Y-128725606D01*
X89333803Y-128953797D01*
X89561994Y-129141069D01*
X89595540Y-129159000D01*
X89561994Y-129176931D01*
X89333803Y-129364203D01*
X89146531Y-129592394D01*
X89007375Y-129852736D01*
X88921684Y-130135223D01*
X88892749Y-130429000D01*
X88921684Y-130722777D01*
X89007375Y-131005264D01*
X89146531Y-131265606D01*
X89333803Y-131493797D01*
X89561994Y-131681069D01*
X89595540Y-131699000D01*
X89561994Y-131716931D01*
X89333803Y-131904203D01*
X89146531Y-132132394D01*
X89007375Y-132392736D01*
X88921684Y-132675223D01*
X88892749Y-132969000D01*
X88921684Y-133262777D01*
X89007375Y-133545264D01*
X89146531Y-133805606D01*
X89333803Y-134033797D01*
X89561994Y-134221069D01*
X89595540Y-134239000D01*
X89561994Y-134256931D01*
X89333803Y-134444203D01*
X89146531Y-134672394D01*
X89007375Y-134932736D01*
X88921684Y-135215223D01*
X88892749Y-135509000D01*
X88921684Y-135802777D01*
X89007375Y-136085264D01*
X89146531Y-136345606D01*
X89333803Y-136573797D01*
X89561994Y-136761069D01*
X89595540Y-136779000D01*
X89561994Y-136796931D01*
X89333803Y-136984203D01*
X89146531Y-137212394D01*
X89007375Y-137472736D01*
X88921684Y-137755223D01*
X88892749Y-138049000D01*
X88921684Y-138342777D01*
X89007375Y-138625264D01*
X89146531Y-138885606D01*
X89333803Y-139113797D01*
X89561994Y-139301069D01*
X89595540Y-139319000D01*
X89561994Y-139336931D01*
X89333803Y-139524203D01*
X89146531Y-139752394D01*
X89007375Y-140012736D01*
X88921684Y-140295223D01*
X88892749Y-140589000D01*
X88921684Y-140882777D01*
X89007375Y-141165264D01*
X89146531Y-141425606D01*
X89333803Y-141653797D01*
X89341865Y-141660414D01*
X89290820Y-141675898D01*
X89180506Y-141734863D01*
X89083815Y-141814215D01*
X89004463Y-141910906D01*
X88945498Y-142021220D01*
X88909188Y-142140918D01*
X88896928Y-142265400D01*
X88896928Y-143992600D01*
X88909188Y-144117082D01*
X88945498Y-144236780D01*
X89004463Y-144347094D01*
X89083815Y-144443785D01*
X89180506Y-144523137D01*
X89290820Y-144582102D01*
X89410518Y-144618412D01*
X89535000Y-144630672D01*
X91567000Y-144630672D01*
X91691482Y-144618412D01*
X91811180Y-144582102D01*
X91921494Y-144523137D01*
X92018185Y-144443785D01*
X92097537Y-144347094D01*
X92156502Y-144236780D01*
X92192812Y-144117082D01*
X92205072Y-143992600D01*
X92205072Y-142265400D01*
X92192812Y-142140918D01*
X92156502Y-142021220D01*
X92097537Y-141910906D01*
X92018185Y-141814215D01*
X91921494Y-141734863D01*
X91811180Y-141675898D01*
X91760135Y-141660414D01*
X91768197Y-141653797D01*
X91955469Y-141425606D01*
X92094625Y-141165264D01*
X92180316Y-140882777D01*
X92209251Y-140589000D01*
X92180316Y-140295223D01*
X92094625Y-140012736D01*
X91955469Y-139752394D01*
X91768197Y-139524203D01*
X91540006Y-139336931D01*
X91506460Y-139319000D01*
X91540006Y-139301069D01*
X91768197Y-139113797D01*
X91955469Y-138885606D01*
X92094625Y-138625264D01*
X92180316Y-138342777D01*
X92209251Y-138049000D01*
X92180316Y-137755223D01*
X92094625Y-137472736D01*
X91955469Y-137212394D01*
X91768197Y-136984203D01*
X91540006Y-136796931D01*
X91506460Y-136779000D01*
X91540006Y-136761069D01*
X91768197Y-136573797D01*
X91955469Y-136345606D01*
X92094625Y-136085264D01*
X92180316Y-135802777D01*
X92209251Y-135509000D01*
X92180316Y-135215223D01*
X92094625Y-134932736D01*
X91955469Y-134672394D01*
X91768197Y-134444203D01*
X91540006Y-134256931D01*
X91506460Y-134239000D01*
X91540006Y-134221069D01*
X91768197Y-134033797D01*
X91955469Y-133805606D01*
X92094625Y-133545264D01*
X92180316Y-133262777D01*
X92209251Y-132969000D01*
X92180316Y-132675223D01*
X92094625Y-132392736D01*
X91955469Y-132132394D01*
X91768197Y-131904203D01*
X91540006Y-131716931D01*
X91506460Y-131699000D01*
X91540006Y-131681069D01*
X91768197Y-131493797D01*
X91955469Y-131265606D01*
X92094625Y-131005264D01*
X92180316Y-130722777D01*
X92180795Y-130717911D01*
X95458000Y-130717911D01*
X95458000Y-130902089D01*
X95493932Y-131082729D01*
X95564414Y-131252889D01*
X95666738Y-131406028D01*
X95796972Y-131536262D01*
X95950111Y-131638586D01*
X96120271Y-131709068D01*
X96300911Y-131745000D01*
X96485089Y-131745000D01*
X96665729Y-131709068D01*
X96835889Y-131638586D01*
X96989028Y-131536262D01*
X97119262Y-131406028D01*
X97221586Y-131252889D01*
X97292068Y-131082729D01*
X97328000Y-130902089D01*
X97328000Y-130717911D01*
X97292068Y-130537271D01*
X97221586Y-130367111D01*
X97153000Y-130264465D01*
X97153000Y-114481290D01*
X97246262Y-114388028D01*
X97348586Y-114234889D01*
X97419068Y-114064729D01*
X97455000Y-113884089D01*
X97455000Y-113699911D01*
X97419068Y-113519271D01*
X97348586Y-113349111D01*
X97246262Y-113195972D01*
X97116028Y-113065738D01*
X96962889Y-112963414D01*
X96792729Y-112892932D01*
X96612089Y-112857000D01*
X96427911Y-112857000D01*
X96247271Y-112892932D01*
X96077111Y-112963414D01*
X95923972Y-113065738D01*
X95793738Y-113195972D01*
X95691414Y-113349111D01*
X95620932Y-113519271D01*
X95585000Y-113699911D01*
X95585000Y-113884089D01*
X95620932Y-114064729D01*
X95633001Y-114093866D01*
X95633000Y-130264465D01*
X95564414Y-130367111D01*
X95493932Y-130537271D01*
X95458000Y-130717911D01*
X92180795Y-130717911D01*
X92209251Y-130429000D01*
X92180316Y-130135223D01*
X92094625Y-129852736D01*
X91955469Y-129592394D01*
X91768197Y-129364203D01*
X91540006Y-129176931D01*
X91506460Y-129159000D01*
X91540006Y-129141069D01*
X91768197Y-128953797D01*
X91955469Y-128725606D01*
X92094625Y-128465264D01*
X92180316Y-128182777D01*
X92209251Y-127889000D01*
X92180316Y-127595223D01*
X92094625Y-127312736D01*
X91955469Y-127052394D01*
X91768197Y-126824203D01*
X91540006Y-126636931D01*
X91506460Y-126619000D01*
X91540006Y-126601069D01*
X91768197Y-126413797D01*
X91955469Y-126185606D01*
X92094625Y-125925264D01*
X92180316Y-125642777D01*
X92209251Y-125349000D01*
X92180316Y-125055223D01*
X92094625Y-124772736D01*
X91955469Y-124512394D01*
X91768197Y-124284203D01*
X91540006Y-124096931D01*
X91506460Y-124079000D01*
X91540006Y-124061069D01*
X91768197Y-123873797D01*
X91955469Y-123645606D01*
X92094625Y-123385264D01*
X92180316Y-123102777D01*
X92209251Y-122809000D01*
X92180316Y-122515223D01*
X92094625Y-122232736D01*
X91955469Y-121972394D01*
X91768197Y-121744203D01*
X91540006Y-121556931D01*
X91506460Y-121539000D01*
X91540006Y-121521069D01*
X91768197Y-121333797D01*
X91955469Y-121105606D01*
X92094625Y-120845264D01*
X92180316Y-120562777D01*
X92209251Y-120269000D01*
X92180316Y-119975223D01*
X92094625Y-119692736D01*
X91955469Y-119432394D01*
X91768197Y-119204203D01*
X91540006Y-119016931D01*
X91279664Y-118877775D01*
X90997177Y-118792084D01*
X90777019Y-118770400D01*
X90324981Y-118770400D01*
X90104823Y-118792084D01*
X89822336Y-118877775D01*
X89561994Y-119016931D01*
X89333803Y-119204203D01*
X89146531Y-119432394D01*
X89007375Y-119692736D01*
X88921684Y-119975223D01*
X88892749Y-120269000D01*
X87558351Y-120269000D01*
X87422951Y-102870000D01*
X152228057Y-102870000D01*
X152255764Y-103151309D01*
X152337818Y-103421808D01*
X152471068Y-103671101D01*
X152650392Y-103889608D01*
X152868899Y-104068932D01*
X153001858Y-104140000D01*
X152868899Y-104211068D01*
X152650392Y-104390392D01*
X152471068Y-104608899D01*
X152337818Y-104858192D01*
X152255764Y-105128691D01*
X152228057Y-105410000D01*
X152255764Y-105691309D01*
X152337818Y-105961808D01*
X152471068Y-106211101D01*
X152650392Y-106429608D01*
X152868899Y-106608932D01*
X153001858Y-106680000D01*
X152868899Y-106751068D01*
X152650392Y-106930392D01*
X152471068Y-107148899D01*
X152337818Y-107398192D01*
X152255764Y-107668691D01*
X152228057Y-107950000D01*
X152255764Y-108231309D01*
X152337818Y-108501808D01*
X152471068Y-108751101D01*
X152650392Y-108969608D01*
X152868899Y-109148932D01*
X153001858Y-109220000D01*
X152868899Y-109291068D01*
X152650392Y-109470392D01*
X152471068Y-109688899D01*
X152337818Y-109938192D01*
X152255764Y-110208691D01*
X152228057Y-110490000D01*
X152255764Y-110771309D01*
X152337818Y-111041808D01*
X152471068Y-111291101D01*
X152650392Y-111509608D01*
X152868899Y-111688932D01*
X153001858Y-111760000D01*
X152868899Y-111831068D01*
X152650392Y-112010392D01*
X152471068Y-112228899D01*
X152337818Y-112478192D01*
X152255764Y-112748691D01*
X152228057Y-113030000D01*
X152255764Y-113311309D01*
X152337818Y-113581808D01*
X152471068Y-113831101D01*
X152650392Y-114049608D01*
X152868899Y-114228932D01*
X153001858Y-114300000D01*
X152868899Y-114371068D01*
X152650392Y-114550392D01*
X152471068Y-114768899D01*
X152337818Y-115018192D01*
X152255764Y-115288691D01*
X152228057Y-115570000D01*
X152255764Y-115851309D01*
X152337818Y-116121808D01*
X152471068Y-116371101D01*
X152650392Y-116589608D01*
X152868899Y-116768932D01*
X153001858Y-116840000D01*
X152868899Y-116911068D01*
X152650392Y-117090392D01*
X152471068Y-117308899D01*
X152337818Y-117558192D01*
X152255764Y-117828691D01*
X152228057Y-118110000D01*
X152255764Y-118391309D01*
X152337818Y-118661808D01*
X152471068Y-118911101D01*
X152650392Y-119129608D01*
X152868899Y-119308932D01*
X153001858Y-119380000D01*
X152868899Y-119451068D01*
X152650392Y-119630392D01*
X152471068Y-119848899D01*
X152337818Y-120098192D01*
X152255764Y-120368691D01*
X152228057Y-120650000D01*
X152255764Y-120931309D01*
X152337818Y-121201808D01*
X152471068Y-121451101D01*
X152650392Y-121669608D01*
X152868899Y-121848932D01*
X153001858Y-121920000D01*
X152868899Y-121991068D01*
X152650392Y-122170392D01*
X152471068Y-122388899D01*
X152337818Y-122638192D01*
X152255764Y-122908691D01*
X152228057Y-123190000D01*
X152255764Y-123471309D01*
X152337818Y-123741808D01*
X152471068Y-123991101D01*
X152650392Y-124209608D01*
X152868899Y-124388932D01*
X153001858Y-124460000D01*
X152868899Y-124531068D01*
X152650392Y-124710392D01*
X152471068Y-124928899D01*
X152337818Y-125178192D01*
X152255764Y-125448691D01*
X152228057Y-125730000D01*
X152255764Y-126011309D01*
X152337818Y-126281808D01*
X152471068Y-126531101D01*
X152650392Y-126749608D01*
X152868899Y-126928932D01*
X153001858Y-127000000D01*
X152868899Y-127071068D01*
X152650392Y-127250392D01*
X152471068Y-127468899D01*
X152337818Y-127718192D01*
X152255764Y-127988691D01*
X152228057Y-128270000D01*
X152255764Y-128551309D01*
X152337818Y-128821808D01*
X152471068Y-129071101D01*
X152650392Y-129289608D01*
X152868899Y-129468932D01*
X153001858Y-129540000D01*
X152868899Y-129611068D01*
X152650392Y-129790392D01*
X152471068Y-130008899D01*
X152337818Y-130258192D01*
X152255764Y-130528691D01*
X152228057Y-130810000D01*
X152255764Y-131091309D01*
X152337818Y-131361808D01*
X152471068Y-131611101D01*
X152650392Y-131829608D01*
X152868899Y-132008932D01*
X153001858Y-132080000D01*
X152868899Y-132151068D01*
X152650392Y-132330392D01*
X152471068Y-132548899D01*
X152337818Y-132798192D01*
X152255764Y-133068691D01*
X152228057Y-133350000D01*
X152255764Y-133631309D01*
X152337818Y-133901808D01*
X152471068Y-134151101D01*
X152650392Y-134369608D01*
X152868899Y-134548932D01*
X153001858Y-134620000D01*
X152868899Y-134691068D01*
X152650392Y-134870392D01*
X152471068Y-135088899D01*
X152337818Y-135338192D01*
X152255764Y-135608691D01*
X152228057Y-135890000D01*
X152255764Y-136171309D01*
X152337818Y-136441808D01*
X152471068Y-136691101D01*
X152650392Y-136909608D01*
X152868899Y-137088932D01*
X153118192Y-137222182D01*
X153388691Y-137304236D01*
X153599508Y-137325000D01*
X153740492Y-137325000D01*
X153951309Y-137304236D01*
X154221808Y-137222182D01*
X154471101Y-137088932D01*
X154689608Y-136909608D01*
X154868932Y-136691101D01*
X155002182Y-136441808D01*
X155084236Y-136171309D01*
X155111943Y-135890000D01*
X155084236Y-135608691D01*
X155002182Y-135338192D01*
X154868932Y-135088899D01*
X154689608Y-134870392D01*
X154471101Y-134691068D01*
X154338142Y-134620000D01*
X154471101Y-134548932D01*
X154689608Y-134369608D01*
X154868932Y-134151101D01*
X155002182Y-133901808D01*
X155084236Y-133631309D01*
X155111943Y-133350000D01*
X155084236Y-133068691D01*
X155002182Y-132798192D01*
X154868932Y-132548899D01*
X154689608Y-132330392D01*
X154471101Y-132151068D01*
X154338142Y-132080000D01*
X154471101Y-132008932D01*
X154689608Y-131829608D01*
X154868932Y-131611101D01*
X155002182Y-131361808D01*
X155084236Y-131091309D01*
X155111943Y-130810000D01*
X155084236Y-130528691D01*
X155002182Y-130258192D01*
X154868932Y-130008899D01*
X154689608Y-129790392D01*
X154471101Y-129611068D01*
X154338142Y-129540000D01*
X154471101Y-129468932D01*
X154689608Y-129289608D01*
X154868932Y-129071101D01*
X155002182Y-128821808D01*
X155084236Y-128551309D01*
X155111943Y-128270000D01*
X155084236Y-127988691D01*
X155064586Y-127923911D01*
X163911000Y-127923911D01*
X163911000Y-128108089D01*
X163946932Y-128288729D01*
X164017414Y-128458889D01*
X164086000Y-128561535D01*
X164086001Y-140551657D01*
X164082323Y-140589000D01*
X164096997Y-140737986D01*
X164140454Y-140881247D01*
X164211026Y-141013276D01*
X164305999Y-141129001D01*
X164421724Y-141223974D01*
X164553753Y-141294546D01*
X164697014Y-141338003D01*
X164808667Y-141349000D01*
X164846000Y-141352677D01*
X164883333Y-141349000D01*
X182461667Y-141349000D01*
X182499000Y-141352677D01*
X182536333Y-141349000D01*
X182647986Y-141338003D01*
X182791247Y-141294546D01*
X182923276Y-141223974D01*
X183039001Y-141129001D01*
X183133974Y-141013276D01*
X183204546Y-140881247D01*
X183248003Y-140737986D01*
X183262677Y-140589000D01*
X183259000Y-140551667D01*
X183259000Y-106971333D01*
X183262677Y-106934000D01*
X183248003Y-106785014D01*
X183204546Y-106641753D01*
X183133974Y-106509724D01*
X183039001Y-106393999D01*
X182923276Y-106299026D01*
X182791247Y-106228454D01*
X182647986Y-106184997D01*
X182536333Y-106174000D01*
X182499000Y-106170323D01*
X182461667Y-106174000D01*
X175955803Y-106174000D01*
X175040153Y-105258351D01*
X175016068Y-105137271D01*
X174945586Y-104967111D01*
X174843262Y-104813972D01*
X174713028Y-104683738D01*
X174559889Y-104581414D01*
X174389729Y-104510932D01*
X174209089Y-104475000D01*
X174024911Y-104475000D01*
X173844271Y-104510932D01*
X173674111Y-104581414D01*
X173520972Y-104683738D01*
X173390738Y-104813972D01*
X173288414Y-104967111D01*
X173217932Y-105137271D01*
X173182000Y-105317911D01*
X173182000Y-105502089D01*
X173217932Y-105682729D01*
X173288414Y-105852889D01*
X173390738Y-106006028D01*
X173520972Y-106136262D01*
X173674111Y-106238586D01*
X173844271Y-106309068D01*
X173965351Y-106333153D01*
X175077205Y-107445008D01*
X175100999Y-107474001D01*
X175129992Y-107497795D01*
X175129996Y-107497799D01*
X175200685Y-107555811D01*
X175216724Y-107568974D01*
X175348753Y-107639546D01*
X175492014Y-107683003D01*
X175603667Y-107694000D01*
X175603676Y-107694000D01*
X175640999Y-107697676D01*
X175678322Y-107694000D01*
X181739001Y-107694000D01*
X181739000Y-139829000D01*
X165606000Y-139829000D01*
X165606000Y-128561535D01*
X165674586Y-128458889D01*
X165745068Y-128288729D01*
X165748793Y-128270000D01*
X167468057Y-128270000D01*
X167495764Y-128551309D01*
X167577818Y-128821808D01*
X167711068Y-129071101D01*
X167890392Y-129289608D01*
X168108899Y-129468932D01*
X168241858Y-129540000D01*
X168108899Y-129611068D01*
X167890392Y-129790392D01*
X167711068Y-130008899D01*
X167577818Y-130258192D01*
X167495764Y-130528691D01*
X167468057Y-130810000D01*
X167495764Y-131091309D01*
X167577818Y-131361808D01*
X167711068Y-131611101D01*
X167890392Y-131829608D01*
X168108899Y-132008932D01*
X168241858Y-132080000D01*
X168108899Y-132151068D01*
X167890392Y-132330392D01*
X167711068Y-132548899D01*
X167577818Y-132798192D01*
X167495764Y-133068691D01*
X167468057Y-133350000D01*
X167495764Y-133631309D01*
X167577818Y-133901808D01*
X167711068Y-134151101D01*
X167890392Y-134369608D01*
X168108899Y-134548932D01*
X168241858Y-134620000D01*
X168108899Y-134691068D01*
X167890392Y-134870392D01*
X167711068Y-135088899D01*
X167577818Y-135338192D01*
X167495764Y-135608691D01*
X167468057Y-135890000D01*
X167495764Y-136171309D01*
X167577818Y-136441808D01*
X167711068Y-136691101D01*
X167890392Y-136909608D01*
X168108899Y-137088932D01*
X168358192Y-137222182D01*
X168628691Y-137304236D01*
X168839508Y-137325000D01*
X168980492Y-137325000D01*
X169191309Y-137304236D01*
X169461808Y-137222182D01*
X169711101Y-137088932D01*
X169929608Y-136909608D01*
X170108932Y-136691101D01*
X170242182Y-136441808D01*
X170324236Y-136171309D01*
X170351943Y-135890000D01*
X170324236Y-135608691D01*
X170242182Y-135338192D01*
X170108932Y-135088899D01*
X169929608Y-134870392D01*
X169711101Y-134691068D01*
X169578142Y-134620000D01*
X169711101Y-134548932D01*
X169929608Y-134369608D01*
X170108932Y-134151101D01*
X170242182Y-133901808D01*
X170324236Y-133631309D01*
X170351943Y-133350000D01*
X170324236Y-133068691D01*
X170242182Y-132798192D01*
X170108932Y-132548899D01*
X169929608Y-132330392D01*
X169711101Y-132151068D01*
X169578142Y-132080000D01*
X169711101Y-132008932D01*
X169929608Y-131829608D01*
X170108932Y-131611101D01*
X170242182Y-131361808D01*
X170324236Y-131091309D01*
X170351943Y-130810000D01*
X170324236Y-130528691D01*
X170242182Y-130258192D01*
X170108932Y-130008899D01*
X169929608Y-129790392D01*
X169711101Y-129611068D01*
X169578142Y-129540000D01*
X169711101Y-129468932D01*
X169929608Y-129289608D01*
X170108932Y-129071101D01*
X170242182Y-128821808D01*
X170324236Y-128551309D01*
X170351943Y-128270000D01*
X170324236Y-127988691D01*
X170242182Y-127718192D01*
X170108932Y-127468899D01*
X169929608Y-127250392D01*
X169711101Y-127071068D01*
X169573318Y-126997421D01*
X169765131Y-126882385D01*
X169973519Y-126693414D01*
X170141037Y-126467420D01*
X170261246Y-126213087D01*
X170301904Y-126079039D01*
X170179915Y-125857000D01*
X169037000Y-125857000D01*
X169037000Y-125877000D01*
X168783000Y-125877000D01*
X168783000Y-125857000D01*
X167640085Y-125857000D01*
X167518096Y-126079039D01*
X167558754Y-126213087D01*
X167678963Y-126467420D01*
X167846481Y-126693414D01*
X168054869Y-126882385D01*
X168246682Y-126997421D01*
X168108899Y-127071068D01*
X167890392Y-127250392D01*
X167711068Y-127468899D01*
X167577818Y-127718192D01*
X167495764Y-127988691D01*
X167468057Y-128270000D01*
X165748793Y-128270000D01*
X165781000Y-128108089D01*
X165781000Y-127923911D01*
X165745068Y-127743271D01*
X165674586Y-127573111D01*
X165572262Y-127419972D01*
X165442028Y-127289738D01*
X165288889Y-127187414D01*
X165118729Y-127116932D01*
X164938089Y-127081000D01*
X164753911Y-127081000D01*
X164573271Y-127116932D01*
X164403111Y-127187414D01*
X164249972Y-127289738D01*
X164119738Y-127419972D01*
X164017414Y-127573111D01*
X163946932Y-127743271D01*
X163911000Y-127923911D01*
X155064586Y-127923911D01*
X155002182Y-127718192D01*
X154868932Y-127468899D01*
X154689608Y-127250392D01*
X154471101Y-127071068D01*
X154338142Y-127000000D01*
X154471101Y-126928932D01*
X154689608Y-126749608D01*
X154868932Y-126531101D01*
X155002182Y-126281808D01*
X155084236Y-126011309D01*
X155111943Y-125730000D01*
X155084236Y-125448691D01*
X155002182Y-125178192D01*
X154868932Y-124928899D01*
X154689608Y-124710392D01*
X154471101Y-124531068D01*
X154338142Y-124460000D01*
X154471101Y-124388932D01*
X154689608Y-124209608D01*
X154868932Y-123991101D01*
X155002182Y-123741808D01*
X155084236Y-123471309D01*
X155111943Y-123190000D01*
X155084236Y-122908691D01*
X155002182Y-122638192D01*
X154868932Y-122388899D01*
X154689608Y-122170392D01*
X154471101Y-121991068D01*
X154338142Y-121920000D01*
X154471101Y-121848932D01*
X154689608Y-121669608D01*
X154868932Y-121451101D01*
X155002182Y-121201808D01*
X155084236Y-120931309D01*
X155111943Y-120650000D01*
X155084236Y-120368691D01*
X155002182Y-120098192D01*
X154868932Y-119848899D01*
X154689608Y-119630392D01*
X154471101Y-119451068D01*
X154338142Y-119380000D01*
X154471101Y-119308932D01*
X154689608Y-119129608D01*
X154868932Y-118911101D01*
X155002182Y-118661808D01*
X155084236Y-118391309D01*
X155111943Y-118110000D01*
X155084236Y-117828691D01*
X155002182Y-117558192D01*
X154868932Y-117308899D01*
X154689608Y-117090392D01*
X154471101Y-116911068D01*
X154338142Y-116840000D01*
X154471101Y-116768932D01*
X154689608Y-116589608D01*
X154868932Y-116371101D01*
X155002182Y-116121808D01*
X155084236Y-115851309D01*
X155111943Y-115570000D01*
X155084236Y-115288691D01*
X155002182Y-115018192D01*
X154868932Y-114768899D01*
X154689608Y-114550392D01*
X154471101Y-114371068D01*
X154338142Y-114300000D01*
X154471101Y-114228932D01*
X154689608Y-114049608D01*
X154868932Y-113831101D01*
X155002182Y-113581808D01*
X155084236Y-113311309D01*
X155111943Y-113030000D01*
X155084236Y-112748691D01*
X155002182Y-112478192D01*
X154868932Y-112228899D01*
X154689608Y-112010392D01*
X154471101Y-111831068D01*
X154338142Y-111760000D01*
X154471101Y-111688932D01*
X154689608Y-111509608D01*
X154868932Y-111291101D01*
X155002182Y-111041808D01*
X155084236Y-110771309D01*
X155111943Y-110490000D01*
X155084236Y-110208691D01*
X155002182Y-109938192D01*
X154868932Y-109688899D01*
X154689608Y-109470392D01*
X154471101Y-109291068D01*
X154338142Y-109220000D01*
X154471101Y-109148932D01*
X154689608Y-108969608D01*
X154868932Y-108751101D01*
X155002182Y-108501808D01*
X155084236Y-108231309D01*
X155111943Y-107950000D01*
X155084236Y-107668691D01*
X155002182Y-107398192D01*
X154868932Y-107148899D01*
X154689608Y-106930392D01*
X154471101Y-106751068D01*
X154338142Y-106680000D01*
X154471101Y-106608932D01*
X154689608Y-106429608D01*
X154868932Y-106211101D01*
X155002182Y-105961808D01*
X155084236Y-105691309D01*
X155111943Y-105410000D01*
X155084236Y-105128691D01*
X155002182Y-104858192D01*
X154868932Y-104608899D01*
X154689608Y-104390392D01*
X154471101Y-104211068D01*
X154338142Y-104140000D01*
X154471101Y-104068932D01*
X154689608Y-103889608D01*
X154868932Y-103671101D01*
X155002182Y-103421808D01*
X155084236Y-103151309D01*
X155111943Y-102870000D01*
X167468057Y-102870000D01*
X167495764Y-103151309D01*
X167577818Y-103421808D01*
X167711068Y-103671101D01*
X167890392Y-103889608D01*
X168108899Y-104068932D01*
X168241858Y-104140000D01*
X168108899Y-104211068D01*
X167890392Y-104390392D01*
X167711068Y-104608899D01*
X167577818Y-104858192D01*
X167495764Y-105128691D01*
X167468057Y-105410000D01*
X167495764Y-105691309D01*
X167577818Y-105961808D01*
X167711068Y-106211101D01*
X167890392Y-106429608D01*
X168108899Y-106608932D01*
X168241858Y-106680000D01*
X168108899Y-106751068D01*
X167890392Y-106930392D01*
X167711068Y-107148899D01*
X167577818Y-107398192D01*
X167495764Y-107668691D01*
X167468057Y-107950000D01*
X167495764Y-108231309D01*
X167577818Y-108501808D01*
X167711068Y-108751101D01*
X167890392Y-108969608D01*
X168108899Y-109148932D01*
X168241858Y-109220000D01*
X168108899Y-109291068D01*
X167890392Y-109470392D01*
X167711068Y-109688899D01*
X167577818Y-109938192D01*
X167495764Y-110208691D01*
X167468057Y-110490000D01*
X167495764Y-110771309D01*
X167577818Y-111041808D01*
X167711068Y-111291101D01*
X167890392Y-111509608D01*
X168108899Y-111688932D01*
X168241858Y-111760000D01*
X168108899Y-111831068D01*
X167890392Y-112010392D01*
X167711068Y-112228899D01*
X167577818Y-112478192D01*
X167495764Y-112748691D01*
X167468057Y-113030000D01*
X167495764Y-113311309D01*
X167577818Y-113581808D01*
X167711068Y-113831101D01*
X167890392Y-114049608D01*
X168108899Y-114228932D01*
X168241858Y-114300000D01*
X168108899Y-114371068D01*
X167890392Y-114550392D01*
X167711068Y-114768899D01*
X167577818Y-115018192D01*
X167495764Y-115288691D01*
X167468057Y-115570000D01*
X167495764Y-115851309D01*
X167577818Y-116121808D01*
X167711068Y-116371101D01*
X167890392Y-116589608D01*
X168108899Y-116768932D01*
X168241858Y-116840000D01*
X168108899Y-116911068D01*
X167890392Y-117090392D01*
X167711068Y-117308899D01*
X167577818Y-117558192D01*
X167495764Y-117828691D01*
X167468057Y-118110000D01*
X167495764Y-118391309D01*
X167577818Y-118661808D01*
X167711068Y-118911101D01*
X167890392Y-119129608D01*
X168108899Y-119308932D01*
X168241858Y-119380000D01*
X168108899Y-119451068D01*
X167890392Y-119630392D01*
X167711068Y-119848899D01*
X167577818Y-120098192D01*
X167495764Y-120368691D01*
X167468057Y-120650000D01*
X167495764Y-120931309D01*
X167577818Y-121201808D01*
X167711068Y-121451101D01*
X167890392Y-121669608D01*
X168108899Y-121848932D01*
X168241858Y-121920000D01*
X168108899Y-121991068D01*
X167890392Y-122170392D01*
X167711068Y-122388899D01*
X167577818Y-122638192D01*
X167495764Y-122908691D01*
X167468057Y-123190000D01*
X167495764Y-123471309D01*
X167577818Y-123741808D01*
X167711068Y-123991101D01*
X167890392Y-124209608D01*
X168108899Y-124388932D01*
X168246682Y-124462579D01*
X168054869Y-124577615D01*
X167846481Y-124766586D01*
X167678963Y-124992580D01*
X167558754Y-125246913D01*
X167518096Y-125380961D01*
X167640085Y-125603000D01*
X168783000Y-125603000D01*
X168783000Y-125583000D01*
X169037000Y-125583000D01*
X169037000Y-125603000D01*
X170179915Y-125603000D01*
X170301904Y-125380961D01*
X170261246Y-125246913D01*
X170141037Y-124992580D01*
X169973519Y-124766586D01*
X169765131Y-124577615D01*
X169573318Y-124462579D01*
X169711101Y-124388932D01*
X169929608Y-124209608D01*
X170108932Y-123991101D01*
X170242182Y-123741808D01*
X170324236Y-123471309D01*
X170351943Y-123190000D01*
X170324236Y-122908691D01*
X170242182Y-122638192D01*
X170108932Y-122388899D01*
X169929608Y-122170392D01*
X169711101Y-121991068D01*
X169578142Y-121920000D01*
X169711101Y-121848932D01*
X169929608Y-121669608D01*
X170108932Y-121451101D01*
X170242182Y-121201808D01*
X170324236Y-120931309D01*
X170351943Y-120650000D01*
X170324236Y-120368691D01*
X170242182Y-120098192D01*
X170108932Y-119848899D01*
X169929608Y-119630392D01*
X169711101Y-119451068D01*
X169578142Y-119380000D01*
X169711101Y-119308932D01*
X169929608Y-119129608D01*
X170108932Y-118911101D01*
X170242182Y-118661808D01*
X170324236Y-118391309D01*
X170351943Y-118110000D01*
X170324236Y-117828691D01*
X170242182Y-117558192D01*
X170108932Y-117308899D01*
X169929608Y-117090392D01*
X169711101Y-116911068D01*
X169578142Y-116840000D01*
X169711101Y-116768932D01*
X169929608Y-116589608D01*
X170108932Y-116371101D01*
X170242182Y-116121808D01*
X170324236Y-115851309D01*
X170351943Y-115570000D01*
X170324236Y-115288691D01*
X170242182Y-115018192D01*
X170108932Y-114768899D01*
X169929608Y-114550392D01*
X169711101Y-114371068D01*
X169578142Y-114300000D01*
X169711101Y-114228932D01*
X169929608Y-114049608D01*
X170108932Y-113831101D01*
X170242182Y-113581808D01*
X170324236Y-113311309D01*
X170351943Y-113030000D01*
X170324236Y-112748691D01*
X170242182Y-112478192D01*
X170108932Y-112228899D01*
X169929608Y-112010392D01*
X169711101Y-111831068D01*
X169578142Y-111760000D01*
X169711101Y-111688932D01*
X169929608Y-111509608D01*
X170108932Y-111291101D01*
X170242182Y-111041808D01*
X170324236Y-110771309D01*
X170351943Y-110490000D01*
X170324236Y-110208691D01*
X170242182Y-109938192D01*
X170108932Y-109688899D01*
X169929608Y-109470392D01*
X169711101Y-109291068D01*
X169578142Y-109220000D01*
X169711101Y-109148932D01*
X169929608Y-108969608D01*
X170108932Y-108751101D01*
X170242182Y-108501808D01*
X170324236Y-108231309D01*
X170351943Y-107950000D01*
X170324236Y-107668691D01*
X170242182Y-107398192D01*
X170108932Y-107148899D01*
X169929608Y-106930392D01*
X169711101Y-106751068D01*
X169578142Y-106680000D01*
X169711101Y-106608932D01*
X169929608Y-106429608D01*
X170108932Y-106211101D01*
X170242182Y-105961808D01*
X170324236Y-105691309D01*
X170351943Y-105410000D01*
X170324236Y-105128691D01*
X170242182Y-104858192D01*
X170108932Y-104608899D01*
X169929608Y-104390392D01*
X169711101Y-104211068D01*
X169578142Y-104140000D01*
X169711101Y-104068932D01*
X169929608Y-103889608D01*
X170108932Y-103671101D01*
X170242182Y-103421808D01*
X170324236Y-103151309D01*
X170351943Y-102870000D01*
X170324236Y-102588691D01*
X170242182Y-102318192D01*
X170108932Y-102068899D01*
X169929608Y-101850392D01*
X169711101Y-101671068D01*
X169461808Y-101537818D01*
X169191309Y-101455764D01*
X168980492Y-101435000D01*
X168839508Y-101435000D01*
X168628691Y-101455764D01*
X168358192Y-101537818D01*
X168108899Y-101671068D01*
X167890392Y-101850392D01*
X167711068Y-102068899D01*
X167577818Y-102318192D01*
X167495764Y-102588691D01*
X167468057Y-102870000D01*
X155111943Y-102870000D01*
X155084236Y-102588691D01*
X155002182Y-102318192D01*
X154868932Y-102068899D01*
X154689608Y-101850392D01*
X154471101Y-101671068D01*
X154221808Y-101537818D01*
X153951309Y-101455764D01*
X153740492Y-101435000D01*
X153599508Y-101435000D01*
X153388691Y-101455764D01*
X153118192Y-101537818D01*
X152868899Y-101671068D01*
X152650392Y-101850392D01*
X152471068Y-102068899D01*
X152337818Y-102318192D01*
X152255764Y-102588691D01*
X152228057Y-102870000D01*
X87422951Y-102870000D01*
X87234452Y-78647911D01*
X118241768Y-78647911D01*
X118241768Y-78832089D01*
X118277700Y-79012729D01*
X118348182Y-79182889D01*
X118416768Y-79285535D01*
X118416769Y-89838438D01*
X118413092Y-89875770D01*
X118427766Y-90024755D01*
X118471222Y-90168016D01*
X118541794Y-90300046D01*
X118612969Y-90386772D01*
X118636768Y-90415771D01*
X118665766Y-90439569D01*
X121193199Y-92967003D01*
X121216997Y-92996001D01*
X121332722Y-93090974D01*
X121464751Y-93161546D01*
X121608012Y-93205003D01*
X121719665Y-93216000D01*
X121719674Y-93216000D01*
X121756997Y-93219676D01*
X121794320Y-93216000D01*
X122390465Y-93216000D01*
X122493111Y-93284586D01*
X122663271Y-93355068D01*
X122843911Y-93391000D01*
X123028089Y-93391000D01*
X123208729Y-93355068D01*
X123378889Y-93284586D01*
X123532028Y-93182262D01*
X123662262Y-93052028D01*
X123764586Y-92898889D01*
X123835068Y-92728729D01*
X123871000Y-92548089D01*
X123871000Y-92363911D01*
X123835068Y-92183271D01*
X123764586Y-92013111D01*
X123662262Y-91859972D01*
X123532028Y-91729738D01*
X123378889Y-91627414D01*
X123208729Y-91556932D01*
X123028089Y-91521000D01*
X122843911Y-91521000D01*
X122663271Y-91556932D01*
X122493111Y-91627414D01*
X122390465Y-91696000D01*
X122071800Y-91696000D01*
X119936768Y-89560969D01*
X119936768Y-84997911D01*
X124287000Y-84997911D01*
X124287000Y-85182089D01*
X124322932Y-85362729D01*
X124393414Y-85532889D01*
X124495738Y-85686028D01*
X124625972Y-85816262D01*
X124779111Y-85918586D01*
X124949271Y-85989068D01*
X125129911Y-86025000D01*
X125314089Y-86025000D01*
X125494729Y-85989068D01*
X125664889Y-85918586D01*
X125818028Y-85816262D01*
X125948262Y-85686028D01*
X126050586Y-85532889D01*
X126121068Y-85362729D01*
X126145153Y-85241649D01*
X127511003Y-83875799D01*
X127540001Y-83852001D01*
X127634974Y-83736276D01*
X127705546Y-83604247D01*
X127749003Y-83460986D01*
X127760000Y-83349333D01*
X127760000Y-83349325D01*
X127763676Y-83312000D01*
X127760000Y-83274675D01*
X127760000Y-78484000D01*
X127775233Y-78484000D01*
X127877879Y-78552586D01*
X128048039Y-78623068D01*
X128228679Y-78659000D01*
X128412857Y-78659000D01*
X128593497Y-78623068D01*
X128763657Y-78552586D01*
X128916796Y-78450262D01*
X129047030Y-78320028D01*
X129149354Y-78166889D01*
X129219836Y-77996729D01*
X129255768Y-77816089D01*
X129255768Y-77631911D01*
X129219836Y-77451271D01*
X129149354Y-77281111D01*
X129047030Y-77127972D01*
X128916796Y-76997738D01*
X128763657Y-76895414D01*
X128593497Y-76824932D01*
X128412857Y-76789000D01*
X128228679Y-76789000D01*
X128048039Y-76824932D01*
X127877879Y-76895414D01*
X127775233Y-76964000D01*
X127037333Y-76964000D01*
X127000000Y-76960323D01*
X126962667Y-76964000D01*
X126851014Y-76974997D01*
X126707753Y-77018454D01*
X126575724Y-77089026D01*
X126459999Y-77183999D01*
X126365026Y-77299724D01*
X126294454Y-77431753D01*
X126250997Y-77575014D01*
X126236323Y-77724000D01*
X126240000Y-77761333D01*
X126240001Y-82997197D01*
X125070351Y-84166847D01*
X124949271Y-84190932D01*
X124779111Y-84261414D01*
X124625972Y-84363738D01*
X124495738Y-84493972D01*
X124393414Y-84647111D01*
X124322932Y-84817271D01*
X124287000Y-84997911D01*
X119936768Y-84997911D01*
X119936768Y-79285535D01*
X120005354Y-79182889D01*
X120075836Y-79012729D01*
X120111768Y-78832089D01*
X120111768Y-78647911D01*
X120075836Y-78467271D01*
X120005354Y-78297111D01*
X119903030Y-78143972D01*
X119772796Y-78013738D01*
X119619657Y-77911414D01*
X119449497Y-77840932D01*
X119268857Y-77805000D01*
X119084679Y-77805000D01*
X118904039Y-77840932D01*
X118733879Y-77911414D01*
X118580740Y-78013738D01*
X118450506Y-78143972D01*
X118348182Y-78297111D01*
X118277700Y-78467271D01*
X118241768Y-78647911D01*
X87234452Y-78647911D01*
X87161082Y-69220000D01*
X91441928Y-69220000D01*
X91441928Y-70480000D01*
X91454188Y-70604482D01*
X91490498Y-70724180D01*
X91549463Y-70834494D01*
X91628815Y-70931185D01*
X91725506Y-71010537D01*
X91835820Y-71069502D01*
X91955518Y-71105812D01*
X92080000Y-71118072D01*
X93340000Y-71118072D01*
X93464482Y-71105812D01*
X93584180Y-71069502D01*
X93694494Y-71010537D01*
X93791185Y-70931185D01*
X93870537Y-70834494D01*
X93929502Y-70724180D01*
X93965812Y-70604482D01*
X93978072Y-70480000D01*
X93978072Y-69725408D01*
X93985000Y-69725408D01*
X93985000Y-69974592D01*
X94033613Y-70218987D01*
X94128971Y-70449202D01*
X94267410Y-70656391D01*
X94443609Y-70832590D01*
X94650798Y-70971029D01*
X94881013Y-71066387D01*
X95125408Y-71115000D01*
X95374592Y-71115000D01*
X95618987Y-71066387D01*
X95849202Y-70971029D01*
X96056391Y-70832590D01*
X96232590Y-70656391D01*
X96371029Y-70449202D01*
X96466387Y-70218987D01*
X96515000Y-69974592D01*
X96515000Y-69725408D01*
X96525000Y-69725408D01*
X96525000Y-69974592D01*
X96573613Y-70218987D01*
X96668971Y-70449202D01*
X96807410Y-70656391D01*
X96983609Y-70832590D01*
X97190798Y-70971029D01*
X97421013Y-71066387D01*
X97665408Y-71115000D01*
X97914592Y-71115000D01*
X98158987Y-71066387D01*
X98389202Y-70971029D01*
X98596391Y-70832590D01*
X98772590Y-70656391D01*
X98911029Y-70449202D01*
X99006387Y-70218987D01*
X99055000Y-69974592D01*
X99055000Y-69725408D01*
X99006387Y-69481013D01*
X98911029Y-69250798D01*
X98890451Y-69220000D01*
X101601928Y-69220000D01*
X101601928Y-70480000D01*
X101614188Y-70604482D01*
X101650498Y-70724180D01*
X101709463Y-70834494D01*
X101788815Y-70931185D01*
X101885506Y-71010537D01*
X101995820Y-71069502D01*
X102115518Y-71105812D01*
X102240000Y-71118072D01*
X103500000Y-71118072D01*
X103624482Y-71105812D01*
X103744180Y-71069502D01*
X103854494Y-71010537D01*
X103951185Y-70931185D01*
X104030537Y-70834494D01*
X104089502Y-70724180D01*
X104125812Y-70604482D01*
X104138072Y-70480000D01*
X104138072Y-69725408D01*
X104145000Y-69725408D01*
X104145000Y-69974592D01*
X104193613Y-70218987D01*
X104288971Y-70449202D01*
X104427410Y-70656391D01*
X104603609Y-70832590D01*
X104810798Y-70971029D01*
X105041013Y-71066387D01*
X105285408Y-71115000D01*
X105534592Y-71115000D01*
X105778987Y-71066387D01*
X106009202Y-70971029D01*
X106216391Y-70832590D01*
X106392590Y-70656391D01*
X106531029Y-70449202D01*
X106626387Y-70218987D01*
X106675000Y-69974592D01*
X106675000Y-69725408D01*
X106685000Y-69725408D01*
X106685000Y-69974592D01*
X106733613Y-70218987D01*
X106828971Y-70449202D01*
X106967410Y-70656391D01*
X107143609Y-70832590D01*
X107350798Y-70971029D01*
X107581013Y-71066387D01*
X107825408Y-71115000D01*
X108074592Y-71115000D01*
X108318987Y-71066387D01*
X108549202Y-70971029D01*
X108756391Y-70832590D01*
X108932590Y-70656391D01*
X109071029Y-70449202D01*
X109166387Y-70218987D01*
X109215000Y-69974592D01*
X109215000Y-69725408D01*
X109166387Y-69481013D01*
X109071029Y-69250798D01*
X109050451Y-69220000D01*
X111761928Y-69220000D01*
X111761928Y-70480000D01*
X111774188Y-70604482D01*
X111810498Y-70724180D01*
X111869463Y-70834494D01*
X111948815Y-70931185D01*
X112045506Y-71010537D01*
X112155820Y-71069502D01*
X112275518Y-71105812D01*
X112400000Y-71118072D01*
X113660000Y-71118072D01*
X113784482Y-71105812D01*
X113904180Y-71069502D01*
X114014494Y-71010537D01*
X114111185Y-70931185D01*
X114190537Y-70834494D01*
X114249502Y-70724180D01*
X114285812Y-70604482D01*
X114298072Y-70480000D01*
X114298072Y-69725408D01*
X114305000Y-69725408D01*
X114305000Y-69974592D01*
X114353613Y-70218987D01*
X114448971Y-70449202D01*
X114587410Y-70656391D01*
X114763609Y-70832590D01*
X114970798Y-70971029D01*
X115201013Y-71066387D01*
X115445408Y-71115000D01*
X115694592Y-71115000D01*
X115938987Y-71066387D01*
X116169202Y-70971029D01*
X116376391Y-70832590D01*
X116552590Y-70656391D01*
X116691029Y-70449202D01*
X116786387Y-70218987D01*
X116835000Y-69974592D01*
X116835000Y-69725408D01*
X116845000Y-69725408D01*
X116845000Y-69974592D01*
X116893613Y-70218987D01*
X116988971Y-70449202D01*
X117127410Y-70656391D01*
X117303609Y-70832590D01*
X117510798Y-70971029D01*
X117741013Y-71066387D01*
X117985408Y-71115000D01*
X118234592Y-71115000D01*
X118478987Y-71066387D01*
X118709202Y-70971029D01*
X118916391Y-70832590D01*
X119092590Y-70656391D01*
X119231029Y-70449202D01*
X119326387Y-70218987D01*
X119375000Y-69974592D01*
X119375000Y-69725408D01*
X119326387Y-69481013D01*
X119231029Y-69250798D01*
X119210451Y-69220000D01*
X121921928Y-69220000D01*
X121921928Y-70480000D01*
X121934188Y-70604482D01*
X121970498Y-70724180D01*
X122029463Y-70834494D01*
X122108815Y-70931185D01*
X122205506Y-71010537D01*
X122315820Y-71069502D01*
X122435518Y-71105812D01*
X122560000Y-71118072D01*
X123820000Y-71118072D01*
X123944482Y-71105812D01*
X124064180Y-71069502D01*
X124174494Y-71010537D01*
X124271185Y-70931185D01*
X124350537Y-70834494D01*
X124409502Y-70724180D01*
X124445812Y-70604482D01*
X124458072Y-70480000D01*
X124458072Y-69725408D01*
X124465000Y-69725408D01*
X124465000Y-69974592D01*
X124513613Y-70218987D01*
X124608971Y-70449202D01*
X124747410Y-70656391D01*
X124923609Y-70832590D01*
X125130798Y-70971029D01*
X125361013Y-71066387D01*
X125605408Y-71115000D01*
X125854592Y-71115000D01*
X126098987Y-71066387D01*
X126329202Y-70971029D01*
X126536391Y-70832590D01*
X126712590Y-70656391D01*
X126851029Y-70449202D01*
X126946387Y-70218987D01*
X126995000Y-69974592D01*
X126995000Y-69725408D01*
X127005000Y-69725408D01*
X127005000Y-69974592D01*
X127053613Y-70218987D01*
X127148971Y-70449202D01*
X127287410Y-70656391D01*
X127463609Y-70832590D01*
X127670798Y-70971029D01*
X127901013Y-71066387D01*
X128145408Y-71115000D01*
X128394592Y-71115000D01*
X128638987Y-71066387D01*
X128869202Y-70971029D01*
X129076391Y-70832590D01*
X129252590Y-70656391D01*
X129391029Y-70449202D01*
X129486387Y-70218987D01*
X129535000Y-69974592D01*
X129535000Y-69725408D01*
X129486387Y-69481013D01*
X129391029Y-69250798D01*
X129370451Y-69220000D01*
X132081928Y-69220000D01*
X132081928Y-70480000D01*
X132094188Y-70604482D01*
X132130498Y-70724180D01*
X132189463Y-70834494D01*
X132268815Y-70931185D01*
X132365506Y-71010537D01*
X132475820Y-71069502D01*
X132595518Y-71105812D01*
X132720000Y-71118072D01*
X133980000Y-71118072D01*
X134104482Y-71105812D01*
X134224180Y-71069502D01*
X134334494Y-71010537D01*
X134431185Y-70931185D01*
X134510537Y-70834494D01*
X134569502Y-70724180D01*
X134605812Y-70604482D01*
X134618072Y-70480000D01*
X134618072Y-69725408D01*
X134625000Y-69725408D01*
X134625000Y-69974592D01*
X134673613Y-70218987D01*
X134768971Y-70449202D01*
X134907410Y-70656391D01*
X135083609Y-70832590D01*
X135290798Y-70971029D01*
X135521013Y-71066387D01*
X135765408Y-71115000D01*
X136014592Y-71115000D01*
X136258987Y-71066387D01*
X136489202Y-70971029D01*
X136696391Y-70832590D01*
X136872590Y-70656391D01*
X137011029Y-70449202D01*
X137106387Y-70218987D01*
X137155000Y-69974592D01*
X137155000Y-69725408D01*
X137165000Y-69725408D01*
X137165000Y-69974592D01*
X137213613Y-70218987D01*
X137308971Y-70449202D01*
X137447410Y-70656391D01*
X137623609Y-70832590D01*
X137830798Y-70971029D01*
X138061013Y-71066387D01*
X138305408Y-71115000D01*
X138554592Y-71115000D01*
X138798987Y-71066387D01*
X139029202Y-70971029D01*
X139236391Y-70832590D01*
X139412590Y-70656391D01*
X139551029Y-70449202D01*
X139646387Y-70218987D01*
X139695000Y-69974592D01*
X139695000Y-69725408D01*
X139646387Y-69481013D01*
X139551029Y-69250798D01*
X139530451Y-69220000D01*
X142241928Y-69220000D01*
X142241928Y-70480000D01*
X142254188Y-70604482D01*
X142290498Y-70724180D01*
X142349463Y-70834494D01*
X142428815Y-70931185D01*
X142525506Y-71010537D01*
X142635820Y-71069502D01*
X142755518Y-71105812D01*
X142880000Y-71118072D01*
X144140000Y-71118072D01*
X144264482Y-71105812D01*
X144384180Y-71069502D01*
X144494494Y-71010537D01*
X144591185Y-70931185D01*
X144670537Y-70834494D01*
X144729502Y-70724180D01*
X144765812Y-70604482D01*
X144778072Y-70480000D01*
X144778072Y-69725408D01*
X144785000Y-69725408D01*
X144785000Y-69974592D01*
X144833613Y-70218987D01*
X144928971Y-70449202D01*
X145067410Y-70656391D01*
X145243609Y-70832590D01*
X145450798Y-70971029D01*
X145681013Y-71066387D01*
X145925408Y-71115000D01*
X146174592Y-71115000D01*
X146418987Y-71066387D01*
X146649202Y-70971029D01*
X146856391Y-70832590D01*
X147032590Y-70656391D01*
X147171029Y-70449202D01*
X147266387Y-70218987D01*
X147315000Y-69974592D01*
X147315000Y-69725408D01*
X147325000Y-69725408D01*
X147325000Y-69974592D01*
X147373613Y-70218987D01*
X147468971Y-70449202D01*
X147607410Y-70656391D01*
X147783609Y-70832590D01*
X147990798Y-70971029D01*
X148221013Y-71066387D01*
X148465408Y-71115000D01*
X148714592Y-71115000D01*
X148958987Y-71066387D01*
X149189202Y-70971029D01*
X149396391Y-70832590D01*
X149572590Y-70656391D01*
X149711029Y-70449202D01*
X149806387Y-70218987D01*
X149855000Y-69974592D01*
X149855000Y-69725408D01*
X149806387Y-69481013D01*
X149711029Y-69250798D01*
X149690451Y-69220000D01*
X152401928Y-69220000D01*
X152401928Y-70480000D01*
X152414188Y-70604482D01*
X152450498Y-70724180D01*
X152509463Y-70834494D01*
X152588815Y-70931185D01*
X152685506Y-71010537D01*
X152795820Y-71069502D01*
X152915518Y-71105812D01*
X153040000Y-71118072D01*
X154300000Y-71118072D01*
X154424482Y-71105812D01*
X154544180Y-71069502D01*
X154654494Y-71010537D01*
X154751185Y-70931185D01*
X154830537Y-70834494D01*
X154889502Y-70724180D01*
X154925812Y-70604482D01*
X154938072Y-70480000D01*
X154938072Y-69725408D01*
X154945000Y-69725408D01*
X154945000Y-69974592D01*
X154993613Y-70218987D01*
X155088971Y-70449202D01*
X155227410Y-70656391D01*
X155403609Y-70832590D01*
X155610798Y-70971029D01*
X155841013Y-71066387D01*
X156085408Y-71115000D01*
X156334592Y-71115000D01*
X156578987Y-71066387D01*
X156809202Y-70971029D01*
X157016391Y-70832590D01*
X157192590Y-70656391D01*
X157331029Y-70449202D01*
X157426387Y-70218987D01*
X157475000Y-69974592D01*
X157475000Y-69725408D01*
X157485000Y-69725408D01*
X157485000Y-69974592D01*
X157533613Y-70218987D01*
X157628971Y-70449202D01*
X157767410Y-70656391D01*
X157943609Y-70832590D01*
X158150798Y-70971029D01*
X158381013Y-71066387D01*
X158625408Y-71115000D01*
X158874592Y-71115000D01*
X159118987Y-71066387D01*
X159349202Y-70971029D01*
X159556391Y-70832590D01*
X159732590Y-70656391D01*
X159871029Y-70449202D01*
X159966387Y-70218987D01*
X160015000Y-69974592D01*
X160015000Y-69725408D01*
X159966387Y-69481013D01*
X159871029Y-69250798D01*
X159850451Y-69220000D01*
X162561928Y-69220000D01*
X162561928Y-70480000D01*
X162574188Y-70604482D01*
X162610498Y-70724180D01*
X162669463Y-70834494D01*
X162748815Y-70931185D01*
X162845506Y-71010537D01*
X162955820Y-71069502D01*
X163075518Y-71105812D01*
X163200000Y-71118072D01*
X164460000Y-71118072D01*
X164584482Y-71105812D01*
X164704180Y-71069502D01*
X164814494Y-71010537D01*
X164911185Y-70931185D01*
X164990537Y-70834494D01*
X165049502Y-70724180D01*
X165085812Y-70604482D01*
X165098072Y-70480000D01*
X165098072Y-69725408D01*
X165105000Y-69725408D01*
X165105000Y-69974592D01*
X165153613Y-70218987D01*
X165248971Y-70449202D01*
X165387410Y-70656391D01*
X165563609Y-70832590D01*
X165770798Y-70971029D01*
X166001013Y-71066387D01*
X166245408Y-71115000D01*
X166494592Y-71115000D01*
X166738987Y-71066387D01*
X166969202Y-70971029D01*
X167176391Y-70832590D01*
X167352590Y-70656391D01*
X167491029Y-70449202D01*
X167586387Y-70218987D01*
X167635000Y-69974592D01*
X167635000Y-69725408D01*
X167645000Y-69725408D01*
X167645000Y-69974592D01*
X167693613Y-70218987D01*
X167788971Y-70449202D01*
X167927410Y-70656391D01*
X168103609Y-70832590D01*
X168310798Y-70971029D01*
X168541013Y-71066387D01*
X168785408Y-71115000D01*
X169034592Y-71115000D01*
X169278987Y-71066387D01*
X169509202Y-70971029D01*
X169716391Y-70832590D01*
X169892590Y-70656391D01*
X170031029Y-70449202D01*
X170126387Y-70218987D01*
X170175000Y-69974592D01*
X170175000Y-69725408D01*
X170126387Y-69481013D01*
X170031029Y-69250798D01*
X170010451Y-69220000D01*
X172721928Y-69220000D01*
X172721928Y-70480000D01*
X172734188Y-70604482D01*
X172770498Y-70724180D01*
X172829463Y-70834494D01*
X172908815Y-70931185D01*
X173005506Y-71010537D01*
X173115820Y-71069502D01*
X173235518Y-71105812D01*
X173360000Y-71118072D01*
X174620000Y-71118072D01*
X174744482Y-71105812D01*
X174864180Y-71069502D01*
X174974494Y-71010537D01*
X175071185Y-70931185D01*
X175150537Y-70834494D01*
X175209502Y-70724180D01*
X175245812Y-70604482D01*
X175258072Y-70480000D01*
X175258072Y-69725408D01*
X175265000Y-69725408D01*
X175265000Y-69974592D01*
X175313613Y-70218987D01*
X175408971Y-70449202D01*
X175547410Y-70656391D01*
X175723609Y-70832590D01*
X175930798Y-70971029D01*
X176161013Y-71066387D01*
X176405408Y-71115000D01*
X176654592Y-71115000D01*
X176898987Y-71066387D01*
X177129202Y-70971029D01*
X177336391Y-70832590D01*
X177512590Y-70656391D01*
X177651029Y-70449202D01*
X177746387Y-70218987D01*
X177795000Y-69974592D01*
X177795000Y-69725408D01*
X177805000Y-69725408D01*
X177805000Y-69974592D01*
X177853613Y-70218987D01*
X177948971Y-70449202D01*
X178087410Y-70656391D01*
X178263609Y-70832590D01*
X178470798Y-70971029D01*
X178701013Y-71066387D01*
X178945408Y-71115000D01*
X179194592Y-71115000D01*
X179438987Y-71066387D01*
X179669202Y-70971029D01*
X179876391Y-70832590D01*
X180052590Y-70656391D01*
X180191029Y-70449202D01*
X180286387Y-70218987D01*
X180335000Y-69974592D01*
X180335000Y-69725408D01*
X180286387Y-69481013D01*
X180191029Y-69250798D01*
X180052590Y-69043609D01*
X179876391Y-68867410D01*
X179669202Y-68728971D01*
X179438987Y-68633613D01*
X179194592Y-68585000D01*
X178945408Y-68585000D01*
X178701013Y-68633613D01*
X178470798Y-68728971D01*
X178263609Y-68867410D01*
X178087410Y-69043609D01*
X177948971Y-69250798D01*
X177853613Y-69481013D01*
X177805000Y-69725408D01*
X177795000Y-69725408D01*
X177746387Y-69481013D01*
X177651029Y-69250798D01*
X177512590Y-69043609D01*
X177336391Y-68867410D01*
X177129202Y-68728971D01*
X176898987Y-68633613D01*
X176654592Y-68585000D01*
X176405408Y-68585000D01*
X176161013Y-68633613D01*
X175930798Y-68728971D01*
X175723609Y-68867410D01*
X175547410Y-69043609D01*
X175408971Y-69250798D01*
X175313613Y-69481013D01*
X175265000Y-69725408D01*
X175258072Y-69725408D01*
X175258072Y-69220000D01*
X175245812Y-69095518D01*
X175209502Y-68975820D01*
X175150537Y-68865506D01*
X175071185Y-68768815D01*
X174974494Y-68689463D01*
X174864180Y-68630498D01*
X174744482Y-68594188D01*
X174620000Y-68581928D01*
X173360000Y-68581928D01*
X173235518Y-68594188D01*
X173115820Y-68630498D01*
X173005506Y-68689463D01*
X172908815Y-68768815D01*
X172829463Y-68865506D01*
X172770498Y-68975820D01*
X172734188Y-69095518D01*
X172721928Y-69220000D01*
X170010451Y-69220000D01*
X169892590Y-69043609D01*
X169716391Y-68867410D01*
X169509202Y-68728971D01*
X169278987Y-68633613D01*
X169034592Y-68585000D01*
X168785408Y-68585000D01*
X168541013Y-68633613D01*
X168310798Y-68728971D01*
X168103609Y-68867410D01*
X167927410Y-69043609D01*
X167788971Y-69250798D01*
X167693613Y-69481013D01*
X167645000Y-69725408D01*
X167635000Y-69725408D01*
X167586387Y-69481013D01*
X167491029Y-69250798D01*
X167352590Y-69043609D01*
X167176391Y-68867410D01*
X166969202Y-68728971D01*
X166738987Y-68633613D01*
X166494592Y-68585000D01*
X166245408Y-68585000D01*
X166001013Y-68633613D01*
X165770798Y-68728971D01*
X165563609Y-68867410D01*
X165387410Y-69043609D01*
X165248971Y-69250798D01*
X165153613Y-69481013D01*
X165105000Y-69725408D01*
X165098072Y-69725408D01*
X165098072Y-69220000D01*
X165085812Y-69095518D01*
X165049502Y-68975820D01*
X164990537Y-68865506D01*
X164911185Y-68768815D01*
X164814494Y-68689463D01*
X164704180Y-68630498D01*
X164584482Y-68594188D01*
X164460000Y-68581928D01*
X163200000Y-68581928D01*
X163075518Y-68594188D01*
X162955820Y-68630498D01*
X162845506Y-68689463D01*
X162748815Y-68768815D01*
X162669463Y-68865506D01*
X162610498Y-68975820D01*
X162574188Y-69095518D01*
X162561928Y-69220000D01*
X159850451Y-69220000D01*
X159732590Y-69043609D01*
X159556391Y-68867410D01*
X159349202Y-68728971D01*
X159118987Y-68633613D01*
X158874592Y-68585000D01*
X158625408Y-68585000D01*
X158381013Y-68633613D01*
X158150798Y-68728971D01*
X157943609Y-68867410D01*
X157767410Y-69043609D01*
X157628971Y-69250798D01*
X157533613Y-69481013D01*
X157485000Y-69725408D01*
X157475000Y-69725408D01*
X157426387Y-69481013D01*
X157331029Y-69250798D01*
X157192590Y-69043609D01*
X157016391Y-68867410D01*
X156809202Y-68728971D01*
X156578987Y-68633613D01*
X156334592Y-68585000D01*
X156085408Y-68585000D01*
X155841013Y-68633613D01*
X155610798Y-68728971D01*
X155403609Y-68867410D01*
X155227410Y-69043609D01*
X155088971Y-69250798D01*
X154993613Y-69481013D01*
X154945000Y-69725408D01*
X154938072Y-69725408D01*
X154938072Y-69220000D01*
X154925812Y-69095518D01*
X154889502Y-68975820D01*
X154830537Y-68865506D01*
X154751185Y-68768815D01*
X154654494Y-68689463D01*
X154544180Y-68630498D01*
X154424482Y-68594188D01*
X154300000Y-68581928D01*
X153040000Y-68581928D01*
X152915518Y-68594188D01*
X152795820Y-68630498D01*
X152685506Y-68689463D01*
X152588815Y-68768815D01*
X152509463Y-68865506D01*
X152450498Y-68975820D01*
X152414188Y-69095518D01*
X152401928Y-69220000D01*
X149690451Y-69220000D01*
X149572590Y-69043609D01*
X149396391Y-68867410D01*
X149189202Y-68728971D01*
X148958987Y-68633613D01*
X148714592Y-68585000D01*
X148465408Y-68585000D01*
X148221013Y-68633613D01*
X147990798Y-68728971D01*
X147783609Y-68867410D01*
X147607410Y-69043609D01*
X147468971Y-69250798D01*
X147373613Y-69481013D01*
X147325000Y-69725408D01*
X147315000Y-69725408D01*
X147266387Y-69481013D01*
X147171029Y-69250798D01*
X147032590Y-69043609D01*
X146856391Y-68867410D01*
X146649202Y-68728971D01*
X146418987Y-68633613D01*
X146174592Y-68585000D01*
X145925408Y-68585000D01*
X145681013Y-68633613D01*
X145450798Y-68728971D01*
X145243609Y-68867410D01*
X145067410Y-69043609D01*
X144928971Y-69250798D01*
X144833613Y-69481013D01*
X144785000Y-69725408D01*
X144778072Y-69725408D01*
X144778072Y-69220000D01*
X144765812Y-69095518D01*
X144729502Y-68975820D01*
X144670537Y-68865506D01*
X144591185Y-68768815D01*
X144494494Y-68689463D01*
X144384180Y-68630498D01*
X144264482Y-68594188D01*
X144140000Y-68581928D01*
X142880000Y-68581928D01*
X142755518Y-68594188D01*
X142635820Y-68630498D01*
X142525506Y-68689463D01*
X142428815Y-68768815D01*
X142349463Y-68865506D01*
X142290498Y-68975820D01*
X142254188Y-69095518D01*
X142241928Y-69220000D01*
X139530451Y-69220000D01*
X139412590Y-69043609D01*
X139236391Y-68867410D01*
X139029202Y-68728971D01*
X138798987Y-68633613D01*
X138554592Y-68585000D01*
X138305408Y-68585000D01*
X138061013Y-68633613D01*
X137830798Y-68728971D01*
X137623609Y-68867410D01*
X137447410Y-69043609D01*
X137308971Y-69250798D01*
X137213613Y-69481013D01*
X137165000Y-69725408D01*
X137155000Y-69725408D01*
X137106387Y-69481013D01*
X137011029Y-69250798D01*
X136872590Y-69043609D01*
X136696391Y-68867410D01*
X136489202Y-68728971D01*
X136258987Y-68633613D01*
X136014592Y-68585000D01*
X135765408Y-68585000D01*
X135521013Y-68633613D01*
X135290798Y-68728971D01*
X135083609Y-68867410D01*
X134907410Y-69043609D01*
X134768971Y-69250798D01*
X134673613Y-69481013D01*
X134625000Y-69725408D01*
X134618072Y-69725408D01*
X134618072Y-69220000D01*
X134605812Y-69095518D01*
X134569502Y-68975820D01*
X134510537Y-68865506D01*
X134431185Y-68768815D01*
X134334494Y-68689463D01*
X134224180Y-68630498D01*
X134104482Y-68594188D01*
X133980000Y-68581928D01*
X132720000Y-68581928D01*
X132595518Y-68594188D01*
X132475820Y-68630498D01*
X132365506Y-68689463D01*
X132268815Y-68768815D01*
X132189463Y-68865506D01*
X132130498Y-68975820D01*
X132094188Y-69095518D01*
X132081928Y-69220000D01*
X129370451Y-69220000D01*
X129252590Y-69043609D01*
X129076391Y-68867410D01*
X128869202Y-68728971D01*
X128638987Y-68633613D01*
X128394592Y-68585000D01*
X128145408Y-68585000D01*
X127901013Y-68633613D01*
X127670798Y-68728971D01*
X127463609Y-68867410D01*
X127287410Y-69043609D01*
X127148971Y-69250798D01*
X127053613Y-69481013D01*
X127005000Y-69725408D01*
X126995000Y-69725408D01*
X126946387Y-69481013D01*
X126851029Y-69250798D01*
X126712590Y-69043609D01*
X126536391Y-68867410D01*
X126329202Y-68728971D01*
X126098987Y-68633613D01*
X125854592Y-68585000D01*
X125605408Y-68585000D01*
X125361013Y-68633613D01*
X125130798Y-68728971D01*
X124923609Y-68867410D01*
X124747410Y-69043609D01*
X124608971Y-69250798D01*
X124513613Y-69481013D01*
X124465000Y-69725408D01*
X124458072Y-69725408D01*
X124458072Y-69220000D01*
X124445812Y-69095518D01*
X124409502Y-68975820D01*
X124350537Y-68865506D01*
X124271185Y-68768815D01*
X124174494Y-68689463D01*
X124064180Y-68630498D01*
X123944482Y-68594188D01*
X123820000Y-68581928D01*
X122560000Y-68581928D01*
X122435518Y-68594188D01*
X122315820Y-68630498D01*
X122205506Y-68689463D01*
X122108815Y-68768815D01*
X122029463Y-68865506D01*
X121970498Y-68975820D01*
X121934188Y-69095518D01*
X121921928Y-69220000D01*
X119210451Y-69220000D01*
X119092590Y-69043609D01*
X118916391Y-68867410D01*
X118709202Y-68728971D01*
X118478987Y-68633613D01*
X118234592Y-68585000D01*
X117985408Y-68585000D01*
X117741013Y-68633613D01*
X117510798Y-68728971D01*
X117303609Y-68867410D01*
X117127410Y-69043609D01*
X116988971Y-69250798D01*
X116893613Y-69481013D01*
X116845000Y-69725408D01*
X116835000Y-69725408D01*
X116786387Y-69481013D01*
X116691029Y-69250798D01*
X116552590Y-69043609D01*
X116376391Y-68867410D01*
X116169202Y-68728971D01*
X115938987Y-68633613D01*
X115694592Y-68585000D01*
X115445408Y-68585000D01*
X115201013Y-68633613D01*
X114970798Y-68728971D01*
X114763609Y-68867410D01*
X114587410Y-69043609D01*
X114448971Y-69250798D01*
X114353613Y-69481013D01*
X114305000Y-69725408D01*
X114298072Y-69725408D01*
X114298072Y-69220000D01*
X114285812Y-69095518D01*
X114249502Y-68975820D01*
X114190537Y-68865506D01*
X114111185Y-68768815D01*
X114014494Y-68689463D01*
X113904180Y-68630498D01*
X113784482Y-68594188D01*
X113660000Y-68581928D01*
X112400000Y-68581928D01*
X112275518Y-68594188D01*
X112155820Y-68630498D01*
X112045506Y-68689463D01*
X111948815Y-68768815D01*
X111869463Y-68865506D01*
X111810498Y-68975820D01*
X111774188Y-69095518D01*
X111761928Y-69220000D01*
X109050451Y-69220000D01*
X108932590Y-69043609D01*
X108756391Y-68867410D01*
X108549202Y-68728971D01*
X108318987Y-68633613D01*
X108074592Y-68585000D01*
X107825408Y-68585000D01*
X107581013Y-68633613D01*
X107350798Y-68728971D01*
X107143609Y-68867410D01*
X106967410Y-69043609D01*
X106828971Y-69250798D01*
X106733613Y-69481013D01*
X106685000Y-69725408D01*
X106675000Y-69725408D01*
X106626387Y-69481013D01*
X106531029Y-69250798D01*
X106392590Y-69043609D01*
X106216391Y-68867410D01*
X106009202Y-68728971D01*
X105778987Y-68633613D01*
X105534592Y-68585000D01*
X105285408Y-68585000D01*
X105041013Y-68633613D01*
X104810798Y-68728971D01*
X104603609Y-68867410D01*
X104427410Y-69043609D01*
X104288971Y-69250798D01*
X104193613Y-69481013D01*
X104145000Y-69725408D01*
X104138072Y-69725408D01*
X104138072Y-69220000D01*
X104125812Y-69095518D01*
X104089502Y-68975820D01*
X104030537Y-68865506D01*
X103951185Y-68768815D01*
X103854494Y-68689463D01*
X103744180Y-68630498D01*
X103624482Y-68594188D01*
X103500000Y-68581928D01*
X102240000Y-68581928D01*
X102115518Y-68594188D01*
X101995820Y-68630498D01*
X101885506Y-68689463D01*
X101788815Y-68768815D01*
X101709463Y-68865506D01*
X101650498Y-68975820D01*
X101614188Y-69095518D01*
X101601928Y-69220000D01*
X98890451Y-69220000D01*
X98772590Y-69043609D01*
X98596391Y-68867410D01*
X98389202Y-68728971D01*
X98158987Y-68633613D01*
X97914592Y-68585000D01*
X97665408Y-68585000D01*
X97421013Y-68633613D01*
X97190798Y-68728971D01*
X96983609Y-68867410D01*
X96807410Y-69043609D01*
X96668971Y-69250798D01*
X96573613Y-69481013D01*
X96525000Y-69725408D01*
X96515000Y-69725408D01*
X96466387Y-69481013D01*
X96371029Y-69250798D01*
X96232590Y-69043609D01*
X96056391Y-68867410D01*
X95849202Y-68728971D01*
X95618987Y-68633613D01*
X95374592Y-68585000D01*
X95125408Y-68585000D01*
X94881013Y-68633613D01*
X94650798Y-68728971D01*
X94443609Y-68867410D01*
X94267410Y-69043609D01*
X94128971Y-69250798D01*
X94033613Y-69481013D01*
X93985000Y-69725408D01*
X93978072Y-69725408D01*
X93978072Y-69220000D01*
X93965812Y-69095518D01*
X93929502Y-68975820D01*
X93870537Y-68865506D01*
X93791185Y-68768815D01*
X93694494Y-68689463D01*
X93584180Y-68630498D01*
X93464482Y-68594188D01*
X93340000Y-68581928D01*
X92080000Y-68581928D01*
X91955518Y-68594188D01*
X91835820Y-68630498D01*
X91725506Y-68689463D01*
X91628815Y-68768815D01*
X91549463Y-68865506D01*
X91490498Y-68975820D01*
X91454188Y-69095518D01*
X91441928Y-69220000D01*
X87161082Y-69220000D01*
X87105715Y-62105408D01*
X91445000Y-62105408D01*
X91445000Y-62354592D01*
X91493613Y-62598987D01*
X91588971Y-62829202D01*
X91727410Y-63036391D01*
X91903609Y-63212590D01*
X92110798Y-63351029D01*
X92341013Y-63446387D01*
X92585408Y-63495000D01*
X92834592Y-63495000D01*
X93078987Y-63446387D01*
X93309202Y-63351029D01*
X93501433Y-63222584D01*
X93570660Y-63352099D01*
X93821839Y-63658161D01*
X94127901Y-63909340D01*
X94477085Y-64095983D01*
X94855971Y-64210917D01*
X95250000Y-64249725D01*
X95644028Y-64210917D01*
X96022914Y-64095983D01*
X96372099Y-63909340D01*
X96678161Y-63658161D01*
X96929340Y-63352099D01*
X96998567Y-63222585D01*
X97190798Y-63351029D01*
X97421013Y-63446387D01*
X97665408Y-63495000D01*
X97914592Y-63495000D01*
X98158987Y-63446387D01*
X98389202Y-63351029D01*
X98596391Y-63212590D01*
X98772590Y-63036391D01*
X98911029Y-62829202D01*
X99006387Y-62598987D01*
X99055000Y-62354592D01*
X99055000Y-62105408D01*
X101605000Y-62105408D01*
X101605000Y-62354592D01*
X101653613Y-62598987D01*
X101748971Y-62829202D01*
X101887410Y-63036391D01*
X102063609Y-63212590D01*
X102270798Y-63351029D01*
X102501013Y-63446387D01*
X102745408Y-63495000D01*
X102994592Y-63495000D01*
X103238987Y-63446387D01*
X103469202Y-63351029D01*
X103661433Y-63222584D01*
X103730660Y-63352099D01*
X103981839Y-63658161D01*
X104287901Y-63909340D01*
X104637085Y-64095983D01*
X105015971Y-64210917D01*
X105410000Y-64249725D01*
X105804028Y-64210917D01*
X106182914Y-64095983D01*
X106532099Y-63909340D01*
X106838161Y-63658161D01*
X107089340Y-63352099D01*
X107158567Y-63222585D01*
X107350798Y-63351029D01*
X107581013Y-63446387D01*
X107825408Y-63495000D01*
X108074592Y-63495000D01*
X108318987Y-63446387D01*
X108549202Y-63351029D01*
X108756391Y-63212590D01*
X108932590Y-63036391D01*
X109071029Y-62829202D01*
X109166387Y-62598987D01*
X109215000Y-62354592D01*
X109215000Y-62105408D01*
X111765000Y-62105408D01*
X111765000Y-62354592D01*
X111813613Y-62598987D01*
X111908971Y-62829202D01*
X112047410Y-63036391D01*
X112223609Y-63212590D01*
X112430798Y-63351029D01*
X112661013Y-63446387D01*
X112905408Y-63495000D01*
X113154592Y-63495000D01*
X113398987Y-63446387D01*
X113629202Y-63351029D01*
X113821433Y-63222584D01*
X113890660Y-63352099D01*
X114141839Y-63658161D01*
X114447901Y-63909340D01*
X114797085Y-64095983D01*
X115175971Y-64210917D01*
X115570000Y-64249725D01*
X115964028Y-64210917D01*
X116342914Y-64095983D01*
X116692099Y-63909340D01*
X116998161Y-63658161D01*
X117249340Y-63352099D01*
X117318567Y-63222585D01*
X117510798Y-63351029D01*
X117741013Y-63446387D01*
X117985408Y-63495000D01*
X118234592Y-63495000D01*
X118478987Y-63446387D01*
X118709202Y-63351029D01*
X118916391Y-63212590D01*
X119092590Y-63036391D01*
X119231029Y-62829202D01*
X119326387Y-62598987D01*
X119375000Y-62354592D01*
X119375000Y-62105408D01*
X121925000Y-62105408D01*
X121925000Y-62354592D01*
X121973613Y-62598987D01*
X122068971Y-62829202D01*
X122207410Y-63036391D01*
X122383609Y-63212590D01*
X122590798Y-63351029D01*
X122821013Y-63446387D01*
X123065408Y-63495000D01*
X123314592Y-63495000D01*
X123558987Y-63446387D01*
X123789202Y-63351029D01*
X123981433Y-63222584D01*
X124050660Y-63352099D01*
X124301839Y-63658161D01*
X124607901Y-63909340D01*
X124957085Y-64095983D01*
X125335971Y-64210917D01*
X125730000Y-64249725D01*
X126124028Y-64210917D01*
X126502914Y-64095983D01*
X126852099Y-63909340D01*
X127158161Y-63658161D01*
X127409340Y-63352099D01*
X127478567Y-63222585D01*
X127670798Y-63351029D01*
X127901013Y-63446387D01*
X128145408Y-63495000D01*
X128394592Y-63495000D01*
X128638987Y-63446387D01*
X128869202Y-63351029D01*
X129076391Y-63212590D01*
X129252590Y-63036391D01*
X129391029Y-62829202D01*
X129486387Y-62598987D01*
X129535000Y-62354592D01*
X129535000Y-62105408D01*
X132085000Y-62105408D01*
X132085000Y-62354592D01*
X132133613Y-62598987D01*
X132228971Y-62829202D01*
X132367410Y-63036391D01*
X132543609Y-63212590D01*
X132750798Y-63351029D01*
X132981013Y-63446387D01*
X133225408Y-63495000D01*
X133474592Y-63495000D01*
X133718987Y-63446387D01*
X133949202Y-63351029D01*
X134141433Y-63222584D01*
X134210660Y-63352099D01*
X134461839Y-63658161D01*
X134767901Y-63909340D01*
X135117085Y-64095983D01*
X135495971Y-64210917D01*
X135890000Y-64249725D01*
X136284028Y-64210917D01*
X136662914Y-64095983D01*
X137012099Y-63909340D01*
X137318161Y-63658161D01*
X137569340Y-63352099D01*
X137638567Y-63222585D01*
X137830798Y-63351029D01*
X138061013Y-63446387D01*
X138305408Y-63495000D01*
X138554592Y-63495000D01*
X138798987Y-63446387D01*
X139029202Y-63351029D01*
X139236391Y-63212590D01*
X139412590Y-63036391D01*
X139551029Y-62829202D01*
X139646387Y-62598987D01*
X139695000Y-62354592D01*
X139695000Y-62105408D01*
X142245000Y-62105408D01*
X142245000Y-62354592D01*
X142293613Y-62598987D01*
X142388971Y-62829202D01*
X142527410Y-63036391D01*
X142703609Y-63212590D01*
X142910798Y-63351029D01*
X143141013Y-63446387D01*
X143385408Y-63495000D01*
X143634592Y-63495000D01*
X143878987Y-63446387D01*
X144109202Y-63351029D01*
X144301433Y-63222584D01*
X144370660Y-63352099D01*
X144621839Y-63658161D01*
X144927901Y-63909340D01*
X145277085Y-64095983D01*
X145655971Y-64210917D01*
X146050000Y-64249725D01*
X146444028Y-64210917D01*
X146822914Y-64095983D01*
X147172099Y-63909340D01*
X147478161Y-63658161D01*
X147729340Y-63352099D01*
X147798567Y-63222585D01*
X147990798Y-63351029D01*
X148221013Y-63446387D01*
X148465408Y-63495000D01*
X148714592Y-63495000D01*
X148958987Y-63446387D01*
X149189202Y-63351029D01*
X149396391Y-63212590D01*
X149572590Y-63036391D01*
X149711029Y-62829202D01*
X149806387Y-62598987D01*
X149855000Y-62354592D01*
X149855000Y-62105408D01*
X152405000Y-62105408D01*
X152405000Y-62354592D01*
X152453613Y-62598987D01*
X152548971Y-62829202D01*
X152687410Y-63036391D01*
X152863609Y-63212590D01*
X153070798Y-63351029D01*
X153301013Y-63446387D01*
X153545408Y-63495000D01*
X153794592Y-63495000D01*
X154038987Y-63446387D01*
X154269202Y-63351029D01*
X154461433Y-63222584D01*
X154530660Y-63352099D01*
X154781839Y-63658161D01*
X155087901Y-63909340D01*
X155437085Y-64095983D01*
X155815971Y-64210917D01*
X156210000Y-64249725D01*
X156604028Y-64210917D01*
X156982914Y-64095983D01*
X157332099Y-63909340D01*
X157638161Y-63658161D01*
X157889340Y-63352099D01*
X157958567Y-63222585D01*
X158150798Y-63351029D01*
X158381013Y-63446387D01*
X158625408Y-63495000D01*
X158874592Y-63495000D01*
X159118987Y-63446387D01*
X159349202Y-63351029D01*
X159556391Y-63212590D01*
X159732590Y-63036391D01*
X159871029Y-62829202D01*
X159966387Y-62598987D01*
X160015000Y-62354592D01*
X160015000Y-62105408D01*
X162565000Y-62105408D01*
X162565000Y-62354592D01*
X162613613Y-62598987D01*
X162708971Y-62829202D01*
X162847410Y-63036391D01*
X163023609Y-63212590D01*
X163230798Y-63351029D01*
X163461013Y-63446387D01*
X163705408Y-63495000D01*
X163954592Y-63495000D01*
X164198987Y-63446387D01*
X164429202Y-63351029D01*
X164621433Y-63222584D01*
X164690660Y-63352099D01*
X164941839Y-63658161D01*
X165247901Y-63909340D01*
X165597085Y-64095983D01*
X165975971Y-64210917D01*
X166370000Y-64249725D01*
X166764028Y-64210917D01*
X167142914Y-64095983D01*
X167492099Y-63909340D01*
X167798161Y-63658161D01*
X168049340Y-63352099D01*
X168118567Y-63222585D01*
X168310798Y-63351029D01*
X168541013Y-63446387D01*
X168785408Y-63495000D01*
X169034592Y-63495000D01*
X169278987Y-63446387D01*
X169509202Y-63351029D01*
X169716391Y-63212590D01*
X169892590Y-63036391D01*
X170031029Y-62829202D01*
X170126387Y-62598987D01*
X170175000Y-62354592D01*
X170175000Y-62105408D01*
X172725000Y-62105408D01*
X172725000Y-62354592D01*
X172773613Y-62598987D01*
X172868971Y-62829202D01*
X173007410Y-63036391D01*
X173183609Y-63212590D01*
X173390798Y-63351029D01*
X173621013Y-63446387D01*
X173865408Y-63495000D01*
X174114592Y-63495000D01*
X174358987Y-63446387D01*
X174589202Y-63351029D01*
X174781433Y-63222584D01*
X174850660Y-63352099D01*
X175101839Y-63658161D01*
X175407901Y-63909340D01*
X175757085Y-64095983D01*
X176135971Y-64210917D01*
X176530000Y-64249725D01*
X176924028Y-64210917D01*
X177302914Y-64095983D01*
X177652099Y-63909340D01*
X177958161Y-63658161D01*
X178209340Y-63352099D01*
X178278567Y-63222585D01*
X178470798Y-63351029D01*
X178701013Y-63446387D01*
X178945408Y-63495000D01*
X179194592Y-63495000D01*
X179438987Y-63446387D01*
X179669202Y-63351029D01*
X179876391Y-63212590D01*
X180052590Y-63036391D01*
X180191029Y-62829202D01*
X180286387Y-62598987D01*
X180335000Y-62354592D01*
X180335000Y-62105408D01*
X180286387Y-61861013D01*
X180191029Y-61630798D01*
X180052590Y-61423609D01*
X179876391Y-61247410D01*
X179669202Y-61108971D01*
X179438987Y-61013613D01*
X179194592Y-60965000D01*
X178945408Y-60965000D01*
X178701013Y-61013613D01*
X178540000Y-61080307D01*
X178540000Y-53369180D01*
X178738890Y-53429513D01*
X179030000Y-53458185D01*
X179321111Y-53429513D01*
X179601034Y-53344599D01*
X179859014Y-53206706D01*
X180085134Y-53021134D01*
X180270706Y-52795014D01*
X180408599Y-52537033D01*
X180493513Y-52257110D01*
X180515000Y-52038949D01*
X180515000Y-51593050D01*
X180493513Y-51374889D01*
X180408599Y-51094966D01*
X180270706Y-50836986D01*
X180085134Y-50610866D01*
X179859013Y-50425294D01*
X179601033Y-50287401D01*
X179321110Y-50202487D01*
X179030000Y-50173815D01*
X178738889Y-50202487D01*
X178458966Y-50287401D01*
X178200986Y-50425294D01*
X178074255Y-50529300D01*
X177958161Y-50387839D01*
X177652099Y-50136660D01*
X177302915Y-49950017D01*
X176924029Y-49835083D01*
X176530000Y-49796275D01*
X176135972Y-49835083D01*
X175757086Y-49950017D01*
X175407902Y-50136660D01*
X175101840Y-50387839D01*
X174850661Y-50693901D01*
X174664018Y-51043085D01*
X174549084Y-51421971D01*
X174520001Y-51717259D01*
X174520000Y-61080307D01*
X174358987Y-61013613D01*
X174114592Y-60965000D01*
X173865408Y-60965000D01*
X173621013Y-61013613D01*
X173390798Y-61108971D01*
X173183609Y-61247410D01*
X173007410Y-61423609D01*
X172868971Y-61630798D01*
X172773613Y-61861013D01*
X172725000Y-62105408D01*
X170175000Y-62105408D01*
X170126387Y-61861013D01*
X170031029Y-61630798D01*
X169892590Y-61423609D01*
X169716391Y-61247410D01*
X169509202Y-61108971D01*
X169278987Y-61013613D01*
X169034592Y-60965000D01*
X168785408Y-60965000D01*
X168541013Y-61013613D01*
X168380000Y-61080307D01*
X168380000Y-53357046D01*
X168618890Y-53429513D01*
X168910000Y-53458185D01*
X169201111Y-53429513D01*
X169481034Y-53344599D01*
X169739014Y-53206706D01*
X169965134Y-53021134D01*
X170150706Y-52795014D01*
X170288599Y-52537033D01*
X170373513Y-52257110D01*
X170395000Y-52038949D01*
X170395000Y-51593050D01*
X170373513Y-51374889D01*
X170288599Y-51094966D01*
X170150706Y-50836986D01*
X169965134Y-50610866D01*
X169739013Y-50425294D01*
X169481033Y-50287401D01*
X169201110Y-50202487D01*
X168910000Y-50173815D01*
X168618889Y-50202487D01*
X168338966Y-50287401D01*
X168080986Y-50425294D01*
X167954255Y-50529300D01*
X167838161Y-50387839D01*
X167532099Y-50136660D01*
X167182916Y-49950018D01*
X166804029Y-49835084D01*
X166410000Y-49796276D01*
X166015972Y-49835084D01*
X165637085Y-49950018D01*
X165287902Y-50136660D01*
X165058537Y-50324895D01*
X165018534Y-50364898D01*
X164941840Y-50427839D01*
X164878902Y-50504529D01*
X164878895Y-50504536D01*
X164690660Y-50733901D01*
X164635560Y-50836987D01*
X164504018Y-51083085D01*
X164436735Y-51304889D01*
X164389084Y-51461972D01*
X164350276Y-51856000D01*
X164360001Y-51954740D01*
X164360000Y-61080307D01*
X164198987Y-61013613D01*
X163954592Y-60965000D01*
X163705408Y-60965000D01*
X163461013Y-61013613D01*
X163230798Y-61108971D01*
X163023609Y-61247410D01*
X162847410Y-61423609D01*
X162708971Y-61630798D01*
X162613613Y-61861013D01*
X162565000Y-62105408D01*
X160015000Y-62105408D01*
X159966387Y-61861013D01*
X159871029Y-61630798D01*
X159732590Y-61423609D01*
X159556391Y-61247410D01*
X159349202Y-61108971D01*
X159118987Y-61013613D01*
X158874592Y-60965000D01*
X158625408Y-60965000D01*
X158381013Y-61013613D01*
X158220000Y-61080307D01*
X158220000Y-53369180D01*
X158418890Y-53429513D01*
X158710000Y-53458185D01*
X159001111Y-53429513D01*
X159281034Y-53344599D01*
X159539014Y-53206706D01*
X159765134Y-53021134D01*
X159950706Y-52795014D01*
X160088599Y-52537033D01*
X160173513Y-52257110D01*
X160195000Y-52038949D01*
X160195000Y-51593050D01*
X160173513Y-51374889D01*
X160088599Y-51094966D01*
X159950706Y-50836986D01*
X159765134Y-50610866D01*
X159539013Y-50425294D01*
X159281033Y-50287401D01*
X159001110Y-50202487D01*
X158710000Y-50173815D01*
X158418889Y-50202487D01*
X158138966Y-50287401D01*
X157880986Y-50425294D01*
X157754255Y-50529300D01*
X157638161Y-50387839D01*
X157332099Y-50136660D01*
X156982915Y-49950017D01*
X156604029Y-49835083D01*
X156210000Y-49796275D01*
X155815972Y-49835083D01*
X155437086Y-49950017D01*
X155087902Y-50136660D01*
X154781840Y-50387839D01*
X154530661Y-50693901D01*
X154344018Y-51043085D01*
X154229084Y-51421971D01*
X154200001Y-51717259D01*
X154200000Y-61080307D01*
X154038987Y-61013613D01*
X153794592Y-60965000D01*
X153545408Y-60965000D01*
X153301013Y-61013613D01*
X153070798Y-61108971D01*
X152863609Y-61247410D01*
X152687410Y-61423609D01*
X152548971Y-61630798D01*
X152453613Y-61861013D01*
X152405000Y-62105408D01*
X149855000Y-62105408D01*
X149806387Y-61861013D01*
X149711029Y-61630798D01*
X149572590Y-61423609D01*
X149396391Y-61247410D01*
X149189202Y-61108971D01*
X148958987Y-61013613D01*
X148714592Y-60965000D01*
X148465408Y-60965000D01*
X148221013Y-61013613D01*
X148060000Y-61080307D01*
X148060000Y-53369180D01*
X148258890Y-53429513D01*
X148550000Y-53458185D01*
X148841111Y-53429513D01*
X149121034Y-53344599D01*
X149379014Y-53206706D01*
X149605134Y-53021134D01*
X149790706Y-52795014D01*
X149928599Y-52537033D01*
X150013513Y-52257110D01*
X150035000Y-52038949D01*
X150035000Y-51593050D01*
X150013513Y-51374889D01*
X149928599Y-51094966D01*
X149790706Y-50836986D01*
X149605134Y-50610866D01*
X149379013Y-50425294D01*
X149121033Y-50287401D01*
X148841110Y-50202487D01*
X148550000Y-50173815D01*
X148258889Y-50202487D01*
X147978966Y-50287401D01*
X147720986Y-50425294D01*
X147594255Y-50529300D01*
X147478161Y-50387839D01*
X147172099Y-50136660D01*
X146822915Y-49950017D01*
X146444029Y-49835083D01*
X146050000Y-49796275D01*
X145655972Y-49835083D01*
X145277086Y-49950017D01*
X144927902Y-50136660D01*
X144621840Y-50387839D01*
X144370661Y-50693901D01*
X144184018Y-51043085D01*
X144069084Y-51421971D01*
X144040001Y-51717259D01*
X144040000Y-61080307D01*
X143878987Y-61013613D01*
X143634592Y-60965000D01*
X143385408Y-60965000D01*
X143141013Y-61013613D01*
X142910798Y-61108971D01*
X142703609Y-61247410D01*
X142527410Y-61423609D01*
X142388971Y-61630798D01*
X142293613Y-61861013D01*
X142245000Y-62105408D01*
X139695000Y-62105408D01*
X139646387Y-61861013D01*
X139551029Y-61630798D01*
X139412590Y-61423609D01*
X139236391Y-61247410D01*
X139029202Y-61108971D01*
X138798987Y-61013613D01*
X138554592Y-60965000D01*
X138305408Y-60965000D01*
X138061013Y-61013613D01*
X137900000Y-61080307D01*
X137900000Y-53357046D01*
X138138890Y-53429513D01*
X138430000Y-53458185D01*
X138721111Y-53429513D01*
X139001034Y-53344599D01*
X139259014Y-53206706D01*
X139485134Y-53021134D01*
X139670706Y-52795014D01*
X139808599Y-52537033D01*
X139893513Y-52257110D01*
X139915000Y-52038949D01*
X139915000Y-51593050D01*
X139893513Y-51374889D01*
X139808599Y-51094966D01*
X139670706Y-50836986D01*
X139485134Y-50610866D01*
X139259013Y-50425294D01*
X139001033Y-50287401D01*
X138721110Y-50202487D01*
X138430000Y-50173815D01*
X138138889Y-50202487D01*
X137858966Y-50287401D01*
X137600986Y-50425294D01*
X137474255Y-50529300D01*
X137358161Y-50387839D01*
X137052099Y-50136660D01*
X136702916Y-49950018D01*
X136324029Y-49835084D01*
X135930000Y-49796276D01*
X135535972Y-49835084D01*
X135157085Y-49950018D01*
X134807902Y-50136660D01*
X134578537Y-50324895D01*
X134538534Y-50364898D01*
X134461840Y-50427839D01*
X134398902Y-50504529D01*
X134398895Y-50504536D01*
X134210660Y-50733901D01*
X134155560Y-50836987D01*
X134024018Y-51083085D01*
X133956735Y-51304889D01*
X133909084Y-51461972D01*
X133870276Y-51856000D01*
X133880001Y-51954740D01*
X133880000Y-61080307D01*
X133718987Y-61013613D01*
X133474592Y-60965000D01*
X133225408Y-60965000D01*
X132981013Y-61013613D01*
X132750798Y-61108971D01*
X132543609Y-61247410D01*
X132367410Y-61423609D01*
X132228971Y-61630798D01*
X132133613Y-61861013D01*
X132085000Y-62105408D01*
X129535000Y-62105408D01*
X129486387Y-61861013D01*
X129391029Y-61630798D01*
X129252590Y-61423609D01*
X129076391Y-61247410D01*
X128869202Y-61108971D01*
X128638987Y-61013613D01*
X128394592Y-60965000D01*
X128145408Y-60965000D01*
X127901013Y-61013613D01*
X127740000Y-61080307D01*
X127740000Y-53299180D01*
X127938890Y-53359513D01*
X128230000Y-53388185D01*
X128521111Y-53359513D01*
X128801034Y-53274599D01*
X129059014Y-53136706D01*
X129285134Y-52951134D01*
X129470706Y-52725014D01*
X129608599Y-52467033D01*
X129693513Y-52187110D01*
X129715000Y-51968949D01*
X129715000Y-51523050D01*
X129693513Y-51304889D01*
X129608599Y-51024966D01*
X129470706Y-50766986D01*
X129285134Y-50540866D01*
X129059013Y-50355294D01*
X128801033Y-50217401D01*
X128521110Y-50132487D01*
X128230000Y-50103815D01*
X127938889Y-50132487D01*
X127658966Y-50217401D01*
X127400986Y-50355294D01*
X127274255Y-50459300D01*
X127158161Y-50317839D01*
X126852099Y-50066660D01*
X126502915Y-49880017D01*
X126124029Y-49765083D01*
X125730000Y-49726275D01*
X125335972Y-49765083D01*
X124957086Y-49880017D01*
X124607902Y-50066660D01*
X124301840Y-50317839D01*
X124050661Y-50623901D01*
X123864018Y-50973085D01*
X123749084Y-51351971D01*
X123720001Y-51647259D01*
X123720000Y-61080307D01*
X123558987Y-61013613D01*
X123314592Y-60965000D01*
X123065408Y-60965000D01*
X122821013Y-61013613D01*
X122590798Y-61108971D01*
X122383609Y-61247410D01*
X122207410Y-61423609D01*
X122068971Y-61630798D01*
X121973613Y-61861013D01*
X121925000Y-62105408D01*
X119375000Y-62105408D01*
X119326387Y-61861013D01*
X119231029Y-61630798D01*
X119092590Y-61423609D01*
X118916391Y-61247410D01*
X118709202Y-61108971D01*
X118478987Y-61013613D01*
X118234592Y-60965000D01*
X117985408Y-60965000D01*
X117741013Y-61013613D01*
X117580000Y-61080307D01*
X117580000Y-53369180D01*
X117778890Y-53429513D01*
X118070000Y-53458185D01*
X118361111Y-53429513D01*
X118641034Y-53344599D01*
X118899014Y-53206706D01*
X119125134Y-53021134D01*
X119310706Y-52795014D01*
X119448599Y-52537033D01*
X119533513Y-52257110D01*
X119555000Y-52038949D01*
X119555000Y-51593050D01*
X119533513Y-51374889D01*
X119448599Y-51094966D01*
X119310706Y-50836986D01*
X119125134Y-50610866D01*
X118899013Y-50425294D01*
X118641033Y-50287401D01*
X118361110Y-50202487D01*
X118070000Y-50173815D01*
X117778889Y-50202487D01*
X117498966Y-50287401D01*
X117240986Y-50425294D01*
X117114255Y-50529300D01*
X116998161Y-50387839D01*
X116692099Y-50136660D01*
X116342915Y-49950017D01*
X115964029Y-49835083D01*
X115570000Y-49796275D01*
X115175972Y-49835083D01*
X114797086Y-49950017D01*
X114447902Y-50136660D01*
X114141840Y-50387839D01*
X113890661Y-50693901D01*
X113704018Y-51043085D01*
X113589084Y-51421971D01*
X113560001Y-51717259D01*
X113560000Y-61080307D01*
X113398987Y-61013613D01*
X113154592Y-60965000D01*
X112905408Y-60965000D01*
X112661013Y-61013613D01*
X112430798Y-61108971D01*
X112223609Y-61247410D01*
X112047410Y-61423609D01*
X111908971Y-61630798D01*
X111813613Y-61861013D01*
X111765000Y-62105408D01*
X109215000Y-62105408D01*
X109166387Y-61861013D01*
X109071029Y-61630798D01*
X108932590Y-61423609D01*
X108756391Y-61247410D01*
X108549202Y-61108971D01*
X108318987Y-61013613D01*
X108074592Y-60965000D01*
X107825408Y-60965000D01*
X107581013Y-61013613D01*
X107420000Y-61080307D01*
X107420000Y-53369180D01*
X107618890Y-53429513D01*
X107910000Y-53458185D01*
X108201111Y-53429513D01*
X108481034Y-53344599D01*
X108739014Y-53206706D01*
X108965134Y-53021134D01*
X109150706Y-52795014D01*
X109288599Y-52537033D01*
X109373513Y-52257110D01*
X109395000Y-52038949D01*
X109395000Y-51593050D01*
X109373513Y-51374889D01*
X109288599Y-51094966D01*
X109150706Y-50836986D01*
X108965134Y-50610866D01*
X108739013Y-50425294D01*
X108481033Y-50287401D01*
X108201110Y-50202487D01*
X107910000Y-50173815D01*
X107618889Y-50202487D01*
X107338966Y-50287401D01*
X107080986Y-50425294D01*
X106954255Y-50529300D01*
X106838161Y-50387839D01*
X106532099Y-50136660D01*
X106182915Y-49950017D01*
X105804029Y-49835083D01*
X105410000Y-49796275D01*
X105015972Y-49835083D01*
X104637086Y-49950017D01*
X104287902Y-50136660D01*
X103981840Y-50387839D01*
X103730661Y-50693901D01*
X103544018Y-51043085D01*
X103429084Y-51421971D01*
X103400001Y-51717259D01*
X103400000Y-61080307D01*
X103238987Y-61013613D01*
X102994592Y-60965000D01*
X102745408Y-60965000D01*
X102501013Y-61013613D01*
X102270798Y-61108971D01*
X102063609Y-61247410D01*
X101887410Y-61423609D01*
X101748971Y-61630798D01*
X101653613Y-61861013D01*
X101605000Y-62105408D01*
X99055000Y-62105408D01*
X99006387Y-61861013D01*
X98911029Y-61630798D01*
X98772590Y-61423609D01*
X98596391Y-61247410D01*
X98389202Y-61108971D01*
X98158987Y-61013613D01*
X97914592Y-60965000D01*
X97665408Y-60965000D01*
X97421013Y-61013613D01*
X97260000Y-61080307D01*
X97260000Y-53369180D01*
X97458890Y-53429513D01*
X97750000Y-53458185D01*
X98041111Y-53429513D01*
X98321034Y-53344599D01*
X98579014Y-53206706D01*
X98805134Y-53021134D01*
X98990706Y-52795014D01*
X99128599Y-52537033D01*
X99213513Y-52257110D01*
X99235000Y-52038949D01*
X99235000Y-51593050D01*
X99213513Y-51374889D01*
X99128599Y-51094966D01*
X98990706Y-50836986D01*
X98805134Y-50610866D01*
X98579013Y-50425294D01*
X98321033Y-50287401D01*
X98041110Y-50202487D01*
X97750000Y-50173815D01*
X97458889Y-50202487D01*
X97178966Y-50287401D01*
X96920986Y-50425294D01*
X96794255Y-50529300D01*
X96678161Y-50387839D01*
X96372099Y-50136660D01*
X96022915Y-49950017D01*
X95644029Y-49835083D01*
X95250000Y-49796275D01*
X94855972Y-49835083D01*
X94477086Y-49950017D01*
X94127902Y-50136660D01*
X93821840Y-50387839D01*
X93570661Y-50693901D01*
X93384018Y-51043085D01*
X93269084Y-51421971D01*
X93240001Y-51717259D01*
X93240000Y-61080307D01*
X93078987Y-61013613D01*
X92834592Y-60965000D01*
X92585408Y-60965000D01*
X92341013Y-61013613D01*
X92110798Y-61108971D01*
X91903609Y-61247410D01*
X91727410Y-61423609D01*
X91588971Y-61630798D01*
X91493613Y-61861013D01*
X91445000Y-62105408D01*
X87105715Y-62105408D01*
X87070000Y-57516075D01*
X87070000Y-48208000D01*
X185472000Y-48208000D01*
X185472001Y-146610000D01*
X185472001Y-146610000D01*
G37*
X185472001Y-146610000D02*
X168870383Y-146610000D01*
X87756027Y-145670452D01*
X87558351Y-120269000D01*
X88892749Y-120269000D01*
X88921684Y-120562777D01*
X89007375Y-120845264D01*
X89146531Y-121105606D01*
X89333803Y-121333797D01*
X89561994Y-121521069D01*
X89595540Y-121539000D01*
X89561994Y-121556931D01*
X89333803Y-121744203D01*
X89146531Y-121972394D01*
X89007375Y-122232736D01*
X88921684Y-122515223D01*
X88892749Y-122809000D01*
X88921684Y-123102777D01*
X89007375Y-123385264D01*
X89146531Y-123645606D01*
X89333803Y-123873797D01*
X89561994Y-124061069D01*
X89595540Y-124079000D01*
X89561994Y-124096931D01*
X89333803Y-124284203D01*
X89146531Y-124512394D01*
X89007375Y-124772736D01*
X88921684Y-125055223D01*
X88892749Y-125349000D01*
X88921684Y-125642777D01*
X89007375Y-125925264D01*
X89146531Y-126185606D01*
X89333803Y-126413797D01*
X89561994Y-126601069D01*
X89595540Y-126619000D01*
X89561994Y-126636931D01*
X89333803Y-126824203D01*
X89146531Y-127052394D01*
X89007375Y-127312736D01*
X88921684Y-127595223D01*
X88892749Y-127889000D01*
X88921684Y-128182777D01*
X89007375Y-128465264D01*
X89146531Y-128725606D01*
X89333803Y-128953797D01*
X89561994Y-129141069D01*
X89595540Y-129159000D01*
X89561994Y-129176931D01*
X89333803Y-129364203D01*
X89146531Y-129592394D01*
X89007375Y-129852736D01*
X88921684Y-130135223D01*
X88892749Y-130429000D01*
X88921684Y-130722777D01*
X89007375Y-131005264D01*
X89146531Y-131265606D01*
X89333803Y-131493797D01*
X89561994Y-131681069D01*
X89595540Y-131699000D01*
X89561994Y-131716931D01*
X89333803Y-131904203D01*
X89146531Y-132132394D01*
X89007375Y-132392736D01*
X88921684Y-132675223D01*
X88892749Y-132969000D01*
X88921684Y-133262777D01*
X89007375Y-133545264D01*
X89146531Y-133805606D01*
X89333803Y-134033797D01*
X89561994Y-134221069D01*
X89595540Y-134239000D01*
X89561994Y-134256931D01*
X89333803Y-134444203D01*
X89146531Y-134672394D01*
X89007375Y-134932736D01*
X88921684Y-135215223D01*
X88892749Y-135509000D01*
X88921684Y-135802777D01*
X89007375Y-136085264D01*
X89146531Y-136345606D01*
X89333803Y-136573797D01*
X89561994Y-136761069D01*
X89595540Y-136779000D01*
X89561994Y-136796931D01*
X89333803Y-136984203D01*
X89146531Y-137212394D01*
X89007375Y-137472736D01*
X88921684Y-137755223D01*
X88892749Y-138049000D01*
X88921684Y-138342777D01*
X89007375Y-138625264D01*
X89146531Y-138885606D01*
X89333803Y-139113797D01*
X89561994Y-139301069D01*
X89595540Y-139319000D01*
X89561994Y-139336931D01*
X89333803Y-139524203D01*
X89146531Y-139752394D01*
X89007375Y-140012736D01*
X88921684Y-140295223D01*
X88892749Y-140589000D01*
X88921684Y-140882777D01*
X89007375Y-141165264D01*
X89146531Y-141425606D01*
X89333803Y-141653797D01*
X89341865Y-141660414D01*
X89290820Y-141675898D01*
X89180506Y-141734863D01*
X89083815Y-141814215D01*
X89004463Y-141910906D01*
X88945498Y-142021220D01*
X88909188Y-142140918D01*
X88896928Y-142265400D01*
X88896928Y-143992600D01*
X88909188Y-144117082D01*
X88945498Y-144236780D01*
X89004463Y-144347094D01*
X89083815Y-144443785D01*
X89180506Y-144523137D01*
X89290820Y-144582102D01*
X89410518Y-144618412D01*
X89535000Y-144630672D01*
X91567000Y-144630672D01*
X91691482Y-144618412D01*
X91811180Y-144582102D01*
X91921494Y-144523137D01*
X92018185Y-144443785D01*
X92097537Y-144347094D01*
X92156502Y-144236780D01*
X92192812Y-144117082D01*
X92205072Y-143992600D01*
X92205072Y-142265400D01*
X92192812Y-142140918D01*
X92156502Y-142021220D01*
X92097537Y-141910906D01*
X92018185Y-141814215D01*
X91921494Y-141734863D01*
X91811180Y-141675898D01*
X91760135Y-141660414D01*
X91768197Y-141653797D01*
X91955469Y-141425606D01*
X92094625Y-141165264D01*
X92180316Y-140882777D01*
X92209251Y-140589000D01*
X92180316Y-140295223D01*
X92094625Y-140012736D01*
X91955469Y-139752394D01*
X91768197Y-139524203D01*
X91540006Y-139336931D01*
X91506460Y-139319000D01*
X91540006Y-139301069D01*
X91768197Y-139113797D01*
X91955469Y-138885606D01*
X92094625Y-138625264D01*
X92180316Y-138342777D01*
X92209251Y-138049000D01*
X92180316Y-137755223D01*
X92094625Y-137472736D01*
X91955469Y-137212394D01*
X91768197Y-136984203D01*
X91540006Y-136796931D01*
X91506460Y-136779000D01*
X91540006Y-136761069D01*
X91768197Y-136573797D01*
X91955469Y-136345606D01*
X92094625Y-136085264D01*
X92180316Y-135802777D01*
X92209251Y-135509000D01*
X92180316Y-135215223D01*
X92094625Y-134932736D01*
X91955469Y-134672394D01*
X91768197Y-134444203D01*
X91540006Y-134256931D01*
X91506460Y-134239000D01*
X91540006Y-134221069D01*
X91768197Y-134033797D01*
X91955469Y-133805606D01*
X92094625Y-133545264D01*
X92180316Y-133262777D01*
X92209251Y-132969000D01*
X92180316Y-132675223D01*
X92094625Y-132392736D01*
X91955469Y-132132394D01*
X91768197Y-131904203D01*
X91540006Y-131716931D01*
X91506460Y-131699000D01*
X91540006Y-131681069D01*
X91768197Y-131493797D01*
X91955469Y-131265606D01*
X92094625Y-131005264D01*
X92180316Y-130722777D01*
X92180795Y-130717911D01*
X95458000Y-130717911D01*
X95458000Y-130902089D01*
X95493932Y-131082729D01*
X95564414Y-131252889D01*
X95666738Y-131406028D01*
X95796972Y-131536262D01*
X95950111Y-131638586D01*
X96120271Y-131709068D01*
X96300911Y-131745000D01*
X96485089Y-131745000D01*
X96665729Y-131709068D01*
X96835889Y-131638586D01*
X96989028Y-131536262D01*
X97119262Y-131406028D01*
X97221586Y-131252889D01*
X97292068Y-131082729D01*
X97328000Y-130902089D01*
X97328000Y-130717911D01*
X97292068Y-130537271D01*
X97221586Y-130367111D01*
X97153000Y-130264465D01*
X97153000Y-114481290D01*
X97246262Y-114388028D01*
X97348586Y-114234889D01*
X97419068Y-114064729D01*
X97455000Y-113884089D01*
X97455000Y-113699911D01*
X97419068Y-113519271D01*
X97348586Y-113349111D01*
X97246262Y-113195972D01*
X97116028Y-113065738D01*
X96962889Y-112963414D01*
X96792729Y-112892932D01*
X96612089Y-112857000D01*
X96427911Y-112857000D01*
X96247271Y-112892932D01*
X96077111Y-112963414D01*
X95923972Y-113065738D01*
X95793738Y-113195972D01*
X95691414Y-113349111D01*
X95620932Y-113519271D01*
X95585000Y-113699911D01*
X95585000Y-113884089D01*
X95620932Y-114064729D01*
X95633001Y-114093866D01*
X95633000Y-130264465D01*
X95564414Y-130367111D01*
X95493932Y-130537271D01*
X95458000Y-130717911D01*
X92180795Y-130717911D01*
X92209251Y-130429000D01*
X92180316Y-130135223D01*
X92094625Y-129852736D01*
X91955469Y-129592394D01*
X91768197Y-129364203D01*
X91540006Y-129176931D01*
X91506460Y-129159000D01*
X91540006Y-129141069D01*
X91768197Y-128953797D01*
X91955469Y-128725606D01*
X92094625Y-128465264D01*
X92180316Y-128182777D01*
X92209251Y-127889000D01*
X92180316Y-127595223D01*
X92094625Y-127312736D01*
X91955469Y-127052394D01*
X91768197Y-126824203D01*
X91540006Y-126636931D01*
X91506460Y-126619000D01*
X91540006Y-126601069D01*
X91768197Y-126413797D01*
X91955469Y-126185606D01*
X92094625Y-125925264D01*
X92180316Y-125642777D01*
X92209251Y-125349000D01*
X92180316Y-125055223D01*
X92094625Y-124772736D01*
X91955469Y-124512394D01*
X91768197Y-124284203D01*
X91540006Y-124096931D01*
X91506460Y-124079000D01*
X91540006Y-124061069D01*
X91768197Y-123873797D01*
X91955469Y-123645606D01*
X92094625Y-123385264D01*
X92180316Y-123102777D01*
X92209251Y-122809000D01*
X92180316Y-122515223D01*
X92094625Y-122232736D01*
X91955469Y-121972394D01*
X91768197Y-121744203D01*
X91540006Y-121556931D01*
X91506460Y-121539000D01*
X91540006Y-121521069D01*
X91768197Y-121333797D01*
X91955469Y-121105606D01*
X92094625Y-120845264D01*
X92180316Y-120562777D01*
X92209251Y-120269000D01*
X92180316Y-119975223D01*
X92094625Y-119692736D01*
X91955469Y-119432394D01*
X91768197Y-119204203D01*
X91540006Y-119016931D01*
X91279664Y-118877775D01*
X90997177Y-118792084D01*
X90777019Y-118770400D01*
X90324981Y-118770400D01*
X90104823Y-118792084D01*
X89822336Y-118877775D01*
X89561994Y-119016931D01*
X89333803Y-119204203D01*
X89146531Y-119432394D01*
X89007375Y-119692736D01*
X88921684Y-119975223D01*
X88892749Y-120269000D01*
X87558351Y-120269000D01*
X87422951Y-102870000D01*
X152228057Y-102870000D01*
X152255764Y-103151309D01*
X152337818Y-103421808D01*
X152471068Y-103671101D01*
X152650392Y-103889608D01*
X152868899Y-104068932D01*
X153001858Y-104140000D01*
X152868899Y-104211068D01*
X152650392Y-104390392D01*
X152471068Y-104608899D01*
X152337818Y-104858192D01*
X152255764Y-105128691D01*
X152228057Y-105410000D01*
X152255764Y-105691309D01*
X152337818Y-105961808D01*
X152471068Y-106211101D01*
X152650392Y-106429608D01*
X152868899Y-106608932D01*
X153001858Y-106680000D01*
X152868899Y-106751068D01*
X152650392Y-106930392D01*
X152471068Y-107148899D01*
X152337818Y-107398192D01*
X152255764Y-107668691D01*
X152228057Y-107950000D01*
X152255764Y-108231309D01*
X152337818Y-108501808D01*
X152471068Y-108751101D01*
X152650392Y-108969608D01*
X152868899Y-109148932D01*
X153001858Y-109220000D01*
X152868899Y-109291068D01*
X152650392Y-109470392D01*
X152471068Y-109688899D01*
X152337818Y-109938192D01*
X152255764Y-110208691D01*
X152228057Y-110490000D01*
X152255764Y-110771309D01*
X152337818Y-111041808D01*
X152471068Y-111291101D01*
X152650392Y-111509608D01*
X152868899Y-111688932D01*
X153001858Y-111760000D01*
X152868899Y-111831068D01*
X152650392Y-112010392D01*
X152471068Y-112228899D01*
X152337818Y-112478192D01*
X152255764Y-112748691D01*
X152228057Y-113030000D01*
X152255764Y-113311309D01*
X152337818Y-113581808D01*
X152471068Y-113831101D01*
X152650392Y-114049608D01*
X152868899Y-114228932D01*
X153001858Y-114300000D01*
X152868899Y-114371068D01*
X152650392Y-114550392D01*
X152471068Y-114768899D01*
X152337818Y-115018192D01*
X152255764Y-115288691D01*
X152228057Y-115570000D01*
X152255764Y-115851309D01*
X152337818Y-116121808D01*
X152471068Y-116371101D01*
X152650392Y-116589608D01*
X152868899Y-116768932D01*
X153001858Y-116840000D01*
X152868899Y-116911068D01*
X152650392Y-117090392D01*
X152471068Y-117308899D01*
X152337818Y-117558192D01*
X152255764Y-117828691D01*
X152228057Y-118110000D01*
X152255764Y-118391309D01*
X152337818Y-118661808D01*
X152471068Y-118911101D01*
X152650392Y-119129608D01*
X152868899Y-119308932D01*
X153001858Y-119380000D01*
X152868899Y-119451068D01*
X152650392Y-119630392D01*
X152471068Y-119848899D01*
X152337818Y-120098192D01*
X152255764Y-120368691D01*
X152228057Y-120650000D01*
X152255764Y-120931309D01*
X152337818Y-121201808D01*
X152471068Y-121451101D01*
X152650392Y-121669608D01*
X152868899Y-121848932D01*
X153001858Y-121920000D01*
X152868899Y-121991068D01*
X152650392Y-122170392D01*
X152471068Y-122388899D01*
X152337818Y-122638192D01*
X152255764Y-122908691D01*
X152228057Y-123190000D01*
X152255764Y-123471309D01*
X152337818Y-123741808D01*
X152471068Y-123991101D01*
X152650392Y-124209608D01*
X152868899Y-124388932D01*
X153001858Y-124460000D01*
X152868899Y-124531068D01*
X152650392Y-124710392D01*
X152471068Y-124928899D01*
X152337818Y-125178192D01*
X152255764Y-125448691D01*
X152228057Y-125730000D01*
X152255764Y-126011309D01*
X152337818Y-126281808D01*
X152471068Y-126531101D01*
X152650392Y-126749608D01*
X152868899Y-126928932D01*
X153001858Y-127000000D01*
X152868899Y-127071068D01*
X152650392Y-127250392D01*
X152471068Y-127468899D01*
X152337818Y-127718192D01*
X152255764Y-127988691D01*
X152228057Y-128270000D01*
X152255764Y-128551309D01*
X152337818Y-128821808D01*
X152471068Y-129071101D01*
X152650392Y-129289608D01*
X152868899Y-129468932D01*
X153001858Y-129540000D01*
X152868899Y-129611068D01*
X152650392Y-129790392D01*
X152471068Y-130008899D01*
X152337818Y-130258192D01*
X152255764Y-130528691D01*
X152228057Y-130810000D01*
X152255764Y-131091309D01*
X152337818Y-131361808D01*
X152471068Y-131611101D01*
X152650392Y-131829608D01*
X152868899Y-132008932D01*
X153001858Y-132080000D01*
X152868899Y-132151068D01*
X152650392Y-132330392D01*
X152471068Y-132548899D01*
X152337818Y-132798192D01*
X152255764Y-133068691D01*
X152228057Y-133350000D01*
X152255764Y-133631309D01*
X152337818Y-133901808D01*
X152471068Y-134151101D01*
X152650392Y-134369608D01*
X152868899Y-134548932D01*
X153001858Y-134620000D01*
X152868899Y-134691068D01*
X152650392Y-134870392D01*
X152471068Y-135088899D01*
X152337818Y-135338192D01*
X152255764Y-135608691D01*
X152228057Y-135890000D01*
X152255764Y-136171309D01*
X152337818Y-136441808D01*
X152471068Y-136691101D01*
X152650392Y-136909608D01*
X152868899Y-137088932D01*
X153118192Y-137222182D01*
X153388691Y-137304236D01*
X153599508Y-137325000D01*
X153740492Y-137325000D01*
X153951309Y-137304236D01*
X154221808Y-137222182D01*
X154471101Y-137088932D01*
X154689608Y-136909608D01*
X154868932Y-136691101D01*
X155002182Y-136441808D01*
X155084236Y-136171309D01*
X155111943Y-135890000D01*
X155084236Y-135608691D01*
X155002182Y-135338192D01*
X154868932Y-135088899D01*
X154689608Y-134870392D01*
X154471101Y-134691068D01*
X154338142Y-134620000D01*
X154471101Y-134548932D01*
X154689608Y-134369608D01*
X154868932Y-134151101D01*
X155002182Y-133901808D01*
X155084236Y-133631309D01*
X155111943Y-133350000D01*
X155084236Y-133068691D01*
X155002182Y-132798192D01*
X154868932Y-132548899D01*
X154689608Y-132330392D01*
X154471101Y-132151068D01*
X154338142Y-132080000D01*
X154471101Y-132008932D01*
X154689608Y-131829608D01*
X154868932Y-131611101D01*
X155002182Y-131361808D01*
X155084236Y-131091309D01*
X155111943Y-130810000D01*
X155084236Y-130528691D01*
X155002182Y-130258192D01*
X154868932Y-130008899D01*
X154689608Y-129790392D01*
X154471101Y-129611068D01*
X154338142Y-129540000D01*
X154471101Y-129468932D01*
X154689608Y-129289608D01*
X154868932Y-129071101D01*
X155002182Y-128821808D01*
X155084236Y-128551309D01*
X155111943Y-128270000D01*
X155084236Y-127988691D01*
X155064586Y-127923911D01*
X163911000Y-127923911D01*
X163911000Y-128108089D01*
X163946932Y-128288729D01*
X164017414Y-128458889D01*
X164086000Y-128561535D01*
X164086001Y-140551657D01*
X164082323Y-140589000D01*
X164096997Y-140737986D01*
X164140454Y-140881247D01*
X164211026Y-141013276D01*
X164305999Y-141129001D01*
X164421724Y-141223974D01*
X164553753Y-141294546D01*
X164697014Y-141338003D01*
X164808667Y-141349000D01*
X164846000Y-141352677D01*
X164883333Y-141349000D01*
X182461667Y-141349000D01*
X182499000Y-141352677D01*
X182536333Y-141349000D01*
X182647986Y-141338003D01*
X182791247Y-141294546D01*
X182923276Y-141223974D01*
X183039001Y-141129001D01*
X183133974Y-141013276D01*
X183204546Y-140881247D01*
X183248003Y-140737986D01*
X183262677Y-140589000D01*
X183259000Y-140551667D01*
X183259000Y-106971333D01*
X183262677Y-106934000D01*
X183248003Y-106785014D01*
X183204546Y-106641753D01*
X183133974Y-106509724D01*
X183039001Y-106393999D01*
X182923276Y-106299026D01*
X182791247Y-106228454D01*
X182647986Y-106184997D01*
X182536333Y-106174000D01*
X182499000Y-106170323D01*
X182461667Y-106174000D01*
X175955803Y-106174000D01*
X175040153Y-105258351D01*
X175016068Y-105137271D01*
X174945586Y-104967111D01*
X174843262Y-104813972D01*
X174713028Y-104683738D01*
X174559889Y-104581414D01*
X174389729Y-104510932D01*
X174209089Y-104475000D01*
X174024911Y-104475000D01*
X173844271Y-104510932D01*
X173674111Y-104581414D01*
X173520972Y-104683738D01*
X173390738Y-104813972D01*
X173288414Y-104967111D01*
X173217932Y-105137271D01*
X173182000Y-105317911D01*
X173182000Y-105502089D01*
X173217932Y-105682729D01*
X173288414Y-105852889D01*
X173390738Y-106006028D01*
X173520972Y-106136262D01*
X173674111Y-106238586D01*
X173844271Y-106309068D01*
X173965351Y-106333153D01*
X175077205Y-107445008D01*
X175100999Y-107474001D01*
X175129992Y-107497795D01*
X175129996Y-107497799D01*
X175200685Y-107555811D01*
X175216724Y-107568974D01*
X175348753Y-107639546D01*
X175492014Y-107683003D01*
X175603667Y-107694000D01*
X175603676Y-107694000D01*
X175640999Y-107697676D01*
X175678322Y-107694000D01*
X181739001Y-107694000D01*
X181739000Y-139829000D01*
X165606000Y-139829000D01*
X165606000Y-128561535D01*
X165674586Y-128458889D01*
X165745068Y-128288729D01*
X165748793Y-128270000D01*
X167468057Y-128270000D01*
X167495764Y-128551309D01*
X167577818Y-128821808D01*
X167711068Y-129071101D01*
X167890392Y-129289608D01*
X168108899Y-129468932D01*
X168241858Y-129540000D01*
X168108899Y-129611068D01*
X167890392Y-129790392D01*
X167711068Y-130008899D01*
X167577818Y-130258192D01*
X167495764Y-130528691D01*
X167468057Y-130810000D01*
X167495764Y-131091309D01*
X167577818Y-131361808D01*
X167711068Y-131611101D01*
X167890392Y-131829608D01*
X168108899Y-132008932D01*
X168241858Y-132080000D01*
X168108899Y-132151068D01*
X167890392Y-132330392D01*
X167711068Y-132548899D01*
X167577818Y-132798192D01*
X167495764Y-133068691D01*
X167468057Y-133350000D01*
X167495764Y-133631309D01*
X167577818Y-133901808D01*
X167711068Y-134151101D01*
X167890392Y-134369608D01*
X168108899Y-134548932D01*
X168241858Y-134620000D01*
X168108899Y-134691068D01*
X167890392Y-134870392D01*
X167711068Y-135088899D01*
X167577818Y-135338192D01*
X167495764Y-135608691D01*
X167468057Y-135890000D01*
X167495764Y-136171309D01*
X167577818Y-136441808D01*
X167711068Y-136691101D01*
X167890392Y-136909608D01*
X168108899Y-137088932D01*
X168358192Y-137222182D01*
X168628691Y-137304236D01*
X168839508Y-137325000D01*
X168980492Y-137325000D01*
X169191309Y-137304236D01*
X169461808Y-137222182D01*
X169711101Y-137088932D01*
X169929608Y-136909608D01*
X170108932Y-136691101D01*
X170242182Y-136441808D01*
X170324236Y-136171309D01*
X170351943Y-135890000D01*
X170324236Y-135608691D01*
X170242182Y-135338192D01*
X170108932Y-135088899D01*
X169929608Y-134870392D01*
X169711101Y-134691068D01*
X169578142Y-134620000D01*
X169711101Y-134548932D01*
X169929608Y-134369608D01*
X170108932Y-134151101D01*
X170242182Y-133901808D01*
X170324236Y-133631309D01*
X170351943Y-133350000D01*
X170324236Y-133068691D01*
X170242182Y-132798192D01*
X170108932Y-132548899D01*
X169929608Y-132330392D01*
X169711101Y-132151068D01*
X169578142Y-132080000D01*
X169711101Y-132008932D01*
X169929608Y-131829608D01*
X170108932Y-131611101D01*
X170242182Y-131361808D01*
X170324236Y-131091309D01*
X170351943Y-130810000D01*
X170324236Y-130528691D01*
X170242182Y-130258192D01*
X170108932Y-130008899D01*
X169929608Y-129790392D01*
X169711101Y-129611068D01*
X169578142Y-129540000D01*
X169711101Y-129468932D01*
X169929608Y-129289608D01*
X170108932Y-129071101D01*
X170242182Y-128821808D01*
X170324236Y-128551309D01*
X170351943Y-128270000D01*
X170324236Y-127988691D01*
X170242182Y-127718192D01*
X170108932Y-127468899D01*
X169929608Y-127250392D01*
X169711101Y-127071068D01*
X169573318Y-126997421D01*
X169765131Y-126882385D01*
X169973519Y-126693414D01*
X170141037Y-126467420D01*
X170261246Y-126213087D01*
X170301904Y-126079039D01*
X170179915Y-125857000D01*
X169037000Y-125857000D01*
X169037000Y-125877000D01*
X168783000Y-125877000D01*
X168783000Y-125857000D01*
X167640085Y-125857000D01*
X167518096Y-126079039D01*
X167558754Y-126213087D01*
X167678963Y-126467420D01*
X167846481Y-126693414D01*
X168054869Y-126882385D01*
X168246682Y-126997421D01*
X168108899Y-127071068D01*
X167890392Y-127250392D01*
X167711068Y-127468899D01*
X167577818Y-127718192D01*
X167495764Y-127988691D01*
X167468057Y-128270000D01*
X165748793Y-128270000D01*
X165781000Y-128108089D01*
X165781000Y-127923911D01*
X165745068Y-127743271D01*
X165674586Y-127573111D01*
X165572262Y-127419972D01*
X165442028Y-127289738D01*
X165288889Y-127187414D01*
X165118729Y-127116932D01*
X164938089Y-127081000D01*
X164753911Y-127081000D01*
X164573271Y-127116932D01*
X164403111Y-127187414D01*
X164249972Y-127289738D01*
X164119738Y-127419972D01*
X164017414Y-127573111D01*
X163946932Y-127743271D01*
X163911000Y-127923911D01*
X155064586Y-127923911D01*
X155002182Y-127718192D01*
X154868932Y-127468899D01*
X154689608Y-127250392D01*
X154471101Y-127071068D01*
X154338142Y-127000000D01*
X154471101Y-126928932D01*
X154689608Y-126749608D01*
X154868932Y-126531101D01*
X155002182Y-126281808D01*
X155084236Y-126011309D01*
X155111943Y-125730000D01*
X155084236Y-125448691D01*
X155002182Y-125178192D01*
X154868932Y-124928899D01*
X154689608Y-124710392D01*
X154471101Y-124531068D01*
X154338142Y-124460000D01*
X154471101Y-124388932D01*
X154689608Y-124209608D01*
X154868932Y-123991101D01*
X155002182Y-123741808D01*
X155084236Y-123471309D01*
X155111943Y-123190000D01*
X155084236Y-122908691D01*
X155002182Y-122638192D01*
X154868932Y-122388899D01*
X154689608Y-122170392D01*
X154471101Y-121991068D01*
X154338142Y-121920000D01*
X154471101Y-121848932D01*
X154689608Y-121669608D01*
X154868932Y-121451101D01*
X155002182Y-121201808D01*
X155084236Y-120931309D01*
X155111943Y-120650000D01*
X155084236Y-120368691D01*
X155002182Y-120098192D01*
X154868932Y-119848899D01*
X154689608Y-119630392D01*
X154471101Y-119451068D01*
X154338142Y-119380000D01*
X154471101Y-119308932D01*
X154689608Y-119129608D01*
X154868932Y-118911101D01*
X155002182Y-118661808D01*
X155084236Y-118391309D01*
X155111943Y-118110000D01*
X155084236Y-117828691D01*
X155002182Y-117558192D01*
X154868932Y-117308899D01*
X154689608Y-117090392D01*
X154471101Y-116911068D01*
X154338142Y-116840000D01*
X154471101Y-116768932D01*
X154689608Y-116589608D01*
X154868932Y-116371101D01*
X155002182Y-116121808D01*
X155084236Y-115851309D01*
X155111943Y-115570000D01*
X155084236Y-115288691D01*
X155002182Y-115018192D01*
X154868932Y-114768899D01*
X154689608Y-114550392D01*
X154471101Y-114371068D01*
X154338142Y-114300000D01*
X154471101Y-114228932D01*
X154689608Y-114049608D01*
X154868932Y-113831101D01*
X155002182Y-113581808D01*
X155084236Y-113311309D01*
X155111943Y-113030000D01*
X155084236Y-112748691D01*
X155002182Y-112478192D01*
X154868932Y-112228899D01*
X154689608Y-112010392D01*
X154471101Y-111831068D01*
X154338142Y-111760000D01*
X154471101Y-111688932D01*
X154689608Y-111509608D01*
X154868932Y-111291101D01*
X155002182Y-111041808D01*
X155084236Y-110771309D01*
X155111943Y-110490000D01*
X155084236Y-110208691D01*
X155002182Y-109938192D01*
X154868932Y-109688899D01*
X154689608Y-109470392D01*
X154471101Y-109291068D01*
X154338142Y-109220000D01*
X154471101Y-109148932D01*
X154689608Y-108969608D01*
X154868932Y-108751101D01*
X155002182Y-108501808D01*
X155084236Y-108231309D01*
X155111943Y-107950000D01*
X155084236Y-107668691D01*
X155002182Y-107398192D01*
X154868932Y-107148899D01*
X154689608Y-106930392D01*
X154471101Y-106751068D01*
X154338142Y-106680000D01*
X154471101Y-106608932D01*
X154689608Y-106429608D01*
X154868932Y-106211101D01*
X155002182Y-105961808D01*
X155084236Y-105691309D01*
X155111943Y-105410000D01*
X155084236Y-105128691D01*
X155002182Y-104858192D01*
X154868932Y-104608899D01*
X154689608Y-104390392D01*
X154471101Y-104211068D01*
X154338142Y-104140000D01*
X154471101Y-104068932D01*
X154689608Y-103889608D01*
X154868932Y-103671101D01*
X155002182Y-103421808D01*
X155084236Y-103151309D01*
X155111943Y-102870000D01*
X167468057Y-102870000D01*
X167495764Y-103151309D01*
X167577818Y-103421808D01*
X167711068Y-103671101D01*
X167890392Y-103889608D01*
X168108899Y-104068932D01*
X168241858Y-104140000D01*
X168108899Y-104211068D01*
X167890392Y-104390392D01*
X167711068Y-104608899D01*
X167577818Y-104858192D01*
X167495764Y-105128691D01*
X167468057Y-105410000D01*
X167495764Y-105691309D01*
X167577818Y-105961808D01*
X167711068Y-106211101D01*
X167890392Y-106429608D01*
X168108899Y-106608932D01*
X168241858Y-106680000D01*
X168108899Y-106751068D01*
X167890392Y-106930392D01*
X167711068Y-107148899D01*
X167577818Y-107398192D01*
X167495764Y-107668691D01*
X167468057Y-107950000D01*
X167495764Y-108231309D01*
X167577818Y-108501808D01*
X167711068Y-108751101D01*
X167890392Y-108969608D01*
X168108899Y-109148932D01*
X168241858Y-109220000D01*
X168108899Y-109291068D01*
X167890392Y-109470392D01*
X167711068Y-109688899D01*
X167577818Y-109938192D01*
X167495764Y-110208691D01*
X167468057Y-110490000D01*
X167495764Y-110771309D01*
X167577818Y-111041808D01*
X167711068Y-111291101D01*
X167890392Y-111509608D01*
X168108899Y-111688932D01*
X168241858Y-111760000D01*
X168108899Y-111831068D01*
X167890392Y-112010392D01*
X167711068Y-112228899D01*
X167577818Y-112478192D01*
X167495764Y-112748691D01*
X167468057Y-113030000D01*
X167495764Y-113311309D01*
X167577818Y-113581808D01*
X167711068Y-113831101D01*
X167890392Y-114049608D01*
X168108899Y-114228932D01*
X168241858Y-114300000D01*
X168108899Y-114371068D01*
X167890392Y-114550392D01*
X167711068Y-114768899D01*
X167577818Y-115018192D01*
X167495764Y-115288691D01*
X167468057Y-115570000D01*
X167495764Y-115851309D01*
X167577818Y-116121808D01*
X167711068Y-116371101D01*
X167890392Y-116589608D01*
X168108899Y-116768932D01*
X168241858Y-116840000D01*
X168108899Y-116911068D01*
X167890392Y-117090392D01*
X167711068Y-117308899D01*
X167577818Y-117558192D01*
X167495764Y-117828691D01*
X167468057Y-118110000D01*
X167495764Y-118391309D01*
X167577818Y-118661808D01*
X167711068Y-118911101D01*
X167890392Y-119129608D01*
X168108899Y-119308932D01*
X168241858Y-119380000D01*
X168108899Y-119451068D01*
X167890392Y-119630392D01*
X167711068Y-119848899D01*
X167577818Y-120098192D01*
X167495764Y-120368691D01*
X167468057Y-120650000D01*
X167495764Y-120931309D01*
X167577818Y-121201808D01*
X167711068Y-121451101D01*
X167890392Y-121669608D01*
X168108899Y-121848932D01*
X168241858Y-121920000D01*
X168108899Y-121991068D01*
X167890392Y-122170392D01*
X167711068Y-122388899D01*
X167577818Y-122638192D01*
X167495764Y-122908691D01*
X167468057Y-123190000D01*
X167495764Y-123471309D01*
X167577818Y-123741808D01*
X167711068Y-123991101D01*
X167890392Y-124209608D01*
X168108899Y-124388932D01*
X168246682Y-124462579D01*
X168054869Y-124577615D01*
X167846481Y-124766586D01*
X167678963Y-124992580D01*
X167558754Y-125246913D01*
X167518096Y-125380961D01*
X167640085Y-125603000D01*
X168783000Y-125603000D01*
X168783000Y-125583000D01*
X169037000Y-125583000D01*
X169037000Y-125603000D01*
X170179915Y-125603000D01*
X170301904Y-125380961D01*
X170261246Y-125246913D01*
X170141037Y-124992580D01*
X169973519Y-124766586D01*
X169765131Y-124577615D01*
X169573318Y-124462579D01*
X169711101Y-124388932D01*
X169929608Y-124209608D01*
X170108932Y-123991101D01*
X170242182Y-123741808D01*
X170324236Y-123471309D01*
X170351943Y-123190000D01*
X170324236Y-122908691D01*
X170242182Y-122638192D01*
X170108932Y-122388899D01*
X169929608Y-122170392D01*
X169711101Y-121991068D01*
X169578142Y-121920000D01*
X169711101Y-121848932D01*
X169929608Y-121669608D01*
X170108932Y-121451101D01*
X170242182Y-121201808D01*
X170324236Y-120931309D01*
X170351943Y-120650000D01*
X170324236Y-120368691D01*
X170242182Y-120098192D01*
X170108932Y-119848899D01*
X169929608Y-119630392D01*
X169711101Y-119451068D01*
X169578142Y-119380000D01*
X169711101Y-119308932D01*
X169929608Y-119129608D01*
X170108932Y-118911101D01*
X170242182Y-118661808D01*
X170324236Y-118391309D01*
X170351943Y-118110000D01*
X170324236Y-117828691D01*
X170242182Y-117558192D01*
X170108932Y-117308899D01*
X169929608Y-117090392D01*
X169711101Y-116911068D01*
X169578142Y-116840000D01*
X169711101Y-116768932D01*
X169929608Y-116589608D01*
X170108932Y-116371101D01*
X170242182Y-116121808D01*
X170324236Y-115851309D01*
X170351943Y-115570000D01*
X170324236Y-115288691D01*
X170242182Y-115018192D01*
X170108932Y-114768899D01*
X169929608Y-114550392D01*
X169711101Y-114371068D01*
X169578142Y-114300000D01*
X169711101Y-114228932D01*
X169929608Y-114049608D01*
X170108932Y-113831101D01*
X170242182Y-113581808D01*
X170324236Y-113311309D01*
X170351943Y-113030000D01*
X170324236Y-112748691D01*
X170242182Y-112478192D01*
X170108932Y-112228899D01*
X169929608Y-112010392D01*
X169711101Y-111831068D01*
X169578142Y-111760000D01*
X169711101Y-111688932D01*
X169929608Y-111509608D01*
X170108932Y-111291101D01*
X170242182Y-111041808D01*
X170324236Y-110771309D01*
X170351943Y-110490000D01*
X170324236Y-110208691D01*
X170242182Y-109938192D01*
X170108932Y-109688899D01*
X169929608Y-109470392D01*
X169711101Y-109291068D01*
X169578142Y-109220000D01*
X169711101Y-109148932D01*
X169929608Y-108969608D01*
X170108932Y-108751101D01*
X170242182Y-108501808D01*
X170324236Y-108231309D01*
X170351943Y-107950000D01*
X170324236Y-107668691D01*
X170242182Y-107398192D01*
X170108932Y-107148899D01*
X169929608Y-106930392D01*
X169711101Y-106751068D01*
X169578142Y-106680000D01*
X169711101Y-106608932D01*
X169929608Y-106429608D01*
X170108932Y-106211101D01*
X170242182Y-105961808D01*
X170324236Y-105691309D01*
X170351943Y-105410000D01*
X170324236Y-105128691D01*
X170242182Y-104858192D01*
X170108932Y-104608899D01*
X169929608Y-104390392D01*
X169711101Y-104211068D01*
X169578142Y-104140000D01*
X169711101Y-104068932D01*
X169929608Y-103889608D01*
X170108932Y-103671101D01*
X170242182Y-103421808D01*
X170324236Y-103151309D01*
X170351943Y-102870000D01*
X170324236Y-102588691D01*
X170242182Y-102318192D01*
X170108932Y-102068899D01*
X169929608Y-101850392D01*
X169711101Y-101671068D01*
X169461808Y-101537818D01*
X169191309Y-101455764D01*
X168980492Y-101435000D01*
X168839508Y-101435000D01*
X168628691Y-101455764D01*
X168358192Y-101537818D01*
X168108899Y-101671068D01*
X167890392Y-101850392D01*
X167711068Y-102068899D01*
X167577818Y-102318192D01*
X167495764Y-102588691D01*
X167468057Y-102870000D01*
X155111943Y-102870000D01*
X155084236Y-102588691D01*
X155002182Y-102318192D01*
X154868932Y-102068899D01*
X154689608Y-101850392D01*
X154471101Y-101671068D01*
X154221808Y-101537818D01*
X153951309Y-101455764D01*
X153740492Y-101435000D01*
X153599508Y-101435000D01*
X153388691Y-101455764D01*
X153118192Y-101537818D01*
X152868899Y-101671068D01*
X152650392Y-101850392D01*
X152471068Y-102068899D01*
X152337818Y-102318192D01*
X152255764Y-102588691D01*
X152228057Y-102870000D01*
X87422951Y-102870000D01*
X87234452Y-78647911D01*
X118241768Y-78647911D01*
X118241768Y-78832089D01*
X118277700Y-79012729D01*
X118348182Y-79182889D01*
X118416768Y-79285535D01*
X118416769Y-89838438D01*
X118413092Y-89875770D01*
X118427766Y-90024755D01*
X118471222Y-90168016D01*
X118541794Y-90300046D01*
X118612969Y-90386772D01*
X118636768Y-90415771D01*
X118665766Y-90439569D01*
X121193199Y-92967003D01*
X121216997Y-92996001D01*
X121332722Y-93090974D01*
X121464751Y-93161546D01*
X121608012Y-93205003D01*
X121719665Y-93216000D01*
X121719674Y-93216000D01*
X121756997Y-93219676D01*
X121794320Y-93216000D01*
X122390465Y-93216000D01*
X122493111Y-93284586D01*
X122663271Y-93355068D01*
X122843911Y-93391000D01*
X123028089Y-93391000D01*
X123208729Y-93355068D01*
X123378889Y-93284586D01*
X123532028Y-93182262D01*
X123662262Y-93052028D01*
X123764586Y-92898889D01*
X123835068Y-92728729D01*
X123871000Y-92548089D01*
X123871000Y-92363911D01*
X123835068Y-92183271D01*
X123764586Y-92013111D01*
X123662262Y-91859972D01*
X123532028Y-91729738D01*
X123378889Y-91627414D01*
X123208729Y-91556932D01*
X123028089Y-91521000D01*
X122843911Y-91521000D01*
X122663271Y-91556932D01*
X122493111Y-91627414D01*
X122390465Y-91696000D01*
X122071800Y-91696000D01*
X119936768Y-89560969D01*
X119936768Y-84997911D01*
X124287000Y-84997911D01*
X124287000Y-85182089D01*
X124322932Y-85362729D01*
X124393414Y-85532889D01*
X124495738Y-85686028D01*
X124625972Y-85816262D01*
X124779111Y-85918586D01*
X124949271Y-85989068D01*
X125129911Y-86025000D01*
X125314089Y-86025000D01*
X125494729Y-85989068D01*
X125664889Y-85918586D01*
X125818028Y-85816262D01*
X125948262Y-85686028D01*
X126050586Y-85532889D01*
X126121068Y-85362729D01*
X126145153Y-85241649D01*
X127511003Y-83875799D01*
X127540001Y-83852001D01*
X127634974Y-83736276D01*
X127705546Y-83604247D01*
X127749003Y-83460986D01*
X127760000Y-83349333D01*
X127760000Y-83349325D01*
X127763676Y-83312000D01*
X127760000Y-83274675D01*
X127760000Y-78484000D01*
X127775233Y-78484000D01*
X127877879Y-78552586D01*
X128048039Y-78623068D01*
X128228679Y-78659000D01*
X128412857Y-78659000D01*
X128593497Y-78623068D01*
X128763657Y-78552586D01*
X128916796Y-78450262D01*
X129047030Y-78320028D01*
X129149354Y-78166889D01*
X129219836Y-77996729D01*
X129255768Y-77816089D01*
X129255768Y-77631911D01*
X129219836Y-77451271D01*
X129149354Y-77281111D01*
X129047030Y-77127972D01*
X128916796Y-76997738D01*
X128763657Y-76895414D01*
X128593497Y-76824932D01*
X128412857Y-76789000D01*
X128228679Y-76789000D01*
X128048039Y-76824932D01*
X127877879Y-76895414D01*
X127775233Y-76964000D01*
X127037333Y-76964000D01*
X127000000Y-76960323D01*
X126962667Y-76964000D01*
X126851014Y-76974997D01*
X126707753Y-77018454D01*
X126575724Y-77089026D01*
X126459999Y-77183999D01*
X126365026Y-77299724D01*
X126294454Y-77431753D01*
X126250997Y-77575014D01*
X126236323Y-77724000D01*
X126240000Y-77761333D01*
X126240001Y-82997197D01*
X125070351Y-84166847D01*
X124949271Y-84190932D01*
X124779111Y-84261414D01*
X124625972Y-84363738D01*
X124495738Y-84493972D01*
X124393414Y-84647111D01*
X124322932Y-84817271D01*
X124287000Y-84997911D01*
X119936768Y-84997911D01*
X119936768Y-79285535D01*
X120005354Y-79182889D01*
X120075836Y-79012729D01*
X120111768Y-78832089D01*
X120111768Y-78647911D01*
X120075836Y-78467271D01*
X120005354Y-78297111D01*
X119903030Y-78143972D01*
X119772796Y-78013738D01*
X119619657Y-77911414D01*
X119449497Y-77840932D01*
X119268857Y-77805000D01*
X119084679Y-77805000D01*
X118904039Y-77840932D01*
X118733879Y-77911414D01*
X118580740Y-78013738D01*
X118450506Y-78143972D01*
X118348182Y-78297111D01*
X118277700Y-78467271D01*
X118241768Y-78647911D01*
X87234452Y-78647911D01*
X87161082Y-69220000D01*
X91441928Y-69220000D01*
X91441928Y-70480000D01*
X91454188Y-70604482D01*
X91490498Y-70724180D01*
X91549463Y-70834494D01*
X91628815Y-70931185D01*
X91725506Y-71010537D01*
X91835820Y-71069502D01*
X91955518Y-71105812D01*
X92080000Y-71118072D01*
X93340000Y-71118072D01*
X93464482Y-71105812D01*
X93584180Y-71069502D01*
X93694494Y-71010537D01*
X93791185Y-70931185D01*
X93870537Y-70834494D01*
X93929502Y-70724180D01*
X93965812Y-70604482D01*
X93978072Y-70480000D01*
X93978072Y-69725408D01*
X93985000Y-69725408D01*
X93985000Y-69974592D01*
X94033613Y-70218987D01*
X94128971Y-70449202D01*
X94267410Y-70656391D01*
X94443609Y-70832590D01*
X94650798Y-70971029D01*
X94881013Y-71066387D01*
X95125408Y-71115000D01*
X95374592Y-71115000D01*
X95618987Y-71066387D01*
X95849202Y-70971029D01*
X96056391Y-70832590D01*
X96232590Y-70656391D01*
X96371029Y-70449202D01*
X96466387Y-70218987D01*
X96515000Y-69974592D01*
X96515000Y-69725408D01*
X96525000Y-69725408D01*
X96525000Y-69974592D01*
X96573613Y-70218987D01*
X96668971Y-70449202D01*
X96807410Y-70656391D01*
X96983609Y-70832590D01*
X97190798Y-70971029D01*
X97421013Y-71066387D01*
X97665408Y-71115000D01*
X97914592Y-71115000D01*
X98158987Y-71066387D01*
X98389202Y-70971029D01*
X98596391Y-70832590D01*
X98772590Y-70656391D01*
X98911029Y-70449202D01*
X99006387Y-70218987D01*
X99055000Y-69974592D01*
X99055000Y-69725408D01*
X99006387Y-69481013D01*
X98911029Y-69250798D01*
X98890451Y-69220000D01*
X101601928Y-69220000D01*
X101601928Y-70480000D01*
X101614188Y-70604482D01*
X101650498Y-70724180D01*
X101709463Y-70834494D01*
X101788815Y-70931185D01*
X101885506Y-71010537D01*
X101995820Y-71069502D01*
X102115518Y-71105812D01*
X102240000Y-71118072D01*
X103500000Y-71118072D01*
X103624482Y-71105812D01*
X103744180Y-71069502D01*
X103854494Y-71010537D01*
X103951185Y-70931185D01*
X104030537Y-70834494D01*
X104089502Y-70724180D01*
X104125812Y-70604482D01*
X104138072Y-70480000D01*
X104138072Y-69725408D01*
X104145000Y-69725408D01*
X104145000Y-69974592D01*
X104193613Y-70218987D01*
X104288971Y-70449202D01*
X104427410Y-70656391D01*
X104603609Y-70832590D01*
X104810798Y-70971029D01*
X105041013Y-71066387D01*
X105285408Y-71115000D01*
X105534592Y-71115000D01*
X105778987Y-71066387D01*
X106009202Y-70971029D01*
X106216391Y-70832590D01*
X106392590Y-70656391D01*
X106531029Y-70449202D01*
X106626387Y-70218987D01*
X106675000Y-69974592D01*
X106675000Y-69725408D01*
X106685000Y-69725408D01*
X106685000Y-69974592D01*
X106733613Y-70218987D01*
X106828971Y-70449202D01*
X106967410Y-70656391D01*
X107143609Y-70832590D01*
X107350798Y-70971029D01*
X107581013Y-71066387D01*
X107825408Y-71115000D01*
X108074592Y-71115000D01*
X108318987Y-71066387D01*
X108549202Y-70971029D01*
X108756391Y-70832590D01*
X108932590Y-70656391D01*
X109071029Y-70449202D01*
X109166387Y-70218987D01*
X109215000Y-69974592D01*
X109215000Y-69725408D01*
X109166387Y-69481013D01*
X109071029Y-69250798D01*
X109050451Y-69220000D01*
X111761928Y-69220000D01*
X111761928Y-70480000D01*
X111774188Y-70604482D01*
X111810498Y-70724180D01*
X111869463Y-70834494D01*
X111948815Y-70931185D01*
X112045506Y-71010537D01*
X112155820Y-71069502D01*
X112275518Y-71105812D01*
X112400000Y-71118072D01*
X113660000Y-71118072D01*
X113784482Y-71105812D01*
X113904180Y-71069502D01*
X114014494Y-71010537D01*
X114111185Y-70931185D01*
X114190537Y-70834494D01*
X114249502Y-70724180D01*
X114285812Y-70604482D01*
X114298072Y-70480000D01*
X114298072Y-69725408D01*
X114305000Y-69725408D01*
X114305000Y-69974592D01*
X114353613Y-70218987D01*
X114448971Y-70449202D01*
X114587410Y-70656391D01*
X114763609Y-70832590D01*
X114970798Y-70971029D01*
X115201013Y-71066387D01*
X115445408Y-71115000D01*
X115694592Y-71115000D01*
X115938987Y-71066387D01*
X116169202Y-70971029D01*
X116376391Y-70832590D01*
X116552590Y-70656391D01*
X116691029Y-70449202D01*
X116786387Y-70218987D01*
X116835000Y-69974592D01*
X116835000Y-69725408D01*
X116845000Y-69725408D01*
X116845000Y-69974592D01*
X116893613Y-70218987D01*
X116988971Y-70449202D01*
X117127410Y-70656391D01*
X117303609Y-70832590D01*
X117510798Y-70971029D01*
X117741013Y-71066387D01*
X117985408Y-71115000D01*
X118234592Y-71115000D01*
X118478987Y-71066387D01*
X118709202Y-70971029D01*
X118916391Y-70832590D01*
X119092590Y-70656391D01*
X119231029Y-70449202D01*
X119326387Y-70218987D01*
X119375000Y-69974592D01*
X119375000Y-69725408D01*
X119326387Y-69481013D01*
X119231029Y-69250798D01*
X119210451Y-69220000D01*
X121921928Y-69220000D01*
X121921928Y-70480000D01*
X121934188Y-70604482D01*
X121970498Y-70724180D01*
X122029463Y-70834494D01*
X122108815Y-70931185D01*
X122205506Y-71010537D01*
X122315820Y-71069502D01*
X122435518Y-71105812D01*
X122560000Y-71118072D01*
X123820000Y-71118072D01*
X123944482Y-71105812D01*
X124064180Y-71069502D01*
X124174494Y-71010537D01*
X124271185Y-70931185D01*
X124350537Y-70834494D01*
X124409502Y-70724180D01*
X124445812Y-70604482D01*
X124458072Y-70480000D01*
X124458072Y-69725408D01*
X124465000Y-69725408D01*
X124465000Y-69974592D01*
X124513613Y-70218987D01*
X124608971Y-70449202D01*
X124747410Y-70656391D01*
X124923609Y-70832590D01*
X125130798Y-70971029D01*
X125361013Y-71066387D01*
X125605408Y-71115000D01*
X125854592Y-71115000D01*
X126098987Y-71066387D01*
X126329202Y-70971029D01*
X126536391Y-70832590D01*
X126712590Y-70656391D01*
X126851029Y-70449202D01*
X126946387Y-70218987D01*
X126995000Y-69974592D01*
X126995000Y-69725408D01*
X127005000Y-69725408D01*
X127005000Y-69974592D01*
X127053613Y-70218987D01*
X127148971Y-70449202D01*
X127287410Y-70656391D01*
X127463609Y-70832590D01*
X127670798Y-70971029D01*
X127901013Y-71066387D01*
X128145408Y-71115000D01*
X128394592Y-71115000D01*
X128638987Y-71066387D01*
X128869202Y-70971029D01*
X129076391Y-70832590D01*
X129252590Y-70656391D01*
X129391029Y-70449202D01*
X129486387Y-70218987D01*
X129535000Y-69974592D01*
X129535000Y-69725408D01*
X129486387Y-69481013D01*
X129391029Y-69250798D01*
X129370451Y-69220000D01*
X132081928Y-69220000D01*
X132081928Y-70480000D01*
X132094188Y-70604482D01*
X132130498Y-70724180D01*
X132189463Y-70834494D01*
X132268815Y-70931185D01*
X132365506Y-71010537D01*
X132475820Y-71069502D01*
X132595518Y-71105812D01*
X132720000Y-71118072D01*
X133980000Y-71118072D01*
X134104482Y-71105812D01*
X134224180Y-71069502D01*
X134334494Y-71010537D01*
X134431185Y-70931185D01*
X134510537Y-70834494D01*
X134569502Y-70724180D01*
X134605812Y-70604482D01*
X134618072Y-70480000D01*
X134618072Y-69725408D01*
X134625000Y-69725408D01*
X134625000Y-69974592D01*
X134673613Y-70218987D01*
X134768971Y-70449202D01*
X134907410Y-70656391D01*
X135083609Y-70832590D01*
X135290798Y-70971029D01*
X135521013Y-71066387D01*
X135765408Y-71115000D01*
X136014592Y-71115000D01*
X136258987Y-71066387D01*
X136489202Y-70971029D01*
X136696391Y-70832590D01*
X136872590Y-70656391D01*
X137011029Y-70449202D01*
X137106387Y-70218987D01*
X137155000Y-69974592D01*
X137155000Y-69725408D01*
X137165000Y-69725408D01*
X137165000Y-69974592D01*
X137213613Y-70218987D01*
X137308971Y-70449202D01*
X137447410Y-70656391D01*
X137623609Y-70832590D01*
X137830798Y-70971029D01*
X138061013Y-71066387D01*
X138305408Y-71115000D01*
X138554592Y-71115000D01*
X138798987Y-71066387D01*
X139029202Y-70971029D01*
X139236391Y-70832590D01*
X139412590Y-70656391D01*
X139551029Y-70449202D01*
X139646387Y-70218987D01*
X139695000Y-69974592D01*
X139695000Y-69725408D01*
X139646387Y-69481013D01*
X139551029Y-69250798D01*
X139530451Y-69220000D01*
X142241928Y-69220000D01*
X142241928Y-70480000D01*
X142254188Y-70604482D01*
X142290498Y-70724180D01*
X142349463Y-70834494D01*
X142428815Y-70931185D01*
X142525506Y-71010537D01*
X142635820Y-71069502D01*
X142755518Y-71105812D01*
X142880000Y-71118072D01*
X144140000Y-71118072D01*
X144264482Y-71105812D01*
X144384180Y-71069502D01*
X144494494Y-71010537D01*
X144591185Y-70931185D01*
X144670537Y-70834494D01*
X144729502Y-70724180D01*
X144765812Y-70604482D01*
X144778072Y-70480000D01*
X144778072Y-69725408D01*
X144785000Y-69725408D01*
X144785000Y-69974592D01*
X144833613Y-70218987D01*
X144928971Y-70449202D01*
X145067410Y-70656391D01*
X145243609Y-70832590D01*
X145450798Y-70971029D01*
X145681013Y-71066387D01*
X145925408Y-71115000D01*
X146174592Y-71115000D01*
X146418987Y-71066387D01*
X146649202Y-70971029D01*
X146856391Y-70832590D01*
X147032590Y-70656391D01*
X147171029Y-70449202D01*
X147266387Y-70218987D01*
X147315000Y-69974592D01*
X147315000Y-69725408D01*
X147325000Y-69725408D01*
X147325000Y-69974592D01*
X147373613Y-70218987D01*
X147468971Y-70449202D01*
X147607410Y-70656391D01*
X147783609Y-70832590D01*
X147990798Y-70971029D01*
X148221013Y-71066387D01*
X148465408Y-71115000D01*
X148714592Y-71115000D01*
X148958987Y-71066387D01*
X149189202Y-70971029D01*
X149396391Y-70832590D01*
X149572590Y-70656391D01*
X149711029Y-70449202D01*
X149806387Y-70218987D01*
X149855000Y-69974592D01*
X149855000Y-69725408D01*
X149806387Y-69481013D01*
X149711029Y-69250798D01*
X149690451Y-69220000D01*
X152401928Y-69220000D01*
X152401928Y-70480000D01*
X152414188Y-70604482D01*
X152450498Y-70724180D01*
X152509463Y-70834494D01*
X152588815Y-70931185D01*
X152685506Y-71010537D01*
X152795820Y-71069502D01*
X152915518Y-71105812D01*
X153040000Y-71118072D01*
X154300000Y-71118072D01*
X154424482Y-71105812D01*
X154544180Y-71069502D01*
X154654494Y-71010537D01*
X154751185Y-70931185D01*
X154830537Y-70834494D01*
X154889502Y-70724180D01*
X154925812Y-70604482D01*
X154938072Y-70480000D01*
X154938072Y-69725408D01*
X154945000Y-69725408D01*
X154945000Y-69974592D01*
X154993613Y-70218987D01*
X155088971Y-70449202D01*
X155227410Y-70656391D01*
X155403609Y-70832590D01*
X155610798Y-70971029D01*
X155841013Y-71066387D01*
X156085408Y-71115000D01*
X156334592Y-71115000D01*
X156578987Y-71066387D01*
X156809202Y-70971029D01*
X157016391Y-70832590D01*
X157192590Y-70656391D01*
X157331029Y-70449202D01*
X157426387Y-70218987D01*
X157475000Y-69974592D01*
X157475000Y-69725408D01*
X157485000Y-69725408D01*
X157485000Y-69974592D01*
X157533613Y-70218987D01*
X157628971Y-70449202D01*
X157767410Y-70656391D01*
X157943609Y-70832590D01*
X158150798Y-70971029D01*
X158381013Y-71066387D01*
X158625408Y-71115000D01*
X158874592Y-71115000D01*
X159118987Y-71066387D01*
X159349202Y-70971029D01*
X159556391Y-70832590D01*
X159732590Y-70656391D01*
X159871029Y-70449202D01*
X159966387Y-70218987D01*
X160015000Y-69974592D01*
X160015000Y-69725408D01*
X159966387Y-69481013D01*
X159871029Y-69250798D01*
X159850451Y-69220000D01*
X162561928Y-69220000D01*
X162561928Y-70480000D01*
X162574188Y-70604482D01*
X162610498Y-70724180D01*
X162669463Y-70834494D01*
X162748815Y-70931185D01*
X162845506Y-71010537D01*
X162955820Y-71069502D01*
X163075518Y-71105812D01*
X163200000Y-71118072D01*
X164460000Y-71118072D01*
X164584482Y-71105812D01*
X164704180Y-71069502D01*
X164814494Y-71010537D01*
X164911185Y-70931185D01*
X164990537Y-70834494D01*
X165049502Y-70724180D01*
X165085812Y-70604482D01*
X165098072Y-70480000D01*
X165098072Y-69725408D01*
X165105000Y-69725408D01*
X165105000Y-69974592D01*
X165153613Y-70218987D01*
X165248971Y-70449202D01*
X165387410Y-70656391D01*
X165563609Y-70832590D01*
X165770798Y-70971029D01*
X166001013Y-71066387D01*
X166245408Y-71115000D01*
X166494592Y-71115000D01*
X166738987Y-71066387D01*
X166969202Y-70971029D01*
X167176391Y-70832590D01*
X167352590Y-70656391D01*
X167491029Y-70449202D01*
X167586387Y-70218987D01*
X167635000Y-69974592D01*
X167635000Y-69725408D01*
X167645000Y-69725408D01*
X167645000Y-69974592D01*
X167693613Y-70218987D01*
X167788971Y-70449202D01*
X167927410Y-70656391D01*
X168103609Y-70832590D01*
X168310798Y-70971029D01*
X168541013Y-71066387D01*
X168785408Y-71115000D01*
X169034592Y-71115000D01*
X169278987Y-71066387D01*
X169509202Y-70971029D01*
X169716391Y-70832590D01*
X169892590Y-70656391D01*
X170031029Y-70449202D01*
X170126387Y-70218987D01*
X170175000Y-69974592D01*
X170175000Y-69725408D01*
X170126387Y-69481013D01*
X170031029Y-69250798D01*
X170010451Y-69220000D01*
X172721928Y-69220000D01*
X172721928Y-70480000D01*
X172734188Y-70604482D01*
X172770498Y-70724180D01*
X172829463Y-70834494D01*
X172908815Y-70931185D01*
X173005506Y-71010537D01*
X173115820Y-71069502D01*
X173235518Y-71105812D01*
X173360000Y-71118072D01*
X174620000Y-71118072D01*
X174744482Y-71105812D01*
X174864180Y-71069502D01*
X174974494Y-71010537D01*
X175071185Y-70931185D01*
X175150537Y-70834494D01*
X175209502Y-70724180D01*
X175245812Y-70604482D01*
X175258072Y-70480000D01*
X175258072Y-69725408D01*
X175265000Y-69725408D01*
X175265000Y-69974592D01*
X175313613Y-70218987D01*
X175408971Y-70449202D01*
X175547410Y-70656391D01*
X175723609Y-70832590D01*
X175930798Y-70971029D01*
X176161013Y-71066387D01*
X176405408Y-71115000D01*
X176654592Y-71115000D01*
X176898987Y-71066387D01*
X177129202Y-70971029D01*
X177336391Y-70832590D01*
X177512590Y-70656391D01*
X177651029Y-70449202D01*
X177746387Y-70218987D01*
X177795000Y-69974592D01*
X177795000Y-69725408D01*
X177805000Y-69725408D01*
X177805000Y-69974592D01*
X177853613Y-70218987D01*
X177948971Y-70449202D01*
X178087410Y-70656391D01*
X178263609Y-70832590D01*
X178470798Y-70971029D01*
X178701013Y-71066387D01*
X178945408Y-71115000D01*
X179194592Y-71115000D01*
X179438987Y-71066387D01*
X179669202Y-70971029D01*
X179876391Y-70832590D01*
X180052590Y-70656391D01*
X180191029Y-70449202D01*
X180286387Y-70218987D01*
X180335000Y-69974592D01*
X180335000Y-69725408D01*
X180286387Y-69481013D01*
X180191029Y-69250798D01*
X180052590Y-69043609D01*
X179876391Y-68867410D01*
X179669202Y-68728971D01*
X179438987Y-68633613D01*
X179194592Y-68585000D01*
X178945408Y-68585000D01*
X178701013Y-68633613D01*
X178470798Y-68728971D01*
X178263609Y-68867410D01*
X178087410Y-69043609D01*
X177948971Y-69250798D01*
X177853613Y-69481013D01*
X177805000Y-69725408D01*
X177795000Y-69725408D01*
X177746387Y-69481013D01*
X177651029Y-69250798D01*
X177512590Y-69043609D01*
X177336391Y-68867410D01*
X177129202Y-68728971D01*
X176898987Y-68633613D01*
X176654592Y-68585000D01*
X176405408Y-68585000D01*
X176161013Y-68633613D01*
X175930798Y-68728971D01*
X175723609Y-68867410D01*
X175547410Y-69043609D01*
X175408971Y-69250798D01*
X175313613Y-69481013D01*
X175265000Y-69725408D01*
X175258072Y-69725408D01*
X175258072Y-69220000D01*
X175245812Y-69095518D01*
X175209502Y-68975820D01*
X175150537Y-68865506D01*
X175071185Y-68768815D01*
X174974494Y-68689463D01*
X174864180Y-68630498D01*
X174744482Y-68594188D01*
X174620000Y-68581928D01*
X173360000Y-68581928D01*
X173235518Y-68594188D01*
X173115820Y-68630498D01*
X173005506Y-68689463D01*
X172908815Y-68768815D01*
X172829463Y-68865506D01*
X172770498Y-68975820D01*
X172734188Y-69095518D01*
X172721928Y-69220000D01*
X170010451Y-69220000D01*
X169892590Y-69043609D01*
X169716391Y-68867410D01*
X169509202Y-68728971D01*
X169278987Y-68633613D01*
X169034592Y-68585000D01*
X168785408Y-68585000D01*
X168541013Y-68633613D01*
X168310798Y-68728971D01*
X168103609Y-68867410D01*
X167927410Y-69043609D01*
X167788971Y-69250798D01*
X167693613Y-69481013D01*
X167645000Y-69725408D01*
X167635000Y-69725408D01*
X167586387Y-69481013D01*
X167491029Y-69250798D01*
X167352590Y-69043609D01*
X167176391Y-68867410D01*
X166969202Y-68728971D01*
X166738987Y-68633613D01*
X166494592Y-68585000D01*
X166245408Y-68585000D01*
X166001013Y-68633613D01*
X165770798Y-68728971D01*
X165563609Y-68867410D01*
X165387410Y-69043609D01*
X165248971Y-69250798D01*
X165153613Y-69481013D01*
X165105000Y-69725408D01*
X165098072Y-69725408D01*
X165098072Y-69220000D01*
X165085812Y-69095518D01*
X165049502Y-68975820D01*
X164990537Y-68865506D01*
X164911185Y-68768815D01*
X164814494Y-68689463D01*
X164704180Y-68630498D01*
X164584482Y-68594188D01*
X164460000Y-68581928D01*
X163200000Y-68581928D01*
X163075518Y-68594188D01*
X162955820Y-68630498D01*
X162845506Y-68689463D01*
X162748815Y-68768815D01*
X162669463Y-68865506D01*
X162610498Y-68975820D01*
X162574188Y-69095518D01*
X162561928Y-69220000D01*
X159850451Y-69220000D01*
X159732590Y-69043609D01*
X159556391Y-68867410D01*
X159349202Y-68728971D01*
X159118987Y-68633613D01*
X158874592Y-68585000D01*
X158625408Y-68585000D01*
X158381013Y-68633613D01*
X158150798Y-68728971D01*
X157943609Y-68867410D01*
X157767410Y-69043609D01*
X157628971Y-69250798D01*
X157533613Y-69481013D01*
X157485000Y-69725408D01*
X157475000Y-69725408D01*
X157426387Y-69481013D01*
X157331029Y-69250798D01*
X157192590Y-69043609D01*
X157016391Y-68867410D01*
X156809202Y-68728971D01*
X156578987Y-68633613D01*
X156334592Y-68585000D01*
X156085408Y-68585000D01*
X155841013Y-68633613D01*
X155610798Y-68728971D01*
X155403609Y-68867410D01*
X155227410Y-69043609D01*
X155088971Y-69250798D01*
X154993613Y-69481013D01*
X154945000Y-69725408D01*
X154938072Y-69725408D01*
X154938072Y-69220000D01*
X154925812Y-69095518D01*
X154889502Y-68975820D01*
X154830537Y-68865506D01*
X154751185Y-68768815D01*
X154654494Y-68689463D01*
X154544180Y-68630498D01*
X154424482Y-68594188D01*
X154300000Y-68581928D01*
X153040000Y-68581928D01*
X152915518Y-68594188D01*
X152795820Y-68630498D01*
X152685506Y-68689463D01*
X152588815Y-68768815D01*
X152509463Y-68865506D01*
X152450498Y-68975820D01*
X152414188Y-69095518D01*
X152401928Y-69220000D01*
X149690451Y-69220000D01*
X149572590Y-69043609D01*
X149396391Y-68867410D01*
X149189202Y-68728971D01*
X148958987Y-68633613D01*
X148714592Y-68585000D01*
X148465408Y-68585000D01*
X148221013Y-68633613D01*
X147990798Y-68728971D01*
X147783609Y-68867410D01*
X147607410Y-69043609D01*
X147468971Y-69250798D01*
X147373613Y-69481013D01*
X147325000Y-69725408D01*
X147315000Y-69725408D01*
X147266387Y-69481013D01*
X147171029Y-69250798D01*
X147032590Y-69043609D01*
X146856391Y-68867410D01*
X146649202Y-68728971D01*
X146418987Y-68633613D01*
X146174592Y-68585000D01*
X145925408Y-68585000D01*
X145681013Y-68633613D01*
X145450798Y-68728971D01*
X145243609Y-68867410D01*
X145067410Y-69043609D01*
X144928971Y-69250798D01*
X144833613Y-69481013D01*
X144785000Y-69725408D01*
X144778072Y-69725408D01*
X144778072Y-69220000D01*
X144765812Y-69095518D01*
X144729502Y-68975820D01*
X144670537Y-68865506D01*
X144591185Y-68768815D01*
X144494494Y-68689463D01*
X144384180Y-68630498D01*
X144264482Y-68594188D01*
X144140000Y-68581928D01*
X142880000Y-68581928D01*
X142755518Y-68594188D01*
X142635820Y-68630498D01*
X142525506Y-68689463D01*
X142428815Y-68768815D01*
X142349463Y-68865506D01*
X142290498Y-68975820D01*
X142254188Y-69095518D01*
X142241928Y-69220000D01*
X139530451Y-69220000D01*
X139412590Y-69043609D01*
X139236391Y-68867410D01*
X139029202Y-68728971D01*
X138798987Y-68633613D01*
X138554592Y-68585000D01*
X138305408Y-68585000D01*
X138061013Y-68633613D01*
X137830798Y-68728971D01*
X137623609Y-68867410D01*
X137447410Y-69043609D01*
X137308971Y-69250798D01*
X137213613Y-69481013D01*
X137165000Y-69725408D01*
X137155000Y-69725408D01*
X137106387Y-69481013D01*
X137011029Y-69250798D01*
X136872590Y-69043609D01*
X136696391Y-68867410D01*
X136489202Y-68728971D01*
X136258987Y-68633613D01*
X136014592Y-68585000D01*
X135765408Y-68585000D01*
X135521013Y-68633613D01*
X135290798Y-68728971D01*
X135083609Y-68867410D01*
X134907410Y-69043609D01*
X134768971Y-69250798D01*
X134673613Y-69481013D01*
X134625000Y-69725408D01*
X134618072Y-69725408D01*
X134618072Y-69220000D01*
X134605812Y-69095518D01*
X134569502Y-68975820D01*
X134510537Y-68865506D01*
X134431185Y-68768815D01*
X134334494Y-68689463D01*
X134224180Y-68630498D01*
X134104482Y-68594188D01*
X133980000Y-68581928D01*
X132720000Y-68581928D01*
X132595518Y-68594188D01*
X132475820Y-68630498D01*
X132365506Y-68689463D01*
X132268815Y-68768815D01*
X132189463Y-68865506D01*
X132130498Y-68975820D01*
X132094188Y-69095518D01*
X132081928Y-69220000D01*
X129370451Y-69220000D01*
X129252590Y-69043609D01*
X129076391Y-68867410D01*
X128869202Y-68728971D01*
X128638987Y-68633613D01*
X128394592Y-68585000D01*
X128145408Y-68585000D01*
X127901013Y-68633613D01*
X127670798Y-68728971D01*
X127463609Y-68867410D01*
X127287410Y-69043609D01*
X127148971Y-69250798D01*
X127053613Y-69481013D01*
X127005000Y-69725408D01*
X126995000Y-69725408D01*
X126946387Y-69481013D01*
X126851029Y-69250798D01*
X126712590Y-69043609D01*
X126536391Y-68867410D01*
X126329202Y-68728971D01*
X126098987Y-68633613D01*
X125854592Y-68585000D01*
X125605408Y-68585000D01*
X125361013Y-68633613D01*
X125130798Y-68728971D01*
X124923609Y-68867410D01*
X124747410Y-69043609D01*
X124608971Y-69250798D01*
X124513613Y-69481013D01*
X124465000Y-69725408D01*
X124458072Y-69725408D01*
X124458072Y-69220000D01*
X124445812Y-69095518D01*
X124409502Y-68975820D01*
X124350537Y-68865506D01*
X124271185Y-68768815D01*
X124174494Y-68689463D01*
X124064180Y-68630498D01*
X123944482Y-68594188D01*
X123820000Y-68581928D01*
X122560000Y-68581928D01*
X122435518Y-68594188D01*
X122315820Y-68630498D01*
X122205506Y-68689463D01*
X122108815Y-68768815D01*
X122029463Y-68865506D01*
X121970498Y-68975820D01*
X121934188Y-69095518D01*
X121921928Y-69220000D01*
X119210451Y-69220000D01*
X119092590Y-69043609D01*
X118916391Y-68867410D01*
X118709202Y-68728971D01*
X118478987Y-68633613D01*
X118234592Y-68585000D01*
X117985408Y-68585000D01*
X117741013Y-68633613D01*
X117510798Y-68728971D01*
X117303609Y-68867410D01*
X117127410Y-69043609D01*
X116988971Y-69250798D01*
X116893613Y-69481013D01*
X116845000Y-69725408D01*
X116835000Y-69725408D01*
X116786387Y-69481013D01*
X116691029Y-69250798D01*
X116552590Y-69043609D01*
X116376391Y-68867410D01*
X116169202Y-68728971D01*
X115938987Y-68633613D01*
X115694592Y-68585000D01*
X115445408Y-68585000D01*
X115201013Y-68633613D01*
X114970798Y-68728971D01*
X114763609Y-68867410D01*
X114587410Y-69043609D01*
X114448971Y-69250798D01*
X114353613Y-69481013D01*
X114305000Y-69725408D01*
X114298072Y-69725408D01*
X114298072Y-69220000D01*
X114285812Y-69095518D01*
X114249502Y-68975820D01*
X114190537Y-68865506D01*
X114111185Y-68768815D01*
X114014494Y-68689463D01*
X113904180Y-68630498D01*
X113784482Y-68594188D01*
X113660000Y-68581928D01*
X112400000Y-68581928D01*
X112275518Y-68594188D01*
X112155820Y-68630498D01*
X112045506Y-68689463D01*
X111948815Y-68768815D01*
X111869463Y-68865506D01*
X111810498Y-68975820D01*
X111774188Y-69095518D01*
X111761928Y-69220000D01*
X109050451Y-69220000D01*
X108932590Y-69043609D01*
X108756391Y-68867410D01*
X108549202Y-68728971D01*
X108318987Y-68633613D01*
X108074592Y-68585000D01*
X107825408Y-68585000D01*
X107581013Y-68633613D01*
X107350798Y-68728971D01*
X107143609Y-68867410D01*
X106967410Y-69043609D01*
X106828971Y-69250798D01*
X106733613Y-69481013D01*
X106685000Y-69725408D01*
X106675000Y-69725408D01*
X106626387Y-69481013D01*
X106531029Y-69250798D01*
X106392590Y-69043609D01*
X106216391Y-68867410D01*
X106009202Y-68728971D01*
X105778987Y-68633613D01*
X105534592Y-68585000D01*
X105285408Y-68585000D01*
X105041013Y-68633613D01*
X104810798Y-68728971D01*
X104603609Y-68867410D01*
X104427410Y-69043609D01*
X104288971Y-69250798D01*
X104193613Y-69481013D01*
X104145000Y-69725408D01*
X104138072Y-69725408D01*
X104138072Y-69220000D01*
X104125812Y-69095518D01*
X104089502Y-68975820D01*
X104030537Y-68865506D01*
X103951185Y-68768815D01*
X103854494Y-68689463D01*
X103744180Y-68630498D01*
X103624482Y-68594188D01*
X103500000Y-68581928D01*
X102240000Y-68581928D01*
X102115518Y-68594188D01*
X101995820Y-68630498D01*
X101885506Y-68689463D01*
X101788815Y-68768815D01*
X101709463Y-68865506D01*
X101650498Y-68975820D01*
X101614188Y-69095518D01*
X101601928Y-69220000D01*
X98890451Y-69220000D01*
X98772590Y-69043609D01*
X98596391Y-68867410D01*
X98389202Y-68728971D01*
X98158987Y-68633613D01*
X97914592Y-68585000D01*
X97665408Y-68585000D01*
X97421013Y-68633613D01*
X97190798Y-68728971D01*
X96983609Y-68867410D01*
X96807410Y-69043609D01*
X96668971Y-69250798D01*
X96573613Y-69481013D01*
X96525000Y-69725408D01*
X96515000Y-69725408D01*
X96466387Y-69481013D01*
X96371029Y-69250798D01*
X96232590Y-69043609D01*
X96056391Y-68867410D01*
X95849202Y-68728971D01*
X95618987Y-68633613D01*
X95374592Y-68585000D01*
X95125408Y-68585000D01*
X94881013Y-68633613D01*
X94650798Y-68728971D01*
X94443609Y-68867410D01*
X94267410Y-69043609D01*
X94128971Y-69250798D01*
X94033613Y-69481013D01*
X93985000Y-69725408D01*
X93978072Y-69725408D01*
X93978072Y-69220000D01*
X93965812Y-69095518D01*
X93929502Y-68975820D01*
X93870537Y-68865506D01*
X93791185Y-68768815D01*
X93694494Y-68689463D01*
X93584180Y-68630498D01*
X93464482Y-68594188D01*
X93340000Y-68581928D01*
X92080000Y-68581928D01*
X91955518Y-68594188D01*
X91835820Y-68630498D01*
X91725506Y-68689463D01*
X91628815Y-68768815D01*
X91549463Y-68865506D01*
X91490498Y-68975820D01*
X91454188Y-69095518D01*
X91441928Y-69220000D01*
X87161082Y-69220000D01*
X87105715Y-62105408D01*
X91445000Y-62105408D01*
X91445000Y-62354592D01*
X91493613Y-62598987D01*
X91588971Y-62829202D01*
X91727410Y-63036391D01*
X91903609Y-63212590D01*
X92110798Y-63351029D01*
X92341013Y-63446387D01*
X92585408Y-63495000D01*
X92834592Y-63495000D01*
X93078987Y-63446387D01*
X93309202Y-63351029D01*
X93501433Y-63222584D01*
X93570660Y-63352099D01*
X93821839Y-63658161D01*
X94127901Y-63909340D01*
X94477085Y-64095983D01*
X94855971Y-64210917D01*
X95250000Y-64249725D01*
X95644028Y-64210917D01*
X96022914Y-64095983D01*
X96372099Y-63909340D01*
X96678161Y-63658161D01*
X96929340Y-63352099D01*
X96998567Y-63222585D01*
X97190798Y-63351029D01*
X97421013Y-63446387D01*
X97665408Y-63495000D01*
X97914592Y-63495000D01*
X98158987Y-63446387D01*
X98389202Y-63351029D01*
X98596391Y-63212590D01*
X98772590Y-63036391D01*
X98911029Y-62829202D01*
X99006387Y-62598987D01*
X99055000Y-62354592D01*
X99055000Y-62105408D01*
X101605000Y-62105408D01*
X101605000Y-62354592D01*
X101653613Y-62598987D01*
X101748971Y-62829202D01*
X101887410Y-63036391D01*
X102063609Y-63212590D01*
X102270798Y-63351029D01*
X102501013Y-63446387D01*
X102745408Y-63495000D01*
X102994592Y-63495000D01*
X103238987Y-63446387D01*
X103469202Y-63351029D01*
X103661433Y-63222584D01*
X103730660Y-63352099D01*
X103981839Y-63658161D01*
X104287901Y-63909340D01*
X104637085Y-64095983D01*
X105015971Y-64210917D01*
X105410000Y-64249725D01*
X105804028Y-64210917D01*
X106182914Y-64095983D01*
X106532099Y-63909340D01*
X106838161Y-63658161D01*
X107089340Y-63352099D01*
X107158567Y-63222585D01*
X107350798Y-63351029D01*
X107581013Y-63446387D01*
X107825408Y-63495000D01*
X108074592Y-63495000D01*
X108318987Y-63446387D01*
X108549202Y-63351029D01*
X108756391Y-63212590D01*
X108932590Y-63036391D01*
X109071029Y-62829202D01*
X109166387Y-62598987D01*
X109215000Y-62354592D01*
X109215000Y-62105408D01*
X111765000Y-62105408D01*
X111765000Y-62354592D01*
X111813613Y-62598987D01*
X111908971Y-62829202D01*
X112047410Y-63036391D01*
X112223609Y-63212590D01*
X112430798Y-63351029D01*
X112661013Y-63446387D01*
X112905408Y-63495000D01*
X113154592Y-63495000D01*
X113398987Y-63446387D01*
X113629202Y-63351029D01*
X113821433Y-63222584D01*
X113890660Y-63352099D01*
X114141839Y-63658161D01*
X114447901Y-63909340D01*
X114797085Y-64095983D01*
X115175971Y-64210917D01*
X115570000Y-64249725D01*
X115964028Y-64210917D01*
X116342914Y-64095983D01*
X116692099Y-63909340D01*
X116998161Y-63658161D01*
X117249340Y-63352099D01*
X117318567Y-63222585D01*
X117510798Y-63351029D01*
X117741013Y-63446387D01*
X117985408Y-63495000D01*
X118234592Y-63495000D01*
X118478987Y-63446387D01*
X118709202Y-63351029D01*
X118916391Y-63212590D01*
X119092590Y-63036391D01*
X119231029Y-62829202D01*
X119326387Y-62598987D01*
X119375000Y-62354592D01*
X119375000Y-62105408D01*
X121925000Y-62105408D01*
X121925000Y-62354592D01*
X121973613Y-62598987D01*
X122068971Y-62829202D01*
X122207410Y-63036391D01*
X122383609Y-63212590D01*
X122590798Y-63351029D01*
X122821013Y-63446387D01*
X123065408Y-63495000D01*
X123314592Y-63495000D01*
X123558987Y-63446387D01*
X123789202Y-63351029D01*
X123981433Y-63222584D01*
X124050660Y-63352099D01*
X124301839Y-63658161D01*
X124607901Y-63909340D01*
X124957085Y-64095983D01*
X125335971Y-64210917D01*
X125730000Y-64249725D01*
X126124028Y-64210917D01*
X126502914Y-64095983D01*
X126852099Y-63909340D01*
X127158161Y-63658161D01*
X127409340Y-63352099D01*
X127478567Y-63222585D01*
X127670798Y-63351029D01*
X127901013Y-63446387D01*
X128145408Y-63495000D01*
X128394592Y-63495000D01*
X128638987Y-63446387D01*
X128869202Y-63351029D01*
X129076391Y-63212590D01*
X129252590Y-63036391D01*
X129391029Y-62829202D01*
X129486387Y-62598987D01*
X129535000Y-62354592D01*
X129535000Y-62105408D01*
X132085000Y-62105408D01*
X132085000Y-62354592D01*
X132133613Y-62598987D01*
X132228971Y-62829202D01*
X132367410Y-63036391D01*
X132543609Y-63212590D01*
X132750798Y-63351029D01*
X132981013Y-63446387D01*
X133225408Y-63495000D01*
X133474592Y-63495000D01*
X133718987Y-63446387D01*
X133949202Y-63351029D01*
X134141433Y-63222584D01*
X134210660Y-63352099D01*
X134461839Y-63658161D01*
X134767901Y-63909340D01*
X135117085Y-64095983D01*
X135495971Y-64210917D01*
X135890000Y-64249725D01*
X136284028Y-64210917D01*
X136662914Y-64095983D01*
X137012099Y-63909340D01*
X137318161Y-63658161D01*
X137569340Y-63352099D01*
X137638567Y-63222585D01*
X137830798Y-63351029D01*
X138061013Y-63446387D01*
X138305408Y-63495000D01*
X138554592Y-63495000D01*
X138798987Y-63446387D01*
X139029202Y-63351029D01*
X139236391Y-63212590D01*
X139412590Y-63036391D01*
X139551029Y-62829202D01*
X139646387Y-62598987D01*
X139695000Y-62354592D01*
X139695000Y-62105408D01*
X142245000Y-62105408D01*
X142245000Y-62354592D01*
X142293613Y-62598987D01*
X142388971Y-62829202D01*
X142527410Y-63036391D01*
X142703609Y-63212590D01*
X142910798Y-63351029D01*
X143141013Y-63446387D01*
X143385408Y-63495000D01*
X143634592Y-63495000D01*
X143878987Y-63446387D01*
X144109202Y-63351029D01*
X144301433Y-63222584D01*
X144370660Y-63352099D01*
X144621839Y-63658161D01*
X144927901Y-63909340D01*
X145277085Y-64095983D01*
X145655971Y-64210917D01*
X146050000Y-64249725D01*
X146444028Y-64210917D01*
X146822914Y-64095983D01*
X147172099Y-63909340D01*
X147478161Y-63658161D01*
X147729340Y-63352099D01*
X147798567Y-63222585D01*
X147990798Y-63351029D01*
X148221013Y-63446387D01*
X148465408Y-63495000D01*
X148714592Y-63495000D01*
X148958987Y-63446387D01*
X149189202Y-63351029D01*
X149396391Y-63212590D01*
X149572590Y-63036391D01*
X149711029Y-62829202D01*
X149806387Y-62598987D01*
X149855000Y-62354592D01*
X149855000Y-62105408D01*
X152405000Y-62105408D01*
X152405000Y-62354592D01*
X152453613Y-62598987D01*
X152548971Y-62829202D01*
X152687410Y-63036391D01*
X152863609Y-63212590D01*
X153070798Y-63351029D01*
X153301013Y-63446387D01*
X153545408Y-63495000D01*
X153794592Y-63495000D01*
X154038987Y-63446387D01*
X154269202Y-63351029D01*
X154461433Y-63222584D01*
X154530660Y-63352099D01*
X154781839Y-63658161D01*
X155087901Y-63909340D01*
X155437085Y-64095983D01*
X155815971Y-64210917D01*
X156210000Y-64249725D01*
X156604028Y-64210917D01*
X156982914Y-64095983D01*
X157332099Y-63909340D01*
X157638161Y-63658161D01*
X157889340Y-63352099D01*
X157958567Y-63222585D01*
X158150798Y-63351029D01*
X158381013Y-63446387D01*
X158625408Y-63495000D01*
X158874592Y-63495000D01*
X159118987Y-63446387D01*
X159349202Y-63351029D01*
X159556391Y-63212590D01*
X159732590Y-63036391D01*
X159871029Y-62829202D01*
X159966387Y-62598987D01*
X160015000Y-62354592D01*
X160015000Y-62105408D01*
X162565000Y-62105408D01*
X162565000Y-62354592D01*
X162613613Y-62598987D01*
X162708971Y-62829202D01*
X162847410Y-63036391D01*
X163023609Y-63212590D01*
X163230798Y-63351029D01*
X163461013Y-63446387D01*
X163705408Y-63495000D01*
X163954592Y-63495000D01*
X164198987Y-63446387D01*
X164429202Y-63351029D01*
X164621433Y-63222584D01*
X164690660Y-63352099D01*
X164941839Y-63658161D01*
X165247901Y-63909340D01*
X165597085Y-64095983D01*
X165975971Y-64210917D01*
X166370000Y-64249725D01*
X166764028Y-64210917D01*
X167142914Y-64095983D01*
X167492099Y-63909340D01*
X167798161Y-63658161D01*
X168049340Y-63352099D01*
X168118567Y-63222585D01*
X168310798Y-63351029D01*
X168541013Y-63446387D01*
X168785408Y-63495000D01*
X169034592Y-63495000D01*
X169278987Y-63446387D01*
X169509202Y-63351029D01*
X169716391Y-63212590D01*
X169892590Y-63036391D01*
X170031029Y-62829202D01*
X170126387Y-62598987D01*
X170175000Y-62354592D01*
X170175000Y-62105408D01*
X172725000Y-62105408D01*
X172725000Y-62354592D01*
X172773613Y-62598987D01*
X172868971Y-62829202D01*
X173007410Y-63036391D01*
X173183609Y-63212590D01*
X173390798Y-63351029D01*
X173621013Y-63446387D01*
X173865408Y-63495000D01*
X174114592Y-63495000D01*
X174358987Y-63446387D01*
X174589202Y-63351029D01*
X174781433Y-63222584D01*
X174850660Y-63352099D01*
X175101839Y-63658161D01*
X175407901Y-63909340D01*
X175757085Y-64095983D01*
X176135971Y-64210917D01*
X176530000Y-64249725D01*
X176924028Y-64210917D01*
X177302914Y-64095983D01*
X177652099Y-63909340D01*
X177958161Y-63658161D01*
X178209340Y-63352099D01*
X178278567Y-63222585D01*
X178470798Y-63351029D01*
X178701013Y-63446387D01*
X178945408Y-63495000D01*
X179194592Y-63495000D01*
X179438987Y-63446387D01*
X179669202Y-63351029D01*
X179876391Y-63212590D01*
X180052590Y-63036391D01*
X180191029Y-62829202D01*
X180286387Y-62598987D01*
X180335000Y-62354592D01*
X180335000Y-62105408D01*
X180286387Y-61861013D01*
X180191029Y-61630798D01*
X180052590Y-61423609D01*
X179876391Y-61247410D01*
X179669202Y-61108971D01*
X179438987Y-61013613D01*
X179194592Y-60965000D01*
X178945408Y-60965000D01*
X178701013Y-61013613D01*
X178540000Y-61080307D01*
X178540000Y-53369180D01*
X178738890Y-53429513D01*
X179030000Y-53458185D01*
X179321111Y-53429513D01*
X179601034Y-53344599D01*
X179859014Y-53206706D01*
X180085134Y-53021134D01*
X180270706Y-52795014D01*
X180408599Y-52537033D01*
X180493513Y-52257110D01*
X180515000Y-52038949D01*
X180515000Y-51593050D01*
X180493513Y-51374889D01*
X180408599Y-51094966D01*
X180270706Y-50836986D01*
X180085134Y-50610866D01*
X179859013Y-50425294D01*
X179601033Y-50287401D01*
X179321110Y-50202487D01*
X179030000Y-50173815D01*
X178738889Y-50202487D01*
X178458966Y-50287401D01*
X178200986Y-50425294D01*
X178074255Y-50529300D01*
X177958161Y-50387839D01*
X177652099Y-50136660D01*
X177302915Y-49950017D01*
X176924029Y-49835083D01*
X176530000Y-49796275D01*
X176135972Y-49835083D01*
X175757086Y-49950017D01*
X175407902Y-50136660D01*
X175101840Y-50387839D01*
X174850661Y-50693901D01*
X174664018Y-51043085D01*
X174549084Y-51421971D01*
X174520001Y-51717259D01*
X174520000Y-61080307D01*
X174358987Y-61013613D01*
X174114592Y-60965000D01*
X173865408Y-60965000D01*
X173621013Y-61013613D01*
X173390798Y-61108971D01*
X173183609Y-61247410D01*
X173007410Y-61423609D01*
X172868971Y-61630798D01*
X172773613Y-61861013D01*
X172725000Y-62105408D01*
X170175000Y-62105408D01*
X170126387Y-61861013D01*
X170031029Y-61630798D01*
X169892590Y-61423609D01*
X169716391Y-61247410D01*
X169509202Y-61108971D01*
X169278987Y-61013613D01*
X169034592Y-60965000D01*
X168785408Y-60965000D01*
X168541013Y-61013613D01*
X168380000Y-61080307D01*
X168380000Y-53357046D01*
X168618890Y-53429513D01*
X168910000Y-53458185D01*
X169201111Y-53429513D01*
X169481034Y-53344599D01*
X169739014Y-53206706D01*
X169965134Y-53021134D01*
X170150706Y-52795014D01*
X170288599Y-52537033D01*
X170373513Y-52257110D01*
X170395000Y-52038949D01*
X170395000Y-51593050D01*
X170373513Y-51374889D01*
X170288599Y-51094966D01*
X170150706Y-50836986D01*
X169965134Y-50610866D01*
X169739013Y-50425294D01*
X169481033Y-50287401D01*
X169201110Y-50202487D01*
X168910000Y-50173815D01*
X168618889Y-50202487D01*
X168338966Y-50287401D01*
X168080986Y-50425294D01*
X167954255Y-50529300D01*
X167838161Y-50387839D01*
X167532099Y-50136660D01*
X167182916Y-49950018D01*
X166804029Y-49835084D01*
X166410000Y-49796276D01*
X166015972Y-49835084D01*
X165637085Y-49950018D01*
X165287902Y-50136660D01*
X165058537Y-50324895D01*
X165018534Y-50364898D01*
X164941840Y-50427839D01*
X164878902Y-50504529D01*
X164878895Y-50504536D01*
X164690660Y-50733901D01*
X164635560Y-50836987D01*
X164504018Y-51083085D01*
X164436735Y-51304889D01*
X164389084Y-51461972D01*
X164350276Y-51856000D01*
X164360001Y-51954740D01*
X164360000Y-61080307D01*
X164198987Y-61013613D01*
X163954592Y-60965000D01*
X163705408Y-60965000D01*
X163461013Y-61013613D01*
X163230798Y-61108971D01*
X163023609Y-61247410D01*
X162847410Y-61423609D01*
X162708971Y-61630798D01*
X162613613Y-61861013D01*
X162565000Y-62105408D01*
X160015000Y-62105408D01*
X159966387Y-61861013D01*
X159871029Y-61630798D01*
X159732590Y-61423609D01*
X159556391Y-61247410D01*
X159349202Y-61108971D01*
X159118987Y-61013613D01*
X158874592Y-60965000D01*
X158625408Y-60965000D01*
X158381013Y-61013613D01*
X158220000Y-61080307D01*
X158220000Y-53369180D01*
X158418890Y-53429513D01*
X158710000Y-53458185D01*
X159001111Y-53429513D01*
X159281034Y-53344599D01*
X159539014Y-53206706D01*
X159765134Y-53021134D01*
X159950706Y-52795014D01*
X160088599Y-52537033D01*
X160173513Y-52257110D01*
X160195000Y-52038949D01*
X160195000Y-51593050D01*
X160173513Y-51374889D01*
X160088599Y-51094966D01*
X159950706Y-50836986D01*
X159765134Y-50610866D01*
X159539013Y-50425294D01*
X159281033Y-50287401D01*
X159001110Y-50202487D01*
X158710000Y-50173815D01*
X158418889Y-50202487D01*
X158138966Y-50287401D01*
X157880986Y-50425294D01*
X157754255Y-50529300D01*
X157638161Y-50387839D01*
X157332099Y-50136660D01*
X156982915Y-49950017D01*
X156604029Y-49835083D01*
X156210000Y-49796275D01*
X155815972Y-49835083D01*
X155437086Y-49950017D01*
X155087902Y-50136660D01*
X154781840Y-50387839D01*
X154530661Y-50693901D01*
X154344018Y-51043085D01*
X154229084Y-51421971D01*
X154200001Y-51717259D01*
X154200000Y-61080307D01*
X154038987Y-61013613D01*
X153794592Y-60965000D01*
X153545408Y-60965000D01*
X153301013Y-61013613D01*
X153070798Y-61108971D01*
X152863609Y-61247410D01*
X152687410Y-61423609D01*
X152548971Y-61630798D01*
X152453613Y-61861013D01*
X152405000Y-62105408D01*
X149855000Y-62105408D01*
X149806387Y-61861013D01*
X149711029Y-61630798D01*
X149572590Y-61423609D01*
X149396391Y-61247410D01*
X149189202Y-61108971D01*
X148958987Y-61013613D01*
X148714592Y-60965000D01*
X148465408Y-60965000D01*
X148221013Y-61013613D01*
X148060000Y-61080307D01*
X148060000Y-53369180D01*
X148258890Y-53429513D01*
X148550000Y-53458185D01*
X148841111Y-53429513D01*
X149121034Y-53344599D01*
X149379014Y-53206706D01*
X149605134Y-53021134D01*
X149790706Y-52795014D01*
X149928599Y-52537033D01*
X150013513Y-52257110D01*
X150035000Y-52038949D01*
X150035000Y-51593050D01*
X150013513Y-51374889D01*
X149928599Y-51094966D01*
X149790706Y-50836986D01*
X149605134Y-50610866D01*
X149379013Y-50425294D01*
X149121033Y-50287401D01*
X148841110Y-50202487D01*
X148550000Y-50173815D01*
X148258889Y-50202487D01*
X147978966Y-50287401D01*
X147720986Y-50425294D01*
X147594255Y-50529300D01*
X147478161Y-50387839D01*
X147172099Y-50136660D01*
X146822915Y-49950017D01*
X146444029Y-49835083D01*
X146050000Y-49796275D01*
X145655972Y-49835083D01*
X145277086Y-49950017D01*
X144927902Y-50136660D01*
X144621840Y-50387839D01*
X144370661Y-50693901D01*
X144184018Y-51043085D01*
X144069084Y-51421971D01*
X144040001Y-51717259D01*
X144040000Y-61080307D01*
X143878987Y-61013613D01*
X143634592Y-60965000D01*
X143385408Y-60965000D01*
X143141013Y-61013613D01*
X142910798Y-61108971D01*
X142703609Y-61247410D01*
X142527410Y-61423609D01*
X142388971Y-61630798D01*
X142293613Y-61861013D01*
X142245000Y-62105408D01*
X139695000Y-62105408D01*
X139646387Y-61861013D01*
X139551029Y-61630798D01*
X139412590Y-61423609D01*
X139236391Y-61247410D01*
X139029202Y-61108971D01*
X138798987Y-61013613D01*
X138554592Y-60965000D01*
X138305408Y-60965000D01*
X138061013Y-61013613D01*
X137900000Y-61080307D01*
X137900000Y-53357046D01*
X138138890Y-53429513D01*
X138430000Y-53458185D01*
X138721111Y-53429513D01*
X139001034Y-53344599D01*
X139259014Y-53206706D01*
X139485134Y-53021134D01*
X139670706Y-52795014D01*
X139808599Y-52537033D01*
X139893513Y-52257110D01*
X139915000Y-52038949D01*
X139915000Y-51593050D01*
X139893513Y-51374889D01*
X139808599Y-51094966D01*
X139670706Y-50836986D01*
X139485134Y-50610866D01*
X139259013Y-50425294D01*
X139001033Y-50287401D01*
X138721110Y-50202487D01*
X138430000Y-50173815D01*
X138138889Y-50202487D01*
X137858966Y-50287401D01*
X137600986Y-50425294D01*
X137474255Y-50529300D01*
X137358161Y-50387839D01*
X137052099Y-50136660D01*
X136702916Y-49950018D01*
X136324029Y-49835084D01*
X135930000Y-49796276D01*
X135535972Y-49835084D01*
X135157085Y-49950018D01*
X134807902Y-50136660D01*
X134578537Y-50324895D01*
X134538534Y-50364898D01*
X134461840Y-50427839D01*
X134398902Y-50504529D01*
X134398895Y-50504536D01*
X134210660Y-50733901D01*
X134155560Y-50836987D01*
X134024018Y-51083085D01*
X133956735Y-51304889D01*
X133909084Y-51461972D01*
X133870276Y-51856000D01*
X133880001Y-51954740D01*
X133880000Y-61080307D01*
X133718987Y-61013613D01*
X133474592Y-60965000D01*
X133225408Y-60965000D01*
X132981013Y-61013613D01*
X132750798Y-61108971D01*
X132543609Y-61247410D01*
X132367410Y-61423609D01*
X132228971Y-61630798D01*
X132133613Y-61861013D01*
X132085000Y-62105408D01*
X129535000Y-62105408D01*
X129486387Y-61861013D01*
X129391029Y-61630798D01*
X129252590Y-61423609D01*
X129076391Y-61247410D01*
X128869202Y-61108971D01*
X128638987Y-61013613D01*
X128394592Y-60965000D01*
X128145408Y-60965000D01*
X127901013Y-61013613D01*
X127740000Y-61080307D01*
X127740000Y-53299180D01*
X127938890Y-53359513D01*
X128230000Y-53388185D01*
X128521111Y-53359513D01*
X128801034Y-53274599D01*
X129059014Y-53136706D01*
X129285134Y-52951134D01*
X129470706Y-52725014D01*
X129608599Y-52467033D01*
X129693513Y-52187110D01*
X129715000Y-51968949D01*
X129715000Y-51523050D01*
X129693513Y-51304889D01*
X129608599Y-51024966D01*
X129470706Y-50766986D01*
X129285134Y-50540866D01*
X129059013Y-50355294D01*
X128801033Y-50217401D01*
X128521110Y-50132487D01*
X128230000Y-50103815D01*
X127938889Y-50132487D01*
X127658966Y-50217401D01*
X127400986Y-50355294D01*
X127274255Y-50459300D01*
X127158161Y-50317839D01*
X126852099Y-50066660D01*
X126502915Y-49880017D01*
X126124029Y-49765083D01*
X125730000Y-49726275D01*
X125335972Y-49765083D01*
X124957086Y-49880017D01*
X124607902Y-50066660D01*
X124301840Y-50317839D01*
X124050661Y-50623901D01*
X123864018Y-50973085D01*
X123749084Y-51351971D01*
X123720001Y-51647259D01*
X123720000Y-61080307D01*
X123558987Y-61013613D01*
X123314592Y-60965000D01*
X123065408Y-60965000D01*
X122821013Y-61013613D01*
X122590798Y-61108971D01*
X122383609Y-61247410D01*
X122207410Y-61423609D01*
X122068971Y-61630798D01*
X121973613Y-61861013D01*
X121925000Y-62105408D01*
X119375000Y-62105408D01*
X119326387Y-61861013D01*
X119231029Y-61630798D01*
X119092590Y-61423609D01*
X118916391Y-61247410D01*
X118709202Y-61108971D01*
X118478987Y-61013613D01*
X118234592Y-60965000D01*
X117985408Y-60965000D01*
X117741013Y-61013613D01*
X117580000Y-61080307D01*
X117580000Y-53369180D01*
X117778890Y-53429513D01*
X118070000Y-53458185D01*
X118361111Y-53429513D01*
X118641034Y-53344599D01*
X118899014Y-53206706D01*
X119125134Y-53021134D01*
X119310706Y-52795014D01*
X119448599Y-52537033D01*
X119533513Y-52257110D01*
X119555000Y-52038949D01*
X119555000Y-51593050D01*
X119533513Y-51374889D01*
X119448599Y-51094966D01*
X119310706Y-50836986D01*
X119125134Y-50610866D01*
X118899013Y-50425294D01*
X118641033Y-50287401D01*
X118361110Y-50202487D01*
X118070000Y-50173815D01*
X117778889Y-50202487D01*
X117498966Y-50287401D01*
X117240986Y-50425294D01*
X117114255Y-50529300D01*
X116998161Y-50387839D01*
X116692099Y-50136660D01*
X116342915Y-49950017D01*
X115964029Y-49835083D01*
X115570000Y-49796275D01*
X115175972Y-49835083D01*
X114797086Y-49950017D01*
X114447902Y-50136660D01*
X114141840Y-50387839D01*
X113890661Y-50693901D01*
X113704018Y-51043085D01*
X113589084Y-51421971D01*
X113560001Y-51717259D01*
X113560000Y-61080307D01*
X113398987Y-61013613D01*
X113154592Y-60965000D01*
X112905408Y-60965000D01*
X112661013Y-61013613D01*
X112430798Y-61108971D01*
X112223609Y-61247410D01*
X112047410Y-61423609D01*
X111908971Y-61630798D01*
X111813613Y-61861013D01*
X111765000Y-62105408D01*
X109215000Y-62105408D01*
X109166387Y-61861013D01*
X109071029Y-61630798D01*
X108932590Y-61423609D01*
X108756391Y-61247410D01*
X108549202Y-61108971D01*
X108318987Y-61013613D01*
X108074592Y-60965000D01*
X107825408Y-60965000D01*
X107581013Y-61013613D01*
X107420000Y-61080307D01*
X107420000Y-53369180D01*
X107618890Y-53429513D01*
X107910000Y-53458185D01*
X108201111Y-53429513D01*
X108481034Y-53344599D01*
X108739014Y-53206706D01*
X108965134Y-53021134D01*
X109150706Y-52795014D01*
X109288599Y-52537033D01*
X109373513Y-52257110D01*
X109395000Y-52038949D01*
X109395000Y-51593050D01*
X109373513Y-51374889D01*
X109288599Y-51094966D01*
X109150706Y-50836986D01*
X108965134Y-50610866D01*
X108739013Y-50425294D01*
X108481033Y-50287401D01*
X108201110Y-50202487D01*
X107910000Y-50173815D01*
X107618889Y-50202487D01*
X107338966Y-50287401D01*
X107080986Y-50425294D01*
X106954255Y-50529300D01*
X106838161Y-50387839D01*
X106532099Y-50136660D01*
X106182915Y-49950017D01*
X105804029Y-49835083D01*
X105410000Y-49796275D01*
X105015972Y-49835083D01*
X104637086Y-49950017D01*
X104287902Y-50136660D01*
X103981840Y-50387839D01*
X103730661Y-50693901D01*
X103544018Y-51043085D01*
X103429084Y-51421971D01*
X103400001Y-51717259D01*
X103400000Y-61080307D01*
X103238987Y-61013613D01*
X102994592Y-60965000D01*
X102745408Y-60965000D01*
X102501013Y-61013613D01*
X102270798Y-61108971D01*
X102063609Y-61247410D01*
X101887410Y-61423609D01*
X101748971Y-61630798D01*
X101653613Y-61861013D01*
X101605000Y-62105408D01*
X99055000Y-62105408D01*
X99006387Y-61861013D01*
X98911029Y-61630798D01*
X98772590Y-61423609D01*
X98596391Y-61247410D01*
X98389202Y-61108971D01*
X98158987Y-61013613D01*
X97914592Y-60965000D01*
X97665408Y-60965000D01*
X97421013Y-61013613D01*
X97260000Y-61080307D01*
X97260000Y-53369180D01*
X97458890Y-53429513D01*
X97750000Y-53458185D01*
X98041111Y-53429513D01*
X98321034Y-53344599D01*
X98579014Y-53206706D01*
X98805134Y-53021134D01*
X98990706Y-52795014D01*
X99128599Y-52537033D01*
X99213513Y-52257110D01*
X99235000Y-52038949D01*
X99235000Y-51593050D01*
X99213513Y-51374889D01*
X99128599Y-51094966D01*
X98990706Y-50836986D01*
X98805134Y-50610866D01*
X98579013Y-50425294D01*
X98321033Y-50287401D01*
X98041110Y-50202487D01*
X97750000Y-50173815D01*
X97458889Y-50202487D01*
X97178966Y-50287401D01*
X96920986Y-50425294D01*
X96794255Y-50529300D01*
X96678161Y-50387839D01*
X96372099Y-50136660D01*
X96022915Y-49950017D01*
X95644029Y-49835083D01*
X95250000Y-49796275D01*
X94855972Y-49835083D01*
X94477086Y-49950017D01*
X94127902Y-50136660D01*
X93821840Y-50387839D01*
X93570661Y-50693901D01*
X93384018Y-51043085D01*
X93269084Y-51421971D01*
X93240001Y-51717259D01*
X93240000Y-61080307D01*
X93078987Y-61013613D01*
X92834592Y-60965000D01*
X92585408Y-60965000D01*
X92341013Y-61013613D01*
X92110798Y-61108971D01*
X91903609Y-61247410D01*
X91727410Y-61423609D01*
X91588971Y-61630798D01*
X91493613Y-61861013D01*
X91445000Y-62105408D01*
X87105715Y-62105408D01*
X87070000Y-57516075D01*
X87070000Y-48208000D01*
X185472000Y-48208000D01*
X185472001Y-146610000D01*
M02*
