M48
; DRILL file {KiCad 5.1.4+dfsg1-1~bpo10+1} date Tue 08 Sep 2020 10:33:46 AM EDT
; FORMAT={-:-/ absolute / inch / decimal}
; #@! TF.CreationDate,2020-09-08T10:33:46-04:00
; #@! TF.GenerationSoftware,Kicad,Pcbnew,5.1.4+dfsg1-1~bpo10+1
FMAT,2
INCH
T1C0.0157
T2C0.0315
T3C0.0331
T4C0.0394
T5C0.0400
%
G90
G05
T1
X3.795Y-5.15
X3.8Y-4.48
X4.235Y-3.75
X4.63Y-4.25
X4.692Y-3.1
X4.84Y-3.64
X4.93Y-3.35
X5.052Y-3.06
X5.32Y-3.905
X5.47Y-4.065
X5.605Y-3.93
X5.61Y-5.45
X5.62Y-4.525
X5.62Y-5.18
X5.735Y-5.57
X5.895Y-4.565
X6.33Y-4.515
X6.395Y-3.97
X6.395Y-4.095
X6.395Y-4.205
X6.395Y-4.36
X6.49Y-5.04
X6.495Y-3.825
X6.78Y-4.1
X6.855Y-4.15
T2
X6.05Y-4.05
X6.05Y-4.15
X6.05Y-4.25
X6.05Y-4.35
X6.05Y-4.45
X6.05Y-4.55
X6.05Y-4.65
X6.05Y-4.75
X6.05Y-4.85
X6.05Y-4.95
X6.05Y-5.05
X6.05Y-5.15
X6.05Y-5.25
X6.05Y-5.35
X6.65Y-4.05
X6.65Y-4.15
X6.65Y-4.25
X6.65Y-4.35
X6.65Y-4.45
X6.65Y-4.55
X6.65Y-4.65
X6.65Y-4.75
X6.65Y-4.85
X6.65Y-4.95
X6.65Y-5.05
X6.65Y-5.15
X6.65Y-5.25
X6.65Y-5.35
T3
X6.85Y-2.45
X6.85Y-2.75
X6.95Y-2.45
X6.95Y-2.75
X7.05Y-2.45
X7.05Y-2.75
X5.25Y-2.45
X5.25Y-2.75
X5.35Y-2.45
X5.35Y-2.75
X5.45Y-2.45
X5.45Y-2.75
X4.05Y-2.45
X4.05Y-2.75
X4.15Y-2.45
X4.15Y-2.75
X4.25Y-2.45
X4.25Y-2.75
X4.45Y-2.45
X4.45Y-2.75
X4.55Y-2.45
X4.55Y-2.75
X4.65Y-2.45
X4.65Y-2.75
X6.05Y-2.45
X6.05Y-2.75
X6.15Y-2.45
X6.15Y-2.75
X6.25Y-2.45
X6.25Y-2.75
X6.45Y-2.45
X6.45Y-2.75
X6.55Y-2.45
X6.55Y-2.75
X6.65Y-2.45
X6.65Y-2.75
X4.85Y-2.45
X4.85Y-2.75
X4.95Y-2.45
X4.95Y-2.75
X5.05Y-2.45
X5.05Y-2.75
X5.65Y-2.45
X5.65Y-2.75
X5.75Y-2.45
X5.75Y-2.75
X5.85Y-2.45
X5.85Y-2.75
X3.65Y-2.45
X3.65Y-2.75
X3.75Y-2.45
X3.75Y-2.75
X3.85Y-2.45
X3.85Y-2.75
T4
X6.95Y-2.04
X7.0484Y-2.04
X4.15Y-2.04
X4.2484Y-2.04
X5.3516Y-2.04
X5.45Y-2.04
X4.55Y-2.04
X4.6484Y-2.04
X4.95Y-2.0372
X5.0484Y-2.0372
X3.75Y-2.04
X3.8484Y-2.04
X6.15Y-2.04
X6.2484Y-2.04
X6.5516Y-2.04
X6.65Y-2.04
X5.75Y-2.04
X5.8484Y-2.04
T5
X3.565Y-4.735
X3.565Y-4.835
X3.565Y-4.935
X3.565Y-5.035
X3.565Y-5.135
X3.565Y-5.235
X3.565Y-5.335
X3.565Y-5.435
X3.565Y-5.535
X3.565Y-5.635
T0
M30
