G04 #@! TF.GenerationSoftware,KiCad,Pcbnew,5.1.4+dfsg1-1~bpo10+1*
G04 #@! TF.CreationDate,2020-09-08T10:33:03-04:00*
G04 #@! TF.ProjectId,front_controls,66726f6e-745f-4636-9f6e-74726f6c732e,1*
G04 #@! TF.SameCoordinates,Original*
G04 #@! TF.FileFunction,Soldermask,Top*
G04 #@! TF.FilePolarity,Negative*
%FSLAX46Y46*%
G04 Gerber Fmt 4.6, Leading zero omitted, Abs format (unit mm)*
G04 Created by KiCad (PCBNEW 5.1.4+dfsg1-1~bpo10+1) date 2020-09-08 10:33:03*
%MOMM*%
%LPD*%
G04 APERTURE LIST*
%ADD10C,1.660000*%
%ADD11R,1.660000X1.660000*%
%ADD12O,2.100000X2.400000*%
%ADD13C,0.100000*%
%ADD14C,2.100000*%
%ADD15C,0.990000*%
%ADD16R,1.200000X1.300000*%
%ADD17R,2.900000X3.700000*%
%ADD18R,2.900000X2.700000*%
%ADD19R,1.600000X1.300000*%
%ADD20R,2.432000X2.127200*%
%ADD21O,2.432000X2.127200*%
%ADD22O,2.000000X2.000000*%
G04 APERTURE END LIST*
D10*
X173990000Y-62230000D03*
X176530000Y-62230000D03*
X179070000Y-62230000D03*
X179070000Y-69850000D03*
X176530000Y-69850000D03*
D11*
X173990000Y-69850000D03*
D10*
X163830000Y-62230000D03*
X166370000Y-62230000D03*
X168910000Y-62230000D03*
X168910000Y-69850000D03*
X166370000Y-69850000D03*
D11*
X163830000Y-69850000D03*
D10*
X153670000Y-62230000D03*
X156210000Y-62230000D03*
X158750000Y-62230000D03*
X158750000Y-69850000D03*
X156210000Y-69850000D03*
D11*
X153670000Y-69850000D03*
D10*
X143510000Y-62230000D03*
X146050000Y-62230000D03*
X148590000Y-62230000D03*
X148590000Y-69850000D03*
X146050000Y-69850000D03*
D11*
X143510000Y-69850000D03*
D10*
X133350000Y-62230000D03*
X135890000Y-62230000D03*
X138430000Y-62230000D03*
X138430000Y-69850000D03*
X135890000Y-69850000D03*
D11*
X133350000Y-69850000D03*
D10*
X123190000Y-62230000D03*
X125730000Y-62230000D03*
X128270000Y-62230000D03*
X128270000Y-69850000D03*
X125730000Y-69850000D03*
D11*
X123190000Y-69850000D03*
D10*
X113030000Y-62230000D03*
X115570000Y-62230000D03*
X118110000Y-62230000D03*
X118110000Y-69850000D03*
X115570000Y-69850000D03*
D11*
X113030000Y-69850000D03*
D10*
X102870000Y-62230000D03*
X105410000Y-62230000D03*
X107950000Y-62230000D03*
X107950000Y-69850000D03*
X105410000Y-69850000D03*
D11*
X102870000Y-69850000D03*
D10*
X92710000Y-62230000D03*
X95250000Y-62230000D03*
X97790000Y-62230000D03*
X97790000Y-69850000D03*
X95250000Y-69850000D03*
D11*
X92710000Y-69850000D03*
D12*
X179030000Y-51816000D03*
D13*
G36*
X177301447Y-50617487D02*
G01*
X177331425Y-50621934D01*
X177360824Y-50629298D01*
X177389358Y-50639508D01*
X177416755Y-50652465D01*
X177442750Y-50668046D01*
X177467092Y-50686100D01*
X177489548Y-50706452D01*
X177509900Y-50728908D01*
X177527954Y-50753250D01*
X177543535Y-50779245D01*
X177556492Y-50806642D01*
X177566702Y-50835176D01*
X177574066Y-50864575D01*
X177578513Y-50894553D01*
X177580000Y-50924823D01*
X177580000Y-52707177D01*
X177578513Y-52737447D01*
X177574066Y-52767425D01*
X177566702Y-52796824D01*
X177556492Y-52825358D01*
X177543535Y-52852755D01*
X177527954Y-52878750D01*
X177509900Y-52903092D01*
X177489548Y-52925548D01*
X177467092Y-52945900D01*
X177442750Y-52963954D01*
X177416755Y-52979535D01*
X177389358Y-52992492D01*
X177360824Y-53002702D01*
X177331425Y-53010066D01*
X177301447Y-53014513D01*
X177271177Y-53016000D01*
X175788823Y-53016000D01*
X175758553Y-53014513D01*
X175728575Y-53010066D01*
X175699176Y-53002702D01*
X175670642Y-52992492D01*
X175643245Y-52979535D01*
X175617250Y-52963954D01*
X175592908Y-52945900D01*
X175570452Y-52925548D01*
X175550100Y-52903092D01*
X175532046Y-52878750D01*
X175516465Y-52852755D01*
X175503508Y-52825358D01*
X175493298Y-52796824D01*
X175485934Y-52767425D01*
X175481487Y-52737447D01*
X175480000Y-52707177D01*
X175480000Y-50924823D01*
X175481487Y-50894553D01*
X175485934Y-50864575D01*
X175493298Y-50835176D01*
X175503508Y-50806642D01*
X175516465Y-50779245D01*
X175532046Y-50753250D01*
X175550100Y-50728908D01*
X175570452Y-50706452D01*
X175592908Y-50686100D01*
X175617250Y-50668046D01*
X175643245Y-50652465D01*
X175670642Y-50639508D01*
X175699176Y-50629298D01*
X175728575Y-50621934D01*
X175758553Y-50617487D01*
X175788823Y-50616000D01*
X177271177Y-50616000D01*
X177301447Y-50617487D01*
X177301447Y-50617487D01*
G37*
D14*
X176530000Y-51816000D03*
D12*
X168910000Y-51816000D03*
D13*
G36*
X167181447Y-50617487D02*
G01*
X167211425Y-50621934D01*
X167240824Y-50629298D01*
X167269358Y-50639508D01*
X167296755Y-50652465D01*
X167322750Y-50668046D01*
X167347092Y-50686100D01*
X167369548Y-50706452D01*
X167389900Y-50728908D01*
X167407954Y-50753250D01*
X167423535Y-50779245D01*
X167436492Y-50806642D01*
X167446702Y-50835176D01*
X167454066Y-50864575D01*
X167458513Y-50894553D01*
X167460000Y-50924823D01*
X167460000Y-52707177D01*
X167458513Y-52737447D01*
X167454066Y-52767425D01*
X167446702Y-52796824D01*
X167436492Y-52825358D01*
X167423535Y-52852755D01*
X167407954Y-52878750D01*
X167389900Y-52903092D01*
X167369548Y-52925548D01*
X167347092Y-52945900D01*
X167322750Y-52963954D01*
X167296755Y-52979535D01*
X167269358Y-52992492D01*
X167240824Y-53002702D01*
X167211425Y-53010066D01*
X167181447Y-53014513D01*
X167151177Y-53016000D01*
X165668823Y-53016000D01*
X165638553Y-53014513D01*
X165608575Y-53010066D01*
X165579176Y-53002702D01*
X165550642Y-52992492D01*
X165523245Y-52979535D01*
X165497250Y-52963954D01*
X165472908Y-52945900D01*
X165450452Y-52925548D01*
X165430100Y-52903092D01*
X165412046Y-52878750D01*
X165396465Y-52852755D01*
X165383508Y-52825358D01*
X165373298Y-52796824D01*
X165365934Y-52767425D01*
X165361487Y-52737447D01*
X165360000Y-52707177D01*
X165360000Y-50924823D01*
X165361487Y-50894553D01*
X165365934Y-50864575D01*
X165373298Y-50835176D01*
X165383508Y-50806642D01*
X165396465Y-50779245D01*
X165412046Y-50753250D01*
X165430100Y-50728908D01*
X165450452Y-50706452D01*
X165472908Y-50686100D01*
X165497250Y-50668046D01*
X165523245Y-50652465D01*
X165550642Y-50639508D01*
X165579176Y-50629298D01*
X165608575Y-50621934D01*
X165638553Y-50617487D01*
X165668823Y-50616000D01*
X167151177Y-50616000D01*
X167181447Y-50617487D01*
X167181447Y-50617487D01*
G37*
D14*
X166410000Y-51816000D03*
D12*
X158710000Y-51816000D03*
D13*
G36*
X156981447Y-50617487D02*
G01*
X157011425Y-50621934D01*
X157040824Y-50629298D01*
X157069358Y-50639508D01*
X157096755Y-50652465D01*
X157122750Y-50668046D01*
X157147092Y-50686100D01*
X157169548Y-50706452D01*
X157189900Y-50728908D01*
X157207954Y-50753250D01*
X157223535Y-50779245D01*
X157236492Y-50806642D01*
X157246702Y-50835176D01*
X157254066Y-50864575D01*
X157258513Y-50894553D01*
X157260000Y-50924823D01*
X157260000Y-52707177D01*
X157258513Y-52737447D01*
X157254066Y-52767425D01*
X157246702Y-52796824D01*
X157236492Y-52825358D01*
X157223535Y-52852755D01*
X157207954Y-52878750D01*
X157189900Y-52903092D01*
X157169548Y-52925548D01*
X157147092Y-52945900D01*
X157122750Y-52963954D01*
X157096755Y-52979535D01*
X157069358Y-52992492D01*
X157040824Y-53002702D01*
X157011425Y-53010066D01*
X156981447Y-53014513D01*
X156951177Y-53016000D01*
X155468823Y-53016000D01*
X155438553Y-53014513D01*
X155408575Y-53010066D01*
X155379176Y-53002702D01*
X155350642Y-52992492D01*
X155323245Y-52979535D01*
X155297250Y-52963954D01*
X155272908Y-52945900D01*
X155250452Y-52925548D01*
X155230100Y-52903092D01*
X155212046Y-52878750D01*
X155196465Y-52852755D01*
X155183508Y-52825358D01*
X155173298Y-52796824D01*
X155165934Y-52767425D01*
X155161487Y-52737447D01*
X155160000Y-52707177D01*
X155160000Y-50924823D01*
X155161487Y-50894553D01*
X155165934Y-50864575D01*
X155173298Y-50835176D01*
X155183508Y-50806642D01*
X155196465Y-50779245D01*
X155212046Y-50753250D01*
X155230100Y-50728908D01*
X155250452Y-50706452D01*
X155272908Y-50686100D01*
X155297250Y-50668046D01*
X155323245Y-50652465D01*
X155350642Y-50639508D01*
X155379176Y-50629298D01*
X155408575Y-50621934D01*
X155438553Y-50617487D01*
X155468823Y-50616000D01*
X156951177Y-50616000D01*
X156981447Y-50617487D01*
X156981447Y-50617487D01*
G37*
D14*
X156210000Y-51816000D03*
D12*
X148550000Y-51816000D03*
D13*
G36*
X146821447Y-50617487D02*
G01*
X146851425Y-50621934D01*
X146880824Y-50629298D01*
X146909358Y-50639508D01*
X146936755Y-50652465D01*
X146962750Y-50668046D01*
X146987092Y-50686100D01*
X147009548Y-50706452D01*
X147029900Y-50728908D01*
X147047954Y-50753250D01*
X147063535Y-50779245D01*
X147076492Y-50806642D01*
X147086702Y-50835176D01*
X147094066Y-50864575D01*
X147098513Y-50894553D01*
X147100000Y-50924823D01*
X147100000Y-52707177D01*
X147098513Y-52737447D01*
X147094066Y-52767425D01*
X147086702Y-52796824D01*
X147076492Y-52825358D01*
X147063535Y-52852755D01*
X147047954Y-52878750D01*
X147029900Y-52903092D01*
X147009548Y-52925548D01*
X146987092Y-52945900D01*
X146962750Y-52963954D01*
X146936755Y-52979535D01*
X146909358Y-52992492D01*
X146880824Y-53002702D01*
X146851425Y-53010066D01*
X146821447Y-53014513D01*
X146791177Y-53016000D01*
X145308823Y-53016000D01*
X145278553Y-53014513D01*
X145248575Y-53010066D01*
X145219176Y-53002702D01*
X145190642Y-52992492D01*
X145163245Y-52979535D01*
X145137250Y-52963954D01*
X145112908Y-52945900D01*
X145090452Y-52925548D01*
X145070100Y-52903092D01*
X145052046Y-52878750D01*
X145036465Y-52852755D01*
X145023508Y-52825358D01*
X145013298Y-52796824D01*
X145005934Y-52767425D01*
X145001487Y-52737447D01*
X145000000Y-52707177D01*
X145000000Y-50924823D01*
X145001487Y-50894553D01*
X145005934Y-50864575D01*
X145013298Y-50835176D01*
X145023508Y-50806642D01*
X145036465Y-50779245D01*
X145052046Y-50753250D01*
X145070100Y-50728908D01*
X145090452Y-50706452D01*
X145112908Y-50686100D01*
X145137250Y-50668046D01*
X145163245Y-50652465D01*
X145190642Y-50639508D01*
X145219176Y-50629298D01*
X145248575Y-50621934D01*
X145278553Y-50617487D01*
X145308823Y-50616000D01*
X146791177Y-50616000D01*
X146821447Y-50617487D01*
X146821447Y-50617487D01*
G37*
D14*
X146050000Y-51816000D03*
D12*
X138430000Y-51816000D03*
D13*
G36*
X136701447Y-50617487D02*
G01*
X136731425Y-50621934D01*
X136760824Y-50629298D01*
X136789358Y-50639508D01*
X136816755Y-50652465D01*
X136842750Y-50668046D01*
X136867092Y-50686100D01*
X136889548Y-50706452D01*
X136909900Y-50728908D01*
X136927954Y-50753250D01*
X136943535Y-50779245D01*
X136956492Y-50806642D01*
X136966702Y-50835176D01*
X136974066Y-50864575D01*
X136978513Y-50894553D01*
X136980000Y-50924823D01*
X136980000Y-52707177D01*
X136978513Y-52737447D01*
X136974066Y-52767425D01*
X136966702Y-52796824D01*
X136956492Y-52825358D01*
X136943535Y-52852755D01*
X136927954Y-52878750D01*
X136909900Y-52903092D01*
X136889548Y-52925548D01*
X136867092Y-52945900D01*
X136842750Y-52963954D01*
X136816755Y-52979535D01*
X136789358Y-52992492D01*
X136760824Y-53002702D01*
X136731425Y-53010066D01*
X136701447Y-53014513D01*
X136671177Y-53016000D01*
X135188823Y-53016000D01*
X135158553Y-53014513D01*
X135128575Y-53010066D01*
X135099176Y-53002702D01*
X135070642Y-52992492D01*
X135043245Y-52979535D01*
X135017250Y-52963954D01*
X134992908Y-52945900D01*
X134970452Y-52925548D01*
X134950100Y-52903092D01*
X134932046Y-52878750D01*
X134916465Y-52852755D01*
X134903508Y-52825358D01*
X134893298Y-52796824D01*
X134885934Y-52767425D01*
X134881487Y-52737447D01*
X134880000Y-52707177D01*
X134880000Y-50924823D01*
X134881487Y-50894553D01*
X134885934Y-50864575D01*
X134893298Y-50835176D01*
X134903508Y-50806642D01*
X134916465Y-50779245D01*
X134932046Y-50753250D01*
X134950100Y-50728908D01*
X134970452Y-50706452D01*
X134992908Y-50686100D01*
X135017250Y-50668046D01*
X135043245Y-50652465D01*
X135070642Y-50639508D01*
X135099176Y-50629298D01*
X135128575Y-50621934D01*
X135158553Y-50617487D01*
X135188823Y-50616000D01*
X136671177Y-50616000D01*
X136701447Y-50617487D01*
X136701447Y-50617487D01*
G37*
D14*
X135930000Y-51816000D03*
D12*
X128230000Y-51746000D03*
D13*
G36*
X126501447Y-50547487D02*
G01*
X126531425Y-50551934D01*
X126560824Y-50559298D01*
X126589358Y-50569508D01*
X126616755Y-50582465D01*
X126642750Y-50598046D01*
X126667092Y-50616100D01*
X126689548Y-50636452D01*
X126709900Y-50658908D01*
X126727954Y-50683250D01*
X126743535Y-50709245D01*
X126756492Y-50736642D01*
X126766702Y-50765176D01*
X126774066Y-50794575D01*
X126778513Y-50824553D01*
X126780000Y-50854823D01*
X126780000Y-52637177D01*
X126778513Y-52667447D01*
X126774066Y-52697425D01*
X126766702Y-52726824D01*
X126756492Y-52755358D01*
X126743535Y-52782755D01*
X126727954Y-52808750D01*
X126709900Y-52833092D01*
X126689548Y-52855548D01*
X126667092Y-52875900D01*
X126642750Y-52893954D01*
X126616755Y-52909535D01*
X126589358Y-52922492D01*
X126560824Y-52932702D01*
X126531425Y-52940066D01*
X126501447Y-52944513D01*
X126471177Y-52946000D01*
X124988823Y-52946000D01*
X124958553Y-52944513D01*
X124928575Y-52940066D01*
X124899176Y-52932702D01*
X124870642Y-52922492D01*
X124843245Y-52909535D01*
X124817250Y-52893954D01*
X124792908Y-52875900D01*
X124770452Y-52855548D01*
X124750100Y-52833092D01*
X124732046Y-52808750D01*
X124716465Y-52782755D01*
X124703508Y-52755358D01*
X124693298Y-52726824D01*
X124685934Y-52697425D01*
X124681487Y-52667447D01*
X124680000Y-52637177D01*
X124680000Y-50854823D01*
X124681487Y-50824553D01*
X124685934Y-50794575D01*
X124693298Y-50765176D01*
X124703508Y-50736642D01*
X124716465Y-50709245D01*
X124732046Y-50683250D01*
X124750100Y-50658908D01*
X124770452Y-50636452D01*
X124792908Y-50616100D01*
X124817250Y-50598046D01*
X124843245Y-50582465D01*
X124870642Y-50569508D01*
X124899176Y-50559298D01*
X124928575Y-50551934D01*
X124958553Y-50547487D01*
X124988823Y-50546000D01*
X126471177Y-50546000D01*
X126501447Y-50547487D01*
X126501447Y-50547487D01*
G37*
D14*
X125730000Y-51746000D03*
D12*
X118070000Y-51816000D03*
D13*
G36*
X116341447Y-50617487D02*
G01*
X116371425Y-50621934D01*
X116400824Y-50629298D01*
X116429358Y-50639508D01*
X116456755Y-50652465D01*
X116482750Y-50668046D01*
X116507092Y-50686100D01*
X116529548Y-50706452D01*
X116549900Y-50728908D01*
X116567954Y-50753250D01*
X116583535Y-50779245D01*
X116596492Y-50806642D01*
X116606702Y-50835176D01*
X116614066Y-50864575D01*
X116618513Y-50894553D01*
X116620000Y-50924823D01*
X116620000Y-52707177D01*
X116618513Y-52737447D01*
X116614066Y-52767425D01*
X116606702Y-52796824D01*
X116596492Y-52825358D01*
X116583535Y-52852755D01*
X116567954Y-52878750D01*
X116549900Y-52903092D01*
X116529548Y-52925548D01*
X116507092Y-52945900D01*
X116482750Y-52963954D01*
X116456755Y-52979535D01*
X116429358Y-52992492D01*
X116400824Y-53002702D01*
X116371425Y-53010066D01*
X116341447Y-53014513D01*
X116311177Y-53016000D01*
X114828823Y-53016000D01*
X114798553Y-53014513D01*
X114768575Y-53010066D01*
X114739176Y-53002702D01*
X114710642Y-52992492D01*
X114683245Y-52979535D01*
X114657250Y-52963954D01*
X114632908Y-52945900D01*
X114610452Y-52925548D01*
X114590100Y-52903092D01*
X114572046Y-52878750D01*
X114556465Y-52852755D01*
X114543508Y-52825358D01*
X114533298Y-52796824D01*
X114525934Y-52767425D01*
X114521487Y-52737447D01*
X114520000Y-52707177D01*
X114520000Y-50924823D01*
X114521487Y-50894553D01*
X114525934Y-50864575D01*
X114533298Y-50835176D01*
X114543508Y-50806642D01*
X114556465Y-50779245D01*
X114572046Y-50753250D01*
X114590100Y-50728908D01*
X114610452Y-50706452D01*
X114632908Y-50686100D01*
X114657250Y-50668046D01*
X114683245Y-50652465D01*
X114710642Y-50639508D01*
X114739176Y-50629298D01*
X114768575Y-50621934D01*
X114798553Y-50617487D01*
X114828823Y-50616000D01*
X116311177Y-50616000D01*
X116341447Y-50617487D01*
X116341447Y-50617487D01*
G37*
D14*
X115570000Y-51816000D03*
D12*
X107910000Y-51816000D03*
D13*
G36*
X106181447Y-50617487D02*
G01*
X106211425Y-50621934D01*
X106240824Y-50629298D01*
X106269358Y-50639508D01*
X106296755Y-50652465D01*
X106322750Y-50668046D01*
X106347092Y-50686100D01*
X106369548Y-50706452D01*
X106389900Y-50728908D01*
X106407954Y-50753250D01*
X106423535Y-50779245D01*
X106436492Y-50806642D01*
X106446702Y-50835176D01*
X106454066Y-50864575D01*
X106458513Y-50894553D01*
X106460000Y-50924823D01*
X106460000Y-52707177D01*
X106458513Y-52737447D01*
X106454066Y-52767425D01*
X106446702Y-52796824D01*
X106436492Y-52825358D01*
X106423535Y-52852755D01*
X106407954Y-52878750D01*
X106389900Y-52903092D01*
X106369548Y-52925548D01*
X106347092Y-52945900D01*
X106322750Y-52963954D01*
X106296755Y-52979535D01*
X106269358Y-52992492D01*
X106240824Y-53002702D01*
X106211425Y-53010066D01*
X106181447Y-53014513D01*
X106151177Y-53016000D01*
X104668823Y-53016000D01*
X104638553Y-53014513D01*
X104608575Y-53010066D01*
X104579176Y-53002702D01*
X104550642Y-52992492D01*
X104523245Y-52979535D01*
X104497250Y-52963954D01*
X104472908Y-52945900D01*
X104450452Y-52925548D01*
X104430100Y-52903092D01*
X104412046Y-52878750D01*
X104396465Y-52852755D01*
X104383508Y-52825358D01*
X104373298Y-52796824D01*
X104365934Y-52767425D01*
X104361487Y-52737447D01*
X104360000Y-52707177D01*
X104360000Y-50924823D01*
X104361487Y-50894553D01*
X104365934Y-50864575D01*
X104373298Y-50835176D01*
X104383508Y-50806642D01*
X104396465Y-50779245D01*
X104412046Y-50753250D01*
X104430100Y-50728908D01*
X104450452Y-50706452D01*
X104472908Y-50686100D01*
X104497250Y-50668046D01*
X104523245Y-50652465D01*
X104550642Y-50639508D01*
X104579176Y-50629298D01*
X104608575Y-50621934D01*
X104638553Y-50617487D01*
X104668823Y-50616000D01*
X106151177Y-50616000D01*
X106181447Y-50617487D01*
X106181447Y-50617487D01*
G37*
D14*
X105410000Y-51816000D03*
D12*
X97750000Y-51816000D03*
D13*
G36*
X96021447Y-50617487D02*
G01*
X96051425Y-50621934D01*
X96080824Y-50629298D01*
X96109358Y-50639508D01*
X96136755Y-50652465D01*
X96162750Y-50668046D01*
X96187092Y-50686100D01*
X96209548Y-50706452D01*
X96229900Y-50728908D01*
X96247954Y-50753250D01*
X96263535Y-50779245D01*
X96276492Y-50806642D01*
X96286702Y-50835176D01*
X96294066Y-50864575D01*
X96298513Y-50894553D01*
X96300000Y-50924823D01*
X96300000Y-52707177D01*
X96298513Y-52737447D01*
X96294066Y-52767425D01*
X96286702Y-52796824D01*
X96276492Y-52825358D01*
X96263535Y-52852755D01*
X96247954Y-52878750D01*
X96229900Y-52903092D01*
X96209548Y-52925548D01*
X96187092Y-52945900D01*
X96162750Y-52963954D01*
X96136755Y-52979535D01*
X96109358Y-52992492D01*
X96080824Y-53002702D01*
X96051425Y-53010066D01*
X96021447Y-53014513D01*
X95991177Y-53016000D01*
X94508823Y-53016000D01*
X94478553Y-53014513D01*
X94448575Y-53010066D01*
X94419176Y-53002702D01*
X94390642Y-52992492D01*
X94363245Y-52979535D01*
X94337250Y-52963954D01*
X94312908Y-52945900D01*
X94290452Y-52925548D01*
X94270100Y-52903092D01*
X94252046Y-52878750D01*
X94236465Y-52852755D01*
X94223508Y-52825358D01*
X94213298Y-52796824D01*
X94205934Y-52767425D01*
X94201487Y-52737447D01*
X94200000Y-52707177D01*
X94200000Y-50924823D01*
X94201487Y-50894553D01*
X94205934Y-50864575D01*
X94213298Y-50835176D01*
X94223508Y-50806642D01*
X94236465Y-50779245D01*
X94252046Y-50753250D01*
X94270100Y-50728908D01*
X94290452Y-50706452D01*
X94312908Y-50686100D01*
X94337250Y-50668046D01*
X94363245Y-50652465D01*
X94390642Y-50639508D01*
X94419176Y-50629298D01*
X94448575Y-50621934D01*
X94478553Y-50617487D01*
X94508823Y-50616000D01*
X95991177Y-50616000D01*
X96021447Y-50617487D01*
X96021447Y-50617487D01*
G37*
D14*
X95250000Y-51816000D03*
D13*
G36*
X176826759Y-73651192D02*
G01*
X176850785Y-73654756D01*
X176874345Y-73660657D01*
X176897214Y-73668840D01*
X176919171Y-73679224D01*
X176940004Y-73691711D01*
X176959512Y-73706180D01*
X176977509Y-73722491D01*
X176993820Y-73740488D01*
X177008289Y-73759996D01*
X177020776Y-73780829D01*
X177031160Y-73802786D01*
X177039343Y-73825655D01*
X177045244Y-73849215D01*
X177048808Y-73873241D01*
X177050000Y-73897500D01*
X177050000Y-74392500D01*
X177048808Y-74416759D01*
X177045244Y-74440785D01*
X177039343Y-74464345D01*
X177031160Y-74487214D01*
X177020776Y-74509171D01*
X177008289Y-74530004D01*
X176993820Y-74549512D01*
X176977509Y-74567509D01*
X176959512Y-74583820D01*
X176940004Y-74598289D01*
X176919171Y-74610776D01*
X176897214Y-74621160D01*
X176874345Y-74629343D01*
X176850785Y-74635244D01*
X176826759Y-74638808D01*
X176802500Y-74640000D01*
X176257500Y-74640000D01*
X176233241Y-74638808D01*
X176209215Y-74635244D01*
X176185655Y-74629343D01*
X176162786Y-74621160D01*
X176140829Y-74610776D01*
X176119996Y-74598289D01*
X176100488Y-74583820D01*
X176082491Y-74567509D01*
X176066180Y-74549512D01*
X176051711Y-74530004D01*
X176039224Y-74509171D01*
X176028840Y-74487214D01*
X176020657Y-74464345D01*
X176014756Y-74440785D01*
X176011192Y-74416759D01*
X176010000Y-74392500D01*
X176010000Y-73897500D01*
X176011192Y-73873241D01*
X176014756Y-73849215D01*
X176020657Y-73825655D01*
X176028840Y-73802786D01*
X176039224Y-73780829D01*
X176051711Y-73759996D01*
X176066180Y-73740488D01*
X176082491Y-73722491D01*
X176100488Y-73706180D01*
X176119996Y-73691711D01*
X176140829Y-73679224D01*
X176162786Y-73668840D01*
X176185655Y-73660657D01*
X176209215Y-73654756D01*
X176233241Y-73651192D01*
X176257500Y-73650000D01*
X176802500Y-73650000D01*
X176826759Y-73651192D01*
X176826759Y-73651192D01*
G37*
D15*
X176530000Y-74145000D03*
D13*
G36*
X176826759Y-72681192D02*
G01*
X176850785Y-72684756D01*
X176874345Y-72690657D01*
X176897214Y-72698840D01*
X176919171Y-72709224D01*
X176940004Y-72721711D01*
X176959512Y-72736180D01*
X176977509Y-72752491D01*
X176993820Y-72770488D01*
X177008289Y-72789996D01*
X177020776Y-72810829D01*
X177031160Y-72832786D01*
X177039343Y-72855655D01*
X177045244Y-72879215D01*
X177048808Y-72903241D01*
X177050000Y-72927500D01*
X177050000Y-73422500D01*
X177048808Y-73446759D01*
X177045244Y-73470785D01*
X177039343Y-73494345D01*
X177031160Y-73517214D01*
X177020776Y-73539171D01*
X177008289Y-73560004D01*
X176993820Y-73579512D01*
X176977509Y-73597509D01*
X176959512Y-73613820D01*
X176940004Y-73628289D01*
X176919171Y-73640776D01*
X176897214Y-73651160D01*
X176874345Y-73659343D01*
X176850785Y-73665244D01*
X176826759Y-73668808D01*
X176802500Y-73670000D01*
X176257500Y-73670000D01*
X176233241Y-73668808D01*
X176209215Y-73665244D01*
X176185655Y-73659343D01*
X176162786Y-73651160D01*
X176140829Y-73640776D01*
X176119996Y-73628289D01*
X176100488Y-73613820D01*
X176082491Y-73597509D01*
X176066180Y-73579512D01*
X176051711Y-73560004D01*
X176039224Y-73539171D01*
X176028840Y-73517214D01*
X176020657Y-73494345D01*
X176014756Y-73470785D01*
X176011192Y-73446759D01*
X176010000Y-73422500D01*
X176010000Y-72927500D01*
X176011192Y-72903241D01*
X176014756Y-72879215D01*
X176020657Y-72855655D01*
X176028840Y-72832786D01*
X176039224Y-72810829D01*
X176051711Y-72789996D01*
X176066180Y-72770488D01*
X176082491Y-72752491D01*
X176100488Y-72736180D01*
X176119996Y-72721711D01*
X176140829Y-72709224D01*
X176162786Y-72698840D01*
X176185655Y-72690657D01*
X176209215Y-72684756D01*
X176233241Y-72681192D01*
X176257500Y-72680000D01*
X176802500Y-72680000D01*
X176826759Y-72681192D01*
X176826759Y-72681192D01*
G37*
D15*
X176530000Y-73175000D03*
D13*
G36*
X166666759Y-73651192D02*
G01*
X166690785Y-73654756D01*
X166714345Y-73660657D01*
X166737214Y-73668840D01*
X166759171Y-73679224D01*
X166780004Y-73691711D01*
X166799512Y-73706180D01*
X166817509Y-73722491D01*
X166833820Y-73740488D01*
X166848289Y-73759996D01*
X166860776Y-73780829D01*
X166871160Y-73802786D01*
X166879343Y-73825655D01*
X166885244Y-73849215D01*
X166888808Y-73873241D01*
X166890000Y-73897500D01*
X166890000Y-74392500D01*
X166888808Y-74416759D01*
X166885244Y-74440785D01*
X166879343Y-74464345D01*
X166871160Y-74487214D01*
X166860776Y-74509171D01*
X166848289Y-74530004D01*
X166833820Y-74549512D01*
X166817509Y-74567509D01*
X166799512Y-74583820D01*
X166780004Y-74598289D01*
X166759171Y-74610776D01*
X166737214Y-74621160D01*
X166714345Y-74629343D01*
X166690785Y-74635244D01*
X166666759Y-74638808D01*
X166642500Y-74640000D01*
X166097500Y-74640000D01*
X166073241Y-74638808D01*
X166049215Y-74635244D01*
X166025655Y-74629343D01*
X166002786Y-74621160D01*
X165980829Y-74610776D01*
X165959996Y-74598289D01*
X165940488Y-74583820D01*
X165922491Y-74567509D01*
X165906180Y-74549512D01*
X165891711Y-74530004D01*
X165879224Y-74509171D01*
X165868840Y-74487214D01*
X165860657Y-74464345D01*
X165854756Y-74440785D01*
X165851192Y-74416759D01*
X165850000Y-74392500D01*
X165850000Y-73897500D01*
X165851192Y-73873241D01*
X165854756Y-73849215D01*
X165860657Y-73825655D01*
X165868840Y-73802786D01*
X165879224Y-73780829D01*
X165891711Y-73759996D01*
X165906180Y-73740488D01*
X165922491Y-73722491D01*
X165940488Y-73706180D01*
X165959996Y-73691711D01*
X165980829Y-73679224D01*
X166002786Y-73668840D01*
X166025655Y-73660657D01*
X166049215Y-73654756D01*
X166073241Y-73651192D01*
X166097500Y-73650000D01*
X166642500Y-73650000D01*
X166666759Y-73651192D01*
X166666759Y-73651192D01*
G37*
D15*
X166370000Y-74145000D03*
D13*
G36*
X166666759Y-72681192D02*
G01*
X166690785Y-72684756D01*
X166714345Y-72690657D01*
X166737214Y-72698840D01*
X166759171Y-72709224D01*
X166780004Y-72721711D01*
X166799512Y-72736180D01*
X166817509Y-72752491D01*
X166833820Y-72770488D01*
X166848289Y-72789996D01*
X166860776Y-72810829D01*
X166871160Y-72832786D01*
X166879343Y-72855655D01*
X166885244Y-72879215D01*
X166888808Y-72903241D01*
X166890000Y-72927500D01*
X166890000Y-73422500D01*
X166888808Y-73446759D01*
X166885244Y-73470785D01*
X166879343Y-73494345D01*
X166871160Y-73517214D01*
X166860776Y-73539171D01*
X166848289Y-73560004D01*
X166833820Y-73579512D01*
X166817509Y-73597509D01*
X166799512Y-73613820D01*
X166780004Y-73628289D01*
X166759171Y-73640776D01*
X166737214Y-73651160D01*
X166714345Y-73659343D01*
X166690785Y-73665244D01*
X166666759Y-73668808D01*
X166642500Y-73670000D01*
X166097500Y-73670000D01*
X166073241Y-73668808D01*
X166049215Y-73665244D01*
X166025655Y-73659343D01*
X166002786Y-73651160D01*
X165980829Y-73640776D01*
X165959996Y-73628289D01*
X165940488Y-73613820D01*
X165922491Y-73597509D01*
X165906180Y-73579512D01*
X165891711Y-73560004D01*
X165879224Y-73539171D01*
X165868840Y-73517214D01*
X165860657Y-73494345D01*
X165854756Y-73470785D01*
X165851192Y-73446759D01*
X165850000Y-73422500D01*
X165850000Y-72927500D01*
X165851192Y-72903241D01*
X165854756Y-72879215D01*
X165860657Y-72855655D01*
X165868840Y-72832786D01*
X165879224Y-72810829D01*
X165891711Y-72789996D01*
X165906180Y-72770488D01*
X165922491Y-72752491D01*
X165940488Y-72736180D01*
X165959996Y-72721711D01*
X165980829Y-72709224D01*
X166002786Y-72698840D01*
X166025655Y-72690657D01*
X166049215Y-72684756D01*
X166073241Y-72681192D01*
X166097500Y-72680000D01*
X166642500Y-72680000D01*
X166666759Y-72681192D01*
X166666759Y-72681192D01*
G37*
D15*
X166370000Y-73175000D03*
D13*
G36*
X156506759Y-73651192D02*
G01*
X156530785Y-73654756D01*
X156554345Y-73660657D01*
X156577214Y-73668840D01*
X156599171Y-73679224D01*
X156620004Y-73691711D01*
X156639512Y-73706180D01*
X156657509Y-73722491D01*
X156673820Y-73740488D01*
X156688289Y-73759996D01*
X156700776Y-73780829D01*
X156711160Y-73802786D01*
X156719343Y-73825655D01*
X156725244Y-73849215D01*
X156728808Y-73873241D01*
X156730000Y-73897500D01*
X156730000Y-74392500D01*
X156728808Y-74416759D01*
X156725244Y-74440785D01*
X156719343Y-74464345D01*
X156711160Y-74487214D01*
X156700776Y-74509171D01*
X156688289Y-74530004D01*
X156673820Y-74549512D01*
X156657509Y-74567509D01*
X156639512Y-74583820D01*
X156620004Y-74598289D01*
X156599171Y-74610776D01*
X156577214Y-74621160D01*
X156554345Y-74629343D01*
X156530785Y-74635244D01*
X156506759Y-74638808D01*
X156482500Y-74640000D01*
X155937500Y-74640000D01*
X155913241Y-74638808D01*
X155889215Y-74635244D01*
X155865655Y-74629343D01*
X155842786Y-74621160D01*
X155820829Y-74610776D01*
X155799996Y-74598289D01*
X155780488Y-74583820D01*
X155762491Y-74567509D01*
X155746180Y-74549512D01*
X155731711Y-74530004D01*
X155719224Y-74509171D01*
X155708840Y-74487214D01*
X155700657Y-74464345D01*
X155694756Y-74440785D01*
X155691192Y-74416759D01*
X155690000Y-74392500D01*
X155690000Y-73897500D01*
X155691192Y-73873241D01*
X155694756Y-73849215D01*
X155700657Y-73825655D01*
X155708840Y-73802786D01*
X155719224Y-73780829D01*
X155731711Y-73759996D01*
X155746180Y-73740488D01*
X155762491Y-73722491D01*
X155780488Y-73706180D01*
X155799996Y-73691711D01*
X155820829Y-73679224D01*
X155842786Y-73668840D01*
X155865655Y-73660657D01*
X155889215Y-73654756D01*
X155913241Y-73651192D01*
X155937500Y-73650000D01*
X156482500Y-73650000D01*
X156506759Y-73651192D01*
X156506759Y-73651192D01*
G37*
D15*
X156210000Y-74145000D03*
D13*
G36*
X156506759Y-72681192D02*
G01*
X156530785Y-72684756D01*
X156554345Y-72690657D01*
X156577214Y-72698840D01*
X156599171Y-72709224D01*
X156620004Y-72721711D01*
X156639512Y-72736180D01*
X156657509Y-72752491D01*
X156673820Y-72770488D01*
X156688289Y-72789996D01*
X156700776Y-72810829D01*
X156711160Y-72832786D01*
X156719343Y-72855655D01*
X156725244Y-72879215D01*
X156728808Y-72903241D01*
X156730000Y-72927500D01*
X156730000Y-73422500D01*
X156728808Y-73446759D01*
X156725244Y-73470785D01*
X156719343Y-73494345D01*
X156711160Y-73517214D01*
X156700776Y-73539171D01*
X156688289Y-73560004D01*
X156673820Y-73579512D01*
X156657509Y-73597509D01*
X156639512Y-73613820D01*
X156620004Y-73628289D01*
X156599171Y-73640776D01*
X156577214Y-73651160D01*
X156554345Y-73659343D01*
X156530785Y-73665244D01*
X156506759Y-73668808D01*
X156482500Y-73670000D01*
X155937500Y-73670000D01*
X155913241Y-73668808D01*
X155889215Y-73665244D01*
X155865655Y-73659343D01*
X155842786Y-73651160D01*
X155820829Y-73640776D01*
X155799996Y-73628289D01*
X155780488Y-73613820D01*
X155762491Y-73597509D01*
X155746180Y-73579512D01*
X155731711Y-73560004D01*
X155719224Y-73539171D01*
X155708840Y-73517214D01*
X155700657Y-73494345D01*
X155694756Y-73470785D01*
X155691192Y-73446759D01*
X155690000Y-73422500D01*
X155690000Y-72927500D01*
X155691192Y-72903241D01*
X155694756Y-72879215D01*
X155700657Y-72855655D01*
X155708840Y-72832786D01*
X155719224Y-72810829D01*
X155731711Y-72789996D01*
X155746180Y-72770488D01*
X155762491Y-72752491D01*
X155780488Y-72736180D01*
X155799996Y-72721711D01*
X155820829Y-72709224D01*
X155842786Y-72698840D01*
X155865655Y-72690657D01*
X155889215Y-72684756D01*
X155913241Y-72681192D01*
X155937500Y-72680000D01*
X156482500Y-72680000D01*
X156506759Y-72681192D01*
X156506759Y-72681192D01*
G37*
D15*
X156210000Y-73175000D03*
D13*
G36*
X146346759Y-73651192D02*
G01*
X146370785Y-73654756D01*
X146394345Y-73660657D01*
X146417214Y-73668840D01*
X146439171Y-73679224D01*
X146460004Y-73691711D01*
X146479512Y-73706180D01*
X146497509Y-73722491D01*
X146513820Y-73740488D01*
X146528289Y-73759996D01*
X146540776Y-73780829D01*
X146551160Y-73802786D01*
X146559343Y-73825655D01*
X146565244Y-73849215D01*
X146568808Y-73873241D01*
X146570000Y-73897500D01*
X146570000Y-74392500D01*
X146568808Y-74416759D01*
X146565244Y-74440785D01*
X146559343Y-74464345D01*
X146551160Y-74487214D01*
X146540776Y-74509171D01*
X146528289Y-74530004D01*
X146513820Y-74549512D01*
X146497509Y-74567509D01*
X146479512Y-74583820D01*
X146460004Y-74598289D01*
X146439171Y-74610776D01*
X146417214Y-74621160D01*
X146394345Y-74629343D01*
X146370785Y-74635244D01*
X146346759Y-74638808D01*
X146322500Y-74640000D01*
X145777500Y-74640000D01*
X145753241Y-74638808D01*
X145729215Y-74635244D01*
X145705655Y-74629343D01*
X145682786Y-74621160D01*
X145660829Y-74610776D01*
X145639996Y-74598289D01*
X145620488Y-74583820D01*
X145602491Y-74567509D01*
X145586180Y-74549512D01*
X145571711Y-74530004D01*
X145559224Y-74509171D01*
X145548840Y-74487214D01*
X145540657Y-74464345D01*
X145534756Y-74440785D01*
X145531192Y-74416759D01*
X145530000Y-74392500D01*
X145530000Y-73897500D01*
X145531192Y-73873241D01*
X145534756Y-73849215D01*
X145540657Y-73825655D01*
X145548840Y-73802786D01*
X145559224Y-73780829D01*
X145571711Y-73759996D01*
X145586180Y-73740488D01*
X145602491Y-73722491D01*
X145620488Y-73706180D01*
X145639996Y-73691711D01*
X145660829Y-73679224D01*
X145682786Y-73668840D01*
X145705655Y-73660657D01*
X145729215Y-73654756D01*
X145753241Y-73651192D01*
X145777500Y-73650000D01*
X146322500Y-73650000D01*
X146346759Y-73651192D01*
X146346759Y-73651192D01*
G37*
D15*
X146050000Y-74145000D03*
D13*
G36*
X146346759Y-72681192D02*
G01*
X146370785Y-72684756D01*
X146394345Y-72690657D01*
X146417214Y-72698840D01*
X146439171Y-72709224D01*
X146460004Y-72721711D01*
X146479512Y-72736180D01*
X146497509Y-72752491D01*
X146513820Y-72770488D01*
X146528289Y-72789996D01*
X146540776Y-72810829D01*
X146551160Y-72832786D01*
X146559343Y-72855655D01*
X146565244Y-72879215D01*
X146568808Y-72903241D01*
X146570000Y-72927500D01*
X146570000Y-73422500D01*
X146568808Y-73446759D01*
X146565244Y-73470785D01*
X146559343Y-73494345D01*
X146551160Y-73517214D01*
X146540776Y-73539171D01*
X146528289Y-73560004D01*
X146513820Y-73579512D01*
X146497509Y-73597509D01*
X146479512Y-73613820D01*
X146460004Y-73628289D01*
X146439171Y-73640776D01*
X146417214Y-73651160D01*
X146394345Y-73659343D01*
X146370785Y-73665244D01*
X146346759Y-73668808D01*
X146322500Y-73670000D01*
X145777500Y-73670000D01*
X145753241Y-73668808D01*
X145729215Y-73665244D01*
X145705655Y-73659343D01*
X145682786Y-73651160D01*
X145660829Y-73640776D01*
X145639996Y-73628289D01*
X145620488Y-73613820D01*
X145602491Y-73597509D01*
X145586180Y-73579512D01*
X145571711Y-73560004D01*
X145559224Y-73539171D01*
X145548840Y-73517214D01*
X145540657Y-73494345D01*
X145534756Y-73470785D01*
X145531192Y-73446759D01*
X145530000Y-73422500D01*
X145530000Y-72927500D01*
X145531192Y-72903241D01*
X145534756Y-72879215D01*
X145540657Y-72855655D01*
X145548840Y-72832786D01*
X145559224Y-72810829D01*
X145571711Y-72789996D01*
X145586180Y-72770488D01*
X145602491Y-72752491D01*
X145620488Y-72736180D01*
X145639996Y-72721711D01*
X145660829Y-72709224D01*
X145682786Y-72698840D01*
X145705655Y-72690657D01*
X145729215Y-72684756D01*
X145753241Y-72681192D01*
X145777500Y-72680000D01*
X146322500Y-72680000D01*
X146346759Y-72681192D01*
X146346759Y-72681192D01*
G37*
D15*
X146050000Y-73175000D03*
D13*
G36*
X136186759Y-73651192D02*
G01*
X136210785Y-73654756D01*
X136234345Y-73660657D01*
X136257214Y-73668840D01*
X136279171Y-73679224D01*
X136300004Y-73691711D01*
X136319512Y-73706180D01*
X136337509Y-73722491D01*
X136353820Y-73740488D01*
X136368289Y-73759996D01*
X136380776Y-73780829D01*
X136391160Y-73802786D01*
X136399343Y-73825655D01*
X136405244Y-73849215D01*
X136408808Y-73873241D01*
X136410000Y-73897500D01*
X136410000Y-74392500D01*
X136408808Y-74416759D01*
X136405244Y-74440785D01*
X136399343Y-74464345D01*
X136391160Y-74487214D01*
X136380776Y-74509171D01*
X136368289Y-74530004D01*
X136353820Y-74549512D01*
X136337509Y-74567509D01*
X136319512Y-74583820D01*
X136300004Y-74598289D01*
X136279171Y-74610776D01*
X136257214Y-74621160D01*
X136234345Y-74629343D01*
X136210785Y-74635244D01*
X136186759Y-74638808D01*
X136162500Y-74640000D01*
X135617500Y-74640000D01*
X135593241Y-74638808D01*
X135569215Y-74635244D01*
X135545655Y-74629343D01*
X135522786Y-74621160D01*
X135500829Y-74610776D01*
X135479996Y-74598289D01*
X135460488Y-74583820D01*
X135442491Y-74567509D01*
X135426180Y-74549512D01*
X135411711Y-74530004D01*
X135399224Y-74509171D01*
X135388840Y-74487214D01*
X135380657Y-74464345D01*
X135374756Y-74440785D01*
X135371192Y-74416759D01*
X135370000Y-74392500D01*
X135370000Y-73897500D01*
X135371192Y-73873241D01*
X135374756Y-73849215D01*
X135380657Y-73825655D01*
X135388840Y-73802786D01*
X135399224Y-73780829D01*
X135411711Y-73759996D01*
X135426180Y-73740488D01*
X135442491Y-73722491D01*
X135460488Y-73706180D01*
X135479996Y-73691711D01*
X135500829Y-73679224D01*
X135522786Y-73668840D01*
X135545655Y-73660657D01*
X135569215Y-73654756D01*
X135593241Y-73651192D01*
X135617500Y-73650000D01*
X136162500Y-73650000D01*
X136186759Y-73651192D01*
X136186759Y-73651192D01*
G37*
D15*
X135890000Y-74145000D03*
D13*
G36*
X136186759Y-72681192D02*
G01*
X136210785Y-72684756D01*
X136234345Y-72690657D01*
X136257214Y-72698840D01*
X136279171Y-72709224D01*
X136300004Y-72721711D01*
X136319512Y-72736180D01*
X136337509Y-72752491D01*
X136353820Y-72770488D01*
X136368289Y-72789996D01*
X136380776Y-72810829D01*
X136391160Y-72832786D01*
X136399343Y-72855655D01*
X136405244Y-72879215D01*
X136408808Y-72903241D01*
X136410000Y-72927500D01*
X136410000Y-73422500D01*
X136408808Y-73446759D01*
X136405244Y-73470785D01*
X136399343Y-73494345D01*
X136391160Y-73517214D01*
X136380776Y-73539171D01*
X136368289Y-73560004D01*
X136353820Y-73579512D01*
X136337509Y-73597509D01*
X136319512Y-73613820D01*
X136300004Y-73628289D01*
X136279171Y-73640776D01*
X136257214Y-73651160D01*
X136234345Y-73659343D01*
X136210785Y-73665244D01*
X136186759Y-73668808D01*
X136162500Y-73670000D01*
X135617500Y-73670000D01*
X135593241Y-73668808D01*
X135569215Y-73665244D01*
X135545655Y-73659343D01*
X135522786Y-73651160D01*
X135500829Y-73640776D01*
X135479996Y-73628289D01*
X135460488Y-73613820D01*
X135442491Y-73597509D01*
X135426180Y-73579512D01*
X135411711Y-73560004D01*
X135399224Y-73539171D01*
X135388840Y-73517214D01*
X135380657Y-73494345D01*
X135374756Y-73470785D01*
X135371192Y-73446759D01*
X135370000Y-73422500D01*
X135370000Y-72927500D01*
X135371192Y-72903241D01*
X135374756Y-72879215D01*
X135380657Y-72855655D01*
X135388840Y-72832786D01*
X135399224Y-72810829D01*
X135411711Y-72789996D01*
X135426180Y-72770488D01*
X135442491Y-72752491D01*
X135460488Y-72736180D01*
X135479996Y-72721711D01*
X135500829Y-72709224D01*
X135522786Y-72698840D01*
X135545655Y-72690657D01*
X135569215Y-72684756D01*
X135593241Y-72681192D01*
X135617500Y-72680000D01*
X136162500Y-72680000D01*
X136186759Y-72681192D01*
X136186759Y-72681192D01*
G37*
D15*
X135890000Y-73175000D03*
D13*
G36*
X126026759Y-73651192D02*
G01*
X126050785Y-73654756D01*
X126074345Y-73660657D01*
X126097214Y-73668840D01*
X126119171Y-73679224D01*
X126140004Y-73691711D01*
X126159512Y-73706180D01*
X126177509Y-73722491D01*
X126193820Y-73740488D01*
X126208289Y-73759996D01*
X126220776Y-73780829D01*
X126231160Y-73802786D01*
X126239343Y-73825655D01*
X126245244Y-73849215D01*
X126248808Y-73873241D01*
X126250000Y-73897500D01*
X126250000Y-74392500D01*
X126248808Y-74416759D01*
X126245244Y-74440785D01*
X126239343Y-74464345D01*
X126231160Y-74487214D01*
X126220776Y-74509171D01*
X126208289Y-74530004D01*
X126193820Y-74549512D01*
X126177509Y-74567509D01*
X126159512Y-74583820D01*
X126140004Y-74598289D01*
X126119171Y-74610776D01*
X126097214Y-74621160D01*
X126074345Y-74629343D01*
X126050785Y-74635244D01*
X126026759Y-74638808D01*
X126002500Y-74640000D01*
X125457500Y-74640000D01*
X125433241Y-74638808D01*
X125409215Y-74635244D01*
X125385655Y-74629343D01*
X125362786Y-74621160D01*
X125340829Y-74610776D01*
X125319996Y-74598289D01*
X125300488Y-74583820D01*
X125282491Y-74567509D01*
X125266180Y-74549512D01*
X125251711Y-74530004D01*
X125239224Y-74509171D01*
X125228840Y-74487214D01*
X125220657Y-74464345D01*
X125214756Y-74440785D01*
X125211192Y-74416759D01*
X125210000Y-74392500D01*
X125210000Y-73897500D01*
X125211192Y-73873241D01*
X125214756Y-73849215D01*
X125220657Y-73825655D01*
X125228840Y-73802786D01*
X125239224Y-73780829D01*
X125251711Y-73759996D01*
X125266180Y-73740488D01*
X125282491Y-73722491D01*
X125300488Y-73706180D01*
X125319996Y-73691711D01*
X125340829Y-73679224D01*
X125362786Y-73668840D01*
X125385655Y-73660657D01*
X125409215Y-73654756D01*
X125433241Y-73651192D01*
X125457500Y-73650000D01*
X126002500Y-73650000D01*
X126026759Y-73651192D01*
X126026759Y-73651192D01*
G37*
D15*
X125730000Y-74145000D03*
D13*
G36*
X126026759Y-72681192D02*
G01*
X126050785Y-72684756D01*
X126074345Y-72690657D01*
X126097214Y-72698840D01*
X126119171Y-72709224D01*
X126140004Y-72721711D01*
X126159512Y-72736180D01*
X126177509Y-72752491D01*
X126193820Y-72770488D01*
X126208289Y-72789996D01*
X126220776Y-72810829D01*
X126231160Y-72832786D01*
X126239343Y-72855655D01*
X126245244Y-72879215D01*
X126248808Y-72903241D01*
X126250000Y-72927500D01*
X126250000Y-73422500D01*
X126248808Y-73446759D01*
X126245244Y-73470785D01*
X126239343Y-73494345D01*
X126231160Y-73517214D01*
X126220776Y-73539171D01*
X126208289Y-73560004D01*
X126193820Y-73579512D01*
X126177509Y-73597509D01*
X126159512Y-73613820D01*
X126140004Y-73628289D01*
X126119171Y-73640776D01*
X126097214Y-73651160D01*
X126074345Y-73659343D01*
X126050785Y-73665244D01*
X126026759Y-73668808D01*
X126002500Y-73670000D01*
X125457500Y-73670000D01*
X125433241Y-73668808D01*
X125409215Y-73665244D01*
X125385655Y-73659343D01*
X125362786Y-73651160D01*
X125340829Y-73640776D01*
X125319996Y-73628289D01*
X125300488Y-73613820D01*
X125282491Y-73597509D01*
X125266180Y-73579512D01*
X125251711Y-73560004D01*
X125239224Y-73539171D01*
X125228840Y-73517214D01*
X125220657Y-73494345D01*
X125214756Y-73470785D01*
X125211192Y-73446759D01*
X125210000Y-73422500D01*
X125210000Y-72927500D01*
X125211192Y-72903241D01*
X125214756Y-72879215D01*
X125220657Y-72855655D01*
X125228840Y-72832786D01*
X125239224Y-72810829D01*
X125251711Y-72789996D01*
X125266180Y-72770488D01*
X125282491Y-72752491D01*
X125300488Y-72736180D01*
X125319996Y-72721711D01*
X125340829Y-72709224D01*
X125362786Y-72698840D01*
X125385655Y-72690657D01*
X125409215Y-72684756D01*
X125433241Y-72681192D01*
X125457500Y-72680000D01*
X126002500Y-72680000D01*
X126026759Y-72681192D01*
X126026759Y-72681192D01*
G37*
D15*
X125730000Y-73175000D03*
D13*
G36*
X115866759Y-73651192D02*
G01*
X115890785Y-73654756D01*
X115914345Y-73660657D01*
X115937214Y-73668840D01*
X115959171Y-73679224D01*
X115980004Y-73691711D01*
X115999512Y-73706180D01*
X116017509Y-73722491D01*
X116033820Y-73740488D01*
X116048289Y-73759996D01*
X116060776Y-73780829D01*
X116071160Y-73802786D01*
X116079343Y-73825655D01*
X116085244Y-73849215D01*
X116088808Y-73873241D01*
X116090000Y-73897500D01*
X116090000Y-74392500D01*
X116088808Y-74416759D01*
X116085244Y-74440785D01*
X116079343Y-74464345D01*
X116071160Y-74487214D01*
X116060776Y-74509171D01*
X116048289Y-74530004D01*
X116033820Y-74549512D01*
X116017509Y-74567509D01*
X115999512Y-74583820D01*
X115980004Y-74598289D01*
X115959171Y-74610776D01*
X115937214Y-74621160D01*
X115914345Y-74629343D01*
X115890785Y-74635244D01*
X115866759Y-74638808D01*
X115842500Y-74640000D01*
X115297500Y-74640000D01*
X115273241Y-74638808D01*
X115249215Y-74635244D01*
X115225655Y-74629343D01*
X115202786Y-74621160D01*
X115180829Y-74610776D01*
X115159996Y-74598289D01*
X115140488Y-74583820D01*
X115122491Y-74567509D01*
X115106180Y-74549512D01*
X115091711Y-74530004D01*
X115079224Y-74509171D01*
X115068840Y-74487214D01*
X115060657Y-74464345D01*
X115054756Y-74440785D01*
X115051192Y-74416759D01*
X115050000Y-74392500D01*
X115050000Y-73897500D01*
X115051192Y-73873241D01*
X115054756Y-73849215D01*
X115060657Y-73825655D01*
X115068840Y-73802786D01*
X115079224Y-73780829D01*
X115091711Y-73759996D01*
X115106180Y-73740488D01*
X115122491Y-73722491D01*
X115140488Y-73706180D01*
X115159996Y-73691711D01*
X115180829Y-73679224D01*
X115202786Y-73668840D01*
X115225655Y-73660657D01*
X115249215Y-73654756D01*
X115273241Y-73651192D01*
X115297500Y-73650000D01*
X115842500Y-73650000D01*
X115866759Y-73651192D01*
X115866759Y-73651192D01*
G37*
D15*
X115570000Y-74145000D03*
D13*
G36*
X115866759Y-72681192D02*
G01*
X115890785Y-72684756D01*
X115914345Y-72690657D01*
X115937214Y-72698840D01*
X115959171Y-72709224D01*
X115980004Y-72721711D01*
X115999512Y-72736180D01*
X116017509Y-72752491D01*
X116033820Y-72770488D01*
X116048289Y-72789996D01*
X116060776Y-72810829D01*
X116071160Y-72832786D01*
X116079343Y-72855655D01*
X116085244Y-72879215D01*
X116088808Y-72903241D01*
X116090000Y-72927500D01*
X116090000Y-73422500D01*
X116088808Y-73446759D01*
X116085244Y-73470785D01*
X116079343Y-73494345D01*
X116071160Y-73517214D01*
X116060776Y-73539171D01*
X116048289Y-73560004D01*
X116033820Y-73579512D01*
X116017509Y-73597509D01*
X115999512Y-73613820D01*
X115980004Y-73628289D01*
X115959171Y-73640776D01*
X115937214Y-73651160D01*
X115914345Y-73659343D01*
X115890785Y-73665244D01*
X115866759Y-73668808D01*
X115842500Y-73670000D01*
X115297500Y-73670000D01*
X115273241Y-73668808D01*
X115249215Y-73665244D01*
X115225655Y-73659343D01*
X115202786Y-73651160D01*
X115180829Y-73640776D01*
X115159996Y-73628289D01*
X115140488Y-73613820D01*
X115122491Y-73597509D01*
X115106180Y-73579512D01*
X115091711Y-73560004D01*
X115079224Y-73539171D01*
X115068840Y-73517214D01*
X115060657Y-73494345D01*
X115054756Y-73470785D01*
X115051192Y-73446759D01*
X115050000Y-73422500D01*
X115050000Y-72927500D01*
X115051192Y-72903241D01*
X115054756Y-72879215D01*
X115060657Y-72855655D01*
X115068840Y-72832786D01*
X115079224Y-72810829D01*
X115091711Y-72789996D01*
X115106180Y-72770488D01*
X115122491Y-72752491D01*
X115140488Y-72736180D01*
X115159996Y-72721711D01*
X115180829Y-72709224D01*
X115202786Y-72698840D01*
X115225655Y-72690657D01*
X115249215Y-72684756D01*
X115273241Y-72681192D01*
X115297500Y-72680000D01*
X115842500Y-72680000D01*
X115866759Y-72681192D01*
X115866759Y-72681192D01*
G37*
D15*
X115570000Y-73175000D03*
D13*
G36*
X105706759Y-73651192D02*
G01*
X105730785Y-73654756D01*
X105754345Y-73660657D01*
X105777214Y-73668840D01*
X105799171Y-73679224D01*
X105820004Y-73691711D01*
X105839512Y-73706180D01*
X105857509Y-73722491D01*
X105873820Y-73740488D01*
X105888289Y-73759996D01*
X105900776Y-73780829D01*
X105911160Y-73802786D01*
X105919343Y-73825655D01*
X105925244Y-73849215D01*
X105928808Y-73873241D01*
X105930000Y-73897500D01*
X105930000Y-74392500D01*
X105928808Y-74416759D01*
X105925244Y-74440785D01*
X105919343Y-74464345D01*
X105911160Y-74487214D01*
X105900776Y-74509171D01*
X105888289Y-74530004D01*
X105873820Y-74549512D01*
X105857509Y-74567509D01*
X105839512Y-74583820D01*
X105820004Y-74598289D01*
X105799171Y-74610776D01*
X105777214Y-74621160D01*
X105754345Y-74629343D01*
X105730785Y-74635244D01*
X105706759Y-74638808D01*
X105682500Y-74640000D01*
X105137500Y-74640000D01*
X105113241Y-74638808D01*
X105089215Y-74635244D01*
X105065655Y-74629343D01*
X105042786Y-74621160D01*
X105020829Y-74610776D01*
X104999996Y-74598289D01*
X104980488Y-74583820D01*
X104962491Y-74567509D01*
X104946180Y-74549512D01*
X104931711Y-74530004D01*
X104919224Y-74509171D01*
X104908840Y-74487214D01*
X104900657Y-74464345D01*
X104894756Y-74440785D01*
X104891192Y-74416759D01*
X104890000Y-74392500D01*
X104890000Y-73897500D01*
X104891192Y-73873241D01*
X104894756Y-73849215D01*
X104900657Y-73825655D01*
X104908840Y-73802786D01*
X104919224Y-73780829D01*
X104931711Y-73759996D01*
X104946180Y-73740488D01*
X104962491Y-73722491D01*
X104980488Y-73706180D01*
X104999996Y-73691711D01*
X105020829Y-73679224D01*
X105042786Y-73668840D01*
X105065655Y-73660657D01*
X105089215Y-73654756D01*
X105113241Y-73651192D01*
X105137500Y-73650000D01*
X105682500Y-73650000D01*
X105706759Y-73651192D01*
X105706759Y-73651192D01*
G37*
D15*
X105410000Y-74145000D03*
D13*
G36*
X105706759Y-72681192D02*
G01*
X105730785Y-72684756D01*
X105754345Y-72690657D01*
X105777214Y-72698840D01*
X105799171Y-72709224D01*
X105820004Y-72721711D01*
X105839512Y-72736180D01*
X105857509Y-72752491D01*
X105873820Y-72770488D01*
X105888289Y-72789996D01*
X105900776Y-72810829D01*
X105911160Y-72832786D01*
X105919343Y-72855655D01*
X105925244Y-72879215D01*
X105928808Y-72903241D01*
X105930000Y-72927500D01*
X105930000Y-73422500D01*
X105928808Y-73446759D01*
X105925244Y-73470785D01*
X105919343Y-73494345D01*
X105911160Y-73517214D01*
X105900776Y-73539171D01*
X105888289Y-73560004D01*
X105873820Y-73579512D01*
X105857509Y-73597509D01*
X105839512Y-73613820D01*
X105820004Y-73628289D01*
X105799171Y-73640776D01*
X105777214Y-73651160D01*
X105754345Y-73659343D01*
X105730785Y-73665244D01*
X105706759Y-73668808D01*
X105682500Y-73670000D01*
X105137500Y-73670000D01*
X105113241Y-73668808D01*
X105089215Y-73665244D01*
X105065655Y-73659343D01*
X105042786Y-73651160D01*
X105020829Y-73640776D01*
X104999996Y-73628289D01*
X104980488Y-73613820D01*
X104962491Y-73597509D01*
X104946180Y-73579512D01*
X104931711Y-73560004D01*
X104919224Y-73539171D01*
X104908840Y-73517214D01*
X104900657Y-73494345D01*
X104894756Y-73470785D01*
X104891192Y-73446759D01*
X104890000Y-73422500D01*
X104890000Y-72927500D01*
X104891192Y-72903241D01*
X104894756Y-72879215D01*
X104900657Y-72855655D01*
X104908840Y-72832786D01*
X104919224Y-72810829D01*
X104931711Y-72789996D01*
X104946180Y-72770488D01*
X104962491Y-72752491D01*
X104980488Y-72736180D01*
X104999996Y-72721711D01*
X105020829Y-72709224D01*
X105042786Y-72698840D01*
X105065655Y-72690657D01*
X105089215Y-72684756D01*
X105113241Y-72681192D01*
X105137500Y-72680000D01*
X105682500Y-72680000D01*
X105706759Y-72681192D01*
X105706759Y-72681192D01*
G37*
D15*
X105410000Y-73175000D03*
D13*
G36*
X95546759Y-73801192D02*
G01*
X95570785Y-73804756D01*
X95594345Y-73810657D01*
X95617214Y-73818840D01*
X95639171Y-73829224D01*
X95660004Y-73841711D01*
X95679512Y-73856180D01*
X95697509Y-73872491D01*
X95713820Y-73890488D01*
X95728289Y-73909996D01*
X95740776Y-73930829D01*
X95751160Y-73952786D01*
X95759343Y-73975655D01*
X95765244Y-73999215D01*
X95768808Y-74023241D01*
X95770000Y-74047500D01*
X95770000Y-74542500D01*
X95768808Y-74566759D01*
X95765244Y-74590785D01*
X95759343Y-74614345D01*
X95751160Y-74637214D01*
X95740776Y-74659171D01*
X95728289Y-74680004D01*
X95713820Y-74699512D01*
X95697509Y-74717509D01*
X95679512Y-74733820D01*
X95660004Y-74748289D01*
X95639171Y-74760776D01*
X95617214Y-74771160D01*
X95594345Y-74779343D01*
X95570785Y-74785244D01*
X95546759Y-74788808D01*
X95522500Y-74790000D01*
X94977500Y-74790000D01*
X94953241Y-74788808D01*
X94929215Y-74785244D01*
X94905655Y-74779343D01*
X94882786Y-74771160D01*
X94860829Y-74760776D01*
X94839996Y-74748289D01*
X94820488Y-74733820D01*
X94802491Y-74717509D01*
X94786180Y-74699512D01*
X94771711Y-74680004D01*
X94759224Y-74659171D01*
X94748840Y-74637214D01*
X94740657Y-74614345D01*
X94734756Y-74590785D01*
X94731192Y-74566759D01*
X94730000Y-74542500D01*
X94730000Y-74047500D01*
X94731192Y-74023241D01*
X94734756Y-73999215D01*
X94740657Y-73975655D01*
X94748840Y-73952786D01*
X94759224Y-73930829D01*
X94771711Y-73909996D01*
X94786180Y-73890488D01*
X94802491Y-73872491D01*
X94820488Y-73856180D01*
X94839996Y-73841711D01*
X94860829Y-73829224D01*
X94882786Y-73818840D01*
X94905655Y-73810657D01*
X94929215Y-73804756D01*
X94953241Y-73801192D01*
X94977500Y-73800000D01*
X95522500Y-73800000D01*
X95546759Y-73801192D01*
X95546759Y-73801192D01*
G37*
D15*
X95250000Y-74295000D03*
D13*
G36*
X95546759Y-72831192D02*
G01*
X95570785Y-72834756D01*
X95594345Y-72840657D01*
X95617214Y-72848840D01*
X95639171Y-72859224D01*
X95660004Y-72871711D01*
X95679512Y-72886180D01*
X95697509Y-72902491D01*
X95713820Y-72920488D01*
X95728289Y-72939996D01*
X95740776Y-72960829D01*
X95751160Y-72982786D01*
X95759343Y-73005655D01*
X95765244Y-73029215D01*
X95768808Y-73053241D01*
X95770000Y-73077500D01*
X95770000Y-73572500D01*
X95768808Y-73596759D01*
X95765244Y-73620785D01*
X95759343Y-73644345D01*
X95751160Y-73667214D01*
X95740776Y-73689171D01*
X95728289Y-73710004D01*
X95713820Y-73729512D01*
X95697509Y-73747509D01*
X95679512Y-73763820D01*
X95660004Y-73778289D01*
X95639171Y-73790776D01*
X95617214Y-73801160D01*
X95594345Y-73809343D01*
X95570785Y-73815244D01*
X95546759Y-73818808D01*
X95522500Y-73820000D01*
X94977500Y-73820000D01*
X94953241Y-73818808D01*
X94929215Y-73815244D01*
X94905655Y-73809343D01*
X94882786Y-73801160D01*
X94860829Y-73790776D01*
X94839996Y-73778289D01*
X94820488Y-73763820D01*
X94802491Y-73747509D01*
X94786180Y-73729512D01*
X94771711Y-73710004D01*
X94759224Y-73689171D01*
X94748840Y-73667214D01*
X94740657Y-73644345D01*
X94734756Y-73620785D01*
X94731192Y-73596759D01*
X94730000Y-73572500D01*
X94730000Y-73077500D01*
X94731192Y-73053241D01*
X94734756Y-73029215D01*
X94740657Y-73005655D01*
X94748840Y-72982786D01*
X94759224Y-72960829D01*
X94771711Y-72939996D01*
X94786180Y-72920488D01*
X94802491Y-72902491D01*
X94820488Y-72886180D01*
X94839996Y-72871711D01*
X94860829Y-72859224D01*
X94882786Y-72848840D01*
X94905655Y-72840657D01*
X94929215Y-72834756D01*
X94953241Y-72831192D01*
X94977500Y-72830000D01*
X95522500Y-72830000D01*
X95546759Y-72831192D01*
X95546759Y-72831192D01*
G37*
D15*
X95250000Y-73325000D03*
D16*
X93472000Y-79105000D03*
X92522000Y-77105000D03*
X94422000Y-77105000D03*
D17*
X119605000Y-85090000D03*
X112805000Y-85090000D03*
X119605000Y-93345000D03*
X112805000Y-93345000D03*
D13*
G36*
X93512759Y-129910192D02*
G01*
X93536785Y-129913756D01*
X93560345Y-129919657D01*
X93583214Y-129927840D01*
X93605171Y-129938224D01*
X93626004Y-129950711D01*
X93645512Y-129965180D01*
X93663509Y-129981491D01*
X93679820Y-129999488D01*
X93694289Y-130018996D01*
X93706776Y-130039829D01*
X93717160Y-130061786D01*
X93725343Y-130084655D01*
X93731244Y-130108215D01*
X93734808Y-130132241D01*
X93736000Y-130156500D01*
X93736000Y-130701500D01*
X93734808Y-130725759D01*
X93731244Y-130749785D01*
X93725343Y-130773345D01*
X93717160Y-130796214D01*
X93706776Y-130818171D01*
X93694289Y-130839004D01*
X93679820Y-130858512D01*
X93663509Y-130876509D01*
X93645512Y-130892820D01*
X93626004Y-130907289D01*
X93605171Y-130919776D01*
X93583214Y-130930160D01*
X93560345Y-130938343D01*
X93536785Y-130944244D01*
X93512759Y-130947808D01*
X93488500Y-130949000D01*
X92993500Y-130949000D01*
X92969241Y-130947808D01*
X92945215Y-130944244D01*
X92921655Y-130938343D01*
X92898786Y-130930160D01*
X92876829Y-130919776D01*
X92855996Y-130907289D01*
X92836488Y-130892820D01*
X92818491Y-130876509D01*
X92802180Y-130858512D01*
X92787711Y-130839004D01*
X92775224Y-130818171D01*
X92764840Y-130796214D01*
X92756657Y-130773345D01*
X92750756Y-130749785D01*
X92747192Y-130725759D01*
X92746000Y-130701500D01*
X92746000Y-130156500D01*
X92747192Y-130132241D01*
X92750756Y-130108215D01*
X92756657Y-130084655D01*
X92764840Y-130061786D01*
X92775224Y-130039829D01*
X92787711Y-130018996D01*
X92802180Y-129999488D01*
X92818491Y-129981491D01*
X92836488Y-129965180D01*
X92855996Y-129950711D01*
X92876829Y-129938224D01*
X92898786Y-129927840D01*
X92921655Y-129919657D01*
X92945215Y-129913756D01*
X92969241Y-129910192D01*
X92993500Y-129909000D01*
X93488500Y-129909000D01*
X93512759Y-129910192D01*
X93512759Y-129910192D01*
G37*
D15*
X93241000Y-130429000D03*
D13*
G36*
X94482759Y-129910192D02*
G01*
X94506785Y-129913756D01*
X94530345Y-129919657D01*
X94553214Y-129927840D01*
X94575171Y-129938224D01*
X94596004Y-129950711D01*
X94615512Y-129965180D01*
X94633509Y-129981491D01*
X94649820Y-129999488D01*
X94664289Y-130018996D01*
X94676776Y-130039829D01*
X94687160Y-130061786D01*
X94695343Y-130084655D01*
X94701244Y-130108215D01*
X94704808Y-130132241D01*
X94706000Y-130156500D01*
X94706000Y-130701500D01*
X94704808Y-130725759D01*
X94701244Y-130749785D01*
X94695343Y-130773345D01*
X94687160Y-130796214D01*
X94676776Y-130818171D01*
X94664289Y-130839004D01*
X94649820Y-130858512D01*
X94633509Y-130876509D01*
X94615512Y-130892820D01*
X94596004Y-130907289D01*
X94575171Y-130919776D01*
X94553214Y-130930160D01*
X94530345Y-130938343D01*
X94506785Y-130944244D01*
X94482759Y-130947808D01*
X94458500Y-130949000D01*
X93963500Y-130949000D01*
X93939241Y-130947808D01*
X93915215Y-130944244D01*
X93891655Y-130938343D01*
X93868786Y-130930160D01*
X93846829Y-130919776D01*
X93825996Y-130907289D01*
X93806488Y-130892820D01*
X93788491Y-130876509D01*
X93772180Y-130858512D01*
X93757711Y-130839004D01*
X93745224Y-130818171D01*
X93734840Y-130796214D01*
X93726657Y-130773345D01*
X93720756Y-130749785D01*
X93717192Y-130725759D01*
X93716000Y-130701500D01*
X93716000Y-130156500D01*
X93717192Y-130132241D01*
X93720756Y-130108215D01*
X93726657Y-130084655D01*
X93734840Y-130061786D01*
X93745224Y-130039829D01*
X93757711Y-130018996D01*
X93772180Y-129999488D01*
X93788491Y-129981491D01*
X93806488Y-129965180D01*
X93825996Y-129950711D01*
X93846829Y-129938224D01*
X93868786Y-129927840D01*
X93891655Y-129919657D01*
X93915215Y-129913756D01*
X93939241Y-129910192D01*
X93963500Y-129909000D01*
X94458500Y-129909000D01*
X94482759Y-129910192D01*
X94482759Y-129910192D01*
G37*
D15*
X94211000Y-130429000D03*
D13*
G36*
X93512759Y-132450192D02*
G01*
X93536785Y-132453756D01*
X93560345Y-132459657D01*
X93583214Y-132467840D01*
X93605171Y-132478224D01*
X93626004Y-132490711D01*
X93645512Y-132505180D01*
X93663509Y-132521491D01*
X93679820Y-132539488D01*
X93694289Y-132558996D01*
X93706776Y-132579829D01*
X93717160Y-132601786D01*
X93725343Y-132624655D01*
X93731244Y-132648215D01*
X93734808Y-132672241D01*
X93736000Y-132696500D01*
X93736000Y-133241500D01*
X93734808Y-133265759D01*
X93731244Y-133289785D01*
X93725343Y-133313345D01*
X93717160Y-133336214D01*
X93706776Y-133358171D01*
X93694289Y-133379004D01*
X93679820Y-133398512D01*
X93663509Y-133416509D01*
X93645512Y-133432820D01*
X93626004Y-133447289D01*
X93605171Y-133459776D01*
X93583214Y-133470160D01*
X93560345Y-133478343D01*
X93536785Y-133484244D01*
X93512759Y-133487808D01*
X93488500Y-133489000D01*
X92993500Y-133489000D01*
X92969241Y-133487808D01*
X92945215Y-133484244D01*
X92921655Y-133478343D01*
X92898786Y-133470160D01*
X92876829Y-133459776D01*
X92855996Y-133447289D01*
X92836488Y-133432820D01*
X92818491Y-133416509D01*
X92802180Y-133398512D01*
X92787711Y-133379004D01*
X92775224Y-133358171D01*
X92764840Y-133336214D01*
X92756657Y-133313345D01*
X92750756Y-133289785D01*
X92747192Y-133265759D01*
X92746000Y-133241500D01*
X92746000Y-132696500D01*
X92747192Y-132672241D01*
X92750756Y-132648215D01*
X92756657Y-132624655D01*
X92764840Y-132601786D01*
X92775224Y-132579829D01*
X92787711Y-132558996D01*
X92802180Y-132539488D01*
X92818491Y-132521491D01*
X92836488Y-132505180D01*
X92855996Y-132490711D01*
X92876829Y-132478224D01*
X92898786Y-132467840D01*
X92921655Y-132459657D01*
X92945215Y-132453756D01*
X92969241Y-132450192D01*
X92993500Y-132449000D01*
X93488500Y-132449000D01*
X93512759Y-132450192D01*
X93512759Y-132450192D01*
G37*
D15*
X93241000Y-132969000D03*
D13*
G36*
X94482759Y-132450192D02*
G01*
X94506785Y-132453756D01*
X94530345Y-132459657D01*
X94553214Y-132467840D01*
X94575171Y-132478224D01*
X94596004Y-132490711D01*
X94615512Y-132505180D01*
X94633509Y-132521491D01*
X94649820Y-132539488D01*
X94664289Y-132558996D01*
X94676776Y-132579829D01*
X94687160Y-132601786D01*
X94695343Y-132624655D01*
X94701244Y-132648215D01*
X94704808Y-132672241D01*
X94706000Y-132696500D01*
X94706000Y-133241500D01*
X94704808Y-133265759D01*
X94701244Y-133289785D01*
X94695343Y-133313345D01*
X94687160Y-133336214D01*
X94676776Y-133358171D01*
X94664289Y-133379004D01*
X94649820Y-133398512D01*
X94633509Y-133416509D01*
X94615512Y-133432820D01*
X94596004Y-133447289D01*
X94575171Y-133459776D01*
X94553214Y-133470160D01*
X94530345Y-133478343D01*
X94506785Y-133484244D01*
X94482759Y-133487808D01*
X94458500Y-133489000D01*
X93963500Y-133489000D01*
X93939241Y-133487808D01*
X93915215Y-133484244D01*
X93891655Y-133478343D01*
X93868786Y-133470160D01*
X93846829Y-133459776D01*
X93825996Y-133447289D01*
X93806488Y-133432820D01*
X93788491Y-133416509D01*
X93772180Y-133398512D01*
X93757711Y-133379004D01*
X93745224Y-133358171D01*
X93734840Y-133336214D01*
X93726657Y-133313345D01*
X93720756Y-133289785D01*
X93717192Y-133265759D01*
X93716000Y-133241500D01*
X93716000Y-132696500D01*
X93717192Y-132672241D01*
X93720756Y-132648215D01*
X93726657Y-132624655D01*
X93734840Y-132601786D01*
X93745224Y-132579829D01*
X93757711Y-132558996D01*
X93772180Y-132539488D01*
X93788491Y-132521491D01*
X93806488Y-132505180D01*
X93825996Y-132490711D01*
X93846829Y-132478224D01*
X93868786Y-132467840D01*
X93891655Y-132459657D01*
X93915215Y-132453756D01*
X93939241Y-132450192D01*
X93963500Y-132449000D01*
X94458500Y-132449000D01*
X94482759Y-132450192D01*
X94482759Y-132450192D01*
G37*
D15*
X94211000Y-132969000D03*
D13*
G36*
X93512759Y-134990192D02*
G01*
X93536785Y-134993756D01*
X93560345Y-134999657D01*
X93583214Y-135007840D01*
X93605171Y-135018224D01*
X93626004Y-135030711D01*
X93645512Y-135045180D01*
X93663509Y-135061491D01*
X93679820Y-135079488D01*
X93694289Y-135098996D01*
X93706776Y-135119829D01*
X93717160Y-135141786D01*
X93725343Y-135164655D01*
X93731244Y-135188215D01*
X93734808Y-135212241D01*
X93736000Y-135236500D01*
X93736000Y-135781500D01*
X93734808Y-135805759D01*
X93731244Y-135829785D01*
X93725343Y-135853345D01*
X93717160Y-135876214D01*
X93706776Y-135898171D01*
X93694289Y-135919004D01*
X93679820Y-135938512D01*
X93663509Y-135956509D01*
X93645512Y-135972820D01*
X93626004Y-135987289D01*
X93605171Y-135999776D01*
X93583214Y-136010160D01*
X93560345Y-136018343D01*
X93536785Y-136024244D01*
X93512759Y-136027808D01*
X93488500Y-136029000D01*
X92993500Y-136029000D01*
X92969241Y-136027808D01*
X92945215Y-136024244D01*
X92921655Y-136018343D01*
X92898786Y-136010160D01*
X92876829Y-135999776D01*
X92855996Y-135987289D01*
X92836488Y-135972820D01*
X92818491Y-135956509D01*
X92802180Y-135938512D01*
X92787711Y-135919004D01*
X92775224Y-135898171D01*
X92764840Y-135876214D01*
X92756657Y-135853345D01*
X92750756Y-135829785D01*
X92747192Y-135805759D01*
X92746000Y-135781500D01*
X92746000Y-135236500D01*
X92747192Y-135212241D01*
X92750756Y-135188215D01*
X92756657Y-135164655D01*
X92764840Y-135141786D01*
X92775224Y-135119829D01*
X92787711Y-135098996D01*
X92802180Y-135079488D01*
X92818491Y-135061491D01*
X92836488Y-135045180D01*
X92855996Y-135030711D01*
X92876829Y-135018224D01*
X92898786Y-135007840D01*
X92921655Y-134999657D01*
X92945215Y-134993756D01*
X92969241Y-134990192D01*
X92993500Y-134989000D01*
X93488500Y-134989000D01*
X93512759Y-134990192D01*
X93512759Y-134990192D01*
G37*
D15*
X93241000Y-135509000D03*
D13*
G36*
X94482759Y-134990192D02*
G01*
X94506785Y-134993756D01*
X94530345Y-134999657D01*
X94553214Y-135007840D01*
X94575171Y-135018224D01*
X94596004Y-135030711D01*
X94615512Y-135045180D01*
X94633509Y-135061491D01*
X94649820Y-135079488D01*
X94664289Y-135098996D01*
X94676776Y-135119829D01*
X94687160Y-135141786D01*
X94695343Y-135164655D01*
X94701244Y-135188215D01*
X94704808Y-135212241D01*
X94706000Y-135236500D01*
X94706000Y-135781500D01*
X94704808Y-135805759D01*
X94701244Y-135829785D01*
X94695343Y-135853345D01*
X94687160Y-135876214D01*
X94676776Y-135898171D01*
X94664289Y-135919004D01*
X94649820Y-135938512D01*
X94633509Y-135956509D01*
X94615512Y-135972820D01*
X94596004Y-135987289D01*
X94575171Y-135999776D01*
X94553214Y-136010160D01*
X94530345Y-136018343D01*
X94506785Y-136024244D01*
X94482759Y-136027808D01*
X94458500Y-136029000D01*
X93963500Y-136029000D01*
X93939241Y-136027808D01*
X93915215Y-136024244D01*
X93891655Y-136018343D01*
X93868786Y-136010160D01*
X93846829Y-135999776D01*
X93825996Y-135987289D01*
X93806488Y-135972820D01*
X93788491Y-135956509D01*
X93772180Y-135938512D01*
X93757711Y-135919004D01*
X93745224Y-135898171D01*
X93734840Y-135876214D01*
X93726657Y-135853345D01*
X93720756Y-135829785D01*
X93717192Y-135805759D01*
X93716000Y-135781500D01*
X93716000Y-135236500D01*
X93717192Y-135212241D01*
X93720756Y-135188215D01*
X93726657Y-135164655D01*
X93734840Y-135141786D01*
X93745224Y-135119829D01*
X93757711Y-135098996D01*
X93772180Y-135079488D01*
X93788491Y-135061491D01*
X93806488Y-135045180D01*
X93825996Y-135030711D01*
X93846829Y-135018224D01*
X93868786Y-135007840D01*
X93891655Y-134999657D01*
X93915215Y-134993756D01*
X93939241Y-134990192D01*
X93963500Y-134989000D01*
X94458500Y-134989000D01*
X94482759Y-134990192D01*
X94482759Y-134990192D01*
G37*
D15*
X94211000Y-135509000D03*
D13*
G36*
X93489759Y-137530192D02*
G01*
X93513785Y-137533756D01*
X93537345Y-137539657D01*
X93560214Y-137547840D01*
X93582171Y-137558224D01*
X93603004Y-137570711D01*
X93622512Y-137585180D01*
X93640509Y-137601491D01*
X93656820Y-137619488D01*
X93671289Y-137638996D01*
X93683776Y-137659829D01*
X93694160Y-137681786D01*
X93702343Y-137704655D01*
X93708244Y-137728215D01*
X93711808Y-137752241D01*
X93713000Y-137776500D01*
X93713000Y-138321500D01*
X93711808Y-138345759D01*
X93708244Y-138369785D01*
X93702343Y-138393345D01*
X93694160Y-138416214D01*
X93683776Y-138438171D01*
X93671289Y-138459004D01*
X93656820Y-138478512D01*
X93640509Y-138496509D01*
X93622512Y-138512820D01*
X93603004Y-138527289D01*
X93582171Y-138539776D01*
X93560214Y-138550160D01*
X93537345Y-138558343D01*
X93513785Y-138564244D01*
X93489759Y-138567808D01*
X93465500Y-138569000D01*
X92970500Y-138569000D01*
X92946241Y-138567808D01*
X92922215Y-138564244D01*
X92898655Y-138558343D01*
X92875786Y-138550160D01*
X92853829Y-138539776D01*
X92832996Y-138527289D01*
X92813488Y-138512820D01*
X92795491Y-138496509D01*
X92779180Y-138478512D01*
X92764711Y-138459004D01*
X92752224Y-138438171D01*
X92741840Y-138416214D01*
X92733657Y-138393345D01*
X92727756Y-138369785D01*
X92724192Y-138345759D01*
X92723000Y-138321500D01*
X92723000Y-137776500D01*
X92724192Y-137752241D01*
X92727756Y-137728215D01*
X92733657Y-137704655D01*
X92741840Y-137681786D01*
X92752224Y-137659829D01*
X92764711Y-137638996D01*
X92779180Y-137619488D01*
X92795491Y-137601491D01*
X92813488Y-137585180D01*
X92832996Y-137570711D01*
X92853829Y-137558224D01*
X92875786Y-137547840D01*
X92898655Y-137539657D01*
X92922215Y-137533756D01*
X92946241Y-137530192D01*
X92970500Y-137529000D01*
X93465500Y-137529000D01*
X93489759Y-137530192D01*
X93489759Y-137530192D01*
G37*
D15*
X93218000Y-138049000D03*
D13*
G36*
X94459759Y-137530192D02*
G01*
X94483785Y-137533756D01*
X94507345Y-137539657D01*
X94530214Y-137547840D01*
X94552171Y-137558224D01*
X94573004Y-137570711D01*
X94592512Y-137585180D01*
X94610509Y-137601491D01*
X94626820Y-137619488D01*
X94641289Y-137638996D01*
X94653776Y-137659829D01*
X94664160Y-137681786D01*
X94672343Y-137704655D01*
X94678244Y-137728215D01*
X94681808Y-137752241D01*
X94683000Y-137776500D01*
X94683000Y-138321500D01*
X94681808Y-138345759D01*
X94678244Y-138369785D01*
X94672343Y-138393345D01*
X94664160Y-138416214D01*
X94653776Y-138438171D01*
X94641289Y-138459004D01*
X94626820Y-138478512D01*
X94610509Y-138496509D01*
X94592512Y-138512820D01*
X94573004Y-138527289D01*
X94552171Y-138539776D01*
X94530214Y-138550160D01*
X94507345Y-138558343D01*
X94483785Y-138564244D01*
X94459759Y-138567808D01*
X94435500Y-138569000D01*
X93940500Y-138569000D01*
X93916241Y-138567808D01*
X93892215Y-138564244D01*
X93868655Y-138558343D01*
X93845786Y-138550160D01*
X93823829Y-138539776D01*
X93802996Y-138527289D01*
X93783488Y-138512820D01*
X93765491Y-138496509D01*
X93749180Y-138478512D01*
X93734711Y-138459004D01*
X93722224Y-138438171D01*
X93711840Y-138416214D01*
X93703657Y-138393345D01*
X93697756Y-138369785D01*
X93694192Y-138345759D01*
X93693000Y-138321500D01*
X93693000Y-137776500D01*
X93694192Y-137752241D01*
X93697756Y-137728215D01*
X93703657Y-137704655D01*
X93711840Y-137681786D01*
X93722224Y-137659829D01*
X93734711Y-137638996D01*
X93749180Y-137619488D01*
X93765491Y-137601491D01*
X93783488Y-137585180D01*
X93802996Y-137570711D01*
X93823829Y-137558224D01*
X93845786Y-137547840D01*
X93868655Y-137539657D01*
X93892215Y-137533756D01*
X93916241Y-137530192D01*
X93940500Y-137529000D01*
X94435500Y-137529000D01*
X94459759Y-137530192D01*
X94459759Y-137530192D01*
G37*
D15*
X94188000Y-138049000D03*
D13*
G36*
X93489759Y-140070192D02*
G01*
X93513785Y-140073756D01*
X93537345Y-140079657D01*
X93560214Y-140087840D01*
X93582171Y-140098224D01*
X93603004Y-140110711D01*
X93622512Y-140125180D01*
X93640509Y-140141491D01*
X93656820Y-140159488D01*
X93671289Y-140178996D01*
X93683776Y-140199829D01*
X93694160Y-140221786D01*
X93702343Y-140244655D01*
X93708244Y-140268215D01*
X93711808Y-140292241D01*
X93713000Y-140316500D01*
X93713000Y-140861500D01*
X93711808Y-140885759D01*
X93708244Y-140909785D01*
X93702343Y-140933345D01*
X93694160Y-140956214D01*
X93683776Y-140978171D01*
X93671289Y-140999004D01*
X93656820Y-141018512D01*
X93640509Y-141036509D01*
X93622512Y-141052820D01*
X93603004Y-141067289D01*
X93582171Y-141079776D01*
X93560214Y-141090160D01*
X93537345Y-141098343D01*
X93513785Y-141104244D01*
X93489759Y-141107808D01*
X93465500Y-141109000D01*
X92970500Y-141109000D01*
X92946241Y-141107808D01*
X92922215Y-141104244D01*
X92898655Y-141098343D01*
X92875786Y-141090160D01*
X92853829Y-141079776D01*
X92832996Y-141067289D01*
X92813488Y-141052820D01*
X92795491Y-141036509D01*
X92779180Y-141018512D01*
X92764711Y-140999004D01*
X92752224Y-140978171D01*
X92741840Y-140956214D01*
X92733657Y-140933345D01*
X92727756Y-140909785D01*
X92724192Y-140885759D01*
X92723000Y-140861500D01*
X92723000Y-140316500D01*
X92724192Y-140292241D01*
X92727756Y-140268215D01*
X92733657Y-140244655D01*
X92741840Y-140221786D01*
X92752224Y-140199829D01*
X92764711Y-140178996D01*
X92779180Y-140159488D01*
X92795491Y-140141491D01*
X92813488Y-140125180D01*
X92832996Y-140110711D01*
X92853829Y-140098224D01*
X92875786Y-140087840D01*
X92898655Y-140079657D01*
X92922215Y-140073756D01*
X92946241Y-140070192D01*
X92970500Y-140069000D01*
X93465500Y-140069000D01*
X93489759Y-140070192D01*
X93489759Y-140070192D01*
G37*
D15*
X93218000Y-140589000D03*
D13*
G36*
X94459759Y-140070192D02*
G01*
X94483785Y-140073756D01*
X94507345Y-140079657D01*
X94530214Y-140087840D01*
X94552171Y-140098224D01*
X94573004Y-140110711D01*
X94592512Y-140125180D01*
X94610509Y-140141491D01*
X94626820Y-140159488D01*
X94641289Y-140178996D01*
X94653776Y-140199829D01*
X94664160Y-140221786D01*
X94672343Y-140244655D01*
X94678244Y-140268215D01*
X94681808Y-140292241D01*
X94683000Y-140316500D01*
X94683000Y-140861500D01*
X94681808Y-140885759D01*
X94678244Y-140909785D01*
X94672343Y-140933345D01*
X94664160Y-140956214D01*
X94653776Y-140978171D01*
X94641289Y-140999004D01*
X94626820Y-141018512D01*
X94610509Y-141036509D01*
X94592512Y-141052820D01*
X94573004Y-141067289D01*
X94552171Y-141079776D01*
X94530214Y-141090160D01*
X94507345Y-141098343D01*
X94483785Y-141104244D01*
X94459759Y-141107808D01*
X94435500Y-141109000D01*
X93940500Y-141109000D01*
X93916241Y-141107808D01*
X93892215Y-141104244D01*
X93868655Y-141098343D01*
X93845786Y-141090160D01*
X93823829Y-141079776D01*
X93802996Y-141067289D01*
X93783488Y-141052820D01*
X93765491Y-141036509D01*
X93749180Y-141018512D01*
X93734711Y-140999004D01*
X93722224Y-140978171D01*
X93711840Y-140956214D01*
X93703657Y-140933345D01*
X93697756Y-140909785D01*
X93694192Y-140885759D01*
X93693000Y-140861500D01*
X93693000Y-140316500D01*
X93694192Y-140292241D01*
X93697756Y-140268215D01*
X93703657Y-140244655D01*
X93711840Y-140221786D01*
X93722224Y-140199829D01*
X93734711Y-140178996D01*
X93749180Y-140159488D01*
X93765491Y-140141491D01*
X93783488Y-140125180D01*
X93802996Y-140110711D01*
X93823829Y-140098224D01*
X93845786Y-140087840D01*
X93868655Y-140079657D01*
X93892215Y-140073756D01*
X93916241Y-140070192D01*
X93940500Y-140069000D01*
X94435500Y-140069000D01*
X94459759Y-140070192D01*
X94459759Y-140070192D01*
G37*
D15*
X94188000Y-140589000D03*
D13*
G36*
X93535759Y-142610192D02*
G01*
X93559785Y-142613756D01*
X93583345Y-142619657D01*
X93606214Y-142627840D01*
X93628171Y-142638224D01*
X93649004Y-142650711D01*
X93668512Y-142665180D01*
X93686509Y-142681491D01*
X93702820Y-142699488D01*
X93717289Y-142718996D01*
X93729776Y-142739829D01*
X93740160Y-142761786D01*
X93748343Y-142784655D01*
X93754244Y-142808215D01*
X93757808Y-142832241D01*
X93759000Y-142856500D01*
X93759000Y-143401500D01*
X93757808Y-143425759D01*
X93754244Y-143449785D01*
X93748343Y-143473345D01*
X93740160Y-143496214D01*
X93729776Y-143518171D01*
X93717289Y-143539004D01*
X93702820Y-143558512D01*
X93686509Y-143576509D01*
X93668512Y-143592820D01*
X93649004Y-143607289D01*
X93628171Y-143619776D01*
X93606214Y-143630160D01*
X93583345Y-143638343D01*
X93559785Y-143644244D01*
X93535759Y-143647808D01*
X93511500Y-143649000D01*
X93016500Y-143649000D01*
X92992241Y-143647808D01*
X92968215Y-143644244D01*
X92944655Y-143638343D01*
X92921786Y-143630160D01*
X92899829Y-143619776D01*
X92878996Y-143607289D01*
X92859488Y-143592820D01*
X92841491Y-143576509D01*
X92825180Y-143558512D01*
X92810711Y-143539004D01*
X92798224Y-143518171D01*
X92787840Y-143496214D01*
X92779657Y-143473345D01*
X92773756Y-143449785D01*
X92770192Y-143425759D01*
X92769000Y-143401500D01*
X92769000Y-142856500D01*
X92770192Y-142832241D01*
X92773756Y-142808215D01*
X92779657Y-142784655D01*
X92787840Y-142761786D01*
X92798224Y-142739829D01*
X92810711Y-142718996D01*
X92825180Y-142699488D01*
X92841491Y-142681491D01*
X92859488Y-142665180D01*
X92878996Y-142650711D01*
X92899829Y-142638224D01*
X92921786Y-142627840D01*
X92944655Y-142619657D01*
X92968215Y-142613756D01*
X92992241Y-142610192D01*
X93016500Y-142609000D01*
X93511500Y-142609000D01*
X93535759Y-142610192D01*
X93535759Y-142610192D01*
G37*
D15*
X93264000Y-143129000D03*
D13*
G36*
X94505759Y-142610192D02*
G01*
X94529785Y-142613756D01*
X94553345Y-142619657D01*
X94576214Y-142627840D01*
X94598171Y-142638224D01*
X94619004Y-142650711D01*
X94638512Y-142665180D01*
X94656509Y-142681491D01*
X94672820Y-142699488D01*
X94687289Y-142718996D01*
X94699776Y-142739829D01*
X94710160Y-142761786D01*
X94718343Y-142784655D01*
X94724244Y-142808215D01*
X94727808Y-142832241D01*
X94729000Y-142856500D01*
X94729000Y-143401500D01*
X94727808Y-143425759D01*
X94724244Y-143449785D01*
X94718343Y-143473345D01*
X94710160Y-143496214D01*
X94699776Y-143518171D01*
X94687289Y-143539004D01*
X94672820Y-143558512D01*
X94656509Y-143576509D01*
X94638512Y-143592820D01*
X94619004Y-143607289D01*
X94598171Y-143619776D01*
X94576214Y-143630160D01*
X94553345Y-143638343D01*
X94529785Y-143644244D01*
X94505759Y-143647808D01*
X94481500Y-143649000D01*
X93986500Y-143649000D01*
X93962241Y-143647808D01*
X93938215Y-143644244D01*
X93914655Y-143638343D01*
X93891786Y-143630160D01*
X93869829Y-143619776D01*
X93848996Y-143607289D01*
X93829488Y-143592820D01*
X93811491Y-143576509D01*
X93795180Y-143558512D01*
X93780711Y-143539004D01*
X93768224Y-143518171D01*
X93757840Y-143496214D01*
X93749657Y-143473345D01*
X93743756Y-143449785D01*
X93740192Y-143425759D01*
X93739000Y-143401500D01*
X93739000Y-142856500D01*
X93740192Y-142832241D01*
X93743756Y-142808215D01*
X93749657Y-142784655D01*
X93757840Y-142761786D01*
X93768224Y-142739829D01*
X93780711Y-142718996D01*
X93795180Y-142699488D01*
X93811491Y-142681491D01*
X93829488Y-142665180D01*
X93848996Y-142650711D01*
X93869829Y-142638224D01*
X93891786Y-142627840D01*
X93914655Y-142619657D01*
X93938215Y-142613756D01*
X93962241Y-142610192D01*
X93986500Y-142609000D01*
X94481500Y-142609000D01*
X94505759Y-142610192D01*
X94505759Y-142610192D01*
G37*
D15*
X94234000Y-143129000D03*
D13*
G36*
X138112759Y-96890192D02*
G01*
X138136785Y-96893756D01*
X138160345Y-96899657D01*
X138183214Y-96907840D01*
X138205171Y-96918224D01*
X138226004Y-96930711D01*
X138245512Y-96945180D01*
X138263509Y-96961491D01*
X138279820Y-96979488D01*
X138294289Y-96998996D01*
X138306776Y-97019829D01*
X138317160Y-97041786D01*
X138325343Y-97064655D01*
X138331244Y-97088215D01*
X138334808Y-97112241D01*
X138336000Y-97136500D01*
X138336000Y-97681500D01*
X138334808Y-97705759D01*
X138331244Y-97729785D01*
X138325343Y-97753345D01*
X138317160Y-97776214D01*
X138306776Y-97798171D01*
X138294289Y-97819004D01*
X138279820Y-97838512D01*
X138263509Y-97856509D01*
X138245512Y-97872820D01*
X138226004Y-97887289D01*
X138205171Y-97899776D01*
X138183214Y-97910160D01*
X138160345Y-97918343D01*
X138136785Y-97924244D01*
X138112759Y-97927808D01*
X138088500Y-97929000D01*
X137593500Y-97929000D01*
X137569241Y-97927808D01*
X137545215Y-97924244D01*
X137521655Y-97918343D01*
X137498786Y-97910160D01*
X137476829Y-97899776D01*
X137455996Y-97887289D01*
X137436488Y-97872820D01*
X137418491Y-97856509D01*
X137402180Y-97838512D01*
X137387711Y-97819004D01*
X137375224Y-97798171D01*
X137364840Y-97776214D01*
X137356657Y-97753345D01*
X137350756Y-97729785D01*
X137347192Y-97705759D01*
X137346000Y-97681500D01*
X137346000Y-97136500D01*
X137347192Y-97112241D01*
X137350756Y-97088215D01*
X137356657Y-97064655D01*
X137364840Y-97041786D01*
X137375224Y-97019829D01*
X137387711Y-96998996D01*
X137402180Y-96979488D01*
X137418491Y-96961491D01*
X137436488Y-96945180D01*
X137455996Y-96930711D01*
X137476829Y-96918224D01*
X137498786Y-96907840D01*
X137521655Y-96899657D01*
X137545215Y-96893756D01*
X137569241Y-96890192D01*
X137593500Y-96889000D01*
X138088500Y-96889000D01*
X138112759Y-96890192D01*
X138112759Y-96890192D01*
G37*
D15*
X137841000Y-97409000D03*
D13*
G36*
X139082759Y-96890192D02*
G01*
X139106785Y-96893756D01*
X139130345Y-96899657D01*
X139153214Y-96907840D01*
X139175171Y-96918224D01*
X139196004Y-96930711D01*
X139215512Y-96945180D01*
X139233509Y-96961491D01*
X139249820Y-96979488D01*
X139264289Y-96998996D01*
X139276776Y-97019829D01*
X139287160Y-97041786D01*
X139295343Y-97064655D01*
X139301244Y-97088215D01*
X139304808Y-97112241D01*
X139306000Y-97136500D01*
X139306000Y-97681500D01*
X139304808Y-97705759D01*
X139301244Y-97729785D01*
X139295343Y-97753345D01*
X139287160Y-97776214D01*
X139276776Y-97798171D01*
X139264289Y-97819004D01*
X139249820Y-97838512D01*
X139233509Y-97856509D01*
X139215512Y-97872820D01*
X139196004Y-97887289D01*
X139175171Y-97899776D01*
X139153214Y-97910160D01*
X139130345Y-97918343D01*
X139106785Y-97924244D01*
X139082759Y-97927808D01*
X139058500Y-97929000D01*
X138563500Y-97929000D01*
X138539241Y-97927808D01*
X138515215Y-97924244D01*
X138491655Y-97918343D01*
X138468786Y-97910160D01*
X138446829Y-97899776D01*
X138425996Y-97887289D01*
X138406488Y-97872820D01*
X138388491Y-97856509D01*
X138372180Y-97838512D01*
X138357711Y-97819004D01*
X138345224Y-97798171D01*
X138334840Y-97776214D01*
X138326657Y-97753345D01*
X138320756Y-97729785D01*
X138317192Y-97705759D01*
X138316000Y-97681500D01*
X138316000Y-97136500D01*
X138317192Y-97112241D01*
X138320756Y-97088215D01*
X138326657Y-97064655D01*
X138334840Y-97041786D01*
X138345224Y-97019829D01*
X138357711Y-96998996D01*
X138372180Y-96979488D01*
X138388491Y-96961491D01*
X138406488Y-96945180D01*
X138425996Y-96930711D01*
X138446829Y-96918224D01*
X138468786Y-96907840D01*
X138491655Y-96899657D01*
X138515215Y-96893756D01*
X138539241Y-96890192D01*
X138563500Y-96889000D01*
X139058500Y-96889000D01*
X139082759Y-96890192D01*
X139082759Y-96890192D01*
G37*
D15*
X138811000Y-97409000D03*
D13*
G36*
X138089759Y-104891192D02*
G01*
X138113785Y-104894756D01*
X138137345Y-104900657D01*
X138160214Y-104908840D01*
X138182171Y-104919224D01*
X138203004Y-104931711D01*
X138222512Y-104946180D01*
X138240509Y-104962491D01*
X138256820Y-104980488D01*
X138271289Y-104999996D01*
X138283776Y-105020829D01*
X138294160Y-105042786D01*
X138302343Y-105065655D01*
X138308244Y-105089215D01*
X138311808Y-105113241D01*
X138313000Y-105137500D01*
X138313000Y-105682500D01*
X138311808Y-105706759D01*
X138308244Y-105730785D01*
X138302343Y-105754345D01*
X138294160Y-105777214D01*
X138283776Y-105799171D01*
X138271289Y-105820004D01*
X138256820Y-105839512D01*
X138240509Y-105857509D01*
X138222512Y-105873820D01*
X138203004Y-105888289D01*
X138182171Y-105900776D01*
X138160214Y-105911160D01*
X138137345Y-105919343D01*
X138113785Y-105925244D01*
X138089759Y-105928808D01*
X138065500Y-105930000D01*
X137570500Y-105930000D01*
X137546241Y-105928808D01*
X137522215Y-105925244D01*
X137498655Y-105919343D01*
X137475786Y-105911160D01*
X137453829Y-105900776D01*
X137432996Y-105888289D01*
X137413488Y-105873820D01*
X137395491Y-105857509D01*
X137379180Y-105839512D01*
X137364711Y-105820004D01*
X137352224Y-105799171D01*
X137341840Y-105777214D01*
X137333657Y-105754345D01*
X137327756Y-105730785D01*
X137324192Y-105706759D01*
X137323000Y-105682500D01*
X137323000Y-105137500D01*
X137324192Y-105113241D01*
X137327756Y-105089215D01*
X137333657Y-105065655D01*
X137341840Y-105042786D01*
X137352224Y-105020829D01*
X137364711Y-104999996D01*
X137379180Y-104980488D01*
X137395491Y-104962491D01*
X137413488Y-104946180D01*
X137432996Y-104931711D01*
X137453829Y-104919224D01*
X137475786Y-104908840D01*
X137498655Y-104900657D01*
X137522215Y-104894756D01*
X137546241Y-104891192D01*
X137570500Y-104890000D01*
X138065500Y-104890000D01*
X138089759Y-104891192D01*
X138089759Y-104891192D01*
G37*
D15*
X137818000Y-105410000D03*
D13*
G36*
X139059759Y-104891192D02*
G01*
X139083785Y-104894756D01*
X139107345Y-104900657D01*
X139130214Y-104908840D01*
X139152171Y-104919224D01*
X139173004Y-104931711D01*
X139192512Y-104946180D01*
X139210509Y-104962491D01*
X139226820Y-104980488D01*
X139241289Y-104999996D01*
X139253776Y-105020829D01*
X139264160Y-105042786D01*
X139272343Y-105065655D01*
X139278244Y-105089215D01*
X139281808Y-105113241D01*
X139283000Y-105137500D01*
X139283000Y-105682500D01*
X139281808Y-105706759D01*
X139278244Y-105730785D01*
X139272343Y-105754345D01*
X139264160Y-105777214D01*
X139253776Y-105799171D01*
X139241289Y-105820004D01*
X139226820Y-105839512D01*
X139210509Y-105857509D01*
X139192512Y-105873820D01*
X139173004Y-105888289D01*
X139152171Y-105900776D01*
X139130214Y-105911160D01*
X139107345Y-105919343D01*
X139083785Y-105925244D01*
X139059759Y-105928808D01*
X139035500Y-105930000D01*
X138540500Y-105930000D01*
X138516241Y-105928808D01*
X138492215Y-105925244D01*
X138468655Y-105919343D01*
X138445786Y-105911160D01*
X138423829Y-105900776D01*
X138402996Y-105888289D01*
X138383488Y-105873820D01*
X138365491Y-105857509D01*
X138349180Y-105839512D01*
X138334711Y-105820004D01*
X138322224Y-105799171D01*
X138311840Y-105777214D01*
X138303657Y-105754345D01*
X138297756Y-105730785D01*
X138294192Y-105706759D01*
X138293000Y-105682500D01*
X138293000Y-105137500D01*
X138294192Y-105113241D01*
X138297756Y-105089215D01*
X138303657Y-105065655D01*
X138311840Y-105042786D01*
X138322224Y-105020829D01*
X138334711Y-104999996D01*
X138349180Y-104980488D01*
X138365491Y-104962491D01*
X138383488Y-104946180D01*
X138402996Y-104931711D01*
X138423829Y-104919224D01*
X138445786Y-104908840D01*
X138468655Y-104900657D01*
X138492215Y-104894756D01*
X138516241Y-104891192D01*
X138540500Y-104890000D01*
X139035500Y-104890000D01*
X139059759Y-104891192D01*
X139059759Y-104891192D01*
G37*
D15*
X138788000Y-105410000D03*
D13*
G36*
X138089759Y-112892192D02*
G01*
X138113785Y-112895756D01*
X138137345Y-112901657D01*
X138160214Y-112909840D01*
X138182171Y-112920224D01*
X138203004Y-112932711D01*
X138222512Y-112947180D01*
X138240509Y-112963491D01*
X138256820Y-112981488D01*
X138271289Y-113000996D01*
X138283776Y-113021829D01*
X138294160Y-113043786D01*
X138302343Y-113066655D01*
X138308244Y-113090215D01*
X138311808Y-113114241D01*
X138313000Y-113138500D01*
X138313000Y-113683500D01*
X138311808Y-113707759D01*
X138308244Y-113731785D01*
X138302343Y-113755345D01*
X138294160Y-113778214D01*
X138283776Y-113800171D01*
X138271289Y-113821004D01*
X138256820Y-113840512D01*
X138240509Y-113858509D01*
X138222512Y-113874820D01*
X138203004Y-113889289D01*
X138182171Y-113901776D01*
X138160214Y-113912160D01*
X138137345Y-113920343D01*
X138113785Y-113926244D01*
X138089759Y-113929808D01*
X138065500Y-113931000D01*
X137570500Y-113931000D01*
X137546241Y-113929808D01*
X137522215Y-113926244D01*
X137498655Y-113920343D01*
X137475786Y-113912160D01*
X137453829Y-113901776D01*
X137432996Y-113889289D01*
X137413488Y-113874820D01*
X137395491Y-113858509D01*
X137379180Y-113840512D01*
X137364711Y-113821004D01*
X137352224Y-113800171D01*
X137341840Y-113778214D01*
X137333657Y-113755345D01*
X137327756Y-113731785D01*
X137324192Y-113707759D01*
X137323000Y-113683500D01*
X137323000Y-113138500D01*
X137324192Y-113114241D01*
X137327756Y-113090215D01*
X137333657Y-113066655D01*
X137341840Y-113043786D01*
X137352224Y-113021829D01*
X137364711Y-113000996D01*
X137379180Y-112981488D01*
X137395491Y-112963491D01*
X137413488Y-112947180D01*
X137432996Y-112932711D01*
X137453829Y-112920224D01*
X137475786Y-112909840D01*
X137498655Y-112901657D01*
X137522215Y-112895756D01*
X137546241Y-112892192D01*
X137570500Y-112891000D01*
X138065500Y-112891000D01*
X138089759Y-112892192D01*
X138089759Y-112892192D01*
G37*
D15*
X137818000Y-113411000D03*
D13*
G36*
X139059759Y-112892192D02*
G01*
X139083785Y-112895756D01*
X139107345Y-112901657D01*
X139130214Y-112909840D01*
X139152171Y-112920224D01*
X139173004Y-112932711D01*
X139192512Y-112947180D01*
X139210509Y-112963491D01*
X139226820Y-112981488D01*
X139241289Y-113000996D01*
X139253776Y-113021829D01*
X139264160Y-113043786D01*
X139272343Y-113066655D01*
X139278244Y-113090215D01*
X139281808Y-113114241D01*
X139283000Y-113138500D01*
X139283000Y-113683500D01*
X139281808Y-113707759D01*
X139278244Y-113731785D01*
X139272343Y-113755345D01*
X139264160Y-113778214D01*
X139253776Y-113800171D01*
X139241289Y-113821004D01*
X139226820Y-113840512D01*
X139210509Y-113858509D01*
X139192512Y-113874820D01*
X139173004Y-113889289D01*
X139152171Y-113901776D01*
X139130214Y-113912160D01*
X139107345Y-113920343D01*
X139083785Y-113926244D01*
X139059759Y-113929808D01*
X139035500Y-113931000D01*
X138540500Y-113931000D01*
X138516241Y-113929808D01*
X138492215Y-113926244D01*
X138468655Y-113920343D01*
X138445786Y-113912160D01*
X138423829Y-113901776D01*
X138402996Y-113889289D01*
X138383488Y-113874820D01*
X138365491Y-113858509D01*
X138349180Y-113840512D01*
X138334711Y-113821004D01*
X138322224Y-113800171D01*
X138311840Y-113778214D01*
X138303657Y-113755345D01*
X138297756Y-113731785D01*
X138294192Y-113707759D01*
X138293000Y-113683500D01*
X138293000Y-113138500D01*
X138294192Y-113114241D01*
X138297756Y-113090215D01*
X138303657Y-113066655D01*
X138311840Y-113043786D01*
X138322224Y-113021829D01*
X138334711Y-113000996D01*
X138349180Y-112981488D01*
X138365491Y-112963491D01*
X138383488Y-112947180D01*
X138402996Y-112932711D01*
X138423829Y-112920224D01*
X138445786Y-112909840D01*
X138468655Y-112901657D01*
X138492215Y-112895756D01*
X138516241Y-112892192D01*
X138540500Y-112891000D01*
X139035500Y-112891000D01*
X139059759Y-112892192D01*
X139059759Y-112892192D01*
G37*
D15*
X138788000Y-113411000D03*
D13*
G36*
X138089759Y-120893192D02*
G01*
X138113785Y-120896756D01*
X138137345Y-120902657D01*
X138160214Y-120910840D01*
X138182171Y-120921224D01*
X138203004Y-120933711D01*
X138222512Y-120948180D01*
X138240509Y-120964491D01*
X138256820Y-120982488D01*
X138271289Y-121001996D01*
X138283776Y-121022829D01*
X138294160Y-121044786D01*
X138302343Y-121067655D01*
X138308244Y-121091215D01*
X138311808Y-121115241D01*
X138313000Y-121139500D01*
X138313000Y-121684500D01*
X138311808Y-121708759D01*
X138308244Y-121732785D01*
X138302343Y-121756345D01*
X138294160Y-121779214D01*
X138283776Y-121801171D01*
X138271289Y-121822004D01*
X138256820Y-121841512D01*
X138240509Y-121859509D01*
X138222512Y-121875820D01*
X138203004Y-121890289D01*
X138182171Y-121902776D01*
X138160214Y-121913160D01*
X138137345Y-121921343D01*
X138113785Y-121927244D01*
X138089759Y-121930808D01*
X138065500Y-121932000D01*
X137570500Y-121932000D01*
X137546241Y-121930808D01*
X137522215Y-121927244D01*
X137498655Y-121921343D01*
X137475786Y-121913160D01*
X137453829Y-121902776D01*
X137432996Y-121890289D01*
X137413488Y-121875820D01*
X137395491Y-121859509D01*
X137379180Y-121841512D01*
X137364711Y-121822004D01*
X137352224Y-121801171D01*
X137341840Y-121779214D01*
X137333657Y-121756345D01*
X137327756Y-121732785D01*
X137324192Y-121708759D01*
X137323000Y-121684500D01*
X137323000Y-121139500D01*
X137324192Y-121115241D01*
X137327756Y-121091215D01*
X137333657Y-121067655D01*
X137341840Y-121044786D01*
X137352224Y-121022829D01*
X137364711Y-121001996D01*
X137379180Y-120982488D01*
X137395491Y-120964491D01*
X137413488Y-120948180D01*
X137432996Y-120933711D01*
X137453829Y-120921224D01*
X137475786Y-120910840D01*
X137498655Y-120902657D01*
X137522215Y-120896756D01*
X137546241Y-120893192D01*
X137570500Y-120892000D01*
X138065500Y-120892000D01*
X138089759Y-120893192D01*
X138089759Y-120893192D01*
G37*
D15*
X137818000Y-121412000D03*
D13*
G36*
X139059759Y-120893192D02*
G01*
X139083785Y-120896756D01*
X139107345Y-120902657D01*
X139130214Y-120910840D01*
X139152171Y-120921224D01*
X139173004Y-120933711D01*
X139192512Y-120948180D01*
X139210509Y-120964491D01*
X139226820Y-120982488D01*
X139241289Y-121001996D01*
X139253776Y-121022829D01*
X139264160Y-121044786D01*
X139272343Y-121067655D01*
X139278244Y-121091215D01*
X139281808Y-121115241D01*
X139283000Y-121139500D01*
X139283000Y-121684500D01*
X139281808Y-121708759D01*
X139278244Y-121732785D01*
X139272343Y-121756345D01*
X139264160Y-121779214D01*
X139253776Y-121801171D01*
X139241289Y-121822004D01*
X139226820Y-121841512D01*
X139210509Y-121859509D01*
X139192512Y-121875820D01*
X139173004Y-121890289D01*
X139152171Y-121902776D01*
X139130214Y-121913160D01*
X139107345Y-121921343D01*
X139083785Y-121927244D01*
X139059759Y-121930808D01*
X139035500Y-121932000D01*
X138540500Y-121932000D01*
X138516241Y-121930808D01*
X138492215Y-121927244D01*
X138468655Y-121921343D01*
X138445786Y-121913160D01*
X138423829Y-121902776D01*
X138402996Y-121890289D01*
X138383488Y-121875820D01*
X138365491Y-121859509D01*
X138349180Y-121841512D01*
X138334711Y-121822004D01*
X138322224Y-121801171D01*
X138311840Y-121779214D01*
X138303657Y-121756345D01*
X138297756Y-121732785D01*
X138294192Y-121708759D01*
X138293000Y-121684500D01*
X138293000Y-121139500D01*
X138294192Y-121115241D01*
X138297756Y-121091215D01*
X138303657Y-121067655D01*
X138311840Y-121044786D01*
X138322224Y-121022829D01*
X138334711Y-121001996D01*
X138349180Y-120982488D01*
X138365491Y-120964491D01*
X138383488Y-120948180D01*
X138402996Y-120933711D01*
X138423829Y-120921224D01*
X138445786Y-120910840D01*
X138468655Y-120902657D01*
X138492215Y-120896756D01*
X138516241Y-120893192D01*
X138540500Y-120892000D01*
X139035500Y-120892000D01*
X139059759Y-120893192D01*
X139059759Y-120893192D01*
G37*
D15*
X138788000Y-121412000D03*
D13*
G36*
X138089759Y-128894192D02*
G01*
X138113785Y-128897756D01*
X138137345Y-128903657D01*
X138160214Y-128911840D01*
X138182171Y-128922224D01*
X138203004Y-128934711D01*
X138222512Y-128949180D01*
X138240509Y-128965491D01*
X138256820Y-128983488D01*
X138271289Y-129002996D01*
X138283776Y-129023829D01*
X138294160Y-129045786D01*
X138302343Y-129068655D01*
X138308244Y-129092215D01*
X138311808Y-129116241D01*
X138313000Y-129140500D01*
X138313000Y-129685500D01*
X138311808Y-129709759D01*
X138308244Y-129733785D01*
X138302343Y-129757345D01*
X138294160Y-129780214D01*
X138283776Y-129802171D01*
X138271289Y-129823004D01*
X138256820Y-129842512D01*
X138240509Y-129860509D01*
X138222512Y-129876820D01*
X138203004Y-129891289D01*
X138182171Y-129903776D01*
X138160214Y-129914160D01*
X138137345Y-129922343D01*
X138113785Y-129928244D01*
X138089759Y-129931808D01*
X138065500Y-129933000D01*
X137570500Y-129933000D01*
X137546241Y-129931808D01*
X137522215Y-129928244D01*
X137498655Y-129922343D01*
X137475786Y-129914160D01*
X137453829Y-129903776D01*
X137432996Y-129891289D01*
X137413488Y-129876820D01*
X137395491Y-129860509D01*
X137379180Y-129842512D01*
X137364711Y-129823004D01*
X137352224Y-129802171D01*
X137341840Y-129780214D01*
X137333657Y-129757345D01*
X137327756Y-129733785D01*
X137324192Y-129709759D01*
X137323000Y-129685500D01*
X137323000Y-129140500D01*
X137324192Y-129116241D01*
X137327756Y-129092215D01*
X137333657Y-129068655D01*
X137341840Y-129045786D01*
X137352224Y-129023829D01*
X137364711Y-129002996D01*
X137379180Y-128983488D01*
X137395491Y-128965491D01*
X137413488Y-128949180D01*
X137432996Y-128934711D01*
X137453829Y-128922224D01*
X137475786Y-128911840D01*
X137498655Y-128903657D01*
X137522215Y-128897756D01*
X137546241Y-128894192D01*
X137570500Y-128893000D01*
X138065500Y-128893000D01*
X138089759Y-128894192D01*
X138089759Y-128894192D01*
G37*
D15*
X137818000Y-129413000D03*
D13*
G36*
X139059759Y-128894192D02*
G01*
X139083785Y-128897756D01*
X139107345Y-128903657D01*
X139130214Y-128911840D01*
X139152171Y-128922224D01*
X139173004Y-128934711D01*
X139192512Y-128949180D01*
X139210509Y-128965491D01*
X139226820Y-128983488D01*
X139241289Y-129002996D01*
X139253776Y-129023829D01*
X139264160Y-129045786D01*
X139272343Y-129068655D01*
X139278244Y-129092215D01*
X139281808Y-129116241D01*
X139283000Y-129140500D01*
X139283000Y-129685500D01*
X139281808Y-129709759D01*
X139278244Y-129733785D01*
X139272343Y-129757345D01*
X139264160Y-129780214D01*
X139253776Y-129802171D01*
X139241289Y-129823004D01*
X139226820Y-129842512D01*
X139210509Y-129860509D01*
X139192512Y-129876820D01*
X139173004Y-129891289D01*
X139152171Y-129903776D01*
X139130214Y-129914160D01*
X139107345Y-129922343D01*
X139083785Y-129928244D01*
X139059759Y-129931808D01*
X139035500Y-129933000D01*
X138540500Y-129933000D01*
X138516241Y-129931808D01*
X138492215Y-129928244D01*
X138468655Y-129922343D01*
X138445786Y-129914160D01*
X138423829Y-129903776D01*
X138402996Y-129891289D01*
X138383488Y-129876820D01*
X138365491Y-129860509D01*
X138349180Y-129842512D01*
X138334711Y-129823004D01*
X138322224Y-129802171D01*
X138311840Y-129780214D01*
X138303657Y-129757345D01*
X138297756Y-129733785D01*
X138294192Y-129709759D01*
X138293000Y-129685500D01*
X138293000Y-129140500D01*
X138294192Y-129116241D01*
X138297756Y-129092215D01*
X138303657Y-129068655D01*
X138311840Y-129045786D01*
X138322224Y-129023829D01*
X138334711Y-129002996D01*
X138349180Y-128983488D01*
X138365491Y-128965491D01*
X138383488Y-128949180D01*
X138402996Y-128934711D01*
X138423829Y-128922224D01*
X138445786Y-128911840D01*
X138468655Y-128903657D01*
X138492215Y-128897756D01*
X138516241Y-128894192D01*
X138540500Y-128893000D01*
X139035500Y-128893000D01*
X139059759Y-128894192D01*
X139059759Y-128894192D01*
G37*
D15*
X138788000Y-129413000D03*
D13*
G36*
X138089759Y-137149192D02*
G01*
X138113785Y-137152756D01*
X138137345Y-137158657D01*
X138160214Y-137166840D01*
X138182171Y-137177224D01*
X138203004Y-137189711D01*
X138222512Y-137204180D01*
X138240509Y-137220491D01*
X138256820Y-137238488D01*
X138271289Y-137257996D01*
X138283776Y-137278829D01*
X138294160Y-137300786D01*
X138302343Y-137323655D01*
X138308244Y-137347215D01*
X138311808Y-137371241D01*
X138313000Y-137395500D01*
X138313000Y-137940500D01*
X138311808Y-137964759D01*
X138308244Y-137988785D01*
X138302343Y-138012345D01*
X138294160Y-138035214D01*
X138283776Y-138057171D01*
X138271289Y-138078004D01*
X138256820Y-138097512D01*
X138240509Y-138115509D01*
X138222512Y-138131820D01*
X138203004Y-138146289D01*
X138182171Y-138158776D01*
X138160214Y-138169160D01*
X138137345Y-138177343D01*
X138113785Y-138183244D01*
X138089759Y-138186808D01*
X138065500Y-138188000D01*
X137570500Y-138188000D01*
X137546241Y-138186808D01*
X137522215Y-138183244D01*
X137498655Y-138177343D01*
X137475786Y-138169160D01*
X137453829Y-138158776D01*
X137432996Y-138146289D01*
X137413488Y-138131820D01*
X137395491Y-138115509D01*
X137379180Y-138097512D01*
X137364711Y-138078004D01*
X137352224Y-138057171D01*
X137341840Y-138035214D01*
X137333657Y-138012345D01*
X137327756Y-137988785D01*
X137324192Y-137964759D01*
X137323000Y-137940500D01*
X137323000Y-137395500D01*
X137324192Y-137371241D01*
X137327756Y-137347215D01*
X137333657Y-137323655D01*
X137341840Y-137300786D01*
X137352224Y-137278829D01*
X137364711Y-137257996D01*
X137379180Y-137238488D01*
X137395491Y-137220491D01*
X137413488Y-137204180D01*
X137432996Y-137189711D01*
X137453829Y-137177224D01*
X137475786Y-137166840D01*
X137498655Y-137158657D01*
X137522215Y-137152756D01*
X137546241Y-137149192D01*
X137570500Y-137148000D01*
X138065500Y-137148000D01*
X138089759Y-137149192D01*
X138089759Y-137149192D01*
G37*
D15*
X137818000Y-137668000D03*
D13*
G36*
X139059759Y-137149192D02*
G01*
X139083785Y-137152756D01*
X139107345Y-137158657D01*
X139130214Y-137166840D01*
X139152171Y-137177224D01*
X139173004Y-137189711D01*
X139192512Y-137204180D01*
X139210509Y-137220491D01*
X139226820Y-137238488D01*
X139241289Y-137257996D01*
X139253776Y-137278829D01*
X139264160Y-137300786D01*
X139272343Y-137323655D01*
X139278244Y-137347215D01*
X139281808Y-137371241D01*
X139283000Y-137395500D01*
X139283000Y-137940500D01*
X139281808Y-137964759D01*
X139278244Y-137988785D01*
X139272343Y-138012345D01*
X139264160Y-138035214D01*
X139253776Y-138057171D01*
X139241289Y-138078004D01*
X139226820Y-138097512D01*
X139210509Y-138115509D01*
X139192512Y-138131820D01*
X139173004Y-138146289D01*
X139152171Y-138158776D01*
X139130214Y-138169160D01*
X139107345Y-138177343D01*
X139083785Y-138183244D01*
X139059759Y-138186808D01*
X139035500Y-138188000D01*
X138540500Y-138188000D01*
X138516241Y-138186808D01*
X138492215Y-138183244D01*
X138468655Y-138177343D01*
X138445786Y-138169160D01*
X138423829Y-138158776D01*
X138402996Y-138146289D01*
X138383488Y-138131820D01*
X138365491Y-138115509D01*
X138349180Y-138097512D01*
X138334711Y-138078004D01*
X138322224Y-138057171D01*
X138311840Y-138035214D01*
X138303657Y-138012345D01*
X138297756Y-137988785D01*
X138294192Y-137964759D01*
X138293000Y-137940500D01*
X138293000Y-137395500D01*
X138294192Y-137371241D01*
X138297756Y-137347215D01*
X138303657Y-137323655D01*
X138311840Y-137300786D01*
X138322224Y-137278829D01*
X138334711Y-137257996D01*
X138349180Y-137238488D01*
X138365491Y-137220491D01*
X138383488Y-137204180D01*
X138402996Y-137189711D01*
X138423829Y-137177224D01*
X138445786Y-137166840D01*
X138468655Y-137158657D01*
X138492215Y-137152756D01*
X138516241Y-137149192D01*
X138540500Y-137148000D01*
X139035500Y-137148000D01*
X139059759Y-137149192D01*
X139059759Y-137149192D01*
G37*
D15*
X138788000Y-137668000D03*
D13*
G36*
X139234759Y-101187192D02*
G01*
X139258785Y-101190756D01*
X139282345Y-101196657D01*
X139305214Y-101204840D01*
X139327171Y-101215224D01*
X139348004Y-101227711D01*
X139367512Y-101242180D01*
X139385509Y-101258491D01*
X139401820Y-101276488D01*
X139416289Y-101295996D01*
X139428776Y-101316829D01*
X139439160Y-101338786D01*
X139447343Y-101361655D01*
X139453244Y-101385215D01*
X139456808Y-101409241D01*
X139458000Y-101433500D01*
X139458000Y-101928500D01*
X139456808Y-101952759D01*
X139453244Y-101976785D01*
X139447343Y-102000345D01*
X139439160Y-102023214D01*
X139428776Y-102045171D01*
X139416289Y-102066004D01*
X139401820Y-102085512D01*
X139385509Y-102103509D01*
X139367512Y-102119820D01*
X139348004Y-102134289D01*
X139327171Y-102146776D01*
X139305214Y-102157160D01*
X139282345Y-102165343D01*
X139258785Y-102171244D01*
X139234759Y-102174808D01*
X139210500Y-102176000D01*
X138665500Y-102176000D01*
X138641241Y-102174808D01*
X138617215Y-102171244D01*
X138593655Y-102165343D01*
X138570786Y-102157160D01*
X138548829Y-102146776D01*
X138527996Y-102134289D01*
X138508488Y-102119820D01*
X138490491Y-102103509D01*
X138474180Y-102085512D01*
X138459711Y-102066004D01*
X138447224Y-102045171D01*
X138436840Y-102023214D01*
X138428657Y-102000345D01*
X138422756Y-101976785D01*
X138419192Y-101952759D01*
X138418000Y-101928500D01*
X138418000Y-101433500D01*
X138419192Y-101409241D01*
X138422756Y-101385215D01*
X138428657Y-101361655D01*
X138436840Y-101338786D01*
X138447224Y-101316829D01*
X138459711Y-101295996D01*
X138474180Y-101276488D01*
X138490491Y-101258491D01*
X138508488Y-101242180D01*
X138527996Y-101227711D01*
X138548829Y-101215224D01*
X138570786Y-101204840D01*
X138593655Y-101196657D01*
X138617215Y-101190756D01*
X138641241Y-101187192D01*
X138665500Y-101186000D01*
X139210500Y-101186000D01*
X139234759Y-101187192D01*
X139234759Y-101187192D01*
G37*
D15*
X138938000Y-101681000D03*
D13*
G36*
X139234759Y-100217192D02*
G01*
X139258785Y-100220756D01*
X139282345Y-100226657D01*
X139305214Y-100234840D01*
X139327171Y-100245224D01*
X139348004Y-100257711D01*
X139367512Y-100272180D01*
X139385509Y-100288491D01*
X139401820Y-100306488D01*
X139416289Y-100325996D01*
X139428776Y-100346829D01*
X139439160Y-100368786D01*
X139447343Y-100391655D01*
X139453244Y-100415215D01*
X139456808Y-100439241D01*
X139458000Y-100463500D01*
X139458000Y-100958500D01*
X139456808Y-100982759D01*
X139453244Y-101006785D01*
X139447343Y-101030345D01*
X139439160Y-101053214D01*
X139428776Y-101075171D01*
X139416289Y-101096004D01*
X139401820Y-101115512D01*
X139385509Y-101133509D01*
X139367512Y-101149820D01*
X139348004Y-101164289D01*
X139327171Y-101176776D01*
X139305214Y-101187160D01*
X139282345Y-101195343D01*
X139258785Y-101201244D01*
X139234759Y-101204808D01*
X139210500Y-101206000D01*
X138665500Y-101206000D01*
X138641241Y-101204808D01*
X138617215Y-101201244D01*
X138593655Y-101195343D01*
X138570786Y-101187160D01*
X138548829Y-101176776D01*
X138527996Y-101164289D01*
X138508488Y-101149820D01*
X138490491Y-101133509D01*
X138474180Y-101115512D01*
X138459711Y-101096004D01*
X138447224Y-101075171D01*
X138436840Y-101053214D01*
X138428657Y-101030345D01*
X138422756Y-101006785D01*
X138419192Y-100982759D01*
X138418000Y-100958500D01*
X138418000Y-100463500D01*
X138419192Y-100439241D01*
X138422756Y-100415215D01*
X138428657Y-100391655D01*
X138436840Y-100368786D01*
X138447224Y-100346829D01*
X138459711Y-100325996D01*
X138474180Y-100306488D01*
X138490491Y-100288491D01*
X138508488Y-100272180D01*
X138527996Y-100257711D01*
X138548829Y-100245224D01*
X138570786Y-100234840D01*
X138593655Y-100226657D01*
X138617215Y-100220756D01*
X138641241Y-100217192D01*
X138665500Y-100216000D01*
X139210500Y-100216000D01*
X139234759Y-100217192D01*
X139234759Y-100217192D01*
G37*
D15*
X138938000Y-100711000D03*
D13*
G36*
X139361759Y-109234192D02*
G01*
X139385785Y-109237756D01*
X139409345Y-109243657D01*
X139432214Y-109251840D01*
X139454171Y-109262224D01*
X139475004Y-109274711D01*
X139494512Y-109289180D01*
X139512509Y-109305491D01*
X139528820Y-109323488D01*
X139543289Y-109342996D01*
X139555776Y-109363829D01*
X139566160Y-109385786D01*
X139574343Y-109408655D01*
X139580244Y-109432215D01*
X139583808Y-109456241D01*
X139585000Y-109480500D01*
X139585000Y-109975500D01*
X139583808Y-109999759D01*
X139580244Y-110023785D01*
X139574343Y-110047345D01*
X139566160Y-110070214D01*
X139555776Y-110092171D01*
X139543289Y-110113004D01*
X139528820Y-110132512D01*
X139512509Y-110150509D01*
X139494512Y-110166820D01*
X139475004Y-110181289D01*
X139454171Y-110193776D01*
X139432214Y-110204160D01*
X139409345Y-110212343D01*
X139385785Y-110218244D01*
X139361759Y-110221808D01*
X139337500Y-110223000D01*
X138792500Y-110223000D01*
X138768241Y-110221808D01*
X138744215Y-110218244D01*
X138720655Y-110212343D01*
X138697786Y-110204160D01*
X138675829Y-110193776D01*
X138654996Y-110181289D01*
X138635488Y-110166820D01*
X138617491Y-110150509D01*
X138601180Y-110132512D01*
X138586711Y-110113004D01*
X138574224Y-110092171D01*
X138563840Y-110070214D01*
X138555657Y-110047345D01*
X138549756Y-110023785D01*
X138546192Y-109999759D01*
X138545000Y-109975500D01*
X138545000Y-109480500D01*
X138546192Y-109456241D01*
X138549756Y-109432215D01*
X138555657Y-109408655D01*
X138563840Y-109385786D01*
X138574224Y-109363829D01*
X138586711Y-109342996D01*
X138601180Y-109323488D01*
X138617491Y-109305491D01*
X138635488Y-109289180D01*
X138654996Y-109274711D01*
X138675829Y-109262224D01*
X138697786Y-109251840D01*
X138720655Y-109243657D01*
X138744215Y-109237756D01*
X138768241Y-109234192D01*
X138792500Y-109233000D01*
X139337500Y-109233000D01*
X139361759Y-109234192D01*
X139361759Y-109234192D01*
G37*
D15*
X139065000Y-109728000D03*
D13*
G36*
X139361759Y-108264192D02*
G01*
X139385785Y-108267756D01*
X139409345Y-108273657D01*
X139432214Y-108281840D01*
X139454171Y-108292224D01*
X139475004Y-108304711D01*
X139494512Y-108319180D01*
X139512509Y-108335491D01*
X139528820Y-108353488D01*
X139543289Y-108372996D01*
X139555776Y-108393829D01*
X139566160Y-108415786D01*
X139574343Y-108438655D01*
X139580244Y-108462215D01*
X139583808Y-108486241D01*
X139585000Y-108510500D01*
X139585000Y-109005500D01*
X139583808Y-109029759D01*
X139580244Y-109053785D01*
X139574343Y-109077345D01*
X139566160Y-109100214D01*
X139555776Y-109122171D01*
X139543289Y-109143004D01*
X139528820Y-109162512D01*
X139512509Y-109180509D01*
X139494512Y-109196820D01*
X139475004Y-109211289D01*
X139454171Y-109223776D01*
X139432214Y-109234160D01*
X139409345Y-109242343D01*
X139385785Y-109248244D01*
X139361759Y-109251808D01*
X139337500Y-109253000D01*
X138792500Y-109253000D01*
X138768241Y-109251808D01*
X138744215Y-109248244D01*
X138720655Y-109242343D01*
X138697786Y-109234160D01*
X138675829Y-109223776D01*
X138654996Y-109211289D01*
X138635488Y-109196820D01*
X138617491Y-109180509D01*
X138601180Y-109162512D01*
X138586711Y-109143004D01*
X138574224Y-109122171D01*
X138563840Y-109100214D01*
X138555657Y-109077345D01*
X138549756Y-109053785D01*
X138546192Y-109029759D01*
X138545000Y-109005500D01*
X138545000Y-108510500D01*
X138546192Y-108486241D01*
X138549756Y-108462215D01*
X138555657Y-108438655D01*
X138563840Y-108415786D01*
X138574224Y-108393829D01*
X138586711Y-108372996D01*
X138601180Y-108353488D01*
X138617491Y-108335491D01*
X138635488Y-108319180D01*
X138654996Y-108304711D01*
X138675829Y-108292224D01*
X138697786Y-108281840D01*
X138720655Y-108273657D01*
X138744215Y-108267756D01*
X138768241Y-108264192D01*
X138792500Y-108263000D01*
X139337500Y-108263000D01*
X139361759Y-108264192D01*
X139361759Y-108264192D01*
G37*
D15*
X139065000Y-108758000D03*
D13*
G36*
X139361759Y-117316192D02*
G01*
X139385785Y-117319756D01*
X139409345Y-117325657D01*
X139432214Y-117333840D01*
X139454171Y-117344224D01*
X139475004Y-117356711D01*
X139494512Y-117371180D01*
X139512509Y-117387491D01*
X139528820Y-117405488D01*
X139543289Y-117424996D01*
X139555776Y-117445829D01*
X139566160Y-117467786D01*
X139574343Y-117490655D01*
X139580244Y-117514215D01*
X139583808Y-117538241D01*
X139585000Y-117562500D01*
X139585000Y-118057500D01*
X139583808Y-118081759D01*
X139580244Y-118105785D01*
X139574343Y-118129345D01*
X139566160Y-118152214D01*
X139555776Y-118174171D01*
X139543289Y-118195004D01*
X139528820Y-118214512D01*
X139512509Y-118232509D01*
X139494512Y-118248820D01*
X139475004Y-118263289D01*
X139454171Y-118275776D01*
X139432214Y-118286160D01*
X139409345Y-118294343D01*
X139385785Y-118300244D01*
X139361759Y-118303808D01*
X139337500Y-118305000D01*
X138792500Y-118305000D01*
X138768241Y-118303808D01*
X138744215Y-118300244D01*
X138720655Y-118294343D01*
X138697786Y-118286160D01*
X138675829Y-118275776D01*
X138654996Y-118263289D01*
X138635488Y-118248820D01*
X138617491Y-118232509D01*
X138601180Y-118214512D01*
X138586711Y-118195004D01*
X138574224Y-118174171D01*
X138563840Y-118152214D01*
X138555657Y-118129345D01*
X138549756Y-118105785D01*
X138546192Y-118081759D01*
X138545000Y-118057500D01*
X138545000Y-117562500D01*
X138546192Y-117538241D01*
X138549756Y-117514215D01*
X138555657Y-117490655D01*
X138563840Y-117467786D01*
X138574224Y-117445829D01*
X138586711Y-117424996D01*
X138601180Y-117405488D01*
X138617491Y-117387491D01*
X138635488Y-117371180D01*
X138654996Y-117356711D01*
X138675829Y-117344224D01*
X138697786Y-117333840D01*
X138720655Y-117325657D01*
X138744215Y-117319756D01*
X138768241Y-117316192D01*
X138792500Y-117315000D01*
X139337500Y-117315000D01*
X139361759Y-117316192D01*
X139361759Y-117316192D01*
G37*
D15*
X139065000Y-117810000D03*
D13*
G36*
X139361759Y-116346192D02*
G01*
X139385785Y-116349756D01*
X139409345Y-116355657D01*
X139432214Y-116363840D01*
X139454171Y-116374224D01*
X139475004Y-116386711D01*
X139494512Y-116401180D01*
X139512509Y-116417491D01*
X139528820Y-116435488D01*
X139543289Y-116454996D01*
X139555776Y-116475829D01*
X139566160Y-116497786D01*
X139574343Y-116520655D01*
X139580244Y-116544215D01*
X139583808Y-116568241D01*
X139585000Y-116592500D01*
X139585000Y-117087500D01*
X139583808Y-117111759D01*
X139580244Y-117135785D01*
X139574343Y-117159345D01*
X139566160Y-117182214D01*
X139555776Y-117204171D01*
X139543289Y-117225004D01*
X139528820Y-117244512D01*
X139512509Y-117262509D01*
X139494512Y-117278820D01*
X139475004Y-117293289D01*
X139454171Y-117305776D01*
X139432214Y-117316160D01*
X139409345Y-117324343D01*
X139385785Y-117330244D01*
X139361759Y-117333808D01*
X139337500Y-117335000D01*
X138792500Y-117335000D01*
X138768241Y-117333808D01*
X138744215Y-117330244D01*
X138720655Y-117324343D01*
X138697786Y-117316160D01*
X138675829Y-117305776D01*
X138654996Y-117293289D01*
X138635488Y-117278820D01*
X138617491Y-117262509D01*
X138601180Y-117244512D01*
X138586711Y-117225004D01*
X138574224Y-117204171D01*
X138563840Y-117182214D01*
X138555657Y-117159345D01*
X138549756Y-117135785D01*
X138546192Y-117111759D01*
X138545000Y-117087500D01*
X138545000Y-116592500D01*
X138546192Y-116568241D01*
X138549756Y-116544215D01*
X138555657Y-116520655D01*
X138563840Y-116497786D01*
X138574224Y-116475829D01*
X138586711Y-116454996D01*
X138601180Y-116435488D01*
X138617491Y-116417491D01*
X138635488Y-116401180D01*
X138654996Y-116386711D01*
X138675829Y-116374224D01*
X138697786Y-116363840D01*
X138720655Y-116355657D01*
X138744215Y-116349756D01*
X138768241Y-116346192D01*
X138792500Y-116345000D01*
X139337500Y-116345000D01*
X139361759Y-116346192D01*
X139361759Y-116346192D01*
G37*
D15*
X139065000Y-116840000D03*
D13*
G36*
X139361759Y-125317192D02*
G01*
X139385785Y-125320756D01*
X139409345Y-125326657D01*
X139432214Y-125334840D01*
X139454171Y-125345224D01*
X139475004Y-125357711D01*
X139494512Y-125372180D01*
X139512509Y-125388491D01*
X139528820Y-125406488D01*
X139543289Y-125425996D01*
X139555776Y-125446829D01*
X139566160Y-125468786D01*
X139574343Y-125491655D01*
X139580244Y-125515215D01*
X139583808Y-125539241D01*
X139585000Y-125563500D01*
X139585000Y-126058500D01*
X139583808Y-126082759D01*
X139580244Y-126106785D01*
X139574343Y-126130345D01*
X139566160Y-126153214D01*
X139555776Y-126175171D01*
X139543289Y-126196004D01*
X139528820Y-126215512D01*
X139512509Y-126233509D01*
X139494512Y-126249820D01*
X139475004Y-126264289D01*
X139454171Y-126276776D01*
X139432214Y-126287160D01*
X139409345Y-126295343D01*
X139385785Y-126301244D01*
X139361759Y-126304808D01*
X139337500Y-126306000D01*
X138792500Y-126306000D01*
X138768241Y-126304808D01*
X138744215Y-126301244D01*
X138720655Y-126295343D01*
X138697786Y-126287160D01*
X138675829Y-126276776D01*
X138654996Y-126264289D01*
X138635488Y-126249820D01*
X138617491Y-126233509D01*
X138601180Y-126215512D01*
X138586711Y-126196004D01*
X138574224Y-126175171D01*
X138563840Y-126153214D01*
X138555657Y-126130345D01*
X138549756Y-126106785D01*
X138546192Y-126082759D01*
X138545000Y-126058500D01*
X138545000Y-125563500D01*
X138546192Y-125539241D01*
X138549756Y-125515215D01*
X138555657Y-125491655D01*
X138563840Y-125468786D01*
X138574224Y-125446829D01*
X138586711Y-125425996D01*
X138601180Y-125406488D01*
X138617491Y-125388491D01*
X138635488Y-125372180D01*
X138654996Y-125357711D01*
X138675829Y-125345224D01*
X138697786Y-125334840D01*
X138720655Y-125326657D01*
X138744215Y-125320756D01*
X138768241Y-125317192D01*
X138792500Y-125316000D01*
X139337500Y-125316000D01*
X139361759Y-125317192D01*
X139361759Y-125317192D01*
G37*
D15*
X139065000Y-125811000D03*
D13*
G36*
X139361759Y-124347192D02*
G01*
X139385785Y-124350756D01*
X139409345Y-124356657D01*
X139432214Y-124364840D01*
X139454171Y-124375224D01*
X139475004Y-124387711D01*
X139494512Y-124402180D01*
X139512509Y-124418491D01*
X139528820Y-124436488D01*
X139543289Y-124455996D01*
X139555776Y-124476829D01*
X139566160Y-124498786D01*
X139574343Y-124521655D01*
X139580244Y-124545215D01*
X139583808Y-124569241D01*
X139585000Y-124593500D01*
X139585000Y-125088500D01*
X139583808Y-125112759D01*
X139580244Y-125136785D01*
X139574343Y-125160345D01*
X139566160Y-125183214D01*
X139555776Y-125205171D01*
X139543289Y-125226004D01*
X139528820Y-125245512D01*
X139512509Y-125263509D01*
X139494512Y-125279820D01*
X139475004Y-125294289D01*
X139454171Y-125306776D01*
X139432214Y-125317160D01*
X139409345Y-125325343D01*
X139385785Y-125331244D01*
X139361759Y-125334808D01*
X139337500Y-125336000D01*
X138792500Y-125336000D01*
X138768241Y-125334808D01*
X138744215Y-125331244D01*
X138720655Y-125325343D01*
X138697786Y-125317160D01*
X138675829Y-125306776D01*
X138654996Y-125294289D01*
X138635488Y-125279820D01*
X138617491Y-125263509D01*
X138601180Y-125245512D01*
X138586711Y-125226004D01*
X138574224Y-125205171D01*
X138563840Y-125183214D01*
X138555657Y-125160345D01*
X138549756Y-125136785D01*
X138546192Y-125112759D01*
X138545000Y-125088500D01*
X138545000Y-124593500D01*
X138546192Y-124569241D01*
X138549756Y-124545215D01*
X138555657Y-124521655D01*
X138563840Y-124498786D01*
X138574224Y-124476829D01*
X138586711Y-124455996D01*
X138601180Y-124436488D01*
X138617491Y-124418491D01*
X138635488Y-124402180D01*
X138654996Y-124387711D01*
X138675829Y-124375224D01*
X138697786Y-124364840D01*
X138720655Y-124356657D01*
X138744215Y-124350756D01*
X138768241Y-124347192D01*
X138792500Y-124346000D01*
X139337500Y-124346000D01*
X139361759Y-124347192D01*
X139361759Y-124347192D01*
G37*
D15*
X139065000Y-124841000D03*
D13*
G36*
X139234759Y-133318192D02*
G01*
X139258785Y-133321756D01*
X139282345Y-133327657D01*
X139305214Y-133335840D01*
X139327171Y-133346224D01*
X139348004Y-133358711D01*
X139367512Y-133373180D01*
X139385509Y-133389491D01*
X139401820Y-133407488D01*
X139416289Y-133426996D01*
X139428776Y-133447829D01*
X139439160Y-133469786D01*
X139447343Y-133492655D01*
X139453244Y-133516215D01*
X139456808Y-133540241D01*
X139458000Y-133564500D01*
X139458000Y-134059500D01*
X139456808Y-134083759D01*
X139453244Y-134107785D01*
X139447343Y-134131345D01*
X139439160Y-134154214D01*
X139428776Y-134176171D01*
X139416289Y-134197004D01*
X139401820Y-134216512D01*
X139385509Y-134234509D01*
X139367512Y-134250820D01*
X139348004Y-134265289D01*
X139327171Y-134277776D01*
X139305214Y-134288160D01*
X139282345Y-134296343D01*
X139258785Y-134302244D01*
X139234759Y-134305808D01*
X139210500Y-134307000D01*
X138665500Y-134307000D01*
X138641241Y-134305808D01*
X138617215Y-134302244D01*
X138593655Y-134296343D01*
X138570786Y-134288160D01*
X138548829Y-134277776D01*
X138527996Y-134265289D01*
X138508488Y-134250820D01*
X138490491Y-134234509D01*
X138474180Y-134216512D01*
X138459711Y-134197004D01*
X138447224Y-134176171D01*
X138436840Y-134154214D01*
X138428657Y-134131345D01*
X138422756Y-134107785D01*
X138419192Y-134083759D01*
X138418000Y-134059500D01*
X138418000Y-133564500D01*
X138419192Y-133540241D01*
X138422756Y-133516215D01*
X138428657Y-133492655D01*
X138436840Y-133469786D01*
X138447224Y-133447829D01*
X138459711Y-133426996D01*
X138474180Y-133407488D01*
X138490491Y-133389491D01*
X138508488Y-133373180D01*
X138527996Y-133358711D01*
X138548829Y-133346224D01*
X138570786Y-133335840D01*
X138593655Y-133327657D01*
X138617215Y-133321756D01*
X138641241Y-133318192D01*
X138665500Y-133317000D01*
X139210500Y-133317000D01*
X139234759Y-133318192D01*
X139234759Y-133318192D01*
G37*
D15*
X138938000Y-133812000D03*
D13*
G36*
X139234759Y-132348192D02*
G01*
X139258785Y-132351756D01*
X139282345Y-132357657D01*
X139305214Y-132365840D01*
X139327171Y-132376224D01*
X139348004Y-132388711D01*
X139367512Y-132403180D01*
X139385509Y-132419491D01*
X139401820Y-132437488D01*
X139416289Y-132456996D01*
X139428776Y-132477829D01*
X139439160Y-132499786D01*
X139447343Y-132522655D01*
X139453244Y-132546215D01*
X139456808Y-132570241D01*
X139458000Y-132594500D01*
X139458000Y-133089500D01*
X139456808Y-133113759D01*
X139453244Y-133137785D01*
X139447343Y-133161345D01*
X139439160Y-133184214D01*
X139428776Y-133206171D01*
X139416289Y-133227004D01*
X139401820Y-133246512D01*
X139385509Y-133264509D01*
X139367512Y-133280820D01*
X139348004Y-133295289D01*
X139327171Y-133307776D01*
X139305214Y-133318160D01*
X139282345Y-133326343D01*
X139258785Y-133332244D01*
X139234759Y-133335808D01*
X139210500Y-133337000D01*
X138665500Y-133337000D01*
X138641241Y-133335808D01*
X138617215Y-133332244D01*
X138593655Y-133326343D01*
X138570786Y-133318160D01*
X138548829Y-133307776D01*
X138527996Y-133295289D01*
X138508488Y-133280820D01*
X138490491Y-133264509D01*
X138474180Y-133246512D01*
X138459711Y-133227004D01*
X138447224Y-133206171D01*
X138436840Y-133184214D01*
X138428657Y-133161345D01*
X138422756Y-133137785D01*
X138419192Y-133113759D01*
X138418000Y-133089500D01*
X138418000Y-132594500D01*
X138419192Y-132570241D01*
X138422756Y-132546215D01*
X138428657Y-132522655D01*
X138436840Y-132499786D01*
X138447224Y-132477829D01*
X138459711Y-132456996D01*
X138474180Y-132437488D01*
X138490491Y-132419491D01*
X138508488Y-132403180D01*
X138527996Y-132388711D01*
X138548829Y-132376224D01*
X138570786Y-132365840D01*
X138593655Y-132357657D01*
X138617215Y-132351756D01*
X138641241Y-132348192D01*
X138665500Y-132347000D01*
X139210500Y-132347000D01*
X139234759Y-132348192D01*
X139234759Y-132348192D01*
G37*
D15*
X138938000Y-132842000D03*
D13*
G36*
X139361759Y-141469192D02*
G01*
X139385785Y-141472756D01*
X139409345Y-141478657D01*
X139432214Y-141486840D01*
X139454171Y-141497224D01*
X139475004Y-141509711D01*
X139494512Y-141524180D01*
X139512509Y-141540491D01*
X139528820Y-141558488D01*
X139543289Y-141577996D01*
X139555776Y-141598829D01*
X139566160Y-141620786D01*
X139574343Y-141643655D01*
X139580244Y-141667215D01*
X139583808Y-141691241D01*
X139585000Y-141715500D01*
X139585000Y-142210500D01*
X139583808Y-142234759D01*
X139580244Y-142258785D01*
X139574343Y-142282345D01*
X139566160Y-142305214D01*
X139555776Y-142327171D01*
X139543289Y-142348004D01*
X139528820Y-142367512D01*
X139512509Y-142385509D01*
X139494512Y-142401820D01*
X139475004Y-142416289D01*
X139454171Y-142428776D01*
X139432214Y-142439160D01*
X139409345Y-142447343D01*
X139385785Y-142453244D01*
X139361759Y-142456808D01*
X139337500Y-142458000D01*
X138792500Y-142458000D01*
X138768241Y-142456808D01*
X138744215Y-142453244D01*
X138720655Y-142447343D01*
X138697786Y-142439160D01*
X138675829Y-142428776D01*
X138654996Y-142416289D01*
X138635488Y-142401820D01*
X138617491Y-142385509D01*
X138601180Y-142367512D01*
X138586711Y-142348004D01*
X138574224Y-142327171D01*
X138563840Y-142305214D01*
X138555657Y-142282345D01*
X138549756Y-142258785D01*
X138546192Y-142234759D01*
X138545000Y-142210500D01*
X138545000Y-141715500D01*
X138546192Y-141691241D01*
X138549756Y-141667215D01*
X138555657Y-141643655D01*
X138563840Y-141620786D01*
X138574224Y-141598829D01*
X138586711Y-141577996D01*
X138601180Y-141558488D01*
X138617491Y-141540491D01*
X138635488Y-141524180D01*
X138654996Y-141509711D01*
X138675829Y-141497224D01*
X138697786Y-141486840D01*
X138720655Y-141478657D01*
X138744215Y-141472756D01*
X138768241Y-141469192D01*
X138792500Y-141468000D01*
X139337500Y-141468000D01*
X139361759Y-141469192D01*
X139361759Y-141469192D01*
G37*
D15*
X139065000Y-141963000D03*
D13*
G36*
X139361759Y-140499192D02*
G01*
X139385785Y-140502756D01*
X139409345Y-140508657D01*
X139432214Y-140516840D01*
X139454171Y-140527224D01*
X139475004Y-140539711D01*
X139494512Y-140554180D01*
X139512509Y-140570491D01*
X139528820Y-140588488D01*
X139543289Y-140607996D01*
X139555776Y-140628829D01*
X139566160Y-140650786D01*
X139574343Y-140673655D01*
X139580244Y-140697215D01*
X139583808Y-140721241D01*
X139585000Y-140745500D01*
X139585000Y-141240500D01*
X139583808Y-141264759D01*
X139580244Y-141288785D01*
X139574343Y-141312345D01*
X139566160Y-141335214D01*
X139555776Y-141357171D01*
X139543289Y-141378004D01*
X139528820Y-141397512D01*
X139512509Y-141415509D01*
X139494512Y-141431820D01*
X139475004Y-141446289D01*
X139454171Y-141458776D01*
X139432214Y-141469160D01*
X139409345Y-141477343D01*
X139385785Y-141483244D01*
X139361759Y-141486808D01*
X139337500Y-141488000D01*
X138792500Y-141488000D01*
X138768241Y-141486808D01*
X138744215Y-141483244D01*
X138720655Y-141477343D01*
X138697786Y-141469160D01*
X138675829Y-141458776D01*
X138654996Y-141446289D01*
X138635488Y-141431820D01*
X138617491Y-141415509D01*
X138601180Y-141397512D01*
X138586711Y-141378004D01*
X138574224Y-141357171D01*
X138563840Y-141335214D01*
X138555657Y-141312345D01*
X138549756Y-141288785D01*
X138546192Y-141264759D01*
X138545000Y-141240500D01*
X138545000Y-140745500D01*
X138546192Y-140721241D01*
X138549756Y-140697215D01*
X138555657Y-140673655D01*
X138563840Y-140650786D01*
X138574224Y-140628829D01*
X138586711Y-140607996D01*
X138601180Y-140588488D01*
X138617491Y-140570491D01*
X138635488Y-140554180D01*
X138654996Y-140539711D01*
X138675829Y-140527224D01*
X138697786Y-140516840D01*
X138720655Y-140508657D01*
X138744215Y-140502756D01*
X138768241Y-140499192D01*
X138792500Y-140498000D01*
X139337500Y-140498000D01*
X139361759Y-140499192D01*
X139361759Y-140499192D01*
G37*
D15*
X139065000Y-140993000D03*
D13*
G36*
X172333759Y-102351192D02*
G01*
X172357785Y-102354756D01*
X172381345Y-102360657D01*
X172404214Y-102368840D01*
X172426171Y-102379224D01*
X172447004Y-102391711D01*
X172466512Y-102406180D01*
X172484509Y-102422491D01*
X172500820Y-102440488D01*
X172515289Y-102459996D01*
X172527776Y-102480829D01*
X172538160Y-102502786D01*
X172546343Y-102525655D01*
X172552244Y-102549215D01*
X172555808Y-102573241D01*
X172557000Y-102597500D01*
X172557000Y-103142500D01*
X172555808Y-103166759D01*
X172552244Y-103190785D01*
X172546343Y-103214345D01*
X172538160Y-103237214D01*
X172527776Y-103259171D01*
X172515289Y-103280004D01*
X172500820Y-103299512D01*
X172484509Y-103317509D01*
X172466512Y-103333820D01*
X172447004Y-103348289D01*
X172426171Y-103360776D01*
X172404214Y-103371160D01*
X172381345Y-103379343D01*
X172357785Y-103385244D01*
X172333759Y-103388808D01*
X172309500Y-103390000D01*
X171814500Y-103390000D01*
X171790241Y-103388808D01*
X171766215Y-103385244D01*
X171742655Y-103379343D01*
X171719786Y-103371160D01*
X171697829Y-103360776D01*
X171676996Y-103348289D01*
X171657488Y-103333820D01*
X171639491Y-103317509D01*
X171623180Y-103299512D01*
X171608711Y-103280004D01*
X171596224Y-103259171D01*
X171585840Y-103237214D01*
X171577657Y-103214345D01*
X171571756Y-103190785D01*
X171568192Y-103166759D01*
X171567000Y-103142500D01*
X171567000Y-102597500D01*
X171568192Y-102573241D01*
X171571756Y-102549215D01*
X171577657Y-102525655D01*
X171585840Y-102502786D01*
X171596224Y-102480829D01*
X171608711Y-102459996D01*
X171623180Y-102440488D01*
X171639491Y-102422491D01*
X171657488Y-102406180D01*
X171676996Y-102391711D01*
X171697829Y-102379224D01*
X171719786Y-102368840D01*
X171742655Y-102360657D01*
X171766215Y-102354756D01*
X171790241Y-102351192D01*
X171814500Y-102350000D01*
X172309500Y-102350000D01*
X172333759Y-102351192D01*
X172333759Y-102351192D01*
G37*
D15*
X172062000Y-102870000D03*
D13*
G36*
X171363759Y-102351192D02*
G01*
X171387785Y-102354756D01*
X171411345Y-102360657D01*
X171434214Y-102368840D01*
X171456171Y-102379224D01*
X171477004Y-102391711D01*
X171496512Y-102406180D01*
X171514509Y-102422491D01*
X171530820Y-102440488D01*
X171545289Y-102459996D01*
X171557776Y-102480829D01*
X171568160Y-102502786D01*
X171576343Y-102525655D01*
X171582244Y-102549215D01*
X171585808Y-102573241D01*
X171587000Y-102597500D01*
X171587000Y-103142500D01*
X171585808Y-103166759D01*
X171582244Y-103190785D01*
X171576343Y-103214345D01*
X171568160Y-103237214D01*
X171557776Y-103259171D01*
X171545289Y-103280004D01*
X171530820Y-103299512D01*
X171514509Y-103317509D01*
X171496512Y-103333820D01*
X171477004Y-103348289D01*
X171456171Y-103360776D01*
X171434214Y-103371160D01*
X171411345Y-103379343D01*
X171387785Y-103385244D01*
X171363759Y-103388808D01*
X171339500Y-103390000D01*
X170844500Y-103390000D01*
X170820241Y-103388808D01*
X170796215Y-103385244D01*
X170772655Y-103379343D01*
X170749786Y-103371160D01*
X170727829Y-103360776D01*
X170706996Y-103348289D01*
X170687488Y-103333820D01*
X170669491Y-103317509D01*
X170653180Y-103299512D01*
X170638711Y-103280004D01*
X170626224Y-103259171D01*
X170615840Y-103237214D01*
X170607657Y-103214345D01*
X170601756Y-103190785D01*
X170598192Y-103166759D01*
X170597000Y-103142500D01*
X170597000Y-102597500D01*
X170598192Y-102573241D01*
X170601756Y-102549215D01*
X170607657Y-102525655D01*
X170615840Y-102502786D01*
X170626224Y-102480829D01*
X170638711Y-102459996D01*
X170653180Y-102440488D01*
X170669491Y-102422491D01*
X170687488Y-102406180D01*
X170706996Y-102391711D01*
X170727829Y-102379224D01*
X170749786Y-102368840D01*
X170772655Y-102360657D01*
X170796215Y-102354756D01*
X170820241Y-102351192D01*
X170844500Y-102350000D01*
X171339500Y-102350000D01*
X171363759Y-102351192D01*
X171363759Y-102351192D01*
G37*
D15*
X171092000Y-102870000D03*
D13*
G36*
X94482759Y-127370192D02*
G01*
X94506785Y-127373756D01*
X94530345Y-127379657D01*
X94553214Y-127387840D01*
X94575171Y-127398224D01*
X94596004Y-127410711D01*
X94615512Y-127425180D01*
X94633509Y-127441491D01*
X94649820Y-127459488D01*
X94664289Y-127478996D01*
X94676776Y-127499829D01*
X94687160Y-127521786D01*
X94695343Y-127544655D01*
X94701244Y-127568215D01*
X94704808Y-127592241D01*
X94706000Y-127616500D01*
X94706000Y-128161500D01*
X94704808Y-128185759D01*
X94701244Y-128209785D01*
X94695343Y-128233345D01*
X94687160Y-128256214D01*
X94676776Y-128278171D01*
X94664289Y-128299004D01*
X94649820Y-128318512D01*
X94633509Y-128336509D01*
X94615512Y-128352820D01*
X94596004Y-128367289D01*
X94575171Y-128379776D01*
X94553214Y-128390160D01*
X94530345Y-128398343D01*
X94506785Y-128404244D01*
X94482759Y-128407808D01*
X94458500Y-128409000D01*
X93963500Y-128409000D01*
X93939241Y-128407808D01*
X93915215Y-128404244D01*
X93891655Y-128398343D01*
X93868786Y-128390160D01*
X93846829Y-128379776D01*
X93825996Y-128367289D01*
X93806488Y-128352820D01*
X93788491Y-128336509D01*
X93772180Y-128318512D01*
X93757711Y-128299004D01*
X93745224Y-128278171D01*
X93734840Y-128256214D01*
X93726657Y-128233345D01*
X93720756Y-128209785D01*
X93717192Y-128185759D01*
X93716000Y-128161500D01*
X93716000Y-127616500D01*
X93717192Y-127592241D01*
X93720756Y-127568215D01*
X93726657Y-127544655D01*
X93734840Y-127521786D01*
X93745224Y-127499829D01*
X93757711Y-127478996D01*
X93772180Y-127459488D01*
X93788491Y-127441491D01*
X93806488Y-127425180D01*
X93825996Y-127410711D01*
X93846829Y-127398224D01*
X93868786Y-127387840D01*
X93891655Y-127379657D01*
X93915215Y-127373756D01*
X93939241Y-127370192D01*
X93963500Y-127369000D01*
X94458500Y-127369000D01*
X94482759Y-127370192D01*
X94482759Y-127370192D01*
G37*
D15*
X94211000Y-127889000D03*
D13*
G36*
X93512759Y-127370192D02*
G01*
X93536785Y-127373756D01*
X93560345Y-127379657D01*
X93583214Y-127387840D01*
X93605171Y-127398224D01*
X93626004Y-127410711D01*
X93645512Y-127425180D01*
X93663509Y-127441491D01*
X93679820Y-127459488D01*
X93694289Y-127478996D01*
X93706776Y-127499829D01*
X93717160Y-127521786D01*
X93725343Y-127544655D01*
X93731244Y-127568215D01*
X93734808Y-127592241D01*
X93736000Y-127616500D01*
X93736000Y-128161500D01*
X93734808Y-128185759D01*
X93731244Y-128209785D01*
X93725343Y-128233345D01*
X93717160Y-128256214D01*
X93706776Y-128278171D01*
X93694289Y-128299004D01*
X93679820Y-128318512D01*
X93663509Y-128336509D01*
X93645512Y-128352820D01*
X93626004Y-128367289D01*
X93605171Y-128379776D01*
X93583214Y-128390160D01*
X93560345Y-128398343D01*
X93536785Y-128404244D01*
X93512759Y-128407808D01*
X93488500Y-128409000D01*
X92993500Y-128409000D01*
X92969241Y-128407808D01*
X92945215Y-128404244D01*
X92921655Y-128398343D01*
X92898786Y-128390160D01*
X92876829Y-128379776D01*
X92855996Y-128367289D01*
X92836488Y-128352820D01*
X92818491Y-128336509D01*
X92802180Y-128318512D01*
X92787711Y-128299004D01*
X92775224Y-128278171D01*
X92764840Y-128256214D01*
X92756657Y-128233345D01*
X92750756Y-128209785D01*
X92747192Y-128185759D01*
X92746000Y-128161500D01*
X92746000Y-127616500D01*
X92747192Y-127592241D01*
X92750756Y-127568215D01*
X92756657Y-127544655D01*
X92764840Y-127521786D01*
X92775224Y-127499829D01*
X92787711Y-127478996D01*
X92802180Y-127459488D01*
X92818491Y-127441491D01*
X92836488Y-127425180D01*
X92855996Y-127410711D01*
X92876829Y-127398224D01*
X92898786Y-127387840D01*
X92921655Y-127379657D01*
X92945215Y-127373756D01*
X92969241Y-127370192D01*
X92993500Y-127369000D01*
X93488500Y-127369000D01*
X93512759Y-127370192D01*
X93512759Y-127370192D01*
G37*
D15*
X93241000Y-127889000D03*
D13*
G36*
X171363759Y-109971192D02*
G01*
X171387785Y-109974756D01*
X171411345Y-109980657D01*
X171434214Y-109988840D01*
X171456171Y-109999224D01*
X171477004Y-110011711D01*
X171496512Y-110026180D01*
X171514509Y-110042491D01*
X171530820Y-110060488D01*
X171545289Y-110079996D01*
X171557776Y-110100829D01*
X171568160Y-110122786D01*
X171576343Y-110145655D01*
X171582244Y-110169215D01*
X171585808Y-110193241D01*
X171587000Y-110217500D01*
X171587000Y-110762500D01*
X171585808Y-110786759D01*
X171582244Y-110810785D01*
X171576343Y-110834345D01*
X171568160Y-110857214D01*
X171557776Y-110879171D01*
X171545289Y-110900004D01*
X171530820Y-110919512D01*
X171514509Y-110937509D01*
X171496512Y-110953820D01*
X171477004Y-110968289D01*
X171456171Y-110980776D01*
X171434214Y-110991160D01*
X171411345Y-110999343D01*
X171387785Y-111005244D01*
X171363759Y-111008808D01*
X171339500Y-111010000D01*
X170844500Y-111010000D01*
X170820241Y-111008808D01*
X170796215Y-111005244D01*
X170772655Y-110999343D01*
X170749786Y-110991160D01*
X170727829Y-110980776D01*
X170706996Y-110968289D01*
X170687488Y-110953820D01*
X170669491Y-110937509D01*
X170653180Y-110919512D01*
X170638711Y-110900004D01*
X170626224Y-110879171D01*
X170615840Y-110857214D01*
X170607657Y-110834345D01*
X170601756Y-110810785D01*
X170598192Y-110786759D01*
X170597000Y-110762500D01*
X170597000Y-110217500D01*
X170598192Y-110193241D01*
X170601756Y-110169215D01*
X170607657Y-110145655D01*
X170615840Y-110122786D01*
X170626224Y-110100829D01*
X170638711Y-110079996D01*
X170653180Y-110060488D01*
X170669491Y-110042491D01*
X170687488Y-110026180D01*
X170706996Y-110011711D01*
X170727829Y-109999224D01*
X170749786Y-109988840D01*
X170772655Y-109980657D01*
X170796215Y-109974756D01*
X170820241Y-109971192D01*
X170844500Y-109970000D01*
X171339500Y-109970000D01*
X171363759Y-109971192D01*
X171363759Y-109971192D01*
G37*
D15*
X171092000Y-110490000D03*
D13*
G36*
X172333759Y-109971192D02*
G01*
X172357785Y-109974756D01*
X172381345Y-109980657D01*
X172404214Y-109988840D01*
X172426171Y-109999224D01*
X172447004Y-110011711D01*
X172466512Y-110026180D01*
X172484509Y-110042491D01*
X172500820Y-110060488D01*
X172515289Y-110079996D01*
X172527776Y-110100829D01*
X172538160Y-110122786D01*
X172546343Y-110145655D01*
X172552244Y-110169215D01*
X172555808Y-110193241D01*
X172557000Y-110217500D01*
X172557000Y-110762500D01*
X172555808Y-110786759D01*
X172552244Y-110810785D01*
X172546343Y-110834345D01*
X172538160Y-110857214D01*
X172527776Y-110879171D01*
X172515289Y-110900004D01*
X172500820Y-110919512D01*
X172484509Y-110937509D01*
X172466512Y-110953820D01*
X172447004Y-110968289D01*
X172426171Y-110980776D01*
X172404214Y-110991160D01*
X172381345Y-110999343D01*
X172357785Y-111005244D01*
X172333759Y-111008808D01*
X172309500Y-111010000D01*
X171814500Y-111010000D01*
X171790241Y-111008808D01*
X171766215Y-111005244D01*
X171742655Y-110999343D01*
X171719786Y-110991160D01*
X171697829Y-110980776D01*
X171676996Y-110968289D01*
X171657488Y-110953820D01*
X171639491Y-110937509D01*
X171623180Y-110919512D01*
X171608711Y-110900004D01*
X171596224Y-110879171D01*
X171585840Y-110857214D01*
X171577657Y-110834345D01*
X171571756Y-110810785D01*
X171568192Y-110786759D01*
X171567000Y-110762500D01*
X171567000Y-110217500D01*
X171568192Y-110193241D01*
X171571756Y-110169215D01*
X171577657Y-110145655D01*
X171585840Y-110122786D01*
X171596224Y-110100829D01*
X171608711Y-110079996D01*
X171623180Y-110060488D01*
X171639491Y-110042491D01*
X171657488Y-110026180D01*
X171676996Y-110011711D01*
X171697829Y-109999224D01*
X171719786Y-109988840D01*
X171742655Y-109980657D01*
X171766215Y-109974756D01*
X171790241Y-109971192D01*
X171814500Y-109970000D01*
X172309500Y-109970000D01*
X172333759Y-109971192D01*
X172333759Y-109971192D01*
G37*
D15*
X172062000Y-110490000D03*
D13*
G36*
X171363759Y-107431192D02*
G01*
X171387785Y-107434756D01*
X171411345Y-107440657D01*
X171434214Y-107448840D01*
X171456171Y-107459224D01*
X171477004Y-107471711D01*
X171496512Y-107486180D01*
X171514509Y-107502491D01*
X171530820Y-107520488D01*
X171545289Y-107539996D01*
X171557776Y-107560829D01*
X171568160Y-107582786D01*
X171576343Y-107605655D01*
X171582244Y-107629215D01*
X171585808Y-107653241D01*
X171587000Y-107677500D01*
X171587000Y-108222500D01*
X171585808Y-108246759D01*
X171582244Y-108270785D01*
X171576343Y-108294345D01*
X171568160Y-108317214D01*
X171557776Y-108339171D01*
X171545289Y-108360004D01*
X171530820Y-108379512D01*
X171514509Y-108397509D01*
X171496512Y-108413820D01*
X171477004Y-108428289D01*
X171456171Y-108440776D01*
X171434214Y-108451160D01*
X171411345Y-108459343D01*
X171387785Y-108465244D01*
X171363759Y-108468808D01*
X171339500Y-108470000D01*
X170844500Y-108470000D01*
X170820241Y-108468808D01*
X170796215Y-108465244D01*
X170772655Y-108459343D01*
X170749786Y-108451160D01*
X170727829Y-108440776D01*
X170706996Y-108428289D01*
X170687488Y-108413820D01*
X170669491Y-108397509D01*
X170653180Y-108379512D01*
X170638711Y-108360004D01*
X170626224Y-108339171D01*
X170615840Y-108317214D01*
X170607657Y-108294345D01*
X170601756Y-108270785D01*
X170598192Y-108246759D01*
X170597000Y-108222500D01*
X170597000Y-107677500D01*
X170598192Y-107653241D01*
X170601756Y-107629215D01*
X170607657Y-107605655D01*
X170615840Y-107582786D01*
X170626224Y-107560829D01*
X170638711Y-107539996D01*
X170653180Y-107520488D01*
X170669491Y-107502491D01*
X170687488Y-107486180D01*
X170706996Y-107471711D01*
X170727829Y-107459224D01*
X170749786Y-107448840D01*
X170772655Y-107440657D01*
X170796215Y-107434756D01*
X170820241Y-107431192D01*
X170844500Y-107430000D01*
X171339500Y-107430000D01*
X171363759Y-107431192D01*
X171363759Y-107431192D01*
G37*
D15*
X171092000Y-107950000D03*
D13*
G36*
X172333759Y-107431192D02*
G01*
X172357785Y-107434756D01*
X172381345Y-107440657D01*
X172404214Y-107448840D01*
X172426171Y-107459224D01*
X172447004Y-107471711D01*
X172466512Y-107486180D01*
X172484509Y-107502491D01*
X172500820Y-107520488D01*
X172515289Y-107539996D01*
X172527776Y-107560829D01*
X172538160Y-107582786D01*
X172546343Y-107605655D01*
X172552244Y-107629215D01*
X172555808Y-107653241D01*
X172557000Y-107677500D01*
X172557000Y-108222500D01*
X172555808Y-108246759D01*
X172552244Y-108270785D01*
X172546343Y-108294345D01*
X172538160Y-108317214D01*
X172527776Y-108339171D01*
X172515289Y-108360004D01*
X172500820Y-108379512D01*
X172484509Y-108397509D01*
X172466512Y-108413820D01*
X172447004Y-108428289D01*
X172426171Y-108440776D01*
X172404214Y-108451160D01*
X172381345Y-108459343D01*
X172357785Y-108465244D01*
X172333759Y-108468808D01*
X172309500Y-108470000D01*
X171814500Y-108470000D01*
X171790241Y-108468808D01*
X171766215Y-108465244D01*
X171742655Y-108459343D01*
X171719786Y-108451160D01*
X171697829Y-108440776D01*
X171676996Y-108428289D01*
X171657488Y-108413820D01*
X171639491Y-108397509D01*
X171623180Y-108379512D01*
X171608711Y-108360004D01*
X171596224Y-108339171D01*
X171585840Y-108317214D01*
X171577657Y-108294345D01*
X171571756Y-108270785D01*
X171568192Y-108246759D01*
X171567000Y-108222500D01*
X171567000Y-107677500D01*
X171568192Y-107653241D01*
X171571756Y-107629215D01*
X171577657Y-107605655D01*
X171585840Y-107582786D01*
X171596224Y-107560829D01*
X171608711Y-107539996D01*
X171623180Y-107520488D01*
X171639491Y-107502491D01*
X171657488Y-107486180D01*
X171676996Y-107471711D01*
X171697829Y-107459224D01*
X171719786Y-107448840D01*
X171742655Y-107440657D01*
X171766215Y-107434756D01*
X171790241Y-107431192D01*
X171814500Y-107430000D01*
X172309500Y-107430000D01*
X172333759Y-107431192D01*
X172333759Y-107431192D01*
G37*
D15*
X172062000Y-107950000D03*
D13*
G36*
X171340759Y-104891192D02*
G01*
X171364785Y-104894756D01*
X171388345Y-104900657D01*
X171411214Y-104908840D01*
X171433171Y-104919224D01*
X171454004Y-104931711D01*
X171473512Y-104946180D01*
X171491509Y-104962491D01*
X171507820Y-104980488D01*
X171522289Y-104999996D01*
X171534776Y-105020829D01*
X171545160Y-105042786D01*
X171553343Y-105065655D01*
X171559244Y-105089215D01*
X171562808Y-105113241D01*
X171564000Y-105137500D01*
X171564000Y-105682500D01*
X171562808Y-105706759D01*
X171559244Y-105730785D01*
X171553343Y-105754345D01*
X171545160Y-105777214D01*
X171534776Y-105799171D01*
X171522289Y-105820004D01*
X171507820Y-105839512D01*
X171491509Y-105857509D01*
X171473512Y-105873820D01*
X171454004Y-105888289D01*
X171433171Y-105900776D01*
X171411214Y-105911160D01*
X171388345Y-105919343D01*
X171364785Y-105925244D01*
X171340759Y-105928808D01*
X171316500Y-105930000D01*
X170821500Y-105930000D01*
X170797241Y-105928808D01*
X170773215Y-105925244D01*
X170749655Y-105919343D01*
X170726786Y-105911160D01*
X170704829Y-105900776D01*
X170683996Y-105888289D01*
X170664488Y-105873820D01*
X170646491Y-105857509D01*
X170630180Y-105839512D01*
X170615711Y-105820004D01*
X170603224Y-105799171D01*
X170592840Y-105777214D01*
X170584657Y-105754345D01*
X170578756Y-105730785D01*
X170575192Y-105706759D01*
X170574000Y-105682500D01*
X170574000Y-105137500D01*
X170575192Y-105113241D01*
X170578756Y-105089215D01*
X170584657Y-105065655D01*
X170592840Y-105042786D01*
X170603224Y-105020829D01*
X170615711Y-104999996D01*
X170630180Y-104980488D01*
X170646491Y-104962491D01*
X170664488Y-104946180D01*
X170683996Y-104931711D01*
X170704829Y-104919224D01*
X170726786Y-104908840D01*
X170749655Y-104900657D01*
X170773215Y-104894756D01*
X170797241Y-104891192D01*
X170821500Y-104890000D01*
X171316500Y-104890000D01*
X171340759Y-104891192D01*
X171340759Y-104891192D01*
G37*
D15*
X171069000Y-105410000D03*
D13*
G36*
X172310759Y-104891192D02*
G01*
X172334785Y-104894756D01*
X172358345Y-104900657D01*
X172381214Y-104908840D01*
X172403171Y-104919224D01*
X172424004Y-104931711D01*
X172443512Y-104946180D01*
X172461509Y-104962491D01*
X172477820Y-104980488D01*
X172492289Y-104999996D01*
X172504776Y-105020829D01*
X172515160Y-105042786D01*
X172523343Y-105065655D01*
X172529244Y-105089215D01*
X172532808Y-105113241D01*
X172534000Y-105137500D01*
X172534000Y-105682500D01*
X172532808Y-105706759D01*
X172529244Y-105730785D01*
X172523343Y-105754345D01*
X172515160Y-105777214D01*
X172504776Y-105799171D01*
X172492289Y-105820004D01*
X172477820Y-105839512D01*
X172461509Y-105857509D01*
X172443512Y-105873820D01*
X172424004Y-105888289D01*
X172403171Y-105900776D01*
X172381214Y-105911160D01*
X172358345Y-105919343D01*
X172334785Y-105925244D01*
X172310759Y-105928808D01*
X172286500Y-105930000D01*
X171791500Y-105930000D01*
X171767241Y-105928808D01*
X171743215Y-105925244D01*
X171719655Y-105919343D01*
X171696786Y-105911160D01*
X171674829Y-105900776D01*
X171653996Y-105888289D01*
X171634488Y-105873820D01*
X171616491Y-105857509D01*
X171600180Y-105839512D01*
X171585711Y-105820004D01*
X171573224Y-105799171D01*
X171562840Y-105777214D01*
X171554657Y-105754345D01*
X171548756Y-105730785D01*
X171545192Y-105706759D01*
X171544000Y-105682500D01*
X171544000Y-105137500D01*
X171545192Y-105113241D01*
X171548756Y-105089215D01*
X171554657Y-105065655D01*
X171562840Y-105042786D01*
X171573224Y-105020829D01*
X171585711Y-104999996D01*
X171600180Y-104980488D01*
X171616491Y-104962491D01*
X171634488Y-104946180D01*
X171653996Y-104931711D01*
X171674829Y-104919224D01*
X171696786Y-104908840D01*
X171719655Y-104900657D01*
X171743215Y-104894756D01*
X171767241Y-104891192D01*
X171791500Y-104890000D01*
X172286500Y-104890000D01*
X172310759Y-104891192D01*
X172310759Y-104891192D01*
G37*
D15*
X172039000Y-105410000D03*
D13*
G36*
X110230759Y-126735192D02*
G01*
X110254785Y-126738756D01*
X110278345Y-126744657D01*
X110301214Y-126752840D01*
X110323171Y-126763224D01*
X110344004Y-126775711D01*
X110363512Y-126790180D01*
X110381509Y-126806491D01*
X110397820Y-126824488D01*
X110412289Y-126843996D01*
X110424776Y-126864829D01*
X110435160Y-126886786D01*
X110443343Y-126909655D01*
X110449244Y-126933215D01*
X110452808Y-126957241D01*
X110454000Y-126981500D01*
X110454000Y-127526500D01*
X110452808Y-127550759D01*
X110449244Y-127574785D01*
X110443343Y-127598345D01*
X110435160Y-127621214D01*
X110424776Y-127643171D01*
X110412289Y-127664004D01*
X110397820Y-127683512D01*
X110381509Y-127701509D01*
X110363512Y-127717820D01*
X110344004Y-127732289D01*
X110323171Y-127744776D01*
X110301214Y-127755160D01*
X110278345Y-127763343D01*
X110254785Y-127769244D01*
X110230759Y-127772808D01*
X110206500Y-127774000D01*
X109711500Y-127774000D01*
X109687241Y-127772808D01*
X109663215Y-127769244D01*
X109639655Y-127763343D01*
X109616786Y-127755160D01*
X109594829Y-127744776D01*
X109573996Y-127732289D01*
X109554488Y-127717820D01*
X109536491Y-127701509D01*
X109520180Y-127683512D01*
X109505711Y-127664004D01*
X109493224Y-127643171D01*
X109482840Y-127621214D01*
X109474657Y-127598345D01*
X109468756Y-127574785D01*
X109465192Y-127550759D01*
X109464000Y-127526500D01*
X109464000Y-126981500D01*
X109465192Y-126957241D01*
X109468756Y-126933215D01*
X109474657Y-126909655D01*
X109482840Y-126886786D01*
X109493224Y-126864829D01*
X109505711Y-126843996D01*
X109520180Y-126824488D01*
X109536491Y-126806491D01*
X109554488Y-126790180D01*
X109573996Y-126775711D01*
X109594829Y-126763224D01*
X109616786Y-126752840D01*
X109639655Y-126744657D01*
X109663215Y-126738756D01*
X109687241Y-126735192D01*
X109711500Y-126734000D01*
X110206500Y-126734000D01*
X110230759Y-126735192D01*
X110230759Y-126735192D01*
G37*
D15*
X109959000Y-127254000D03*
D13*
G36*
X109260759Y-126735192D02*
G01*
X109284785Y-126738756D01*
X109308345Y-126744657D01*
X109331214Y-126752840D01*
X109353171Y-126763224D01*
X109374004Y-126775711D01*
X109393512Y-126790180D01*
X109411509Y-126806491D01*
X109427820Y-126824488D01*
X109442289Y-126843996D01*
X109454776Y-126864829D01*
X109465160Y-126886786D01*
X109473343Y-126909655D01*
X109479244Y-126933215D01*
X109482808Y-126957241D01*
X109484000Y-126981500D01*
X109484000Y-127526500D01*
X109482808Y-127550759D01*
X109479244Y-127574785D01*
X109473343Y-127598345D01*
X109465160Y-127621214D01*
X109454776Y-127643171D01*
X109442289Y-127664004D01*
X109427820Y-127683512D01*
X109411509Y-127701509D01*
X109393512Y-127717820D01*
X109374004Y-127732289D01*
X109353171Y-127744776D01*
X109331214Y-127755160D01*
X109308345Y-127763343D01*
X109284785Y-127769244D01*
X109260759Y-127772808D01*
X109236500Y-127774000D01*
X108741500Y-127774000D01*
X108717241Y-127772808D01*
X108693215Y-127769244D01*
X108669655Y-127763343D01*
X108646786Y-127755160D01*
X108624829Y-127744776D01*
X108603996Y-127732289D01*
X108584488Y-127717820D01*
X108566491Y-127701509D01*
X108550180Y-127683512D01*
X108535711Y-127664004D01*
X108523224Y-127643171D01*
X108512840Y-127621214D01*
X108504657Y-127598345D01*
X108498756Y-127574785D01*
X108495192Y-127550759D01*
X108494000Y-127526500D01*
X108494000Y-126981500D01*
X108495192Y-126957241D01*
X108498756Y-126933215D01*
X108504657Y-126909655D01*
X108512840Y-126886786D01*
X108523224Y-126864829D01*
X108535711Y-126843996D01*
X108550180Y-126824488D01*
X108566491Y-126806491D01*
X108584488Y-126790180D01*
X108603996Y-126775711D01*
X108624829Y-126763224D01*
X108646786Y-126752840D01*
X108669655Y-126744657D01*
X108693215Y-126738756D01*
X108717241Y-126735192D01*
X108741500Y-126734000D01*
X109236500Y-126734000D01*
X109260759Y-126735192D01*
X109260759Y-126735192D01*
G37*
D15*
X108989000Y-127254000D03*
D13*
G36*
X110126759Y-118480192D02*
G01*
X110150785Y-118483756D01*
X110174345Y-118489657D01*
X110197214Y-118497840D01*
X110219171Y-118508224D01*
X110240004Y-118520711D01*
X110259512Y-118535180D01*
X110277509Y-118551491D01*
X110293820Y-118569488D01*
X110308289Y-118588996D01*
X110320776Y-118609829D01*
X110331160Y-118631786D01*
X110339343Y-118654655D01*
X110345244Y-118678215D01*
X110348808Y-118702241D01*
X110350000Y-118726500D01*
X110350000Y-119271500D01*
X110348808Y-119295759D01*
X110345244Y-119319785D01*
X110339343Y-119343345D01*
X110331160Y-119366214D01*
X110320776Y-119388171D01*
X110308289Y-119409004D01*
X110293820Y-119428512D01*
X110277509Y-119446509D01*
X110259512Y-119462820D01*
X110240004Y-119477289D01*
X110219171Y-119489776D01*
X110197214Y-119500160D01*
X110174345Y-119508343D01*
X110150785Y-119514244D01*
X110126759Y-119517808D01*
X110102500Y-119519000D01*
X109607500Y-119519000D01*
X109583241Y-119517808D01*
X109559215Y-119514244D01*
X109535655Y-119508343D01*
X109512786Y-119500160D01*
X109490829Y-119489776D01*
X109469996Y-119477289D01*
X109450488Y-119462820D01*
X109432491Y-119446509D01*
X109416180Y-119428512D01*
X109401711Y-119409004D01*
X109389224Y-119388171D01*
X109378840Y-119366214D01*
X109370657Y-119343345D01*
X109364756Y-119319785D01*
X109361192Y-119295759D01*
X109360000Y-119271500D01*
X109360000Y-118726500D01*
X109361192Y-118702241D01*
X109364756Y-118678215D01*
X109370657Y-118654655D01*
X109378840Y-118631786D01*
X109389224Y-118609829D01*
X109401711Y-118588996D01*
X109416180Y-118569488D01*
X109432491Y-118551491D01*
X109450488Y-118535180D01*
X109469996Y-118520711D01*
X109490829Y-118508224D01*
X109512786Y-118497840D01*
X109535655Y-118489657D01*
X109559215Y-118483756D01*
X109583241Y-118480192D01*
X109607500Y-118479000D01*
X110102500Y-118479000D01*
X110126759Y-118480192D01*
X110126759Y-118480192D01*
G37*
D15*
X109855000Y-118999000D03*
D13*
G36*
X109156759Y-118480192D02*
G01*
X109180785Y-118483756D01*
X109204345Y-118489657D01*
X109227214Y-118497840D01*
X109249171Y-118508224D01*
X109270004Y-118520711D01*
X109289512Y-118535180D01*
X109307509Y-118551491D01*
X109323820Y-118569488D01*
X109338289Y-118588996D01*
X109350776Y-118609829D01*
X109361160Y-118631786D01*
X109369343Y-118654655D01*
X109375244Y-118678215D01*
X109378808Y-118702241D01*
X109380000Y-118726500D01*
X109380000Y-119271500D01*
X109378808Y-119295759D01*
X109375244Y-119319785D01*
X109369343Y-119343345D01*
X109361160Y-119366214D01*
X109350776Y-119388171D01*
X109338289Y-119409004D01*
X109323820Y-119428512D01*
X109307509Y-119446509D01*
X109289512Y-119462820D01*
X109270004Y-119477289D01*
X109249171Y-119489776D01*
X109227214Y-119500160D01*
X109204345Y-119508343D01*
X109180785Y-119514244D01*
X109156759Y-119517808D01*
X109132500Y-119519000D01*
X108637500Y-119519000D01*
X108613241Y-119517808D01*
X108589215Y-119514244D01*
X108565655Y-119508343D01*
X108542786Y-119500160D01*
X108520829Y-119489776D01*
X108499996Y-119477289D01*
X108480488Y-119462820D01*
X108462491Y-119446509D01*
X108446180Y-119428512D01*
X108431711Y-119409004D01*
X108419224Y-119388171D01*
X108408840Y-119366214D01*
X108400657Y-119343345D01*
X108394756Y-119319785D01*
X108391192Y-119295759D01*
X108390000Y-119271500D01*
X108390000Y-118726500D01*
X108391192Y-118702241D01*
X108394756Y-118678215D01*
X108400657Y-118654655D01*
X108408840Y-118631786D01*
X108419224Y-118609829D01*
X108431711Y-118588996D01*
X108446180Y-118569488D01*
X108462491Y-118551491D01*
X108480488Y-118535180D01*
X108499996Y-118520711D01*
X108520829Y-118508224D01*
X108542786Y-118497840D01*
X108565655Y-118489657D01*
X108589215Y-118483756D01*
X108613241Y-118480192D01*
X108637500Y-118479000D01*
X109132500Y-118479000D01*
X109156759Y-118480192D01*
X109156759Y-118480192D01*
G37*
D15*
X108885000Y-118999000D03*
D13*
G36*
X110126759Y-109971192D02*
G01*
X110150785Y-109974756D01*
X110174345Y-109980657D01*
X110197214Y-109988840D01*
X110219171Y-109999224D01*
X110240004Y-110011711D01*
X110259512Y-110026180D01*
X110277509Y-110042491D01*
X110293820Y-110060488D01*
X110308289Y-110079996D01*
X110320776Y-110100829D01*
X110331160Y-110122786D01*
X110339343Y-110145655D01*
X110345244Y-110169215D01*
X110348808Y-110193241D01*
X110350000Y-110217500D01*
X110350000Y-110762500D01*
X110348808Y-110786759D01*
X110345244Y-110810785D01*
X110339343Y-110834345D01*
X110331160Y-110857214D01*
X110320776Y-110879171D01*
X110308289Y-110900004D01*
X110293820Y-110919512D01*
X110277509Y-110937509D01*
X110259512Y-110953820D01*
X110240004Y-110968289D01*
X110219171Y-110980776D01*
X110197214Y-110991160D01*
X110174345Y-110999343D01*
X110150785Y-111005244D01*
X110126759Y-111008808D01*
X110102500Y-111010000D01*
X109607500Y-111010000D01*
X109583241Y-111008808D01*
X109559215Y-111005244D01*
X109535655Y-110999343D01*
X109512786Y-110991160D01*
X109490829Y-110980776D01*
X109469996Y-110968289D01*
X109450488Y-110953820D01*
X109432491Y-110937509D01*
X109416180Y-110919512D01*
X109401711Y-110900004D01*
X109389224Y-110879171D01*
X109378840Y-110857214D01*
X109370657Y-110834345D01*
X109364756Y-110810785D01*
X109361192Y-110786759D01*
X109360000Y-110762500D01*
X109360000Y-110217500D01*
X109361192Y-110193241D01*
X109364756Y-110169215D01*
X109370657Y-110145655D01*
X109378840Y-110122786D01*
X109389224Y-110100829D01*
X109401711Y-110079996D01*
X109416180Y-110060488D01*
X109432491Y-110042491D01*
X109450488Y-110026180D01*
X109469996Y-110011711D01*
X109490829Y-109999224D01*
X109512786Y-109988840D01*
X109535655Y-109980657D01*
X109559215Y-109974756D01*
X109583241Y-109971192D01*
X109607500Y-109970000D01*
X110102500Y-109970000D01*
X110126759Y-109971192D01*
X110126759Y-109971192D01*
G37*
D15*
X109855000Y-110490000D03*
D13*
G36*
X109156759Y-109971192D02*
G01*
X109180785Y-109974756D01*
X109204345Y-109980657D01*
X109227214Y-109988840D01*
X109249171Y-109999224D01*
X109270004Y-110011711D01*
X109289512Y-110026180D01*
X109307509Y-110042491D01*
X109323820Y-110060488D01*
X109338289Y-110079996D01*
X109350776Y-110100829D01*
X109361160Y-110122786D01*
X109369343Y-110145655D01*
X109375244Y-110169215D01*
X109378808Y-110193241D01*
X109380000Y-110217500D01*
X109380000Y-110762500D01*
X109378808Y-110786759D01*
X109375244Y-110810785D01*
X109369343Y-110834345D01*
X109361160Y-110857214D01*
X109350776Y-110879171D01*
X109338289Y-110900004D01*
X109323820Y-110919512D01*
X109307509Y-110937509D01*
X109289512Y-110953820D01*
X109270004Y-110968289D01*
X109249171Y-110980776D01*
X109227214Y-110991160D01*
X109204345Y-110999343D01*
X109180785Y-111005244D01*
X109156759Y-111008808D01*
X109132500Y-111010000D01*
X108637500Y-111010000D01*
X108613241Y-111008808D01*
X108589215Y-111005244D01*
X108565655Y-110999343D01*
X108542786Y-110991160D01*
X108520829Y-110980776D01*
X108499996Y-110968289D01*
X108480488Y-110953820D01*
X108462491Y-110937509D01*
X108446180Y-110919512D01*
X108431711Y-110900004D01*
X108419224Y-110879171D01*
X108408840Y-110857214D01*
X108400657Y-110834345D01*
X108394756Y-110810785D01*
X108391192Y-110786759D01*
X108390000Y-110762500D01*
X108390000Y-110217500D01*
X108391192Y-110193241D01*
X108394756Y-110169215D01*
X108400657Y-110145655D01*
X108408840Y-110122786D01*
X108419224Y-110100829D01*
X108431711Y-110079996D01*
X108446180Y-110060488D01*
X108462491Y-110042491D01*
X108480488Y-110026180D01*
X108499996Y-110011711D01*
X108520829Y-109999224D01*
X108542786Y-109988840D01*
X108565655Y-109980657D01*
X108589215Y-109974756D01*
X108613241Y-109971192D01*
X108637500Y-109970000D01*
X109132500Y-109970000D01*
X109156759Y-109971192D01*
X109156759Y-109971192D01*
G37*
D15*
X108885000Y-110490000D03*
D17*
X128553000Y-102489000D03*
X135353000Y-102489000D03*
X128553000Y-110490000D03*
X135353000Y-110490000D03*
X128582000Y-118618000D03*
X135382000Y-118618000D03*
X128553000Y-126619000D03*
X135353000Y-126619000D03*
X128455000Y-134620000D03*
X135255000Y-134620000D03*
X128455000Y-142748000D03*
X135255000Y-142748000D03*
D18*
X146540000Y-103505000D03*
X142240000Y-103505000D03*
X146667000Y-111506000D03*
X142367000Y-111506000D03*
X146549000Y-119634000D03*
X142249000Y-119634000D03*
X146540000Y-127635000D03*
X142240000Y-127635000D03*
X146549000Y-135636000D03*
X142249000Y-135636000D03*
X146667000Y-143764000D03*
X142367000Y-143764000D03*
D19*
X96266000Y-124461000D03*
X96266000Y-127761000D03*
D17*
X117954000Y-131318000D03*
X111154000Y-131318000D03*
X107794000Y-131318000D03*
X100994000Y-131318000D03*
X117954000Y-123190000D03*
X111154000Y-123190000D03*
X107794000Y-123190000D03*
X100994000Y-123190000D03*
X117856000Y-114935000D03*
X111056000Y-114935000D03*
X107696000Y-114935000D03*
X100896000Y-114935000D03*
D13*
G36*
X166156759Y-104891192D02*
G01*
X166180785Y-104894756D01*
X166204345Y-104900657D01*
X166227214Y-104908840D01*
X166249171Y-104919224D01*
X166270004Y-104931711D01*
X166289512Y-104946180D01*
X166307509Y-104962491D01*
X166323820Y-104980488D01*
X166338289Y-104999996D01*
X166350776Y-105020829D01*
X166361160Y-105042786D01*
X166369343Y-105065655D01*
X166375244Y-105089215D01*
X166378808Y-105113241D01*
X166380000Y-105137500D01*
X166380000Y-105682500D01*
X166378808Y-105706759D01*
X166375244Y-105730785D01*
X166369343Y-105754345D01*
X166361160Y-105777214D01*
X166350776Y-105799171D01*
X166338289Y-105820004D01*
X166323820Y-105839512D01*
X166307509Y-105857509D01*
X166289512Y-105873820D01*
X166270004Y-105888289D01*
X166249171Y-105900776D01*
X166227214Y-105911160D01*
X166204345Y-105919343D01*
X166180785Y-105925244D01*
X166156759Y-105928808D01*
X166132500Y-105930000D01*
X165637500Y-105930000D01*
X165613241Y-105928808D01*
X165589215Y-105925244D01*
X165565655Y-105919343D01*
X165542786Y-105911160D01*
X165520829Y-105900776D01*
X165499996Y-105888289D01*
X165480488Y-105873820D01*
X165462491Y-105857509D01*
X165446180Y-105839512D01*
X165431711Y-105820004D01*
X165419224Y-105799171D01*
X165408840Y-105777214D01*
X165400657Y-105754345D01*
X165394756Y-105730785D01*
X165391192Y-105706759D01*
X165390000Y-105682500D01*
X165390000Y-105137500D01*
X165391192Y-105113241D01*
X165394756Y-105089215D01*
X165400657Y-105065655D01*
X165408840Y-105042786D01*
X165419224Y-105020829D01*
X165431711Y-104999996D01*
X165446180Y-104980488D01*
X165462491Y-104962491D01*
X165480488Y-104946180D01*
X165499996Y-104931711D01*
X165520829Y-104919224D01*
X165542786Y-104908840D01*
X165565655Y-104900657D01*
X165589215Y-104894756D01*
X165613241Y-104891192D01*
X165637500Y-104890000D01*
X166132500Y-104890000D01*
X166156759Y-104891192D01*
X166156759Y-104891192D01*
G37*
D15*
X165885000Y-105410000D03*
D13*
G36*
X167126759Y-104891192D02*
G01*
X167150785Y-104894756D01*
X167174345Y-104900657D01*
X167197214Y-104908840D01*
X167219171Y-104919224D01*
X167240004Y-104931711D01*
X167259512Y-104946180D01*
X167277509Y-104962491D01*
X167293820Y-104980488D01*
X167308289Y-104999996D01*
X167320776Y-105020829D01*
X167331160Y-105042786D01*
X167339343Y-105065655D01*
X167345244Y-105089215D01*
X167348808Y-105113241D01*
X167350000Y-105137500D01*
X167350000Y-105682500D01*
X167348808Y-105706759D01*
X167345244Y-105730785D01*
X167339343Y-105754345D01*
X167331160Y-105777214D01*
X167320776Y-105799171D01*
X167308289Y-105820004D01*
X167293820Y-105839512D01*
X167277509Y-105857509D01*
X167259512Y-105873820D01*
X167240004Y-105888289D01*
X167219171Y-105900776D01*
X167197214Y-105911160D01*
X167174345Y-105919343D01*
X167150785Y-105925244D01*
X167126759Y-105928808D01*
X167102500Y-105930000D01*
X166607500Y-105930000D01*
X166583241Y-105928808D01*
X166559215Y-105925244D01*
X166535655Y-105919343D01*
X166512786Y-105911160D01*
X166490829Y-105900776D01*
X166469996Y-105888289D01*
X166450488Y-105873820D01*
X166432491Y-105857509D01*
X166416180Y-105839512D01*
X166401711Y-105820004D01*
X166389224Y-105799171D01*
X166378840Y-105777214D01*
X166370657Y-105754345D01*
X166364756Y-105730785D01*
X166361192Y-105706759D01*
X166360000Y-105682500D01*
X166360000Y-105137500D01*
X166361192Y-105113241D01*
X166364756Y-105089215D01*
X166370657Y-105065655D01*
X166378840Y-105042786D01*
X166389224Y-105020829D01*
X166401711Y-104999996D01*
X166416180Y-104980488D01*
X166432491Y-104962491D01*
X166450488Y-104946180D01*
X166469996Y-104931711D01*
X166490829Y-104919224D01*
X166512786Y-104908840D01*
X166535655Y-104900657D01*
X166559215Y-104894756D01*
X166583241Y-104891192D01*
X166607500Y-104890000D01*
X167102500Y-104890000D01*
X167126759Y-104891192D01*
X167126759Y-104891192D01*
G37*
D15*
X166855000Y-105410000D03*
D13*
G36*
X156943759Y-107431192D02*
G01*
X156967785Y-107434756D01*
X156991345Y-107440657D01*
X157014214Y-107448840D01*
X157036171Y-107459224D01*
X157057004Y-107471711D01*
X157076512Y-107486180D01*
X157094509Y-107502491D01*
X157110820Y-107520488D01*
X157125289Y-107539996D01*
X157137776Y-107560829D01*
X157148160Y-107582786D01*
X157156343Y-107605655D01*
X157162244Y-107629215D01*
X157165808Y-107653241D01*
X157167000Y-107677500D01*
X157167000Y-108222500D01*
X157165808Y-108246759D01*
X157162244Y-108270785D01*
X157156343Y-108294345D01*
X157148160Y-108317214D01*
X157137776Y-108339171D01*
X157125289Y-108360004D01*
X157110820Y-108379512D01*
X157094509Y-108397509D01*
X157076512Y-108413820D01*
X157057004Y-108428289D01*
X157036171Y-108440776D01*
X157014214Y-108451160D01*
X156991345Y-108459343D01*
X156967785Y-108465244D01*
X156943759Y-108468808D01*
X156919500Y-108470000D01*
X156424500Y-108470000D01*
X156400241Y-108468808D01*
X156376215Y-108465244D01*
X156352655Y-108459343D01*
X156329786Y-108451160D01*
X156307829Y-108440776D01*
X156286996Y-108428289D01*
X156267488Y-108413820D01*
X156249491Y-108397509D01*
X156233180Y-108379512D01*
X156218711Y-108360004D01*
X156206224Y-108339171D01*
X156195840Y-108317214D01*
X156187657Y-108294345D01*
X156181756Y-108270785D01*
X156178192Y-108246759D01*
X156177000Y-108222500D01*
X156177000Y-107677500D01*
X156178192Y-107653241D01*
X156181756Y-107629215D01*
X156187657Y-107605655D01*
X156195840Y-107582786D01*
X156206224Y-107560829D01*
X156218711Y-107539996D01*
X156233180Y-107520488D01*
X156249491Y-107502491D01*
X156267488Y-107486180D01*
X156286996Y-107471711D01*
X156307829Y-107459224D01*
X156329786Y-107448840D01*
X156352655Y-107440657D01*
X156376215Y-107434756D01*
X156400241Y-107431192D01*
X156424500Y-107430000D01*
X156919500Y-107430000D01*
X156943759Y-107431192D01*
X156943759Y-107431192D01*
G37*
D15*
X156672000Y-107950000D03*
D13*
G36*
X155973759Y-107431192D02*
G01*
X155997785Y-107434756D01*
X156021345Y-107440657D01*
X156044214Y-107448840D01*
X156066171Y-107459224D01*
X156087004Y-107471711D01*
X156106512Y-107486180D01*
X156124509Y-107502491D01*
X156140820Y-107520488D01*
X156155289Y-107539996D01*
X156167776Y-107560829D01*
X156178160Y-107582786D01*
X156186343Y-107605655D01*
X156192244Y-107629215D01*
X156195808Y-107653241D01*
X156197000Y-107677500D01*
X156197000Y-108222500D01*
X156195808Y-108246759D01*
X156192244Y-108270785D01*
X156186343Y-108294345D01*
X156178160Y-108317214D01*
X156167776Y-108339171D01*
X156155289Y-108360004D01*
X156140820Y-108379512D01*
X156124509Y-108397509D01*
X156106512Y-108413820D01*
X156087004Y-108428289D01*
X156066171Y-108440776D01*
X156044214Y-108451160D01*
X156021345Y-108459343D01*
X155997785Y-108465244D01*
X155973759Y-108468808D01*
X155949500Y-108470000D01*
X155454500Y-108470000D01*
X155430241Y-108468808D01*
X155406215Y-108465244D01*
X155382655Y-108459343D01*
X155359786Y-108451160D01*
X155337829Y-108440776D01*
X155316996Y-108428289D01*
X155297488Y-108413820D01*
X155279491Y-108397509D01*
X155263180Y-108379512D01*
X155248711Y-108360004D01*
X155236224Y-108339171D01*
X155225840Y-108317214D01*
X155217657Y-108294345D01*
X155211756Y-108270785D01*
X155208192Y-108246759D01*
X155207000Y-108222500D01*
X155207000Y-107677500D01*
X155208192Y-107653241D01*
X155211756Y-107629215D01*
X155217657Y-107605655D01*
X155225840Y-107582786D01*
X155236224Y-107560829D01*
X155248711Y-107539996D01*
X155263180Y-107520488D01*
X155279491Y-107502491D01*
X155297488Y-107486180D01*
X155316996Y-107471711D01*
X155337829Y-107459224D01*
X155359786Y-107448840D01*
X155382655Y-107440657D01*
X155406215Y-107434756D01*
X155430241Y-107431192D01*
X155454500Y-107430000D01*
X155949500Y-107430000D01*
X155973759Y-107431192D01*
X155973759Y-107431192D01*
G37*
D15*
X155702000Y-107950000D03*
D13*
G36*
X156966759Y-109971192D02*
G01*
X156990785Y-109974756D01*
X157014345Y-109980657D01*
X157037214Y-109988840D01*
X157059171Y-109999224D01*
X157080004Y-110011711D01*
X157099512Y-110026180D01*
X157117509Y-110042491D01*
X157133820Y-110060488D01*
X157148289Y-110079996D01*
X157160776Y-110100829D01*
X157171160Y-110122786D01*
X157179343Y-110145655D01*
X157185244Y-110169215D01*
X157188808Y-110193241D01*
X157190000Y-110217500D01*
X157190000Y-110762500D01*
X157188808Y-110786759D01*
X157185244Y-110810785D01*
X157179343Y-110834345D01*
X157171160Y-110857214D01*
X157160776Y-110879171D01*
X157148289Y-110900004D01*
X157133820Y-110919512D01*
X157117509Y-110937509D01*
X157099512Y-110953820D01*
X157080004Y-110968289D01*
X157059171Y-110980776D01*
X157037214Y-110991160D01*
X157014345Y-110999343D01*
X156990785Y-111005244D01*
X156966759Y-111008808D01*
X156942500Y-111010000D01*
X156447500Y-111010000D01*
X156423241Y-111008808D01*
X156399215Y-111005244D01*
X156375655Y-110999343D01*
X156352786Y-110991160D01*
X156330829Y-110980776D01*
X156309996Y-110968289D01*
X156290488Y-110953820D01*
X156272491Y-110937509D01*
X156256180Y-110919512D01*
X156241711Y-110900004D01*
X156229224Y-110879171D01*
X156218840Y-110857214D01*
X156210657Y-110834345D01*
X156204756Y-110810785D01*
X156201192Y-110786759D01*
X156200000Y-110762500D01*
X156200000Y-110217500D01*
X156201192Y-110193241D01*
X156204756Y-110169215D01*
X156210657Y-110145655D01*
X156218840Y-110122786D01*
X156229224Y-110100829D01*
X156241711Y-110079996D01*
X156256180Y-110060488D01*
X156272491Y-110042491D01*
X156290488Y-110026180D01*
X156309996Y-110011711D01*
X156330829Y-109999224D01*
X156352786Y-109988840D01*
X156375655Y-109980657D01*
X156399215Y-109974756D01*
X156423241Y-109971192D01*
X156447500Y-109970000D01*
X156942500Y-109970000D01*
X156966759Y-109971192D01*
X156966759Y-109971192D01*
G37*
D15*
X156695000Y-110490000D03*
D13*
G36*
X155996759Y-109971192D02*
G01*
X156020785Y-109974756D01*
X156044345Y-109980657D01*
X156067214Y-109988840D01*
X156089171Y-109999224D01*
X156110004Y-110011711D01*
X156129512Y-110026180D01*
X156147509Y-110042491D01*
X156163820Y-110060488D01*
X156178289Y-110079996D01*
X156190776Y-110100829D01*
X156201160Y-110122786D01*
X156209343Y-110145655D01*
X156215244Y-110169215D01*
X156218808Y-110193241D01*
X156220000Y-110217500D01*
X156220000Y-110762500D01*
X156218808Y-110786759D01*
X156215244Y-110810785D01*
X156209343Y-110834345D01*
X156201160Y-110857214D01*
X156190776Y-110879171D01*
X156178289Y-110900004D01*
X156163820Y-110919512D01*
X156147509Y-110937509D01*
X156129512Y-110953820D01*
X156110004Y-110968289D01*
X156089171Y-110980776D01*
X156067214Y-110991160D01*
X156044345Y-110999343D01*
X156020785Y-111005244D01*
X155996759Y-111008808D01*
X155972500Y-111010000D01*
X155477500Y-111010000D01*
X155453241Y-111008808D01*
X155429215Y-111005244D01*
X155405655Y-110999343D01*
X155382786Y-110991160D01*
X155360829Y-110980776D01*
X155339996Y-110968289D01*
X155320488Y-110953820D01*
X155302491Y-110937509D01*
X155286180Y-110919512D01*
X155271711Y-110900004D01*
X155259224Y-110879171D01*
X155248840Y-110857214D01*
X155240657Y-110834345D01*
X155234756Y-110810785D01*
X155231192Y-110786759D01*
X155230000Y-110762500D01*
X155230000Y-110217500D01*
X155231192Y-110193241D01*
X155234756Y-110169215D01*
X155240657Y-110145655D01*
X155248840Y-110122786D01*
X155259224Y-110100829D01*
X155271711Y-110079996D01*
X155286180Y-110060488D01*
X155302491Y-110042491D01*
X155320488Y-110026180D01*
X155339996Y-110011711D01*
X155360829Y-109999224D01*
X155382786Y-109988840D01*
X155405655Y-109980657D01*
X155429215Y-109974756D01*
X155453241Y-109971192D01*
X155477500Y-109970000D01*
X155972500Y-109970000D01*
X155996759Y-109971192D01*
X155996759Y-109971192D01*
G37*
D15*
X155725000Y-110490000D03*
D13*
G36*
X156966759Y-112511192D02*
G01*
X156990785Y-112514756D01*
X157014345Y-112520657D01*
X157037214Y-112528840D01*
X157059171Y-112539224D01*
X157080004Y-112551711D01*
X157099512Y-112566180D01*
X157117509Y-112582491D01*
X157133820Y-112600488D01*
X157148289Y-112619996D01*
X157160776Y-112640829D01*
X157171160Y-112662786D01*
X157179343Y-112685655D01*
X157185244Y-112709215D01*
X157188808Y-112733241D01*
X157190000Y-112757500D01*
X157190000Y-113302500D01*
X157188808Y-113326759D01*
X157185244Y-113350785D01*
X157179343Y-113374345D01*
X157171160Y-113397214D01*
X157160776Y-113419171D01*
X157148289Y-113440004D01*
X157133820Y-113459512D01*
X157117509Y-113477509D01*
X157099512Y-113493820D01*
X157080004Y-113508289D01*
X157059171Y-113520776D01*
X157037214Y-113531160D01*
X157014345Y-113539343D01*
X156990785Y-113545244D01*
X156966759Y-113548808D01*
X156942500Y-113550000D01*
X156447500Y-113550000D01*
X156423241Y-113548808D01*
X156399215Y-113545244D01*
X156375655Y-113539343D01*
X156352786Y-113531160D01*
X156330829Y-113520776D01*
X156309996Y-113508289D01*
X156290488Y-113493820D01*
X156272491Y-113477509D01*
X156256180Y-113459512D01*
X156241711Y-113440004D01*
X156229224Y-113419171D01*
X156218840Y-113397214D01*
X156210657Y-113374345D01*
X156204756Y-113350785D01*
X156201192Y-113326759D01*
X156200000Y-113302500D01*
X156200000Y-112757500D01*
X156201192Y-112733241D01*
X156204756Y-112709215D01*
X156210657Y-112685655D01*
X156218840Y-112662786D01*
X156229224Y-112640829D01*
X156241711Y-112619996D01*
X156256180Y-112600488D01*
X156272491Y-112582491D01*
X156290488Y-112566180D01*
X156309996Y-112551711D01*
X156330829Y-112539224D01*
X156352786Y-112528840D01*
X156375655Y-112520657D01*
X156399215Y-112514756D01*
X156423241Y-112511192D01*
X156447500Y-112510000D01*
X156942500Y-112510000D01*
X156966759Y-112511192D01*
X156966759Y-112511192D01*
G37*
D15*
X156695000Y-113030000D03*
D13*
G36*
X155996759Y-112511192D02*
G01*
X156020785Y-112514756D01*
X156044345Y-112520657D01*
X156067214Y-112528840D01*
X156089171Y-112539224D01*
X156110004Y-112551711D01*
X156129512Y-112566180D01*
X156147509Y-112582491D01*
X156163820Y-112600488D01*
X156178289Y-112619996D01*
X156190776Y-112640829D01*
X156201160Y-112662786D01*
X156209343Y-112685655D01*
X156215244Y-112709215D01*
X156218808Y-112733241D01*
X156220000Y-112757500D01*
X156220000Y-113302500D01*
X156218808Y-113326759D01*
X156215244Y-113350785D01*
X156209343Y-113374345D01*
X156201160Y-113397214D01*
X156190776Y-113419171D01*
X156178289Y-113440004D01*
X156163820Y-113459512D01*
X156147509Y-113477509D01*
X156129512Y-113493820D01*
X156110004Y-113508289D01*
X156089171Y-113520776D01*
X156067214Y-113531160D01*
X156044345Y-113539343D01*
X156020785Y-113545244D01*
X155996759Y-113548808D01*
X155972500Y-113550000D01*
X155477500Y-113550000D01*
X155453241Y-113548808D01*
X155429215Y-113545244D01*
X155405655Y-113539343D01*
X155382786Y-113531160D01*
X155360829Y-113520776D01*
X155339996Y-113508289D01*
X155320488Y-113493820D01*
X155302491Y-113477509D01*
X155286180Y-113459512D01*
X155271711Y-113440004D01*
X155259224Y-113419171D01*
X155248840Y-113397214D01*
X155240657Y-113374345D01*
X155234756Y-113350785D01*
X155231192Y-113326759D01*
X155230000Y-113302500D01*
X155230000Y-112757500D01*
X155231192Y-112733241D01*
X155234756Y-112709215D01*
X155240657Y-112685655D01*
X155248840Y-112662786D01*
X155259224Y-112640829D01*
X155271711Y-112619996D01*
X155286180Y-112600488D01*
X155302491Y-112582491D01*
X155320488Y-112566180D01*
X155339996Y-112551711D01*
X155360829Y-112539224D01*
X155382786Y-112528840D01*
X155405655Y-112520657D01*
X155429215Y-112514756D01*
X155453241Y-112511192D01*
X155477500Y-112510000D01*
X155972500Y-112510000D01*
X155996759Y-112511192D01*
X155996759Y-112511192D01*
G37*
D15*
X155725000Y-113030000D03*
D13*
G36*
X156943759Y-115051192D02*
G01*
X156967785Y-115054756D01*
X156991345Y-115060657D01*
X157014214Y-115068840D01*
X157036171Y-115079224D01*
X157057004Y-115091711D01*
X157076512Y-115106180D01*
X157094509Y-115122491D01*
X157110820Y-115140488D01*
X157125289Y-115159996D01*
X157137776Y-115180829D01*
X157148160Y-115202786D01*
X157156343Y-115225655D01*
X157162244Y-115249215D01*
X157165808Y-115273241D01*
X157167000Y-115297500D01*
X157167000Y-115842500D01*
X157165808Y-115866759D01*
X157162244Y-115890785D01*
X157156343Y-115914345D01*
X157148160Y-115937214D01*
X157137776Y-115959171D01*
X157125289Y-115980004D01*
X157110820Y-115999512D01*
X157094509Y-116017509D01*
X157076512Y-116033820D01*
X157057004Y-116048289D01*
X157036171Y-116060776D01*
X157014214Y-116071160D01*
X156991345Y-116079343D01*
X156967785Y-116085244D01*
X156943759Y-116088808D01*
X156919500Y-116090000D01*
X156424500Y-116090000D01*
X156400241Y-116088808D01*
X156376215Y-116085244D01*
X156352655Y-116079343D01*
X156329786Y-116071160D01*
X156307829Y-116060776D01*
X156286996Y-116048289D01*
X156267488Y-116033820D01*
X156249491Y-116017509D01*
X156233180Y-115999512D01*
X156218711Y-115980004D01*
X156206224Y-115959171D01*
X156195840Y-115937214D01*
X156187657Y-115914345D01*
X156181756Y-115890785D01*
X156178192Y-115866759D01*
X156177000Y-115842500D01*
X156177000Y-115297500D01*
X156178192Y-115273241D01*
X156181756Y-115249215D01*
X156187657Y-115225655D01*
X156195840Y-115202786D01*
X156206224Y-115180829D01*
X156218711Y-115159996D01*
X156233180Y-115140488D01*
X156249491Y-115122491D01*
X156267488Y-115106180D01*
X156286996Y-115091711D01*
X156307829Y-115079224D01*
X156329786Y-115068840D01*
X156352655Y-115060657D01*
X156376215Y-115054756D01*
X156400241Y-115051192D01*
X156424500Y-115050000D01*
X156919500Y-115050000D01*
X156943759Y-115051192D01*
X156943759Y-115051192D01*
G37*
D15*
X156672000Y-115570000D03*
D13*
G36*
X155973759Y-115051192D02*
G01*
X155997785Y-115054756D01*
X156021345Y-115060657D01*
X156044214Y-115068840D01*
X156066171Y-115079224D01*
X156087004Y-115091711D01*
X156106512Y-115106180D01*
X156124509Y-115122491D01*
X156140820Y-115140488D01*
X156155289Y-115159996D01*
X156167776Y-115180829D01*
X156178160Y-115202786D01*
X156186343Y-115225655D01*
X156192244Y-115249215D01*
X156195808Y-115273241D01*
X156197000Y-115297500D01*
X156197000Y-115842500D01*
X156195808Y-115866759D01*
X156192244Y-115890785D01*
X156186343Y-115914345D01*
X156178160Y-115937214D01*
X156167776Y-115959171D01*
X156155289Y-115980004D01*
X156140820Y-115999512D01*
X156124509Y-116017509D01*
X156106512Y-116033820D01*
X156087004Y-116048289D01*
X156066171Y-116060776D01*
X156044214Y-116071160D01*
X156021345Y-116079343D01*
X155997785Y-116085244D01*
X155973759Y-116088808D01*
X155949500Y-116090000D01*
X155454500Y-116090000D01*
X155430241Y-116088808D01*
X155406215Y-116085244D01*
X155382655Y-116079343D01*
X155359786Y-116071160D01*
X155337829Y-116060776D01*
X155316996Y-116048289D01*
X155297488Y-116033820D01*
X155279491Y-116017509D01*
X155263180Y-115999512D01*
X155248711Y-115980004D01*
X155236224Y-115959171D01*
X155225840Y-115937214D01*
X155217657Y-115914345D01*
X155211756Y-115890785D01*
X155208192Y-115866759D01*
X155207000Y-115842500D01*
X155207000Y-115297500D01*
X155208192Y-115273241D01*
X155211756Y-115249215D01*
X155217657Y-115225655D01*
X155225840Y-115202786D01*
X155236224Y-115180829D01*
X155248711Y-115159996D01*
X155263180Y-115140488D01*
X155279491Y-115122491D01*
X155297488Y-115106180D01*
X155316996Y-115091711D01*
X155337829Y-115079224D01*
X155359786Y-115068840D01*
X155382655Y-115060657D01*
X155406215Y-115054756D01*
X155430241Y-115051192D01*
X155454500Y-115050000D01*
X155949500Y-115050000D01*
X155973759Y-115051192D01*
X155973759Y-115051192D01*
G37*
D15*
X155702000Y-115570000D03*
D13*
G36*
X156966759Y-117591192D02*
G01*
X156990785Y-117594756D01*
X157014345Y-117600657D01*
X157037214Y-117608840D01*
X157059171Y-117619224D01*
X157080004Y-117631711D01*
X157099512Y-117646180D01*
X157117509Y-117662491D01*
X157133820Y-117680488D01*
X157148289Y-117699996D01*
X157160776Y-117720829D01*
X157171160Y-117742786D01*
X157179343Y-117765655D01*
X157185244Y-117789215D01*
X157188808Y-117813241D01*
X157190000Y-117837500D01*
X157190000Y-118382500D01*
X157188808Y-118406759D01*
X157185244Y-118430785D01*
X157179343Y-118454345D01*
X157171160Y-118477214D01*
X157160776Y-118499171D01*
X157148289Y-118520004D01*
X157133820Y-118539512D01*
X157117509Y-118557509D01*
X157099512Y-118573820D01*
X157080004Y-118588289D01*
X157059171Y-118600776D01*
X157037214Y-118611160D01*
X157014345Y-118619343D01*
X156990785Y-118625244D01*
X156966759Y-118628808D01*
X156942500Y-118630000D01*
X156447500Y-118630000D01*
X156423241Y-118628808D01*
X156399215Y-118625244D01*
X156375655Y-118619343D01*
X156352786Y-118611160D01*
X156330829Y-118600776D01*
X156309996Y-118588289D01*
X156290488Y-118573820D01*
X156272491Y-118557509D01*
X156256180Y-118539512D01*
X156241711Y-118520004D01*
X156229224Y-118499171D01*
X156218840Y-118477214D01*
X156210657Y-118454345D01*
X156204756Y-118430785D01*
X156201192Y-118406759D01*
X156200000Y-118382500D01*
X156200000Y-117837500D01*
X156201192Y-117813241D01*
X156204756Y-117789215D01*
X156210657Y-117765655D01*
X156218840Y-117742786D01*
X156229224Y-117720829D01*
X156241711Y-117699996D01*
X156256180Y-117680488D01*
X156272491Y-117662491D01*
X156290488Y-117646180D01*
X156309996Y-117631711D01*
X156330829Y-117619224D01*
X156352786Y-117608840D01*
X156375655Y-117600657D01*
X156399215Y-117594756D01*
X156423241Y-117591192D01*
X156447500Y-117590000D01*
X156942500Y-117590000D01*
X156966759Y-117591192D01*
X156966759Y-117591192D01*
G37*
D15*
X156695000Y-118110000D03*
D13*
G36*
X155996759Y-117591192D02*
G01*
X156020785Y-117594756D01*
X156044345Y-117600657D01*
X156067214Y-117608840D01*
X156089171Y-117619224D01*
X156110004Y-117631711D01*
X156129512Y-117646180D01*
X156147509Y-117662491D01*
X156163820Y-117680488D01*
X156178289Y-117699996D01*
X156190776Y-117720829D01*
X156201160Y-117742786D01*
X156209343Y-117765655D01*
X156215244Y-117789215D01*
X156218808Y-117813241D01*
X156220000Y-117837500D01*
X156220000Y-118382500D01*
X156218808Y-118406759D01*
X156215244Y-118430785D01*
X156209343Y-118454345D01*
X156201160Y-118477214D01*
X156190776Y-118499171D01*
X156178289Y-118520004D01*
X156163820Y-118539512D01*
X156147509Y-118557509D01*
X156129512Y-118573820D01*
X156110004Y-118588289D01*
X156089171Y-118600776D01*
X156067214Y-118611160D01*
X156044345Y-118619343D01*
X156020785Y-118625244D01*
X155996759Y-118628808D01*
X155972500Y-118630000D01*
X155477500Y-118630000D01*
X155453241Y-118628808D01*
X155429215Y-118625244D01*
X155405655Y-118619343D01*
X155382786Y-118611160D01*
X155360829Y-118600776D01*
X155339996Y-118588289D01*
X155320488Y-118573820D01*
X155302491Y-118557509D01*
X155286180Y-118539512D01*
X155271711Y-118520004D01*
X155259224Y-118499171D01*
X155248840Y-118477214D01*
X155240657Y-118454345D01*
X155234756Y-118430785D01*
X155231192Y-118406759D01*
X155230000Y-118382500D01*
X155230000Y-117837500D01*
X155231192Y-117813241D01*
X155234756Y-117789215D01*
X155240657Y-117765655D01*
X155248840Y-117742786D01*
X155259224Y-117720829D01*
X155271711Y-117699996D01*
X155286180Y-117680488D01*
X155302491Y-117662491D01*
X155320488Y-117646180D01*
X155339996Y-117631711D01*
X155360829Y-117619224D01*
X155382786Y-117608840D01*
X155405655Y-117600657D01*
X155429215Y-117594756D01*
X155453241Y-117591192D01*
X155477500Y-117590000D01*
X155972500Y-117590000D01*
X155996759Y-117591192D01*
X155996759Y-117591192D01*
G37*
D15*
X155725000Y-118110000D03*
D13*
G36*
X156966759Y-120131192D02*
G01*
X156990785Y-120134756D01*
X157014345Y-120140657D01*
X157037214Y-120148840D01*
X157059171Y-120159224D01*
X157080004Y-120171711D01*
X157099512Y-120186180D01*
X157117509Y-120202491D01*
X157133820Y-120220488D01*
X157148289Y-120239996D01*
X157160776Y-120260829D01*
X157171160Y-120282786D01*
X157179343Y-120305655D01*
X157185244Y-120329215D01*
X157188808Y-120353241D01*
X157190000Y-120377500D01*
X157190000Y-120922500D01*
X157188808Y-120946759D01*
X157185244Y-120970785D01*
X157179343Y-120994345D01*
X157171160Y-121017214D01*
X157160776Y-121039171D01*
X157148289Y-121060004D01*
X157133820Y-121079512D01*
X157117509Y-121097509D01*
X157099512Y-121113820D01*
X157080004Y-121128289D01*
X157059171Y-121140776D01*
X157037214Y-121151160D01*
X157014345Y-121159343D01*
X156990785Y-121165244D01*
X156966759Y-121168808D01*
X156942500Y-121170000D01*
X156447500Y-121170000D01*
X156423241Y-121168808D01*
X156399215Y-121165244D01*
X156375655Y-121159343D01*
X156352786Y-121151160D01*
X156330829Y-121140776D01*
X156309996Y-121128289D01*
X156290488Y-121113820D01*
X156272491Y-121097509D01*
X156256180Y-121079512D01*
X156241711Y-121060004D01*
X156229224Y-121039171D01*
X156218840Y-121017214D01*
X156210657Y-120994345D01*
X156204756Y-120970785D01*
X156201192Y-120946759D01*
X156200000Y-120922500D01*
X156200000Y-120377500D01*
X156201192Y-120353241D01*
X156204756Y-120329215D01*
X156210657Y-120305655D01*
X156218840Y-120282786D01*
X156229224Y-120260829D01*
X156241711Y-120239996D01*
X156256180Y-120220488D01*
X156272491Y-120202491D01*
X156290488Y-120186180D01*
X156309996Y-120171711D01*
X156330829Y-120159224D01*
X156352786Y-120148840D01*
X156375655Y-120140657D01*
X156399215Y-120134756D01*
X156423241Y-120131192D01*
X156447500Y-120130000D01*
X156942500Y-120130000D01*
X156966759Y-120131192D01*
X156966759Y-120131192D01*
G37*
D15*
X156695000Y-120650000D03*
D13*
G36*
X155996759Y-120131192D02*
G01*
X156020785Y-120134756D01*
X156044345Y-120140657D01*
X156067214Y-120148840D01*
X156089171Y-120159224D01*
X156110004Y-120171711D01*
X156129512Y-120186180D01*
X156147509Y-120202491D01*
X156163820Y-120220488D01*
X156178289Y-120239996D01*
X156190776Y-120260829D01*
X156201160Y-120282786D01*
X156209343Y-120305655D01*
X156215244Y-120329215D01*
X156218808Y-120353241D01*
X156220000Y-120377500D01*
X156220000Y-120922500D01*
X156218808Y-120946759D01*
X156215244Y-120970785D01*
X156209343Y-120994345D01*
X156201160Y-121017214D01*
X156190776Y-121039171D01*
X156178289Y-121060004D01*
X156163820Y-121079512D01*
X156147509Y-121097509D01*
X156129512Y-121113820D01*
X156110004Y-121128289D01*
X156089171Y-121140776D01*
X156067214Y-121151160D01*
X156044345Y-121159343D01*
X156020785Y-121165244D01*
X155996759Y-121168808D01*
X155972500Y-121170000D01*
X155477500Y-121170000D01*
X155453241Y-121168808D01*
X155429215Y-121165244D01*
X155405655Y-121159343D01*
X155382786Y-121151160D01*
X155360829Y-121140776D01*
X155339996Y-121128289D01*
X155320488Y-121113820D01*
X155302491Y-121097509D01*
X155286180Y-121079512D01*
X155271711Y-121060004D01*
X155259224Y-121039171D01*
X155248840Y-121017214D01*
X155240657Y-120994345D01*
X155234756Y-120970785D01*
X155231192Y-120946759D01*
X155230000Y-120922500D01*
X155230000Y-120377500D01*
X155231192Y-120353241D01*
X155234756Y-120329215D01*
X155240657Y-120305655D01*
X155248840Y-120282786D01*
X155259224Y-120260829D01*
X155271711Y-120239996D01*
X155286180Y-120220488D01*
X155302491Y-120202491D01*
X155320488Y-120186180D01*
X155339996Y-120171711D01*
X155360829Y-120159224D01*
X155382786Y-120148840D01*
X155405655Y-120140657D01*
X155429215Y-120134756D01*
X155453241Y-120131192D01*
X155477500Y-120130000D01*
X155972500Y-120130000D01*
X155996759Y-120131192D01*
X155996759Y-120131192D01*
G37*
D15*
X155725000Y-120650000D03*
D13*
G36*
X166133759Y-102351192D02*
G01*
X166157785Y-102354756D01*
X166181345Y-102360657D01*
X166204214Y-102368840D01*
X166226171Y-102379224D01*
X166247004Y-102391711D01*
X166266512Y-102406180D01*
X166284509Y-102422491D01*
X166300820Y-102440488D01*
X166315289Y-102459996D01*
X166327776Y-102480829D01*
X166338160Y-102502786D01*
X166346343Y-102525655D01*
X166352244Y-102549215D01*
X166355808Y-102573241D01*
X166357000Y-102597500D01*
X166357000Y-103142500D01*
X166355808Y-103166759D01*
X166352244Y-103190785D01*
X166346343Y-103214345D01*
X166338160Y-103237214D01*
X166327776Y-103259171D01*
X166315289Y-103280004D01*
X166300820Y-103299512D01*
X166284509Y-103317509D01*
X166266512Y-103333820D01*
X166247004Y-103348289D01*
X166226171Y-103360776D01*
X166204214Y-103371160D01*
X166181345Y-103379343D01*
X166157785Y-103385244D01*
X166133759Y-103388808D01*
X166109500Y-103390000D01*
X165614500Y-103390000D01*
X165590241Y-103388808D01*
X165566215Y-103385244D01*
X165542655Y-103379343D01*
X165519786Y-103371160D01*
X165497829Y-103360776D01*
X165476996Y-103348289D01*
X165457488Y-103333820D01*
X165439491Y-103317509D01*
X165423180Y-103299512D01*
X165408711Y-103280004D01*
X165396224Y-103259171D01*
X165385840Y-103237214D01*
X165377657Y-103214345D01*
X165371756Y-103190785D01*
X165368192Y-103166759D01*
X165367000Y-103142500D01*
X165367000Y-102597500D01*
X165368192Y-102573241D01*
X165371756Y-102549215D01*
X165377657Y-102525655D01*
X165385840Y-102502786D01*
X165396224Y-102480829D01*
X165408711Y-102459996D01*
X165423180Y-102440488D01*
X165439491Y-102422491D01*
X165457488Y-102406180D01*
X165476996Y-102391711D01*
X165497829Y-102379224D01*
X165519786Y-102368840D01*
X165542655Y-102360657D01*
X165566215Y-102354756D01*
X165590241Y-102351192D01*
X165614500Y-102350000D01*
X166109500Y-102350000D01*
X166133759Y-102351192D01*
X166133759Y-102351192D01*
G37*
D15*
X165862000Y-102870000D03*
D13*
G36*
X167103759Y-102351192D02*
G01*
X167127785Y-102354756D01*
X167151345Y-102360657D01*
X167174214Y-102368840D01*
X167196171Y-102379224D01*
X167217004Y-102391711D01*
X167236512Y-102406180D01*
X167254509Y-102422491D01*
X167270820Y-102440488D01*
X167285289Y-102459996D01*
X167297776Y-102480829D01*
X167308160Y-102502786D01*
X167316343Y-102525655D01*
X167322244Y-102549215D01*
X167325808Y-102573241D01*
X167327000Y-102597500D01*
X167327000Y-103142500D01*
X167325808Y-103166759D01*
X167322244Y-103190785D01*
X167316343Y-103214345D01*
X167308160Y-103237214D01*
X167297776Y-103259171D01*
X167285289Y-103280004D01*
X167270820Y-103299512D01*
X167254509Y-103317509D01*
X167236512Y-103333820D01*
X167217004Y-103348289D01*
X167196171Y-103360776D01*
X167174214Y-103371160D01*
X167151345Y-103379343D01*
X167127785Y-103385244D01*
X167103759Y-103388808D01*
X167079500Y-103390000D01*
X166584500Y-103390000D01*
X166560241Y-103388808D01*
X166536215Y-103385244D01*
X166512655Y-103379343D01*
X166489786Y-103371160D01*
X166467829Y-103360776D01*
X166446996Y-103348289D01*
X166427488Y-103333820D01*
X166409491Y-103317509D01*
X166393180Y-103299512D01*
X166378711Y-103280004D01*
X166366224Y-103259171D01*
X166355840Y-103237214D01*
X166347657Y-103214345D01*
X166341756Y-103190785D01*
X166338192Y-103166759D01*
X166337000Y-103142500D01*
X166337000Y-102597500D01*
X166338192Y-102573241D01*
X166341756Y-102549215D01*
X166347657Y-102525655D01*
X166355840Y-102502786D01*
X166366224Y-102480829D01*
X166378711Y-102459996D01*
X166393180Y-102440488D01*
X166409491Y-102422491D01*
X166427488Y-102406180D01*
X166446996Y-102391711D01*
X166467829Y-102379224D01*
X166489786Y-102368840D01*
X166512655Y-102360657D01*
X166536215Y-102354756D01*
X166560241Y-102351192D01*
X166584500Y-102350000D01*
X167079500Y-102350000D01*
X167103759Y-102351192D01*
X167103759Y-102351192D01*
G37*
D15*
X166832000Y-102870000D03*
D13*
G36*
X166156759Y-109971192D02*
G01*
X166180785Y-109974756D01*
X166204345Y-109980657D01*
X166227214Y-109988840D01*
X166249171Y-109999224D01*
X166270004Y-110011711D01*
X166289512Y-110026180D01*
X166307509Y-110042491D01*
X166323820Y-110060488D01*
X166338289Y-110079996D01*
X166350776Y-110100829D01*
X166361160Y-110122786D01*
X166369343Y-110145655D01*
X166375244Y-110169215D01*
X166378808Y-110193241D01*
X166380000Y-110217500D01*
X166380000Y-110762500D01*
X166378808Y-110786759D01*
X166375244Y-110810785D01*
X166369343Y-110834345D01*
X166361160Y-110857214D01*
X166350776Y-110879171D01*
X166338289Y-110900004D01*
X166323820Y-110919512D01*
X166307509Y-110937509D01*
X166289512Y-110953820D01*
X166270004Y-110968289D01*
X166249171Y-110980776D01*
X166227214Y-110991160D01*
X166204345Y-110999343D01*
X166180785Y-111005244D01*
X166156759Y-111008808D01*
X166132500Y-111010000D01*
X165637500Y-111010000D01*
X165613241Y-111008808D01*
X165589215Y-111005244D01*
X165565655Y-110999343D01*
X165542786Y-110991160D01*
X165520829Y-110980776D01*
X165499996Y-110968289D01*
X165480488Y-110953820D01*
X165462491Y-110937509D01*
X165446180Y-110919512D01*
X165431711Y-110900004D01*
X165419224Y-110879171D01*
X165408840Y-110857214D01*
X165400657Y-110834345D01*
X165394756Y-110810785D01*
X165391192Y-110786759D01*
X165390000Y-110762500D01*
X165390000Y-110217500D01*
X165391192Y-110193241D01*
X165394756Y-110169215D01*
X165400657Y-110145655D01*
X165408840Y-110122786D01*
X165419224Y-110100829D01*
X165431711Y-110079996D01*
X165446180Y-110060488D01*
X165462491Y-110042491D01*
X165480488Y-110026180D01*
X165499996Y-110011711D01*
X165520829Y-109999224D01*
X165542786Y-109988840D01*
X165565655Y-109980657D01*
X165589215Y-109974756D01*
X165613241Y-109971192D01*
X165637500Y-109970000D01*
X166132500Y-109970000D01*
X166156759Y-109971192D01*
X166156759Y-109971192D01*
G37*
D15*
X165885000Y-110490000D03*
D13*
G36*
X167126759Y-109971192D02*
G01*
X167150785Y-109974756D01*
X167174345Y-109980657D01*
X167197214Y-109988840D01*
X167219171Y-109999224D01*
X167240004Y-110011711D01*
X167259512Y-110026180D01*
X167277509Y-110042491D01*
X167293820Y-110060488D01*
X167308289Y-110079996D01*
X167320776Y-110100829D01*
X167331160Y-110122786D01*
X167339343Y-110145655D01*
X167345244Y-110169215D01*
X167348808Y-110193241D01*
X167350000Y-110217500D01*
X167350000Y-110762500D01*
X167348808Y-110786759D01*
X167345244Y-110810785D01*
X167339343Y-110834345D01*
X167331160Y-110857214D01*
X167320776Y-110879171D01*
X167308289Y-110900004D01*
X167293820Y-110919512D01*
X167277509Y-110937509D01*
X167259512Y-110953820D01*
X167240004Y-110968289D01*
X167219171Y-110980776D01*
X167197214Y-110991160D01*
X167174345Y-110999343D01*
X167150785Y-111005244D01*
X167126759Y-111008808D01*
X167102500Y-111010000D01*
X166607500Y-111010000D01*
X166583241Y-111008808D01*
X166559215Y-111005244D01*
X166535655Y-110999343D01*
X166512786Y-110991160D01*
X166490829Y-110980776D01*
X166469996Y-110968289D01*
X166450488Y-110953820D01*
X166432491Y-110937509D01*
X166416180Y-110919512D01*
X166401711Y-110900004D01*
X166389224Y-110879171D01*
X166378840Y-110857214D01*
X166370657Y-110834345D01*
X166364756Y-110810785D01*
X166361192Y-110786759D01*
X166360000Y-110762500D01*
X166360000Y-110217500D01*
X166361192Y-110193241D01*
X166364756Y-110169215D01*
X166370657Y-110145655D01*
X166378840Y-110122786D01*
X166389224Y-110100829D01*
X166401711Y-110079996D01*
X166416180Y-110060488D01*
X166432491Y-110042491D01*
X166450488Y-110026180D01*
X166469996Y-110011711D01*
X166490829Y-109999224D01*
X166512786Y-109988840D01*
X166535655Y-109980657D01*
X166559215Y-109974756D01*
X166583241Y-109971192D01*
X166607500Y-109970000D01*
X167102500Y-109970000D01*
X167126759Y-109971192D01*
X167126759Y-109971192D01*
G37*
D15*
X166855000Y-110490000D03*
D13*
G36*
X166156759Y-107431192D02*
G01*
X166180785Y-107434756D01*
X166204345Y-107440657D01*
X166227214Y-107448840D01*
X166249171Y-107459224D01*
X166270004Y-107471711D01*
X166289512Y-107486180D01*
X166307509Y-107502491D01*
X166323820Y-107520488D01*
X166338289Y-107539996D01*
X166350776Y-107560829D01*
X166361160Y-107582786D01*
X166369343Y-107605655D01*
X166375244Y-107629215D01*
X166378808Y-107653241D01*
X166380000Y-107677500D01*
X166380000Y-108222500D01*
X166378808Y-108246759D01*
X166375244Y-108270785D01*
X166369343Y-108294345D01*
X166361160Y-108317214D01*
X166350776Y-108339171D01*
X166338289Y-108360004D01*
X166323820Y-108379512D01*
X166307509Y-108397509D01*
X166289512Y-108413820D01*
X166270004Y-108428289D01*
X166249171Y-108440776D01*
X166227214Y-108451160D01*
X166204345Y-108459343D01*
X166180785Y-108465244D01*
X166156759Y-108468808D01*
X166132500Y-108470000D01*
X165637500Y-108470000D01*
X165613241Y-108468808D01*
X165589215Y-108465244D01*
X165565655Y-108459343D01*
X165542786Y-108451160D01*
X165520829Y-108440776D01*
X165499996Y-108428289D01*
X165480488Y-108413820D01*
X165462491Y-108397509D01*
X165446180Y-108379512D01*
X165431711Y-108360004D01*
X165419224Y-108339171D01*
X165408840Y-108317214D01*
X165400657Y-108294345D01*
X165394756Y-108270785D01*
X165391192Y-108246759D01*
X165390000Y-108222500D01*
X165390000Y-107677500D01*
X165391192Y-107653241D01*
X165394756Y-107629215D01*
X165400657Y-107605655D01*
X165408840Y-107582786D01*
X165419224Y-107560829D01*
X165431711Y-107539996D01*
X165446180Y-107520488D01*
X165462491Y-107502491D01*
X165480488Y-107486180D01*
X165499996Y-107471711D01*
X165520829Y-107459224D01*
X165542786Y-107448840D01*
X165565655Y-107440657D01*
X165589215Y-107434756D01*
X165613241Y-107431192D01*
X165637500Y-107430000D01*
X166132500Y-107430000D01*
X166156759Y-107431192D01*
X166156759Y-107431192D01*
G37*
D15*
X165885000Y-107950000D03*
D13*
G36*
X167126759Y-107431192D02*
G01*
X167150785Y-107434756D01*
X167174345Y-107440657D01*
X167197214Y-107448840D01*
X167219171Y-107459224D01*
X167240004Y-107471711D01*
X167259512Y-107486180D01*
X167277509Y-107502491D01*
X167293820Y-107520488D01*
X167308289Y-107539996D01*
X167320776Y-107560829D01*
X167331160Y-107582786D01*
X167339343Y-107605655D01*
X167345244Y-107629215D01*
X167348808Y-107653241D01*
X167350000Y-107677500D01*
X167350000Y-108222500D01*
X167348808Y-108246759D01*
X167345244Y-108270785D01*
X167339343Y-108294345D01*
X167331160Y-108317214D01*
X167320776Y-108339171D01*
X167308289Y-108360004D01*
X167293820Y-108379512D01*
X167277509Y-108397509D01*
X167259512Y-108413820D01*
X167240004Y-108428289D01*
X167219171Y-108440776D01*
X167197214Y-108451160D01*
X167174345Y-108459343D01*
X167150785Y-108465244D01*
X167126759Y-108468808D01*
X167102500Y-108470000D01*
X166607500Y-108470000D01*
X166583241Y-108468808D01*
X166559215Y-108465244D01*
X166535655Y-108459343D01*
X166512786Y-108451160D01*
X166490829Y-108440776D01*
X166469996Y-108428289D01*
X166450488Y-108413820D01*
X166432491Y-108397509D01*
X166416180Y-108379512D01*
X166401711Y-108360004D01*
X166389224Y-108339171D01*
X166378840Y-108317214D01*
X166370657Y-108294345D01*
X166364756Y-108270785D01*
X166361192Y-108246759D01*
X166360000Y-108222500D01*
X166360000Y-107677500D01*
X166361192Y-107653241D01*
X166364756Y-107629215D01*
X166370657Y-107605655D01*
X166378840Y-107582786D01*
X166389224Y-107560829D01*
X166401711Y-107539996D01*
X166416180Y-107520488D01*
X166432491Y-107502491D01*
X166450488Y-107486180D01*
X166469996Y-107471711D01*
X166490829Y-107459224D01*
X166512786Y-107448840D01*
X166535655Y-107440657D01*
X166559215Y-107434756D01*
X166583241Y-107431192D01*
X166607500Y-107430000D01*
X167102500Y-107430000D01*
X167126759Y-107431192D01*
X167126759Y-107431192D01*
G37*
D15*
X166855000Y-107950000D03*
D20*
X90551000Y-143129000D03*
D21*
X90551000Y-140589000D03*
X90551000Y-138049000D03*
X90551000Y-135509000D03*
X90551000Y-132969000D03*
X90551000Y-130429000D03*
X90551000Y-127889000D03*
X90551000Y-125349000D03*
X90551000Y-122809000D03*
X90551000Y-120269000D03*
D22*
X153670000Y-102870000D03*
X153670000Y-105410000D03*
X153670000Y-107950000D03*
X153670000Y-110490000D03*
X153670000Y-113030000D03*
X153670000Y-115570000D03*
X153670000Y-118110000D03*
X153670000Y-120650000D03*
X153670000Y-123190000D03*
X153670000Y-125730000D03*
X153670000Y-128270000D03*
X153670000Y-130810000D03*
X153670000Y-133350000D03*
X153670000Y-135890000D03*
X168910000Y-135890000D03*
X168910000Y-133350000D03*
X168910000Y-130810000D03*
X168910000Y-128270000D03*
X168910000Y-125730000D03*
X168910000Y-123190000D03*
X168910000Y-120650000D03*
X168910000Y-118110000D03*
X168910000Y-115570000D03*
X168910000Y-113030000D03*
X168910000Y-110490000D03*
X168910000Y-107950000D03*
X168910000Y-105410000D03*
X168910000Y-102870000D03*
M02*
