M48
; DRILL file {KiCad 5.1.5+dfsg1-2build2} date Wed 26 May 2021 07:01:57 PM EDT
; FORMAT={-:-/ absolute / inch / decimal}
; #@! TF.CreationDate,2021-05-26T19:01:57-04:00
; #@! TF.GenerationSoftware,Kicad,Pcbnew,5.1.5+dfsg1-2build2
FMAT,2
INCH
T1C0.0080
T2C0.0157
T3C0.0315
T4C0.0331
T5C0.0394
T6C0.0400
T7C0.1063
%
G90
G05
T1
X4.185Y-3.565
X4.185Y-3.6161
X4.2362Y-3.565
X4.2362Y-3.6161
X4.2874Y-3.565
X4.2874Y-3.6161
T2
X3.811Y-4.8331
X4.126Y-3.9213
X4.2392Y-5.1416
X4.2569Y-4.8518
X4.2756Y-3.2992
X4.2992Y-4.5354
X4.5276Y-4.8976
X4.6299Y-4.2362
X4.7717Y-5.252
X4.8317Y-5.2047
X4.8425Y-4.8425
X4.8583Y-4.8031
X4.8829Y-4.7402
X4.9075Y-4.685
X4.937Y-5.1102
X4.9449Y-4.3307
X4.9646Y-4.8591
X4.9646Y-4.8091
X5.063Y-5.0866
X5.1417Y-3.7559
X5.1417Y-4.189
X5.1732Y-4.9921
X5.1811Y-3.9449
X5.1811Y-4.189
X5.2047Y-4.7008
X5.2126Y-5.1732
X5.2205Y-3.9291
X5.2362Y-4.2047
X5.2441Y-5.1575
X5.252Y-3.9055
X5.344Y-3.6346
X5.4646Y-3.6378
X5.5669Y-4.2451
X5.5669Y-4.4724
X5.5669Y-4.6929
X5.5669Y-4.9449
X5.5748Y-5.1575
X5.5827Y-5.4183
X5.8189Y-3.6063
X5.8268Y-3.6535
X5.8815Y-3.427
X6.1181Y-3.9055
X6.1969Y-4.378
X6.2047Y-4.2205
X6.2126Y-3.9606
X6.2147Y-3.9213
X6.2283Y-3.8303
X6.2283Y-3.8819
X6.2598Y-3.0315
X6.2756Y-4.9843
X6.2835Y-3.1575
X6.2835Y-3.2126
X6.2913Y-3.9869
X6.3218Y-4.8504
X6.3543Y-3.4252
X6.378Y-2.9764
X6.3937Y-4.6535
X6.4094Y-4.3228
X6.4409Y-4.2598
X6.4419Y-4.8583
X6.4488Y-4.5748
X6.4646Y-5.2205
X6.4882Y-4.3622
X6.5276Y-3.8425
X6.5276Y-4.5748
X6.5433Y-3.9606
X6.5545Y-3.3543
X6.5579Y-3.2441
X6.5591Y-3.1339
X6.5591Y-3.189
X6.5591Y-3.2992
X6.5771Y-3.7424
X6.6063Y-3.5039
X6.6457Y-3.3307
X6.6457Y-3.2756
X6.6469Y-3.2126
X6.685Y-3.2126
X6.7008Y-3.6142
X6.7244Y-3.7165
X6.7293Y-3.6371
X6.748Y-4.4646
X6.7785Y-3.6299
X6.7874Y-3.1417
X6.8661Y-3.2756
T3
X3.5866Y-3.7795
X3.7244Y-3.7795
T4
X4.3316Y-2.4779
X4.3316Y-2.7779
X4.4316Y-2.4779
X4.4316Y-2.7779
X4.5316Y-2.4779
X4.5316Y-2.7779
X5.9284Y-2.4779
X5.9284Y-2.7779
X6.0284Y-2.4779
X6.0284Y-2.7779
X6.1284Y-2.4779
X6.1284Y-2.7779
X5.5253Y-2.4779
X5.5253Y-2.7779
X5.6253Y-2.4779
X5.6253Y-2.7779
X5.7253Y-2.4779
X5.7253Y-2.7779
X4.7269Y-2.4779
X4.7269Y-2.7779
X4.8269Y-2.4779
X4.8269Y-2.7779
X4.9269Y-2.4779
X4.9269Y-2.7779
X3.9442Y-2.4779
X3.9442Y-2.7779
X4.0442Y-2.4779
X4.0442Y-2.7779
X4.1442Y-2.4779
X4.1442Y-2.7779
X5.1221Y-2.4779
X5.1221Y-2.7779
X5.2221Y-2.4779
X5.2221Y-2.7779
X5.3221Y-2.4779
X5.3221Y-2.7779
X6.3237Y-2.4779
X6.3237Y-2.7779
X6.4237Y-2.4779
X6.4237Y-2.7779
X6.5237Y-2.4779
X6.5237Y-2.7779
X6.7269Y-2.4779
X6.7269Y-2.7779
X6.8269Y-2.4779
X6.8269Y-2.7779
X6.9269Y-2.4779
X6.9269Y-2.7779
X3.5646Y-2.4779
X3.5646Y-2.7779
X3.6646Y-2.4779
X3.6646Y-2.7779
X3.7646Y-2.4779
X3.7646Y-2.7779
T5
X4.9134Y-3.9449
X5.0118Y-3.9449
X4.4316Y-2.0679
X4.53Y-2.0679
X6.4237Y-2.0679
X6.5221Y-2.0679
X4.8269Y-2.0679
X4.9253Y-2.0679
X6.06Y-3.85
X6.06Y-3.95
X6.06Y-4.05
X6.06Y-4.15
X6.06Y-4.25
X6.06Y-4.35
X6.06Y-4.45
X6.06Y-4.55
X6.06Y-4.65
X6.06Y-4.75
X6.06Y-4.85
X6.06Y-4.95
X6.06Y-5.05
X6.06Y-5.15
X6.06Y-5.25
X6.66Y-3.85
X6.66Y-3.95
X6.66Y-4.05
X6.66Y-4.15
X6.66Y-4.25
X6.66Y-4.35
X6.66Y-4.45
X6.66Y-4.55
X6.66Y-4.65
X6.66Y-4.75
X6.66Y-4.85
X6.66Y-4.95
X6.66Y-5.05
X6.66Y-5.15
X6.66Y-5.25
X4.9134Y-3.7559
X5.0118Y-3.7559
X6.0284Y-2.0679
X6.1269Y-2.0679
X5.2237Y-2.0679
X5.3221Y-2.0679
X4.8157Y-3.4197
X4.8157Y-3.5197
X4.9157Y-3.4197
X4.9157Y-3.5197
X5.0157Y-3.4197
X5.0157Y-3.5197
X5.1157Y-3.4197
X5.1157Y-3.5197
X5.2157Y-3.4197
X5.2157Y-3.5197
X5.3157Y-3.4197
X5.3157Y-3.5197
X5.4157Y-3.4197
X5.4157Y-3.5197
X5.5157Y-3.4197
X5.5157Y-3.5197
X3.6646Y-2.0679
X3.7631Y-2.0679
X5.6253Y-2.0651
X5.7237Y-2.0651
X4.5157Y-5.3465
X4.6157Y-5.3465
X4.7157Y-5.3465
X4.8157Y-5.3465
X4.9157Y-5.3465
X5.0157Y-5.3465
X3.6339Y-4.1732
X3.7323Y-4.1732
X6.8269Y-2.0679
X6.9253Y-2.0679
X4.0457Y-2.0679
X4.1442Y-2.0679
X3.622Y-3.2992
X3.7205Y-3.2992
T6
X3.57Y-4.54
X3.57Y-4.64
X3.57Y-4.74
X3.57Y-4.84
X3.57Y-4.94
X3.57Y-5.04
X3.57Y-5.14
X3.57Y-5.24
X3.57Y-5.34
X3.57Y-5.44
T7
X6.9685Y-2.9291
X3.9764Y-2.9291
X6.9685Y-3.5591
X3.9764Y-3.5591
T0
M30
