G04 #@! TF.GenerationSoftware,KiCad,Pcbnew,5.1.4+dfsg1-1~bpo10+1*
G04 #@! TF.CreationDate,2020-09-08T10:33:03-04:00*
G04 #@! TF.ProjectId,front_controls,66726f6e-745f-4636-9f6e-74726f6c732e,1*
G04 #@! TF.SameCoordinates,Original*
G04 #@! TF.FileFunction,Legend,Top*
G04 #@! TF.FilePolarity,Positive*
%FSLAX46Y46*%
G04 Gerber Fmt 4.6, Leading zero omitted, Abs format (unit mm)*
G04 Created by KiCad (PCBNEW 5.1.4+dfsg1-1~bpo10+1) date 2020-09-08 10:33:03*
%MOMM*%
%LPD*%
G04 APERTURE LIST*
%ADD10C,0.150000*%
%ADD11C,0.300000*%
%ADD12C,0.127000*%
%ADD13C,0.120000*%
%ADD14C,0.015000*%
G04 APERTURE END LIST*
D10*
X97663047Y-49093428D02*
X98424952Y-49093428D01*
X98044000Y-49474380D02*
X98044000Y-48712476D01*
X107823047Y-49093428D02*
X108584952Y-49093428D01*
X108204000Y-49474380D02*
X108204000Y-48712476D01*
X117983047Y-49093428D02*
X118744952Y-49093428D01*
X118364000Y-49474380D02*
X118364000Y-48712476D01*
X128143047Y-49093428D02*
X128904952Y-49093428D01*
X128524000Y-49474380D02*
X128524000Y-48712476D01*
X138303047Y-49093428D02*
X139064952Y-49093428D01*
X138684000Y-49474380D02*
X138684000Y-48712476D01*
X148463047Y-49093428D02*
X149224952Y-49093428D01*
X148844000Y-49474380D02*
X148844000Y-48712476D01*
X158623047Y-49093428D02*
X159384952Y-49093428D01*
X159004000Y-49474380D02*
X159004000Y-48712476D01*
X169037047Y-49093428D02*
X169798952Y-49093428D01*
X169418000Y-49474380D02*
X169418000Y-48712476D01*
X178943047Y-49093428D02*
X179704952Y-49093428D01*
X179324000Y-49474380D02*
X179324000Y-48712476D01*
D11*
X174030000Y-71440000D02*
G75*
G03X174030000Y-71440000I-100000J0D01*
G01*
D12*
X172840000Y-69370000D02*
X173140000Y-69370000D01*
X180220000Y-69370000D02*
X179920000Y-69370000D01*
X180220000Y-62710000D02*
X179920000Y-62710000D01*
X172840000Y-62710000D02*
X173140000Y-62710000D01*
X180220000Y-62710000D02*
X180220000Y-69370000D01*
X172840000Y-69370000D02*
X172840000Y-62710000D01*
D11*
X163870000Y-71440000D02*
G75*
G03X163870000Y-71440000I-100000J0D01*
G01*
D12*
X162680000Y-69370000D02*
X162980000Y-69370000D01*
X170060000Y-69370000D02*
X169760000Y-69370000D01*
X170060000Y-62710000D02*
X169760000Y-62710000D01*
X162680000Y-62710000D02*
X162980000Y-62710000D01*
X170060000Y-62710000D02*
X170060000Y-69370000D01*
X162680000Y-69370000D02*
X162680000Y-62710000D01*
D11*
X153710000Y-71440000D02*
G75*
G03X153710000Y-71440000I-100000J0D01*
G01*
D12*
X152520000Y-69370000D02*
X152820000Y-69370000D01*
X159900000Y-69370000D02*
X159600000Y-69370000D01*
X159900000Y-62710000D02*
X159600000Y-62710000D01*
X152520000Y-62710000D02*
X152820000Y-62710000D01*
X159900000Y-62710000D02*
X159900000Y-69370000D01*
X152520000Y-69370000D02*
X152520000Y-62710000D01*
D11*
X143550000Y-71440000D02*
G75*
G03X143550000Y-71440000I-100000J0D01*
G01*
D12*
X142360000Y-69370000D02*
X142660000Y-69370000D01*
X149740000Y-69370000D02*
X149440000Y-69370000D01*
X149740000Y-62710000D02*
X149440000Y-62710000D01*
X142360000Y-62710000D02*
X142660000Y-62710000D01*
X149740000Y-62710000D02*
X149740000Y-69370000D01*
X142360000Y-69370000D02*
X142360000Y-62710000D01*
D11*
X133390000Y-71440000D02*
G75*
G03X133390000Y-71440000I-100000J0D01*
G01*
D12*
X132200000Y-69370000D02*
X132500000Y-69370000D01*
X139580000Y-69370000D02*
X139280000Y-69370000D01*
X139580000Y-62710000D02*
X139280000Y-62710000D01*
X132200000Y-62710000D02*
X132500000Y-62710000D01*
X139580000Y-62710000D02*
X139580000Y-69370000D01*
X132200000Y-69370000D02*
X132200000Y-62710000D01*
D11*
X123230000Y-71440000D02*
G75*
G03X123230000Y-71440000I-100000J0D01*
G01*
D12*
X122040000Y-69370000D02*
X122340000Y-69370000D01*
X129420000Y-69370000D02*
X129120000Y-69370000D01*
X129420000Y-62710000D02*
X129120000Y-62710000D01*
X122040000Y-62710000D02*
X122340000Y-62710000D01*
X129420000Y-62710000D02*
X129420000Y-69370000D01*
X122040000Y-69370000D02*
X122040000Y-62710000D01*
D11*
X113070000Y-71440000D02*
G75*
G03X113070000Y-71440000I-100000J0D01*
G01*
D12*
X111880000Y-69370000D02*
X112180000Y-69370000D01*
X119260000Y-69370000D02*
X118960000Y-69370000D01*
X119260000Y-62710000D02*
X118960000Y-62710000D01*
X111880000Y-62710000D02*
X112180000Y-62710000D01*
X119260000Y-62710000D02*
X119260000Y-69370000D01*
X111880000Y-69370000D02*
X111880000Y-62710000D01*
D11*
X102910000Y-71440000D02*
G75*
G03X102910000Y-71440000I-100000J0D01*
G01*
D12*
X101720000Y-69370000D02*
X102020000Y-69370000D01*
X109100000Y-69370000D02*
X108800000Y-69370000D01*
X109100000Y-62710000D02*
X108800000Y-62710000D01*
X101720000Y-62710000D02*
X102020000Y-62710000D01*
X109100000Y-62710000D02*
X109100000Y-69370000D01*
X101720000Y-69370000D02*
X101720000Y-62710000D01*
D11*
X92750000Y-71440000D02*
G75*
G03X92750000Y-71440000I-100000J0D01*
G01*
D12*
X91560000Y-69370000D02*
X91860000Y-69370000D01*
X98940000Y-69370000D02*
X98640000Y-69370000D01*
X98940000Y-62710000D02*
X98640000Y-62710000D01*
X91560000Y-62710000D02*
X91860000Y-62710000D01*
X98940000Y-62710000D02*
X98940000Y-69370000D01*
X91560000Y-69370000D02*
X91560000Y-62710000D01*
D13*
X173620000Y-54426000D02*
X176120000Y-54426000D01*
X173620000Y-51926000D02*
X173620000Y-54426000D01*
X180640000Y-52626000D02*
X180640000Y-54126000D01*
X181640000Y-52626000D02*
X180640000Y-52626000D01*
X174920000Y-52626000D02*
X174920000Y-54126000D01*
X173920000Y-52626000D02*
X174920000Y-52626000D01*
X181140000Y-51816000D02*
X181640000Y-51816000D01*
X181140000Y-50606000D02*
X181140000Y-51816000D01*
X174420000Y-50606000D02*
X181140000Y-50606000D01*
X174420000Y-51816000D02*
X174420000Y-50606000D01*
X173920000Y-51816000D02*
X174420000Y-51816000D01*
X181640000Y-50106000D02*
X173920000Y-50106000D01*
X181640000Y-54126000D02*
X181640000Y-50106000D01*
X173920000Y-54126000D02*
X181640000Y-54126000D01*
X173920000Y-50106000D02*
X173920000Y-54126000D01*
X163500000Y-54426000D02*
X166000000Y-54426000D01*
X163500000Y-51926000D02*
X163500000Y-54426000D01*
X170520000Y-52626000D02*
X170520000Y-54126000D01*
X171520000Y-52626000D02*
X170520000Y-52626000D01*
X164800000Y-52626000D02*
X164800000Y-54126000D01*
X163800000Y-52626000D02*
X164800000Y-52626000D01*
X171020000Y-51816000D02*
X171520000Y-51816000D01*
X171020000Y-50606000D02*
X171020000Y-51816000D01*
X164300000Y-50606000D02*
X171020000Y-50606000D01*
X164300000Y-51816000D02*
X164300000Y-50606000D01*
X163800000Y-51816000D02*
X164300000Y-51816000D01*
X171520000Y-50106000D02*
X163800000Y-50106000D01*
X171520000Y-54126000D02*
X171520000Y-50106000D01*
X163800000Y-54126000D02*
X171520000Y-54126000D01*
X163800000Y-50106000D02*
X163800000Y-54126000D01*
X153300000Y-54426000D02*
X155800000Y-54426000D01*
X153300000Y-51926000D02*
X153300000Y-54426000D01*
X160320000Y-52626000D02*
X160320000Y-54126000D01*
X161320000Y-52626000D02*
X160320000Y-52626000D01*
X154600000Y-52626000D02*
X154600000Y-54126000D01*
X153600000Y-52626000D02*
X154600000Y-52626000D01*
X160820000Y-51816000D02*
X161320000Y-51816000D01*
X160820000Y-50606000D02*
X160820000Y-51816000D01*
X154100000Y-50606000D02*
X160820000Y-50606000D01*
X154100000Y-51816000D02*
X154100000Y-50606000D01*
X153600000Y-51816000D02*
X154100000Y-51816000D01*
X161320000Y-50106000D02*
X153600000Y-50106000D01*
X161320000Y-54126000D02*
X161320000Y-50106000D01*
X153600000Y-54126000D02*
X161320000Y-54126000D01*
X153600000Y-50106000D02*
X153600000Y-54126000D01*
X143140000Y-54426000D02*
X145640000Y-54426000D01*
X143140000Y-51926000D02*
X143140000Y-54426000D01*
X150160000Y-52626000D02*
X150160000Y-54126000D01*
X151160000Y-52626000D02*
X150160000Y-52626000D01*
X144440000Y-52626000D02*
X144440000Y-54126000D01*
X143440000Y-52626000D02*
X144440000Y-52626000D01*
X150660000Y-51816000D02*
X151160000Y-51816000D01*
X150660000Y-50606000D02*
X150660000Y-51816000D01*
X143940000Y-50606000D02*
X150660000Y-50606000D01*
X143940000Y-51816000D02*
X143940000Y-50606000D01*
X143440000Y-51816000D02*
X143940000Y-51816000D01*
X151160000Y-50106000D02*
X143440000Y-50106000D01*
X151160000Y-54126000D02*
X151160000Y-50106000D01*
X143440000Y-54126000D02*
X151160000Y-54126000D01*
X143440000Y-50106000D02*
X143440000Y-54126000D01*
X133020000Y-54426000D02*
X135520000Y-54426000D01*
X133020000Y-51926000D02*
X133020000Y-54426000D01*
X140040000Y-52626000D02*
X140040000Y-54126000D01*
X141040000Y-52626000D02*
X140040000Y-52626000D01*
X134320000Y-52626000D02*
X134320000Y-54126000D01*
X133320000Y-52626000D02*
X134320000Y-52626000D01*
X140540000Y-51816000D02*
X141040000Y-51816000D01*
X140540000Y-50606000D02*
X140540000Y-51816000D01*
X133820000Y-50606000D02*
X140540000Y-50606000D01*
X133820000Y-51816000D02*
X133820000Y-50606000D01*
X133320000Y-51816000D02*
X133820000Y-51816000D01*
X141040000Y-50106000D02*
X133320000Y-50106000D01*
X141040000Y-54126000D02*
X141040000Y-50106000D01*
X133320000Y-54126000D02*
X141040000Y-54126000D01*
X133320000Y-50106000D02*
X133320000Y-54126000D01*
X122820000Y-54356000D02*
X125320000Y-54356000D01*
X122820000Y-51856000D02*
X122820000Y-54356000D01*
X129840000Y-52556000D02*
X129840000Y-54056000D01*
X130840000Y-52556000D02*
X129840000Y-52556000D01*
X124120000Y-52556000D02*
X124120000Y-54056000D01*
X123120000Y-52556000D02*
X124120000Y-52556000D01*
X130340000Y-51746000D02*
X130840000Y-51746000D01*
X130340000Y-50536000D02*
X130340000Y-51746000D01*
X123620000Y-50536000D02*
X130340000Y-50536000D01*
X123620000Y-51746000D02*
X123620000Y-50536000D01*
X123120000Y-51746000D02*
X123620000Y-51746000D01*
X130840000Y-50036000D02*
X123120000Y-50036000D01*
X130840000Y-54056000D02*
X130840000Y-50036000D01*
X123120000Y-54056000D02*
X130840000Y-54056000D01*
X123120000Y-50036000D02*
X123120000Y-54056000D01*
X112660000Y-54426000D02*
X115160000Y-54426000D01*
X112660000Y-51926000D02*
X112660000Y-54426000D01*
X119680000Y-52626000D02*
X119680000Y-54126000D01*
X120680000Y-52626000D02*
X119680000Y-52626000D01*
X113960000Y-52626000D02*
X113960000Y-54126000D01*
X112960000Y-52626000D02*
X113960000Y-52626000D01*
X120180000Y-51816000D02*
X120680000Y-51816000D01*
X120180000Y-50606000D02*
X120180000Y-51816000D01*
X113460000Y-50606000D02*
X120180000Y-50606000D01*
X113460000Y-51816000D02*
X113460000Y-50606000D01*
X112960000Y-51816000D02*
X113460000Y-51816000D01*
X120680000Y-50106000D02*
X112960000Y-50106000D01*
X120680000Y-54126000D02*
X120680000Y-50106000D01*
X112960000Y-54126000D02*
X120680000Y-54126000D01*
X112960000Y-50106000D02*
X112960000Y-54126000D01*
X102500000Y-54426000D02*
X105000000Y-54426000D01*
X102500000Y-51926000D02*
X102500000Y-54426000D01*
X109520000Y-52626000D02*
X109520000Y-54126000D01*
X110520000Y-52626000D02*
X109520000Y-52626000D01*
X103800000Y-52626000D02*
X103800000Y-54126000D01*
X102800000Y-52626000D02*
X103800000Y-52626000D01*
X110020000Y-51816000D02*
X110520000Y-51816000D01*
X110020000Y-50606000D02*
X110020000Y-51816000D01*
X103300000Y-50606000D02*
X110020000Y-50606000D01*
X103300000Y-51816000D02*
X103300000Y-50606000D01*
X102800000Y-51816000D02*
X103300000Y-51816000D01*
X110520000Y-50106000D02*
X102800000Y-50106000D01*
X110520000Y-54126000D02*
X110520000Y-50106000D01*
X102800000Y-54126000D02*
X110520000Y-54126000D01*
X102800000Y-50106000D02*
X102800000Y-54126000D01*
X92340000Y-54426000D02*
X94840000Y-54426000D01*
X92340000Y-51926000D02*
X92340000Y-54426000D01*
X99360000Y-52626000D02*
X99360000Y-54126000D01*
X100360000Y-52626000D02*
X99360000Y-52626000D01*
X93640000Y-52626000D02*
X93640000Y-54126000D01*
X92640000Y-52626000D02*
X93640000Y-52626000D01*
X99860000Y-51816000D02*
X100360000Y-51816000D01*
X99860000Y-50606000D02*
X99860000Y-51816000D01*
X93140000Y-50606000D02*
X99860000Y-50606000D01*
X93140000Y-51816000D02*
X93140000Y-50606000D01*
X92640000Y-51816000D02*
X93140000Y-51816000D01*
X100360000Y-50106000D02*
X92640000Y-50106000D01*
X100360000Y-54126000D02*
X100360000Y-50106000D01*
X92640000Y-54126000D02*
X100360000Y-54126000D01*
X92640000Y-50106000D02*
X92640000Y-54126000D01*
X91892000Y-78865000D02*
X91892000Y-77405000D01*
X95052000Y-78865000D02*
X95052000Y-76705000D01*
X95052000Y-78865000D02*
X94122000Y-78865000D01*
X91892000Y-78865000D02*
X92822000Y-78865000D01*
X111405000Y-81840000D02*
X119805000Y-81840000D01*
X111405000Y-88340000D02*
X119805000Y-88340000D01*
X111405000Y-88340000D02*
X111405000Y-81840000D01*
X111405000Y-90095000D02*
X119805000Y-90095000D01*
X111405000Y-96595000D02*
X119805000Y-96595000D01*
X111405000Y-96595000D02*
X111405000Y-90095000D01*
X136753000Y-105739000D02*
X128353000Y-105739000D01*
X136753000Y-99239000D02*
X128353000Y-99239000D01*
X136753000Y-99239000D02*
X136753000Y-105739000D01*
X136753000Y-113740000D02*
X128353000Y-113740000D01*
X136753000Y-107240000D02*
X128353000Y-107240000D01*
X136753000Y-107240000D02*
X136753000Y-113740000D01*
X136782000Y-121868000D02*
X128382000Y-121868000D01*
X136782000Y-115368000D02*
X128382000Y-115368000D01*
X136782000Y-115368000D02*
X136782000Y-121868000D01*
X136753000Y-129869000D02*
X128353000Y-129869000D01*
X136753000Y-123369000D02*
X128353000Y-123369000D01*
X136753000Y-123369000D02*
X136753000Y-129869000D01*
X136655000Y-137870000D02*
X128255000Y-137870000D01*
X136655000Y-131370000D02*
X128255000Y-131370000D01*
X136655000Y-131370000D02*
X136655000Y-137870000D01*
X136655000Y-145998000D02*
X128255000Y-145998000D01*
X136655000Y-139498000D02*
X128255000Y-139498000D01*
X136655000Y-139498000D02*
X136655000Y-145998000D01*
X140840000Y-101355000D02*
X146540000Y-101355000D01*
X140840000Y-105655000D02*
X146540000Y-105655000D01*
X140840000Y-101355000D02*
X140840000Y-105655000D01*
X140967000Y-109356000D02*
X146667000Y-109356000D01*
X140967000Y-113656000D02*
X146667000Y-113656000D01*
X140967000Y-109356000D02*
X140967000Y-113656000D01*
X140849000Y-117484000D02*
X146549000Y-117484000D01*
X140849000Y-121784000D02*
X146549000Y-121784000D01*
X140849000Y-117484000D02*
X140849000Y-121784000D01*
X140840000Y-125485000D02*
X146540000Y-125485000D01*
X140840000Y-129785000D02*
X146540000Y-129785000D01*
X140840000Y-125485000D02*
X140840000Y-129785000D01*
X140849000Y-133486000D02*
X146549000Y-133486000D01*
X140849000Y-137786000D02*
X146549000Y-137786000D01*
X140849000Y-133486000D02*
X140849000Y-137786000D01*
X140967000Y-141614000D02*
X146667000Y-141614000D01*
X140967000Y-145914000D02*
X146667000Y-145914000D01*
X140967000Y-141614000D02*
X140967000Y-145914000D01*
X95266000Y-128361000D02*
X95266000Y-124461000D01*
X97266000Y-128361000D02*
X97266000Y-124461000D01*
X95266000Y-128361000D02*
X97266000Y-128361000D01*
X109754000Y-128068000D02*
X118154000Y-128068000D01*
X109754000Y-134568000D02*
X118154000Y-134568000D01*
X109754000Y-134568000D02*
X109754000Y-128068000D01*
X99594000Y-128068000D02*
X107994000Y-128068000D01*
X99594000Y-134568000D02*
X107994000Y-134568000D01*
X99594000Y-134568000D02*
X99594000Y-128068000D01*
X109754000Y-119940000D02*
X118154000Y-119940000D01*
X109754000Y-126440000D02*
X118154000Y-126440000D01*
X109754000Y-126440000D02*
X109754000Y-119940000D01*
X99594000Y-119940000D02*
X107994000Y-119940000D01*
X99594000Y-126440000D02*
X107994000Y-126440000D01*
X99594000Y-126440000D02*
X99594000Y-119940000D01*
X109656000Y-111685000D02*
X118056000Y-111685000D01*
X109656000Y-118185000D02*
X118056000Y-118185000D01*
X109656000Y-118185000D02*
X109656000Y-111685000D01*
X99496000Y-111685000D02*
X107896000Y-111685000D01*
X99496000Y-118185000D02*
X107896000Y-118185000D01*
X99496000Y-118185000D02*
X99496000Y-111685000D01*
D10*
X89281000Y-141859000D02*
X89281000Y-118999000D01*
X89281000Y-118999000D02*
X91821000Y-118999000D01*
X91821000Y-118999000D02*
X91821000Y-141859000D01*
X89001000Y-144679000D02*
X89001000Y-143129000D01*
X89281000Y-141859000D02*
X91821000Y-141859000D01*
X92101000Y-143129000D02*
X92101000Y-144679000D01*
X92101000Y-144679000D02*
X89001000Y-144679000D01*
X153805000Y-100575000D02*
X153805000Y-101845000D01*
X168775000Y-100575000D02*
X168775000Y-101845000D01*
X168775000Y-138185000D02*
X168775000Y-136915000D01*
X153805000Y-138185000D02*
X153805000Y-136915000D01*
X153805000Y-100575000D02*
X168775000Y-100575000D01*
X153805000Y-138185000D02*
X168775000Y-138185000D01*
X153805000Y-101845000D02*
X152870000Y-101845000D01*
D14*
X169794333Y-68408333D02*
X170927666Y-68408333D01*
X171061000Y-68341666D01*
X171127666Y-68275000D01*
X171194333Y-68141666D01*
X171194333Y-67875000D01*
X171127666Y-67741666D01*
X171061000Y-67675000D01*
X170927666Y-67608333D01*
X169794333Y-67608333D01*
X171194333Y-66208333D02*
X171194333Y-67008333D01*
X171194333Y-66608333D02*
X169794333Y-66608333D01*
X169994333Y-66741666D01*
X170127666Y-66875000D01*
X170194333Y-67008333D01*
X169794333Y-65341666D02*
X169794333Y-65208333D01*
X169861000Y-65075000D01*
X169927666Y-65008333D01*
X170061000Y-64941666D01*
X170327666Y-64875000D01*
X170661000Y-64875000D01*
X170927666Y-64941666D01*
X171061000Y-65008333D01*
X171127666Y-65075000D01*
X171194333Y-65208333D01*
X171194333Y-65341666D01*
X171127666Y-65475000D01*
X171061000Y-65541666D01*
X170927666Y-65608333D01*
X170661000Y-65675000D01*
X170327666Y-65675000D01*
X170061000Y-65608333D01*
X169927666Y-65541666D01*
X169861000Y-65475000D01*
X169794333Y-65341666D01*
X159634333Y-67741666D02*
X160767666Y-67741666D01*
X160901000Y-67675000D01*
X160967666Y-67608333D01*
X161034333Y-67475000D01*
X161034333Y-67208333D01*
X160967666Y-67075000D01*
X160901000Y-67008333D01*
X160767666Y-66941666D01*
X159634333Y-66941666D01*
X161034333Y-66208333D02*
X161034333Y-65941666D01*
X160967666Y-65808333D01*
X160901000Y-65741666D01*
X160701000Y-65608333D01*
X160434333Y-65541666D01*
X159901000Y-65541666D01*
X159767666Y-65608333D01*
X159701000Y-65675000D01*
X159634333Y-65808333D01*
X159634333Y-66075000D01*
X159701000Y-66208333D01*
X159767666Y-66275000D01*
X159901000Y-66341666D01*
X160234333Y-66341666D01*
X160367666Y-66275000D01*
X160434333Y-66208333D01*
X160501000Y-66075000D01*
X160501000Y-65808333D01*
X160434333Y-65675000D01*
X160367666Y-65608333D01*
X160234333Y-65541666D01*
X149474333Y-67741666D02*
X150607666Y-67741666D01*
X150741000Y-67675000D01*
X150807666Y-67608333D01*
X150874333Y-67475000D01*
X150874333Y-67208333D01*
X150807666Y-67075000D01*
X150741000Y-67008333D01*
X150607666Y-66941666D01*
X149474333Y-66941666D01*
X150074333Y-66075000D02*
X150007666Y-66208333D01*
X149941000Y-66275000D01*
X149807666Y-66341666D01*
X149741000Y-66341666D01*
X149607666Y-66275000D01*
X149541000Y-66208333D01*
X149474333Y-66075000D01*
X149474333Y-65808333D01*
X149541000Y-65675000D01*
X149607666Y-65608333D01*
X149741000Y-65541666D01*
X149807666Y-65541666D01*
X149941000Y-65608333D01*
X150007666Y-65675000D01*
X150074333Y-65808333D01*
X150074333Y-66075000D01*
X150141000Y-66208333D01*
X150207666Y-66275000D01*
X150341000Y-66341666D01*
X150607666Y-66341666D01*
X150741000Y-66275000D01*
X150807666Y-66208333D01*
X150874333Y-66075000D01*
X150874333Y-65808333D01*
X150807666Y-65675000D01*
X150741000Y-65608333D01*
X150607666Y-65541666D01*
X150341000Y-65541666D01*
X150207666Y-65608333D01*
X150141000Y-65675000D01*
X150074333Y-65808333D01*
X139314333Y-67741666D02*
X140447666Y-67741666D01*
X140581000Y-67675000D01*
X140647666Y-67608333D01*
X140714333Y-67475000D01*
X140714333Y-67208333D01*
X140647666Y-67075000D01*
X140581000Y-67008333D01*
X140447666Y-66941666D01*
X139314333Y-66941666D01*
X139314333Y-66408333D02*
X139314333Y-65475000D01*
X140714333Y-66075000D01*
X129154333Y-67741666D02*
X130287666Y-67741666D01*
X130421000Y-67675000D01*
X130487666Y-67608333D01*
X130554333Y-67475000D01*
X130554333Y-67208333D01*
X130487666Y-67075000D01*
X130421000Y-67008333D01*
X130287666Y-66941666D01*
X129154333Y-66941666D01*
X129154333Y-65675000D02*
X129154333Y-65941666D01*
X129221000Y-66075000D01*
X129287666Y-66141666D01*
X129487666Y-66275000D01*
X129754333Y-66341666D01*
X130287666Y-66341666D01*
X130421000Y-66275000D01*
X130487666Y-66208333D01*
X130554333Y-66075000D01*
X130554333Y-65808333D01*
X130487666Y-65675000D01*
X130421000Y-65608333D01*
X130287666Y-65541666D01*
X129954333Y-65541666D01*
X129821000Y-65608333D01*
X129754333Y-65675000D01*
X129687666Y-65808333D01*
X129687666Y-66075000D01*
X129754333Y-66208333D01*
X129821000Y-66275000D01*
X129954333Y-66341666D01*
X118994333Y-67741666D02*
X120127666Y-67741666D01*
X120261000Y-67675000D01*
X120327666Y-67608333D01*
X120394333Y-67475000D01*
X120394333Y-67208333D01*
X120327666Y-67075000D01*
X120261000Y-67008333D01*
X120127666Y-66941666D01*
X118994333Y-66941666D01*
X118994333Y-65608333D02*
X118994333Y-66275000D01*
X119661000Y-66341666D01*
X119594333Y-66275000D01*
X119527666Y-66141666D01*
X119527666Y-65808333D01*
X119594333Y-65675000D01*
X119661000Y-65608333D01*
X119794333Y-65541666D01*
X120127666Y-65541666D01*
X120261000Y-65608333D01*
X120327666Y-65675000D01*
X120394333Y-65808333D01*
X120394333Y-66141666D01*
X120327666Y-66275000D01*
X120261000Y-66341666D01*
X108834333Y-67741666D02*
X109967666Y-67741666D01*
X110101000Y-67675000D01*
X110167666Y-67608333D01*
X110234333Y-67475000D01*
X110234333Y-67208333D01*
X110167666Y-67075000D01*
X110101000Y-67008333D01*
X109967666Y-66941666D01*
X108834333Y-66941666D01*
X109301000Y-65675000D02*
X110234333Y-65675000D01*
X108767666Y-66008333D02*
X109767666Y-66341666D01*
X109767666Y-65475000D01*
X98674333Y-67741666D02*
X99807666Y-67741666D01*
X99941000Y-67675000D01*
X100007666Y-67608333D01*
X100074333Y-67475000D01*
X100074333Y-67208333D01*
X100007666Y-67075000D01*
X99941000Y-67008333D01*
X99807666Y-66941666D01*
X98674333Y-66941666D01*
X98674333Y-66408333D02*
X98674333Y-65541666D01*
X99207666Y-66008333D01*
X99207666Y-65808333D01*
X99274333Y-65675000D01*
X99341000Y-65608333D01*
X99474333Y-65541666D01*
X99807666Y-65541666D01*
X99941000Y-65608333D01*
X100007666Y-65675000D01*
X100074333Y-65808333D01*
X100074333Y-66208333D01*
X100007666Y-66341666D01*
X99941000Y-66408333D01*
X88514333Y-67741666D02*
X89647666Y-67741666D01*
X89781000Y-67675000D01*
X89847666Y-67608333D01*
X89914333Y-67475000D01*
X89914333Y-67208333D01*
X89847666Y-67075000D01*
X89781000Y-67008333D01*
X89647666Y-66941666D01*
X88514333Y-66941666D01*
X88647666Y-66341666D02*
X88581000Y-66275000D01*
X88514333Y-66141666D01*
X88514333Y-65808333D01*
X88581000Y-65675000D01*
X88647666Y-65608333D01*
X88781000Y-65541666D01*
X88914333Y-65541666D01*
X89114333Y-65608333D01*
X89914333Y-66408333D01*
X89914333Y-65541666D01*
D10*
X177446666Y-48468380D02*
X177446666Y-49182666D01*
X177399047Y-49325523D01*
X177303809Y-49420761D01*
X177160952Y-49468380D01*
X177065714Y-49468380D01*
X177970476Y-49468380D02*
X178160952Y-49468380D01*
X178256190Y-49420761D01*
X178303809Y-49373142D01*
X178399047Y-49230285D01*
X178446666Y-49039809D01*
X178446666Y-48658857D01*
X178399047Y-48563619D01*
X178351428Y-48516000D01*
X178256190Y-48468380D01*
X178065714Y-48468380D01*
X177970476Y-48516000D01*
X177922857Y-48563619D01*
X177875238Y-48658857D01*
X177875238Y-48896952D01*
X177922857Y-48992190D01*
X177970476Y-49039809D01*
X178065714Y-49087428D01*
X178256190Y-49087428D01*
X178351428Y-49039809D01*
X178399047Y-48992190D01*
X178446666Y-48896952D01*
X167326666Y-48468380D02*
X167326666Y-49182666D01*
X167279047Y-49325523D01*
X167183809Y-49420761D01*
X167040952Y-49468380D01*
X166945714Y-49468380D01*
X167945714Y-48896952D02*
X167850476Y-48849333D01*
X167802857Y-48801714D01*
X167755238Y-48706476D01*
X167755238Y-48658857D01*
X167802857Y-48563619D01*
X167850476Y-48516000D01*
X167945714Y-48468380D01*
X168136190Y-48468380D01*
X168231428Y-48516000D01*
X168279047Y-48563619D01*
X168326666Y-48658857D01*
X168326666Y-48706476D01*
X168279047Y-48801714D01*
X168231428Y-48849333D01*
X168136190Y-48896952D01*
X167945714Y-48896952D01*
X167850476Y-48944571D01*
X167802857Y-48992190D01*
X167755238Y-49087428D01*
X167755238Y-49277904D01*
X167802857Y-49373142D01*
X167850476Y-49420761D01*
X167945714Y-49468380D01*
X168136190Y-49468380D01*
X168231428Y-49420761D01*
X168279047Y-49373142D01*
X168326666Y-49277904D01*
X168326666Y-49087428D01*
X168279047Y-48992190D01*
X168231428Y-48944571D01*
X168136190Y-48896952D01*
X157126666Y-48468380D02*
X157126666Y-49182666D01*
X157079047Y-49325523D01*
X156983809Y-49420761D01*
X156840952Y-49468380D01*
X156745714Y-49468380D01*
X157507619Y-48468380D02*
X158174285Y-48468380D01*
X157745714Y-49468380D01*
X146966666Y-48468380D02*
X146966666Y-49182666D01*
X146919047Y-49325523D01*
X146823809Y-49420761D01*
X146680952Y-49468380D01*
X146585714Y-49468380D01*
X147871428Y-48468380D02*
X147680952Y-48468380D01*
X147585714Y-48516000D01*
X147538095Y-48563619D01*
X147442857Y-48706476D01*
X147395238Y-48896952D01*
X147395238Y-49277904D01*
X147442857Y-49373142D01*
X147490476Y-49420761D01*
X147585714Y-49468380D01*
X147776190Y-49468380D01*
X147871428Y-49420761D01*
X147919047Y-49373142D01*
X147966666Y-49277904D01*
X147966666Y-49039809D01*
X147919047Y-48944571D01*
X147871428Y-48896952D01*
X147776190Y-48849333D01*
X147585714Y-48849333D01*
X147490476Y-48896952D01*
X147442857Y-48944571D01*
X147395238Y-49039809D01*
X136846666Y-48468380D02*
X136846666Y-49182666D01*
X136799047Y-49325523D01*
X136703809Y-49420761D01*
X136560952Y-49468380D01*
X136465714Y-49468380D01*
X137799047Y-48468380D02*
X137322857Y-48468380D01*
X137275238Y-48944571D01*
X137322857Y-48896952D01*
X137418095Y-48849333D01*
X137656190Y-48849333D01*
X137751428Y-48896952D01*
X137799047Y-48944571D01*
X137846666Y-49039809D01*
X137846666Y-49277904D01*
X137799047Y-49373142D01*
X137751428Y-49420761D01*
X137656190Y-49468380D01*
X137418095Y-49468380D01*
X137322857Y-49420761D01*
X137275238Y-49373142D01*
X126646666Y-48398380D02*
X126646666Y-49112666D01*
X126599047Y-49255523D01*
X126503809Y-49350761D01*
X126360952Y-49398380D01*
X126265714Y-49398380D01*
X127551428Y-48731714D02*
X127551428Y-49398380D01*
X127313333Y-48350761D02*
X127075238Y-49065047D01*
X127694285Y-49065047D01*
X116486666Y-48468380D02*
X116486666Y-49182666D01*
X116439047Y-49325523D01*
X116343809Y-49420761D01*
X116200952Y-49468380D01*
X116105714Y-49468380D01*
X116867619Y-48468380D02*
X117486666Y-48468380D01*
X117153333Y-48849333D01*
X117296190Y-48849333D01*
X117391428Y-48896952D01*
X117439047Y-48944571D01*
X117486666Y-49039809D01*
X117486666Y-49277904D01*
X117439047Y-49373142D01*
X117391428Y-49420761D01*
X117296190Y-49468380D01*
X117010476Y-49468380D01*
X116915238Y-49420761D01*
X116867619Y-49373142D01*
X106326666Y-48468380D02*
X106326666Y-49182666D01*
X106279047Y-49325523D01*
X106183809Y-49420761D01*
X106040952Y-49468380D01*
X105945714Y-49468380D01*
X106755238Y-48563619D02*
X106802857Y-48516000D01*
X106898095Y-48468380D01*
X107136190Y-48468380D01*
X107231428Y-48516000D01*
X107279047Y-48563619D01*
X107326666Y-48658857D01*
X107326666Y-48754095D01*
X107279047Y-48896952D01*
X106707619Y-49468380D01*
X107326666Y-49468380D01*
X96166666Y-48468380D02*
X96166666Y-49182666D01*
X96119047Y-49325523D01*
X96023809Y-49420761D01*
X95880952Y-49468380D01*
X95785714Y-49468380D01*
X97166666Y-49468380D02*
X96595238Y-49468380D01*
X96880952Y-49468380D02*
X96880952Y-48468380D01*
X96785714Y-48611238D01*
X96690476Y-48706476D01*
X96595238Y-48754095D01*
X178152380Y-74302857D02*
X177676190Y-74636190D01*
X178152380Y-74874285D02*
X177152380Y-74874285D01*
X177152380Y-74493333D01*
X177200000Y-74398095D01*
X177247619Y-74350476D01*
X177342857Y-74302857D01*
X177485714Y-74302857D01*
X177580952Y-74350476D01*
X177628571Y-74398095D01*
X177676190Y-74493333D01*
X177676190Y-74874285D01*
X177152380Y-73969523D02*
X177152380Y-73350476D01*
X177533333Y-73683809D01*
X177533333Y-73540952D01*
X177580952Y-73445714D01*
X177628571Y-73398095D01*
X177723809Y-73350476D01*
X177961904Y-73350476D01*
X178057142Y-73398095D01*
X178104761Y-73445714D01*
X178152380Y-73540952D01*
X178152380Y-73826666D01*
X178104761Y-73921904D01*
X178057142Y-73969523D01*
X177152380Y-72445714D02*
X177152380Y-72921904D01*
X177628571Y-72969523D01*
X177580952Y-72921904D01*
X177533333Y-72826666D01*
X177533333Y-72588571D01*
X177580952Y-72493333D01*
X177628571Y-72445714D01*
X177723809Y-72398095D01*
X177961904Y-72398095D01*
X178057142Y-72445714D01*
X178104761Y-72493333D01*
X178152380Y-72588571D01*
X178152380Y-72826666D01*
X178104761Y-72921904D01*
X178057142Y-72969523D01*
X167992380Y-74302857D02*
X167516190Y-74636190D01*
X167992380Y-74874285D02*
X166992380Y-74874285D01*
X166992380Y-74493333D01*
X167040000Y-74398095D01*
X167087619Y-74350476D01*
X167182857Y-74302857D01*
X167325714Y-74302857D01*
X167420952Y-74350476D01*
X167468571Y-74398095D01*
X167516190Y-74493333D01*
X167516190Y-74874285D01*
X166992380Y-73969523D02*
X166992380Y-73350476D01*
X167373333Y-73683809D01*
X167373333Y-73540952D01*
X167420952Y-73445714D01*
X167468571Y-73398095D01*
X167563809Y-73350476D01*
X167801904Y-73350476D01*
X167897142Y-73398095D01*
X167944761Y-73445714D01*
X167992380Y-73540952D01*
X167992380Y-73826666D01*
X167944761Y-73921904D01*
X167897142Y-73969523D01*
X167325714Y-72493333D02*
X167992380Y-72493333D01*
X166944761Y-72731428D02*
X167659047Y-72969523D01*
X167659047Y-72350476D01*
X157832380Y-74302857D02*
X157356190Y-74636190D01*
X157832380Y-74874285D02*
X156832380Y-74874285D01*
X156832380Y-74493333D01*
X156880000Y-74398095D01*
X156927619Y-74350476D01*
X157022857Y-74302857D01*
X157165714Y-74302857D01*
X157260952Y-74350476D01*
X157308571Y-74398095D01*
X157356190Y-74493333D01*
X157356190Y-74874285D01*
X156832380Y-73969523D02*
X156832380Y-73350476D01*
X157213333Y-73683809D01*
X157213333Y-73540952D01*
X157260952Y-73445714D01*
X157308571Y-73398095D01*
X157403809Y-73350476D01*
X157641904Y-73350476D01*
X157737142Y-73398095D01*
X157784761Y-73445714D01*
X157832380Y-73540952D01*
X157832380Y-73826666D01*
X157784761Y-73921904D01*
X157737142Y-73969523D01*
X156832380Y-73017142D02*
X156832380Y-72398095D01*
X157213333Y-72731428D01*
X157213333Y-72588571D01*
X157260952Y-72493333D01*
X157308571Y-72445714D01*
X157403809Y-72398095D01*
X157641904Y-72398095D01*
X157737142Y-72445714D01*
X157784761Y-72493333D01*
X157832380Y-72588571D01*
X157832380Y-72874285D01*
X157784761Y-72969523D01*
X157737142Y-73017142D01*
X147672380Y-74302857D02*
X147196190Y-74636190D01*
X147672380Y-74874285D02*
X146672380Y-74874285D01*
X146672380Y-74493333D01*
X146720000Y-74398095D01*
X146767619Y-74350476D01*
X146862857Y-74302857D01*
X147005714Y-74302857D01*
X147100952Y-74350476D01*
X147148571Y-74398095D01*
X147196190Y-74493333D01*
X147196190Y-74874285D01*
X146672380Y-73969523D02*
X146672380Y-73350476D01*
X147053333Y-73683809D01*
X147053333Y-73540952D01*
X147100952Y-73445714D01*
X147148571Y-73398095D01*
X147243809Y-73350476D01*
X147481904Y-73350476D01*
X147577142Y-73398095D01*
X147624761Y-73445714D01*
X147672380Y-73540952D01*
X147672380Y-73826666D01*
X147624761Y-73921904D01*
X147577142Y-73969523D01*
X146767619Y-72969523D02*
X146720000Y-72921904D01*
X146672380Y-72826666D01*
X146672380Y-72588571D01*
X146720000Y-72493333D01*
X146767619Y-72445714D01*
X146862857Y-72398095D01*
X146958095Y-72398095D01*
X147100952Y-72445714D01*
X147672380Y-73017142D01*
X147672380Y-72398095D01*
X137512380Y-74302857D02*
X137036190Y-74636190D01*
X137512380Y-74874285D02*
X136512380Y-74874285D01*
X136512380Y-74493333D01*
X136560000Y-74398095D01*
X136607619Y-74350476D01*
X136702857Y-74302857D01*
X136845714Y-74302857D01*
X136940952Y-74350476D01*
X136988571Y-74398095D01*
X137036190Y-74493333D01*
X137036190Y-74874285D01*
X136512380Y-73969523D02*
X136512380Y-73350476D01*
X136893333Y-73683809D01*
X136893333Y-73540952D01*
X136940952Y-73445714D01*
X136988571Y-73398095D01*
X137083809Y-73350476D01*
X137321904Y-73350476D01*
X137417142Y-73398095D01*
X137464761Y-73445714D01*
X137512380Y-73540952D01*
X137512380Y-73826666D01*
X137464761Y-73921904D01*
X137417142Y-73969523D01*
X137512380Y-72398095D02*
X137512380Y-72969523D01*
X137512380Y-72683809D02*
X136512380Y-72683809D01*
X136655238Y-72779047D01*
X136750476Y-72874285D01*
X136798095Y-72969523D01*
X127352380Y-74302857D02*
X126876190Y-74636190D01*
X127352380Y-74874285D02*
X126352380Y-74874285D01*
X126352380Y-74493333D01*
X126400000Y-74398095D01*
X126447619Y-74350476D01*
X126542857Y-74302857D01*
X126685714Y-74302857D01*
X126780952Y-74350476D01*
X126828571Y-74398095D01*
X126876190Y-74493333D01*
X126876190Y-74874285D01*
X126352380Y-73969523D02*
X126352380Y-73350476D01*
X126733333Y-73683809D01*
X126733333Y-73540952D01*
X126780952Y-73445714D01*
X126828571Y-73398095D01*
X126923809Y-73350476D01*
X127161904Y-73350476D01*
X127257142Y-73398095D01*
X127304761Y-73445714D01*
X127352380Y-73540952D01*
X127352380Y-73826666D01*
X127304761Y-73921904D01*
X127257142Y-73969523D01*
X126352380Y-72731428D02*
X126352380Y-72636190D01*
X126400000Y-72540952D01*
X126447619Y-72493333D01*
X126542857Y-72445714D01*
X126733333Y-72398095D01*
X126971428Y-72398095D01*
X127161904Y-72445714D01*
X127257142Y-72493333D01*
X127304761Y-72540952D01*
X127352380Y-72636190D01*
X127352380Y-72731428D01*
X127304761Y-72826666D01*
X127257142Y-72874285D01*
X127161904Y-72921904D01*
X126971428Y-72969523D01*
X126733333Y-72969523D01*
X126542857Y-72921904D01*
X126447619Y-72874285D01*
X126400000Y-72826666D01*
X126352380Y-72731428D01*
X117192380Y-73826666D02*
X116716190Y-74160000D01*
X117192380Y-74398095D02*
X116192380Y-74398095D01*
X116192380Y-74017142D01*
X116240000Y-73921904D01*
X116287619Y-73874285D01*
X116382857Y-73826666D01*
X116525714Y-73826666D01*
X116620952Y-73874285D01*
X116668571Y-73921904D01*
X116716190Y-74017142D01*
X116716190Y-74398095D01*
X116192380Y-73493333D02*
X116192380Y-72874285D01*
X116573333Y-73207619D01*
X116573333Y-73064761D01*
X116620952Y-72969523D01*
X116668571Y-72921904D01*
X116763809Y-72874285D01*
X117001904Y-72874285D01*
X117097142Y-72921904D01*
X117144761Y-72969523D01*
X117192380Y-73064761D01*
X117192380Y-73350476D01*
X117144761Y-73445714D01*
X117097142Y-73493333D01*
X107032380Y-73826666D02*
X106556190Y-74160000D01*
X107032380Y-74398095D02*
X106032380Y-74398095D01*
X106032380Y-74017142D01*
X106080000Y-73921904D01*
X106127619Y-73874285D01*
X106222857Y-73826666D01*
X106365714Y-73826666D01*
X106460952Y-73874285D01*
X106508571Y-73921904D01*
X106556190Y-74017142D01*
X106556190Y-74398095D01*
X106127619Y-73445714D02*
X106080000Y-73398095D01*
X106032380Y-73302857D01*
X106032380Y-73064761D01*
X106080000Y-72969523D01*
X106127619Y-72921904D01*
X106222857Y-72874285D01*
X106318095Y-72874285D01*
X106460952Y-72921904D01*
X107032380Y-73493333D01*
X107032380Y-72874285D01*
X96872380Y-73976666D02*
X96396190Y-74310000D01*
X96872380Y-74548095D02*
X95872380Y-74548095D01*
X95872380Y-74167142D01*
X95920000Y-74071904D01*
X95967619Y-74024285D01*
X96062857Y-73976666D01*
X96205714Y-73976666D01*
X96300952Y-74024285D01*
X96348571Y-74071904D01*
X96396190Y-74167142D01*
X96396190Y-74548095D01*
X96872380Y-73024285D02*
X96872380Y-73595714D01*
X96872380Y-73310000D02*
X95872380Y-73310000D01*
X96015238Y-73405238D01*
X96110476Y-73500476D01*
X96158095Y-73595714D01*
X96519619Y-78200238D02*
X96472000Y-78295476D01*
X96376761Y-78390714D01*
X96233904Y-78533571D01*
X96186285Y-78628809D01*
X96186285Y-78724047D01*
X96424380Y-78676428D02*
X96376761Y-78771666D01*
X96281523Y-78866904D01*
X96091047Y-78914523D01*
X95757714Y-78914523D01*
X95567238Y-78866904D01*
X95472000Y-78771666D01*
X95424380Y-78676428D01*
X95424380Y-78485952D01*
X95472000Y-78390714D01*
X95567238Y-78295476D01*
X95757714Y-78247857D01*
X96091047Y-78247857D01*
X96281523Y-78295476D01*
X96376761Y-78390714D01*
X96424380Y-78485952D01*
X96424380Y-78676428D01*
X96424380Y-77295476D02*
X96424380Y-77866904D01*
X96424380Y-77581190D02*
X95424380Y-77581190D01*
X95567238Y-77676428D01*
X95662476Y-77771666D01*
X95710095Y-77866904D01*
X114990714Y-81442380D02*
X114990714Y-80442380D01*
X115228809Y-80442380D01*
X115371666Y-80490000D01*
X115466904Y-80585238D01*
X115514523Y-80680476D01*
X115562142Y-80870952D01*
X115562142Y-81013809D01*
X115514523Y-81204285D01*
X115466904Y-81299523D01*
X115371666Y-81394761D01*
X115228809Y-81442380D01*
X114990714Y-81442380D01*
X115943095Y-80537619D02*
X115990714Y-80490000D01*
X116085952Y-80442380D01*
X116324047Y-80442380D01*
X116419285Y-80490000D01*
X116466904Y-80537619D01*
X116514523Y-80632857D01*
X116514523Y-80728095D01*
X116466904Y-80870952D01*
X115895476Y-81442380D01*
X116514523Y-81442380D01*
X117466904Y-81442380D02*
X116895476Y-81442380D01*
X117181190Y-81442380D02*
X117181190Y-80442380D01*
X117085952Y-80585238D01*
X116990714Y-80680476D01*
X116895476Y-80728095D01*
X114990714Y-89697380D02*
X114990714Y-88697380D01*
X115228809Y-88697380D01*
X115371666Y-88745000D01*
X115466904Y-88840238D01*
X115514523Y-88935476D01*
X115562142Y-89125952D01*
X115562142Y-89268809D01*
X115514523Y-89459285D01*
X115466904Y-89554523D01*
X115371666Y-89649761D01*
X115228809Y-89697380D01*
X114990714Y-89697380D01*
X115943095Y-88792619D02*
X115990714Y-88745000D01*
X116085952Y-88697380D01*
X116324047Y-88697380D01*
X116419285Y-88745000D01*
X116466904Y-88792619D01*
X116514523Y-88887857D01*
X116514523Y-88983095D01*
X116466904Y-89125952D01*
X115895476Y-89697380D01*
X116514523Y-89697380D01*
X117133571Y-88697380D02*
X117228809Y-88697380D01*
X117324047Y-88745000D01*
X117371666Y-88792619D01*
X117419285Y-88887857D01*
X117466904Y-89078333D01*
X117466904Y-89316428D01*
X117419285Y-89506904D01*
X117371666Y-89602142D01*
X117324047Y-89649761D01*
X117228809Y-89697380D01*
X117133571Y-89697380D01*
X117038333Y-89649761D01*
X116990714Y-89602142D01*
X116943095Y-89506904D01*
X116895476Y-89316428D01*
X116895476Y-89078333D01*
X116943095Y-88887857D01*
X116990714Y-88792619D01*
X117038333Y-88745000D01*
X117133571Y-88697380D01*
X93083142Y-132051380D02*
X92749809Y-131575190D01*
X92511714Y-132051380D02*
X92511714Y-131051380D01*
X92892666Y-131051380D01*
X92987904Y-131099000D01*
X93035523Y-131146619D01*
X93083142Y-131241857D01*
X93083142Y-131384714D01*
X93035523Y-131479952D01*
X92987904Y-131527571D01*
X92892666Y-131575190D01*
X92511714Y-131575190D01*
X93464095Y-131146619D02*
X93511714Y-131099000D01*
X93606952Y-131051380D01*
X93845047Y-131051380D01*
X93940285Y-131099000D01*
X93987904Y-131146619D01*
X94035523Y-131241857D01*
X94035523Y-131337095D01*
X93987904Y-131479952D01*
X93416476Y-132051380D01*
X94035523Y-132051380D01*
X94511714Y-132051380D02*
X94702190Y-132051380D01*
X94797428Y-132003761D01*
X94845047Y-131956142D01*
X94940285Y-131813285D01*
X94987904Y-131622809D01*
X94987904Y-131241857D01*
X94940285Y-131146619D01*
X94892666Y-131099000D01*
X94797428Y-131051380D01*
X94606952Y-131051380D01*
X94511714Y-131099000D01*
X94464095Y-131146619D01*
X94416476Y-131241857D01*
X94416476Y-131479952D01*
X94464095Y-131575190D01*
X94511714Y-131622809D01*
X94606952Y-131670428D01*
X94797428Y-131670428D01*
X94892666Y-131622809D01*
X94940285Y-131575190D01*
X94987904Y-131479952D01*
X93083142Y-134591380D02*
X92749809Y-134115190D01*
X92511714Y-134591380D02*
X92511714Y-133591380D01*
X92892666Y-133591380D01*
X92987904Y-133639000D01*
X93035523Y-133686619D01*
X93083142Y-133781857D01*
X93083142Y-133924714D01*
X93035523Y-134019952D01*
X92987904Y-134067571D01*
X92892666Y-134115190D01*
X92511714Y-134115190D01*
X93464095Y-133686619D02*
X93511714Y-133639000D01*
X93606952Y-133591380D01*
X93845047Y-133591380D01*
X93940285Y-133639000D01*
X93987904Y-133686619D01*
X94035523Y-133781857D01*
X94035523Y-133877095D01*
X93987904Y-134019952D01*
X93416476Y-134591380D01*
X94035523Y-134591380D01*
X94606952Y-134019952D02*
X94511714Y-133972333D01*
X94464095Y-133924714D01*
X94416476Y-133829476D01*
X94416476Y-133781857D01*
X94464095Y-133686619D01*
X94511714Y-133639000D01*
X94606952Y-133591380D01*
X94797428Y-133591380D01*
X94892666Y-133639000D01*
X94940285Y-133686619D01*
X94987904Y-133781857D01*
X94987904Y-133829476D01*
X94940285Y-133924714D01*
X94892666Y-133972333D01*
X94797428Y-134019952D01*
X94606952Y-134019952D01*
X94511714Y-134067571D01*
X94464095Y-134115190D01*
X94416476Y-134210428D01*
X94416476Y-134400904D01*
X94464095Y-134496142D01*
X94511714Y-134543761D01*
X94606952Y-134591380D01*
X94797428Y-134591380D01*
X94892666Y-134543761D01*
X94940285Y-134496142D01*
X94987904Y-134400904D01*
X94987904Y-134210428D01*
X94940285Y-134115190D01*
X94892666Y-134067571D01*
X94797428Y-134019952D01*
X93083142Y-137131380D02*
X92749809Y-136655190D01*
X92511714Y-137131380D02*
X92511714Y-136131380D01*
X92892666Y-136131380D01*
X92987904Y-136179000D01*
X93035523Y-136226619D01*
X93083142Y-136321857D01*
X93083142Y-136464714D01*
X93035523Y-136559952D01*
X92987904Y-136607571D01*
X92892666Y-136655190D01*
X92511714Y-136655190D01*
X93464095Y-136226619D02*
X93511714Y-136179000D01*
X93606952Y-136131380D01*
X93845047Y-136131380D01*
X93940285Y-136179000D01*
X93987904Y-136226619D01*
X94035523Y-136321857D01*
X94035523Y-136417095D01*
X93987904Y-136559952D01*
X93416476Y-137131380D01*
X94035523Y-137131380D01*
X94368857Y-136131380D02*
X95035523Y-136131380D01*
X94606952Y-137131380D01*
X93060142Y-139671380D02*
X92726809Y-139195190D01*
X92488714Y-139671380D02*
X92488714Y-138671380D01*
X92869666Y-138671380D01*
X92964904Y-138719000D01*
X93012523Y-138766619D01*
X93060142Y-138861857D01*
X93060142Y-139004714D01*
X93012523Y-139099952D01*
X92964904Y-139147571D01*
X92869666Y-139195190D01*
X92488714Y-139195190D01*
X93441095Y-138766619D02*
X93488714Y-138719000D01*
X93583952Y-138671380D01*
X93822047Y-138671380D01*
X93917285Y-138719000D01*
X93964904Y-138766619D01*
X94012523Y-138861857D01*
X94012523Y-138957095D01*
X93964904Y-139099952D01*
X93393476Y-139671380D01*
X94012523Y-139671380D01*
X94869666Y-138671380D02*
X94679190Y-138671380D01*
X94583952Y-138719000D01*
X94536333Y-138766619D01*
X94441095Y-138909476D01*
X94393476Y-139099952D01*
X94393476Y-139480904D01*
X94441095Y-139576142D01*
X94488714Y-139623761D01*
X94583952Y-139671380D01*
X94774428Y-139671380D01*
X94869666Y-139623761D01*
X94917285Y-139576142D01*
X94964904Y-139480904D01*
X94964904Y-139242809D01*
X94917285Y-139147571D01*
X94869666Y-139099952D01*
X94774428Y-139052333D01*
X94583952Y-139052333D01*
X94488714Y-139099952D01*
X94441095Y-139147571D01*
X94393476Y-139242809D01*
X93060142Y-142211380D02*
X92726809Y-141735190D01*
X92488714Y-142211380D02*
X92488714Y-141211380D01*
X92869666Y-141211380D01*
X92964904Y-141259000D01*
X93012523Y-141306619D01*
X93060142Y-141401857D01*
X93060142Y-141544714D01*
X93012523Y-141639952D01*
X92964904Y-141687571D01*
X92869666Y-141735190D01*
X92488714Y-141735190D01*
X93441095Y-141306619D02*
X93488714Y-141259000D01*
X93583952Y-141211380D01*
X93822047Y-141211380D01*
X93917285Y-141259000D01*
X93964904Y-141306619D01*
X94012523Y-141401857D01*
X94012523Y-141497095D01*
X93964904Y-141639952D01*
X93393476Y-142211380D01*
X94012523Y-142211380D01*
X94917285Y-141211380D02*
X94441095Y-141211380D01*
X94393476Y-141687571D01*
X94441095Y-141639952D01*
X94536333Y-141592333D01*
X94774428Y-141592333D01*
X94869666Y-141639952D01*
X94917285Y-141687571D01*
X94964904Y-141782809D01*
X94964904Y-142020904D01*
X94917285Y-142116142D01*
X94869666Y-142163761D01*
X94774428Y-142211380D01*
X94536333Y-142211380D01*
X94441095Y-142163761D01*
X94393476Y-142116142D01*
X93106142Y-144751380D02*
X92772809Y-144275190D01*
X92534714Y-144751380D02*
X92534714Y-143751380D01*
X92915666Y-143751380D01*
X93010904Y-143799000D01*
X93058523Y-143846619D01*
X93106142Y-143941857D01*
X93106142Y-144084714D01*
X93058523Y-144179952D01*
X93010904Y-144227571D01*
X92915666Y-144275190D01*
X92534714Y-144275190D01*
X93487095Y-143846619D02*
X93534714Y-143799000D01*
X93629952Y-143751380D01*
X93868047Y-143751380D01*
X93963285Y-143799000D01*
X94010904Y-143846619D01*
X94058523Y-143941857D01*
X94058523Y-144037095D01*
X94010904Y-144179952D01*
X93439476Y-144751380D01*
X94058523Y-144751380D01*
X94915666Y-144084714D02*
X94915666Y-144751380D01*
X94677571Y-143703761D02*
X94439476Y-144418047D01*
X95058523Y-144418047D01*
X137683142Y-99031380D02*
X137349809Y-98555190D01*
X137111714Y-99031380D02*
X137111714Y-98031380D01*
X137492666Y-98031380D01*
X137587904Y-98079000D01*
X137635523Y-98126619D01*
X137683142Y-98221857D01*
X137683142Y-98364714D01*
X137635523Y-98459952D01*
X137587904Y-98507571D01*
X137492666Y-98555190D01*
X137111714Y-98555190D01*
X138064095Y-98126619D02*
X138111714Y-98079000D01*
X138206952Y-98031380D01*
X138445047Y-98031380D01*
X138540285Y-98079000D01*
X138587904Y-98126619D01*
X138635523Y-98221857D01*
X138635523Y-98317095D01*
X138587904Y-98459952D01*
X138016476Y-99031380D01*
X138635523Y-99031380D01*
X138968857Y-98031380D02*
X139587904Y-98031380D01*
X139254571Y-98412333D01*
X139397428Y-98412333D01*
X139492666Y-98459952D01*
X139540285Y-98507571D01*
X139587904Y-98602809D01*
X139587904Y-98840904D01*
X139540285Y-98936142D01*
X139492666Y-98983761D01*
X139397428Y-99031380D01*
X139111714Y-99031380D01*
X139016476Y-98983761D01*
X138968857Y-98936142D01*
X137660142Y-107032380D02*
X137326809Y-106556190D01*
X137088714Y-107032380D02*
X137088714Y-106032380D01*
X137469666Y-106032380D01*
X137564904Y-106080000D01*
X137612523Y-106127619D01*
X137660142Y-106222857D01*
X137660142Y-106365714D01*
X137612523Y-106460952D01*
X137564904Y-106508571D01*
X137469666Y-106556190D01*
X137088714Y-106556190D01*
X138041095Y-106127619D02*
X138088714Y-106080000D01*
X138183952Y-106032380D01*
X138422047Y-106032380D01*
X138517285Y-106080000D01*
X138564904Y-106127619D01*
X138612523Y-106222857D01*
X138612523Y-106318095D01*
X138564904Y-106460952D01*
X137993476Y-107032380D01*
X138612523Y-107032380D01*
X138993476Y-106127619D02*
X139041095Y-106080000D01*
X139136333Y-106032380D01*
X139374428Y-106032380D01*
X139469666Y-106080000D01*
X139517285Y-106127619D01*
X139564904Y-106222857D01*
X139564904Y-106318095D01*
X139517285Y-106460952D01*
X138945857Y-107032380D01*
X139564904Y-107032380D01*
X137660142Y-115033380D02*
X137326809Y-114557190D01*
X137088714Y-115033380D02*
X137088714Y-114033380D01*
X137469666Y-114033380D01*
X137564904Y-114081000D01*
X137612523Y-114128619D01*
X137660142Y-114223857D01*
X137660142Y-114366714D01*
X137612523Y-114461952D01*
X137564904Y-114509571D01*
X137469666Y-114557190D01*
X137088714Y-114557190D01*
X138041095Y-114128619D02*
X138088714Y-114081000D01*
X138183952Y-114033380D01*
X138422047Y-114033380D01*
X138517285Y-114081000D01*
X138564904Y-114128619D01*
X138612523Y-114223857D01*
X138612523Y-114319095D01*
X138564904Y-114461952D01*
X137993476Y-115033380D01*
X138612523Y-115033380D01*
X139564904Y-115033380D02*
X138993476Y-115033380D01*
X139279190Y-115033380D02*
X139279190Y-114033380D01*
X139183952Y-114176238D01*
X139088714Y-114271476D01*
X138993476Y-114319095D01*
X137660142Y-123034380D02*
X137326809Y-122558190D01*
X137088714Y-123034380D02*
X137088714Y-122034380D01*
X137469666Y-122034380D01*
X137564904Y-122082000D01*
X137612523Y-122129619D01*
X137660142Y-122224857D01*
X137660142Y-122367714D01*
X137612523Y-122462952D01*
X137564904Y-122510571D01*
X137469666Y-122558190D01*
X137088714Y-122558190D01*
X138041095Y-122129619D02*
X138088714Y-122082000D01*
X138183952Y-122034380D01*
X138422047Y-122034380D01*
X138517285Y-122082000D01*
X138564904Y-122129619D01*
X138612523Y-122224857D01*
X138612523Y-122320095D01*
X138564904Y-122462952D01*
X137993476Y-123034380D01*
X138612523Y-123034380D01*
X139231571Y-122034380D02*
X139326809Y-122034380D01*
X139422047Y-122082000D01*
X139469666Y-122129619D01*
X139517285Y-122224857D01*
X139564904Y-122415333D01*
X139564904Y-122653428D01*
X139517285Y-122843904D01*
X139469666Y-122939142D01*
X139422047Y-122986761D01*
X139326809Y-123034380D01*
X139231571Y-123034380D01*
X139136333Y-122986761D01*
X139088714Y-122939142D01*
X139041095Y-122843904D01*
X138993476Y-122653428D01*
X138993476Y-122415333D01*
X139041095Y-122224857D01*
X139088714Y-122129619D01*
X139136333Y-122082000D01*
X139231571Y-122034380D01*
X137660142Y-131035380D02*
X137326809Y-130559190D01*
X137088714Y-131035380D02*
X137088714Y-130035380D01*
X137469666Y-130035380D01*
X137564904Y-130083000D01*
X137612523Y-130130619D01*
X137660142Y-130225857D01*
X137660142Y-130368714D01*
X137612523Y-130463952D01*
X137564904Y-130511571D01*
X137469666Y-130559190D01*
X137088714Y-130559190D01*
X138612523Y-131035380D02*
X138041095Y-131035380D01*
X138326809Y-131035380D02*
X138326809Y-130035380D01*
X138231571Y-130178238D01*
X138136333Y-130273476D01*
X138041095Y-130321095D01*
X139088714Y-131035380D02*
X139279190Y-131035380D01*
X139374428Y-130987761D01*
X139422047Y-130940142D01*
X139517285Y-130797285D01*
X139564904Y-130606809D01*
X139564904Y-130225857D01*
X139517285Y-130130619D01*
X139469666Y-130083000D01*
X139374428Y-130035380D01*
X139183952Y-130035380D01*
X139088714Y-130083000D01*
X139041095Y-130130619D01*
X138993476Y-130225857D01*
X138993476Y-130463952D01*
X139041095Y-130559190D01*
X139088714Y-130606809D01*
X139183952Y-130654428D01*
X139374428Y-130654428D01*
X139469666Y-130606809D01*
X139517285Y-130559190D01*
X139564904Y-130463952D01*
X137660142Y-139290380D02*
X137326809Y-138814190D01*
X137088714Y-139290380D02*
X137088714Y-138290380D01*
X137469666Y-138290380D01*
X137564904Y-138338000D01*
X137612523Y-138385619D01*
X137660142Y-138480857D01*
X137660142Y-138623714D01*
X137612523Y-138718952D01*
X137564904Y-138766571D01*
X137469666Y-138814190D01*
X137088714Y-138814190D01*
X138612523Y-139290380D02*
X138041095Y-139290380D01*
X138326809Y-139290380D02*
X138326809Y-138290380D01*
X138231571Y-138433238D01*
X138136333Y-138528476D01*
X138041095Y-138576095D01*
X139183952Y-138718952D02*
X139088714Y-138671333D01*
X139041095Y-138623714D01*
X138993476Y-138528476D01*
X138993476Y-138480857D01*
X139041095Y-138385619D01*
X139088714Y-138338000D01*
X139183952Y-138290380D01*
X139374428Y-138290380D01*
X139469666Y-138338000D01*
X139517285Y-138385619D01*
X139564904Y-138480857D01*
X139564904Y-138528476D01*
X139517285Y-138623714D01*
X139469666Y-138671333D01*
X139374428Y-138718952D01*
X139183952Y-138718952D01*
X139088714Y-138766571D01*
X139041095Y-138814190D01*
X138993476Y-138909428D01*
X138993476Y-139099904D01*
X139041095Y-139195142D01*
X139088714Y-139242761D01*
X139183952Y-139290380D01*
X139374428Y-139290380D01*
X139469666Y-139242761D01*
X139517285Y-139195142D01*
X139564904Y-139099904D01*
X139564904Y-138909428D01*
X139517285Y-138814190D01*
X139469666Y-138766571D01*
X139374428Y-138718952D01*
X140560380Y-101838857D02*
X140084190Y-102172190D01*
X140560380Y-102410285D02*
X139560380Y-102410285D01*
X139560380Y-102029333D01*
X139608000Y-101934095D01*
X139655619Y-101886476D01*
X139750857Y-101838857D01*
X139893714Y-101838857D01*
X139988952Y-101886476D01*
X140036571Y-101934095D01*
X140084190Y-102029333D01*
X140084190Y-102410285D01*
X140560380Y-100886476D02*
X140560380Y-101457904D01*
X140560380Y-101172190D02*
X139560380Y-101172190D01*
X139703238Y-101267428D01*
X139798476Y-101362666D01*
X139846095Y-101457904D01*
X139560380Y-100553142D02*
X139560380Y-99886476D01*
X140560380Y-100315047D01*
X140687380Y-109885857D02*
X140211190Y-110219190D01*
X140687380Y-110457285D02*
X139687380Y-110457285D01*
X139687380Y-110076333D01*
X139735000Y-109981095D01*
X139782619Y-109933476D01*
X139877857Y-109885857D01*
X140020714Y-109885857D01*
X140115952Y-109933476D01*
X140163571Y-109981095D01*
X140211190Y-110076333D01*
X140211190Y-110457285D01*
X140687380Y-108933476D02*
X140687380Y-109504904D01*
X140687380Y-109219190D02*
X139687380Y-109219190D01*
X139830238Y-109314428D01*
X139925476Y-109409666D01*
X139973095Y-109504904D01*
X139687380Y-108076333D02*
X139687380Y-108266809D01*
X139735000Y-108362047D01*
X139782619Y-108409666D01*
X139925476Y-108504904D01*
X140115952Y-108552523D01*
X140496904Y-108552523D01*
X140592142Y-108504904D01*
X140639761Y-108457285D01*
X140687380Y-108362047D01*
X140687380Y-108171571D01*
X140639761Y-108076333D01*
X140592142Y-108028714D01*
X140496904Y-107981095D01*
X140258809Y-107981095D01*
X140163571Y-108028714D01*
X140115952Y-108076333D01*
X140068333Y-108171571D01*
X140068333Y-108362047D01*
X140115952Y-108457285D01*
X140163571Y-108504904D01*
X140258809Y-108552523D01*
X140687380Y-117967857D02*
X140211190Y-118301190D01*
X140687380Y-118539285D02*
X139687380Y-118539285D01*
X139687380Y-118158333D01*
X139735000Y-118063095D01*
X139782619Y-118015476D01*
X139877857Y-117967857D01*
X140020714Y-117967857D01*
X140115952Y-118015476D01*
X140163571Y-118063095D01*
X140211190Y-118158333D01*
X140211190Y-118539285D01*
X140687380Y-117015476D02*
X140687380Y-117586904D01*
X140687380Y-117301190D02*
X139687380Y-117301190D01*
X139830238Y-117396428D01*
X139925476Y-117491666D01*
X139973095Y-117586904D01*
X139687380Y-116110714D02*
X139687380Y-116586904D01*
X140163571Y-116634523D01*
X140115952Y-116586904D01*
X140068333Y-116491666D01*
X140068333Y-116253571D01*
X140115952Y-116158333D01*
X140163571Y-116110714D01*
X140258809Y-116063095D01*
X140496904Y-116063095D01*
X140592142Y-116110714D01*
X140639761Y-116158333D01*
X140687380Y-116253571D01*
X140687380Y-116491666D01*
X140639761Y-116586904D01*
X140592142Y-116634523D01*
X140687380Y-125968857D02*
X140211190Y-126302190D01*
X140687380Y-126540285D02*
X139687380Y-126540285D01*
X139687380Y-126159333D01*
X139735000Y-126064095D01*
X139782619Y-126016476D01*
X139877857Y-125968857D01*
X140020714Y-125968857D01*
X140115952Y-126016476D01*
X140163571Y-126064095D01*
X140211190Y-126159333D01*
X140211190Y-126540285D01*
X140687380Y-125016476D02*
X140687380Y-125587904D01*
X140687380Y-125302190D02*
X139687380Y-125302190D01*
X139830238Y-125397428D01*
X139925476Y-125492666D01*
X139973095Y-125587904D01*
X140020714Y-124159333D02*
X140687380Y-124159333D01*
X139639761Y-124397428D02*
X140354047Y-124635523D01*
X140354047Y-124016476D01*
X140560380Y-133969857D02*
X140084190Y-134303190D01*
X140560380Y-134541285D02*
X139560380Y-134541285D01*
X139560380Y-134160333D01*
X139608000Y-134065095D01*
X139655619Y-134017476D01*
X139750857Y-133969857D01*
X139893714Y-133969857D01*
X139988952Y-134017476D01*
X140036571Y-134065095D01*
X140084190Y-134160333D01*
X140084190Y-134541285D01*
X140560380Y-133017476D02*
X140560380Y-133588904D01*
X140560380Y-133303190D02*
X139560380Y-133303190D01*
X139703238Y-133398428D01*
X139798476Y-133493666D01*
X139846095Y-133588904D01*
X139560380Y-132684142D02*
X139560380Y-132065095D01*
X139941333Y-132398428D01*
X139941333Y-132255571D01*
X139988952Y-132160333D01*
X140036571Y-132112714D01*
X140131809Y-132065095D01*
X140369904Y-132065095D01*
X140465142Y-132112714D01*
X140512761Y-132160333D01*
X140560380Y-132255571D01*
X140560380Y-132541285D01*
X140512761Y-132636523D01*
X140465142Y-132684142D01*
X140687380Y-142120857D02*
X140211190Y-142454190D01*
X140687380Y-142692285D02*
X139687380Y-142692285D01*
X139687380Y-142311333D01*
X139735000Y-142216095D01*
X139782619Y-142168476D01*
X139877857Y-142120857D01*
X140020714Y-142120857D01*
X140115952Y-142168476D01*
X140163571Y-142216095D01*
X140211190Y-142311333D01*
X140211190Y-142692285D01*
X140687380Y-141168476D02*
X140687380Y-141739904D01*
X140687380Y-141454190D02*
X139687380Y-141454190D01*
X139830238Y-141549428D01*
X139925476Y-141644666D01*
X139973095Y-141739904D01*
X139782619Y-140787523D02*
X139735000Y-140739904D01*
X139687380Y-140644666D01*
X139687380Y-140406571D01*
X139735000Y-140311333D01*
X139782619Y-140263714D01*
X139877857Y-140216095D01*
X139973095Y-140216095D01*
X140115952Y-140263714D01*
X140687380Y-140835142D01*
X140687380Y-140216095D01*
X170934142Y-102152380D02*
X170600809Y-101676190D01*
X170362714Y-102152380D02*
X170362714Y-101152380D01*
X170743666Y-101152380D01*
X170838904Y-101200000D01*
X170886523Y-101247619D01*
X170934142Y-101342857D01*
X170934142Y-101485714D01*
X170886523Y-101580952D01*
X170838904Y-101628571D01*
X170743666Y-101676190D01*
X170362714Y-101676190D01*
X171886523Y-102152380D02*
X171315095Y-102152380D01*
X171600809Y-102152380D02*
X171600809Y-101152380D01*
X171505571Y-101295238D01*
X171410333Y-101390476D01*
X171315095Y-101438095D01*
X172838904Y-102152380D02*
X172267476Y-102152380D01*
X172553190Y-102152380D02*
X172553190Y-101152380D01*
X172457952Y-101295238D01*
X172362714Y-101390476D01*
X172267476Y-101438095D01*
X93083142Y-129611380D02*
X92749809Y-129135190D01*
X92511714Y-129611380D02*
X92511714Y-128611380D01*
X92892666Y-128611380D01*
X92987904Y-128659000D01*
X93035523Y-128706619D01*
X93083142Y-128801857D01*
X93083142Y-128944714D01*
X93035523Y-129039952D01*
X92987904Y-129087571D01*
X92892666Y-129135190D01*
X92511714Y-129135190D01*
X94035523Y-129611380D02*
X93464095Y-129611380D01*
X93749809Y-129611380D02*
X93749809Y-128611380D01*
X93654571Y-128754238D01*
X93559333Y-128849476D01*
X93464095Y-128897095D01*
X94654571Y-128611380D02*
X94749809Y-128611380D01*
X94845047Y-128659000D01*
X94892666Y-128706619D01*
X94940285Y-128801857D01*
X94987904Y-128992333D01*
X94987904Y-129230428D01*
X94940285Y-129420904D01*
X94892666Y-129516142D01*
X94845047Y-129563761D01*
X94749809Y-129611380D01*
X94654571Y-129611380D01*
X94559333Y-129563761D01*
X94511714Y-129516142D01*
X94464095Y-129420904D01*
X94416476Y-129230428D01*
X94416476Y-128992333D01*
X94464095Y-128801857D01*
X94511714Y-128706619D01*
X94559333Y-128659000D01*
X94654571Y-128611380D01*
X171410333Y-112112380D02*
X171077000Y-111636190D01*
X170838904Y-112112380D02*
X170838904Y-111112380D01*
X171219857Y-111112380D01*
X171315095Y-111160000D01*
X171362714Y-111207619D01*
X171410333Y-111302857D01*
X171410333Y-111445714D01*
X171362714Y-111540952D01*
X171315095Y-111588571D01*
X171219857Y-111636190D01*
X170838904Y-111636190D01*
X171886523Y-112112380D02*
X172077000Y-112112380D01*
X172172238Y-112064761D01*
X172219857Y-112017142D01*
X172315095Y-111874285D01*
X172362714Y-111683809D01*
X172362714Y-111302857D01*
X172315095Y-111207619D01*
X172267476Y-111160000D01*
X172172238Y-111112380D01*
X171981761Y-111112380D01*
X171886523Y-111160000D01*
X171838904Y-111207619D01*
X171791285Y-111302857D01*
X171791285Y-111540952D01*
X171838904Y-111636190D01*
X171886523Y-111683809D01*
X171981761Y-111731428D01*
X172172238Y-111731428D01*
X172267476Y-111683809D01*
X172315095Y-111636190D01*
X172362714Y-111540952D01*
X171410333Y-109572380D02*
X171077000Y-109096190D01*
X170838904Y-109572380D02*
X170838904Y-108572380D01*
X171219857Y-108572380D01*
X171315095Y-108620000D01*
X171362714Y-108667619D01*
X171410333Y-108762857D01*
X171410333Y-108905714D01*
X171362714Y-109000952D01*
X171315095Y-109048571D01*
X171219857Y-109096190D01*
X170838904Y-109096190D01*
X171981761Y-109000952D02*
X171886523Y-108953333D01*
X171838904Y-108905714D01*
X171791285Y-108810476D01*
X171791285Y-108762857D01*
X171838904Y-108667619D01*
X171886523Y-108620000D01*
X171981761Y-108572380D01*
X172172238Y-108572380D01*
X172267476Y-108620000D01*
X172315095Y-108667619D01*
X172362714Y-108762857D01*
X172362714Y-108810476D01*
X172315095Y-108905714D01*
X172267476Y-108953333D01*
X172172238Y-109000952D01*
X171981761Y-109000952D01*
X171886523Y-109048571D01*
X171838904Y-109096190D01*
X171791285Y-109191428D01*
X171791285Y-109381904D01*
X171838904Y-109477142D01*
X171886523Y-109524761D01*
X171981761Y-109572380D01*
X172172238Y-109572380D01*
X172267476Y-109524761D01*
X172315095Y-109477142D01*
X172362714Y-109381904D01*
X172362714Y-109191428D01*
X172315095Y-109096190D01*
X172267476Y-109048571D01*
X172172238Y-109000952D01*
X171387333Y-107032380D02*
X171054000Y-106556190D01*
X170815904Y-107032380D02*
X170815904Y-106032380D01*
X171196857Y-106032380D01*
X171292095Y-106080000D01*
X171339714Y-106127619D01*
X171387333Y-106222857D01*
X171387333Y-106365714D01*
X171339714Y-106460952D01*
X171292095Y-106508571D01*
X171196857Y-106556190D01*
X170815904Y-106556190D01*
X171720666Y-106032380D02*
X172387333Y-106032380D01*
X171958761Y-107032380D01*
X109307333Y-126536380D02*
X108974000Y-126060190D01*
X108735904Y-126536380D02*
X108735904Y-125536380D01*
X109116857Y-125536380D01*
X109212095Y-125584000D01*
X109259714Y-125631619D01*
X109307333Y-125726857D01*
X109307333Y-125869714D01*
X109259714Y-125964952D01*
X109212095Y-126012571D01*
X109116857Y-126060190D01*
X108735904Y-126060190D01*
X110164476Y-125536380D02*
X109974000Y-125536380D01*
X109878761Y-125584000D01*
X109831142Y-125631619D01*
X109735904Y-125774476D01*
X109688285Y-125964952D01*
X109688285Y-126345904D01*
X109735904Y-126441142D01*
X109783523Y-126488761D01*
X109878761Y-126536380D01*
X110069238Y-126536380D01*
X110164476Y-126488761D01*
X110212095Y-126441142D01*
X110259714Y-126345904D01*
X110259714Y-126107809D01*
X110212095Y-126012571D01*
X110164476Y-125964952D01*
X110069238Y-125917333D01*
X109878761Y-125917333D01*
X109783523Y-125964952D01*
X109735904Y-126012571D01*
X109688285Y-126107809D01*
X109203333Y-118281380D02*
X108870000Y-117805190D01*
X108631904Y-118281380D02*
X108631904Y-117281380D01*
X109012857Y-117281380D01*
X109108095Y-117329000D01*
X109155714Y-117376619D01*
X109203333Y-117471857D01*
X109203333Y-117614714D01*
X109155714Y-117709952D01*
X109108095Y-117757571D01*
X109012857Y-117805190D01*
X108631904Y-117805190D01*
X110108095Y-117281380D02*
X109631904Y-117281380D01*
X109584285Y-117757571D01*
X109631904Y-117709952D01*
X109727142Y-117662333D01*
X109965238Y-117662333D01*
X110060476Y-117709952D01*
X110108095Y-117757571D01*
X110155714Y-117852809D01*
X110155714Y-118090904D01*
X110108095Y-118186142D01*
X110060476Y-118233761D01*
X109965238Y-118281380D01*
X109727142Y-118281380D01*
X109631904Y-118233761D01*
X109584285Y-118186142D01*
X109203333Y-109772380D02*
X108870000Y-109296190D01*
X108631904Y-109772380D02*
X108631904Y-108772380D01*
X109012857Y-108772380D01*
X109108095Y-108820000D01*
X109155714Y-108867619D01*
X109203333Y-108962857D01*
X109203333Y-109105714D01*
X109155714Y-109200952D01*
X109108095Y-109248571D01*
X109012857Y-109296190D01*
X108631904Y-109296190D01*
X110060476Y-109105714D02*
X110060476Y-109772380D01*
X109822380Y-108724761D02*
X109584285Y-109439047D01*
X110203333Y-109439047D01*
X130738714Y-107041380D02*
X130738714Y-106041380D01*
X130976809Y-106041380D01*
X131119666Y-106089000D01*
X131214904Y-106184238D01*
X131262523Y-106279476D01*
X131310142Y-106469952D01*
X131310142Y-106612809D01*
X131262523Y-106803285D01*
X131214904Y-106898523D01*
X131119666Y-106993761D01*
X130976809Y-107041380D01*
X130738714Y-107041380D01*
X132262523Y-107041380D02*
X131691095Y-107041380D01*
X131976809Y-107041380D02*
X131976809Y-106041380D01*
X131881571Y-106184238D01*
X131786333Y-106279476D01*
X131691095Y-106327095D01*
X132738714Y-107041380D02*
X132929190Y-107041380D01*
X133024428Y-106993761D01*
X133072047Y-106946142D01*
X133167285Y-106803285D01*
X133214904Y-106612809D01*
X133214904Y-106231857D01*
X133167285Y-106136619D01*
X133119666Y-106089000D01*
X133024428Y-106041380D01*
X132833952Y-106041380D01*
X132738714Y-106089000D01*
X132691095Y-106136619D01*
X132643476Y-106231857D01*
X132643476Y-106469952D01*
X132691095Y-106565190D01*
X132738714Y-106612809D01*
X132833952Y-106660428D01*
X133024428Y-106660428D01*
X133119666Y-106612809D01*
X133167285Y-106565190D01*
X133214904Y-106469952D01*
X130738714Y-115042380D02*
X130738714Y-114042380D01*
X130976809Y-114042380D01*
X131119666Y-114090000D01*
X131214904Y-114185238D01*
X131262523Y-114280476D01*
X131310142Y-114470952D01*
X131310142Y-114613809D01*
X131262523Y-114804285D01*
X131214904Y-114899523D01*
X131119666Y-114994761D01*
X130976809Y-115042380D01*
X130738714Y-115042380D01*
X132262523Y-115042380D02*
X131691095Y-115042380D01*
X131976809Y-115042380D02*
X131976809Y-114042380D01*
X131881571Y-114185238D01*
X131786333Y-114280476D01*
X131691095Y-114328095D01*
X132833952Y-114470952D02*
X132738714Y-114423333D01*
X132691095Y-114375714D01*
X132643476Y-114280476D01*
X132643476Y-114232857D01*
X132691095Y-114137619D01*
X132738714Y-114090000D01*
X132833952Y-114042380D01*
X133024428Y-114042380D01*
X133119666Y-114090000D01*
X133167285Y-114137619D01*
X133214904Y-114232857D01*
X133214904Y-114280476D01*
X133167285Y-114375714D01*
X133119666Y-114423333D01*
X133024428Y-114470952D01*
X132833952Y-114470952D01*
X132738714Y-114518571D01*
X132691095Y-114566190D01*
X132643476Y-114661428D01*
X132643476Y-114851904D01*
X132691095Y-114947142D01*
X132738714Y-114994761D01*
X132833952Y-115042380D01*
X133024428Y-115042380D01*
X133119666Y-114994761D01*
X133167285Y-114947142D01*
X133214904Y-114851904D01*
X133214904Y-114661428D01*
X133167285Y-114566190D01*
X133119666Y-114518571D01*
X133024428Y-114470952D01*
X130767714Y-123170380D02*
X130767714Y-122170380D01*
X131005809Y-122170380D01*
X131148666Y-122218000D01*
X131243904Y-122313238D01*
X131291523Y-122408476D01*
X131339142Y-122598952D01*
X131339142Y-122741809D01*
X131291523Y-122932285D01*
X131243904Y-123027523D01*
X131148666Y-123122761D01*
X131005809Y-123170380D01*
X130767714Y-123170380D01*
X132291523Y-123170380D02*
X131720095Y-123170380D01*
X132005809Y-123170380D02*
X132005809Y-122170380D01*
X131910571Y-122313238D01*
X131815333Y-122408476D01*
X131720095Y-122456095D01*
X132624857Y-122170380D02*
X133291523Y-122170380D01*
X132862952Y-123170380D01*
X130738714Y-131171380D02*
X130738714Y-130171380D01*
X130976809Y-130171380D01*
X131119666Y-130219000D01*
X131214904Y-130314238D01*
X131262523Y-130409476D01*
X131310142Y-130599952D01*
X131310142Y-130742809D01*
X131262523Y-130933285D01*
X131214904Y-131028523D01*
X131119666Y-131123761D01*
X130976809Y-131171380D01*
X130738714Y-131171380D01*
X132262523Y-131171380D02*
X131691095Y-131171380D01*
X131976809Y-131171380D02*
X131976809Y-130171380D01*
X131881571Y-130314238D01*
X131786333Y-130409476D01*
X131691095Y-130457095D01*
X133119666Y-130171380D02*
X132929190Y-130171380D01*
X132833952Y-130219000D01*
X132786333Y-130266619D01*
X132691095Y-130409476D01*
X132643476Y-130599952D01*
X132643476Y-130980904D01*
X132691095Y-131076142D01*
X132738714Y-131123761D01*
X132833952Y-131171380D01*
X133024428Y-131171380D01*
X133119666Y-131123761D01*
X133167285Y-131076142D01*
X133214904Y-130980904D01*
X133214904Y-130742809D01*
X133167285Y-130647571D01*
X133119666Y-130599952D01*
X133024428Y-130552333D01*
X132833952Y-130552333D01*
X132738714Y-130599952D01*
X132691095Y-130647571D01*
X132643476Y-130742809D01*
X130640714Y-139172380D02*
X130640714Y-138172380D01*
X130878809Y-138172380D01*
X131021666Y-138220000D01*
X131116904Y-138315238D01*
X131164523Y-138410476D01*
X131212142Y-138600952D01*
X131212142Y-138743809D01*
X131164523Y-138934285D01*
X131116904Y-139029523D01*
X131021666Y-139124761D01*
X130878809Y-139172380D01*
X130640714Y-139172380D01*
X132164523Y-139172380D02*
X131593095Y-139172380D01*
X131878809Y-139172380D02*
X131878809Y-138172380D01*
X131783571Y-138315238D01*
X131688333Y-138410476D01*
X131593095Y-138458095D01*
X133069285Y-138172380D02*
X132593095Y-138172380D01*
X132545476Y-138648571D01*
X132593095Y-138600952D01*
X132688333Y-138553333D01*
X132926428Y-138553333D01*
X133021666Y-138600952D01*
X133069285Y-138648571D01*
X133116904Y-138743809D01*
X133116904Y-138981904D01*
X133069285Y-139077142D01*
X133021666Y-139124761D01*
X132926428Y-139172380D01*
X132688333Y-139172380D01*
X132593095Y-139124761D01*
X132545476Y-139077142D01*
X130640714Y-147300380D02*
X130640714Y-146300380D01*
X130878809Y-146300380D01*
X131021666Y-146348000D01*
X131116904Y-146443238D01*
X131164523Y-146538476D01*
X131212142Y-146728952D01*
X131212142Y-146871809D01*
X131164523Y-147062285D01*
X131116904Y-147157523D01*
X131021666Y-147252761D01*
X130878809Y-147300380D01*
X130640714Y-147300380D01*
X132164523Y-147300380D02*
X131593095Y-147300380D01*
X131878809Y-147300380D02*
X131878809Y-146300380D01*
X131783571Y-146443238D01*
X131688333Y-146538476D01*
X131593095Y-146586095D01*
X133021666Y-146633714D02*
X133021666Y-147300380D01*
X132783571Y-146252761D02*
X132545476Y-146967047D01*
X133164523Y-146967047D01*
X143175714Y-100957380D02*
X143175714Y-99957380D01*
X143413809Y-99957380D01*
X143556666Y-100005000D01*
X143651904Y-100100238D01*
X143699523Y-100195476D01*
X143747142Y-100385952D01*
X143747142Y-100528809D01*
X143699523Y-100719285D01*
X143651904Y-100814523D01*
X143556666Y-100909761D01*
X143413809Y-100957380D01*
X143175714Y-100957380D01*
X144699523Y-100957380D02*
X144128095Y-100957380D01*
X144413809Y-100957380D02*
X144413809Y-99957380D01*
X144318571Y-100100238D01*
X144223333Y-100195476D01*
X144128095Y-100243095D01*
X145032857Y-99957380D02*
X145651904Y-99957380D01*
X145318571Y-100338333D01*
X145461428Y-100338333D01*
X145556666Y-100385952D01*
X145604285Y-100433571D01*
X145651904Y-100528809D01*
X145651904Y-100766904D01*
X145604285Y-100862142D01*
X145556666Y-100909761D01*
X145461428Y-100957380D01*
X145175714Y-100957380D01*
X145080476Y-100909761D01*
X145032857Y-100862142D01*
X143302714Y-108958380D02*
X143302714Y-107958380D01*
X143540809Y-107958380D01*
X143683666Y-108006000D01*
X143778904Y-108101238D01*
X143826523Y-108196476D01*
X143874142Y-108386952D01*
X143874142Y-108529809D01*
X143826523Y-108720285D01*
X143778904Y-108815523D01*
X143683666Y-108910761D01*
X143540809Y-108958380D01*
X143302714Y-108958380D01*
X144826523Y-108958380D02*
X144255095Y-108958380D01*
X144540809Y-108958380D02*
X144540809Y-107958380D01*
X144445571Y-108101238D01*
X144350333Y-108196476D01*
X144255095Y-108244095D01*
X145207476Y-108053619D02*
X145255095Y-108006000D01*
X145350333Y-107958380D01*
X145588428Y-107958380D01*
X145683666Y-108006000D01*
X145731285Y-108053619D01*
X145778904Y-108148857D01*
X145778904Y-108244095D01*
X145731285Y-108386952D01*
X145159857Y-108958380D01*
X145778904Y-108958380D01*
X143184714Y-117086380D02*
X143184714Y-116086380D01*
X143422809Y-116086380D01*
X143565666Y-116134000D01*
X143660904Y-116229238D01*
X143708523Y-116324476D01*
X143756142Y-116514952D01*
X143756142Y-116657809D01*
X143708523Y-116848285D01*
X143660904Y-116943523D01*
X143565666Y-117038761D01*
X143422809Y-117086380D01*
X143184714Y-117086380D01*
X144708523Y-117086380D02*
X144137095Y-117086380D01*
X144422809Y-117086380D02*
X144422809Y-116086380D01*
X144327571Y-116229238D01*
X144232333Y-116324476D01*
X144137095Y-116372095D01*
X145660904Y-117086380D02*
X145089476Y-117086380D01*
X145375190Y-117086380D02*
X145375190Y-116086380D01*
X145279952Y-116229238D01*
X145184714Y-116324476D01*
X145089476Y-116372095D01*
X143175714Y-125087380D02*
X143175714Y-124087380D01*
X143413809Y-124087380D01*
X143556666Y-124135000D01*
X143651904Y-124230238D01*
X143699523Y-124325476D01*
X143747142Y-124515952D01*
X143747142Y-124658809D01*
X143699523Y-124849285D01*
X143651904Y-124944523D01*
X143556666Y-125039761D01*
X143413809Y-125087380D01*
X143175714Y-125087380D01*
X144699523Y-125087380D02*
X144128095Y-125087380D01*
X144413809Y-125087380D02*
X144413809Y-124087380D01*
X144318571Y-124230238D01*
X144223333Y-124325476D01*
X144128095Y-124373095D01*
X145318571Y-124087380D02*
X145413809Y-124087380D01*
X145509047Y-124135000D01*
X145556666Y-124182619D01*
X145604285Y-124277857D01*
X145651904Y-124468333D01*
X145651904Y-124706428D01*
X145604285Y-124896904D01*
X145556666Y-124992142D01*
X145509047Y-125039761D01*
X145413809Y-125087380D01*
X145318571Y-125087380D01*
X145223333Y-125039761D01*
X145175714Y-124992142D01*
X145128095Y-124896904D01*
X145080476Y-124706428D01*
X145080476Y-124468333D01*
X145128095Y-124277857D01*
X145175714Y-124182619D01*
X145223333Y-124135000D01*
X145318571Y-124087380D01*
X143660904Y-133088380D02*
X143660904Y-132088380D01*
X143899000Y-132088380D01*
X144041857Y-132136000D01*
X144137095Y-132231238D01*
X144184714Y-132326476D01*
X144232333Y-132516952D01*
X144232333Y-132659809D01*
X144184714Y-132850285D01*
X144137095Y-132945523D01*
X144041857Y-133040761D01*
X143899000Y-133088380D01*
X143660904Y-133088380D01*
X144708523Y-133088380D02*
X144899000Y-133088380D01*
X144994238Y-133040761D01*
X145041857Y-132993142D01*
X145137095Y-132850285D01*
X145184714Y-132659809D01*
X145184714Y-132278857D01*
X145137095Y-132183619D01*
X145089476Y-132136000D01*
X144994238Y-132088380D01*
X144803761Y-132088380D01*
X144708523Y-132136000D01*
X144660904Y-132183619D01*
X144613285Y-132278857D01*
X144613285Y-132516952D01*
X144660904Y-132612190D01*
X144708523Y-132659809D01*
X144803761Y-132707428D01*
X144994238Y-132707428D01*
X145089476Y-132659809D01*
X145137095Y-132612190D01*
X145184714Y-132516952D01*
X143778904Y-141216380D02*
X143778904Y-140216380D01*
X144017000Y-140216380D01*
X144159857Y-140264000D01*
X144255095Y-140359238D01*
X144302714Y-140454476D01*
X144350333Y-140644952D01*
X144350333Y-140787809D01*
X144302714Y-140978285D01*
X144255095Y-141073523D01*
X144159857Y-141168761D01*
X144017000Y-141216380D01*
X143778904Y-141216380D01*
X144921761Y-140644952D02*
X144826523Y-140597333D01*
X144778904Y-140549714D01*
X144731285Y-140454476D01*
X144731285Y-140406857D01*
X144778904Y-140311619D01*
X144826523Y-140264000D01*
X144921761Y-140216380D01*
X145112238Y-140216380D01*
X145207476Y-140264000D01*
X145255095Y-140311619D01*
X145302714Y-140406857D01*
X145302714Y-140454476D01*
X145255095Y-140549714D01*
X145207476Y-140597333D01*
X145112238Y-140644952D01*
X144921761Y-140644952D01*
X144826523Y-140692571D01*
X144778904Y-140740190D01*
X144731285Y-140835428D01*
X144731285Y-141025904D01*
X144778904Y-141121142D01*
X144826523Y-141168761D01*
X144921761Y-141216380D01*
X145112238Y-141216380D01*
X145207476Y-141168761D01*
X145255095Y-141121142D01*
X145302714Y-141025904D01*
X145302714Y-140835428D01*
X145255095Y-140740190D01*
X145207476Y-140692571D01*
X145112238Y-140644952D01*
X94718380Y-126849095D02*
X93718380Y-126849095D01*
X93718380Y-126611000D01*
X93766000Y-126468142D01*
X93861238Y-126372904D01*
X93956476Y-126325285D01*
X94146952Y-126277666D01*
X94289809Y-126277666D01*
X94480285Y-126325285D01*
X94575523Y-126372904D01*
X94670761Y-126468142D01*
X94718380Y-126611000D01*
X94718380Y-126849095D01*
X93718380Y-125944333D02*
X93718380Y-125277666D01*
X94718380Y-125706238D01*
X113815904Y-127670380D02*
X113815904Y-126670380D01*
X114054000Y-126670380D01*
X114196857Y-126718000D01*
X114292095Y-126813238D01*
X114339714Y-126908476D01*
X114387333Y-127098952D01*
X114387333Y-127241809D01*
X114339714Y-127432285D01*
X114292095Y-127527523D01*
X114196857Y-127622761D01*
X114054000Y-127670380D01*
X113815904Y-127670380D01*
X115244476Y-126670380D02*
X115054000Y-126670380D01*
X114958761Y-126718000D01*
X114911142Y-126765619D01*
X114815904Y-126908476D01*
X114768285Y-127098952D01*
X114768285Y-127479904D01*
X114815904Y-127575142D01*
X114863523Y-127622761D01*
X114958761Y-127670380D01*
X115149238Y-127670380D01*
X115244476Y-127622761D01*
X115292095Y-127575142D01*
X115339714Y-127479904D01*
X115339714Y-127241809D01*
X115292095Y-127146571D01*
X115244476Y-127098952D01*
X115149238Y-127051333D01*
X114958761Y-127051333D01*
X114863523Y-127098952D01*
X114815904Y-127146571D01*
X114768285Y-127241809D01*
X103655904Y-127670380D02*
X103655904Y-126670380D01*
X103894000Y-126670380D01*
X104036857Y-126718000D01*
X104132095Y-126813238D01*
X104179714Y-126908476D01*
X104227333Y-127098952D01*
X104227333Y-127241809D01*
X104179714Y-127432285D01*
X104132095Y-127527523D01*
X104036857Y-127622761D01*
X103894000Y-127670380D01*
X103655904Y-127670380D01*
X105132095Y-126670380D02*
X104655904Y-126670380D01*
X104608285Y-127146571D01*
X104655904Y-127098952D01*
X104751142Y-127051333D01*
X104989238Y-127051333D01*
X105084476Y-127098952D01*
X105132095Y-127146571D01*
X105179714Y-127241809D01*
X105179714Y-127479904D01*
X105132095Y-127575142D01*
X105084476Y-127622761D01*
X104989238Y-127670380D01*
X104751142Y-127670380D01*
X104655904Y-127622761D01*
X104608285Y-127575142D01*
X113815904Y-119542380D02*
X113815904Y-118542380D01*
X114054000Y-118542380D01*
X114196857Y-118590000D01*
X114292095Y-118685238D01*
X114339714Y-118780476D01*
X114387333Y-118970952D01*
X114387333Y-119113809D01*
X114339714Y-119304285D01*
X114292095Y-119399523D01*
X114196857Y-119494761D01*
X114054000Y-119542380D01*
X113815904Y-119542380D01*
X115244476Y-118875714D02*
X115244476Y-119542380D01*
X115006380Y-118494761D02*
X114768285Y-119209047D01*
X115387333Y-119209047D01*
X103655904Y-119542380D02*
X103655904Y-118542380D01*
X103894000Y-118542380D01*
X104036857Y-118590000D01*
X104132095Y-118685238D01*
X104179714Y-118780476D01*
X104227333Y-118970952D01*
X104227333Y-119113809D01*
X104179714Y-119304285D01*
X104132095Y-119399523D01*
X104036857Y-119494761D01*
X103894000Y-119542380D01*
X103655904Y-119542380D01*
X104560666Y-118542380D02*
X105179714Y-118542380D01*
X104846380Y-118923333D01*
X104989238Y-118923333D01*
X105084476Y-118970952D01*
X105132095Y-119018571D01*
X105179714Y-119113809D01*
X105179714Y-119351904D01*
X105132095Y-119447142D01*
X105084476Y-119494761D01*
X104989238Y-119542380D01*
X104703523Y-119542380D01*
X104608285Y-119494761D01*
X104560666Y-119447142D01*
X113717904Y-111287380D02*
X113717904Y-110287380D01*
X113956000Y-110287380D01*
X114098857Y-110335000D01*
X114194095Y-110430238D01*
X114241714Y-110525476D01*
X114289333Y-110715952D01*
X114289333Y-110858809D01*
X114241714Y-111049285D01*
X114194095Y-111144523D01*
X114098857Y-111239761D01*
X113956000Y-111287380D01*
X113717904Y-111287380D01*
X114670285Y-110382619D02*
X114717904Y-110335000D01*
X114813142Y-110287380D01*
X115051238Y-110287380D01*
X115146476Y-110335000D01*
X115194095Y-110382619D01*
X115241714Y-110477857D01*
X115241714Y-110573095D01*
X115194095Y-110715952D01*
X114622666Y-111287380D01*
X115241714Y-111287380D01*
X103557904Y-111287380D02*
X103557904Y-110287380D01*
X103796000Y-110287380D01*
X103938857Y-110335000D01*
X104034095Y-110430238D01*
X104081714Y-110525476D01*
X104129333Y-110715952D01*
X104129333Y-110858809D01*
X104081714Y-111049285D01*
X104034095Y-111144523D01*
X103938857Y-111239761D01*
X103796000Y-111287380D01*
X103557904Y-111287380D01*
X105081714Y-111287380D02*
X104510285Y-111287380D01*
X104796000Y-111287380D02*
X104796000Y-110287380D01*
X104700761Y-110430238D01*
X104605523Y-110525476D01*
X104510285Y-110573095D01*
X166203333Y-106937142D02*
X166155714Y-106984761D01*
X166012857Y-107032380D01*
X165917619Y-107032380D01*
X165774761Y-106984761D01*
X165679523Y-106889523D01*
X165631904Y-106794285D01*
X165584285Y-106603809D01*
X165584285Y-106460952D01*
X165631904Y-106270476D01*
X165679523Y-106175238D01*
X165774761Y-106080000D01*
X165917619Y-106032380D01*
X166012857Y-106032380D01*
X166155714Y-106080000D01*
X166203333Y-106127619D01*
X167155714Y-107032380D02*
X166584285Y-107032380D01*
X166870000Y-107032380D02*
X166870000Y-106032380D01*
X166774761Y-106175238D01*
X166679523Y-106270476D01*
X166584285Y-106318095D01*
X155544142Y-107137142D02*
X155496523Y-107184761D01*
X155353666Y-107232380D01*
X155258428Y-107232380D01*
X155115571Y-107184761D01*
X155020333Y-107089523D01*
X154972714Y-106994285D01*
X154925095Y-106803809D01*
X154925095Y-106660952D01*
X154972714Y-106470476D01*
X155020333Y-106375238D01*
X155115571Y-106280000D01*
X155258428Y-106232380D01*
X155353666Y-106232380D01*
X155496523Y-106280000D01*
X155544142Y-106327619D01*
X156496523Y-107232380D02*
X155925095Y-107232380D01*
X156210809Y-107232380D02*
X156210809Y-106232380D01*
X156115571Y-106375238D01*
X156020333Y-106470476D01*
X155925095Y-106518095D01*
X157115571Y-106232380D02*
X157210809Y-106232380D01*
X157306047Y-106280000D01*
X157353666Y-106327619D01*
X157401285Y-106422857D01*
X157448904Y-106613333D01*
X157448904Y-106851428D01*
X157401285Y-107041904D01*
X157353666Y-107137142D01*
X157306047Y-107184761D01*
X157210809Y-107232380D01*
X157115571Y-107232380D01*
X157020333Y-107184761D01*
X156972714Y-107137142D01*
X156925095Y-107041904D01*
X156877476Y-106851428D01*
X156877476Y-106613333D01*
X156925095Y-106422857D01*
X156972714Y-106327619D01*
X157020333Y-106280000D01*
X157115571Y-106232380D01*
X156043333Y-109677142D02*
X155995714Y-109724761D01*
X155852857Y-109772380D01*
X155757619Y-109772380D01*
X155614761Y-109724761D01*
X155519523Y-109629523D01*
X155471904Y-109534285D01*
X155424285Y-109343809D01*
X155424285Y-109200952D01*
X155471904Y-109010476D01*
X155519523Y-108915238D01*
X155614761Y-108820000D01*
X155757619Y-108772380D01*
X155852857Y-108772380D01*
X155995714Y-108820000D01*
X156043333Y-108867619D01*
X156519523Y-109772380D02*
X156710000Y-109772380D01*
X156805238Y-109724761D01*
X156852857Y-109677142D01*
X156948095Y-109534285D01*
X156995714Y-109343809D01*
X156995714Y-108962857D01*
X156948095Y-108867619D01*
X156900476Y-108820000D01*
X156805238Y-108772380D01*
X156614761Y-108772380D01*
X156519523Y-108820000D01*
X156471904Y-108867619D01*
X156424285Y-108962857D01*
X156424285Y-109200952D01*
X156471904Y-109296190D01*
X156519523Y-109343809D01*
X156614761Y-109391428D01*
X156805238Y-109391428D01*
X156900476Y-109343809D01*
X156948095Y-109296190D01*
X156995714Y-109200952D01*
X156043333Y-112217142D02*
X155995714Y-112264761D01*
X155852857Y-112312380D01*
X155757619Y-112312380D01*
X155614761Y-112264761D01*
X155519523Y-112169523D01*
X155471904Y-112074285D01*
X155424285Y-111883809D01*
X155424285Y-111740952D01*
X155471904Y-111550476D01*
X155519523Y-111455238D01*
X155614761Y-111360000D01*
X155757619Y-111312380D01*
X155852857Y-111312380D01*
X155995714Y-111360000D01*
X156043333Y-111407619D01*
X156614761Y-111740952D02*
X156519523Y-111693333D01*
X156471904Y-111645714D01*
X156424285Y-111550476D01*
X156424285Y-111502857D01*
X156471904Y-111407619D01*
X156519523Y-111360000D01*
X156614761Y-111312380D01*
X156805238Y-111312380D01*
X156900476Y-111360000D01*
X156948095Y-111407619D01*
X156995714Y-111502857D01*
X156995714Y-111550476D01*
X156948095Y-111645714D01*
X156900476Y-111693333D01*
X156805238Y-111740952D01*
X156614761Y-111740952D01*
X156519523Y-111788571D01*
X156471904Y-111836190D01*
X156424285Y-111931428D01*
X156424285Y-112121904D01*
X156471904Y-112217142D01*
X156519523Y-112264761D01*
X156614761Y-112312380D01*
X156805238Y-112312380D01*
X156900476Y-112264761D01*
X156948095Y-112217142D01*
X156995714Y-112121904D01*
X156995714Y-111931428D01*
X156948095Y-111836190D01*
X156900476Y-111788571D01*
X156805238Y-111740952D01*
X156020333Y-114757142D02*
X155972714Y-114804761D01*
X155829857Y-114852380D01*
X155734619Y-114852380D01*
X155591761Y-114804761D01*
X155496523Y-114709523D01*
X155448904Y-114614285D01*
X155401285Y-114423809D01*
X155401285Y-114280952D01*
X155448904Y-114090476D01*
X155496523Y-113995238D01*
X155591761Y-113900000D01*
X155734619Y-113852380D01*
X155829857Y-113852380D01*
X155972714Y-113900000D01*
X156020333Y-113947619D01*
X156353666Y-113852380D02*
X157020333Y-113852380D01*
X156591761Y-114852380D01*
X156043333Y-117297142D02*
X155995714Y-117344761D01*
X155852857Y-117392380D01*
X155757619Y-117392380D01*
X155614761Y-117344761D01*
X155519523Y-117249523D01*
X155471904Y-117154285D01*
X155424285Y-116963809D01*
X155424285Y-116820952D01*
X155471904Y-116630476D01*
X155519523Y-116535238D01*
X155614761Y-116440000D01*
X155757619Y-116392380D01*
X155852857Y-116392380D01*
X155995714Y-116440000D01*
X156043333Y-116487619D01*
X156900476Y-116392380D02*
X156710000Y-116392380D01*
X156614761Y-116440000D01*
X156567142Y-116487619D01*
X156471904Y-116630476D01*
X156424285Y-116820952D01*
X156424285Y-117201904D01*
X156471904Y-117297142D01*
X156519523Y-117344761D01*
X156614761Y-117392380D01*
X156805238Y-117392380D01*
X156900476Y-117344761D01*
X156948095Y-117297142D01*
X156995714Y-117201904D01*
X156995714Y-116963809D01*
X156948095Y-116868571D01*
X156900476Y-116820952D01*
X156805238Y-116773333D01*
X156614761Y-116773333D01*
X156519523Y-116820952D01*
X156471904Y-116868571D01*
X156424285Y-116963809D01*
X156043333Y-119837142D02*
X155995714Y-119884761D01*
X155852857Y-119932380D01*
X155757619Y-119932380D01*
X155614761Y-119884761D01*
X155519523Y-119789523D01*
X155471904Y-119694285D01*
X155424285Y-119503809D01*
X155424285Y-119360952D01*
X155471904Y-119170476D01*
X155519523Y-119075238D01*
X155614761Y-118980000D01*
X155757619Y-118932380D01*
X155852857Y-118932380D01*
X155995714Y-118980000D01*
X156043333Y-119027619D01*
X156948095Y-118932380D02*
X156471904Y-118932380D01*
X156424285Y-119408571D01*
X156471904Y-119360952D01*
X156567142Y-119313333D01*
X156805238Y-119313333D01*
X156900476Y-119360952D01*
X156948095Y-119408571D01*
X156995714Y-119503809D01*
X156995714Y-119741904D01*
X156948095Y-119837142D01*
X156900476Y-119884761D01*
X156805238Y-119932380D01*
X156567142Y-119932380D01*
X156471904Y-119884761D01*
X156424285Y-119837142D01*
X166180333Y-104397142D02*
X166132714Y-104444761D01*
X165989857Y-104492380D01*
X165894619Y-104492380D01*
X165751761Y-104444761D01*
X165656523Y-104349523D01*
X165608904Y-104254285D01*
X165561285Y-104063809D01*
X165561285Y-103920952D01*
X165608904Y-103730476D01*
X165656523Y-103635238D01*
X165751761Y-103540000D01*
X165894619Y-103492380D01*
X165989857Y-103492380D01*
X166132714Y-103540000D01*
X166180333Y-103587619D01*
X167037476Y-103825714D02*
X167037476Y-104492380D01*
X166799380Y-103444761D02*
X166561285Y-104159047D01*
X167180333Y-104159047D01*
X166203333Y-112017142D02*
X166155714Y-112064761D01*
X166012857Y-112112380D01*
X165917619Y-112112380D01*
X165774761Y-112064761D01*
X165679523Y-111969523D01*
X165631904Y-111874285D01*
X165584285Y-111683809D01*
X165584285Y-111540952D01*
X165631904Y-111350476D01*
X165679523Y-111255238D01*
X165774761Y-111160000D01*
X165917619Y-111112380D01*
X166012857Y-111112380D01*
X166155714Y-111160000D01*
X166203333Y-111207619D01*
X166536666Y-111112380D02*
X167155714Y-111112380D01*
X166822380Y-111493333D01*
X166965238Y-111493333D01*
X167060476Y-111540952D01*
X167108095Y-111588571D01*
X167155714Y-111683809D01*
X167155714Y-111921904D01*
X167108095Y-112017142D01*
X167060476Y-112064761D01*
X166965238Y-112112380D01*
X166679523Y-112112380D01*
X166584285Y-112064761D01*
X166536666Y-112017142D01*
X166203333Y-109477142D02*
X166155714Y-109524761D01*
X166012857Y-109572380D01*
X165917619Y-109572380D01*
X165774761Y-109524761D01*
X165679523Y-109429523D01*
X165631904Y-109334285D01*
X165584285Y-109143809D01*
X165584285Y-109000952D01*
X165631904Y-108810476D01*
X165679523Y-108715238D01*
X165774761Y-108620000D01*
X165917619Y-108572380D01*
X166012857Y-108572380D01*
X166155714Y-108620000D01*
X166203333Y-108667619D01*
X166584285Y-108667619D02*
X166631904Y-108620000D01*
X166727142Y-108572380D01*
X166965238Y-108572380D01*
X167060476Y-108620000D01*
X167108095Y-108667619D01*
X167155714Y-108762857D01*
X167155714Y-108858095D01*
X167108095Y-109000952D01*
X166536666Y-109572380D01*
X167155714Y-109572380D01*
X89812904Y-148681380D02*
X89812904Y-147681380D01*
X90193857Y-147681380D01*
X90289095Y-147729000D01*
X90336714Y-147776619D01*
X90384333Y-147871857D01*
X90384333Y-148014714D01*
X90336714Y-148109952D01*
X90289095Y-148157571D01*
X90193857Y-148205190D01*
X89812904Y-148205190D01*
X90765285Y-147776619D02*
X90812904Y-147729000D01*
X90908142Y-147681380D01*
X91146238Y-147681380D01*
X91241476Y-147729000D01*
X91289095Y-147776619D01*
X91336714Y-147871857D01*
X91336714Y-147967095D01*
X91289095Y-148109952D01*
X90717666Y-148681380D01*
X91336714Y-148681380D01*
X152908095Y-97102380D02*
X152908095Y-97911904D01*
X152955714Y-98007142D01*
X153003333Y-98054761D01*
X153098571Y-98102380D01*
X153289047Y-98102380D01*
X153384285Y-98054761D01*
X153431904Y-98007142D01*
X153479523Y-97911904D01*
X153479523Y-97102380D01*
X154479523Y-98102380D02*
X153908095Y-98102380D01*
X154193809Y-98102380D02*
X154193809Y-97102380D01*
X154098571Y-97245238D01*
X154003333Y-97340476D01*
X153908095Y-97388095D01*
M02*
