G04 #@! TF.GenerationSoftware,KiCad,Pcbnew,5.1.5+dfsg1-2build2*
G04 #@! TF.CreationDate,2021-04-17T20:10:40-04:00*
G04 #@! TF.ProjectId,front_controls,66726f6e-745f-4636-9f6e-74726f6c732e,1*
G04 #@! TF.SameCoordinates,Original*
G04 #@! TF.FileFunction,Legend,Bot*
G04 #@! TF.FilePolarity,Positive*
%FSLAX46Y46*%
G04 Gerber Fmt 4.6, Leading zero omitted, Abs format (unit mm)*
G04 Created by KiCad (PCBNEW 5.1.5+dfsg1-2build2) date 2021-04-17 20:10:40*
%MOMM*%
%LPD*%
G04 APERTURE LIST*
%ADD10C,0.150000*%
G04 APERTURE END LIST*
D10*
X131647619Y-138128571D02*
X131314285Y-138128571D01*
X131171428Y-138652380D02*
X131647619Y-138652380D01*
X131647619Y-137652380D01*
X131171428Y-137652380D01*
X130742857Y-138652380D02*
X130742857Y-137652380D01*
X130504761Y-137652380D01*
X130361904Y-137700000D01*
X130266666Y-137795238D01*
X130219047Y-137890476D01*
X130171428Y-138080952D01*
X130171428Y-138223809D01*
X130219047Y-138414285D01*
X130266666Y-138509523D01*
X130361904Y-138604761D01*
X130504761Y-138652380D01*
X130742857Y-138652380D01*
X129266666Y-138652380D02*
X129742857Y-138652380D01*
X129742857Y-137652380D01*
X128314285Y-137985714D02*
X127933333Y-137985714D01*
X128171428Y-138652380D02*
X128171428Y-137795238D01*
X128123809Y-137700000D01*
X128028571Y-137652380D01*
X127933333Y-137652380D01*
X127600000Y-138652380D02*
X127600000Y-137985714D01*
X127600000Y-138176190D02*
X127552380Y-138080952D01*
X127504761Y-138033333D01*
X127409523Y-137985714D01*
X127314285Y-137985714D01*
X126838095Y-138652380D02*
X126933333Y-138604761D01*
X126980952Y-138557142D01*
X127028571Y-138461904D01*
X127028571Y-138176190D01*
X126980952Y-138080952D01*
X126933333Y-138033333D01*
X126838095Y-137985714D01*
X126695238Y-137985714D01*
X126600000Y-138033333D01*
X126552380Y-138080952D01*
X126504761Y-138176190D01*
X126504761Y-138461904D01*
X126552380Y-138557142D01*
X126600000Y-138604761D01*
X126695238Y-138652380D01*
X126838095Y-138652380D01*
X126076190Y-137985714D02*
X126076190Y-138652380D01*
X126076190Y-138080952D02*
X126028571Y-138033333D01*
X125933333Y-137985714D01*
X125790476Y-137985714D01*
X125695238Y-138033333D01*
X125647619Y-138128571D01*
X125647619Y-138652380D01*
X125314285Y-137985714D02*
X124933333Y-137985714D01*
X125171428Y-137652380D02*
X125171428Y-138509523D01*
X125123809Y-138604761D01*
X125028571Y-138652380D01*
X124933333Y-138652380D01*
X124838095Y-138747619D02*
X124076190Y-138747619D01*
X123409523Y-138604761D02*
X123504761Y-138652380D01*
X123695238Y-138652380D01*
X123790476Y-138604761D01*
X123838095Y-138557142D01*
X123885714Y-138461904D01*
X123885714Y-138176190D01*
X123838095Y-138080952D01*
X123790476Y-138033333D01*
X123695238Y-137985714D01*
X123504761Y-137985714D01*
X123409523Y-138033333D01*
X122838095Y-138652380D02*
X122933333Y-138604761D01*
X122980952Y-138557142D01*
X123028571Y-138461904D01*
X123028571Y-138176190D01*
X122980952Y-138080952D01*
X122933333Y-138033333D01*
X122838095Y-137985714D01*
X122695238Y-137985714D01*
X122600000Y-138033333D01*
X122552380Y-138080952D01*
X122504761Y-138176190D01*
X122504761Y-138461904D01*
X122552380Y-138557142D01*
X122600000Y-138604761D01*
X122695238Y-138652380D01*
X122838095Y-138652380D01*
X122076190Y-137985714D02*
X122076190Y-138652380D01*
X122076190Y-138080952D02*
X122028571Y-138033333D01*
X121933333Y-137985714D01*
X121790476Y-137985714D01*
X121695238Y-138033333D01*
X121647619Y-138128571D01*
X121647619Y-138652380D01*
X121314285Y-137985714D02*
X120933333Y-137985714D01*
X121171428Y-137652380D02*
X121171428Y-138509523D01*
X121123809Y-138604761D01*
X121028571Y-138652380D01*
X120933333Y-138652380D01*
X120600000Y-138652380D02*
X120600000Y-137985714D01*
X120600000Y-138176190D02*
X120552380Y-138080952D01*
X120504761Y-138033333D01*
X120409523Y-137985714D01*
X120314285Y-137985714D01*
X119838095Y-138652380D02*
X119933333Y-138604761D01*
X119980952Y-138557142D01*
X120028571Y-138461904D01*
X120028571Y-138176190D01*
X119980952Y-138080952D01*
X119933333Y-138033333D01*
X119838095Y-137985714D01*
X119695238Y-137985714D01*
X119600000Y-138033333D01*
X119552380Y-138080952D01*
X119504761Y-138176190D01*
X119504761Y-138461904D01*
X119552380Y-138557142D01*
X119600000Y-138604761D01*
X119695238Y-138652380D01*
X119838095Y-138652380D01*
X118933333Y-138652380D02*
X119028571Y-138604761D01*
X119076190Y-138509523D01*
X119076190Y-137652380D01*
X118600000Y-138604761D02*
X118504761Y-138652380D01*
X118314285Y-138652380D01*
X118219047Y-138604761D01*
X118171428Y-138509523D01*
X118171428Y-138461904D01*
X118219047Y-138366666D01*
X118314285Y-138319047D01*
X118457142Y-138319047D01*
X118552380Y-138271428D01*
X118600000Y-138176190D01*
X118600000Y-138128571D01*
X118552380Y-138033333D01*
X118457142Y-137985714D01*
X118314285Y-137985714D01*
X118219047Y-138033333D01*
X117123809Y-137652380D02*
X116790476Y-138652380D01*
X116457142Y-137652380D01*
X116123809Y-138557142D02*
X116076190Y-138604761D01*
X116123809Y-138652380D01*
X116171428Y-138604761D01*
X116123809Y-138557142D01*
X116123809Y-138652380D01*
X114695238Y-137652380D02*
X114600000Y-137652380D01*
X114504761Y-137700000D01*
X114457142Y-137747619D01*
X114409523Y-137842857D01*
X114361904Y-138033333D01*
X114361904Y-138271428D01*
X114409523Y-138461904D01*
X114457142Y-138557142D01*
X114504761Y-138604761D01*
X114600000Y-138652380D01*
X114695238Y-138652380D01*
X114790476Y-138604761D01*
X114838095Y-138557142D01*
X114885714Y-138461904D01*
X114933333Y-138271428D01*
X114933333Y-138033333D01*
X114885714Y-137842857D01*
X114838095Y-137747619D01*
X114790476Y-137700000D01*
X114695238Y-137652380D01*
X113933333Y-138557142D02*
X113885714Y-138604761D01*
X113933333Y-138652380D01*
X113980952Y-138604761D01*
X113933333Y-138557142D01*
X113933333Y-138652380D01*
X113504761Y-137747619D02*
X113457142Y-137700000D01*
X113361904Y-137652380D01*
X113123809Y-137652380D01*
X113028571Y-137700000D01*
X112980952Y-137747619D01*
X112933333Y-137842857D01*
X112933333Y-137938095D01*
X112980952Y-138080952D01*
X113552380Y-138652380D01*
X112933333Y-138652380D01*
X112504761Y-138557142D02*
X112457142Y-138604761D01*
X112504761Y-138652380D01*
X112552380Y-138604761D01*
X112504761Y-138557142D01*
X112504761Y-138652380D01*
X111838095Y-137652380D02*
X111742857Y-137652380D01*
X111647619Y-137700000D01*
X111600000Y-137747619D01*
X111552380Y-137842857D01*
X111504761Y-138033333D01*
X111504761Y-138271428D01*
X111552380Y-138461904D01*
X111600000Y-138557142D01*
X111647619Y-138604761D01*
X111742857Y-138652380D01*
X111838095Y-138652380D01*
X111933333Y-138604761D01*
X111980952Y-138557142D01*
X112028571Y-138461904D01*
X112076190Y-138271428D01*
X112076190Y-138033333D01*
X112028571Y-137842857D01*
X111980952Y-137747619D01*
X111933333Y-137700000D01*
X111838095Y-137652380D01*
M02*
