G04 #@! TF.GenerationSoftware,KiCad,Pcbnew,5.1.4+dfsg1-1~bpo10+1*
G04 #@! TF.CreationDate,2020-09-08T10:33:03-04:00*
G04 #@! TF.ProjectId,front_controls,66726f6e-745f-4636-9f6e-74726f6c732e,1*
G04 #@! TF.SameCoordinates,Original*
G04 #@! TF.FileFunction,Soldermask,Bot*
G04 #@! TF.FilePolarity,Negative*
%FSLAX46Y46*%
G04 Gerber Fmt 4.6, Leading zero omitted, Abs format (unit mm)*
G04 Created by KiCad (PCBNEW 5.1.4+dfsg1-1~bpo10+1) date 2020-09-08 10:33:03*
%MOMM*%
%LPD*%
G04 APERTURE LIST*
%ADD10C,1.660000*%
%ADD11R,1.660000X1.660000*%
%ADD12O,2.100000X2.400000*%
%ADD13C,0.100000*%
%ADD14C,2.100000*%
%ADD15R,2.432000X2.127200*%
%ADD16O,2.432000X2.127200*%
%ADD17O,2.000000X2.000000*%
G04 APERTURE END LIST*
D10*
X173990000Y-62230000D03*
X176530000Y-62230000D03*
X179070000Y-62230000D03*
X179070000Y-69850000D03*
X176530000Y-69850000D03*
D11*
X173990000Y-69850000D03*
D10*
X163830000Y-62230000D03*
X166370000Y-62230000D03*
X168910000Y-62230000D03*
X168910000Y-69850000D03*
X166370000Y-69850000D03*
D11*
X163830000Y-69850000D03*
D10*
X153670000Y-62230000D03*
X156210000Y-62230000D03*
X158750000Y-62230000D03*
X158750000Y-69850000D03*
X156210000Y-69850000D03*
D11*
X153670000Y-69850000D03*
D10*
X143510000Y-62230000D03*
X146050000Y-62230000D03*
X148590000Y-62230000D03*
X148590000Y-69850000D03*
X146050000Y-69850000D03*
D11*
X143510000Y-69850000D03*
D10*
X133350000Y-62230000D03*
X135890000Y-62230000D03*
X138430000Y-62230000D03*
X138430000Y-69850000D03*
X135890000Y-69850000D03*
D11*
X133350000Y-69850000D03*
D10*
X123190000Y-62230000D03*
X125730000Y-62230000D03*
X128270000Y-62230000D03*
X128270000Y-69850000D03*
X125730000Y-69850000D03*
D11*
X123190000Y-69850000D03*
D10*
X113030000Y-62230000D03*
X115570000Y-62230000D03*
X118110000Y-62230000D03*
X118110000Y-69850000D03*
X115570000Y-69850000D03*
D11*
X113030000Y-69850000D03*
D10*
X102870000Y-62230000D03*
X105410000Y-62230000D03*
X107950000Y-62230000D03*
X107950000Y-69850000D03*
X105410000Y-69850000D03*
D11*
X102870000Y-69850000D03*
D10*
X92710000Y-62230000D03*
X95250000Y-62230000D03*
X97790000Y-62230000D03*
X97790000Y-69850000D03*
X95250000Y-69850000D03*
D11*
X92710000Y-69850000D03*
D12*
X179030000Y-51816000D03*
D13*
G36*
X177301447Y-50617487D02*
G01*
X177331425Y-50621934D01*
X177360824Y-50629298D01*
X177389358Y-50639508D01*
X177416755Y-50652465D01*
X177442750Y-50668046D01*
X177467092Y-50686100D01*
X177489548Y-50706452D01*
X177509900Y-50728908D01*
X177527954Y-50753250D01*
X177543535Y-50779245D01*
X177556492Y-50806642D01*
X177566702Y-50835176D01*
X177574066Y-50864575D01*
X177578513Y-50894553D01*
X177580000Y-50924823D01*
X177580000Y-52707177D01*
X177578513Y-52737447D01*
X177574066Y-52767425D01*
X177566702Y-52796824D01*
X177556492Y-52825358D01*
X177543535Y-52852755D01*
X177527954Y-52878750D01*
X177509900Y-52903092D01*
X177489548Y-52925548D01*
X177467092Y-52945900D01*
X177442750Y-52963954D01*
X177416755Y-52979535D01*
X177389358Y-52992492D01*
X177360824Y-53002702D01*
X177331425Y-53010066D01*
X177301447Y-53014513D01*
X177271177Y-53016000D01*
X175788823Y-53016000D01*
X175758553Y-53014513D01*
X175728575Y-53010066D01*
X175699176Y-53002702D01*
X175670642Y-52992492D01*
X175643245Y-52979535D01*
X175617250Y-52963954D01*
X175592908Y-52945900D01*
X175570452Y-52925548D01*
X175550100Y-52903092D01*
X175532046Y-52878750D01*
X175516465Y-52852755D01*
X175503508Y-52825358D01*
X175493298Y-52796824D01*
X175485934Y-52767425D01*
X175481487Y-52737447D01*
X175480000Y-52707177D01*
X175480000Y-50924823D01*
X175481487Y-50894553D01*
X175485934Y-50864575D01*
X175493298Y-50835176D01*
X175503508Y-50806642D01*
X175516465Y-50779245D01*
X175532046Y-50753250D01*
X175550100Y-50728908D01*
X175570452Y-50706452D01*
X175592908Y-50686100D01*
X175617250Y-50668046D01*
X175643245Y-50652465D01*
X175670642Y-50639508D01*
X175699176Y-50629298D01*
X175728575Y-50621934D01*
X175758553Y-50617487D01*
X175788823Y-50616000D01*
X177271177Y-50616000D01*
X177301447Y-50617487D01*
X177301447Y-50617487D01*
G37*
D14*
X176530000Y-51816000D03*
D12*
X168910000Y-51816000D03*
D13*
G36*
X167181447Y-50617487D02*
G01*
X167211425Y-50621934D01*
X167240824Y-50629298D01*
X167269358Y-50639508D01*
X167296755Y-50652465D01*
X167322750Y-50668046D01*
X167347092Y-50686100D01*
X167369548Y-50706452D01*
X167389900Y-50728908D01*
X167407954Y-50753250D01*
X167423535Y-50779245D01*
X167436492Y-50806642D01*
X167446702Y-50835176D01*
X167454066Y-50864575D01*
X167458513Y-50894553D01*
X167460000Y-50924823D01*
X167460000Y-52707177D01*
X167458513Y-52737447D01*
X167454066Y-52767425D01*
X167446702Y-52796824D01*
X167436492Y-52825358D01*
X167423535Y-52852755D01*
X167407954Y-52878750D01*
X167389900Y-52903092D01*
X167369548Y-52925548D01*
X167347092Y-52945900D01*
X167322750Y-52963954D01*
X167296755Y-52979535D01*
X167269358Y-52992492D01*
X167240824Y-53002702D01*
X167211425Y-53010066D01*
X167181447Y-53014513D01*
X167151177Y-53016000D01*
X165668823Y-53016000D01*
X165638553Y-53014513D01*
X165608575Y-53010066D01*
X165579176Y-53002702D01*
X165550642Y-52992492D01*
X165523245Y-52979535D01*
X165497250Y-52963954D01*
X165472908Y-52945900D01*
X165450452Y-52925548D01*
X165430100Y-52903092D01*
X165412046Y-52878750D01*
X165396465Y-52852755D01*
X165383508Y-52825358D01*
X165373298Y-52796824D01*
X165365934Y-52767425D01*
X165361487Y-52737447D01*
X165360000Y-52707177D01*
X165360000Y-50924823D01*
X165361487Y-50894553D01*
X165365934Y-50864575D01*
X165373298Y-50835176D01*
X165383508Y-50806642D01*
X165396465Y-50779245D01*
X165412046Y-50753250D01*
X165430100Y-50728908D01*
X165450452Y-50706452D01*
X165472908Y-50686100D01*
X165497250Y-50668046D01*
X165523245Y-50652465D01*
X165550642Y-50639508D01*
X165579176Y-50629298D01*
X165608575Y-50621934D01*
X165638553Y-50617487D01*
X165668823Y-50616000D01*
X167151177Y-50616000D01*
X167181447Y-50617487D01*
X167181447Y-50617487D01*
G37*
D14*
X166410000Y-51816000D03*
D12*
X158710000Y-51816000D03*
D13*
G36*
X156981447Y-50617487D02*
G01*
X157011425Y-50621934D01*
X157040824Y-50629298D01*
X157069358Y-50639508D01*
X157096755Y-50652465D01*
X157122750Y-50668046D01*
X157147092Y-50686100D01*
X157169548Y-50706452D01*
X157189900Y-50728908D01*
X157207954Y-50753250D01*
X157223535Y-50779245D01*
X157236492Y-50806642D01*
X157246702Y-50835176D01*
X157254066Y-50864575D01*
X157258513Y-50894553D01*
X157260000Y-50924823D01*
X157260000Y-52707177D01*
X157258513Y-52737447D01*
X157254066Y-52767425D01*
X157246702Y-52796824D01*
X157236492Y-52825358D01*
X157223535Y-52852755D01*
X157207954Y-52878750D01*
X157189900Y-52903092D01*
X157169548Y-52925548D01*
X157147092Y-52945900D01*
X157122750Y-52963954D01*
X157096755Y-52979535D01*
X157069358Y-52992492D01*
X157040824Y-53002702D01*
X157011425Y-53010066D01*
X156981447Y-53014513D01*
X156951177Y-53016000D01*
X155468823Y-53016000D01*
X155438553Y-53014513D01*
X155408575Y-53010066D01*
X155379176Y-53002702D01*
X155350642Y-52992492D01*
X155323245Y-52979535D01*
X155297250Y-52963954D01*
X155272908Y-52945900D01*
X155250452Y-52925548D01*
X155230100Y-52903092D01*
X155212046Y-52878750D01*
X155196465Y-52852755D01*
X155183508Y-52825358D01*
X155173298Y-52796824D01*
X155165934Y-52767425D01*
X155161487Y-52737447D01*
X155160000Y-52707177D01*
X155160000Y-50924823D01*
X155161487Y-50894553D01*
X155165934Y-50864575D01*
X155173298Y-50835176D01*
X155183508Y-50806642D01*
X155196465Y-50779245D01*
X155212046Y-50753250D01*
X155230100Y-50728908D01*
X155250452Y-50706452D01*
X155272908Y-50686100D01*
X155297250Y-50668046D01*
X155323245Y-50652465D01*
X155350642Y-50639508D01*
X155379176Y-50629298D01*
X155408575Y-50621934D01*
X155438553Y-50617487D01*
X155468823Y-50616000D01*
X156951177Y-50616000D01*
X156981447Y-50617487D01*
X156981447Y-50617487D01*
G37*
D14*
X156210000Y-51816000D03*
D12*
X148550000Y-51816000D03*
D13*
G36*
X146821447Y-50617487D02*
G01*
X146851425Y-50621934D01*
X146880824Y-50629298D01*
X146909358Y-50639508D01*
X146936755Y-50652465D01*
X146962750Y-50668046D01*
X146987092Y-50686100D01*
X147009548Y-50706452D01*
X147029900Y-50728908D01*
X147047954Y-50753250D01*
X147063535Y-50779245D01*
X147076492Y-50806642D01*
X147086702Y-50835176D01*
X147094066Y-50864575D01*
X147098513Y-50894553D01*
X147100000Y-50924823D01*
X147100000Y-52707177D01*
X147098513Y-52737447D01*
X147094066Y-52767425D01*
X147086702Y-52796824D01*
X147076492Y-52825358D01*
X147063535Y-52852755D01*
X147047954Y-52878750D01*
X147029900Y-52903092D01*
X147009548Y-52925548D01*
X146987092Y-52945900D01*
X146962750Y-52963954D01*
X146936755Y-52979535D01*
X146909358Y-52992492D01*
X146880824Y-53002702D01*
X146851425Y-53010066D01*
X146821447Y-53014513D01*
X146791177Y-53016000D01*
X145308823Y-53016000D01*
X145278553Y-53014513D01*
X145248575Y-53010066D01*
X145219176Y-53002702D01*
X145190642Y-52992492D01*
X145163245Y-52979535D01*
X145137250Y-52963954D01*
X145112908Y-52945900D01*
X145090452Y-52925548D01*
X145070100Y-52903092D01*
X145052046Y-52878750D01*
X145036465Y-52852755D01*
X145023508Y-52825358D01*
X145013298Y-52796824D01*
X145005934Y-52767425D01*
X145001487Y-52737447D01*
X145000000Y-52707177D01*
X145000000Y-50924823D01*
X145001487Y-50894553D01*
X145005934Y-50864575D01*
X145013298Y-50835176D01*
X145023508Y-50806642D01*
X145036465Y-50779245D01*
X145052046Y-50753250D01*
X145070100Y-50728908D01*
X145090452Y-50706452D01*
X145112908Y-50686100D01*
X145137250Y-50668046D01*
X145163245Y-50652465D01*
X145190642Y-50639508D01*
X145219176Y-50629298D01*
X145248575Y-50621934D01*
X145278553Y-50617487D01*
X145308823Y-50616000D01*
X146791177Y-50616000D01*
X146821447Y-50617487D01*
X146821447Y-50617487D01*
G37*
D14*
X146050000Y-51816000D03*
D12*
X138430000Y-51816000D03*
D13*
G36*
X136701447Y-50617487D02*
G01*
X136731425Y-50621934D01*
X136760824Y-50629298D01*
X136789358Y-50639508D01*
X136816755Y-50652465D01*
X136842750Y-50668046D01*
X136867092Y-50686100D01*
X136889548Y-50706452D01*
X136909900Y-50728908D01*
X136927954Y-50753250D01*
X136943535Y-50779245D01*
X136956492Y-50806642D01*
X136966702Y-50835176D01*
X136974066Y-50864575D01*
X136978513Y-50894553D01*
X136980000Y-50924823D01*
X136980000Y-52707177D01*
X136978513Y-52737447D01*
X136974066Y-52767425D01*
X136966702Y-52796824D01*
X136956492Y-52825358D01*
X136943535Y-52852755D01*
X136927954Y-52878750D01*
X136909900Y-52903092D01*
X136889548Y-52925548D01*
X136867092Y-52945900D01*
X136842750Y-52963954D01*
X136816755Y-52979535D01*
X136789358Y-52992492D01*
X136760824Y-53002702D01*
X136731425Y-53010066D01*
X136701447Y-53014513D01*
X136671177Y-53016000D01*
X135188823Y-53016000D01*
X135158553Y-53014513D01*
X135128575Y-53010066D01*
X135099176Y-53002702D01*
X135070642Y-52992492D01*
X135043245Y-52979535D01*
X135017250Y-52963954D01*
X134992908Y-52945900D01*
X134970452Y-52925548D01*
X134950100Y-52903092D01*
X134932046Y-52878750D01*
X134916465Y-52852755D01*
X134903508Y-52825358D01*
X134893298Y-52796824D01*
X134885934Y-52767425D01*
X134881487Y-52737447D01*
X134880000Y-52707177D01*
X134880000Y-50924823D01*
X134881487Y-50894553D01*
X134885934Y-50864575D01*
X134893298Y-50835176D01*
X134903508Y-50806642D01*
X134916465Y-50779245D01*
X134932046Y-50753250D01*
X134950100Y-50728908D01*
X134970452Y-50706452D01*
X134992908Y-50686100D01*
X135017250Y-50668046D01*
X135043245Y-50652465D01*
X135070642Y-50639508D01*
X135099176Y-50629298D01*
X135128575Y-50621934D01*
X135158553Y-50617487D01*
X135188823Y-50616000D01*
X136671177Y-50616000D01*
X136701447Y-50617487D01*
X136701447Y-50617487D01*
G37*
D14*
X135930000Y-51816000D03*
D12*
X128230000Y-51746000D03*
D13*
G36*
X126501447Y-50547487D02*
G01*
X126531425Y-50551934D01*
X126560824Y-50559298D01*
X126589358Y-50569508D01*
X126616755Y-50582465D01*
X126642750Y-50598046D01*
X126667092Y-50616100D01*
X126689548Y-50636452D01*
X126709900Y-50658908D01*
X126727954Y-50683250D01*
X126743535Y-50709245D01*
X126756492Y-50736642D01*
X126766702Y-50765176D01*
X126774066Y-50794575D01*
X126778513Y-50824553D01*
X126780000Y-50854823D01*
X126780000Y-52637177D01*
X126778513Y-52667447D01*
X126774066Y-52697425D01*
X126766702Y-52726824D01*
X126756492Y-52755358D01*
X126743535Y-52782755D01*
X126727954Y-52808750D01*
X126709900Y-52833092D01*
X126689548Y-52855548D01*
X126667092Y-52875900D01*
X126642750Y-52893954D01*
X126616755Y-52909535D01*
X126589358Y-52922492D01*
X126560824Y-52932702D01*
X126531425Y-52940066D01*
X126501447Y-52944513D01*
X126471177Y-52946000D01*
X124988823Y-52946000D01*
X124958553Y-52944513D01*
X124928575Y-52940066D01*
X124899176Y-52932702D01*
X124870642Y-52922492D01*
X124843245Y-52909535D01*
X124817250Y-52893954D01*
X124792908Y-52875900D01*
X124770452Y-52855548D01*
X124750100Y-52833092D01*
X124732046Y-52808750D01*
X124716465Y-52782755D01*
X124703508Y-52755358D01*
X124693298Y-52726824D01*
X124685934Y-52697425D01*
X124681487Y-52667447D01*
X124680000Y-52637177D01*
X124680000Y-50854823D01*
X124681487Y-50824553D01*
X124685934Y-50794575D01*
X124693298Y-50765176D01*
X124703508Y-50736642D01*
X124716465Y-50709245D01*
X124732046Y-50683250D01*
X124750100Y-50658908D01*
X124770452Y-50636452D01*
X124792908Y-50616100D01*
X124817250Y-50598046D01*
X124843245Y-50582465D01*
X124870642Y-50569508D01*
X124899176Y-50559298D01*
X124928575Y-50551934D01*
X124958553Y-50547487D01*
X124988823Y-50546000D01*
X126471177Y-50546000D01*
X126501447Y-50547487D01*
X126501447Y-50547487D01*
G37*
D14*
X125730000Y-51746000D03*
D12*
X118070000Y-51816000D03*
D13*
G36*
X116341447Y-50617487D02*
G01*
X116371425Y-50621934D01*
X116400824Y-50629298D01*
X116429358Y-50639508D01*
X116456755Y-50652465D01*
X116482750Y-50668046D01*
X116507092Y-50686100D01*
X116529548Y-50706452D01*
X116549900Y-50728908D01*
X116567954Y-50753250D01*
X116583535Y-50779245D01*
X116596492Y-50806642D01*
X116606702Y-50835176D01*
X116614066Y-50864575D01*
X116618513Y-50894553D01*
X116620000Y-50924823D01*
X116620000Y-52707177D01*
X116618513Y-52737447D01*
X116614066Y-52767425D01*
X116606702Y-52796824D01*
X116596492Y-52825358D01*
X116583535Y-52852755D01*
X116567954Y-52878750D01*
X116549900Y-52903092D01*
X116529548Y-52925548D01*
X116507092Y-52945900D01*
X116482750Y-52963954D01*
X116456755Y-52979535D01*
X116429358Y-52992492D01*
X116400824Y-53002702D01*
X116371425Y-53010066D01*
X116341447Y-53014513D01*
X116311177Y-53016000D01*
X114828823Y-53016000D01*
X114798553Y-53014513D01*
X114768575Y-53010066D01*
X114739176Y-53002702D01*
X114710642Y-52992492D01*
X114683245Y-52979535D01*
X114657250Y-52963954D01*
X114632908Y-52945900D01*
X114610452Y-52925548D01*
X114590100Y-52903092D01*
X114572046Y-52878750D01*
X114556465Y-52852755D01*
X114543508Y-52825358D01*
X114533298Y-52796824D01*
X114525934Y-52767425D01*
X114521487Y-52737447D01*
X114520000Y-52707177D01*
X114520000Y-50924823D01*
X114521487Y-50894553D01*
X114525934Y-50864575D01*
X114533298Y-50835176D01*
X114543508Y-50806642D01*
X114556465Y-50779245D01*
X114572046Y-50753250D01*
X114590100Y-50728908D01*
X114610452Y-50706452D01*
X114632908Y-50686100D01*
X114657250Y-50668046D01*
X114683245Y-50652465D01*
X114710642Y-50639508D01*
X114739176Y-50629298D01*
X114768575Y-50621934D01*
X114798553Y-50617487D01*
X114828823Y-50616000D01*
X116311177Y-50616000D01*
X116341447Y-50617487D01*
X116341447Y-50617487D01*
G37*
D14*
X115570000Y-51816000D03*
D12*
X107910000Y-51816000D03*
D13*
G36*
X106181447Y-50617487D02*
G01*
X106211425Y-50621934D01*
X106240824Y-50629298D01*
X106269358Y-50639508D01*
X106296755Y-50652465D01*
X106322750Y-50668046D01*
X106347092Y-50686100D01*
X106369548Y-50706452D01*
X106389900Y-50728908D01*
X106407954Y-50753250D01*
X106423535Y-50779245D01*
X106436492Y-50806642D01*
X106446702Y-50835176D01*
X106454066Y-50864575D01*
X106458513Y-50894553D01*
X106460000Y-50924823D01*
X106460000Y-52707177D01*
X106458513Y-52737447D01*
X106454066Y-52767425D01*
X106446702Y-52796824D01*
X106436492Y-52825358D01*
X106423535Y-52852755D01*
X106407954Y-52878750D01*
X106389900Y-52903092D01*
X106369548Y-52925548D01*
X106347092Y-52945900D01*
X106322750Y-52963954D01*
X106296755Y-52979535D01*
X106269358Y-52992492D01*
X106240824Y-53002702D01*
X106211425Y-53010066D01*
X106181447Y-53014513D01*
X106151177Y-53016000D01*
X104668823Y-53016000D01*
X104638553Y-53014513D01*
X104608575Y-53010066D01*
X104579176Y-53002702D01*
X104550642Y-52992492D01*
X104523245Y-52979535D01*
X104497250Y-52963954D01*
X104472908Y-52945900D01*
X104450452Y-52925548D01*
X104430100Y-52903092D01*
X104412046Y-52878750D01*
X104396465Y-52852755D01*
X104383508Y-52825358D01*
X104373298Y-52796824D01*
X104365934Y-52767425D01*
X104361487Y-52737447D01*
X104360000Y-52707177D01*
X104360000Y-50924823D01*
X104361487Y-50894553D01*
X104365934Y-50864575D01*
X104373298Y-50835176D01*
X104383508Y-50806642D01*
X104396465Y-50779245D01*
X104412046Y-50753250D01*
X104430100Y-50728908D01*
X104450452Y-50706452D01*
X104472908Y-50686100D01*
X104497250Y-50668046D01*
X104523245Y-50652465D01*
X104550642Y-50639508D01*
X104579176Y-50629298D01*
X104608575Y-50621934D01*
X104638553Y-50617487D01*
X104668823Y-50616000D01*
X106151177Y-50616000D01*
X106181447Y-50617487D01*
X106181447Y-50617487D01*
G37*
D14*
X105410000Y-51816000D03*
D12*
X97750000Y-51816000D03*
D13*
G36*
X96021447Y-50617487D02*
G01*
X96051425Y-50621934D01*
X96080824Y-50629298D01*
X96109358Y-50639508D01*
X96136755Y-50652465D01*
X96162750Y-50668046D01*
X96187092Y-50686100D01*
X96209548Y-50706452D01*
X96229900Y-50728908D01*
X96247954Y-50753250D01*
X96263535Y-50779245D01*
X96276492Y-50806642D01*
X96286702Y-50835176D01*
X96294066Y-50864575D01*
X96298513Y-50894553D01*
X96300000Y-50924823D01*
X96300000Y-52707177D01*
X96298513Y-52737447D01*
X96294066Y-52767425D01*
X96286702Y-52796824D01*
X96276492Y-52825358D01*
X96263535Y-52852755D01*
X96247954Y-52878750D01*
X96229900Y-52903092D01*
X96209548Y-52925548D01*
X96187092Y-52945900D01*
X96162750Y-52963954D01*
X96136755Y-52979535D01*
X96109358Y-52992492D01*
X96080824Y-53002702D01*
X96051425Y-53010066D01*
X96021447Y-53014513D01*
X95991177Y-53016000D01*
X94508823Y-53016000D01*
X94478553Y-53014513D01*
X94448575Y-53010066D01*
X94419176Y-53002702D01*
X94390642Y-52992492D01*
X94363245Y-52979535D01*
X94337250Y-52963954D01*
X94312908Y-52945900D01*
X94290452Y-52925548D01*
X94270100Y-52903092D01*
X94252046Y-52878750D01*
X94236465Y-52852755D01*
X94223508Y-52825358D01*
X94213298Y-52796824D01*
X94205934Y-52767425D01*
X94201487Y-52737447D01*
X94200000Y-52707177D01*
X94200000Y-50924823D01*
X94201487Y-50894553D01*
X94205934Y-50864575D01*
X94213298Y-50835176D01*
X94223508Y-50806642D01*
X94236465Y-50779245D01*
X94252046Y-50753250D01*
X94270100Y-50728908D01*
X94290452Y-50706452D01*
X94312908Y-50686100D01*
X94337250Y-50668046D01*
X94363245Y-50652465D01*
X94390642Y-50639508D01*
X94419176Y-50629298D01*
X94448575Y-50621934D01*
X94478553Y-50617487D01*
X94508823Y-50616000D01*
X95991177Y-50616000D01*
X96021447Y-50617487D01*
X96021447Y-50617487D01*
G37*
D14*
X95250000Y-51816000D03*
D15*
X90551000Y-143129000D03*
D16*
X90551000Y-140589000D03*
X90551000Y-138049000D03*
X90551000Y-135509000D03*
X90551000Y-132969000D03*
X90551000Y-130429000D03*
X90551000Y-127889000D03*
X90551000Y-125349000D03*
X90551000Y-122809000D03*
X90551000Y-120269000D03*
D17*
X153670000Y-102870000D03*
X153670000Y-105410000D03*
X153670000Y-107950000D03*
X153670000Y-110490000D03*
X153670000Y-113030000D03*
X153670000Y-115570000D03*
X153670000Y-118110000D03*
X153670000Y-120650000D03*
X153670000Y-123190000D03*
X153670000Y-125730000D03*
X153670000Y-128270000D03*
X153670000Y-130810000D03*
X153670000Y-133350000D03*
X153670000Y-135890000D03*
X168910000Y-135890000D03*
X168910000Y-133350000D03*
X168910000Y-130810000D03*
X168910000Y-128270000D03*
X168910000Y-125730000D03*
X168910000Y-123190000D03*
X168910000Y-120650000D03*
X168910000Y-118110000D03*
X168910000Y-115570000D03*
X168910000Y-113030000D03*
X168910000Y-110490000D03*
X168910000Y-107950000D03*
X168910000Y-105410000D03*
X168910000Y-102870000D03*
M02*
