G04 #@! TF.GenerationSoftware,KiCad,Pcbnew,5.1.4+dfsg1-1~bpo10+1*
G04 #@! TF.CreationDate,2020-09-08T10:33:03-04:00*
G04 #@! TF.ProjectId,front_controls,66726f6e-745f-4636-9f6e-74726f6c732e,1*
G04 #@! TF.SameCoordinates,Original*
G04 #@! TF.FileFunction,Legend,Bot*
G04 #@! TF.FilePolarity,Positive*
%FSLAX46Y46*%
G04 Gerber Fmt 4.6, Leading zero omitted, Abs format (unit mm)*
G04 Created by KiCad (PCBNEW 5.1.4+dfsg1-1~bpo10+1) date 2020-09-08 10:33:03*
%MOMM*%
%LPD*%
G04 APERTURE LIST*
%ADD10C,0.150000*%
G04 APERTURE END LIST*
D10*
X184291619Y-144708571D02*
X183958285Y-144708571D01*
X183815428Y-145232380D02*
X184291619Y-145232380D01*
X184291619Y-144232380D01*
X183815428Y-144232380D01*
X183386857Y-145232380D02*
X183386857Y-144232380D01*
X183148761Y-144232380D01*
X183005904Y-144280000D01*
X182910666Y-144375238D01*
X182863047Y-144470476D01*
X182815428Y-144660952D01*
X182815428Y-144803809D01*
X182863047Y-144994285D01*
X182910666Y-145089523D01*
X183005904Y-145184761D01*
X183148761Y-145232380D01*
X183386857Y-145232380D01*
X181910666Y-145232380D02*
X182386857Y-145232380D01*
X182386857Y-144232380D01*
X180958285Y-144565714D02*
X180577333Y-144565714D01*
X180815428Y-145232380D02*
X180815428Y-144375238D01*
X180767809Y-144280000D01*
X180672571Y-144232380D01*
X180577333Y-144232380D01*
X180244000Y-145232380D02*
X180244000Y-144565714D01*
X180244000Y-144756190D02*
X180196380Y-144660952D01*
X180148761Y-144613333D01*
X180053523Y-144565714D01*
X179958285Y-144565714D01*
X179482095Y-145232380D02*
X179577333Y-145184761D01*
X179624952Y-145137142D01*
X179672571Y-145041904D01*
X179672571Y-144756190D01*
X179624952Y-144660952D01*
X179577333Y-144613333D01*
X179482095Y-144565714D01*
X179339238Y-144565714D01*
X179244000Y-144613333D01*
X179196380Y-144660952D01*
X179148761Y-144756190D01*
X179148761Y-145041904D01*
X179196380Y-145137142D01*
X179244000Y-145184761D01*
X179339238Y-145232380D01*
X179482095Y-145232380D01*
X178720190Y-144565714D02*
X178720190Y-145232380D01*
X178720190Y-144660952D02*
X178672571Y-144613333D01*
X178577333Y-144565714D01*
X178434476Y-144565714D01*
X178339238Y-144613333D01*
X178291619Y-144708571D01*
X178291619Y-145232380D01*
X177958285Y-144565714D02*
X177577333Y-144565714D01*
X177815428Y-144232380D02*
X177815428Y-145089523D01*
X177767809Y-145184761D01*
X177672571Y-145232380D01*
X177577333Y-145232380D01*
X177482095Y-145327619D02*
X176720190Y-145327619D01*
X176053523Y-145184761D02*
X176148761Y-145232380D01*
X176339238Y-145232380D01*
X176434476Y-145184761D01*
X176482095Y-145137142D01*
X176529714Y-145041904D01*
X176529714Y-144756190D01*
X176482095Y-144660952D01*
X176434476Y-144613333D01*
X176339238Y-144565714D01*
X176148761Y-144565714D01*
X176053523Y-144613333D01*
X175482095Y-145232380D02*
X175577333Y-145184761D01*
X175624952Y-145137142D01*
X175672571Y-145041904D01*
X175672571Y-144756190D01*
X175624952Y-144660952D01*
X175577333Y-144613333D01*
X175482095Y-144565714D01*
X175339238Y-144565714D01*
X175244000Y-144613333D01*
X175196380Y-144660952D01*
X175148761Y-144756190D01*
X175148761Y-145041904D01*
X175196380Y-145137142D01*
X175244000Y-145184761D01*
X175339238Y-145232380D01*
X175482095Y-145232380D01*
X174720190Y-144565714D02*
X174720190Y-145232380D01*
X174720190Y-144660952D02*
X174672571Y-144613333D01*
X174577333Y-144565714D01*
X174434476Y-144565714D01*
X174339238Y-144613333D01*
X174291619Y-144708571D01*
X174291619Y-145232380D01*
X173958285Y-144565714D02*
X173577333Y-144565714D01*
X173815428Y-144232380D02*
X173815428Y-145089523D01*
X173767809Y-145184761D01*
X173672571Y-145232380D01*
X173577333Y-145232380D01*
X173244000Y-145232380D02*
X173244000Y-144565714D01*
X173244000Y-144756190D02*
X173196380Y-144660952D01*
X173148761Y-144613333D01*
X173053523Y-144565714D01*
X172958285Y-144565714D01*
X172482095Y-145232380D02*
X172577333Y-145184761D01*
X172624952Y-145137142D01*
X172672571Y-145041904D01*
X172672571Y-144756190D01*
X172624952Y-144660952D01*
X172577333Y-144613333D01*
X172482095Y-144565714D01*
X172339238Y-144565714D01*
X172244000Y-144613333D01*
X172196380Y-144660952D01*
X172148761Y-144756190D01*
X172148761Y-145041904D01*
X172196380Y-145137142D01*
X172244000Y-145184761D01*
X172339238Y-145232380D01*
X172482095Y-145232380D01*
X171577333Y-145232380D02*
X171672571Y-145184761D01*
X171720190Y-145089523D01*
X171720190Y-144232380D01*
X171244000Y-145184761D02*
X171148761Y-145232380D01*
X170958285Y-145232380D01*
X170863047Y-145184761D01*
X170815428Y-145089523D01*
X170815428Y-145041904D01*
X170863047Y-144946666D01*
X170958285Y-144899047D01*
X171101142Y-144899047D01*
X171196380Y-144851428D01*
X171244000Y-144756190D01*
X171244000Y-144708571D01*
X171196380Y-144613333D01*
X171101142Y-144565714D01*
X170958285Y-144565714D01*
X170863047Y-144613333D01*
X169767809Y-144232380D02*
X169434476Y-145232380D01*
X169101142Y-144232380D01*
X168767809Y-145137142D02*
X168720190Y-145184761D01*
X168767809Y-145232380D01*
X168815428Y-145184761D01*
X168767809Y-145137142D01*
X168767809Y-145232380D01*
X167339238Y-144232380D02*
X167244000Y-144232380D01*
X167148761Y-144280000D01*
X167101142Y-144327619D01*
X167053523Y-144422857D01*
X167005904Y-144613333D01*
X167005904Y-144851428D01*
X167053523Y-145041904D01*
X167101142Y-145137142D01*
X167148761Y-145184761D01*
X167244000Y-145232380D01*
X167339238Y-145232380D01*
X167434476Y-145184761D01*
X167482095Y-145137142D01*
X167529714Y-145041904D01*
X167577333Y-144851428D01*
X167577333Y-144613333D01*
X167529714Y-144422857D01*
X167482095Y-144327619D01*
X167434476Y-144280000D01*
X167339238Y-144232380D01*
X166577333Y-145137142D02*
X166529714Y-145184761D01*
X166577333Y-145232380D01*
X166624952Y-145184761D01*
X166577333Y-145137142D01*
X166577333Y-145232380D01*
X165577333Y-145232380D02*
X166148761Y-145232380D01*
X165863047Y-145232380D02*
X165863047Y-144232380D01*
X165958285Y-144375238D01*
X166053523Y-144470476D01*
X166148761Y-144518095D01*
X165148761Y-145137142D02*
X165101142Y-145184761D01*
X165148761Y-145232380D01*
X165196380Y-145184761D01*
X165148761Y-145137142D01*
X165148761Y-145232380D01*
X164482095Y-144232380D02*
X164386857Y-144232380D01*
X164291619Y-144280000D01*
X164244000Y-144327619D01*
X164196380Y-144422857D01*
X164148761Y-144613333D01*
X164148761Y-144851428D01*
X164196380Y-145041904D01*
X164244000Y-145137142D01*
X164291619Y-145184761D01*
X164386857Y-145232380D01*
X164482095Y-145232380D01*
X164577333Y-145184761D01*
X164624952Y-145137142D01*
X164672571Y-145041904D01*
X164720190Y-144851428D01*
X164720190Y-144613333D01*
X164672571Y-144422857D01*
X164624952Y-144327619D01*
X164577333Y-144280000D01*
X164482095Y-144232380D01*
M02*
