G04 #@! TF.GenerationSoftware,KiCad,Pcbnew,5.1.5+dfsg1-2build2*
G04 #@! TF.CreationDate,2021-05-26T19:01:52-04:00*
G04 #@! TF.ProjectId,front_controls,66726f6e-745f-4636-9f6e-74726f6c732e,1*
G04 #@! TF.SameCoordinates,Original*
G04 #@! TF.FileFunction,Legend,Top*
G04 #@! TF.FilePolarity,Positive*
%FSLAX46Y46*%
G04 Gerber Fmt 4.6, Leading zero omitted, Abs format (unit mm)*
G04 Created by KiCad (PCBNEW 5.1.5+dfsg1-2build2) date 2021-05-26 19:01:52*
%MOMM*%
%LPD*%
G04 APERTURE LIST*
%ADD10C,0.150000*%
%ADD11C,0.152400*%
%ADD12C,0.120000*%
%ADD13C,0.127000*%
%ADD14C,0.300000*%
%ADD15C,0.015000*%
G04 APERTURE END LIST*
D10*
X100876190Y-57627380D02*
X100542857Y-57151190D01*
X100304761Y-57627380D02*
X100304761Y-56627380D01*
X100685714Y-56627380D01*
X100780952Y-56675000D01*
X100828571Y-56722619D01*
X100876190Y-56817857D01*
X100876190Y-56960714D01*
X100828571Y-57055952D01*
X100780952Y-57103571D01*
X100685714Y-57151190D01*
X100304761Y-57151190D01*
X101304761Y-56627380D02*
X101304761Y-57436904D01*
X101352380Y-57532142D01*
X101400000Y-57579761D01*
X101495238Y-57627380D01*
X101685714Y-57627380D01*
X101780952Y-57579761D01*
X101828571Y-57532142D01*
X101876190Y-57436904D01*
X101876190Y-56627380D01*
X102352380Y-57627380D02*
X102352380Y-56627380D01*
X102923809Y-57627380D01*
X102923809Y-56627380D01*
X103400000Y-57627380D02*
X103400000Y-56627380D01*
X103971428Y-57627380D01*
X103971428Y-56627380D01*
X104447619Y-57627380D02*
X104447619Y-56627380D01*
X104923809Y-57627380D02*
X104923809Y-56627380D01*
X105495238Y-57627380D01*
X105495238Y-56627380D01*
X106495238Y-56675000D02*
X106400000Y-56627380D01*
X106257142Y-56627380D01*
X106114285Y-56675000D01*
X106019047Y-56770238D01*
X105971428Y-56865476D01*
X105923809Y-57055952D01*
X105923809Y-57198809D01*
X105971428Y-57389285D01*
X106019047Y-57484523D01*
X106114285Y-57579761D01*
X106257142Y-57627380D01*
X106352380Y-57627380D01*
X106495238Y-57579761D01*
X106542857Y-57532142D01*
X106542857Y-57198809D01*
X106352380Y-57198809D01*
X101590476Y-59277380D02*
X101114285Y-59277380D01*
X101114285Y-58277380D01*
X101923809Y-59277380D02*
X101923809Y-58277380D01*
X102923809Y-58325000D02*
X102828571Y-58277380D01*
X102685714Y-58277380D01*
X102542857Y-58325000D01*
X102447619Y-58420238D01*
X102400000Y-58515476D01*
X102352380Y-58705952D01*
X102352380Y-58848809D01*
X102400000Y-59039285D01*
X102447619Y-59134523D01*
X102542857Y-59229761D01*
X102685714Y-59277380D01*
X102780952Y-59277380D01*
X102923809Y-59229761D01*
X102971428Y-59182142D01*
X102971428Y-58848809D01*
X102780952Y-58848809D01*
X103400000Y-59277380D02*
X103400000Y-58277380D01*
X103400000Y-58753571D02*
X103971428Y-58753571D01*
X103971428Y-59277380D02*
X103971428Y-58277380D01*
X104304761Y-58277380D02*
X104876190Y-58277380D01*
X104590476Y-59277380D02*
X104590476Y-58277380D01*
X105161904Y-59229761D02*
X105304761Y-59277380D01*
X105542857Y-59277380D01*
X105638095Y-59229761D01*
X105685714Y-59182142D01*
X105733333Y-59086904D01*
X105733333Y-58991666D01*
X105685714Y-58896428D01*
X105638095Y-58848809D01*
X105542857Y-58801190D01*
X105352380Y-58753571D01*
X105257142Y-58705952D01*
X105209523Y-58658333D01*
X105161904Y-58563095D01*
X105161904Y-58467857D01*
X105209523Y-58372619D01*
X105257142Y-58325000D01*
X105352380Y-58277380D01*
X105590476Y-58277380D01*
X105733333Y-58325000D01*
X112614285Y-57427380D02*
X112138095Y-57427380D01*
X112138095Y-56427380D01*
X113138095Y-56427380D02*
X113328571Y-56427380D01*
X113423809Y-56475000D01*
X113519047Y-56570238D01*
X113566666Y-56760714D01*
X113566666Y-57094047D01*
X113519047Y-57284523D01*
X113423809Y-57379761D01*
X113328571Y-57427380D01*
X113138095Y-57427380D01*
X113042857Y-57379761D01*
X112947619Y-57284523D01*
X112900000Y-57094047D01*
X112900000Y-56760714D01*
X112947619Y-56570238D01*
X113042857Y-56475000D01*
X113138095Y-56427380D01*
X113900000Y-56427380D02*
X114138095Y-57427380D01*
X114328571Y-56713095D01*
X114519047Y-57427380D01*
X114757142Y-56427380D01*
X111542857Y-58553571D02*
X111685714Y-58601190D01*
X111733333Y-58648809D01*
X111780952Y-58744047D01*
X111780952Y-58886904D01*
X111733333Y-58982142D01*
X111685714Y-59029761D01*
X111590476Y-59077380D01*
X111209523Y-59077380D01*
X111209523Y-58077380D01*
X111542857Y-58077380D01*
X111638095Y-58125000D01*
X111685714Y-58172619D01*
X111733333Y-58267857D01*
X111733333Y-58363095D01*
X111685714Y-58458333D01*
X111638095Y-58505952D01*
X111542857Y-58553571D01*
X111209523Y-58553571D01*
X112209523Y-58553571D02*
X112542857Y-58553571D01*
X112685714Y-59077380D02*
X112209523Y-59077380D01*
X112209523Y-58077380D01*
X112685714Y-58077380D01*
X113066666Y-58791666D02*
X113542857Y-58791666D01*
X112971428Y-59077380D02*
X113304761Y-58077380D01*
X113638095Y-59077380D01*
X113971428Y-59077380D02*
X113971428Y-58077380D01*
X114304761Y-58791666D01*
X114638095Y-58077380D01*
X114638095Y-59077380D01*
X115066666Y-59029761D02*
X115209523Y-59077380D01*
X115447619Y-59077380D01*
X115542857Y-59029761D01*
X115590476Y-58982142D01*
X115638095Y-58886904D01*
X115638095Y-58791666D01*
X115590476Y-58696428D01*
X115542857Y-58648809D01*
X115447619Y-58601190D01*
X115257142Y-58553571D01*
X115161904Y-58505952D01*
X115114285Y-58458333D01*
X115066666Y-58363095D01*
X115066666Y-58267857D01*
X115114285Y-58172619D01*
X115161904Y-58125000D01*
X115257142Y-58077380D01*
X115495238Y-58077380D01*
X115638095Y-58125000D01*
X121652380Y-57427380D02*
X121652380Y-56427380D01*
X121652380Y-56903571D02*
X122223809Y-56903571D01*
X122223809Y-57427380D02*
X122223809Y-56427380D01*
X122700000Y-57427380D02*
X122700000Y-56427380D01*
X123700000Y-56475000D02*
X123604761Y-56427380D01*
X123461904Y-56427380D01*
X123319047Y-56475000D01*
X123223809Y-56570238D01*
X123176190Y-56665476D01*
X123128571Y-56855952D01*
X123128571Y-56998809D01*
X123176190Y-57189285D01*
X123223809Y-57284523D01*
X123319047Y-57379761D01*
X123461904Y-57427380D01*
X123557142Y-57427380D01*
X123700000Y-57379761D01*
X123747619Y-57332142D01*
X123747619Y-56998809D01*
X123557142Y-56998809D01*
X124176190Y-57427380D02*
X124176190Y-56427380D01*
X124176190Y-56903571D02*
X124747619Y-56903571D01*
X124747619Y-57427380D02*
X124747619Y-56427380D01*
X121342857Y-58553571D02*
X121485714Y-58601190D01*
X121533333Y-58648809D01*
X121580952Y-58744047D01*
X121580952Y-58886904D01*
X121533333Y-58982142D01*
X121485714Y-59029761D01*
X121390476Y-59077380D01*
X121009523Y-59077380D01*
X121009523Y-58077380D01*
X121342857Y-58077380D01*
X121438095Y-58125000D01*
X121485714Y-58172619D01*
X121533333Y-58267857D01*
X121533333Y-58363095D01*
X121485714Y-58458333D01*
X121438095Y-58505952D01*
X121342857Y-58553571D01*
X121009523Y-58553571D01*
X122009523Y-58553571D02*
X122342857Y-58553571D01*
X122485714Y-59077380D02*
X122009523Y-59077380D01*
X122009523Y-58077380D01*
X122485714Y-58077380D01*
X122866666Y-58791666D02*
X123342857Y-58791666D01*
X122771428Y-59077380D02*
X123104761Y-58077380D01*
X123438095Y-59077380D01*
X123771428Y-59077380D02*
X123771428Y-58077380D01*
X124104761Y-58791666D01*
X124438095Y-58077380D01*
X124438095Y-59077380D01*
X124866666Y-59029761D02*
X125009523Y-59077380D01*
X125247619Y-59077380D01*
X125342857Y-59029761D01*
X125390476Y-58982142D01*
X125438095Y-58886904D01*
X125438095Y-58791666D01*
X125390476Y-58696428D01*
X125342857Y-58648809D01*
X125247619Y-58601190D01*
X125057142Y-58553571D01*
X124961904Y-58505952D01*
X124914285Y-58458333D01*
X124866666Y-58363095D01*
X124866666Y-58267857D01*
X124914285Y-58172619D01*
X124961904Y-58125000D01*
X125057142Y-58077380D01*
X125295238Y-58077380D01*
X125438095Y-58125000D01*
X128204761Y-140876190D02*
X128252380Y-140733333D01*
X128252380Y-140495238D01*
X128204761Y-140400000D01*
X128157142Y-140352380D01*
X128061904Y-140304761D01*
X127966666Y-140304761D01*
X127871428Y-140352380D01*
X127823809Y-140400000D01*
X127776190Y-140495238D01*
X127728571Y-140685714D01*
X127680952Y-140780952D01*
X127633333Y-140828571D01*
X127538095Y-140876190D01*
X127442857Y-140876190D01*
X127347619Y-140828571D01*
X127300000Y-140780952D01*
X127252380Y-140685714D01*
X127252380Y-140447619D01*
X127300000Y-140304761D01*
X127252380Y-140019047D02*
X127252380Y-139447619D01*
X128252380Y-139733333D02*
X127252380Y-139733333D01*
X127966666Y-139161904D02*
X127966666Y-138685714D01*
X128252380Y-139257142D02*
X127252380Y-138923809D01*
X128252380Y-138590476D01*
X127252380Y-138400000D02*
X127252380Y-137828571D01*
X128252380Y-138114285D02*
X127252380Y-138114285D01*
X124928571Y-140485714D02*
X124976190Y-140342857D01*
X125023809Y-140295238D01*
X125119047Y-140247619D01*
X125261904Y-140247619D01*
X125357142Y-140295238D01*
X125404761Y-140342857D01*
X125452380Y-140438095D01*
X125452380Y-140819047D01*
X124452380Y-140819047D01*
X124452380Y-140485714D01*
X124500000Y-140390476D01*
X124547619Y-140342857D01*
X124642857Y-140295238D01*
X124738095Y-140295238D01*
X124833333Y-140342857D01*
X124880952Y-140390476D01*
X124928571Y-140485714D01*
X124928571Y-140819047D01*
X124452380Y-139961904D02*
X124452380Y-139390476D01*
X125452380Y-139676190D02*
X124452380Y-139676190D01*
X125452380Y-138485714D02*
X124976190Y-138819047D01*
X125452380Y-139057142D02*
X124452380Y-139057142D01*
X124452380Y-138676190D01*
X124500000Y-138580952D01*
X124547619Y-138533333D01*
X124642857Y-138485714D01*
X124785714Y-138485714D01*
X124880952Y-138533333D01*
X124928571Y-138580952D01*
X124976190Y-138676190D01*
X124976190Y-139057142D01*
X124452380Y-138152380D02*
X125452380Y-137485714D01*
X124452380Y-137485714D02*
X125452380Y-138152380D01*
X122328571Y-140566666D02*
X122376190Y-140423809D01*
X122423809Y-140376190D01*
X122519047Y-140328571D01*
X122661904Y-140328571D01*
X122757142Y-140376190D01*
X122804761Y-140423809D01*
X122852380Y-140519047D01*
X122852380Y-140900000D01*
X121852380Y-140900000D01*
X121852380Y-140566666D01*
X121900000Y-140471428D01*
X121947619Y-140423809D01*
X122042857Y-140376190D01*
X122138095Y-140376190D01*
X122233333Y-140423809D01*
X122280952Y-140471428D01*
X122328571Y-140566666D01*
X122328571Y-140900000D01*
X121852380Y-140042857D02*
X121852380Y-139471428D01*
X122852380Y-139757142D02*
X121852380Y-139757142D01*
X121852380Y-139280952D02*
X121852380Y-138709523D01*
X122852380Y-138995238D02*
X121852380Y-138995238D01*
X121852380Y-138471428D02*
X122852380Y-137804761D01*
X121852380Y-137804761D02*
X122852380Y-138471428D01*
X119300000Y-140361904D02*
X119252380Y-140457142D01*
X119252380Y-140600000D01*
X119300000Y-140742857D01*
X119395238Y-140838095D01*
X119490476Y-140885714D01*
X119680952Y-140933333D01*
X119823809Y-140933333D01*
X120014285Y-140885714D01*
X120109523Y-140838095D01*
X120204761Y-140742857D01*
X120252380Y-140600000D01*
X120252380Y-140504761D01*
X120204761Y-140361904D01*
X120157142Y-140314285D01*
X119823809Y-140314285D01*
X119823809Y-140504761D01*
X120252380Y-139885714D02*
X119252380Y-139885714D01*
X120252380Y-139314285D01*
X119252380Y-139314285D01*
X120252380Y-138838095D02*
X119252380Y-138838095D01*
X119252380Y-138600000D01*
X119300000Y-138457142D01*
X119395238Y-138361904D01*
X119490476Y-138314285D01*
X119680952Y-138266666D01*
X119823809Y-138266666D01*
X120014285Y-138314285D01*
X120109523Y-138361904D01*
X120204761Y-138457142D01*
X120252380Y-138600000D01*
X120252380Y-138838095D01*
X116852380Y-140933333D02*
X117852380Y-140600000D01*
X116852380Y-140266666D01*
X117757142Y-139361904D02*
X117804761Y-139409523D01*
X117852380Y-139552380D01*
X117852380Y-139647619D01*
X117804761Y-139790476D01*
X117709523Y-139885714D01*
X117614285Y-139933333D01*
X117423809Y-139980952D01*
X117280952Y-139980952D01*
X117090476Y-139933333D01*
X116995238Y-139885714D01*
X116900000Y-139790476D01*
X116852380Y-139647619D01*
X116852380Y-139552380D01*
X116900000Y-139409523D01*
X116947619Y-139361904D01*
X117757142Y-138361904D02*
X117804761Y-138409523D01*
X117852380Y-138552380D01*
X117852380Y-138647619D01*
X117804761Y-138790476D01*
X117709523Y-138885714D01*
X117614285Y-138933333D01*
X117423809Y-138980952D01*
X117280952Y-138980952D01*
X117090476Y-138933333D01*
X116995238Y-138885714D01*
X116900000Y-138790476D01*
X116852380Y-138647619D01*
X116852380Y-138552380D01*
X116900000Y-138409523D01*
X116947619Y-138361904D01*
X114728571Y-140738095D02*
X114728571Y-140404761D01*
X115252380Y-140261904D02*
X115252380Y-140738095D01*
X114252380Y-140738095D01*
X114252380Y-140261904D01*
X115252380Y-139833333D02*
X114252380Y-139833333D01*
X115252380Y-139261904D01*
X114252380Y-139261904D01*
X139652380Y-84895238D02*
X140652380Y-84561904D01*
X139652380Y-84228571D01*
X140652380Y-83895238D02*
X139652380Y-83895238D01*
X140652380Y-83419047D02*
X139652380Y-83419047D01*
X140652380Y-82847619D01*
X139652380Y-82847619D01*
X135604761Y-84885714D02*
X135652380Y-84742857D01*
X135652380Y-84504761D01*
X135604761Y-84409523D01*
X135557142Y-84361904D01*
X135461904Y-84314285D01*
X135366666Y-84314285D01*
X135271428Y-84361904D01*
X135223809Y-84409523D01*
X135176190Y-84504761D01*
X135128571Y-84695238D01*
X135080952Y-84790476D01*
X135033333Y-84838095D01*
X134938095Y-84885714D01*
X134842857Y-84885714D01*
X134747619Y-84838095D01*
X134700000Y-84790476D01*
X134652380Y-84695238D01*
X134652380Y-84457142D01*
X134700000Y-84314285D01*
X135557142Y-83314285D02*
X135604761Y-83361904D01*
X135652380Y-83504761D01*
X135652380Y-83600000D01*
X135604761Y-83742857D01*
X135509523Y-83838095D01*
X135414285Y-83885714D01*
X135223809Y-83933333D01*
X135080952Y-83933333D01*
X134890476Y-83885714D01*
X134795238Y-83838095D01*
X134700000Y-83742857D01*
X134652380Y-83600000D01*
X134652380Y-83504761D01*
X134700000Y-83361904D01*
X134747619Y-83314285D01*
X135652380Y-82885714D02*
X134652380Y-82885714D01*
X135652380Y-82314285D02*
X135080952Y-82742857D01*
X134652380Y-82314285D02*
X135223809Y-82885714D01*
X133052380Y-84971428D02*
X132052380Y-84971428D01*
X132766666Y-84638095D01*
X132052380Y-84304761D01*
X133052380Y-84304761D01*
X133052380Y-83828571D02*
X132052380Y-83828571D01*
X133004761Y-83400000D02*
X133052380Y-83257142D01*
X133052380Y-83019047D01*
X133004761Y-82923809D01*
X132957142Y-82876190D01*
X132861904Y-82828571D01*
X132766666Y-82828571D01*
X132671428Y-82876190D01*
X132623809Y-82923809D01*
X132576190Y-83019047D01*
X132528571Y-83209523D01*
X132480952Y-83304761D01*
X132433333Y-83352380D01*
X132338095Y-83400000D01*
X132242857Y-83400000D01*
X132147619Y-83352380D01*
X132100000Y-83304761D01*
X132052380Y-83209523D01*
X132052380Y-82971428D01*
X132100000Y-82828571D01*
X132052380Y-82209523D02*
X132052380Y-82019047D01*
X132100000Y-81923809D01*
X132195238Y-81828571D01*
X132385714Y-81780952D01*
X132719047Y-81780952D01*
X132909523Y-81828571D01*
X133004761Y-81923809D01*
X133052380Y-82019047D01*
X133052380Y-82209523D01*
X133004761Y-82304761D01*
X132909523Y-82400000D01*
X132719047Y-82447619D01*
X132385714Y-82447619D01*
X132195238Y-82400000D01*
X132100000Y-82304761D01*
X132052380Y-82209523D01*
X130452380Y-84971428D02*
X129452380Y-84971428D01*
X130166666Y-84638095D01*
X129452380Y-84304761D01*
X130452380Y-84304761D01*
X129452380Y-83638095D02*
X129452380Y-83447619D01*
X129500000Y-83352380D01*
X129595238Y-83257142D01*
X129785714Y-83209523D01*
X130119047Y-83209523D01*
X130309523Y-83257142D01*
X130404761Y-83352380D01*
X130452380Y-83447619D01*
X130452380Y-83638095D01*
X130404761Y-83733333D01*
X130309523Y-83828571D01*
X130119047Y-83876190D01*
X129785714Y-83876190D01*
X129595238Y-83828571D01*
X129500000Y-83733333D01*
X129452380Y-83638095D01*
X130404761Y-82828571D02*
X130452380Y-82685714D01*
X130452380Y-82447619D01*
X130404761Y-82352380D01*
X130357142Y-82304761D01*
X130261904Y-82257142D01*
X130166666Y-82257142D01*
X130071428Y-82304761D01*
X130023809Y-82352380D01*
X129976190Y-82447619D01*
X129928571Y-82638095D01*
X129880952Y-82733333D01*
X129833333Y-82780952D01*
X129738095Y-82828571D01*
X129642857Y-82828571D01*
X129547619Y-82780952D01*
X129500000Y-82733333D01*
X129452380Y-82638095D01*
X129452380Y-82400000D01*
X129500000Y-82257142D01*
X130452380Y-81828571D02*
X129452380Y-81828571D01*
X127052380Y-84961904D02*
X127052380Y-84390476D01*
X128052380Y-84676190D02*
X127052380Y-84676190D01*
X127052380Y-84152380D02*
X128052380Y-83485714D01*
X127052380Y-83485714D02*
X128052380Y-84152380D01*
X125252380Y-84366666D02*
X124776190Y-84700000D01*
X125252380Y-84938095D02*
X124252380Y-84938095D01*
X124252380Y-84557142D01*
X124300000Y-84461904D01*
X124347619Y-84414285D01*
X124442857Y-84366666D01*
X124585714Y-84366666D01*
X124680952Y-84414285D01*
X124728571Y-84461904D01*
X124776190Y-84557142D01*
X124776190Y-84938095D01*
X124252380Y-84033333D02*
X125252380Y-83366666D01*
X124252380Y-83366666D02*
X125252380Y-84033333D01*
X121852380Y-85333333D02*
X122852380Y-85000000D01*
X121852380Y-84666666D01*
X122757142Y-83761904D02*
X122804761Y-83809523D01*
X122852380Y-83952380D01*
X122852380Y-84047619D01*
X122804761Y-84190476D01*
X122709523Y-84285714D01*
X122614285Y-84333333D01*
X122423809Y-84380952D01*
X122280952Y-84380952D01*
X122090476Y-84333333D01*
X121995238Y-84285714D01*
X121900000Y-84190476D01*
X121852380Y-84047619D01*
X121852380Y-83952380D01*
X121900000Y-83809523D01*
X121947619Y-83761904D01*
X122757142Y-82761904D02*
X122804761Y-82809523D01*
X122852380Y-82952380D01*
X122852380Y-83047619D01*
X122804761Y-83190476D01*
X122709523Y-83285714D01*
X122614285Y-83333333D01*
X122423809Y-83380952D01*
X122280952Y-83380952D01*
X122090476Y-83333333D01*
X121995238Y-83285714D01*
X121900000Y-83190476D01*
X121852380Y-83047619D01*
X121852380Y-82952380D01*
X121900000Y-82809523D01*
X121947619Y-82761904D01*
X121900000Y-92961904D02*
X121852380Y-93057142D01*
X121852380Y-93200000D01*
X121900000Y-93342857D01*
X121995238Y-93438095D01*
X122090476Y-93485714D01*
X122280952Y-93533333D01*
X122423809Y-93533333D01*
X122614285Y-93485714D01*
X122709523Y-93438095D01*
X122804761Y-93342857D01*
X122852380Y-93200000D01*
X122852380Y-93104761D01*
X122804761Y-92961904D01*
X122757142Y-92914285D01*
X122423809Y-92914285D01*
X122423809Y-93104761D01*
X122852380Y-92485714D02*
X121852380Y-92485714D01*
X122852380Y-91914285D01*
X121852380Y-91914285D01*
X122852380Y-91438095D02*
X121852380Y-91438095D01*
X121852380Y-91200000D01*
X121900000Y-91057142D01*
X121995238Y-90961904D01*
X122090476Y-90914285D01*
X122280952Y-90866666D01*
X122423809Y-90866666D01*
X122614285Y-90914285D01*
X122709523Y-90961904D01*
X122804761Y-91057142D01*
X122852380Y-91200000D01*
X122852380Y-91438095D01*
X125252380Y-92338095D02*
X124252380Y-92338095D01*
X124252380Y-92100000D01*
X124300000Y-91957142D01*
X124395238Y-91861904D01*
X124490476Y-91814285D01*
X124680952Y-91766666D01*
X124823809Y-91766666D01*
X125014285Y-91814285D01*
X125109523Y-91861904D01*
X125204761Y-91957142D01*
X125252380Y-92100000D01*
X125252380Y-92338095D01*
X124252380Y-90909523D02*
X124252380Y-91100000D01*
X124300000Y-91195238D01*
X124347619Y-91242857D01*
X124490476Y-91338095D01*
X124680952Y-91385714D01*
X125061904Y-91385714D01*
X125157142Y-91338095D01*
X125204761Y-91290476D01*
X125252380Y-91195238D01*
X125252380Y-91004761D01*
X125204761Y-90909523D01*
X125157142Y-90861904D01*
X125061904Y-90814285D01*
X124823809Y-90814285D01*
X124728571Y-90861904D01*
X124680952Y-90909523D01*
X124633333Y-91004761D01*
X124633333Y-91195238D01*
X124680952Y-91290476D01*
X124728571Y-91338095D01*
X124823809Y-91385714D01*
X127766666Y-92314285D02*
X127766666Y-91838095D01*
X128052380Y-92409523D02*
X127052380Y-92076190D01*
X128052380Y-91742857D01*
X127052380Y-91504761D02*
X127052380Y-90838095D01*
X128052380Y-91266666D01*
X140366666Y-92514285D02*
X140366666Y-92038095D01*
X140652380Y-92609523D02*
X139652380Y-92276190D01*
X140652380Y-91942857D01*
X139652380Y-91419047D02*
X139652380Y-91323809D01*
X139700000Y-91228571D01*
X139747619Y-91180952D01*
X139842857Y-91133333D01*
X140033333Y-91085714D01*
X140271428Y-91085714D01*
X140461904Y-91133333D01*
X140557142Y-91180952D01*
X140604761Y-91228571D01*
X140652380Y-91323809D01*
X140652380Y-91419047D01*
X140604761Y-91514285D01*
X140557142Y-91561904D01*
X140461904Y-91609523D01*
X140271428Y-91657142D01*
X140033333Y-91657142D01*
X139842857Y-91609523D01*
X139747619Y-91561904D01*
X139700000Y-91514285D01*
X139652380Y-91419047D01*
X137766666Y-92514285D02*
X137766666Y-92038095D01*
X138052380Y-92609523D02*
X137052380Y-92276190D01*
X138052380Y-91942857D01*
X137147619Y-91657142D02*
X137100000Y-91609523D01*
X137052380Y-91514285D01*
X137052380Y-91276190D01*
X137100000Y-91180952D01*
X137147619Y-91133333D01*
X137242857Y-91085714D01*
X137338095Y-91085714D01*
X137480952Y-91133333D01*
X138052380Y-91704761D01*
X138052380Y-91085714D01*
X135166666Y-92514285D02*
X135166666Y-92038095D01*
X135452380Y-92609523D02*
X134452380Y-92276190D01*
X135452380Y-91942857D01*
X134452380Y-91704761D02*
X134452380Y-91085714D01*
X134833333Y-91419047D01*
X134833333Y-91276190D01*
X134880952Y-91180952D01*
X134928571Y-91133333D01*
X135023809Y-91085714D01*
X135261904Y-91085714D01*
X135357142Y-91133333D01*
X135404761Y-91180952D01*
X135452380Y-91276190D01*
X135452380Y-91561904D01*
X135404761Y-91657142D01*
X135357142Y-91704761D01*
X132804761Y-93414285D02*
X132852380Y-93271428D01*
X132852380Y-93033333D01*
X132804761Y-92938095D01*
X132757142Y-92890476D01*
X132661904Y-92842857D01*
X132566666Y-92842857D01*
X132471428Y-92890476D01*
X132423809Y-92938095D01*
X132376190Y-93033333D01*
X132328571Y-93223809D01*
X132280952Y-93319047D01*
X132233333Y-93366666D01*
X132138095Y-93414285D01*
X132042857Y-93414285D01*
X131947619Y-93366666D01*
X131900000Y-93319047D01*
X131852380Y-93223809D01*
X131852380Y-92985714D01*
X131900000Y-92842857D01*
X132852380Y-92414285D02*
X131852380Y-92414285D01*
X131852380Y-92176190D01*
X131900000Y-92033333D01*
X131995238Y-91938095D01*
X132090476Y-91890476D01*
X132280952Y-91842857D01*
X132423809Y-91842857D01*
X132614285Y-91890476D01*
X132709523Y-91938095D01*
X132804761Y-92033333D01*
X132852380Y-92176190D01*
X132852380Y-92414285D01*
X132566666Y-91461904D02*
X132566666Y-90985714D01*
X132852380Y-91557142D02*
X131852380Y-91223809D01*
X132852380Y-90890476D01*
X130404761Y-93190476D02*
X130452380Y-93047619D01*
X130452380Y-92809523D01*
X130404761Y-92714285D01*
X130357142Y-92666666D01*
X130261904Y-92619047D01*
X130166666Y-92619047D01*
X130071428Y-92666666D01*
X130023809Y-92714285D01*
X129976190Y-92809523D01*
X129928571Y-93000000D01*
X129880952Y-93095238D01*
X129833333Y-93142857D01*
X129738095Y-93190476D01*
X129642857Y-93190476D01*
X129547619Y-93142857D01*
X129500000Y-93095238D01*
X129452380Y-93000000D01*
X129452380Y-92761904D01*
X129500000Y-92619047D01*
X130357142Y-91619047D02*
X130404761Y-91666666D01*
X130452380Y-91809523D01*
X130452380Y-91904761D01*
X130404761Y-92047619D01*
X130309523Y-92142857D01*
X130214285Y-92190476D01*
X130023809Y-92238095D01*
X129880952Y-92238095D01*
X129690476Y-92190476D01*
X129595238Y-92142857D01*
X129500000Y-92047619D01*
X129452380Y-91904761D01*
X129452380Y-91809523D01*
X129500000Y-91666666D01*
X129547619Y-91619047D01*
X130452380Y-90714285D02*
X130452380Y-91190476D01*
X129452380Y-91190476D01*
X94452380Y-81695238D02*
X95452380Y-81361904D01*
X94452380Y-81028571D01*
X95452380Y-80695238D02*
X94452380Y-80695238D01*
X95452380Y-80219047D02*
X94452380Y-80219047D01*
X95452380Y-79647619D01*
X94452380Y-79647619D01*
X90300000Y-81161904D02*
X90252380Y-81257142D01*
X90252380Y-81400000D01*
X90300000Y-81542857D01*
X90395238Y-81638095D01*
X90490476Y-81685714D01*
X90680952Y-81733333D01*
X90823809Y-81733333D01*
X91014285Y-81685714D01*
X91109523Y-81638095D01*
X91204761Y-81542857D01*
X91252380Y-81400000D01*
X91252380Y-81304761D01*
X91204761Y-81161904D01*
X91157142Y-81114285D01*
X90823809Y-81114285D01*
X90823809Y-81304761D01*
X91252380Y-80685714D02*
X90252380Y-80685714D01*
X91252380Y-80114285D01*
X90252380Y-80114285D01*
X91252380Y-79638095D02*
X90252380Y-79638095D01*
X90252380Y-79400000D01*
X90300000Y-79257142D01*
X90395238Y-79161904D01*
X90490476Y-79114285D01*
X90680952Y-79066666D01*
X90823809Y-79066666D01*
X91014285Y-79114285D01*
X91109523Y-79161904D01*
X91204761Y-79257142D01*
X91252380Y-79400000D01*
X91252380Y-79638095D01*
X137100000Y-84361904D02*
X137052380Y-84457142D01*
X137052380Y-84600000D01*
X137100000Y-84742857D01*
X137195238Y-84838095D01*
X137290476Y-84885714D01*
X137480952Y-84933333D01*
X137623809Y-84933333D01*
X137814285Y-84885714D01*
X137909523Y-84838095D01*
X138004761Y-84742857D01*
X138052380Y-84600000D01*
X138052380Y-84504761D01*
X138004761Y-84361904D01*
X137957142Y-84314285D01*
X137623809Y-84314285D01*
X137623809Y-84504761D01*
X138052380Y-83885714D02*
X137052380Y-83885714D01*
X138052380Y-83314285D01*
X137052380Y-83314285D01*
X138052380Y-82838095D02*
X137052380Y-82838095D01*
X137052380Y-82600000D01*
X137100000Y-82457142D01*
X137195238Y-82361904D01*
X137290476Y-82314285D01*
X137480952Y-82266666D01*
X137623809Y-82266666D01*
X137814285Y-82314285D01*
X137909523Y-82361904D01*
X138004761Y-82457142D01*
X138052380Y-82600000D01*
X138052380Y-82838095D01*
X127757142Y-106028571D02*
X127804761Y-106076190D01*
X127852380Y-106219047D01*
X127852380Y-106314285D01*
X127804761Y-106457142D01*
X127709523Y-106552380D01*
X127614285Y-106600000D01*
X127423809Y-106647619D01*
X127280952Y-106647619D01*
X127090476Y-106600000D01*
X126995238Y-106552380D01*
X126900000Y-106457142D01*
X126852380Y-106314285D01*
X126852380Y-106219047D01*
X126900000Y-106076190D01*
X126947619Y-106028571D01*
X127566666Y-105647619D02*
X127566666Y-105171428D01*
X127852380Y-105742857D02*
X126852380Y-105409523D01*
X127852380Y-105076190D01*
X127852380Y-104742857D02*
X126852380Y-104742857D01*
X127852380Y-104171428D01*
X126852380Y-104171428D01*
X127947619Y-103933333D02*
X127947619Y-103171428D01*
X127852380Y-102457142D02*
X127852380Y-102933333D01*
X126852380Y-102933333D01*
X125157142Y-106147619D02*
X125204761Y-106195238D01*
X125252380Y-106338095D01*
X125252380Y-106433333D01*
X125204761Y-106576190D01*
X125109523Y-106671428D01*
X125014285Y-106719047D01*
X124823809Y-106766666D01*
X124680952Y-106766666D01*
X124490476Y-106719047D01*
X124395238Y-106671428D01*
X124300000Y-106576190D01*
X124252380Y-106433333D01*
X124252380Y-106338095D01*
X124300000Y-106195238D01*
X124347619Y-106147619D01*
X124966666Y-105766666D02*
X124966666Y-105290476D01*
X125252380Y-105861904D02*
X124252380Y-105528571D01*
X125252380Y-105195238D01*
X125252380Y-104861904D02*
X124252380Y-104861904D01*
X125252380Y-104290476D01*
X124252380Y-104290476D01*
X125347619Y-104052380D02*
X125347619Y-103290476D01*
X125252380Y-103052380D02*
X124252380Y-103052380D01*
X124728571Y-103052380D02*
X124728571Y-102480952D01*
X125252380Y-102480952D02*
X124252380Y-102480952D01*
X95090476Y-133452380D02*
X95090476Y-132452380D01*
X95661904Y-133452380D02*
X95233333Y-132880952D01*
X95661904Y-132452380D02*
X95090476Y-133023809D01*
X96090476Y-133452380D02*
X96090476Y-132452380D01*
X97042857Y-133452380D02*
X96566666Y-133452380D01*
X96566666Y-132452380D01*
X97852380Y-133452380D02*
X97376190Y-133452380D01*
X97376190Y-132452380D01*
X95142857Y-136052380D02*
X95142857Y-135052380D01*
X95142857Y-135528571D02*
X95714285Y-135528571D01*
X95714285Y-136052380D02*
X95714285Y-135052380D01*
X96666666Y-136052380D02*
X96190476Y-136052380D01*
X96190476Y-135052380D01*
X97761904Y-136052380D02*
X97761904Y-135052380D01*
X97761904Y-135528571D02*
X98333333Y-135528571D01*
X98333333Y-136052380D02*
X98333333Y-135052380D01*
X98809523Y-136052380D02*
X98809523Y-135052380D01*
X99809523Y-135100000D02*
X99714285Y-135052380D01*
X99571428Y-135052380D01*
X99428571Y-135100000D01*
X99333333Y-135195238D01*
X99285714Y-135290476D01*
X99238095Y-135480952D01*
X99238095Y-135623809D01*
X99285714Y-135814285D01*
X99333333Y-135909523D01*
X99428571Y-136004761D01*
X99571428Y-136052380D01*
X99666666Y-136052380D01*
X99809523Y-136004761D01*
X99857142Y-135957142D01*
X99857142Y-135623809D01*
X99666666Y-135623809D01*
X100285714Y-136052380D02*
X100285714Y-135052380D01*
X100285714Y-135528571D02*
X100857142Y-135528571D01*
X100857142Y-136052380D02*
X100857142Y-135052380D01*
X130066666Y-58204761D02*
X130209523Y-58252380D01*
X130447619Y-58252380D01*
X130542857Y-58204761D01*
X130590476Y-58157142D01*
X130638095Y-58061904D01*
X130638095Y-57966666D01*
X130590476Y-57871428D01*
X130542857Y-57823809D01*
X130447619Y-57776190D01*
X130257142Y-57728571D01*
X130161904Y-57680952D01*
X130114285Y-57633333D01*
X130066666Y-57538095D01*
X130066666Y-57442857D01*
X130114285Y-57347619D01*
X130161904Y-57300000D01*
X130257142Y-57252380D01*
X130495238Y-57252380D01*
X130638095Y-57300000D01*
X130923809Y-57252380D02*
X131495238Y-57252380D01*
X131209523Y-58252380D02*
X131209523Y-57252380D01*
X131780952Y-57966666D02*
X132257142Y-57966666D01*
X131685714Y-58252380D02*
X132019047Y-57252380D01*
X132352380Y-58252380D01*
X133257142Y-58252380D02*
X132923809Y-57776190D01*
X132685714Y-58252380D02*
X132685714Y-57252380D01*
X133066666Y-57252380D01*
X133161904Y-57300000D01*
X133209523Y-57347619D01*
X133257142Y-57442857D01*
X133257142Y-57585714D01*
X133209523Y-57680952D01*
X133161904Y-57728571D01*
X133066666Y-57776190D01*
X132685714Y-57776190D01*
X133542857Y-57252380D02*
X134114285Y-57252380D01*
X133828571Y-58252380D02*
X133828571Y-57252380D01*
X134209523Y-58347619D02*
X134971428Y-58347619D01*
X135209523Y-57728571D02*
X135542857Y-57728571D01*
X135685714Y-58252380D02*
X135209523Y-58252380D01*
X135209523Y-57252380D01*
X135685714Y-57252380D01*
X136114285Y-58252380D02*
X136114285Y-57252380D01*
X136685714Y-58252380D01*
X136685714Y-57252380D01*
X141990476Y-57728571D02*
X142133333Y-57776190D01*
X142180952Y-57823809D01*
X142228571Y-57919047D01*
X142228571Y-58061904D01*
X142180952Y-58157142D01*
X142133333Y-58204761D01*
X142038095Y-58252380D01*
X141657142Y-58252380D01*
X141657142Y-57252380D01*
X141990476Y-57252380D01*
X142085714Y-57300000D01*
X142133333Y-57347619D01*
X142180952Y-57442857D01*
X142180952Y-57538095D01*
X142133333Y-57633333D01*
X142085714Y-57680952D01*
X141990476Y-57728571D01*
X141657142Y-57728571D01*
X143228571Y-58252380D02*
X142895238Y-57776190D01*
X142657142Y-58252380D02*
X142657142Y-57252380D01*
X143038095Y-57252380D01*
X143133333Y-57300000D01*
X143180952Y-57347619D01*
X143228571Y-57442857D01*
X143228571Y-57585714D01*
X143180952Y-57680952D01*
X143133333Y-57728571D01*
X143038095Y-57776190D01*
X142657142Y-57776190D01*
X143609523Y-57966666D02*
X144085714Y-57966666D01*
X143514285Y-58252380D02*
X143847619Y-57252380D01*
X144180952Y-58252380D01*
X144514285Y-58252380D02*
X144514285Y-57252380D01*
X145085714Y-58252380D02*
X144657142Y-57680952D01*
X145085714Y-57252380D02*
X144514285Y-57823809D01*
X145514285Y-57728571D02*
X145847619Y-57728571D01*
X145990476Y-58252380D02*
X145514285Y-58252380D01*
X145514285Y-57252380D01*
X145990476Y-57252380D01*
X152728571Y-58252380D02*
X152395238Y-57776190D01*
X152157142Y-58252380D02*
X152157142Y-57252380D01*
X152538095Y-57252380D01*
X152633333Y-57300000D01*
X152680952Y-57347619D01*
X152728571Y-57442857D01*
X152728571Y-57585714D01*
X152680952Y-57680952D01*
X152633333Y-57728571D01*
X152538095Y-57776190D01*
X152157142Y-57776190D01*
X153157142Y-57728571D02*
X153490476Y-57728571D01*
X153633333Y-58252380D02*
X153157142Y-58252380D01*
X153157142Y-57252380D01*
X153633333Y-57252380D01*
X154014285Y-57966666D02*
X154490476Y-57966666D01*
X153919047Y-58252380D02*
X154252380Y-57252380D01*
X154585714Y-58252380D01*
X155490476Y-58252380D02*
X155157142Y-57776190D01*
X154919047Y-58252380D02*
X154919047Y-57252380D01*
X155300000Y-57252380D01*
X155395238Y-57300000D01*
X155442857Y-57347619D01*
X155490476Y-57442857D01*
X155490476Y-57585714D01*
X155442857Y-57680952D01*
X155395238Y-57728571D01*
X155300000Y-57776190D01*
X154919047Y-57776190D01*
X162466666Y-58252380D02*
X162133333Y-57776190D01*
X161895238Y-58252380D02*
X161895238Y-57252380D01*
X162276190Y-57252380D01*
X162371428Y-57300000D01*
X162419047Y-57347619D01*
X162466666Y-57442857D01*
X162466666Y-57585714D01*
X162419047Y-57680952D01*
X162371428Y-57728571D01*
X162276190Y-57776190D01*
X161895238Y-57776190D01*
X162895238Y-58252380D02*
X162895238Y-57252380D01*
X163895238Y-57300000D02*
X163800000Y-57252380D01*
X163657142Y-57252380D01*
X163514285Y-57300000D01*
X163419047Y-57395238D01*
X163371428Y-57490476D01*
X163323809Y-57680952D01*
X163323809Y-57823809D01*
X163371428Y-58014285D01*
X163419047Y-58109523D01*
X163514285Y-58204761D01*
X163657142Y-58252380D01*
X163752380Y-58252380D01*
X163895238Y-58204761D01*
X163942857Y-58157142D01*
X163942857Y-57823809D01*
X163752380Y-57823809D01*
X164371428Y-58252380D02*
X164371428Y-57252380D01*
X164371428Y-57728571D02*
X164942857Y-57728571D01*
X164942857Y-58252380D02*
X164942857Y-57252380D01*
X165276190Y-57252380D02*
X165847619Y-57252380D01*
X165561904Y-58252380D02*
X165561904Y-57252380D01*
X172847619Y-58252380D02*
X172371428Y-58252380D01*
X172371428Y-57252380D01*
X173180952Y-57728571D02*
X173514285Y-57728571D01*
X173657142Y-58252380D02*
X173180952Y-58252380D01*
X173180952Y-57252380D01*
X173657142Y-57252380D01*
X174419047Y-57728571D02*
X174085714Y-57728571D01*
X174085714Y-58252380D02*
X174085714Y-57252380D01*
X174561904Y-57252380D01*
X174800000Y-57252380D02*
X175371428Y-57252380D01*
X175085714Y-58252380D02*
X175085714Y-57252380D01*
X92166666Y-58252380D02*
X92166666Y-57252380D01*
X92166666Y-57728571D02*
X92738095Y-57728571D01*
X92738095Y-58252380D02*
X92738095Y-57252380D01*
X93404761Y-57252380D02*
X93595238Y-57252380D01*
X93690476Y-57300000D01*
X93785714Y-57395238D01*
X93833333Y-57585714D01*
X93833333Y-57919047D01*
X93785714Y-58109523D01*
X93690476Y-58204761D01*
X93595238Y-58252380D01*
X93404761Y-58252380D01*
X93309523Y-58204761D01*
X93214285Y-58109523D01*
X93166666Y-57919047D01*
X93166666Y-57585714D01*
X93214285Y-57395238D01*
X93309523Y-57300000D01*
X93404761Y-57252380D01*
X94833333Y-58252380D02*
X94500000Y-57776190D01*
X94261904Y-58252380D02*
X94261904Y-57252380D01*
X94642857Y-57252380D01*
X94738095Y-57300000D01*
X94785714Y-57347619D01*
X94833333Y-57442857D01*
X94833333Y-57585714D01*
X94785714Y-57680952D01*
X94738095Y-57728571D01*
X94642857Y-57776190D01*
X94261904Y-57776190D01*
X95261904Y-58252380D02*
X95261904Y-57252380D01*
X95833333Y-58252380D01*
X95833333Y-57252380D01*
X95166666Y-138652380D02*
X95166666Y-137652380D01*
X95166666Y-138128571D02*
X95738095Y-138128571D01*
X95738095Y-138652380D02*
X95738095Y-137652380D01*
X96404761Y-137652380D02*
X96595238Y-137652380D01*
X96690476Y-137700000D01*
X96785714Y-137795238D01*
X96833333Y-137985714D01*
X96833333Y-138319047D01*
X96785714Y-138509523D01*
X96690476Y-138604761D01*
X96595238Y-138652380D01*
X96404761Y-138652380D01*
X96309523Y-138604761D01*
X96214285Y-138509523D01*
X96166666Y-138319047D01*
X96166666Y-137985714D01*
X96214285Y-137795238D01*
X96309523Y-137700000D01*
X96404761Y-137652380D01*
X97833333Y-138652380D02*
X97500000Y-138176190D01*
X97261904Y-138652380D02*
X97261904Y-137652380D01*
X97642857Y-137652380D01*
X97738095Y-137700000D01*
X97785714Y-137747619D01*
X97833333Y-137842857D01*
X97833333Y-137985714D01*
X97785714Y-138080952D01*
X97738095Y-138128571D01*
X97642857Y-138176190D01*
X97261904Y-138176190D01*
X98261904Y-138652380D02*
X98261904Y-137652380D01*
X98833333Y-138652380D01*
X98833333Y-137652380D01*
X95680952Y-131052380D02*
X95347619Y-130576190D01*
X95109523Y-131052380D02*
X95109523Y-130052380D01*
X95490476Y-130052380D01*
X95585714Y-130100000D01*
X95633333Y-130147619D01*
X95680952Y-130242857D01*
X95680952Y-130385714D01*
X95633333Y-130480952D01*
X95585714Y-130528571D01*
X95490476Y-130576190D01*
X95109523Y-130576190D01*
X96109523Y-131052380D02*
X96109523Y-130385714D01*
X96109523Y-130052380D02*
X96061904Y-130100000D01*
X96109523Y-130147619D01*
X96157142Y-130100000D01*
X96109523Y-130052380D01*
X96109523Y-130147619D01*
X97014285Y-130385714D02*
X97014285Y-131195238D01*
X96966666Y-131290476D01*
X96919047Y-131338095D01*
X96823809Y-131385714D01*
X96680952Y-131385714D01*
X96585714Y-131338095D01*
X97014285Y-131004761D02*
X96919047Y-131052380D01*
X96728571Y-131052380D01*
X96633333Y-131004761D01*
X96585714Y-130957142D01*
X96538095Y-130861904D01*
X96538095Y-130576190D01*
X96585714Y-130480952D01*
X96633333Y-130433333D01*
X96728571Y-130385714D01*
X96919047Y-130385714D01*
X97014285Y-130433333D01*
X97490476Y-131052380D02*
X97490476Y-130052380D01*
X97919047Y-131052380D02*
X97919047Y-130528571D01*
X97871428Y-130433333D01*
X97776190Y-130385714D01*
X97633333Y-130385714D01*
X97538095Y-130433333D01*
X97490476Y-130480952D01*
X98252380Y-130385714D02*
X98633333Y-130385714D01*
X98395238Y-130052380D02*
X98395238Y-130909523D01*
X98442857Y-131004761D01*
X98538095Y-131052380D01*
X98633333Y-131052380D01*
X95509523Y-128452380D02*
X95033333Y-128452380D01*
X95033333Y-127452380D01*
X96223809Y-128404761D02*
X96128571Y-128452380D01*
X95938095Y-128452380D01*
X95842857Y-128404761D01*
X95795238Y-128309523D01*
X95795238Y-127928571D01*
X95842857Y-127833333D01*
X95938095Y-127785714D01*
X96128571Y-127785714D01*
X96223809Y-127833333D01*
X96271428Y-127928571D01*
X96271428Y-128023809D01*
X95795238Y-128119047D01*
X96557142Y-127785714D02*
X96938095Y-127785714D01*
X96700000Y-128452380D02*
X96700000Y-127595238D01*
X96747619Y-127500000D01*
X96842857Y-127452380D01*
X96938095Y-127452380D01*
X97128571Y-127785714D02*
X97509523Y-127785714D01*
X97271428Y-127452380D02*
X97271428Y-128309523D01*
X97319047Y-128404761D01*
X97414285Y-128452380D01*
X97509523Y-128452380D01*
X92333333Y-122004761D02*
X92476190Y-122052380D01*
X92714285Y-122052380D01*
X92809523Y-122004761D01*
X92857142Y-121957142D01*
X92904761Y-121861904D01*
X92904761Y-121766666D01*
X92857142Y-121671428D01*
X92809523Y-121623809D01*
X92714285Y-121576190D01*
X92523809Y-121528571D01*
X92428571Y-121480952D01*
X92380952Y-121433333D01*
X92333333Y-121338095D01*
X92333333Y-121242857D01*
X92380952Y-121147619D01*
X92428571Y-121100000D01*
X92523809Y-121052380D01*
X92761904Y-121052380D01*
X92904761Y-121100000D01*
X93238095Y-121052380D02*
X93476190Y-122052380D01*
X93666666Y-121338095D01*
X93857142Y-122052380D01*
X94095238Y-121052380D01*
X95095238Y-121052380D02*
X95428571Y-122052380D01*
X95761904Y-121052380D01*
X92147619Y-120252380D02*
X92147619Y-119252380D01*
X92719047Y-120252380D01*
X92719047Y-119252380D01*
X93576190Y-120204761D02*
X93480952Y-120252380D01*
X93290476Y-120252380D01*
X93195238Y-120204761D01*
X93147619Y-120109523D01*
X93147619Y-119728571D01*
X93195238Y-119633333D01*
X93290476Y-119585714D01*
X93480952Y-119585714D01*
X93576190Y-119633333D01*
X93623809Y-119728571D01*
X93623809Y-119823809D01*
X93147619Y-119919047D01*
X94480952Y-119585714D02*
X94480952Y-120252380D01*
X94052380Y-119585714D02*
X94052380Y-120109523D01*
X94100000Y-120204761D01*
X94195238Y-120252380D01*
X94338095Y-120252380D01*
X94433333Y-120204761D01*
X94480952Y-120157142D01*
X94814285Y-119585714D02*
X95195238Y-119585714D01*
X94957142Y-119252380D02*
X94957142Y-120109523D01*
X95004761Y-120204761D01*
X95100000Y-120252380D01*
X95195238Y-120252380D01*
X92466666Y-118252380D02*
X92466666Y-117252380D01*
X93038095Y-118252380D02*
X92609523Y-117680952D01*
X93038095Y-117252380D02*
X92466666Y-117823809D01*
X93466666Y-118252380D02*
X93466666Y-117585714D01*
X93466666Y-117252380D02*
X93419047Y-117300000D01*
X93466666Y-117347619D01*
X93514285Y-117300000D01*
X93466666Y-117252380D01*
X93466666Y-117347619D01*
X94371428Y-118204761D02*
X94276190Y-118252380D01*
X94085714Y-118252380D01*
X93990476Y-118204761D01*
X93942857Y-118157142D01*
X93895238Y-118061904D01*
X93895238Y-117776190D01*
X93942857Y-117680952D01*
X93990476Y-117633333D01*
X94085714Y-117585714D01*
X94276190Y-117585714D01*
X94371428Y-117633333D01*
X94800000Y-118252380D02*
X94800000Y-117252380D01*
X94895238Y-117871428D02*
X95180952Y-118252380D01*
X95180952Y-117585714D02*
X94800000Y-117966666D01*
X93028571Y-115757142D02*
X92980952Y-115804761D01*
X92838095Y-115852380D01*
X92742857Y-115852380D01*
X92600000Y-115804761D01*
X92504761Y-115709523D01*
X92457142Y-115614285D01*
X92409523Y-115423809D01*
X92409523Y-115280952D01*
X92457142Y-115090476D01*
X92504761Y-114995238D01*
X92600000Y-114900000D01*
X92742857Y-114852380D01*
X92838095Y-114852380D01*
X92980952Y-114900000D01*
X93028571Y-114947619D01*
X93600000Y-115852380D02*
X93504761Y-115804761D01*
X93457142Y-115709523D01*
X93457142Y-114852380D01*
X94409523Y-115185714D02*
X94409523Y-115852380D01*
X93980952Y-115185714D02*
X93980952Y-115709523D01*
X94028571Y-115804761D01*
X94123809Y-115852380D01*
X94266666Y-115852380D01*
X94361904Y-115804761D01*
X94409523Y-115757142D01*
X94742857Y-115185714D02*
X95123809Y-115185714D01*
X94885714Y-114852380D02*
X94885714Y-115709523D01*
X94933333Y-115804761D01*
X95028571Y-115852380D01*
X95123809Y-115852380D01*
X95885714Y-115804761D02*
X95790476Y-115852380D01*
X95600000Y-115852380D01*
X95504761Y-115804761D01*
X95457142Y-115757142D01*
X95409523Y-115661904D01*
X95409523Y-115376190D01*
X95457142Y-115280952D01*
X95504761Y-115233333D01*
X95600000Y-115185714D01*
X95790476Y-115185714D01*
X95885714Y-115233333D01*
X96314285Y-115852380D02*
X96314285Y-114852380D01*
X96742857Y-115852380D02*
X96742857Y-115328571D01*
X96695238Y-115233333D01*
X96599999Y-115185714D01*
X96457142Y-115185714D01*
X96361904Y-115233333D01*
X96314285Y-115280952D01*
X95276190Y-125328571D02*
X95419047Y-125376190D01*
X95466666Y-125423809D01*
X95514285Y-125519047D01*
X95514285Y-125661904D01*
X95466666Y-125757142D01*
X95419047Y-125804761D01*
X95323809Y-125852380D01*
X94942857Y-125852380D01*
X94942857Y-124852380D01*
X95276190Y-124852380D01*
X95371428Y-124900000D01*
X95419047Y-124947619D01*
X95466666Y-125042857D01*
X95466666Y-125138095D01*
X95419047Y-125233333D01*
X95371428Y-125280952D01*
X95276190Y-125328571D01*
X94942857Y-125328571D01*
X95942857Y-125852380D02*
X95942857Y-125185714D01*
X95942857Y-125376190D02*
X95990476Y-125280952D01*
X96038095Y-125233333D01*
X96133333Y-125185714D01*
X96228571Y-125185714D01*
X96990476Y-125852380D02*
X96990476Y-125328571D01*
X96942857Y-125233333D01*
X96847619Y-125185714D01*
X96657142Y-125185714D01*
X96561904Y-125233333D01*
X96990476Y-125804761D02*
X96895238Y-125852380D01*
X96657142Y-125852380D01*
X96561904Y-125804761D01*
X96514285Y-125709523D01*
X96514285Y-125614285D01*
X96561904Y-125519047D01*
X96657142Y-125471428D01*
X96895238Y-125471428D01*
X96990476Y-125423809D01*
X97466666Y-125852380D02*
X97466666Y-124852380D01*
X97561904Y-125471428D02*
X97847619Y-125852380D01*
X97847619Y-125185714D02*
X97466666Y-125566666D01*
X98657142Y-125804761D02*
X98561904Y-125852380D01*
X98371428Y-125852380D01*
X98276190Y-125804761D01*
X98228571Y-125709523D01*
X98228571Y-125328571D01*
X98276190Y-125233333D01*
X98371428Y-125185714D01*
X98561904Y-125185714D01*
X98657142Y-125233333D01*
X98704761Y-125328571D01*
X98704761Y-125423809D01*
X98228571Y-125519047D01*
X97663047Y-49093428D02*
X98424952Y-49093428D01*
X98044000Y-49474380D02*
X98044000Y-48712476D01*
X107823047Y-49093428D02*
X108584952Y-49093428D01*
X108204000Y-49474380D02*
X108204000Y-48712476D01*
X117983047Y-49093428D02*
X118744952Y-49093428D01*
X118364000Y-49474380D02*
X118364000Y-48712476D01*
X128143047Y-49093428D02*
X128904952Y-49093428D01*
X128524000Y-49474380D02*
X128524000Y-48712476D01*
X88103047Y-49093428D02*
X88864952Y-49093428D01*
X88484000Y-49474380D02*
X88484000Y-48712476D01*
X148463047Y-49093428D02*
X149224952Y-49093428D01*
X148844000Y-49474380D02*
X148844000Y-48712476D01*
X158623047Y-49093428D02*
X159384952Y-49093428D01*
X159004000Y-49474380D02*
X159004000Y-48712476D01*
X169037047Y-49093428D02*
X169798952Y-49093428D01*
X169418000Y-49474380D02*
X169418000Y-48712476D01*
X178943047Y-49093428D02*
X179704952Y-49093428D01*
X179324000Y-49474380D02*
X179324000Y-48712476D01*
D11*
X110100000Y-87975000D02*
X110100000Y-92350000D01*
X105100000Y-90075001D02*
X105100000Y-92300000D01*
D12*
X104910000Y-86750279D02*
X104910000Y-86424721D01*
X103890000Y-86750279D02*
X103890000Y-86424721D01*
X112350000Y-96540000D02*
X113200000Y-96540000D01*
X113200000Y-103460000D02*
X112350000Y-103460000D01*
X107650000Y-96540000D02*
X108450000Y-96540000D01*
X106990000Y-102850000D02*
X106990000Y-97200000D01*
X108450000Y-103460000D02*
X107600000Y-103460000D01*
X107600000Y-103460000D02*
G75*
G02X106990000Y-102850000I0J610000D01*
G01*
X106990000Y-97200000D02*
G75*
G02X107650000Y-96540000I660000J0D01*
G01*
X113810000Y-97150000D02*
X113810000Y-102850000D01*
X113810000Y-102850000D02*
G75*
G02X113200000Y-103460000I-610000J0D01*
G01*
X113200000Y-96540000D02*
G75*
G02X113810000Y-97150000I0J-610000D01*
G01*
X119050000Y-85800000D02*
X119050000Y-94200000D01*
X112550000Y-85800000D02*
X112550000Y-94200000D01*
X112550000Y-85800000D02*
X119050000Y-85800000D01*
X96600000Y-91350000D02*
X90900000Y-91350000D01*
X96600000Y-87050000D02*
X90900000Y-87050000D01*
X96600000Y-91350000D02*
X96600000Y-87050000D01*
X118910000Y-104258578D02*
X118910000Y-103741422D01*
X117490000Y-104258578D02*
X117490000Y-103741422D01*
X115710000Y-104258578D02*
X115710000Y-103741422D01*
X114290000Y-104258578D02*
X114290000Y-103741422D01*
X105510000Y-103996078D02*
X105510000Y-103478922D01*
X104090000Y-103996078D02*
X104090000Y-103478922D01*
X102235001Y-103963577D02*
X102235001Y-103446421D01*
X100815001Y-103963577D02*
X100815001Y-103446421D01*
X105890000Y-83478922D02*
X105890000Y-83996078D01*
X107310000Y-83478922D02*
X107310000Y-83996078D01*
X109658578Y-85690000D02*
X109141422Y-85690000D01*
X109658578Y-87110000D02*
X109141422Y-87110000D01*
X105962779Y-95090000D02*
X105637221Y-95090000D01*
X105962779Y-96110000D02*
X105637221Y-96110000D01*
X96859698Y-98715000D02*
X96859698Y-97915000D01*
X97259698Y-98315000D02*
X96459698Y-98315000D01*
X88769000Y-96533000D02*
X88769000Y-95467000D01*
X88809000Y-96768000D02*
X88809000Y-95232000D01*
X88849000Y-96948000D02*
X88849000Y-95052000D01*
X88889000Y-97098000D02*
X88889000Y-94902000D01*
X88929000Y-97229000D02*
X88929000Y-94771000D01*
X88969000Y-97346000D02*
X88969000Y-94654000D01*
X89009000Y-97453000D02*
X89009000Y-94547000D01*
X89049000Y-97552000D02*
X89049000Y-94448000D01*
X89089000Y-97645000D02*
X89089000Y-94355000D01*
X89129000Y-97731000D02*
X89129000Y-94269000D01*
X89169000Y-97813000D02*
X89169000Y-94187000D01*
X89209000Y-97890000D02*
X89209000Y-94110000D01*
X89249000Y-97964000D02*
X89249000Y-94036000D01*
X89289000Y-98034000D02*
X89289000Y-93966000D01*
X89329000Y-98102000D02*
X89329000Y-93898000D01*
X89369000Y-98166000D02*
X89369000Y-93834000D01*
X89409000Y-98228000D02*
X89409000Y-93772000D01*
X89449000Y-98287000D02*
X89449000Y-93713000D01*
X89489000Y-98345000D02*
X89489000Y-93655000D01*
X89529000Y-98400000D02*
X89529000Y-93600000D01*
X89569000Y-98454000D02*
X89569000Y-93546000D01*
X89609000Y-98505000D02*
X89609000Y-93495000D01*
X89649000Y-98556000D02*
X89649000Y-93444000D01*
X89689000Y-98604000D02*
X89689000Y-93396000D01*
X89729000Y-98651000D02*
X89729000Y-93349000D01*
X89769000Y-98697000D02*
X89769000Y-93303000D01*
X89809000Y-98741000D02*
X89809000Y-93259000D01*
X89849000Y-98784000D02*
X89849000Y-93216000D01*
X89889000Y-98826000D02*
X89889000Y-93174000D01*
X89929000Y-98867000D02*
X89929000Y-93133000D01*
X89969000Y-98907000D02*
X89969000Y-93093000D01*
X90009000Y-98945000D02*
X90009000Y-93055000D01*
X90049000Y-98983000D02*
X90049000Y-93017000D01*
X90089000Y-94960000D02*
X90089000Y-92981000D01*
X90089000Y-99019000D02*
X90089000Y-97040000D01*
X90129000Y-94960000D02*
X90129000Y-92945000D01*
X90129000Y-99055000D02*
X90129000Y-97040000D01*
X90169000Y-94960000D02*
X90169000Y-92910000D01*
X90169000Y-99090000D02*
X90169000Y-97040000D01*
X90209000Y-94960000D02*
X90209000Y-92876000D01*
X90209000Y-99124000D02*
X90209000Y-97040000D01*
X90249000Y-94960000D02*
X90249000Y-92844000D01*
X90249000Y-99156000D02*
X90249000Y-97040000D01*
X90289000Y-94960000D02*
X90289000Y-92811000D01*
X90289000Y-99189000D02*
X90289000Y-97040000D01*
X90329000Y-94960000D02*
X90329000Y-92780000D01*
X90329000Y-99220000D02*
X90329000Y-97040000D01*
X90369000Y-94960000D02*
X90369000Y-92750000D01*
X90369000Y-99250000D02*
X90369000Y-97040000D01*
X90409000Y-94960000D02*
X90409000Y-92720000D01*
X90409000Y-99280000D02*
X90409000Y-97040000D01*
X90449000Y-94960000D02*
X90449000Y-92691000D01*
X90449000Y-99309000D02*
X90449000Y-97040000D01*
X90489000Y-94960000D02*
X90489000Y-92662000D01*
X90489000Y-99338000D02*
X90489000Y-97040000D01*
X90529000Y-94960000D02*
X90529000Y-92635000D01*
X90529000Y-99365000D02*
X90529000Y-97040000D01*
X90569000Y-94960000D02*
X90569000Y-92608000D01*
X90569000Y-99392000D02*
X90569000Y-97040000D01*
X90609000Y-94960000D02*
X90609000Y-92582000D01*
X90609000Y-99418000D02*
X90609000Y-97040000D01*
X90649000Y-94960000D02*
X90649000Y-92556000D01*
X90649000Y-99444000D02*
X90649000Y-97040000D01*
X90689000Y-94960000D02*
X90689000Y-92531000D01*
X90689000Y-99469000D02*
X90689000Y-97040000D01*
X90729000Y-94960000D02*
X90729000Y-92507000D01*
X90729000Y-99493000D02*
X90729000Y-97040000D01*
X90769000Y-94960000D02*
X90769000Y-92483000D01*
X90769000Y-99517000D02*
X90769000Y-97040000D01*
X90809000Y-94960000D02*
X90809000Y-92460000D01*
X90809000Y-99540000D02*
X90809000Y-97040000D01*
X90849000Y-94960000D02*
X90849000Y-92438000D01*
X90849000Y-99562000D02*
X90849000Y-97040000D01*
X90889000Y-94960000D02*
X90889000Y-92416000D01*
X90889000Y-99584000D02*
X90889000Y-97040000D01*
X90929000Y-94960000D02*
X90929000Y-92394000D01*
X90929000Y-99606000D02*
X90929000Y-97040000D01*
X90969000Y-94960000D02*
X90969000Y-92373000D01*
X90969000Y-99627000D02*
X90969000Y-97040000D01*
X91009000Y-94960000D02*
X91009000Y-92353000D01*
X91009000Y-99647000D02*
X91009000Y-97040000D01*
X91049000Y-94960000D02*
X91049000Y-92334000D01*
X91049000Y-99666000D02*
X91049000Y-97040000D01*
X91089000Y-94960000D02*
X91089000Y-92314000D01*
X91089000Y-99686000D02*
X91089000Y-97040000D01*
X91129000Y-94960000D02*
X91129000Y-92296000D01*
X91129000Y-99704000D02*
X91129000Y-97040000D01*
X91169000Y-94960000D02*
X91169000Y-92278000D01*
X91169000Y-99722000D02*
X91169000Y-97040000D01*
X91209000Y-94960000D02*
X91209000Y-92260000D01*
X91209000Y-99740000D02*
X91209000Y-97040000D01*
X91249000Y-94960000D02*
X91249000Y-92243000D01*
X91249000Y-99757000D02*
X91249000Y-97040000D01*
X91289000Y-94960000D02*
X91289000Y-92226000D01*
X91289000Y-99774000D02*
X91289000Y-97040000D01*
X91329000Y-94960000D02*
X91329000Y-92210000D01*
X91329000Y-99790000D02*
X91329000Y-97040000D01*
X91369000Y-94960000D02*
X91369000Y-92195000D01*
X91369000Y-99805000D02*
X91369000Y-97040000D01*
X91409000Y-94960000D02*
X91409000Y-92179000D01*
X91409000Y-99821000D02*
X91409000Y-97040000D01*
X91449000Y-94960000D02*
X91449000Y-92165000D01*
X91449000Y-99835000D02*
X91449000Y-97040000D01*
X91489000Y-94960000D02*
X91489000Y-92150000D01*
X91489000Y-99850000D02*
X91489000Y-97040000D01*
X91529000Y-94960000D02*
X91529000Y-92137000D01*
X91529000Y-99863000D02*
X91529000Y-97040000D01*
X91569000Y-94960000D02*
X91569000Y-92123000D01*
X91569000Y-99877000D02*
X91569000Y-97040000D01*
X91609000Y-94960000D02*
X91609000Y-92111000D01*
X91609000Y-99889000D02*
X91609000Y-97040000D01*
X91649000Y-94960000D02*
X91649000Y-92098000D01*
X91649000Y-99902000D02*
X91649000Y-97040000D01*
X91689000Y-94960000D02*
X91689000Y-92086000D01*
X91689000Y-99914000D02*
X91689000Y-97040000D01*
X91729000Y-94960000D02*
X91729000Y-92075000D01*
X91729000Y-99925000D02*
X91729000Y-97040000D01*
X91769000Y-94960000D02*
X91769000Y-92064000D01*
X91769000Y-99936000D02*
X91769000Y-97040000D01*
X91809000Y-94960000D02*
X91809000Y-92053000D01*
X91809000Y-99947000D02*
X91809000Y-97040000D01*
X91849000Y-94960000D02*
X91849000Y-92043000D01*
X91849000Y-99957000D02*
X91849000Y-97040000D01*
X91889000Y-94960000D02*
X91889000Y-92033000D01*
X91889000Y-99967000D02*
X91889000Y-97040000D01*
X91929000Y-94960000D02*
X91929000Y-92024000D01*
X91929000Y-99976000D02*
X91929000Y-97040000D01*
X91969000Y-94960000D02*
X91969000Y-92015000D01*
X91969000Y-99985000D02*
X91969000Y-97040000D01*
X92009000Y-94960000D02*
X92009000Y-92006000D01*
X92009000Y-99994000D02*
X92009000Y-97040000D01*
X92049000Y-94960000D02*
X92049000Y-91998000D01*
X92049000Y-100002000D02*
X92049000Y-97040000D01*
X92089000Y-94960000D02*
X92089000Y-91990000D01*
X92089000Y-100010000D02*
X92089000Y-97040000D01*
X92129000Y-94960000D02*
X92129000Y-91983000D01*
X92129000Y-100017000D02*
X92129000Y-97040000D01*
X92170000Y-100024000D02*
X92170000Y-91976000D01*
X92210000Y-100030000D02*
X92210000Y-91970000D01*
X92250000Y-100037000D02*
X92250000Y-91963000D01*
X92290000Y-100042000D02*
X92290000Y-91958000D01*
X92330000Y-100048000D02*
X92330000Y-91952000D01*
X92370000Y-100052000D02*
X92370000Y-91948000D01*
X92410000Y-100057000D02*
X92410000Y-91943000D01*
X92450000Y-100061000D02*
X92450000Y-91939000D01*
X92490000Y-100065000D02*
X92490000Y-91935000D01*
X92530000Y-100068000D02*
X92530000Y-91932000D01*
X92570000Y-100071000D02*
X92570000Y-91929000D01*
X92610000Y-100074000D02*
X92610000Y-91926000D01*
X92650000Y-100076000D02*
X92650000Y-91924000D01*
X92690000Y-100077000D02*
X92690000Y-91923000D01*
X92730000Y-100079000D02*
X92730000Y-91921000D01*
X92770000Y-100080000D02*
X92770000Y-91920000D01*
X92810000Y-100080000D02*
X92810000Y-91920000D01*
X92850000Y-100080000D02*
X92850000Y-91920000D01*
X96970000Y-96000000D02*
G75*
G03X96970000Y-96000000I-4120000J0D01*
G01*
X97710000Y-103390000D02*
X95210000Y-103390000D01*
X97710000Y-105890000D02*
X97710000Y-103390000D01*
X90690000Y-105190000D02*
X90690000Y-103690000D01*
X89690000Y-105190000D02*
X90690000Y-105190000D01*
X96410000Y-105190000D02*
X96410000Y-103690000D01*
X97410000Y-105190000D02*
X96410000Y-105190000D01*
X90190000Y-106000000D02*
X89690000Y-106000000D01*
X90190000Y-107210000D02*
X90190000Y-106000000D01*
X96910000Y-107210000D02*
X90190000Y-107210000D01*
X96910000Y-106000000D02*
X96910000Y-107210000D01*
X97410000Y-106000000D02*
X96910000Y-106000000D01*
X89690000Y-107710000D02*
X97410000Y-107710000D01*
X89690000Y-103690000D02*
X89690000Y-107710000D01*
X97410000Y-103690000D02*
X89690000Y-103690000D01*
X97410000Y-107710000D02*
X97410000Y-103690000D01*
X89090000Y-86410000D02*
X91590000Y-86410000D01*
X89090000Y-83910000D02*
X89090000Y-86410000D01*
X96110000Y-84610000D02*
X96110000Y-86110000D01*
X97110000Y-84610000D02*
X96110000Y-84610000D01*
X90390000Y-84610000D02*
X90390000Y-86110000D01*
X89390000Y-84610000D02*
X90390000Y-84610000D01*
X96610000Y-83800000D02*
X97110000Y-83800000D01*
X96610000Y-82590000D02*
X96610000Y-83800000D01*
X89890000Y-82590000D02*
X96610000Y-82590000D01*
X89890000Y-83800000D02*
X89890000Y-82590000D01*
X89390000Y-83800000D02*
X89890000Y-83800000D01*
X97110000Y-82090000D02*
X89390000Y-82090000D01*
X97110000Y-86110000D02*
X97110000Y-82090000D01*
X89390000Y-86110000D02*
X97110000Y-86110000D01*
X89390000Y-82090000D02*
X89390000Y-86110000D01*
X121890000Y-98010000D02*
X124390000Y-98010000D01*
X121890000Y-95510000D02*
X121890000Y-98010000D01*
X128910000Y-96210000D02*
X128910000Y-97710000D01*
X129910000Y-96210000D02*
X128910000Y-96210000D01*
X123190000Y-96210000D02*
X123190000Y-97710000D01*
X122190000Y-96210000D02*
X123190000Y-96210000D01*
X129410000Y-95400000D02*
X129910000Y-95400000D01*
X129410000Y-94190000D02*
X129410000Y-95400000D01*
X122690000Y-94190000D02*
X129410000Y-94190000D01*
X122690000Y-95400000D02*
X122690000Y-94190000D01*
X122190000Y-95400000D02*
X122690000Y-95400000D01*
X129910000Y-93690000D02*
X122190000Y-93690000D01*
X129910000Y-97710000D02*
X129910000Y-93690000D01*
X122190000Y-97710000D02*
X129910000Y-97710000D01*
X122190000Y-93690000D02*
X122190000Y-97710000D01*
X121890000Y-102810000D02*
X124390000Y-102810000D01*
X121890000Y-100310000D02*
X121890000Y-102810000D01*
X128910000Y-101010000D02*
X128910000Y-102510000D01*
X129910000Y-101010000D02*
X128910000Y-101010000D01*
X123190000Y-101010000D02*
X123190000Y-102510000D01*
X122190000Y-101010000D02*
X123190000Y-101010000D01*
X129410000Y-100200000D02*
X129910000Y-100200000D01*
X129410000Y-98990000D02*
X129410000Y-100200000D01*
X122690000Y-98990000D02*
X129410000Y-98990000D01*
X122690000Y-100200000D02*
X122690000Y-98990000D01*
X122190000Y-100200000D02*
X122690000Y-100200000D01*
X129910000Y-98490000D02*
X122190000Y-98490000D01*
X129910000Y-102510000D02*
X129910000Y-98490000D01*
X122190000Y-102510000D02*
X129910000Y-102510000D01*
X122190000Y-98490000D02*
X122190000Y-102510000D01*
X120990000Y-90730000D02*
X120990000Y-89400000D01*
X122320000Y-90730000D02*
X120990000Y-90730000D01*
X120990000Y-88130000D02*
X120990000Y-85530000D01*
X123590000Y-88130000D02*
X120990000Y-88130000D01*
X123590000Y-90730000D02*
X123590000Y-88130000D01*
X120990000Y-85530000D02*
X141430000Y-85530000D01*
X123590000Y-90730000D02*
X141430000Y-90730000D01*
X141430000Y-90730000D02*
X141430000Y-85530000D01*
D10*
X121675000Y-127900000D02*
X120325000Y-127900000D01*
X121675000Y-133025000D02*
X126325000Y-133025000D01*
X121675000Y-127775000D02*
X126325000Y-127775000D01*
X121675000Y-133025000D02*
X121675000Y-132800000D01*
X126325000Y-133025000D02*
X126325000Y-132800000D01*
X126325000Y-127775000D02*
X126325000Y-128000000D01*
X121675000Y-127775000D02*
X121675000Y-127900000D01*
D12*
X175037221Y-83710000D02*
X175362779Y-83710000D01*
X175037221Y-82690000D02*
X175362779Y-82690000D01*
X172037221Y-111110000D02*
X172362779Y-111110000D01*
X172037221Y-110090000D02*
X172362779Y-110090000D01*
X93837221Y-123399000D02*
X94162779Y-123399000D01*
X93837221Y-122379000D02*
X94162779Y-122379000D01*
X173562779Y-106890000D02*
X173237221Y-106890000D01*
X173562779Y-107910000D02*
X173237221Y-107910000D01*
X154540000Y-76985000D02*
X152700000Y-76985000D01*
X154540000Y-76340000D02*
X154540000Y-76985000D01*
X158400000Y-76340000D02*
X154540000Y-76340000D01*
X162260000Y-76340000D02*
X162260000Y-76985000D01*
X158400000Y-76340000D02*
X162260000Y-76340000D01*
X154540000Y-95260000D02*
X154540000Y-94615000D01*
X158400000Y-95260000D02*
X154540000Y-95260000D01*
X162260000Y-95260000D02*
X162260000Y-94615000D01*
X158400000Y-95260000D02*
X162260000Y-95260000D01*
X146718000Y-102655000D02*
X149268000Y-102655000D01*
X146718000Y-104355000D02*
X149268000Y-104355000D01*
X146718000Y-102655000D02*
X146718000Y-104355000D01*
X146750000Y-108750000D02*
X149300000Y-108750000D01*
X146750000Y-110450000D02*
X149300000Y-110450000D01*
X146750000Y-108750000D02*
X146750000Y-110450000D01*
X146750000Y-114750000D02*
X149300000Y-114750000D01*
X146750000Y-116450000D02*
X149300000Y-116450000D01*
X146750000Y-114750000D02*
X146750000Y-116450000D01*
X146700000Y-120750000D02*
X149250000Y-120750000D01*
X146700000Y-122450000D02*
X149250000Y-122450000D01*
X146700000Y-120750000D02*
X146700000Y-122450000D01*
X146700000Y-126750000D02*
X149250000Y-126750000D01*
X146700000Y-128450000D02*
X149250000Y-128450000D01*
X146700000Y-126750000D02*
X146700000Y-128450000D01*
X146700000Y-132750000D02*
X149250000Y-132750000D01*
X146700000Y-134450000D02*
X149250000Y-134450000D01*
X146700000Y-132750000D02*
X146700000Y-134450000D01*
X110500000Y-125900000D02*
X114500000Y-125900000D01*
X110500000Y-122600000D02*
X110500000Y-125900000D01*
X124800000Y-109240000D02*
X121350000Y-109240000D01*
X124800000Y-109240000D02*
X126750000Y-109240000D01*
X124800000Y-114360000D02*
X122850000Y-114360000D01*
X124800000Y-114360000D02*
X126750000Y-114360000D01*
X117540000Y-115160000D02*
X115725000Y-115160000D01*
X117540000Y-114915000D02*
X117540000Y-115160000D01*
X121400000Y-114915000D02*
X117540000Y-114915000D01*
X125260000Y-114915000D02*
X125260000Y-115160000D01*
X121400000Y-114915000D02*
X125260000Y-114915000D01*
X117540000Y-126685000D02*
X117540000Y-126440000D01*
X121400000Y-126685000D02*
X117540000Y-126685000D01*
X125260000Y-126685000D02*
X125260000Y-126440000D01*
X121400000Y-126685000D02*
X125260000Y-126685000D01*
X128730000Y-135800000D02*
X128730000Y-137130000D01*
X128730000Y-137130000D02*
X127400000Y-137130000D01*
X126130000Y-137130000D02*
X113370000Y-137130000D01*
X113370000Y-134470000D02*
X113370000Y-137130000D01*
X126130000Y-134470000D02*
X113370000Y-134470000D01*
X126130000Y-134470000D02*
X126130000Y-137130000D01*
X170564000Y-93850000D02*
X152524000Y-93850000D01*
X170564000Y-137290000D02*
X170564000Y-93850000D01*
X152524000Y-137290000D02*
X170564000Y-137290000D01*
X155194000Y-134620000D02*
X152524000Y-134620000D01*
X155194000Y-99060000D02*
X155194000Y-134620000D01*
X155194000Y-99060000D02*
X152524000Y-99060000D01*
X167894000Y-134620000D02*
X170564000Y-134620000D01*
X167894000Y-96520000D02*
X167894000Y-134620000D01*
X167894000Y-96520000D02*
X170564000Y-96520000D01*
X152524000Y-93850000D02*
X152524000Y-96520000D01*
X152524000Y-99060000D02*
X152524000Y-137290000D01*
X155194000Y-96520000D02*
X152524000Y-96520000D01*
X155194000Y-99060000D02*
X155194000Y-96520000D01*
D13*
X108872000Y-70078000D02*
X108872000Y-63418000D01*
X116252000Y-63418000D02*
X116252000Y-70078000D01*
X108872000Y-63418000D02*
X109172000Y-63418000D01*
X116252000Y-63418000D02*
X115952000Y-63418000D01*
X116252000Y-70078000D02*
X115952000Y-70078000D01*
X108872000Y-70078000D02*
X109172000Y-70078000D01*
D14*
X110062000Y-72148000D02*
G75*
G03X110062000Y-72148000I-100000J0D01*
G01*
D12*
X141400000Y-105400000D02*
X137500000Y-105400000D01*
X141400000Y-103400000D02*
X137500000Y-103400000D01*
X141400000Y-105400000D02*
X141400000Y-103400000D01*
X141400000Y-111600000D02*
X137500000Y-111600000D01*
X141400000Y-109600000D02*
X137500000Y-109600000D01*
X141400000Y-111600000D02*
X141400000Y-109600000D01*
X141400000Y-117600000D02*
X137500000Y-117600000D01*
X141400000Y-115600000D02*
X137500000Y-115600000D01*
X141400000Y-117600000D02*
X141400000Y-115600000D01*
X141450000Y-123600000D02*
X137550000Y-123600000D01*
X141450000Y-121600000D02*
X137550000Y-121600000D01*
X141450000Y-123600000D02*
X141450000Y-121600000D01*
X141400000Y-129400000D02*
X137500000Y-129400000D01*
X141400000Y-127400000D02*
X137500000Y-127400000D01*
X141400000Y-129400000D02*
X141400000Y-127400000D01*
X141400000Y-135400000D02*
X137500000Y-135400000D01*
X141400000Y-133400000D02*
X137500000Y-133400000D01*
X141400000Y-135400000D02*
X141400000Y-133400000D01*
X106296000Y-127482000D02*
X102396000Y-127482000D01*
X106296000Y-125482000D02*
X102396000Y-125482000D01*
X106296000Y-127482000D02*
X106296000Y-125482000D01*
X101750000Y-128318000D02*
X105650000Y-128318000D01*
X101750000Y-130318000D02*
X105650000Y-130318000D01*
X101750000Y-128318000D02*
X101750000Y-130318000D01*
X106296000Y-120610000D02*
X102396000Y-120610000D01*
X106296000Y-118610000D02*
X102396000Y-118610000D01*
X106296000Y-120610000D02*
X106296000Y-118610000D01*
X101744000Y-121390000D02*
X105644000Y-121390000D01*
X101744000Y-123390000D02*
X105644000Y-123390000D01*
X101744000Y-121390000D02*
X101744000Y-123390000D01*
X106394000Y-113465000D02*
X102494000Y-113465000D01*
X106394000Y-111465000D02*
X102494000Y-111465000D01*
X106394000Y-113465000D02*
X106394000Y-111465000D01*
X101846000Y-114335000D02*
X105746000Y-114335000D01*
X101846000Y-116335000D02*
X105746000Y-116335000D01*
X101846000Y-114335000D02*
X101846000Y-116335000D01*
D13*
X89392000Y-70078000D02*
X89392000Y-63418000D01*
X96772000Y-63418000D02*
X96772000Y-70078000D01*
X89392000Y-63418000D02*
X89692000Y-63418000D01*
X96772000Y-63418000D02*
X96472000Y-63418000D01*
X96772000Y-70078000D02*
X96472000Y-70078000D01*
X89392000Y-70078000D02*
X89692000Y-70078000D01*
D14*
X90582000Y-72148000D02*
G75*
G03X90582000Y-72148000I-100000J0D01*
G01*
D13*
X99032000Y-70078000D02*
X99032000Y-63418000D01*
X106412000Y-63418000D02*
X106412000Y-70078000D01*
X99032000Y-63418000D02*
X99332000Y-63418000D01*
X106412000Y-63418000D02*
X106112000Y-63418000D01*
X106412000Y-70078000D02*
X106112000Y-70078000D01*
X99032000Y-70078000D02*
X99332000Y-70078000D01*
D14*
X100222000Y-72148000D02*
G75*
G03X100222000Y-72148000I-100000J0D01*
G01*
D13*
X118912000Y-70078000D02*
X118912000Y-63418000D01*
X126292000Y-63418000D02*
X126292000Y-70078000D01*
X118912000Y-63418000D02*
X119212000Y-63418000D01*
X126292000Y-63418000D02*
X125992000Y-63418000D01*
X126292000Y-70078000D02*
X125992000Y-70078000D01*
X118912000Y-70078000D02*
X119212000Y-70078000D01*
D14*
X120102000Y-72148000D02*
G75*
G03X120102000Y-72148000I-100000J0D01*
G01*
D13*
X128952000Y-70078000D02*
X128952000Y-63418000D01*
X136332000Y-63418000D02*
X136332000Y-70078000D01*
X128952000Y-63418000D02*
X129252000Y-63418000D01*
X136332000Y-63418000D02*
X136032000Y-63418000D01*
X136332000Y-70078000D02*
X136032000Y-70078000D01*
X128952000Y-70078000D02*
X129252000Y-70078000D01*
D14*
X130142000Y-72148000D02*
G75*
G03X130142000Y-72148000I-100000J0D01*
G01*
D13*
X139192000Y-70078000D02*
X139192000Y-63418000D01*
X146572000Y-63418000D02*
X146572000Y-70078000D01*
X139192000Y-63418000D02*
X139492000Y-63418000D01*
X146572000Y-63418000D02*
X146272000Y-63418000D01*
X146572000Y-70078000D02*
X146272000Y-70078000D01*
X139192000Y-70078000D02*
X139492000Y-70078000D01*
D14*
X140382000Y-72148000D02*
G75*
G03X140382000Y-72148000I-100000J0D01*
G01*
D13*
X149432000Y-70078000D02*
X149432000Y-63418000D01*
X156812000Y-63418000D02*
X156812000Y-70078000D01*
X149432000Y-63418000D02*
X149732000Y-63418000D01*
X156812000Y-63418000D02*
X156512000Y-63418000D01*
X156812000Y-70078000D02*
X156512000Y-70078000D01*
X149432000Y-70078000D02*
X149732000Y-70078000D01*
D14*
X150622000Y-72148000D02*
G75*
G03X150622000Y-72148000I-100000J0D01*
G01*
D13*
X159472000Y-70078000D02*
X159472000Y-63418000D01*
X166852000Y-63418000D02*
X166852000Y-70078000D01*
X159472000Y-63418000D02*
X159772000Y-63418000D01*
X166852000Y-63418000D02*
X166552000Y-63418000D01*
X166852000Y-70078000D02*
X166552000Y-70078000D01*
X159472000Y-70078000D02*
X159772000Y-70078000D01*
D14*
X160662000Y-72148000D02*
G75*
G03X160662000Y-72148000I-100000J0D01*
G01*
D13*
X169712000Y-70078000D02*
X169712000Y-63418000D01*
X177092000Y-63418000D02*
X177092000Y-70078000D01*
X169712000Y-63418000D02*
X170012000Y-63418000D01*
X177092000Y-63418000D02*
X176792000Y-63418000D01*
X177092000Y-70078000D02*
X176792000Y-70078000D01*
X169712000Y-70078000D02*
X170012000Y-70078000D01*
D14*
X170902000Y-72148000D02*
G75*
G03X170902000Y-72148000I-100000J0D01*
G01*
D12*
X90472000Y-50814000D02*
X90472000Y-54834000D01*
X90472000Y-54834000D02*
X98192000Y-54834000D01*
X98192000Y-54834000D02*
X98192000Y-50814000D01*
X98192000Y-50814000D02*
X90472000Y-50814000D01*
X90472000Y-52524000D02*
X90972000Y-52524000D01*
X90972000Y-52524000D02*
X90972000Y-51314000D01*
X90972000Y-51314000D02*
X97692000Y-51314000D01*
X97692000Y-51314000D02*
X97692000Y-52524000D01*
X97692000Y-52524000D02*
X98192000Y-52524000D01*
X90472000Y-53334000D02*
X91472000Y-53334000D01*
X91472000Y-53334000D02*
X91472000Y-54834000D01*
X98192000Y-53334000D02*
X97192000Y-53334000D01*
X97192000Y-53334000D02*
X97192000Y-54834000D01*
X90172000Y-52634000D02*
X90172000Y-55134000D01*
X90172000Y-55134000D02*
X92672000Y-55134000D01*
X100152000Y-50814000D02*
X100152000Y-54834000D01*
X100152000Y-54834000D02*
X107872000Y-54834000D01*
X107872000Y-54834000D02*
X107872000Y-50814000D01*
X107872000Y-50814000D02*
X100152000Y-50814000D01*
X100152000Y-52524000D02*
X100652000Y-52524000D01*
X100652000Y-52524000D02*
X100652000Y-51314000D01*
X100652000Y-51314000D02*
X107372000Y-51314000D01*
X107372000Y-51314000D02*
X107372000Y-52524000D01*
X107372000Y-52524000D02*
X107872000Y-52524000D01*
X100152000Y-53334000D02*
X101152000Y-53334000D01*
X101152000Y-53334000D02*
X101152000Y-54834000D01*
X107872000Y-53334000D02*
X106872000Y-53334000D01*
X106872000Y-53334000D02*
X106872000Y-54834000D01*
X99852000Y-52634000D02*
X99852000Y-55134000D01*
X99852000Y-55134000D02*
X102352000Y-55134000D01*
X109952000Y-50814000D02*
X109952000Y-54834000D01*
X109952000Y-54834000D02*
X117672000Y-54834000D01*
X117672000Y-54834000D02*
X117672000Y-50814000D01*
X117672000Y-50814000D02*
X109952000Y-50814000D01*
X109952000Y-52524000D02*
X110452000Y-52524000D01*
X110452000Y-52524000D02*
X110452000Y-51314000D01*
X110452000Y-51314000D02*
X117172000Y-51314000D01*
X117172000Y-51314000D02*
X117172000Y-52524000D01*
X117172000Y-52524000D02*
X117672000Y-52524000D01*
X109952000Y-53334000D02*
X110952000Y-53334000D01*
X110952000Y-53334000D02*
X110952000Y-54834000D01*
X117672000Y-53334000D02*
X116672000Y-53334000D01*
X116672000Y-53334000D02*
X116672000Y-54834000D01*
X109652000Y-52634000D02*
X109652000Y-55134000D01*
X109652000Y-55134000D02*
X112152000Y-55134000D01*
X119992000Y-50814000D02*
X119992000Y-54834000D01*
X119992000Y-54834000D02*
X127712000Y-54834000D01*
X127712000Y-54834000D02*
X127712000Y-50814000D01*
X127712000Y-50814000D02*
X119992000Y-50814000D01*
X119992000Y-52524000D02*
X120492000Y-52524000D01*
X120492000Y-52524000D02*
X120492000Y-51314000D01*
X120492000Y-51314000D02*
X127212000Y-51314000D01*
X127212000Y-51314000D02*
X127212000Y-52524000D01*
X127212000Y-52524000D02*
X127712000Y-52524000D01*
X119992000Y-53334000D02*
X120992000Y-53334000D01*
X120992000Y-53334000D02*
X120992000Y-54834000D01*
X127712000Y-53334000D02*
X126712000Y-53334000D01*
X126712000Y-53334000D02*
X126712000Y-54834000D01*
X119692000Y-52634000D02*
X119692000Y-55134000D01*
X119692000Y-55134000D02*
X122192000Y-55134000D01*
X130072000Y-50814000D02*
X130072000Y-54834000D01*
X130072000Y-54834000D02*
X137792000Y-54834000D01*
X137792000Y-54834000D02*
X137792000Y-50814000D01*
X137792000Y-50814000D02*
X130072000Y-50814000D01*
X130072000Y-52524000D02*
X130572000Y-52524000D01*
X130572000Y-52524000D02*
X130572000Y-51314000D01*
X130572000Y-51314000D02*
X137292000Y-51314000D01*
X137292000Y-51314000D02*
X137292000Y-52524000D01*
X137292000Y-52524000D02*
X137792000Y-52524000D01*
X130072000Y-53334000D02*
X131072000Y-53334000D01*
X131072000Y-53334000D02*
X131072000Y-54834000D01*
X137792000Y-53334000D02*
X136792000Y-53334000D01*
X136792000Y-53334000D02*
X136792000Y-54834000D01*
X129772000Y-52634000D02*
X129772000Y-55134000D01*
X129772000Y-55134000D02*
X132272000Y-55134000D01*
X140272000Y-50744000D02*
X140272000Y-54764000D01*
X140272000Y-54764000D02*
X147992000Y-54764000D01*
X147992000Y-54764000D02*
X147992000Y-50744000D01*
X147992000Y-50744000D02*
X140272000Y-50744000D01*
X140272000Y-52454000D02*
X140772000Y-52454000D01*
X140772000Y-52454000D02*
X140772000Y-51244000D01*
X140772000Y-51244000D02*
X147492000Y-51244000D01*
X147492000Y-51244000D02*
X147492000Y-52454000D01*
X147492000Y-52454000D02*
X147992000Y-52454000D01*
X140272000Y-53264000D02*
X141272000Y-53264000D01*
X141272000Y-53264000D02*
X141272000Y-54764000D01*
X147992000Y-53264000D02*
X146992000Y-53264000D01*
X146992000Y-53264000D02*
X146992000Y-54764000D01*
X139972000Y-52564000D02*
X139972000Y-55064000D01*
X139972000Y-55064000D02*
X142472000Y-55064000D01*
X150512000Y-50814000D02*
X150512000Y-54834000D01*
X150512000Y-54834000D02*
X158232000Y-54834000D01*
X158232000Y-54834000D02*
X158232000Y-50814000D01*
X158232000Y-50814000D02*
X150512000Y-50814000D01*
X150512000Y-52524000D02*
X151012000Y-52524000D01*
X151012000Y-52524000D02*
X151012000Y-51314000D01*
X151012000Y-51314000D02*
X157732000Y-51314000D01*
X157732000Y-51314000D02*
X157732000Y-52524000D01*
X157732000Y-52524000D02*
X158232000Y-52524000D01*
X150512000Y-53334000D02*
X151512000Y-53334000D01*
X151512000Y-53334000D02*
X151512000Y-54834000D01*
X158232000Y-53334000D02*
X157232000Y-53334000D01*
X157232000Y-53334000D02*
X157232000Y-54834000D01*
X150212000Y-52634000D02*
X150212000Y-55134000D01*
X150212000Y-55134000D02*
X152712000Y-55134000D01*
X160552000Y-50814000D02*
X160552000Y-54834000D01*
X160552000Y-54834000D02*
X168272000Y-54834000D01*
X168272000Y-54834000D02*
X168272000Y-50814000D01*
X168272000Y-50814000D02*
X160552000Y-50814000D01*
X160552000Y-52524000D02*
X161052000Y-52524000D01*
X161052000Y-52524000D02*
X161052000Y-51314000D01*
X161052000Y-51314000D02*
X167772000Y-51314000D01*
X167772000Y-51314000D02*
X167772000Y-52524000D01*
X167772000Y-52524000D02*
X168272000Y-52524000D01*
X160552000Y-53334000D02*
X161552000Y-53334000D01*
X161552000Y-53334000D02*
X161552000Y-54834000D01*
X168272000Y-53334000D02*
X167272000Y-53334000D01*
X167272000Y-53334000D02*
X167272000Y-54834000D01*
X160252000Y-52634000D02*
X160252000Y-55134000D01*
X160252000Y-55134000D02*
X162752000Y-55134000D01*
X170792000Y-50814000D02*
X170792000Y-54834000D01*
X170792000Y-54834000D02*
X178512000Y-54834000D01*
X178512000Y-54834000D02*
X178512000Y-50814000D01*
X178512000Y-50814000D02*
X170792000Y-50814000D01*
X170792000Y-52524000D02*
X171292000Y-52524000D01*
X171292000Y-52524000D02*
X171292000Y-51314000D01*
X171292000Y-51314000D02*
X178012000Y-51314000D01*
X178012000Y-51314000D02*
X178012000Y-52524000D01*
X178012000Y-52524000D02*
X178512000Y-52524000D01*
X170792000Y-53334000D02*
X171792000Y-53334000D01*
X171792000Y-53334000D02*
X171792000Y-54834000D01*
X178512000Y-53334000D02*
X177512000Y-53334000D01*
X177512000Y-53334000D02*
X177512000Y-54834000D01*
X170492000Y-52634000D02*
X170492000Y-55134000D01*
X170492000Y-55134000D02*
X172992000Y-55134000D01*
X95800000Y-123361000D02*
X95800000Y-119461000D01*
X97800000Y-123361000D02*
X97800000Y-119461000D01*
X95800000Y-123361000D02*
X97800000Y-123361000D01*
D10*
X89408000Y-136906000D02*
X89408000Y-114046000D01*
X89408000Y-114046000D02*
X91948000Y-114046000D01*
X91948000Y-114046000D02*
X91948000Y-136906000D01*
X89128000Y-139726000D02*
X89128000Y-138176000D01*
X89408000Y-136906000D02*
X91948000Y-136906000D01*
X92228000Y-138176000D02*
X92228000Y-139726000D01*
X92228000Y-139726000D02*
X89128000Y-139726000D01*
X103652380Y-92238095D02*
X104461904Y-92238095D01*
X104557142Y-92190476D01*
X104604761Y-92142857D01*
X104652380Y-92047619D01*
X104652380Y-91857142D01*
X104604761Y-91761904D01*
X104557142Y-91714285D01*
X104461904Y-91666666D01*
X103652380Y-91666666D01*
X104652380Y-90666666D02*
X104652380Y-91238095D01*
X104652380Y-90952380D02*
X103652380Y-90952380D01*
X103795238Y-91047619D01*
X103890476Y-91142857D01*
X103938095Y-91238095D01*
X104652380Y-89714285D02*
X104652380Y-90285714D01*
X104652380Y-90000000D02*
X103652380Y-90000000D01*
X103795238Y-90095238D01*
X103890476Y-90190476D01*
X103938095Y-90285714D01*
X111452380Y-95047619D02*
X111452380Y-95523809D01*
X110452380Y-95523809D01*
X111452380Y-94714285D02*
X110452380Y-94714285D01*
X111166666Y-94380952D01*
X110452380Y-94047619D01*
X111452380Y-94047619D01*
X111452380Y-93000000D02*
X110976190Y-93333333D01*
X111452380Y-93571428D02*
X110452380Y-93571428D01*
X110452380Y-93190476D01*
X110500000Y-93095238D01*
X110547619Y-93047619D01*
X110642857Y-93000000D01*
X110785714Y-93000000D01*
X110880952Y-93047619D01*
X110928571Y-93095238D01*
X110976190Y-93190476D01*
X110976190Y-93571428D01*
X111452380Y-92047619D02*
X111452380Y-92619047D01*
X111452380Y-92333333D02*
X110452380Y-92333333D01*
X110595238Y-92428571D01*
X110690476Y-92523809D01*
X110738095Y-92619047D01*
X110785714Y-91190476D02*
X111452380Y-91190476D01*
X110404761Y-91428571D02*
X111119047Y-91666666D01*
X111119047Y-91047619D01*
X110452380Y-90476190D02*
X110452380Y-90380952D01*
X110500000Y-90285714D01*
X110547619Y-90238095D01*
X110642857Y-90190476D01*
X110833333Y-90142857D01*
X111071428Y-90142857D01*
X111261904Y-90190476D01*
X111357142Y-90238095D01*
X111404761Y-90285714D01*
X111452380Y-90380952D01*
X111452380Y-90476190D01*
X111404761Y-90571428D01*
X111357142Y-90619047D01*
X111261904Y-90666666D01*
X111071428Y-90714285D01*
X110833333Y-90714285D01*
X110642857Y-90666666D01*
X110547619Y-90619047D01*
X110500000Y-90571428D01*
X110452380Y-90476190D01*
X110452380Y-89809523D02*
X110452380Y-89190476D01*
X110833333Y-89523809D01*
X110833333Y-89380952D01*
X110880952Y-89285714D01*
X110928571Y-89238095D01*
X111023809Y-89190476D01*
X111261904Y-89190476D01*
X111357142Y-89238095D01*
X111404761Y-89285714D01*
X111452380Y-89380952D01*
X111452380Y-89666666D01*
X111404761Y-89761904D01*
X111357142Y-89809523D01*
X110452380Y-88571428D02*
X110452380Y-88476190D01*
X110500000Y-88380952D01*
X110547619Y-88333333D01*
X110642857Y-88285714D01*
X110833333Y-88238095D01*
X111071428Y-88238095D01*
X111261904Y-88285714D01*
X111357142Y-88333333D01*
X111404761Y-88380952D01*
X111452380Y-88476190D01*
X111452380Y-88571428D01*
X111404761Y-88666666D01*
X111357142Y-88714285D01*
X111261904Y-88761904D01*
X111071428Y-88809523D01*
X110833333Y-88809523D01*
X110642857Y-88761904D01*
X110547619Y-88714285D01*
X110500000Y-88666666D01*
X110452380Y-88571428D01*
X111404761Y-87857142D02*
X111452380Y-87714285D01*
X111452380Y-87476190D01*
X111404761Y-87380952D01*
X111357142Y-87333333D01*
X111261904Y-87285714D01*
X111166666Y-87285714D01*
X111071428Y-87333333D01*
X111023809Y-87380952D01*
X110976190Y-87476190D01*
X110928571Y-87666666D01*
X110880952Y-87761904D01*
X110833333Y-87809523D01*
X110738095Y-87857142D01*
X110642857Y-87857142D01*
X110547619Y-87809523D01*
X110500000Y-87761904D01*
X110452380Y-87666666D01*
X110452380Y-87428571D01*
X110500000Y-87285714D01*
X111452380Y-86857142D02*
X110452380Y-86857142D01*
X110452380Y-86619047D01*
X110500000Y-86476190D01*
X110595238Y-86380952D01*
X110690476Y-86333333D01*
X110880952Y-86285714D01*
X111023809Y-86285714D01*
X111214285Y-86333333D01*
X111309523Y-86380952D01*
X111404761Y-86476190D01*
X111452380Y-86619047D01*
X111452380Y-86857142D01*
X111452380Y-85857142D02*
X110452380Y-85857142D01*
X110452380Y-85619047D01*
X110500000Y-85476190D01*
X110595238Y-85380952D01*
X110690476Y-85333333D01*
X110880952Y-85285714D01*
X111023809Y-85285714D01*
X111214285Y-85333333D01*
X111309523Y-85380952D01*
X111404761Y-85476190D01*
X111452380Y-85619047D01*
X111452380Y-85857142D01*
X111166666Y-84904761D02*
X111166666Y-84428571D01*
X111452380Y-85000000D02*
X110452380Y-84666666D01*
X111452380Y-84333333D01*
X103822380Y-97675476D02*
X103346190Y-98008809D01*
X103822380Y-98246904D02*
X102822380Y-98246904D01*
X102822380Y-97865952D01*
X102870000Y-97770714D01*
X102917619Y-97723095D01*
X103012857Y-97675476D01*
X103155714Y-97675476D01*
X103250952Y-97723095D01*
X103298571Y-97770714D01*
X103346190Y-97865952D01*
X103346190Y-98246904D01*
X103155714Y-97389761D02*
X103155714Y-97008809D01*
X103822380Y-97246904D02*
X102965238Y-97246904D01*
X102870000Y-97199285D01*
X102822380Y-97104047D01*
X102822380Y-97008809D01*
X103822380Y-96675476D02*
X102822380Y-96675476D01*
X103203333Y-96675476D02*
X103155714Y-96580238D01*
X103155714Y-96389761D01*
X103203333Y-96294523D01*
X103250952Y-96246904D01*
X103346190Y-96199285D01*
X103631904Y-96199285D01*
X103727142Y-96246904D01*
X103774761Y-96294523D01*
X103822380Y-96389761D01*
X103822380Y-96580238D01*
X103774761Y-96675476D01*
X103155714Y-95913571D02*
X103155714Y-95532619D01*
X102822380Y-95770714D02*
X103679523Y-95770714D01*
X103774761Y-95723095D01*
X103822380Y-95627857D01*
X103822380Y-95532619D01*
X103822380Y-94675476D02*
X103822380Y-95246904D01*
X103822380Y-94961190D02*
X102822380Y-94961190D01*
X102965238Y-95056428D01*
X103060476Y-95151666D01*
X103108095Y-95246904D01*
X102527857Y-93482380D02*
X102194523Y-93006190D01*
X101956428Y-93482380D02*
X101956428Y-92482380D01*
X102337380Y-92482380D01*
X102432619Y-92530000D01*
X102480238Y-92577619D01*
X102527857Y-92672857D01*
X102527857Y-92815714D01*
X102480238Y-92910952D01*
X102432619Y-92958571D01*
X102337380Y-93006190D01*
X101956428Y-93006190D01*
X102813571Y-92815714D02*
X103194523Y-92815714D01*
X102956428Y-93482380D02*
X102956428Y-92625238D01*
X103004047Y-92530000D01*
X103099285Y-92482380D01*
X103194523Y-92482380D01*
X103527857Y-93482380D02*
X103527857Y-92482380D01*
X103527857Y-92863333D02*
X103623095Y-92815714D01*
X103813571Y-92815714D01*
X103908809Y-92863333D01*
X103956428Y-92910952D01*
X104004047Y-93006190D01*
X104004047Y-93291904D01*
X103956428Y-93387142D01*
X103908809Y-93434761D01*
X103813571Y-93482380D01*
X103623095Y-93482380D01*
X103527857Y-93434761D01*
X104432619Y-93482380D02*
X104432619Y-92482380D01*
X104432619Y-92863333D02*
X104527857Y-92815714D01*
X104718333Y-92815714D01*
X104813571Y-92863333D01*
X104861190Y-92910952D01*
X104908809Y-93006190D01*
X104908809Y-93291904D01*
X104861190Y-93387142D01*
X104813571Y-93434761D01*
X104718333Y-93482380D01*
X104527857Y-93482380D01*
X104432619Y-93434761D01*
X105861190Y-93482380D02*
X105289761Y-93482380D01*
X105575476Y-93482380D02*
X105575476Y-92482380D01*
X105480238Y-92625238D01*
X105385000Y-92720476D01*
X105289761Y-92768095D01*
X103422380Y-87230357D02*
X102946190Y-87563690D01*
X103422380Y-87801785D02*
X102422380Y-87801785D01*
X102422380Y-87420833D01*
X102470000Y-87325595D01*
X102517619Y-87277976D01*
X102612857Y-87230357D01*
X102755714Y-87230357D01*
X102850952Y-87277976D01*
X102898571Y-87325595D01*
X102946190Y-87420833D01*
X102946190Y-87801785D01*
X102755714Y-86373214D02*
X103422380Y-86373214D01*
X102374761Y-86611309D02*
X103089047Y-86849404D01*
X103089047Y-86230357D01*
X102850952Y-85706547D02*
X102803333Y-85801785D01*
X102755714Y-85849404D01*
X102660476Y-85897023D01*
X102612857Y-85897023D01*
X102517619Y-85849404D01*
X102470000Y-85801785D01*
X102422380Y-85706547D01*
X102422380Y-85516071D01*
X102470000Y-85420833D01*
X102517619Y-85373214D01*
X102612857Y-85325595D01*
X102660476Y-85325595D01*
X102755714Y-85373214D01*
X102803333Y-85420833D01*
X102850952Y-85516071D01*
X102850952Y-85706547D01*
X102898571Y-85801785D01*
X102946190Y-85849404D01*
X103041428Y-85897023D01*
X103231904Y-85897023D01*
X103327142Y-85849404D01*
X103374761Y-85801785D01*
X103422380Y-85706547D01*
X103422380Y-85516071D01*
X103374761Y-85420833D01*
X103327142Y-85373214D01*
X103231904Y-85325595D01*
X103041428Y-85325595D01*
X102946190Y-85373214D01*
X102898571Y-85420833D01*
X102850952Y-85516071D01*
X126757142Y-107652380D02*
X126423809Y-107176190D01*
X126185714Y-107652380D02*
X126185714Y-106652380D01*
X126566666Y-106652380D01*
X126661904Y-106700000D01*
X126709523Y-106747619D01*
X126757142Y-106842857D01*
X126757142Y-106985714D01*
X126709523Y-107080952D01*
X126661904Y-107128571D01*
X126566666Y-107176190D01*
X126185714Y-107176190D01*
X127614285Y-106985714D02*
X127614285Y-107652380D01*
X127376190Y-106604761D02*
X127138095Y-107319047D01*
X127757142Y-107319047D01*
X128042857Y-106652380D02*
X128709523Y-106652380D01*
X128280952Y-107652380D01*
X115052380Y-100166666D02*
X115052380Y-100642857D01*
X114052380Y-100642857D01*
X115052380Y-99309523D02*
X115052380Y-99880952D01*
X115052380Y-99595238D02*
X114052380Y-99595238D01*
X114195238Y-99690476D01*
X114290476Y-99785714D01*
X114338095Y-99880952D01*
X120352380Y-91814285D02*
X119352380Y-91814285D01*
X119352380Y-91576190D01*
X119400000Y-91433333D01*
X119495238Y-91338095D01*
X119590476Y-91290476D01*
X119780952Y-91242857D01*
X119923809Y-91242857D01*
X120114285Y-91290476D01*
X120209523Y-91338095D01*
X120304761Y-91433333D01*
X120352380Y-91576190D01*
X120352380Y-91814285D01*
X119447619Y-90861904D02*
X119400000Y-90814285D01*
X119352380Y-90719047D01*
X119352380Y-90480952D01*
X119400000Y-90385714D01*
X119447619Y-90338095D01*
X119542857Y-90290476D01*
X119638095Y-90290476D01*
X119780952Y-90338095D01*
X120352380Y-90909523D01*
X120352380Y-90290476D01*
X120352380Y-89338095D02*
X120352380Y-89909523D01*
X120352380Y-89623809D02*
X119352380Y-89623809D01*
X119495238Y-89719047D01*
X119590476Y-89814285D01*
X119638095Y-89909523D01*
X91835714Y-92652380D02*
X91835714Y-91652380D01*
X92073809Y-91652380D01*
X92216666Y-91700000D01*
X92311904Y-91795238D01*
X92359523Y-91890476D01*
X92407142Y-92080952D01*
X92407142Y-92223809D01*
X92359523Y-92414285D01*
X92311904Y-92509523D01*
X92216666Y-92604761D01*
X92073809Y-92652380D01*
X91835714Y-92652380D01*
X92788095Y-91747619D02*
X92835714Y-91700000D01*
X92930952Y-91652380D01*
X93169047Y-91652380D01*
X93264285Y-91700000D01*
X93311904Y-91747619D01*
X93359523Y-91842857D01*
X93359523Y-91938095D01*
X93311904Y-92080952D01*
X92740476Y-92652380D01*
X93359523Y-92652380D01*
X93978571Y-91652380D02*
X94073809Y-91652380D01*
X94169047Y-91700000D01*
X94216666Y-91747619D01*
X94264285Y-91842857D01*
X94311904Y-92033333D01*
X94311904Y-92271428D01*
X94264285Y-92461904D01*
X94216666Y-92557142D01*
X94169047Y-92604761D01*
X94073809Y-92652380D01*
X93978571Y-92652380D01*
X93883333Y-92604761D01*
X93835714Y-92557142D01*
X93788095Y-92461904D01*
X93740476Y-92271428D01*
X93740476Y-92033333D01*
X93788095Y-91842857D01*
X93835714Y-91747619D01*
X93883333Y-91700000D01*
X93978571Y-91652380D01*
X116907142Y-105357142D02*
X116954761Y-105404761D01*
X117002380Y-105547619D01*
X117002380Y-105642857D01*
X116954761Y-105785714D01*
X116859523Y-105880952D01*
X116764285Y-105928571D01*
X116573809Y-105976190D01*
X116430952Y-105976190D01*
X116240476Y-105928571D01*
X116145238Y-105880952D01*
X116050000Y-105785714D01*
X116002380Y-105642857D01*
X116002380Y-105547619D01*
X116050000Y-105404761D01*
X116097619Y-105357142D01*
X117002380Y-104785714D02*
X116954761Y-104880952D01*
X116907142Y-104928571D01*
X116811904Y-104976190D01*
X116526190Y-104976190D01*
X116430952Y-104928571D01*
X116383333Y-104880952D01*
X116335714Y-104785714D01*
X116335714Y-104642857D01*
X116383333Y-104547619D01*
X116430952Y-104500000D01*
X116526190Y-104452380D01*
X116811904Y-104452380D01*
X116907142Y-104500000D01*
X116954761Y-104547619D01*
X117002380Y-104642857D01*
X117002380Y-104785714D01*
X116335714Y-103595238D02*
X117002380Y-103595238D01*
X116335714Y-104023809D02*
X116859523Y-104023809D01*
X116954761Y-103976190D01*
X117002380Y-103880952D01*
X117002380Y-103738095D01*
X116954761Y-103642857D01*
X116907142Y-103595238D01*
X116335714Y-103261904D02*
X116335714Y-102880952D01*
X116002380Y-103119047D02*
X116859523Y-103119047D01*
X116954761Y-103071428D01*
X117002380Y-102976190D01*
X117002380Y-102880952D01*
X116335714Y-102119047D02*
X117002380Y-102119047D01*
X115954761Y-102357142D02*
X116669047Y-102595238D01*
X116669047Y-101976190D01*
X113707142Y-105357142D02*
X113754761Y-105404761D01*
X113802380Y-105547619D01*
X113802380Y-105642857D01*
X113754761Y-105785714D01*
X113659523Y-105880952D01*
X113564285Y-105928571D01*
X113373809Y-105976190D01*
X113230952Y-105976190D01*
X113040476Y-105928571D01*
X112945238Y-105880952D01*
X112850000Y-105785714D01*
X112802380Y-105642857D01*
X112802380Y-105547619D01*
X112850000Y-105404761D01*
X112897619Y-105357142D01*
X113802380Y-104785714D02*
X113754761Y-104880952D01*
X113707142Y-104928571D01*
X113611904Y-104976190D01*
X113326190Y-104976190D01*
X113230952Y-104928571D01*
X113183333Y-104880952D01*
X113135714Y-104785714D01*
X113135714Y-104642857D01*
X113183333Y-104547619D01*
X113230952Y-104500000D01*
X113326190Y-104452380D01*
X113611904Y-104452380D01*
X113707142Y-104500000D01*
X113754761Y-104547619D01*
X113802380Y-104642857D01*
X113802380Y-104785714D01*
X113135714Y-103595238D02*
X113802380Y-103595238D01*
X113135714Y-104023809D02*
X113659523Y-104023809D01*
X113754761Y-103976190D01*
X113802380Y-103880952D01*
X113802380Y-103738095D01*
X113754761Y-103642857D01*
X113707142Y-103595238D01*
X113135714Y-103261904D02*
X113135714Y-102880952D01*
X112802380Y-103119047D02*
X113659523Y-103119047D01*
X113754761Y-103071428D01*
X113802380Y-102976190D01*
X113802380Y-102880952D01*
X112802380Y-102642857D02*
X112802380Y-102023809D01*
X113183333Y-102357142D01*
X113183333Y-102214285D01*
X113230952Y-102119047D01*
X113278571Y-102071428D01*
X113373809Y-102023809D01*
X113611904Y-102023809D01*
X113707142Y-102071428D01*
X113754761Y-102119047D01*
X113802380Y-102214285D01*
X113802380Y-102500000D01*
X113754761Y-102595238D01*
X113707142Y-102642857D01*
X103507142Y-105094642D02*
X103554761Y-105142261D01*
X103602380Y-105285119D01*
X103602380Y-105380357D01*
X103554761Y-105523214D01*
X103459523Y-105618452D01*
X103364285Y-105666071D01*
X103173809Y-105713690D01*
X103030952Y-105713690D01*
X102840476Y-105666071D01*
X102745238Y-105618452D01*
X102650000Y-105523214D01*
X102602380Y-105380357D01*
X102602380Y-105285119D01*
X102650000Y-105142261D01*
X102697619Y-105094642D01*
X103602380Y-104523214D02*
X103554761Y-104618452D01*
X103507142Y-104666071D01*
X103411904Y-104713690D01*
X103126190Y-104713690D01*
X103030952Y-104666071D01*
X102983333Y-104618452D01*
X102935714Y-104523214D01*
X102935714Y-104380357D01*
X102983333Y-104285119D01*
X103030952Y-104237500D01*
X103126190Y-104189880D01*
X103411904Y-104189880D01*
X103507142Y-104237500D01*
X103554761Y-104285119D01*
X103602380Y-104380357D01*
X103602380Y-104523214D01*
X102935714Y-103332738D02*
X103602380Y-103332738D01*
X102935714Y-103761309D02*
X103459523Y-103761309D01*
X103554761Y-103713690D01*
X103602380Y-103618452D01*
X103602380Y-103475595D01*
X103554761Y-103380357D01*
X103507142Y-103332738D01*
X102935714Y-102999404D02*
X102935714Y-102618452D01*
X102602380Y-102856547D02*
X103459523Y-102856547D01*
X103554761Y-102808928D01*
X103602380Y-102713690D01*
X103602380Y-102618452D01*
X102697619Y-102332738D02*
X102650000Y-102285119D01*
X102602380Y-102189880D01*
X102602380Y-101951785D01*
X102650000Y-101856547D01*
X102697619Y-101808928D01*
X102792857Y-101761309D01*
X102888095Y-101761309D01*
X103030952Y-101808928D01*
X103602380Y-102380357D01*
X103602380Y-101761309D01*
X100232143Y-105062141D02*
X100279762Y-105109760D01*
X100327381Y-105252618D01*
X100327381Y-105347856D01*
X100279762Y-105490713D01*
X100184524Y-105585951D01*
X100089286Y-105633570D01*
X99898810Y-105681189D01*
X99755953Y-105681189D01*
X99565477Y-105633570D01*
X99470239Y-105585951D01*
X99375001Y-105490713D01*
X99327381Y-105347856D01*
X99327381Y-105252618D01*
X99375001Y-105109760D01*
X99422620Y-105062141D01*
X100327381Y-104490713D02*
X100279762Y-104585951D01*
X100232143Y-104633570D01*
X100136905Y-104681189D01*
X99851191Y-104681189D01*
X99755953Y-104633570D01*
X99708334Y-104585951D01*
X99660715Y-104490713D01*
X99660715Y-104347856D01*
X99708334Y-104252618D01*
X99755953Y-104204999D01*
X99851191Y-104157379D01*
X100136905Y-104157379D01*
X100232143Y-104204999D01*
X100279762Y-104252618D01*
X100327381Y-104347856D01*
X100327381Y-104490713D01*
X99660715Y-103300237D02*
X100327381Y-103300237D01*
X99660715Y-103728808D02*
X100184524Y-103728808D01*
X100279762Y-103681189D01*
X100327381Y-103585951D01*
X100327381Y-103443094D01*
X100279762Y-103347856D01*
X100232143Y-103300237D01*
X99660715Y-102966903D02*
X99660715Y-102585951D01*
X99327381Y-102824046D02*
X100184524Y-102824046D01*
X100279762Y-102776427D01*
X100327381Y-102681189D01*
X100327381Y-102585951D01*
X100327381Y-101728808D02*
X100327381Y-102300237D01*
X100327381Y-102014522D02*
X99327381Y-102014522D01*
X99470239Y-102109760D01*
X99565477Y-102204999D01*
X99613096Y-102300237D01*
X108607142Y-84594642D02*
X108654761Y-84642261D01*
X108702380Y-84785119D01*
X108702380Y-84880357D01*
X108654761Y-85023214D01*
X108559523Y-85118452D01*
X108464285Y-85166071D01*
X108273809Y-85213690D01*
X108130952Y-85213690D01*
X107940476Y-85166071D01*
X107845238Y-85118452D01*
X107750000Y-85023214D01*
X107702380Y-84880357D01*
X107702380Y-84785119D01*
X107750000Y-84642261D01*
X107797619Y-84594642D01*
X108702380Y-84166071D02*
X108035714Y-84166071D01*
X107702380Y-84166071D02*
X107750000Y-84213690D01*
X107797619Y-84166071D01*
X107750000Y-84118452D01*
X107702380Y-84166071D01*
X107797619Y-84166071D01*
X108035714Y-83689880D02*
X108702380Y-83689880D01*
X108130952Y-83689880D02*
X108083333Y-83642261D01*
X108035714Y-83547023D01*
X108035714Y-83404166D01*
X108083333Y-83308928D01*
X108178571Y-83261309D01*
X108702380Y-83261309D01*
X108702380Y-82261309D02*
X108702380Y-82832738D01*
X108702380Y-82547023D02*
X107702380Y-82547023D01*
X107845238Y-82642261D01*
X107940476Y-82737500D01*
X107988095Y-82832738D01*
X105695238Y-86957142D02*
X105647619Y-87004761D01*
X105504761Y-87052380D01*
X105409523Y-87052380D01*
X105266666Y-87004761D01*
X105171428Y-86909523D01*
X105123809Y-86814285D01*
X105076190Y-86623809D01*
X105076190Y-86480952D01*
X105123809Y-86290476D01*
X105171428Y-86195238D01*
X105266666Y-86100000D01*
X105409523Y-86052380D01*
X105504761Y-86052380D01*
X105647619Y-86100000D01*
X105695238Y-86147619D01*
X106123809Y-87052380D02*
X106123809Y-86052380D01*
X106552380Y-87052380D02*
X106552380Y-86528571D01*
X106504761Y-86433333D01*
X106409523Y-86385714D01*
X106266666Y-86385714D01*
X106171428Y-86433333D01*
X106123809Y-86480952D01*
X106885714Y-86385714D02*
X107266666Y-86385714D01*
X107028571Y-87052380D02*
X107028571Y-86195238D01*
X107076190Y-86100000D01*
X107171428Y-86052380D01*
X107266666Y-86052380D01*
X108123809Y-87052380D02*
X107552380Y-87052380D01*
X107838095Y-87052380D02*
X107838095Y-86052380D01*
X107742857Y-86195238D01*
X107647619Y-86290476D01*
X107552380Y-86338095D01*
X112557142Y-89809523D02*
X112604761Y-89857142D01*
X112652380Y-90000000D01*
X112652380Y-90095238D01*
X112604761Y-90238095D01*
X112509523Y-90333333D01*
X112414285Y-90380952D01*
X112223809Y-90428571D01*
X112080952Y-90428571D01*
X111890476Y-90380952D01*
X111795238Y-90333333D01*
X111700000Y-90238095D01*
X111652380Y-90095238D01*
X111652380Y-90000000D01*
X111700000Y-89857142D01*
X111747619Y-89809523D01*
X112652380Y-89380952D02*
X111652380Y-89380952D01*
X112033333Y-89380952D02*
X111985714Y-89285714D01*
X111985714Y-89095238D01*
X112033333Y-89000000D01*
X112080952Y-88952380D01*
X112176190Y-88904761D01*
X112461904Y-88904761D01*
X112557142Y-88952380D01*
X112604761Y-89000000D01*
X112652380Y-89095238D01*
X112652380Y-89285714D01*
X112604761Y-89380952D01*
X112652380Y-88333333D02*
X112604761Y-88428571D01*
X112557142Y-88476190D01*
X112461904Y-88523809D01*
X112176190Y-88523809D01*
X112080952Y-88476190D01*
X112033333Y-88428571D01*
X111985714Y-88333333D01*
X111985714Y-88190476D01*
X112033333Y-88095238D01*
X112080952Y-88047619D01*
X112176190Y-88000000D01*
X112461904Y-88000000D01*
X112557142Y-88047619D01*
X112604761Y-88095238D01*
X112652380Y-88190476D01*
X112652380Y-88333333D01*
X112652380Y-87428571D02*
X112604761Y-87523809D01*
X112557142Y-87571428D01*
X112461904Y-87619047D01*
X112176190Y-87619047D01*
X112080952Y-87571428D01*
X112033333Y-87523809D01*
X111985714Y-87428571D01*
X111985714Y-87285714D01*
X112033333Y-87190476D01*
X112080952Y-87142857D01*
X112176190Y-87095238D01*
X112461904Y-87095238D01*
X112557142Y-87142857D01*
X112604761Y-87190476D01*
X112652380Y-87285714D01*
X112652380Y-87428571D01*
X111985714Y-86809523D02*
X111985714Y-86428571D01*
X111652380Y-86666666D02*
X112509523Y-86666666D01*
X112604761Y-86619047D01*
X112652380Y-86523809D01*
X112652380Y-86428571D01*
X112652380Y-85571428D02*
X112652380Y-86142857D01*
X112652380Y-85857142D02*
X111652380Y-85857142D01*
X111795238Y-85952380D01*
X111890476Y-86047619D01*
X111938095Y-86142857D01*
X105157142Y-97387142D02*
X105109523Y-97434761D01*
X104966666Y-97482380D01*
X104871428Y-97482380D01*
X104728571Y-97434761D01*
X104633333Y-97339523D01*
X104585714Y-97244285D01*
X104538095Y-97053809D01*
X104538095Y-96910952D01*
X104585714Y-96720476D01*
X104633333Y-96625238D01*
X104728571Y-96530000D01*
X104871428Y-96482380D01*
X104966666Y-96482380D01*
X105109523Y-96530000D01*
X105157142Y-96577619D01*
X106109523Y-97482380D02*
X105538095Y-97482380D01*
X105823809Y-97482380D02*
X105823809Y-96482380D01*
X105728571Y-96625238D01*
X105633333Y-96720476D01*
X105538095Y-96768095D01*
X106680952Y-96910952D02*
X106585714Y-96863333D01*
X106538095Y-96815714D01*
X106490476Y-96720476D01*
X106490476Y-96672857D01*
X106538095Y-96577619D01*
X106585714Y-96530000D01*
X106680952Y-96482380D01*
X106871428Y-96482380D01*
X106966666Y-96530000D01*
X107014285Y-96577619D01*
X107061904Y-96672857D01*
X107061904Y-96720476D01*
X107014285Y-96815714D01*
X106966666Y-96863333D01*
X106871428Y-96910952D01*
X106680952Y-96910952D01*
X106585714Y-96958571D01*
X106538095Y-97006190D01*
X106490476Y-97101428D01*
X106490476Y-97291904D01*
X106538095Y-97387142D01*
X106585714Y-97434761D01*
X106680952Y-97482380D01*
X106871428Y-97482380D01*
X106966666Y-97434761D01*
X107014285Y-97387142D01*
X107061904Y-97291904D01*
X107061904Y-97101428D01*
X107014285Y-97006190D01*
X106966666Y-96958571D01*
X106871428Y-96910952D01*
X92207142Y-101607142D02*
X92159523Y-101654761D01*
X92016666Y-101702380D01*
X91921428Y-101702380D01*
X91778571Y-101654761D01*
X91683333Y-101559523D01*
X91635714Y-101464285D01*
X91588095Y-101273809D01*
X91588095Y-101130952D01*
X91635714Y-100940476D01*
X91683333Y-100845238D01*
X91778571Y-100750000D01*
X91921428Y-100702380D01*
X92016666Y-100702380D01*
X92159523Y-100750000D01*
X92207142Y-100797619D01*
X93159523Y-101702380D02*
X92588095Y-101702380D01*
X92873809Y-101702380D02*
X92873809Y-100702380D01*
X92778571Y-100845238D01*
X92683333Y-100940476D01*
X92588095Y-100988095D01*
X93492857Y-100702380D02*
X94159523Y-100702380D01*
X93730952Y-101702380D01*
X100238095Y-87152380D02*
X100238095Y-86152380D01*
X100238095Y-86628571D02*
X100809523Y-86628571D01*
X100809523Y-87152380D02*
X100809523Y-86152380D01*
X101714285Y-86152380D02*
X101523809Y-86152380D01*
X101428571Y-86200000D01*
X101380952Y-86247619D01*
X101285714Y-86390476D01*
X101238095Y-86580952D01*
X101238095Y-86961904D01*
X101285714Y-87057142D01*
X101333333Y-87104761D01*
X101428571Y-87152380D01*
X101619047Y-87152380D01*
X101714285Y-87104761D01*
X101761904Y-87057142D01*
X101809523Y-86961904D01*
X101809523Y-86723809D01*
X101761904Y-86628571D01*
X101714285Y-86580952D01*
X101619047Y-86533333D01*
X101428571Y-86533333D01*
X101333333Y-86580952D01*
X101285714Y-86628571D01*
X101238095Y-86723809D01*
X176238095Y-87152380D02*
X176238095Y-86152380D01*
X176238095Y-86628571D02*
X176809523Y-86628571D01*
X176809523Y-87152380D02*
X176809523Y-86152380D01*
X177190476Y-86152380D02*
X177857142Y-86152380D01*
X177428571Y-87152380D01*
X176238095Y-71152380D02*
X176238095Y-70152380D01*
X176238095Y-70628571D02*
X176809523Y-70628571D01*
X176809523Y-71152380D02*
X176809523Y-70152380D01*
X177761904Y-70152380D02*
X177285714Y-70152380D01*
X177238095Y-70628571D01*
X177285714Y-70580952D01*
X177380952Y-70533333D01*
X177619047Y-70533333D01*
X177714285Y-70580952D01*
X177761904Y-70628571D01*
X177809523Y-70723809D01*
X177809523Y-70961904D01*
X177761904Y-71057142D01*
X177714285Y-71104761D01*
X177619047Y-71152380D01*
X177380952Y-71152380D01*
X177285714Y-71104761D01*
X177238095Y-71057142D01*
X100238095Y-71152380D02*
X100238095Y-70152380D01*
X100238095Y-70628571D02*
X100809523Y-70628571D01*
X100809523Y-71152380D02*
X100809523Y-70152380D01*
X101714285Y-70485714D02*
X101714285Y-71152380D01*
X101476190Y-70104761D02*
X101238095Y-70819047D01*
X101857142Y-70819047D01*
X132652380Y-98242857D02*
X132176190Y-98576190D01*
X132652380Y-98814285D02*
X131652380Y-98814285D01*
X131652380Y-98433333D01*
X131700000Y-98338095D01*
X131747619Y-98290476D01*
X131842857Y-98242857D01*
X131985714Y-98242857D01*
X132080952Y-98290476D01*
X132128571Y-98338095D01*
X132176190Y-98433333D01*
X132176190Y-98814285D01*
X131985714Y-97385714D02*
X132652380Y-97385714D01*
X131604761Y-97623809D02*
X132319047Y-97861904D01*
X132319047Y-97242857D01*
X131652380Y-96433333D02*
X131652380Y-96623809D01*
X131700000Y-96719047D01*
X131747619Y-96766666D01*
X131890476Y-96861904D01*
X132080952Y-96909523D01*
X132461904Y-96909523D01*
X132557142Y-96861904D01*
X132604761Y-96814285D01*
X132652380Y-96719047D01*
X132652380Y-96528571D01*
X132604761Y-96433333D01*
X132557142Y-96385714D01*
X132461904Y-96338095D01*
X132223809Y-96338095D01*
X132128571Y-96385714D01*
X132080952Y-96433333D01*
X132033333Y-96528571D01*
X132033333Y-96719047D01*
X132080952Y-96814285D01*
X132128571Y-96861904D01*
X132223809Y-96909523D01*
X92811904Y-109252380D02*
X92811904Y-108252380D01*
X93192857Y-108252380D01*
X93288095Y-108300000D01*
X93335714Y-108347619D01*
X93383333Y-108442857D01*
X93383333Y-108585714D01*
X93335714Y-108680952D01*
X93288095Y-108728571D01*
X93192857Y-108776190D01*
X92811904Y-108776190D01*
X93764285Y-108347619D02*
X93811904Y-108300000D01*
X93907142Y-108252380D01*
X94145238Y-108252380D01*
X94240476Y-108300000D01*
X94288095Y-108347619D01*
X94335714Y-108442857D01*
X94335714Y-108538095D01*
X94288095Y-108680952D01*
X93716666Y-109252380D01*
X94335714Y-109252380D01*
X92511904Y-81452380D02*
X92511904Y-80452380D01*
X92892857Y-80452380D01*
X92988095Y-80500000D01*
X93035714Y-80547619D01*
X93083333Y-80642857D01*
X93083333Y-80785714D01*
X93035714Y-80880952D01*
X92988095Y-80928571D01*
X92892857Y-80976190D01*
X92511904Y-80976190D01*
X94035714Y-81452380D02*
X93464285Y-81452380D01*
X93750000Y-81452380D02*
X93750000Y-80452380D01*
X93654761Y-80595238D01*
X93559523Y-80690476D01*
X93464285Y-80738095D01*
X119790476Y-94252380D02*
X119790476Y-94966666D01*
X119742857Y-95109523D01*
X119647619Y-95204761D01*
X119504761Y-95252380D01*
X119409523Y-95252380D01*
X120790476Y-95252380D02*
X120219047Y-95252380D01*
X120504761Y-95252380D02*
X120504761Y-94252380D01*
X120409523Y-94395238D01*
X120314285Y-94490476D01*
X120219047Y-94538095D01*
X121742857Y-95252380D02*
X121171428Y-95252380D01*
X121457142Y-95252380D02*
X121457142Y-94252380D01*
X121361904Y-94395238D01*
X121266666Y-94490476D01*
X121171428Y-94538095D01*
X119790476Y-99252380D02*
X119790476Y-99966666D01*
X119742857Y-100109523D01*
X119647619Y-100204761D01*
X119504761Y-100252380D01*
X119409523Y-100252380D01*
X120790476Y-100252380D02*
X120219047Y-100252380D01*
X120504761Y-100252380D02*
X120504761Y-99252380D01*
X120409523Y-99395238D01*
X120314285Y-99490476D01*
X120219047Y-99538095D01*
X121409523Y-99252380D02*
X121504761Y-99252380D01*
X121600000Y-99300000D01*
X121647619Y-99347619D01*
X121695238Y-99442857D01*
X121742857Y-99633333D01*
X121742857Y-99871428D01*
X121695238Y-100061904D01*
X121647619Y-100157142D01*
X121600000Y-100204761D01*
X121504761Y-100252380D01*
X121409523Y-100252380D01*
X121314285Y-100204761D01*
X121266666Y-100157142D01*
X121219047Y-100061904D01*
X121171428Y-99871428D01*
X121171428Y-99633333D01*
X121219047Y-99442857D01*
X121266666Y-99347619D01*
X121314285Y-99300000D01*
X121409523Y-99252380D01*
X120442380Y-88891904D02*
X119442380Y-88891904D01*
X119918571Y-88891904D02*
X119918571Y-88320476D01*
X120442380Y-88320476D02*
X119442380Y-88320476D01*
X119442380Y-87939523D02*
X119442380Y-87320476D01*
X119823333Y-87653809D01*
X119823333Y-87510952D01*
X119870952Y-87415714D01*
X119918571Y-87368095D01*
X120013809Y-87320476D01*
X120251904Y-87320476D01*
X120347142Y-87368095D01*
X120394761Y-87415714D01*
X120442380Y-87510952D01*
X120442380Y-87796666D01*
X120394761Y-87891904D01*
X120347142Y-87939523D01*
X117838095Y-130252380D02*
X117838095Y-131061904D01*
X117885714Y-131157142D01*
X117933333Y-131204761D01*
X118028571Y-131252380D01*
X118219047Y-131252380D01*
X118314285Y-131204761D01*
X118361904Y-131157142D01*
X118409523Y-131061904D01*
X118409523Y-130252380D01*
X119409523Y-131252380D02*
X118838095Y-131252380D01*
X119123809Y-131252380D02*
X119123809Y-130252380D01*
X119028571Y-130395238D01*
X118933333Y-130490476D01*
X118838095Y-130538095D01*
X174557142Y-82222380D02*
X174223809Y-81746190D01*
X173985714Y-82222380D02*
X173985714Y-81222380D01*
X174366666Y-81222380D01*
X174461904Y-81270000D01*
X174509523Y-81317619D01*
X174557142Y-81412857D01*
X174557142Y-81555714D01*
X174509523Y-81650952D01*
X174461904Y-81698571D01*
X174366666Y-81746190D01*
X173985714Y-81746190D01*
X175414285Y-81555714D02*
X175414285Y-82222380D01*
X175176190Y-81174761D02*
X174938095Y-81889047D01*
X175557142Y-81889047D01*
X176414285Y-81222380D02*
X175938095Y-81222380D01*
X175890476Y-81698571D01*
X175938095Y-81650952D01*
X176033333Y-81603333D01*
X176271428Y-81603333D01*
X176366666Y-81650952D01*
X176414285Y-81698571D01*
X176461904Y-81793809D01*
X176461904Y-82031904D01*
X176414285Y-82127142D01*
X176366666Y-82174761D01*
X176271428Y-82222380D01*
X176033333Y-82222380D01*
X175938095Y-82174761D01*
X175890476Y-82127142D01*
X171557142Y-109622380D02*
X171223809Y-109146190D01*
X170985714Y-109622380D02*
X170985714Y-108622380D01*
X171366666Y-108622380D01*
X171461904Y-108670000D01*
X171509523Y-108717619D01*
X171557142Y-108812857D01*
X171557142Y-108955714D01*
X171509523Y-109050952D01*
X171461904Y-109098571D01*
X171366666Y-109146190D01*
X170985714Y-109146190D01*
X172414285Y-108955714D02*
X172414285Y-109622380D01*
X172176190Y-108574761D02*
X171938095Y-109289047D01*
X172557142Y-109289047D01*
X173461904Y-109622380D02*
X172890476Y-109622380D01*
X173176190Y-109622380D02*
X173176190Y-108622380D01*
X173080952Y-108765238D01*
X172985714Y-108860476D01*
X172890476Y-108908095D01*
X93157142Y-124652380D02*
X92823809Y-124176190D01*
X92585714Y-124652380D02*
X92585714Y-123652380D01*
X92966666Y-123652380D01*
X93061904Y-123700000D01*
X93109523Y-123747619D01*
X93157142Y-123842857D01*
X93157142Y-123985714D01*
X93109523Y-124080952D01*
X93061904Y-124128571D01*
X92966666Y-124176190D01*
X92585714Y-124176190D01*
X94014285Y-123985714D02*
X94014285Y-124652380D01*
X93776190Y-123604761D02*
X93538095Y-124319047D01*
X94157142Y-124319047D01*
X94728571Y-123652380D02*
X94823809Y-123652380D01*
X94919047Y-123700000D01*
X94966666Y-123747619D01*
X95014285Y-123842857D01*
X95061904Y-124033333D01*
X95061904Y-124271428D01*
X95014285Y-124461904D01*
X94966666Y-124557142D01*
X94919047Y-124604761D01*
X94823809Y-124652380D01*
X94728571Y-124652380D01*
X94633333Y-124604761D01*
X94585714Y-124557142D01*
X94538095Y-124461904D01*
X94490476Y-124271428D01*
X94490476Y-124033333D01*
X94538095Y-123842857D01*
X94585714Y-123747619D01*
X94633333Y-123700000D01*
X94728571Y-123652380D01*
X172957142Y-106252380D02*
X172623809Y-105776190D01*
X172385714Y-106252380D02*
X172385714Y-105252380D01*
X172766666Y-105252380D01*
X172861904Y-105300000D01*
X172909523Y-105347619D01*
X172957142Y-105442857D01*
X172957142Y-105585714D01*
X172909523Y-105680952D01*
X172861904Y-105728571D01*
X172766666Y-105776190D01*
X172385714Y-105776190D01*
X173909523Y-106252380D02*
X173338095Y-106252380D01*
X173623809Y-106252380D02*
X173623809Y-105252380D01*
X173528571Y-105395238D01*
X173433333Y-105490476D01*
X173338095Y-105538095D01*
X174861904Y-106252380D02*
X174290476Y-106252380D01*
X174576190Y-106252380D02*
X174576190Y-105252380D01*
X174480952Y-105395238D01*
X174385714Y-105490476D01*
X174290476Y-105538095D01*
X167833333Y-84157142D02*
X167785714Y-84204761D01*
X167642857Y-84252380D01*
X167547619Y-84252380D01*
X167404761Y-84204761D01*
X167309523Y-84109523D01*
X167261904Y-84014285D01*
X167214285Y-83823809D01*
X167214285Y-83680952D01*
X167261904Y-83490476D01*
X167309523Y-83395238D01*
X167404761Y-83300000D01*
X167547619Y-83252380D01*
X167642857Y-83252380D01*
X167785714Y-83300000D01*
X167833333Y-83347619D01*
X168214285Y-83347619D02*
X168261904Y-83300000D01*
X168357142Y-83252380D01*
X168595238Y-83252380D01*
X168690476Y-83300000D01*
X168738095Y-83347619D01*
X168785714Y-83442857D01*
X168785714Y-83538095D01*
X168738095Y-83680952D01*
X168166666Y-84252380D01*
X168785714Y-84252380D01*
X157161904Y-74952380D02*
X157161904Y-75761904D01*
X157209523Y-75857142D01*
X157257142Y-75904761D01*
X157352380Y-75952380D01*
X157542857Y-75952380D01*
X157638095Y-75904761D01*
X157685714Y-75857142D01*
X157733333Y-75761904D01*
X157733333Y-74952380D01*
X158733333Y-75952380D02*
X158161904Y-75952380D01*
X158447619Y-75952380D02*
X158447619Y-74952380D01*
X158352380Y-75095238D01*
X158257142Y-75190476D01*
X158161904Y-75238095D01*
X159066666Y-74952380D02*
X159685714Y-74952380D01*
X159352380Y-75333333D01*
X159495238Y-75333333D01*
X159590476Y-75380952D01*
X159638095Y-75428571D01*
X159685714Y-75523809D01*
X159685714Y-75761904D01*
X159638095Y-75857142D01*
X159590476Y-75904761D01*
X159495238Y-75952380D01*
X159209523Y-75952380D01*
X159114285Y-75904761D01*
X159066666Y-75857142D01*
X147003714Y-102107380D02*
X147003714Y-101107380D01*
X147241809Y-101107380D01*
X147384666Y-101155000D01*
X147479904Y-101250238D01*
X147527523Y-101345476D01*
X147575142Y-101535952D01*
X147575142Y-101678809D01*
X147527523Y-101869285D01*
X147479904Y-101964523D01*
X147384666Y-102059761D01*
X147241809Y-102107380D01*
X147003714Y-102107380D01*
X148527523Y-102107380D02*
X147956095Y-102107380D01*
X148241809Y-102107380D02*
X148241809Y-101107380D01*
X148146571Y-101250238D01*
X148051333Y-101345476D01*
X147956095Y-101393095D01*
X148860857Y-101107380D02*
X149479904Y-101107380D01*
X149146571Y-101488333D01*
X149289428Y-101488333D01*
X149384666Y-101535952D01*
X149432285Y-101583571D01*
X149479904Y-101678809D01*
X149479904Y-101916904D01*
X149432285Y-102012142D01*
X149384666Y-102059761D01*
X149289428Y-102107380D01*
X149003714Y-102107380D01*
X148908476Y-102059761D01*
X148860857Y-102012142D01*
X147035714Y-108202380D02*
X147035714Y-107202380D01*
X147273809Y-107202380D01*
X147416666Y-107250000D01*
X147511904Y-107345238D01*
X147559523Y-107440476D01*
X147607142Y-107630952D01*
X147607142Y-107773809D01*
X147559523Y-107964285D01*
X147511904Y-108059523D01*
X147416666Y-108154761D01*
X147273809Y-108202380D01*
X147035714Y-108202380D01*
X148559523Y-108202380D02*
X147988095Y-108202380D01*
X148273809Y-108202380D02*
X148273809Y-107202380D01*
X148178571Y-107345238D01*
X148083333Y-107440476D01*
X147988095Y-107488095D01*
X148940476Y-107297619D02*
X148988095Y-107250000D01*
X149083333Y-107202380D01*
X149321428Y-107202380D01*
X149416666Y-107250000D01*
X149464285Y-107297619D01*
X149511904Y-107392857D01*
X149511904Y-107488095D01*
X149464285Y-107630952D01*
X148892857Y-108202380D01*
X149511904Y-108202380D01*
X147035714Y-114202380D02*
X147035714Y-113202380D01*
X147273809Y-113202380D01*
X147416666Y-113250000D01*
X147511904Y-113345238D01*
X147559523Y-113440476D01*
X147607142Y-113630952D01*
X147607142Y-113773809D01*
X147559523Y-113964285D01*
X147511904Y-114059523D01*
X147416666Y-114154761D01*
X147273809Y-114202380D01*
X147035714Y-114202380D01*
X148559523Y-114202380D02*
X147988095Y-114202380D01*
X148273809Y-114202380D02*
X148273809Y-113202380D01*
X148178571Y-113345238D01*
X148083333Y-113440476D01*
X147988095Y-113488095D01*
X149511904Y-114202380D02*
X148940476Y-114202380D01*
X149226190Y-114202380D02*
X149226190Y-113202380D01*
X149130952Y-113345238D01*
X149035714Y-113440476D01*
X148940476Y-113488095D01*
X146985714Y-120202380D02*
X146985714Y-119202380D01*
X147223809Y-119202380D01*
X147366666Y-119250000D01*
X147461904Y-119345238D01*
X147509523Y-119440476D01*
X147557142Y-119630952D01*
X147557142Y-119773809D01*
X147509523Y-119964285D01*
X147461904Y-120059523D01*
X147366666Y-120154761D01*
X147223809Y-120202380D01*
X146985714Y-120202380D01*
X148509523Y-120202380D02*
X147938095Y-120202380D01*
X148223809Y-120202380D02*
X148223809Y-119202380D01*
X148128571Y-119345238D01*
X148033333Y-119440476D01*
X147938095Y-119488095D01*
X149128571Y-119202380D02*
X149223809Y-119202380D01*
X149319047Y-119250000D01*
X149366666Y-119297619D01*
X149414285Y-119392857D01*
X149461904Y-119583333D01*
X149461904Y-119821428D01*
X149414285Y-120011904D01*
X149366666Y-120107142D01*
X149319047Y-120154761D01*
X149223809Y-120202380D01*
X149128571Y-120202380D01*
X149033333Y-120154761D01*
X148985714Y-120107142D01*
X148938095Y-120011904D01*
X148890476Y-119821428D01*
X148890476Y-119583333D01*
X148938095Y-119392857D01*
X148985714Y-119297619D01*
X149033333Y-119250000D01*
X149128571Y-119202380D01*
X147461904Y-126202380D02*
X147461904Y-125202380D01*
X147700000Y-125202380D01*
X147842857Y-125250000D01*
X147938095Y-125345238D01*
X147985714Y-125440476D01*
X148033333Y-125630952D01*
X148033333Y-125773809D01*
X147985714Y-125964285D01*
X147938095Y-126059523D01*
X147842857Y-126154761D01*
X147700000Y-126202380D01*
X147461904Y-126202380D01*
X148509523Y-126202380D02*
X148700000Y-126202380D01*
X148795238Y-126154761D01*
X148842857Y-126107142D01*
X148938095Y-125964285D01*
X148985714Y-125773809D01*
X148985714Y-125392857D01*
X148938095Y-125297619D01*
X148890476Y-125250000D01*
X148795238Y-125202380D01*
X148604761Y-125202380D01*
X148509523Y-125250000D01*
X148461904Y-125297619D01*
X148414285Y-125392857D01*
X148414285Y-125630952D01*
X148461904Y-125726190D01*
X148509523Y-125773809D01*
X148604761Y-125821428D01*
X148795238Y-125821428D01*
X148890476Y-125773809D01*
X148938095Y-125726190D01*
X148985714Y-125630952D01*
X147461904Y-132202380D02*
X147461904Y-131202380D01*
X147700000Y-131202380D01*
X147842857Y-131250000D01*
X147938095Y-131345238D01*
X147985714Y-131440476D01*
X148033333Y-131630952D01*
X148033333Y-131773809D01*
X147985714Y-131964285D01*
X147938095Y-132059523D01*
X147842857Y-132154761D01*
X147700000Y-132202380D01*
X147461904Y-132202380D01*
X148604761Y-131630952D02*
X148509523Y-131583333D01*
X148461904Y-131535714D01*
X148414285Y-131440476D01*
X148414285Y-131392857D01*
X148461904Y-131297619D01*
X148509523Y-131250000D01*
X148604761Y-131202380D01*
X148795238Y-131202380D01*
X148890476Y-131250000D01*
X148938095Y-131297619D01*
X148985714Y-131392857D01*
X148985714Y-131440476D01*
X148938095Y-131535714D01*
X148890476Y-131583333D01*
X148795238Y-131630952D01*
X148604761Y-131630952D01*
X148509523Y-131678571D01*
X148461904Y-131726190D01*
X148414285Y-131821428D01*
X148414285Y-132011904D01*
X148461904Y-132107142D01*
X148509523Y-132154761D01*
X148604761Y-132202380D01*
X148795238Y-132202380D01*
X148890476Y-132154761D01*
X148938095Y-132107142D01*
X148985714Y-132011904D01*
X148985714Y-131821428D01*
X148938095Y-131726190D01*
X148890476Y-131678571D01*
X148795238Y-131630952D01*
X109123809Y-124376190D02*
X109123809Y-124852380D01*
X108790476Y-123852380D02*
X109123809Y-124376190D01*
X109457142Y-123852380D01*
X110314285Y-124852380D02*
X109742857Y-124852380D01*
X110028571Y-124852380D02*
X110028571Y-123852380D01*
X109933333Y-123995238D01*
X109838095Y-124090476D01*
X109742857Y-124138095D01*
X123561904Y-107852380D02*
X123561904Y-108661904D01*
X123609523Y-108757142D01*
X123657142Y-108804761D01*
X123752380Y-108852380D01*
X123942857Y-108852380D01*
X124038095Y-108804761D01*
X124085714Y-108757142D01*
X124133333Y-108661904D01*
X124133333Y-107852380D01*
X125133333Y-108852380D02*
X124561904Y-108852380D01*
X124847619Y-108852380D02*
X124847619Y-107852380D01*
X124752380Y-107995238D01*
X124657142Y-108090476D01*
X124561904Y-108138095D01*
X126038095Y-107852380D02*
X125561904Y-107852380D01*
X125514285Y-108328571D01*
X125561904Y-108280952D01*
X125657142Y-108233333D01*
X125895238Y-108233333D01*
X125990476Y-108280952D01*
X126038095Y-108328571D01*
X126085714Y-108423809D01*
X126085714Y-108661904D01*
X126038095Y-108757142D01*
X125990476Y-108804761D01*
X125895238Y-108852380D01*
X125657142Y-108852380D01*
X125561904Y-108804761D01*
X125514285Y-108757142D01*
X117561904Y-113532380D02*
X117561904Y-114341904D01*
X117609523Y-114437142D01*
X117657142Y-114484761D01*
X117752380Y-114532380D01*
X117942857Y-114532380D01*
X118038095Y-114484761D01*
X118085714Y-114437142D01*
X118133333Y-114341904D01*
X118133333Y-113532380D01*
X119133333Y-114532380D02*
X118561904Y-114532380D01*
X118847619Y-114532380D02*
X118847619Y-113532380D01*
X118752380Y-113675238D01*
X118657142Y-113770476D01*
X118561904Y-113818095D01*
X119990476Y-113865714D02*
X119990476Y-114532380D01*
X119752380Y-113484761D02*
X119514285Y-114199047D01*
X120133333Y-114199047D01*
X166622380Y-90242857D02*
X166146190Y-90576190D01*
X166622380Y-90814285D02*
X165622380Y-90814285D01*
X165622380Y-90433333D01*
X165670000Y-90338095D01*
X165717619Y-90290476D01*
X165812857Y-90242857D01*
X165955714Y-90242857D01*
X166050952Y-90290476D01*
X166098571Y-90338095D01*
X166146190Y-90433333D01*
X166146190Y-90814285D01*
X165955714Y-89385714D02*
X166622380Y-89385714D01*
X165574761Y-89623809D02*
X166289047Y-89861904D01*
X166289047Y-89242857D01*
X165955714Y-88433333D02*
X166622380Y-88433333D01*
X165574761Y-88671428D02*
X166289047Y-88909523D01*
X166289047Y-88290476D01*
X129852380Y-117842857D02*
X129376190Y-118176190D01*
X129852380Y-118414285D02*
X128852380Y-118414285D01*
X128852380Y-118033333D01*
X128900000Y-117938095D01*
X128947619Y-117890476D01*
X129042857Y-117842857D01*
X129185714Y-117842857D01*
X129280952Y-117890476D01*
X129328571Y-117938095D01*
X129376190Y-118033333D01*
X129376190Y-118414285D01*
X129185714Y-116985714D02*
X129852380Y-116985714D01*
X128804761Y-117223809D02*
X129519047Y-117461904D01*
X129519047Y-116842857D01*
X128852380Y-116557142D02*
X128852380Y-115938095D01*
X129233333Y-116271428D01*
X129233333Y-116128571D01*
X129280952Y-116033333D01*
X129328571Y-115985714D01*
X129423809Y-115938095D01*
X129661904Y-115938095D01*
X129757142Y-115985714D01*
X129804761Y-116033333D01*
X129852380Y-116128571D01*
X129852380Y-116414285D01*
X129804761Y-116509523D01*
X129757142Y-116557142D01*
X165157142Y-93052380D02*
X164823809Y-92576190D01*
X164585714Y-93052380D02*
X164585714Y-92052380D01*
X164966666Y-92052380D01*
X165061904Y-92100000D01*
X165109523Y-92147619D01*
X165157142Y-92242857D01*
X165157142Y-92385714D01*
X165109523Y-92480952D01*
X165061904Y-92528571D01*
X164966666Y-92576190D01*
X164585714Y-92576190D01*
X166014285Y-92385714D02*
X166014285Y-93052380D01*
X165776190Y-92004761D02*
X165538095Y-92719047D01*
X166157142Y-92719047D01*
X166490476Y-92147619D02*
X166538095Y-92100000D01*
X166633333Y-92052380D01*
X166871428Y-92052380D01*
X166966666Y-92100000D01*
X167014285Y-92147619D01*
X167061904Y-92242857D01*
X167061904Y-92338095D01*
X167014285Y-92480952D01*
X166442857Y-93052380D01*
X167061904Y-93052380D01*
X130622380Y-136561904D02*
X129622380Y-136561904D01*
X130098571Y-136561904D02*
X130098571Y-135990476D01*
X130622380Y-135990476D02*
X129622380Y-135990476D01*
X129717619Y-135561904D02*
X129670000Y-135514285D01*
X129622380Y-135419047D01*
X129622380Y-135180952D01*
X129670000Y-135085714D01*
X129717619Y-135038095D01*
X129812857Y-134990476D01*
X129908095Y-134990476D01*
X130050952Y-135038095D01*
X130622380Y-135609523D01*
X130622380Y-134990476D01*
X150757142Y-89042857D02*
X150804761Y-89090476D01*
X150852380Y-89233333D01*
X150852380Y-89328571D01*
X150804761Y-89471428D01*
X150709523Y-89566666D01*
X150614285Y-89614285D01*
X150423809Y-89661904D01*
X150280952Y-89661904D01*
X150090476Y-89614285D01*
X149995238Y-89566666D01*
X149900000Y-89471428D01*
X149852380Y-89328571D01*
X149852380Y-89233333D01*
X149900000Y-89090476D01*
X149947619Y-89042857D01*
X150852380Y-88090476D02*
X150852380Y-88661904D01*
X150852380Y-88376190D02*
X149852380Y-88376190D01*
X149995238Y-88471428D01*
X150090476Y-88566666D01*
X150138095Y-88661904D01*
X149852380Y-87233333D02*
X149852380Y-87423809D01*
X149900000Y-87519047D01*
X149947619Y-87566666D01*
X150090476Y-87661904D01*
X150280952Y-87709523D01*
X150661904Y-87709523D01*
X150757142Y-87661904D01*
X150804761Y-87614285D01*
X150852380Y-87519047D01*
X150852380Y-87328571D01*
X150804761Y-87233333D01*
X150757142Y-87185714D01*
X150661904Y-87138095D01*
X150423809Y-87138095D01*
X150328571Y-87185714D01*
X150280952Y-87233333D01*
X150233333Y-87328571D01*
X150233333Y-87519047D01*
X150280952Y-87614285D01*
X150328571Y-87661904D01*
X150423809Y-87709523D01*
X166042142Y-106727142D02*
X165994523Y-106774761D01*
X165851666Y-106822380D01*
X165756428Y-106822380D01*
X165613571Y-106774761D01*
X165518333Y-106679523D01*
X165470714Y-106584285D01*
X165423095Y-106393809D01*
X165423095Y-106250952D01*
X165470714Y-106060476D01*
X165518333Y-105965238D01*
X165613571Y-105870000D01*
X165756428Y-105822380D01*
X165851666Y-105822380D01*
X165994523Y-105870000D01*
X166042142Y-105917619D01*
X166994523Y-106822380D02*
X166423095Y-106822380D01*
X166708809Y-106822380D02*
X166708809Y-105822380D01*
X166613571Y-105965238D01*
X166518333Y-106060476D01*
X166423095Y-106108095D01*
X167899285Y-105822380D02*
X167423095Y-105822380D01*
X167375476Y-106298571D01*
X167423095Y-106250952D01*
X167518333Y-106203333D01*
X167756428Y-106203333D01*
X167851666Y-106250952D01*
X167899285Y-106298571D01*
X167946904Y-106393809D01*
X167946904Y-106631904D01*
X167899285Y-106727142D01*
X167851666Y-106774761D01*
X167756428Y-106822380D01*
X167518333Y-106822380D01*
X167423095Y-106774761D01*
X167375476Y-106727142D01*
X130557142Y-115357142D02*
X130509523Y-115404761D01*
X130366666Y-115452380D01*
X130271428Y-115452380D01*
X130128571Y-115404761D01*
X130033333Y-115309523D01*
X129985714Y-115214285D01*
X129938095Y-115023809D01*
X129938095Y-114880952D01*
X129985714Y-114690476D01*
X130033333Y-114595238D01*
X130128571Y-114500000D01*
X130271428Y-114452380D01*
X130366666Y-114452380D01*
X130509523Y-114500000D01*
X130557142Y-114547619D01*
X131509523Y-115452380D02*
X130938095Y-115452380D01*
X131223809Y-115452380D02*
X131223809Y-114452380D01*
X131128571Y-114595238D01*
X131033333Y-114690476D01*
X130938095Y-114738095D01*
X132366666Y-114785714D02*
X132366666Y-115452380D01*
X132128571Y-114404761D02*
X131890476Y-115119047D01*
X132509523Y-115119047D01*
X119787142Y-112557857D02*
X119834761Y-112605476D01*
X119882380Y-112748333D01*
X119882380Y-112843571D01*
X119834761Y-112986428D01*
X119739523Y-113081666D01*
X119644285Y-113129285D01*
X119453809Y-113176904D01*
X119310952Y-113176904D01*
X119120476Y-113129285D01*
X119025238Y-113081666D01*
X118930000Y-112986428D01*
X118882380Y-112843571D01*
X118882380Y-112748333D01*
X118930000Y-112605476D01*
X118977619Y-112557857D01*
X119882380Y-111605476D02*
X119882380Y-112176904D01*
X119882380Y-111891190D02*
X118882380Y-111891190D01*
X119025238Y-111986428D01*
X119120476Y-112081666D01*
X119168095Y-112176904D01*
X118882380Y-111272142D02*
X118882380Y-110653095D01*
X119263333Y-110986428D01*
X119263333Y-110843571D01*
X119310952Y-110748333D01*
X119358571Y-110700714D01*
X119453809Y-110653095D01*
X119691904Y-110653095D01*
X119787142Y-110700714D01*
X119834761Y-110748333D01*
X119882380Y-110843571D01*
X119882380Y-111129285D01*
X119834761Y-111224523D01*
X119787142Y-111272142D01*
X111872142Y-121187142D02*
X111824523Y-121234761D01*
X111681666Y-121282380D01*
X111586428Y-121282380D01*
X111443571Y-121234761D01*
X111348333Y-121139523D01*
X111300714Y-121044285D01*
X111253095Y-120853809D01*
X111253095Y-120710952D01*
X111300714Y-120520476D01*
X111348333Y-120425238D01*
X111443571Y-120330000D01*
X111586428Y-120282380D01*
X111681666Y-120282380D01*
X111824523Y-120330000D01*
X111872142Y-120377619D01*
X112824523Y-121282380D02*
X112253095Y-121282380D01*
X112538809Y-121282380D02*
X112538809Y-120282380D01*
X112443571Y-120425238D01*
X112348333Y-120520476D01*
X112253095Y-120568095D01*
X113205476Y-120377619D02*
X113253095Y-120330000D01*
X113348333Y-120282380D01*
X113586428Y-120282380D01*
X113681666Y-120330000D01*
X113729285Y-120377619D01*
X113776904Y-120472857D01*
X113776904Y-120568095D01*
X113729285Y-120710952D01*
X113157857Y-121282380D01*
X113776904Y-121282380D01*
X111842142Y-128127142D02*
X111794523Y-128174761D01*
X111651666Y-128222380D01*
X111556428Y-128222380D01*
X111413571Y-128174761D01*
X111318333Y-128079523D01*
X111270714Y-127984285D01*
X111223095Y-127793809D01*
X111223095Y-127650952D01*
X111270714Y-127460476D01*
X111318333Y-127365238D01*
X111413571Y-127270000D01*
X111556428Y-127222380D01*
X111651666Y-127222380D01*
X111794523Y-127270000D01*
X111842142Y-127317619D01*
X112794523Y-128222380D02*
X112223095Y-128222380D01*
X112508809Y-128222380D02*
X112508809Y-127222380D01*
X112413571Y-127365238D01*
X112318333Y-127460476D01*
X112223095Y-127508095D01*
X113746904Y-128222380D02*
X113175476Y-128222380D01*
X113461190Y-128222380D02*
X113461190Y-127222380D01*
X113365952Y-127365238D01*
X113270714Y-127460476D01*
X113175476Y-127508095D01*
X160829714Y-92876666D02*
X161305904Y-92876666D01*
X160734476Y-93162380D02*
X161067809Y-92162380D01*
X161401142Y-93162380D01*
X162258285Y-93162380D02*
X161686857Y-93162380D01*
X161972571Y-93162380D02*
X161972571Y-92162380D01*
X161877333Y-92305238D01*
X161782095Y-92400476D01*
X161686857Y-92448095D01*
D15*
X107433333Y-67866666D02*
X108566666Y-67866666D01*
X108700000Y-67800000D01*
X108766666Y-67733333D01*
X108833333Y-67600000D01*
X108833333Y-67333333D01*
X108766666Y-67200000D01*
X108700000Y-67133333D01*
X108566666Y-67066666D01*
X107433333Y-67066666D01*
X108033333Y-66200000D02*
X107966666Y-66333333D01*
X107900000Y-66400000D01*
X107766666Y-66466666D01*
X107700000Y-66466666D01*
X107566666Y-66400000D01*
X107500000Y-66333333D01*
X107433333Y-66200000D01*
X107433333Y-65933333D01*
X107500000Y-65800000D01*
X107566666Y-65733333D01*
X107700000Y-65666666D01*
X107766666Y-65666666D01*
X107900000Y-65733333D01*
X107966666Y-65800000D01*
X108033333Y-65933333D01*
X108033333Y-66200000D01*
X108100000Y-66333333D01*
X108166666Y-66400000D01*
X108300000Y-66466666D01*
X108566666Y-66466666D01*
X108700000Y-66400000D01*
X108766666Y-66333333D01*
X108833333Y-66200000D01*
X108833333Y-65933333D01*
X108766666Y-65800000D01*
X108700000Y-65733333D01*
X108566666Y-65666666D01*
X108300000Y-65666666D01*
X108166666Y-65733333D01*
X108100000Y-65800000D01*
X108033333Y-65933333D01*
D10*
X137935714Y-106852380D02*
X137935714Y-105852380D01*
X138173809Y-105852380D01*
X138316666Y-105900000D01*
X138411904Y-105995238D01*
X138459523Y-106090476D01*
X138507142Y-106280952D01*
X138507142Y-106423809D01*
X138459523Y-106614285D01*
X138411904Y-106709523D01*
X138316666Y-106804761D01*
X138173809Y-106852380D01*
X137935714Y-106852380D01*
X139459523Y-106852380D02*
X138888095Y-106852380D01*
X139173809Y-106852380D02*
X139173809Y-105852380D01*
X139078571Y-105995238D01*
X138983333Y-106090476D01*
X138888095Y-106138095D01*
X139935714Y-106852380D02*
X140126190Y-106852380D01*
X140221428Y-106804761D01*
X140269047Y-106757142D01*
X140364285Y-106614285D01*
X140411904Y-106423809D01*
X140411904Y-106042857D01*
X140364285Y-105947619D01*
X140316666Y-105900000D01*
X140221428Y-105852380D01*
X140030952Y-105852380D01*
X139935714Y-105900000D01*
X139888095Y-105947619D01*
X139840476Y-106042857D01*
X139840476Y-106280952D01*
X139888095Y-106376190D01*
X139935714Y-106423809D01*
X140030952Y-106471428D01*
X140221428Y-106471428D01*
X140316666Y-106423809D01*
X140364285Y-106376190D01*
X140411904Y-106280952D01*
X137935714Y-113052380D02*
X137935714Y-112052380D01*
X138173809Y-112052380D01*
X138316666Y-112100000D01*
X138411904Y-112195238D01*
X138459523Y-112290476D01*
X138507142Y-112480952D01*
X138507142Y-112623809D01*
X138459523Y-112814285D01*
X138411904Y-112909523D01*
X138316666Y-113004761D01*
X138173809Y-113052380D01*
X137935714Y-113052380D01*
X139459523Y-113052380D02*
X138888095Y-113052380D01*
X139173809Y-113052380D02*
X139173809Y-112052380D01*
X139078571Y-112195238D01*
X138983333Y-112290476D01*
X138888095Y-112338095D01*
X140030952Y-112480952D02*
X139935714Y-112433333D01*
X139888095Y-112385714D01*
X139840476Y-112290476D01*
X139840476Y-112242857D01*
X139888095Y-112147619D01*
X139935714Y-112100000D01*
X140030952Y-112052380D01*
X140221428Y-112052380D01*
X140316666Y-112100000D01*
X140364285Y-112147619D01*
X140411904Y-112242857D01*
X140411904Y-112290476D01*
X140364285Y-112385714D01*
X140316666Y-112433333D01*
X140221428Y-112480952D01*
X140030952Y-112480952D01*
X139935714Y-112528571D01*
X139888095Y-112576190D01*
X139840476Y-112671428D01*
X139840476Y-112861904D01*
X139888095Y-112957142D01*
X139935714Y-113004761D01*
X140030952Y-113052380D01*
X140221428Y-113052380D01*
X140316666Y-113004761D01*
X140364285Y-112957142D01*
X140411904Y-112861904D01*
X140411904Y-112671428D01*
X140364285Y-112576190D01*
X140316666Y-112528571D01*
X140221428Y-112480952D01*
X137935714Y-119052380D02*
X137935714Y-118052380D01*
X138173809Y-118052380D01*
X138316666Y-118100000D01*
X138411904Y-118195238D01*
X138459523Y-118290476D01*
X138507142Y-118480952D01*
X138507142Y-118623809D01*
X138459523Y-118814285D01*
X138411904Y-118909523D01*
X138316666Y-119004761D01*
X138173809Y-119052380D01*
X137935714Y-119052380D01*
X139459523Y-119052380D02*
X138888095Y-119052380D01*
X139173809Y-119052380D02*
X139173809Y-118052380D01*
X139078571Y-118195238D01*
X138983333Y-118290476D01*
X138888095Y-118338095D01*
X139792857Y-118052380D02*
X140459523Y-118052380D01*
X140030952Y-119052380D01*
X137985714Y-125052380D02*
X137985714Y-124052380D01*
X138223809Y-124052380D01*
X138366666Y-124100000D01*
X138461904Y-124195238D01*
X138509523Y-124290476D01*
X138557142Y-124480952D01*
X138557142Y-124623809D01*
X138509523Y-124814285D01*
X138461904Y-124909523D01*
X138366666Y-125004761D01*
X138223809Y-125052380D01*
X137985714Y-125052380D01*
X139509523Y-125052380D02*
X138938095Y-125052380D01*
X139223809Y-125052380D02*
X139223809Y-124052380D01*
X139128571Y-124195238D01*
X139033333Y-124290476D01*
X138938095Y-124338095D01*
X140366666Y-124052380D02*
X140176190Y-124052380D01*
X140080952Y-124100000D01*
X140033333Y-124147619D01*
X139938095Y-124290476D01*
X139890476Y-124480952D01*
X139890476Y-124861904D01*
X139938095Y-124957142D01*
X139985714Y-125004761D01*
X140080952Y-125052380D01*
X140271428Y-125052380D01*
X140366666Y-125004761D01*
X140414285Y-124957142D01*
X140461904Y-124861904D01*
X140461904Y-124623809D01*
X140414285Y-124528571D01*
X140366666Y-124480952D01*
X140271428Y-124433333D01*
X140080952Y-124433333D01*
X139985714Y-124480952D01*
X139938095Y-124528571D01*
X139890476Y-124623809D01*
X137935714Y-130852380D02*
X137935714Y-129852380D01*
X138173809Y-129852380D01*
X138316666Y-129900000D01*
X138411904Y-129995238D01*
X138459523Y-130090476D01*
X138507142Y-130280952D01*
X138507142Y-130423809D01*
X138459523Y-130614285D01*
X138411904Y-130709523D01*
X138316666Y-130804761D01*
X138173809Y-130852380D01*
X137935714Y-130852380D01*
X139459523Y-130852380D02*
X138888095Y-130852380D01*
X139173809Y-130852380D02*
X139173809Y-129852380D01*
X139078571Y-129995238D01*
X138983333Y-130090476D01*
X138888095Y-130138095D01*
X140364285Y-129852380D02*
X139888095Y-129852380D01*
X139840476Y-130328571D01*
X139888095Y-130280952D01*
X139983333Y-130233333D01*
X140221428Y-130233333D01*
X140316666Y-130280952D01*
X140364285Y-130328571D01*
X140411904Y-130423809D01*
X140411904Y-130661904D01*
X140364285Y-130757142D01*
X140316666Y-130804761D01*
X140221428Y-130852380D01*
X139983333Y-130852380D01*
X139888095Y-130804761D01*
X139840476Y-130757142D01*
X137935714Y-136852380D02*
X137935714Y-135852380D01*
X138173809Y-135852380D01*
X138316666Y-135900000D01*
X138411904Y-135995238D01*
X138459523Y-136090476D01*
X138507142Y-136280952D01*
X138507142Y-136423809D01*
X138459523Y-136614285D01*
X138411904Y-136709523D01*
X138316666Y-136804761D01*
X138173809Y-136852380D01*
X137935714Y-136852380D01*
X139459523Y-136852380D02*
X138888095Y-136852380D01*
X139173809Y-136852380D02*
X139173809Y-135852380D01*
X139078571Y-135995238D01*
X138983333Y-136090476D01*
X138888095Y-136138095D01*
X140316666Y-136185714D02*
X140316666Y-136852380D01*
X140078571Y-135804761D02*
X139840476Y-136519047D01*
X140459523Y-136519047D01*
X103307904Y-131452380D02*
X103307904Y-130452380D01*
X103546000Y-130452380D01*
X103688857Y-130500000D01*
X103784095Y-130595238D01*
X103831714Y-130690476D01*
X103879333Y-130880952D01*
X103879333Y-131023809D01*
X103831714Y-131214285D01*
X103784095Y-131309523D01*
X103688857Y-131404761D01*
X103546000Y-131452380D01*
X103307904Y-131452380D01*
X104736476Y-130452380D02*
X104546000Y-130452380D01*
X104450761Y-130500000D01*
X104403142Y-130547619D01*
X104307904Y-130690476D01*
X104260285Y-130880952D01*
X104260285Y-131261904D01*
X104307904Y-131357142D01*
X104355523Y-131404761D01*
X104450761Y-131452380D01*
X104641238Y-131452380D01*
X104736476Y-131404761D01*
X104784095Y-131357142D01*
X104831714Y-131261904D01*
X104831714Y-131023809D01*
X104784095Y-130928571D01*
X104736476Y-130880952D01*
X104641238Y-130833333D01*
X104450761Y-130833333D01*
X104355523Y-130880952D01*
X104307904Y-130928571D01*
X104260285Y-131023809D01*
X107061904Y-127052380D02*
X107061904Y-126052380D01*
X107300000Y-126052380D01*
X107442857Y-126100000D01*
X107538095Y-126195238D01*
X107585714Y-126290476D01*
X107633333Y-126480952D01*
X107633333Y-126623809D01*
X107585714Y-126814285D01*
X107538095Y-126909523D01*
X107442857Y-127004761D01*
X107300000Y-127052380D01*
X107061904Y-127052380D01*
X108538095Y-126052380D02*
X108061904Y-126052380D01*
X108014285Y-126528571D01*
X108061904Y-126480952D01*
X108157142Y-126433333D01*
X108395238Y-126433333D01*
X108490476Y-126480952D01*
X108538095Y-126528571D01*
X108585714Y-126623809D01*
X108585714Y-126861904D01*
X108538095Y-126957142D01*
X108490476Y-127004761D01*
X108395238Y-127052380D01*
X108157142Y-127052380D01*
X108061904Y-127004761D01*
X108014285Y-126957142D01*
X103307904Y-124452380D02*
X103307904Y-123452380D01*
X103546000Y-123452380D01*
X103688857Y-123500000D01*
X103784095Y-123595238D01*
X103831714Y-123690476D01*
X103879333Y-123880952D01*
X103879333Y-124023809D01*
X103831714Y-124214285D01*
X103784095Y-124309523D01*
X103688857Y-124404761D01*
X103546000Y-124452380D01*
X103307904Y-124452380D01*
X104736476Y-123785714D02*
X104736476Y-124452380D01*
X104498380Y-123404761D02*
X104260285Y-124119047D01*
X104879333Y-124119047D01*
X106661904Y-119852380D02*
X106661904Y-118852380D01*
X106900000Y-118852380D01*
X107042857Y-118900000D01*
X107138095Y-118995238D01*
X107185714Y-119090476D01*
X107233333Y-119280952D01*
X107233333Y-119423809D01*
X107185714Y-119614285D01*
X107138095Y-119709523D01*
X107042857Y-119804761D01*
X106900000Y-119852380D01*
X106661904Y-119852380D01*
X107566666Y-118852380D02*
X108185714Y-118852380D01*
X107852380Y-119233333D01*
X107995238Y-119233333D01*
X108090476Y-119280952D01*
X108138095Y-119328571D01*
X108185714Y-119423809D01*
X108185714Y-119661904D01*
X108138095Y-119757142D01*
X108090476Y-119804761D01*
X107995238Y-119852380D01*
X107709523Y-119852380D01*
X107614285Y-119804761D01*
X107566666Y-119757142D01*
X103405904Y-114652380D02*
X103405904Y-113652380D01*
X103644000Y-113652380D01*
X103786857Y-113700000D01*
X103882095Y-113795238D01*
X103929714Y-113890476D01*
X103977333Y-114080952D01*
X103977333Y-114223809D01*
X103929714Y-114414285D01*
X103882095Y-114509523D01*
X103786857Y-114604761D01*
X103644000Y-114652380D01*
X103405904Y-114652380D01*
X104358285Y-113747619D02*
X104405904Y-113700000D01*
X104501142Y-113652380D01*
X104739238Y-113652380D01*
X104834476Y-113700000D01*
X104882095Y-113747619D01*
X104929714Y-113842857D01*
X104929714Y-113938095D01*
X104882095Y-114080952D01*
X104310666Y-114652380D01*
X104929714Y-114652380D01*
X103357904Y-111252380D02*
X103357904Y-110252380D01*
X103596000Y-110252380D01*
X103738857Y-110300000D01*
X103834095Y-110395238D01*
X103881714Y-110490476D01*
X103929333Y-110680952D01*
X103929333Y-110823809D01*
X103881714Y-111014285D01*
X103834095Y-111109523D01*
X103738857Y-111204761D01*
X103596000Y-111252380D01*
X103357904Y-111252380D01*
X104881714Y-111252380D02*
X104310285Y-111252380D01*
X104596000Y-111252380D02*
X104596000Y-110252380D01*
X104500761Y-110395238D01*
X104405523Y-110490476D01*
X104310285Y-110538095D01*
X99957142Y-128022380D02*
X99623809Y-127546190D01*
X99385714Y-128022380D02*
X99385714Y-127022380D01*
X99766666Y-127022380D01*
X99861904Y-127070000D01*
X99909523Y-127117619D01*
X99957142Y-127212857D01*
X99957142Y-127355714D01*
X99909523Y-127450952D01*
X99861904Y-127498571D01*
X99766666Y-127546190D01*
X99385714Y-127546190D01*
X100909523Y-128022380D02*
X100338095Y-128022380D01*
X100623809Y-128022380D02*
X100623809Y-127022380D01*
X100528571Y-127165238D01*
X100433333Y-127260476D01*
X100338095Y-127308095D01*
X101385714Y-128022380D02*
X101576190Y-128022380D01*
X101671428Y-127974761D01*
X101719047Y-127927142D01*
X101814285Y-127784285D01*
X101861904Y-127593809D01*
X101861904Y-127212857D01*
X101814285Y-127117619D01*
X101766666Y-127070000D01*
X101671428Y-127022380D01*
X101480952Y-127022380D01*
X101385714Y-127070000D01*
X101338095Y-127117619D01*
X101290476Y-127212857D01*
X101290476Y-127450952D01*
X101338095Y-127546190D01*
X101385714Y-127593809D01*
X101480952Y-127641428D01*
X101671428Y-127641428D01*
X101766666Y-127593809D01*
X101814285Y-127546190D01*
X101861904Y-127450952D01*
X99957142Y-131022380D02*
X99623809Y-130546190D01*
X99385714Y-131022380D02*
X99385714Y-130022380D01*
X99766666Y-130022380D01*
X99861904Y-130070000D01*
X99909523Y-130117619D01*
X99957142Y-130212857D01*
X99957142Y-130355714D01*
X99909523Y-130450952D01*
X99861904Y-130498571D01*
X99766666Y-130546190D01*
X99385714Y-130546190D01*
X100909523Y-131022380D02*
X100338095Y-131022380D01*
X100623809Y-131022380D02*
X100623809Y-130022380D01*
X100528571Y-130165238D01*
X100433333Y-130260476D01*
X100338095Y-130308095D01*
X101480952Y-130450952D02*
X101385714Y-130403333D01*
X101338095Y-130355714D01*
X101290476Y-130260476D01*
X101290476Y-130212857D01*
X101338095Y-130117619D01*
X101385714Y-130070000D01*
X101480952Y-130022380D01*
X101671428Y-130022380D01*
X101766666Y-130070000D01*
X101814285Y-130117619D01*
X101861904Y-130212857D01*
X101861904Y-130260476D01*
X101814285Y-130355714D01*
X101766666Y-130403333D01*
X101671428Y-130450952D01*
X101480952Y-130450952D01*
X101385714Y-130498571D01*
X101338095Y-130546190D01*
X101290476Y-130641428D01*
X101290476Y-130831904D01*
X101338095Y-130927142D01*
X101385714Y-130974761D01*
X101480952Y-131022380D01*
X101671428Y-131022380D01*
X101766666Y-130974761D01*
X101814285Y-130927142D01*
X101861904Y-130831904D01*
X101861904Y-130641428D01*
X101814285Y-130546190D01*
X101766666Y-130498571D01*
X101671428Y-130450952D01*
X99872142Y-121232380D02*
X99538809Y-120756190D01*
X99300714Y-121232380D02*
X99300714Y-120232380D01*
X99681666Y-120232380D01*
X99776904Y-120280000D01*
X99824523Y-120327619D01*
X99872142Y-120422857D01*
X99872142Y-120565714D01*
X99824523Y-120660952D01*
X99776904Y-120708571D01*
X99681666Y-120756190D01*
X99300714Y-120756190D01*
X100824523Y-121232380D02*
X100253095Y-121232380D01*
X100538809Y-121232380D02*
X100538809Y-120232380D01*
X100443571Y-120375238D01*
X100348333Y-120470476D01*
X100253095Y-120518095D01*
X101729285Y-120232380D02*
X101253095Y-120232380D01*
X101205476Y-120708571D01*
X101253095Y-120660952D01*
X101348333Y-120613333D01*
X101586428Y-120613333D01*
X101681666Y-120660952D01*
X101729285Y-120708571D01*
X101776904Y-120803809D01*
X101776904Y-121041904D01*
X101729285Y-121137142D01*
X101681666Y-121184761D01*
X101586428Y-121232380D01*
X101348333Y-121232380D01*
X101253095Y-121184761D01*
X101205476Y-121137142D01*
X99957142Y-124022380D02*
X99623809Y-123546190D01*
X99385714Y-124022380D02*
X99385714Y-123022380D01*
X99766666Y-123022380D01*
X99861904Y-123070000D01*
X99909523Y-123117619D01*
X99957142Y-123212857D01*
X99957142Y-123355714D01*
X99909523Y-123450952D01*
X99861904Y-123498571D01*
X99766666Y-123546190D01*
X99385714Y-123546190D01*
X100909523Y-124022380D02*
X100338095Y-124022380D01*
X100623809Y-124022380D02*
X100623809Y-123022380D01*
X100528571Y-123165238D01*
X100433333Y-123260476D01*
X100338095Y-123308095D01*
X101766666Y-123355714D02*
X101766666Y-124022380D01*
X101528571Y-122974761D02*
X101290476Y-123689047D01*
X101909523Y-123689047D01*
X99957142Y-114022380D02*
X99623809Y-113546190D01*
X99385714Y-114022380D02*
X99385714Y-113022380D01*
X99766666Y-113022380D01*
X99861904Y-113070000D01*
X99909523Y-113117619D01*
X99957142Y-113212857D01*
X99957142Y-113355714D01*
X99909523Y-113450952D01*
X99861904Y-113498571D01*
X99766666Y-113546190D01*
X99385714Y-113546190D01*
X100909523Y-114022380D02*
X100338095Y-114022380D01*
X100623809Y-114022380D02*
X100623809Y-113022380D01*
X100528571Y-113165238D01*
X100433333Y-113260476D01*
X100338095Y-113308095D01*
X101528571Y-113022380D02*
X101623809Y-113022380D01*
X101719047Y-113070000D01*
X101766666Y-113117619D01*
X101814285Y-113212857D01*
X101861904Y-113403333D01*
X101861904Y-113641428D01*
X101814285Y-113831904D01*
X101766666Y-113927142D01*
X101719047Y-113974761D01*
X101623809Y-114022380D01*
X101528571Y-114022380D01*
X101433333Y-113974761D01*
X101385714Y-113927142D01*
X101338095Y-113831904D01*
X101290476Y-113641428D01*
X101290476Y-113403333D01*
X101338095Y-113212857D01*
X101385714Y-113117619D01*
X101433333Y-113070000D01*
X101528571Y-113022380D01*
X100433333Y-117022380D02*
X100100000Y-116546190D01*
X99861904Y-117022380D02*
X99861904Y-116022380D01*
X100242857Y-116022380D01*
X100338095Y-116070000D01*
X100385714Y-116117619D01*
X100433333Y-116212857D01*
X100433333Y-116355714D01*
X100385714Y-116450952D01*
X100338095Y-116498571D01*
X100242857Y-116546190D01*
X99861904Y-116546190D01*
X100909523Y-117022380D02*
X101100000Y-117022380D01*
X101195238Y-116974761D01*
X101242857Y-116927142D01*
X101338095Y-116784285D01*
X101385714Y-116593809D01*
X101385714Y-116212857D01*
X101338095Y-116117619D01*
X101290476Y-116070000D01*
X101195238Y-116022380D01*
X101004761Y-116022380D01*
X100909523Y-116070000D01*
X100861904Y-116117619D01*
X100814285Y-116212857D01*
X100814285Y-116450952D01*
X100861904Y-116546190D01*
X100909523Y-116593809D01*
X101004761Y-116641428D01*
X101195238Y-116641428D01*
X101290476Y-116593809D01*
X101338095Y-116546190D01*
X101385714Y-116450952D01*
D15*
X87833333Y-68533333D02*
X88966666Y-68533333D01*
X89100000Y-68466666D01*
X89166666Y-68400000D01*
X89233333Y-68266666D01*
X89233333Y-68000000D01*
X89166666Y-67866666D01*
X89100000Y-67800000D01*
X88966666Y-67733333D01*
X87833333Y-67733333D01*
X89233333Y-66333333D02*
X89233333Y-67133333D01*
X89233333Y-66733333D02*
X87833333Y-66733333D01*
X88033333Y-66866666D01*
X88166666Y-67000000D01*
X88233333Y-67133333D01*
X87833333Y-65466666D02*
X87833333Y-65333333D01*
X87900000Y-65200000D01*
X87966666Y-65133333D01*
X88100000Y-65066666D01*
X88366666Y-65000000D01*
X88700000Y-65000000D01*
X88966666Y-65066666D01*
X89100000Y-65133333D01*
X89166666Y-65200000D01*
X89233333Y-65333333D01*
X89233333Y-65466666D01*
X89166666Y-65600000D01*
X89100000Y-65666666D01*
X88966666Y-65733333D01*
X88700000Y-65800000D01*
X88366666Y-65800000D01*
X88100000Y-65733333D01*
X87966666Y-65666666D01*
X87900000Y-65600000D01*
X87833333Y-65466666D01*
X97633333Y-67866666D02*
X98766666Y-67866666D01*
X98900000Y-67800000D01*
X98966666Y-67733333D01*
X99033333Y-67600000D01*
X99033333Y-67333333D01*
X98966666Y-67200000D01*
X98900000Y-67133333D01*
X98766666Y-67066666D01*
X97633333Y-67066666D01*
X99033333Y-66333333D02*
X99033333Y-66066666D01*
X98966666Y-65933333D01*
X98900000Y-65866666D01*
X98700000Y-65733333D01*
X98433333Y-65666666D01*
X97900000Y-65666666D01*
X97766666Y-65733333D01*
X97700000Y-65800000D01*
X97633333Y-65933333D01*
X97633333Y-66200000D01*
X97700000Y-66333333D01*
X97766666Y-66400000D01*
X97900000Y-66466666D01*
X98233333Y-66466666D01*
X98366666Y-66400000D01*
X98433333Y-66333333D01*
X98500000Y-66200000D01*
X98500000Y-65933333D01*
X98433333Y-65800000D01*
X98366666Y-65733333D01*
X98233333Y-65666666D01*
X117433333Y-67866666D02*
X118566666Y-67866666D01*
X118700000Y-67800000D01*
X118766666Y-67733333D01*
X118833333Y-67600000D01*
X118833333Y-67333333D01*
X118766666Y-67200000D01*
X118700000Y-67133333D01*
X118566666Y-67066666D01*
X117433333Y-67066666D01*
X117433333Y-66533333D02*
X117433333Y-65600000D01*
X118833333Y-66200000D01*
X127433333Y-67866666D02*
X128566666Y-67866666D01*
X128700000Y-67800000D01*
X128766666Y-67733333D01*
X128833333Y-67600000D01*
X128833333Y-67333333D01*
X128766666Y-67200000D01*
X128700000Y-67133333D01*
X128566666Y-67066666D01*
X127433333Y-67066666D01*
X127433333Y-65800000D02*
X127433333Y-66066666D01*
X127500000Y-66200000D01*
X127566666Y-66266666D01*
X127766666Y-66400000D01*
X128033333Y-66466666D01*
X128566666Y-66466666D01*
X128700000Y-66400000D01*
X128766666Y-66333333D01*
X128833333Y-66200000D01*
X128833333Y-65933333D01*
X128766666Y-65800000D01*
X128700000Y-65733333D01*
X128566666Y-65666666D01*
X128233333Y-65666666D01*
X128100000Y-65733333D01*
X128033333Y-65800000D01*
X127966666Y-65933333D01*
X127966666Y-66200000D01*
X128033333Y-66333333D01*
X128100000Y-66400000D01*
X128233333Y-66466666D01*
X137633333Y-67866666D02*
X138766666Y-67866666D01*
X138900000Y-67800000D01*
X138966666Y-67733333D01*
X139033333Y-67600000D01*
X139033333Y-67333333D01*
X138966666Y-67200000D01*
X138900000Y-67133333D01*
X138766666Y-67066666D01*
X137633333Y-67066666D01*
X137633333Y-65733333D02*
X137633333Y-66400000D01*
X138300000Y-66466666D01*
X138233333Y-66400000D01*
X138166666Y-66266666D01*
X138166666Y-65933333D01*
X138233333Y-65800000D01*
X138300000Y-65733333D01*
X138433333Y-65666666D01*
X138766666Y-65666666D01*
X138900000Y-65733333D01*
X138966666Y-65800000D01*
X139033333Y-65933333D01*
X139033333Y-66266666D01*
X138966666Y-66400000D01*
X138900000Y-66466666D01*
X147833333Y-67866666D02*
X148966666Y-67866666D01*
X149100000Y-67800000D01*
X149166666Y-67733333D01*
X149233333Y-67600000D01*
X149233333Y-67333333D01*
X149166666Y-67200000D01*
X149100000Y-67133333D01*
X148966666Y-67066666D01*
X147833333Y-67066666D01*
X148300000Y-65800000D02*
X149233333Y-65800000D01*
X147766666Y-66133333D02*
X148766666Y-66466666D01*
X148766666Y-65600000D01*
X157833333Y-67866666D02*
X158966666Y-67866666D01*
X159100000Y-67800000D01*
X159166666Y-67733333D01*
X159233333Y-67600000D01*
X159233333Y-67333333D01*
X159166666Y-67200000D01*
X159100000Y-67133333D01*
X158966666Y-67066666D01*
X157833333Y-67066666D01*
X157833333Y-66533333D02*
X157833333Y-65666666D01*
X158366666Y-66133333D01*
X158366666Y-65933333D01*
X158433333Y-65800000D01*
X158500000Y-65733333D01*
X158633333Y-65666666D01*
X158966666Y-65666666D01*
X159100000Y-65733333D01*
X159166666Y-65800000D01*
X159233333Y-65933333D01*
X159233333Y-66333333D01*
X159166666Y-66466666D01*
X159100000Y-66533333D01*
X168233333Y-67866666D02*
X169366666Y-67866666D01*
X169500000Y-67800000D01*
X169566666Y-67733333D01*
X169633333Y-67600000D01*
X169633333Y-67333333D01*
X169566666Y-67200000D01*
X169500000Y-67133333D01*
X169366666Y-67066666D01*
X168233333Y-67066666D01*
X168366666Y-66466666D02*
X168300000Y-66400000D01*
X168233333Y-66266666D01*
X168233333Y-65933333D01*
X168300000Y-65800000D01*
X168366666Y-65733333D01*
X168500000Y-65666666D01*
X168633333Y-65666666D01*
X168833333Y-65733333D01*
X169633333Y-66533333D01*
X169633333Y-65666666D01*
D10*
X93998666Y-49176380D02*
X93998666Y-49890666D01*
X93951047Y-50033523D01*
X93855809Y-50128761D01*
X93712952Y-50176380D01*
X93617714Y-50176380D01*
X94522476Y-50176380D02*
X94712952Y-50176380D01*
X94808190Y-50128761D01*
X94855809Y-50081142D01*
X94951047Y-49938285D01*
X94998666Y-49747809D01*
X94998666Y-49366857D01*
X94951047Y-49271619D01*
X94903428Y-49224000D01*
X94808190Y-49176380D01*
X94617714Y-49176380D01*
X94522476Y-49224000D01*
X94474857Y-49271619D01*
X94427238Y-49366857D01*
X94427238Y-49604952D01*
X94474857Y-49700190D01*
X94522476Y-49747809D01*
X94617714Y-49795428D01*
X94808190Y-49795428D01*
X94903428Y-49747809D01*
X94951047Y-49700190D01*
X94998666Y-49604952D01*
X103678666Y-49176380D02*
X103678666Y-49890666D01*
X103631047Y-50033523D01*
X103535809Y-50128761D01*
X103392952Y-50176380D01*
X103297714Y-50176380D01*
X104297714Y-49604952D02*
X104202476Y-49557333D01*
X104154857Y-49509714D01*
X104107238Y-49414476D01*
X104107238Y-49366857D01*
X104154857Y-49271619D01*
X104202476Y-49224000D01*
X104297714Y-49176380D01*
X104488190Y-49176380D01*
X104583428Y-49224000D01*
X104631047Y-49271619D01*
X104678666Y-49366857D01*
X104678666Y-49414476D01*
X104631047Y-49509714D01*
X104583428Y-49557333D01*
X104488190Y-49604952D01*
X104297714Y-49604952D01*
X104202476Y-49652571D01*
X104154857Y-49700190D01*
X104107238Y-49795428D01*
X104107238Y-49985904D01*
X104154857Y-50081142D01*
X104202476Y-50128761D01*
X104297714Y-50176380D01*
X104488190Y-50176380D01*
X104583428Y-50128761D01*
X104631047Y-50081142D01*
X104678666Y-49985904D01*
X104678666Y-49795428D01*
X104631047Y-49700190D01*
X104583428Y-49652571D01*
X104488190Y-49604952D01*
X113478666Y-49176380D02*
X113478666Y-49890666D01*
X113431047Y-50033523D01*
X113335809Y-50128761D01*
X113192952Y-50176380D01*
X113097714Y-50176380D01*
X113859619Y-49176380D02*
X114526285Y-49176380D01*
X114097714Y-50176380D01*
X123518666Y-49176380D02*
X123518666Y-49890666D01*
X123471047Y-50033523D01*
X123375809Y-50128761D01*
X123232952Y-50176380D01*
X123137714Y-50176380D01*
X124423428Y-49176380D02*
X124232952Y-49176380D01*
X124137714Y-49224000D01*
X124090095Y-49271619D01*
X123994857Y-49414476D01*
X123947238Y-49604952D01*
X123947238Y-49985904D01*
X123994857Y-50081142D01*
X124042476Y-50128761D01*
X124137714Y-50176380D01*
X124328190Y-50176380D01*
X124423428Y-50128761D01*
X124471047Y-50081142D01*
X124518666Y-49985904D01*
X124518666Y-49747809D01*
X124471047Y-49652571D01*
X124423428Y-49604952D01*
X124328190Y-49557333D01*
X124137714Y-49557333D01*
X124042476Y-49604952D01*
X123994857Y-49652571D01*
X123947238Y-49747809D01*
X133598666Y-49176380D02*
X133598666Y-49890666D01*
X133551047Y-50033523D01*
X133455809Y-50128761D01*
X133312952Y-50176380D01*
X133217714Y-50176380D01*
X134551047Y-49176380D02*
X134074857Y-49176380D01*
X134027238Y-49652571D01*
X134074857Y-49604952D01*
X134170095Y-49557333D01*
X134408190Y-49557333D01*
X134503428Y-49604952D01*
X134551047Y-49652571D01*
X134598666Y-49747809D01*
X134598666Y-49985904D01*
X134551047Y-50081142D01*
X134503428Y-50128761D01*
X134408190Y-50176380D01*
X134170095Y-50176380D01*
X134074857Y-50128761D01*
X134027238Y-50081142D01*
X143798666Y-49106380D02*
X143798666Y-49820666D01*
X143751047Y-49963523D01*
X143655809Y-50058761D01*
X143512952Y-50106380D01*
X143417714Y-50106380D01*
X144703428Y-49439714D02*
X144703428Y-50106380D01*
X144465333Y-49058761D02*
X144227238Y-49773047D01*
X144846285Y-49773047D01*
X154038666Y-49176380D02*
X154038666Y-49890666D01*
X153991047Y-50033523D01*
X153895809Y-50128761D01*
X153752952Y-50176380D01*
X153657714Y-50176380D01*
X154419619Y-49176380D02*
X155038666Y-49176380D01*
X154705333Y-49557333D01*
X154848190Y-49557333D01*
X154943428Y-49604952D01*
X154991047Y-49652571D01*
X155038666Y-49747809D01*
X155038666Y-49985904D01*
X154991047Y-50081142D01*
X154943428Y-50128761D01*
X154848190Y-50176380D01*
X154562476Y-50176380D01*
X154467238Y-50128761D01*
X154419619Y-50081142D01*
X164078666Y-49176380D02*
X164078666Y-49890666D01*
X164031047Y-50033523D01*
X163935809Y-50128761D01*
X163792952Y-50176380D01*
X163697714Y-50176380D01*
X164507238Y-49271619D02*
X164554857Y-49224000D01*
X164650095Y-49176380D01*
X164888190Y-49176380D01*
X164983428Y-49224000D01*
X165031047Y-49271619D01*
X165078666Y-49366857D01*
X165078666Y-49462095D01*
X165031047Y-49604952D01*
X164459619Y-50176380D01*
X165078666Y-50176380D01*
X174318666Y-49176380D02*
X174318666Y-49890666D01*
X174271047Y-50033523D01*
X174175809Y-50128761D01*
X174032952Y-50176380D01*
X173937714Y-50176380D01*
X175318666Y-50176380D02*
X174747238Y-50176380D01*
X175032952Y-50176380D02*
X175032952Y-49176380D01*
X174937714Y-49319238D01*
X174842476Y-49414476D01*
X174747238Y-49462095D01*
X94704380Y-74534666D02*
X94228190Y-74868000D01*
X94704380Y-75106095D02*
X93704380Y-75106095D01*
X93704380Y-74725142D01*
X93752000Y-74629904D01*
X93799619Y-74582285D01*
X93894857Y-74534666D01*
X94037714Y-74534666D01*
X94132952Y-74582285D01*
X94180571Y-74629904D01*
X94228190Y-74725142D01*
X94228190Y-75106095D01*
X94132952Y-73963238D02*
X94085333Y-74058476D01*
X94037714Y-74106095D01*
X93942476Y-74153714D01*
X93894857Y-74153714D01*
X93799619Y-74106095D01*
X93752000Y-74058476D01*
X93704380Y-73963238D01*
X93704380Y-73772761D01*
X93752000Y-73677523D01*
X93799619Y-73629904D01*
X93894857Y-73582285D01*
X93942476Y-73582285D01*
X94037714Y-73629904D01*
X94085333Y-73677523D01*
X94132952Y-73772761D01*
X94132952Y-73963238D01*
X94180571Y-74058476D01*
X94228190Y-74106095D01*
X94323428Y-74153714D01*
X94513904Y-74153714D01*
X94609142Y-74106095D01*
X94656761Y-74058476D01*
X94704380Y-73963238D01*
X94704380Y-73772761D01*
X94656761Y-73677523D01*
X94609142Y-73629904D01*
X94513904Y-73582285D01*
X94323428Y-73582285D01*
X94228190Y-73629904D01*
X94180571Y-73677523D01*
X94132952Y-73772761D01*
X106222380Y-74451666D02*
X105746190Y-74785000D01*
X106222380Y-75023095D02*
X105222380Y-75023095D01*
X105222380Y-74642142D01*
X105270000Y-74546904D01*
X105317619Y-74499285D01*
X105412857Y-74451666D01*
X105555714Y-74451666D01*
X105650952Y-74499285D01*
X105698571Y-74546904D01*
X105746190Y-74642142D01*
X105746190Y-75023095D01*
X105222380Y-74118333D02*
X105222380Y-73451666D01*
X106222380Y-73880238D01*
X114184380Y-74534666D02*
X113708190Y-74868000D01*
X114184380Y-75106095D02*
X113184380Y-75106095D01*
X113184380Y-74725142D01*
X113232000Y-74629904D01*
X113279619Y-74582285D01*
X113374857Y-74534666D01*
X113517714Y-74534666D01*
X113612952Y-74582285D01*
X113660571Y-74629904D01*
X113708190Y-74725142D01*
X113708190Y-75106095D01*
X113184380Y-73677523D02*
X113184380Y-73868000D01*
X113232000Y-73963238D01*
X113279619Y-74010857D01*
X113422476Y-74106095D01*
X113612952Y-74153714D01*
X113993904Y-74153714D01*
X114089142Y-74106095D01*
X114136761Y-74058476D01*
X114184380Y-73963238D01*
X114184380Y-73772761D01*
X114136761Y-73677523D01*
X114089142Y-73629904D01*
X113993904Y-73582285D01*
X113755809Y-73582285D01*
X113660571Y-73629904D01*
X113612952Y-73677523D01*
X113565333Y-73772761D01*
X113565333Y-73963238D01*
X113612952Y-74058476D01*
X113660571Y-74106095D01*
X113755809Y-74153714D01*
X124224380Y-74534666D02*
X123748190Y-74868000D01*
X124224380Y-75106095D02*
X123224380Y-75106095D01*
X123224380Y-74725142D01*
X123272000Y-74629904D01*
X123319619Y-74582285D01*
X123414857Y-74534666D01*
X123557714Y-74534666D01*
X123652952Y-74582285D01*
X123700571Y-74629904D01*
X123748190Y-74725142D01*
X123748190Y-75106095D01*
X123224380Y-73629904D02*
X123224380Y-74106095D01*
X123700571Y-74153714D01*
X123652952Y-74106095D01*
X123605333Y-74010857D01*
X123605333Y-73772761D01*
X123652952Y-73677523D01*
X123700571Y-73629904D01*
X123795809Y-73582285D01*
X124033904Y-73582285D01*
X124129142Y-73629904D01*
X124176761Y-73677523D01*
X124224380Y-73772761D01*
X124224380Y-74010857D01*
X124176761Y-74106095D01*
X124129142Y-74153714D01*
X134264380Y-74534666D02*
X133788190Y-74868000D01*
X134264380Y-75106095D02*
X133264380Y-75106095D01*
X133264380Y-74725142D01*
X133312000Y-74629904D01*
X133359619Y-74582285D01*
X133454857Y-74534666D01*
X133597714Y-74534666D01*
X133692952Y-74582285D01*
X133740571Y-74629904D01*
X133788190Y-74725142D01*
X133788190Y-75106095D01*
X133597714Y-73677523D02*
X134264380Y-73677523D01*
X133216761Y-73915619D02*
X133931047Y-74153714D01*
X133931047Y-73534666D01*
X144504380Y-74534666D02*
X144028190Y-74868000D01*
X144504380Y-75106095D02*
X143504380Y-75106095D01*
X143504380Y-74725142D01*
X143552000Y-74629904D01*
X143599619Y-74582285D01*
X143694857Y-74534666D01*
X143837714Y-74534666D01*
X143932952Y-74582285D01*
X143980571Y-74629904D01*
X144028190Y-74725142D01*
X144028190Y-75106095D01*
X143504380Y-74201333D02*
X143504380Y-73582285D01*
X143885333Y-73915619D01*
X143885333Y-73772761D01*
X143932952Y-73677523D01*
X143980571Y-73629904D01*
X144075809Y-73582285D01*
X144313904Y-73582285D01*
X144409142Y-73629904D01*
X144456761Y-73677523D01*
X144504380Y-73772761D01*
X144504380Y-74058476D01*
X144456761Y-74153714D01*
X144409142Y-74201333D01*
X154744380Y-74534666D02*
X154268190Y-74868000D01*
X154744380Y-75106095D02*
X153744380Y-75106095D01*
X153744380Y-74725142D01*
X153792000Y-74629904D01*
X153839619Y-74582285D01*
X153934857Y-74534666D01*
X154077714Y-74534666D01*
X154172952Y-74582285D01*
X154220571Y-74629904D01*
X154268190Y-74725142D01*
X154268190Y-75106095D01*
X153839619Y-74153714D02*
X153792000Y-74106095D01*
X153744380Y-74010857D01*
X153744380Y-73772761D01*
X153792000Y-73677523D01*
X153839619Y-73629904D01*
X153934857Y-73582285D01*
X154030095Y-73582285D01*
X154172952Y-73629904D01*
X154744380Y-74201333D01*
X154744380Y-73582285D01*
X164784380Y-73251666D02*
X164308190Y-73585000D01*
X164784380Y-73823095D02*
X163784380Y-73823095D01*
X163784380Y-73442142D01*
X163832000Y-73346904D01*
X163879619Y-73299285D01*
X163974857Y-73251666D01*
X164117714Y-73251666D01*
X164212952Y-73299285D01*
X164260571Y-73346904D01*
X164308190Y-73442142D01*
X164308190Y-73823095D01*
X164784380Y-72299285D02*
X164784380Y-72870714D01*
X164784380Y-72585000D02*
X163784380Y-72585000D01*
X163927238Y-72680238D01*
X164022476Y-72775476D01*
X164070095Y-72870714D01*
X175024380Y-74684666D02*
X174548190Y-75018000D01*
X175024380Y-75256095D02*
X174024380Y-75256095D01*
X174024380Y-74875142D01*
X174072000Y-74779904D01*
X174119619Y-74732285D01*
X174214857Y-74684666D01*
X174357714Y-74684666D01*
X174452952Y-74732285D01*
X174500571Y-74779904D01*
X174548190Y-74875142D01*
X174548190Y-75256095D01*
X174024380Y-74065619D02*
X174024380Y-73970380D01*
X174072000Y-73875142D01*
X174119619Y-73827523D01*
X174214857Y-73779904D01*
X174405333Y-73732285D01*
X174643428Y-73732285D01*
X174833904Y-73779904D01*
X174929142Y-73827523D01*
X174976761Y-73875142D01*
X175024380Y-73970380D01*
X175024380Y-74065619D01*
X174976761Y-74160857D01*
X174929142Y-74208476D01*
X174833904Y-74256095D01*
X174643428Y-74303714D01*
X174405333Y-74303714D01*
X174214857Y-74256095D01*
X174119619Y-74208476D01*
X174072000Y-74160857D01*
X174024380Y-74065619D01*
X93083142Y-127051380D02*
X92749809Y-126575190D01*
X92511714Y-127051380D02*
X92511714Y-126051380D01*
X92892666Y-126051380D01*
X92987904Y-126099000D01*
X93035523Y-126146619D01*
X93083142Y-126241857D01*
X93083142Y-126384714D01*
X93035523Y-126479952D01*
X92987904Y-126527571D01*
X92892666Y-126575190D01*
X92511714Y-126575190D01*
X93416476Y-126051380D02*
X94035523Y-126051380D01*
X93702190Y-126432333D01*
X93845047Y-126432333D01*
X93940285Y-126479952D01*
X93987904Y-126527571D01*
X94035523Y-126622809D01*
X94035523Y-126860904D01*
X93987904Y-126956142D01*
X93940285Y-127003761D01*
X93845047Y-127051380D01*
X93559333Y-127051380D01*
X93464095Y-127003761D01*
X93416476Y-126956142D01*
X94511714Y-127051380D02*
X94702190Y-127051380D01*
X94797428Y-127003761D01*
X94845047Y-126956142D01*
X94940285Y-126813285D01*
X94987904Y-126622809D01*
X94987904Y-126241857D01*
X94940285Y-126146619D01*
X94892666Y-126099000D01*
X94797428Y-126051380D01*
X94606952Y-126051380D01*
X94511714Y-126099000D01*
X94464095Y-126146619D01*
X94416476Y-126241857D01*
X94416476Y-126479952D01*
X94464095Y-126575190D01*
X94511714Y-126622809D01*
X94606952Y-126670428D01*
X94797428Y-126670428D01*
X94892666Y-126622809D01*
X94940285Y-126575190D01*
X94987904Y-126479952D01*
X93083142Y-129591380D02*
X92749809Y-129115190D01*
X92511714Y-129591380D02*
X92511714Y-128591380D01*
X92892666Y-128591380D01*
X92987904Y-128639000D01*
X93035523Y-128686619D01*
X93083142Y-128781857D01*
X93083142Y-128924714D01*
X93035523Y-129019952D01*
X92987904Y-129067571D01*
X92892666Y-129115190D01*
X92511714Y-129115190D01*
X93416476Y-128591380D02*
X94035523Y-128591380D01*
X93702190Y-128972333D01*
X93845047Y-128972333D01*
X93940285Y-129019952D01*
X93987904Y-129067571D01*
X94035523Y-129162809D01*
X94035523Y-129400904D01*
X93987904Y-129496142D01*
X93940285Y-129543761D01*
X93845047Y-129591380D01*
X93559333Y-129591380D01*
X93464095Y-129543761D01*
X93416476Y-129496142D01*
X94892666Y-128591380D02*
X94702190Y-128591380D01*
X94606952Y-128639000D01*
X94559333Y-128686619D01*
X94464095Y-128829476D01*
X94416476Y-129019952D01*
X94416476Y-129400904D01*
X94464095Y-129496142D01*
X94511714Y-129543761D01*
X94606952Y-129591380D01*
X94797428Y-129591380D01*
X94892666Y-129543761D01*
X94940285Y-129496142D01*
X94987904Y-129400904D01*
X94987904Y-129162809D01*
X94940285Y-129067571D01*
X94892666Y-129019952D01*
X94797428Y-128972333D01*
X94606952Y-128972333D01*
X94511714Y-129019952D01*
X94464095Y-129067571D01*
X94416476Y-129162809D01*
X93083142Y-132131380D02*
X92749809Y-131655190D01*
X92511714Y-132131380D02*
X92511714Y-131131380D01*
X92892666Y-131131380D01*
X92987904Y-131179000D01*
X93035523Y-131226619D01*
X93083142Y-131321857D01*
X93083142Y-131464714D01*
X93035523Y-131559952D01*
X92987904Y-131607571D01*
X92892666Y-131655190D01*
X92511714Y-131655190D01*
X93416476Y-131131380D02*
X94035523Y-131131380D01*
X93702190Y-131512333D01*
X93845047Y-131512333D01*
X93940285Y-131559952D01*
X93987904Y-131607571D01*
X94035523Y-131702809D01*
X94035523Y-131940904D01*
X93987904Y-132036142D01*
X93940285Y-132083761D01*
X93845047Y-132131380D01*
X93559333Y-132131380D01*
X93464095Y-132083761D01*
X93416476Y-132036142D01*
X94368857Y-131131380D02*
X94987904Y-131131380D01*
X94654571Y-131512333D01*
X94797428Y-131512333D01*
X94892666Y-131559952D01*
X94940285Y-131607571D01*
X94987904Y-131702809D01*
X94987904Y-131940904D01*
X94940285Y-132036142D01*
X94892666Y-132083761D01*
X94797428Y-132131380D01*
X94511714Y-132131380D01*
X94416476Y-132083761D01*
X94368857Y-132036142D01*
X93060142Y-134671380D02*
X92726809Y-134195190D01*
X92488714Y-134671380D02*
X92488714Y-133671380D01*
X92869666Y-133671380D01*
X92964904Y-133719000D01*
X93012523Y-133766619D01*
X93060142Y-133861857D01*
X93060142Y-134004714D01*
X93012523Y-134099952D01*
X92964904Y-134147571D01*
X92869666Y-134195190D01*
X92488714Y-134195190D01*
X93393476Y-133671380D02*
X94012523Y-133671380D01*
X93679190Y-134052333D01*
X93822047Y-134052333D01*
X93917285Y-134099952D01*
X93964904Y-134147571D01*
X94012523Y-134242809D01*
X94012523Y-134480904D01*
X93964904Y-134576142D01*
X93917285Y-134623761D01*
X93822047Y-134671380D01*
X93536333Y-134671380D01*
X93441095Y-134623761D01*
X93393476Y-134576142D01*
X94631571Y-133671380D02*
X94726809Y-133671380D01*
X94822047Y-133719000D01*
X94869666Y-133766619D01*
X94917285Y-133861857D01*
X94964904Y-134052333D01*
X94964904Y-134290428D01*
X94917285Y-134480904D01*
X94869666Y-134576142D01*
X94822047Y-134623761D01*
X94726809Y-134671380D01*
X94631571Y-134671380D01*
X94536333Y-134623761D01*
X94488714Y-134576142D01*
X94441095Y-134480904D01*
X94393476Y-134290428D01*
X94393476Y-134052333D01*
X94441095Y-133861857D01*
X94488714Y-133766619D01*
X94536333Y-133719000D01*
X94631571Y-133671380D01*
X93060142Y-137211380D02*
X92726809Y-136735190D01*
X92488714Y-137211380D02*
X92488714Y-136211380D01*
X92869666Y-136211380D01*
X92964904Y-136259000D01*
X93012523Y-136306619D01*
X93060142Y-136401857D01*
X93060142Y-136544714D01*
X93012523Y-136639952D01*
X92964904Y-136687571D01*
X92869666Y-136735190D01*
X92488714Y-136735190D01*
X93441095Y-136306619D02*
X93488714Y-136259000D01*
X93583952Y-136211380D01*
X93822047Y-136211380D01*
X93917285Y-136259000D01*
X93964904Y-136306619D01*
X94012523Y-136401857D01*
X94012523Y-136497095D01*
X93964904Y-136639952D01*
X93393476Y-137211380D01*
X94012523Y-137211380D01*
X94345857Y-136211380D02*
X95012523Y-136211380D01*
X94583952Y-137211380D01*
X93106142Y-139751380D02*
X92772809Y-139275190D01*
X92534714Y-139751380D02*
X92534714Y-138751380D01*
X92915666Y-138751380D01*
X93010904Y-138799000D01*
X93058523Y-138846619D01*
X93106142Y-138941857D01*
X93106142Y-139084714D01*
X93058523Y-139179952D01*
X93010904Y-139227571D01*
X92915666Y-139275190D01*
X92534714Y-139275190D01*
X93487095Y-138846619D02*
X93534714Y-138799000D01*
X93629952Y-138751380D01*
X93868047Y-138751380D01*
X93963285Y-138799000D01*
X94010904Y-138846619D01*
X94058523Y-138941857D01*
X94058523Y-139037095D01*
X94010904Y-139179952D01*
X93439476Y-139751380D01*
X94058523Y-139751380D01*
X94915666Y-139084714D02*
X94915666Y-139751380D01*
X94677571Y-138703761D02*
X94439476Y-139418047D01*
X95058523Y-139418047D01*
X141842142Y-106022380D02*
X141508809Y-105546190D01*
X141270714Y-106022380D02*
X141270714Y-105022380D01*
X141651666Y-105022380D01*
X141746904Y-105070000D01*
X141794523Y-105117619D01*
X141842142Y-105212857D01*
X141842142Y-105355714D01*
X141794523Y-105450952D01*
X141746904Y-105498571D01*
X141651666Y-105546190D01*
X141270714Y-105546190D01*
X142175476Y-105022380D02*
X142794523Y-105022380D01*
X142461190Y-105403333D01*
X142604047Y-105403333D01*
X142699285Y-105450952D01*
X142746904Y-105498571D01*
X142794523Y-105593809D01*
X142794523Y-105831904D01*
X142746904Y-105927142D01*
X142699285Y-105974761D01*
X142604047Y-106022380D01*
X142318333Y-106022380D01*
X142223095Y-105974761D01*
X142175476Y-105927142D01*
X143365952Y-105450952D02*
X143270714Y-105403333D01*
X143223095Y-105355714D01*
X143175476Y-105260476D01*
X143175476Y-105212857D01*
X143223095Y-105117619D01*
X143270714Y-105070000D01*
X143365952Y-105022380D01*
X143556428Y-105022380D01*
X143651666Y-105070000D01*
X143699285Y-105117619D01*
X143746904Y-105212857D01*
X143746904Y-105260476D01*
X143699285Y-105355714D01*
X143651666Y-105403333D01*
X143556428Y-105450952D01*
X143365952Y-105450952D01*
X143270714Y-105498571D01*
X143223095Y-105546190D01*
X143175476Y-105641428D01*
X143175476Y-105831904D01*
X143223095Y-105927142D01*
X143270714Y-105974761D01*
X143365952Y-106022380D01*
X143556428Y-106022380D01*
X143651666Y-105974761D01*
X143699285Y-105927142D01*
X143746904Y-105831904D01*
X143746904Y-105641428D01*
X143699285Y-105546190D01*
X143651666Y-105498571D01*
X143556428Y-105450952D01*
X141872142Y-112222380D02*
X141538809Y-111746190D01*
X141300714Y-112222380D02*
X141300714Y-111222380D01*
X141681666Y-111222380D01*
X141776904Y-111270000D01*
X141824523Y-111317619D01*
X141872142Y-111412857D01*
X141872142Y-111555714D01*
X141824523Y-111650952D01*
X141776904Y-111698571D01*
X141681666Y-111746190D01*
X141300714Y-111746190D01*
X142205476Y-111222380D02*
X142824523Y-111222380D01*
X142491190Y-111603333D01*
X142634047Y-111603333D01*
X142729285Y-111650952D01*
X142776904Y-111698571D01*
X142824523Y-111793809D01*
X142824523Y-112031904D01*
X142776904Y-112127142D01*
X142729285Y-112174761D01*
X142634047Y-112222380D01*
X142348333Y-112222380D01*
X142253095Y-112174761D01*
X142205476Y-112127142D01*
X143729285Y-111222380D02*
X143253095Y-111222380D01*
X143205476Y-111698571D01*
X143253095Y-111650952D01*
X143348333Y-111603333D01*
X143586428Y-111603333D01*
X143681666Y-111650952D01*
X143729285Y-111698571D01*
X143776904Y-111793809D01*
X143776904Y-112031904D01*
X143729285Y-112127142D01*
X143681666Y-112174761D01*
X143586428Y-112222380D01*
X143348333Y-112222380D01*
X143253095Y-112174761D01*
X143205476Y-112127142D01*
X141872142Y-118222380D02*
X141538809Y-117746190D01*
X141300714Y-118222380D02*
X141300714Y-117222380D01*
X141681666Y-117222380D01*
X141776904Y-117270000D01*
X141824523Y-117317619D01*
X141872142Y-117412857D01*
X141872142Y-117555714D01*
X141824523Y-117650952D01*
X141776904Y-117698571D01*
X141681666Y-117746190D01*
X141300714Y-117746190D01*
X142205476Y-117222380D02*
X142824523Y-117222380D01*
X142491190Y-117603333D01*
X142634047Y-117603333D01*
X142729285Y-117650952D01*
X142776904Y-117698571D01*
X142824523Y-117793809D01*
X142824523Y-118031904D01*
X142776904Y-118127142D01*
X142729285Y-118174761D01*
X142634047Y-118222380D01*
X142348333Y-118222380D01*
X142253095Y-118174761D01*
X142205476Y-118127142D01*
X143205476Y-117317619D02*
X143253095Y-117270000D01*
X143348333Y-117222380D01*
X143586428Y-117222380D01*
X143681666Y-117270000D01*
X143729285Y-117317619D01*
X143776904Y-117412857D01*
X143776904Y-117508095D01*
X143729285Y-117650952D01*
X143157857Y-118222380D01*
X143776904Y-118222380D01*
X141872142Y-124222380D02*
X141538809Y-123746190D01*
X141300714Y-124222380D02*
X141300714Y-123222380D01*
X141681666Y-123222380D01*
X141776904Y-123270000D01*
X141824523Y-123317619D01*
X141872142Y-123412857D01*
X141872142Y-123555714D01*
X141824523Y-123650952D01*
X141776904Y-123698571D01*
X141681666Y-123746190D01*
X141300714Y-123746190D01*
X142253095Y-123317619D02*
X142300714Y-123270000D01*
X142395952Y-123222380D01*
X142634047Y-123222380D01*
X142729285Y-123270000D01*
X142776904Y-123317619D01*
X142824523Y-123412857D01*
X142824523Y-123508095D01*
X142776904Y-123650952D01*
X142205476Y-124222380D01*
X142824523Y-124222380D01*
X143300714Y-124222380D02*
X143491190Y-124222380D01*
X143586428Y-124174761D01*
X143634047Y-124127142D01*
X143729285Y-123984285D01*
X143776904Y-123793809D01*
X143776904Y-123412857D01*
X143729285Y-123317619D01*
X143681666Y-123270000D01*
X143586428Y-123222380D01*
X143395952Y-123222380D01*
X143300714Y-123270000D01*
X143253095Y-123317619D01*
X143205476Y-123412857D01*
X143205476Y-123650952D01*
X143253095Y-123746190D01*
X143300714Y-123793809D01*
X143395952Y-123841428D01*
X143586428Y-123841428D01*
X143681666Y-123793809D01*
X143729285Y-123746190D01*
X143776904Y-123650952D01*
X141872142Y-130022380D02*
X141538809Y-129546190D01*
X141300714Y-130022380D02*
X141300714Y-129022380D01*
X141681666Y-129022380D01*
X141776904Y-129070000D01*
X141824523Y-129117619D01*
X141872142Y-129212857D01*
X141872142Y-129355714D01*
X141824523Y-129450952D01*
X141776904Y-129498571D01*
X141681666Y-129546190D01*
X141300714Y-129546190D01*
X142253095Y-129117619D02*
X142300714Y-129070000D01*
X142395952Y-129022380D01*
X142634047Y-129022380D01*
X142729285Y-129070000D01*
X142776904Y-129117619D01*
X142824523Y-129212857D01*
X142824523Y-129308095D01*
X142776904Y-129450952D01*
X142205476Y-130022380D01*
X142824523Y-130022380D01*
X143681666Y-129022380D02*
X143491190Y-129022380D01*
X143395952Y-129070000D01*
X143348333Y-129117619D01*
X143253095Y-129260476D01*
X143205476Y-129450952D01*
X143205476Y-129831904D01*
X143253095Y-129927142D01*
X143300714Y-129974761D01*
X143395952Y-130022380D01*
X143586428Y-130022380D01*
X143681666Y-129974761D01*
X143729285Y-129927142D01*
X143776904Y-129831904D01*
X143776904Y-129593809D01*
X143729285Y-129498571D01*
X143681666Y-129450952D01*
X143586428Y-129403333D01*
X143395952Y-129403333D01*
X143300714Y-129450952D01*
X143253095Y-129498571D01*
X143205476Y-129593809D01*
X141872142Y-136022380D02*
X141538809Y-135546190D01*
X141300714Y-136022380D02*
X141300714Y-135022380D01*
X141681666Y-135022380D01*
X141776904Y-135070000D01*
X141824523Y-135117619D01*
X141872142Y-135212857D01*
X141872142Y-135355714D01*
X141824523Y-135450952D01*
X141776904Y-135498571D01*
X141681666Y-135546190D01*
X141300714Y-135546190D01*
X142253095Y-135117619D02*
X142300714Y-135070000D01*
X142395952Y-135022380D01*
X142634047Y-135022380D01*
X142729285Y-135070000D01*
X142776904Y-135117619D01*
X142824523Y-135212857D01*
X142824523Y-135308095D01*
X142776904Y-135450952D01*
X142205476Y-136022380D01*
X142824523Y-136022380D01*
X143157857Y-135022380D02*
X143776904Y-135022380D01*
X143443571Y-135403333D01*
X143586428Y-135403333D01*
X143681666Y-135450952D01*
X143729285Y-135498571D01*
X143776904Y-135593809D01*
X143776904Y-135831904D01*
X143729285Y-135927142D01*
X143681666Y-135974761D01*
X143586428Y-136022380D01*
X143300714Y-136022380D01*
X143205476Y-135974761D01*
X143157857Y-135927142D01*
X145622380Y-105557857D02*
X145146190Y-105891190D01*
X145622380Y-106129285D02*
X144622380Y-106129285D01*
X144622380Y-105748333D01*
X144670000Y-105653095D01*
X144717619Y-105605476D01*
X144812857Y-105557857D01*
X144955714Y-105557857D01*
X145050952Y-105605476D01*
X145098571Y-105653095D01*
X145146190Y-105748333D01*
X145146190Y-106129285D01*
X144622380Y-105224523D02*
X144622380Y-104605476D01*
X145003333Y-104938809D01*
X145003333Y-104795952D01*
X145050952Y-104700714D01*
X145098571Y-104653095D01*
X145193809Y-104605476D01*
X145431904Y-104605476D01*
X145527142Y-104653095D01*
X145574761Y-104700714D01*
X145622380Y-104795952D01*
X145622380Y-105081666D01*
X145574761Y-105176904D01*
X145527142Y-105224523D01*
X144622380Y-104272142D02*
X144622380Y-103605476D01*
X145622380Y-104034047D01*
X145622380Y-111757857D02*
X145146190Y-112091190D01*
X145622380Y-112329285D02*
X144622380Y-112329285D01*
X144622380Y-111948333D01*
X144670000Y-111853095D01*
X144717619Y-111805476D01*
X144812857Y-111757857D01*
X144955714Y-111757857D01*
X145050952Y-111805476D01*
X145098571Y-111853095D01*
X145146190Y-111948333D01*
X145146190Y-112329285D01*
X144622380Y-111424523D02*
X144622380Y-110805476D01*
X145003333Y-111138809D01*
X145003333Y-110995952D01*
X145050952Y-110900714D01*
X145098571Y-110853095D01*
X145193809Y-110805476D01*
X145431904Y-110805476D01*
X145527142Y-110853095D01*
X145574761Y-110900714D01*
X145622380Y-110995952D01*
X145622380Y-111281666D01*
X145574761Y-111376904D01*
X145527142Y-111424523D01*
X144955714Y-109948333D02*
X145622380Y-109948333D01*
X144574761Y-110186428D02*
X145289047Y-110424523D01*
X145289047Y-109805476D01*
X145622380Y-117757857D02*
X145146190Y-118091190D01*
X145622380Y-118329285D02*
X144622380Y-118329285D01*
X144622380Y-117948333D01*
X144670000Y-117853095D01*
X144717619Y-117805476D01*
X144812857Y-117757857D01*
X144955714Y-117757857D01*
X145050952Y-117805476D01*
X145098571Y-117853095D01*
X145146190Y-117948333D01*
X145146190Y-118329285D01*
X144622380Y-117424523D02*
X144622380Y-116805476D01*
X145003333Y-117138809D01*
X145003333Y-116995952D01*
X145050952Y-116900714D01*
X145098571Y-116853095D01*
X145193809Y-116805476D01*
X145431904Y-116805476D01*
X145527142Y-116853095D01*
X145574761Y-116900714D01*
X145622380Y-116995952D01*
X145622380Y-117281666D01*
X145574761Y-117376904D01*
X145527142Y-117424523D01*
X145622380Y-115853095D02*
X145622380Y-116424523D01*
X145622380Y-116138809D02*
X144622380Y-116138809D01*
X144765238Y-116234047D01*
X144860476Y-116329285D01*
X144908095Y-116424523D01*
X145622380Y-123757857D02*
X145146190Y-124091190D01*
X145622380Y-124329285D02*
X144622380Y-124329285D01*
X144622380Y-123948333D01*
X144670000Y-123853095D01*
X144717619Y-123805476D01*
X144812857Y-123757857D01*
X144955714Y-123757857D01*
X145050952Y-123805476D01*
X145098571Y-123853095D01*
X145146190Y-123948333D01*
X145146190Y-124329285D01*
X144717619Y-123376904D02*
X144670000Y-123329285D01*
X144622380Y-123234047D01*
X144622380Y-122995952D01*
X144670000Y-122900714D01*
X144717619Y-122853095D01*
X144812857Y-122805476D01*
X144908095Y-122805476D01*
X145050952Y-122853095D01*
X145622380Y-123424523D01*
X145622380Y-122805476D01*
X145050952Y-122234047D02*
X145003333Y-122329285D01*
X144955714Y-122376904D01*
X144860476Y-122424523D01*
X144812857Y-122424523D01*
X144717619Y-122376904D01*
X144670000Y-122329285D01*
X144622380Y-122234047D01*
X144622380Y-122043571D01*
X144670000Y-121948333D01*
X144717619Y-121900714D01*
X144812857Y-121853095D01*
X144860476Y-121853095D01*
X144955714Y-121900714D01*
X145003333Y-121948333D01*
X145050952Y-122043571D01*
X145050952Y-122234047D01*
X145098571Y-122329285D01*
X145146190Y-122376904D01*
X145241428Y-122424523D01*
X145431904Y-122424523D01*
X145527142Y-122376904D01*
X145574761Y-122329285D01*
X145622380Y-122234047D01*
X145622380Y-122043571D01*
X145574761Y-121948333D01*
X145527142Y-121900714D01*
X145431904Y-121853095D01*
X145241428Y-121853095D01*
X145146190Y-121900714D01*
X145098571Y-121948333D01*
X145050952Y-122043571D01*
X145622380Y-129557857D02*
X145146190Y-129891190D01*
X145622380Y-130129285D02*
X144622380Y-130129285D01*
X144622380Y-129748333D01*
X144670000Y-129653095D01*
X144717619Y-129605476D01*
X144812857Y-129557857D01*
X144955714Y-129557857D01*
X145050952Y-129605476D01*
X145098571Y-129653095D01*
X145146190Y-129748333D01*
X145146190Y-130129285D01*
X144717619Y-129176904D02*
X144670000Y-129129285D01*
X144622380Y-129034047D01*
X144622380Y-128795952D01*
X144670000Y-128700714D01*
X144717619Y-128653095D01*
X144812857Y-128605476D01*
X144908095Y-128605476D01*
X145050952Y-128653095D01*
X145622380Y-129224523D01*
X145622380Y-128605476D01*
X144622380Y-127700714D02*
X144622380Y-128176904D01*
X145098571Y-128224523D01*
X145050952Y-128176904D01*
X145003333Y-128081666D01*
X145003333Y-127843571D01*
X145050952Y-127748333D01*
X145098571Y-127700714D01*
X145193809Y-127653095D01*
X145431904Y-127653095D01*
X145527142Y-127700714D01*
X145574761Y-127748333D01*
X145622380Y-127843571D01*
X145622380Y-128081666D01*
X145574761Y-128176904D01*
X145527142Y-128224523D01*
X145622380Y-135557857D02*
X145146190Y-135891190D01*
X145622380Y-136129285D02*
X144622380Y-136129285D01*
X144622380Y-135748333D01*
X144670000Y-135653095D01*
X144717619Y-135605476D01*
X144812857Y-135557857D01*
X144955714Y-135557857D01*
X145050952Y-135605476D01*
X145098571Y-135653095D01*
X145146190Y-135748333D01*
X145146190Y-136129285D01*
X144717619Y-135176904D02*
X144670000Y-135129285D01*
X144622380Y-135034047D01*
X144622380Y-134795952D01*
X144670000Y-134700714D01*
X144717619Y-134653095D01*
X144812857Y-134605476D01*
X144908095Y-134605476D01*
X145050952Y-134653095D01*
X145622380Y-135224523D01*
X145622380Y-134605476D01*
X144717619Y-134224523D02*
X144670000Y-134176904D01*
X144622380Y-134081666D01*
X144622380Y-133843571D01*
X144670000Y-133748333D01*
X144717619Y-133700714D01*
X144812857Y-133653095D01*
X144908095Y-133653095D01*
X145050952Y-133700714D01*
X145622380Y-134272142D01*
X145622380Y-133653095D01*
X171157142Y-83652380D02*
X170823809Y-83176190D01*
X170585714Y-83652380D02*
X170585714Y-82652380D01*
X170966666Y-82652380D01*
X171061904Y-82700000D01*
X171109523Y-82747619D01*
X171157142Y-82842857D01*
X171157142Y-82985714D01*
X171109523Y-83080952D01*
X171061904Y-83128571D01*
X170966666Y-83176190D01*
X170585714Y-83176190D01*
X171538095Y-82747619D02*
X171585714Y-82700000D01*
X171680952Y-82652380D01*
X171919047Y-82652380D01*
X172014285Y-82700000D01*
X172061904Y-82747619D01*
X172109523Y-82842857D01*
X172109523Y-82938095D01*
X172061904Y-83080952D01*
X171490476Y-83652380D01*
X172109523Y-83652380D01*
X173061904Y-83652380D02*
X172490476Y-83652380D01*
X172776190Y-83652380D02*
X172776190Y-82652380D01*
X172680952Y-82795238D01*
X172585714Y-82890476D01*
X172490476Y-82938095D01*
X170957142Y-85252380D02*
X170623809Y-84776190D01*
X170385714Y-85252380D02*
X170385714Y-84252380D01*
X170766666Y-84252380D01*
X170861904Y-84300000D01*
X170909523Y-84347619D01*
X170957142Y-84442857D01*
X170957142Y-84585714D01*
X170909523Y-84680952D01*
X170861904Y-84728571D01*
X170766666Y-84776190D01*
X170385714Y-84776190D01*
X171909523Y-85252380D02*
X171338095Y-85252380D01*
X171623809Y-85252380D02*
X171623809Y-84252380D01*
X171528571Y-84395238D01*
X171433333Y-84490476D01*
X171338095Y-84538095D01*
X172242857Y-84252380D02*
X172909523Y-84252380D01*
X172480952Y-85252380D01*
X165357142Y-87822380D02*
X165023809Y-87346190D01*
X164785714Y-87822380D02*
X164785714Y-86822380D01*
X165166666Y-86822380D01*
X165261904Y-86870000D01*
X165309523Y-86917619D01*
X165357142Y-87012857D01*
X165357142Y-87155714D01*
X165309523Y-87250952D01*
X165261904Y-87298571D01*
X165166666Y-87346190D01*
X164785714Y-87346190D01*
X166309523Y-87822380D02*
X165738095Y-87822380D01*
X166023809Y-87822380D02*
X166023809Y-86822380D01*
X165928571Y-86965238D01*
X165833333Y-87060476D01*
X165738095Y-87108095D01*
X166642857Y-86822380D02*
X167261904Y-86822380D01*
X166928571Y-87203333D01*
X167071428Y-87203333D01*
X167166666Y-87250952D01*
X167214285Y-87298571D01*
X167261904Y-87393809D01*
X167261904Y-87631904D01*
X167214285Y-87727142D01*
X167166666Y-87774761D01*
X167071428Y-87822380D01*
X166785714Y-87822380D01*
X166690476Y-87774761D01*
X166642857Y-87727142D01*
X106757142Y-128682380D02*
X106423809Y-128206190D01*
X106185714Y-128682380D02*
X106185714Y-127682380D01*
X106566666Y-127682380D01*
X106661904Y-127730000D01*
X106709523Y-127777619D01*
X106757142Y-127872857D01*
X106757142Y-128015714D01*
X106709523Y-128110952D01*
X106661904Y-128158571D01*
X106566666Y-128206190D01*
X106185714Y-128206190D01*
X107138095Y-127777619D02*
X107185714Y-127730000D01*
X107280952Y-127682380D01*
X107519047Y-127682380D01*
X107614285Y-127730000D01*
X107661904Y-127777619D01*
X107709523Y-127872857D01*
X107709523Y-127968095D01*
X107661904Y-128110952D01*
X107090476Y-128682380D01*
X107709523Y-128682380D01*
X108328571Y-127682380D02*
X108423809Y-127682380D01*
X108519047Y-127730000D01*
X108566666Y-127777619D01*
X108614285Y-127872857D01*
X108661904Y-128063333D01*
X108661904Y-128301428D01*
X108614285Y-128491904D01*
X108566666Y-128587142D01*
X108519047Y-128634761D01*
X108423809Y-128682380D01*
X108328571Y-128682380D01*
X108233333Y-128634761D01*
X108185714Y-128587142D01*
X108138095Y-128491904D01*
X108090476Y-128301428D01*
X108090476Y-128063333D01*
X108138095Y-127872857D01*
X108185714Y-127777619D01*
X108233333Y-127730000D01*
X108328571Y-127682380D01*
X106757142Y-121682380D02*
X106423809Y-121206190D01*
X106185714Y-121682380D02*
X106185714Y-120682380D01*
X106566666Y-120682380D01*
X106661904Y-120730000D01*
X106709523Y-120777619D01*
X106757142Y-120872857D01*
X106757142Y-121015714D01*
X106709523Y-121110952D01*
X106661904Y-121158571D01*
X106566666Y-121206190D01*
X106185714Y-121206190D01*
X107709523Y-121682380D02*
X107138095Y-121682380D01*
X107423809Y-121682380D02*
X107423809Y-120682380D01*
X107328571Y-120825238D01*
X107233333Y-120920476D01*
X107138095Y-120968095D01*
X108566666Y-120682380D02*
X108376190Y-120682380D01*
X108280952Y-120730000D01*
X108233333Y-120777619D01*
X108138095Y-120920476D01*
X108090476Y-121110952D01*
X108090476Y-121491904D01*
X108138095Y-121587142D01*
X108185714Y-121634761D01*
X108280952Y-121682380D01*
X108471428Y-121682380D01*
X108566666Y-121634761D01*
X108614285Y-121587142D01*
X108661904Y-121491904D01*
X108661904Y-121253809D01*
X108614285Y-121158571D01*
X108566666Y-121110952D01*
X108471428Y-121063333D01*
X108280952Y-121063333D01*
X108185714Y-121110952D01*
X108138095Y-121158571D01*
X108090476Y-121253809D01*
X106957142Y-114682380D02*
X106623809Y-114206190D01*
X106385714Y-114682380D02*
X106385714Y-113682380D01*
X106766666Y-113682380D01*
X106861904Y-113730000D01*
X106909523Y-113777619D01*
X106957142Y-113872857D01*
X106957142Y-114015714D01*
X106909523Y-114110952D01*
X106861904Y-114158571D01*
X106766666Y-114206190D01*
X106385714Y-114206190D01*
X107909523Y-114682380D02*
X107338095Y-114682380D01*
X107623809Y-114682380D02*
X107623809Y-113682380D01*
X107528571Y-113825238D01*
X107433333Y-113920476D01*
X107338095Y-113968095D01*
X108290476Y-113777619D02*
X108338095Y-113730000D01*
X108433333Y-113682380D01*
X108671428Y-113682380D01*
X108766666Y-113730000D01*
X108814285Y-113777619D01*
X108861904Y-113872857D01*
X108861904Y-113968095D01*
X108814285Y-114110952D01*
X108242857Y-114682380D01*
X108861904Y-114682380D01*
X98986380Y-121849095D02*
X97986380Y-121849095D01*
X97986380Y-121611000D01*
X98034000Y-121468142D01*
X98129238Y-121372904D01*
X98224476Y-121325285D01*
X98414952Y-121277666D01*
X98557809Y-121277666D01*
X98748285Y-121325285D01*
X98843523Y-121372904D01*
X98938761Y-121468142D01*
X98986380Y-121611000D01*
X98986380Y-121849095D01*
X97986380Y-120944333D02*
X97986380Y-120277666D01*
X98986380Y-120706238D01*
X167633333Y-85557142D02*
X167585714Y-85604761D01*
X167442857Y-85652380D01*
X167347619Y-85652380D01*
X167204761Y-85604761D01*
X167109523Y-85509523D01*
X167061904Y-85414285D01*
X167014285Y-85223809D01*
X167014285Y-85080952D01*
X167061904Y-84890476D01*
X167109523Y-84795238D01*
X167204761Y-84700000D01*
X167347619Y-84652380D01*
X167442857Y-84652380D01*
X167585714Y-84700000D01*
X167633333Y-84747619D01*
X168585714Y-85652380D02*
X168014285Y-85652380D01*
X168300000Y-85652380D02*
X168300000Y-84652380D01*
X168204761Y-84795238D01*
X168109523Y-84890476D01*
X168014285Y-84938095D01*
X155544142Y-107137142D02*
X155496523Y-107184761D01*
X155353666Y-107232380D01*
X155258428Y-107232380D01*
X155115571Y-107184761D01*
X155020333Y-107089523D01*
X154972714Y-106994285D01*
X154925095Y-106803809D01*
X154925095Y-106660952D01*
X154972714Y-106470476D01*
X155020333Y-106375238D01*
X155115571Y-106280000D01*
X155258428Y-106232380D01*
X155353666Y-106232380D01*
X155496523Y-106280000D01*
X155544142Y-106327619D01*
X156496523Y-107232380D02*
X155925095Y-107232380D01*
X156210809Y-107232380D02*
X156210809Y-106232380D01*
X156115571Y-106375238D01*
X156020333Y-106470476D01*
X155925095Y-106518095D01*
X157115571Y-106232380D02*
X157210809Y-106232380D01*
X157306047Y-106280000D01*
X157353666Y-106327619D01*
X157401285Y-106422857D01*
X157448904Y-106613333D01*
X157448904Y-106851428D01*
X157401285Y-107041904D01*
X157353666Y-107137142D01*
X157306047Y-107184761D01*
X157210809Y-107232380D01*
X157115571Y-107232380D01*
X157020333Y-107184761D01*
X156972714Y-107137142D01*
X156925095Y-107041904D01*
X156877476Y-106851428D01*
X156877476Y-106613333D01*
X156925095Y-106422857D01*
X156972714Y-106327619D01*
X157020333Y-106280000D01*
X157115571Y-106232380D01*
X156233333Y-112187142D02*
X156185714Y-112234761D01*
X156042857Y-112282380D01*
X155947619Y-112282380D01*
X155804761Y-112234761D01*
X155709523Y-112139523D01*
X155661904Y-112044285D01*
X155614285Y-111853809D01*
X155614285Y-111710952D01*
X155661904Y-111520476D01*
X155709523Y-111425238D01*
X155804761Y-111330000D01*
X155947619Y-111282380D01*
X156042857Y-111282380D01*
X156185714Y-111330000D01*
X156233333Y-111377619D01*
X156709523Y-112282380D02*
X156900000Y-112282380D01*
X156995238Y-112234761D01*
X157042857Y-112187142D01*
X157138095Y-112044285D01*
X157185714Y-111853809D01*
X157185714Y-111472857D01*
X157138095Y-111377619D01*
X157090476Y-111330000D01*
X156995238Y-111282380D01*
X156804761Y-111282380D01*
X156709523Y-111330000D01*
X156661904Y-111377619D01*
X156614285Y-111472857D01*
X156614285Y-111710952D01*
X156661904Y-111806190D01*
X156709523Y-111853809D01*
X156804761Y-111901428D01*
X156995238Y-111901428D01*
X157090476Y-111853809D01*
X157138095Y-111806190D01*
X157185714Y-111710952D01*
X156233333Y-114787142D02*
X156185714Y-114834761D01*
X156042857Y-114882380D01*
X155947619Y-114882380D01*
X155804761Y-114834761D01*
X155709523Y-114739523D01*
X155661904Y-114644285D01*
X155614285Y-114453809D01*
X155614285Y-114310952D01*
X155661904Y-114120476D01*
X155709523Y-114025238D01*
X155804761Y-113930000D01*
X155947619Y-113882380D01*
X156042857Y-113882380D01*
X156185714Y-113930000D01*
X156233333Y-113977619D01*
X156804761Y-114310952D02*
X156709523Y-114263333D01*
X156661904Y-114215714D01*
X156614285Y-114120476D01*
X156614285Y-114072857D01*
X156661904Y-113977619D01*
X156709523Y-113930000D01*
X156804761Y-113882380D01*
X156995238Y-113882380D01*
X157090476Y-113930000D01*
X157138095Y-113977619D01*
X157185714Y-114072857D01*
X157185714Y-114120476D01*
X157138095Y-114215714D01*
X157090476Y-114263333D01*
X156995238Y-114310952D01*
X156804761Y-114310952D01*
X156709523Y-114358571D01*
X156661904Y-114406190D01*
X156614285Y-114501428D01*
X156614285Y-114691904D01*
X156661904Y-114787142D01*
X156709523Y-114834761D01*
X156804761Y-114882380D01*
X156995238Y-114882380D01*
X157090476Y-114834761D01*
X157138095Y-114787142D01*
X157185714Y-114691904D01*
X157185714Y-114501428D01*
X157138095Y-114406190D01*
X157090476Y-114358571D01*
X156995238Y-114310952D01*
X167833333Y-78557142D02*
X167785714Y-78604761D01*
X167642857Y-78652380D01*
X167547619Y-78652380D01*
X167404761Y-78604761D01*
X167309523Y-78509523D01*
X167261904Y-78414285D01*
X167214285Y-78223809D01*
X167214285Y-78080952D01*
X167261904Y-77890476D01*
X167309523Y-77795238D01*
X167404761Y-77700000D01*
X167547619Y-77652380D01*
X167642857Y-77652380D01*
X167785714Y-77700000D01*
X167833333Y-77747619D01*
X168166666Y-77652380D02*
X168833333Y-77652380D01*
X168404761Y-78652380D01*
X167833333Y-80157142D02*
X167785714Y-80204761D01*
X167642857Y-80252380D01*
X167547619Y-80252380D01*
X167404761Y-80204761D01*
X167309523Y-80109523D01*
X167261904Y-80014285D01*
X167214285Y-79823809D01*
X167214285Y-79680952D01*
X167261904Y-79490476D01*
X167309523Y-79395238D01*
X167404761Y-79300000D01*
X167547619Y-79252380D01*
X167642857Y-79252380D01*
X167785714Y-79300000D01*
X167833333Y-79347619D01*
X168690476Y-79252380D02*
X168500000Y-79252380D01*
X168404761Y-79300000D01*
X168357142Y-79347619D01*
X168261904Y-79490476D01*
X168214285Y-79680952D01*
X168214285Y-80061904D01*
X168261904Y-80157142D01*
X168309523Y-80204761D01*
X168404761Y-80252380D01*
X168595238Y-80252380D01*
X168690476Y-80204761D01*
X168738095Y-80157142D01*
X168785714Y-80061904D01*
X168785714Y-79823809D01*
X168738095Y-79728571D01*
X168690476Y-79680952D01*
X168595238Y-79633333D01*
X168404761Y-79633333D01*
X168309523Y-79680952D01*
X168261904Y-79728571D01*
X168214285Y-79823809D01*
X167833333Y-81557142D02*
X167785714Y-81604761D01*
X167642857Y-81652380D01*
X167547619Y-81652380D01*
X167404761Y-81604761D01*
X167309523Y-81509523D01*
X167261904Y-81414285D01*
X167214285Y-81223809D01*
X167214285Y-81080952D01*
X167261904Y-80890476D01*
X167309523Y-80795238D01*
X167404761Y-80700000D01*
X167547619Y-80652380D01*
X167642857Y-80652380D01*
X167785714Y-80700000D01*
X167833333Y-80747619D01*
X168738095Y-80652380D02*
X168261904Y-80652380D01*
X168214285Y-81128571D01*
X168261904Y-81080952D01*
X168357142Y-81033333D01*
X168595238Y-81033333D01*
X168690476Y-81080952D01*
X168738095Y-81128571D01*
X168785714Y-81223809D01*
X168785714Y-81461904D01*
X168738095Y-81557142D01*
X168690476Y-81604761D01*
X168595238Y-81652380D01*
X168357142Y-81652380D01*
X168261904Y-81604761D01*
X168214285Y-81557142D01*
X166580333Y-112197142D02*
X166532714Y-112244761D01*
X166389857Y-112292380D01*
X166294619Y-112292380D01*
X166151761Y-112244761D01*
X166056523Y-112149523D01*
X166008904Y-112054285D01*
X165961285Y-111863809D01*
X165961285Y-111720952D01*
X166008904Y-111530476D01*
X166056523Y-111435238D01*
X166151761Y-111340000D01*
X166294619Y-111292380D01*
X166389857Y-111292380D01*
X166532714Y-111340000D01*
X166580333Y-111387619D01*
X167437476Y-111625714D02*
X167437476Y-112292380D01*
X167199380Y-111244761D02*
X166961285Y-111959047D01*
X167580333Y-111959047D01*
X167833333Y-82957142D02*
X167785714Y-83004761D01*
X167642857Y-83052380D01*
X167547619Y-83052380D01*
X167404761Y-83004761D01*
X167309523Y-82909523D01*
X167261904Y-82814285D01*
X167214285Y-82623809D01*
X167214285Y-82480952D01*
X167261904Y-82290476D01*
X167309523Y-82195238D01*
X167404761Y-82100000D01*
X167547619Y-82052380D01*
X167642857Y-82052380D01*
X167785714Y-82100000D01*
X167833333Y-82147619D01*
X168166666Y-82052380D02*
X168785714Y-82052380D01*
X168452380Y-82433333D01*
X168595238Y-82433333D01*
X168690476Y-82480952D01*
X168738095Y-82528571D01*
X168785714Y-82623809D01*
X168785714Y-82861904D01*
X168738095Y-82957142D01*
X168690476Y-83004761D01*
X168595238Y-83052380D01*
X168309523Y-83052380D01*
X168214285Y-83004761D01*
X168166666Y-82957142D01*
X89916095Y-143728380D02*
X89916095Y-142728380D01*
X89916095Y-143204571D02*
X90487523Y-143204571D01*
X90487523Y-143728380D02*
X90487523Y-142728380D01*
X91487523Y-143728380D02*
X90916095Y-143728380D01*
X91201809Y-143728380D02*
X91201809Y-142728380D01*
X91106571Y-142871238D01*
X91011333Y-142966476D01*
X90916095Y-143014095D01*
M02*
